<svg width="64" height="62" viewBox="0 0 64 62" fill="none" xmlns="http://www.w3.org/2000/svg">
<g clip-path="url(#clip0_2476_16559)">
<path d="M63.2726 36.6645L55.9998 19.2575C55.7768 18.7221 55.3598 18.3087 54.8071 18.0833C54.2544 17.8672 53.6435 17.8766 53.1004 18.1114L47.4374 20.5539C46.4774 20.9484 45.9635 21.963 46.1671 22.9305L44.6641 23.7478C44.1598 24.0296 43.5489 24.133 42.9574 24.0578L32.5138 22.5642C30.6907 22.3105 28.8192 22.893 27.5004 24.1236L26.7344 24.8375H20.9356C20.6738 24.8375 20.412 24.7436 20.218 24.5745L19.7041 24.1517C20.0629 23.2969 19.8204 22.3011 19.0447 21.7093L14.6617 18.3557C14.1962 17.9987 13.6144 17.839 13.0229 17.9236C12.441 17.9987 11.9077 18.3087 11.5586 18.7596L0.998622 32.6251C0.30044 33.5363 0.465289 34.8139 1.3962 35.5372L5.76953 38.8814C6.16711 39.1821 6.63256 39.3324 7.11741 39.3324C7.21438 39.3324 7.32105 39.323 7.41802 39.3136C7.99984 39.2384 8.52347 38.9378 8.87256 38.4681L8.91135 38.4211L9.54165 38.8814C9.91014 39.1351 10.1235 39.5672 10.1235 40.0181V42.5451L8.49438 44.5742C7.03983 46.406 7.36953 49.0457 9.25074 50.4548C10.0168 51.0372 10.9477 51.3472 11.9077 51.3472C12.0823 51.3472 12.2665 51.3378 12.441 51.319C12.635 51.2908 12.8192 51.2439 13.0035 51.1969C13.0035 51.2533 12.9938 51.3002 12.9938 51.3566C12.9938 52.559 13.5562 53.6863 14.5259 54.4566C15.2823 55.039 16.1938 55.3302 17.0956 55.3302C17.658 55.3302 18.2204 55.2081 18.7441 54.9921V55.039C18.8798 56.0254 19.4132 56.899 20.1889 57.4533L20.3635 57.5848C21.0229 58.0545 21.8083 58.3081 22.6132 58.3081C22.7974 58.3081 22.9817 58.2987 23.1756 58.2705C23.5926 58.2142 23.9707 58.0733 24.3392 57.8948C24.5429 58.8999 25.1344 59.7642 26.0168 60.309L26.1429 60.3936C26.7732 60.7975 27.5004 61.0042 28.2374 61.0042C28.5089 61.0042 28.7707 60.976 29.0423 60.9196C30.0604 60.713 30.9235 60.1305 31.4956 59.2851L31.6604 59.0408C32.3489 59.5481 33.1732 59.8111 34.0556 59.8111C35.0932 59.8111 36.1114 59.3978 36.8483 58.6933C37.6532 57.9136 38.0798 56.8239 38.0023 55.7248C38.0023 55.659 37.9926 55.5839 37.9829 55.5181C39.1174 55.6778 40.3101 55.3302 41.1732 54.4942C41.9489 53.7427 42.3465 52.6905 42.2592 51.629C42.2495 51.4975 42.2301 51.366 42.201 51.2345C43.4907 51.3096 44.761 50.8117 45.6338 49.8066C46.3804 48.9517 46.7295 47.8245 46.5841 46.716C46.5744 46.6314 46.5647 46.5563 46.5453 46.4718C47.7186 46.5939 48.9114 46.1993 49.7841 45.3727C50.7441 44.4427 51.1029 43.1275 50.841 41.8875C50.8895 41.8781 50.938 41.8875 50.9865 41.8781L54.1089 41.4554C54.5065 41.803 55.0398 42.0002 55.5732 42.0002C55.8738 42.0002 56.1744 41.9439 56.4556 41.8124L62.138 39.3793C63.2047 38.9284 63.7089 37.726 63.2726 36.6645ZM7.18529 37.7166C7.03983 37.7354 6.90408 37.6978 6.79741 37.6133L2.44347 34.2784C2.23014 34.1093 2.18165 33.8087 2.3465 33.5927L12.8968 19.699C13.0035 19.5581 13.1489 19.5205 13.2362 19.5111H13.3041C13.3913 19.5111 13.5077 19.5299 13.6144 19.6145L18.0071 22.9681C18.2204 23.1278 18.2592 23.4284 18.1041 23.6257L17.9683 23.8042C17.9586 23.8136 17.9489 23.823 17.9392 23.8324L11.8689 31.7984C11.8592 31.8078 11.8592 31.8078 11.8495 31.8172L10.6956 33.339L8.04832 36.8148C8.03862 36.8242 8.03862 36.8336 8.03862 36.8336L7.51499 37.5287C7.41802 37.6602 7.28226 37.7072 7.18529 37.7166ZM12.2471 49.7127C11.5489 49.7972 10.8507 49.6093 10.2883 49.1866C9.14408 48.3224 8.93074 46.6972 9.83256 45.5699L12.955 41.6714C13.4786 41.0139 14.2641 40.6757 15.0592 40.6757C15.6217 40.6757 16.1938 40.8542 16.6786 41.2111C17.3283 41.709 17.7065 42.4511 17.7065 43.2496C17.7065 43.8227 17.5126 44.3675 17.1441 44.8372L14.0217 48.7357C13.5756 49.2805 12.9453 49.6281 12.2471 49.7127ZM15.5829 53.1978C15.001 52.7375 14.6714 52.0705 14.6714 51.3566C14.6714 50.8399 14.8556 50.3327 15.2144 49.8911L18.3271 46.0021C18.7247 45.4948 19.3065 45.1848 19.9562 45.1096C20.0532 45.0908 20.1501 45.0908 20.2374 45.0908C20.7901 45.0908 21.3332 45.2787 21.8374 45.6733C22.8847 46.4905 23.0495 47.9842 22.2059 48.9987L19.0156 52.8502C18.172 53.846 16.6301 54.0057 15.5829 53.1978ZM22.9235 56.6642C22.361 56.7393 21.8083 56.6078 21.4107 56.326L21.2459 56.1945C20.7804 55.8657 20.4895 55.3772 20.412 54.823C20.3344 54.2593 20.4992 53.7051 20.858 53.2636L23.2241 50.4266C23.6313 49.9287 24.252 49.6657 24.8726 49.6657C25.3089 49.6657 25.755 49.7972 26.1235 50.0696C26.6568 50.4548 26.9671 51.056 26.9671 51.7042C26.9671 52.1269 26.841 52.5214 26.5986 52.8596C26.5792 52.8784 26.5695 52.9066 26.5501 52.9348C26.5404 52.9442 26.5404 52.9536 26.5307 52.9536L26.492 53.0099L24.2907 55.8657C23.9804 56.3072 23.4859 56.589 22.9235 56.6642ZM31.195 56.7299L30.0798 58.4114C29.7598 58.8905 29.2653 59.2193 28.6835 59.3414C28.1113 59.4542 27.5295 59.3508 27.0544 59.0502L26.9283 58.9657C26.4144 58.6463 26.075 58.1484 25.9683 57.5754C25.8617 57.0024 25.9877 56.4293 26.3465 55.9502C26.9283 55.2081 27.5877 54.3814 27.8495 54.0714C27.898 54.0245 27.9465 53.9681 27.995 53.9305C28.0047 53.9305 28.0047 53.9211 28.0047 53.9211C28.0144 53.9118 28.0338 53.9024 28.0435 53.893C28.092 53.8554 28.1307 53.8178 28.2083 53.7708C28.9356 53.3481 29.8471 53.3481 30.555 53.7896C31.1756 54.1748 31.5538 54.8511 31.5538 55.5839C31.5441 55.9972 31.4277 56.3918 31.195 56.7299ZM48.601 44.2266C47.8059 44.9875 46.5162 45.0814 45.6241 44.4521L40.0483 40.4596L37.8762 38.9002C37.5077 38.6372 36.9841 38.7124 36.7029 39.0693C36.4313 39.4263 36.5089 39.9336 36.8774 40.206L40.6786 42.9302L43.898 45.2411C44.4604 45.6451 44.8192 46.2369 44.9065 46.9133C44.9938 47.5896 44.7901 48.2472 44.3344 48.7733C43.5004 49.7314 42.0265 49.9099 40.9695 49.1866L34.2883 44.5554C33.9101 44.2924 33.3865 44.3769 33.1247 44.7433C32.8532 45.1096 32.9404 45.6169 33.3186 45.8705L39.7089 50.2951C40.2035 50.6427 40.5138 51.1781 40.572 51.7605C40.6204 52.3524 40.4071 52.9254 39.9707 53.3481C39.2435 54.0621 38.0701 54.1278 37.2459 53.5266L30.9429 48.7733C30.5744 48.5008 30.0507 48.5572 29.7695 48.9142C29.4883 49.2617 29.5465 49.7784 29.9053 50.0508L35.4132 54.2218C35.9368 54.6163 36.2665 55.2081 36.3053 55.8469C36.3538 56.4951 36.1114 57.1057 35.6362 57.566C34.8604 58.3175 33.5513 58.4021 32.6786 57.7914C32.6786 57.7914 32.6301 57.7351 32.5623 57.6693L32.5816 57.6411C32.9889 57.0399 33.2023 56.3354 33.2023 55.5933C33.2023 54.3063 32.5429 53.1321 31.4374 52.4369C30.5938 51.9108 29.5853 51.7511 28.6253 51.9202C28.6253 51.8545 28.635 51.7887 28.635 51.723C28.635 50.5487 28.0823 49.4778 27.1223 48.7827C26.2883 48.1814 25.2895 47.956 24.3392 48.0875C24.5332 46.7348 24.0192 45.3163 22.8071 44.3675C21.9441 43.6817 20.8483 43.3811 19.7429 43.5033C19.5974 43.5221 19.4617 43.5596 19.3259 43.5878C19.3356 43.4751 19.355 43.3717 19.355 43.259C19.355 41.9533 18.7538 40.7508 17.6871 39.943C16.0871 38.7405 13.8859 38.8063 12.3538 39.9711C12.3538 39.9618 12.3538 39.9618 12.3635 39.9524C12.3441 39.9711 12.3247 39.9899 12.3053 39.9993C12.2083 40.0745 12.1114 40.1684 12.0241 40.253C11.9465 40.3281 11.8592 40.3939 11.7817 40.4784V40.0275C11.7817 39.0505 11.3065 38.1393 10.521 37.5851L9.88105 37.1248L11.1029 35.5184L12.6447 33.4893L13.1295 32.8599C13.1586 32.8317 13.178 32.8036 13.2071 32.7754L18.7441 25.4951L19.1029 25.7863C19.5974 26.209 20.2471 26.4439 20.9162 26.4439H24.9695L22.6423 28.6045C22.0992 29.1117 21.7986 29.7975 21.7986 30.5302C21.7986 31.5824 22.3998 32.5124 23.3792 32.9539C25.7647 34.0624 28.5865 34.006 30.9235 32.813L31.932 32.3057C32.8823 31.8172 34.0459 31.9299 34.8895 32.5875L44.732 40.2248C45.3041 40.6569 45.9053 41.0139 46.5259 41.2769C46.7295 41.3614 46.9526 41.446 47.1465 41.5117C47.321 41.5775 47.5053 41.6339 47.6604 41.6714C47.8738 41.7372 48.0871 41.7842 48.2713 41.8124C48.5235 41.8593 48.7659 41.8969 48.9695 41.9063C49.0665 41.9157 49.1538 41.9157 49.2507 41.9251C49.212 41.9345 49.1829 41.9439 49.1441 41.9533C49.4156 42.733 49.2217 43.6254 48.601 44.2266ZM50.7538 40.2811C50.4338 40.3187 50.0847 40.3375 49.6871 40.3281C49.5223 40.3281 49.3671 40.3187 49.1441 40.2905C48.9501 40.2811 48.7756 40.2436 48.5623 40.206C48.4265 40.1872 48.2907 40.159 48.1162 40.1027C47.9804 40.0745 47.8544 40.0275 47.7283 39.9805C47.5538 39.9242 47.3695 39.849 47.2047 39.7833C46.7198 39.5766 46.235 39.2948 45.7792 38.9472L36.441 31.6951L35.9368 31.3099C35.1417 30.6899 34.172 30.3705 33.1926 30.3705C32.4944 30.3705 31.7962 30.5302 31.1659 30.859L30.1574 31.3663C28.2859 32.3245 26.0265 32.3714 24.1162 31.479C23.6604 31.2724 23.4956 30.8496 23.4956 30.5208C23.4956 30.3236 23.5538 30.023 23.8253 29.7693L28.6641 25.279C29.6144 24.396 30.9623 23.9733 32.2713 24.1611L42.7247 25.6548C43.6847 25.7863 44.6738 25.6078 45.4883 25.1569L46.7683 24.4617L48.8241 29.3842L53.2459 39.943L50.7538 40.2811ZM61.4592 37.9139L55.7671 40.3469C55.5441 40.4408 55.2726 40.3657 55.1077 40.0933L49.0568 25.6172L48.2713 23.7572L47.8253 22.6863C47.7186 22.4421 47.835 22.1602 48.0968 22.0475L53.7792 19.6051C53.9053 19.5487 54.0507 19.5487 54.1768 19.5957C54.3029 19.6427 54.3998 19.7366 54.4483 19.8681L61.7211 37.2845C61.818 37.5193 61.7017 37.8011 61.4592 37.9139Z" fill="#233F90"/>
<path d="M31.9997 20.3097C37.4978 20.3097 41.9682 15.9791 41.9682 10.6527C41.9682 5.32633 37.4978 0.986328 31.9997 0.986328C26.5015 0.986328 22.0215 5.31693 22.0215 10.6527C22.0312 15.9791 26.5015 20.3097 31.9997 20.3097ZM31.9997 2.61148C36.5766 2.61148 40.2906 6.21875 40.2906 10.6527C40.2906 15.0866 36.5669 18.6845 31.9997 18.6845C27.4227 18.6845 23.6991 15.0772 23.6991 10.6527C23.6991 6.21875 27.4227 2.61148 31.9997 2.61148Z" fill="#233F90"/>
<path d="M29.9637 13.5929C30.1189 13.7432 30.3322 13.8278 30.5553 13.8278C30.7783 13.8278 30.9916 13.7432 31.1468 13.5929L36.0243 8.86778C36.354 8.54839 36.354 8.04112 36.0243 7.72172C35.6946 7.40233 35.171 7.40233 34.8413 7.72172L30.5553 11.8738L29.1686 10.5305C28.8389 10.2111 28.3153 10.2111 27.9856 10.5305C27.6559 10.8499 27.6559 11.3572 27.9856 11.6766L29.9637 13.5929Z" fill="#233F90"/>
</g>
<defs>
<clipPath id="clip0_2476_16559">
<rect width="64" height="62" fill="white"/>
</clipPath>
</defs>
</svg>
