<svg width="65" height="61" viewBox="0 0 65 61" fill="none" xmlns="http://www.w3.org/2000/svg">
<g clip-path="url(#clip0_2476_16542)">
<path d="M34.9285 11.29C38.156 11.29 40.7817 8.86292 40.7817 5.87982C40.7817 2.89671 38.1559 0.469482 34.9285 0.469482C31.7011 0.469482 29.0755 2.89659 29.0755 5.87982C29.0755 8.86304 31.7012 11.29 34.9285 11.29ZM34.9285 2.11236C37.176 2.11236 39.0043 3.8024 39.0043 5.87982C39.0043 7.95723 37.176 9.64716 34.9285 9.64716C32.6811 9.64716 30.8528 7.95711 30.8528 5.87982C30.8528 3.80252 32.6812 2.11236 34.9285 2.11236ZM15.6826 41.5933C16.5171 41.5933 17.3302 41.1932 17.7766 40.4785L21.4034 34.6719C21.5863 34.5531 21.7551 34.4118 21.904 34.2476L23.4342 32.5581C23.8015 32.1525 23.9489 31.6424 23.8492 31.1213C23.7494 30.6004 23.4215 30.1678 22.9261 29.9036L19.4406 28.0435L19.6713 27.6742C19.9154 27.2834 19.9799 26.827 19.853 26.3889C19.7853 26.1552 19.6663 25.9433 19.5071 25.7612C19.6929 25.556 19.8601 25.3275 20.0061 25.075L24.1276 17.9508L26.1801 17.9328L24.1672 27.1466C23.8253 28.7119 24.3264 30.6231 25.836 31.6024L26.4757 37.5324C26.5688 38.3949 26.377 39.0972 25.8717 39.7429L20.7708 46.2613C19.3453 48.0828 19.9979 49.8844 21.2076 50.7874C21.7961 51.2268 22.5611 51.4907 23.3675 51.4907C24.3107 51.4907 25.3104 51.1297 26.1503 50.2666L32.0539 44.2006C33.5551 42.658 34.3158 40.781 34.315 38.6217L34.313 34.3504L40.42 36.221L40.9484 43.2426C41.0827 45.0262 42.6544 45.9529 44.1475 45.9528H44.1755C45.6888 45.9411 47.2748 44.9826 47.378 43.1734L47.8188 35.4512C48.0357 31.6496 45.66 30.6939 43.1449 29.6822C42.8607 29.5678 42.5683 29.4504 42.2703 29.3253C42.2491 29.3164 42.2276 29.3081 42.2056 29.3009L36.2699 27.312L37.4191 22.2242L38.9057 23.8539C40.2194 25.2939 41.9893 26.0545 44.0256 26.0544H44.0452L49.8159 26.0402C51.2801 26.0367 52.5105 24.9766 52.6171 23.6267L52.6391 23.3491C52.7484 21.9657 51.6518 20.7461 50.1425 20.5725L44.8371 19.9623C44.1542 19.8839 43.6293 19.5877 43.2771 19.0821L40.7732 15.4878C39.3145 13.3937 37.2375 12.0739 34.6002 11.565L31.095 10.8884C29.9932 10.6757 29.004 10.6395 27.8878 10.7709L22.6742 11.384C20.3525 11.6571 18.5266 12.9184 17.6648 14.8445L14.231 22.52C14.1884 22.6151 14.1497 22.7101 14.1149 22.8049C13.3186 22.5819 12.4299 22.8836 11.9962 23.5779L11.7655 23.9472L8.28017 22.0871C7.78454 21.8226 7.21516 21.7765 6.67777 21.957C6.13961 22.1376 5.73501 22.5109 5.53887 23.0077L4.72104 25.0772C4.64157 25.2784 4.59396 25.4841 4.57403 25.6896L0.946975 31.4967C0.62553 32.0114 0.540598 32.6123 0.707669 33.189C0.874739 33.7656 1.2735 34.2467 1.83032 34.5439L14.4806 41.2949C14.8596 41.4972 15.274 41.5933 15.6832 41.5933H15.6826ZM32.5372 38.6223C32.538 40.3876 31.9475 41.8528 30.7322 43.1016L24.8286 49.1677C23.9676 50.0524 22.9504 49.9768 22.324 49.5091C21.7702 49.0957 21.4081 48.2492 22.2105 47.2239L27.3113 40.7055C28.0651 39.7423 28.3788 38.6197 28.2439 37.3691L27.6998 32.3246L32.5351 33.8057L32.5372 38.6223ZM41.7823 19.9713C42.4242 20.8925 43.4045 21.4531 44.6175 21.5925L49.9227 22.2026C50.4921 22.2681 50.9065 22.719 50.8662 23.2292L50.8442 23.5068C50.8043 24.013 50.3602 24.3958 49.811 24.3971L44.0402 24.4113H44.025C42.5083 24.4113 41.2428 23.8674 40.2641 22.7945L37.8801 20.1812L38.8622 15.8322C39.0068 16.0065 39.1463 16.1872 39.2784 16.3771L41.7823 19.9713ZM19.3069 15.4721C19.918 14.1062 21.2271 13.21 22.8983 13.0134L28.1119 12.4003C29.036 12.2918 29.8194 12.3204 30.7314 12.4963L34.2366 13.1729C35.4178 13.4009 36.4603 13.8293 37.3584 14.4506L36.0517 20.2368C36.0517 20.2368 36.0517 20.2368 36.0517 20.2369L34.3722 27.6734C34.2818 28.0735 34.5235 28.4743 34.9393 28.6136L41.5669 30.8341C41.8626 30.9579 42.1528 31.0747 42.4354 31.1884C44.8601 32.1637 46.1955 32.7009 46.0436 35.3644L45.6029 43.0866C45.5518 43.9815 44.7939 44.3048 44.1604 44.3097C44.1556 44.3097 44.1508 44.3097 44.146 44.3097C43.5263 44.3097 42.787 44.0012 42.7213 43.1283L42.1515 35.5573C42.1265 35.2248 41.8867 34.9393 41.5446 34.8345L27.36 30.4896C26.122 30.1104 25.6502 28.6572 25.9091 27.4714L28.1391 17.264C28.1921 17.0212 28.1238 16.7691 27.9531 16.5782C27.7841 16.3893 27.5329 16.2799 27.268 16.2799C27.2652 16.2799 27.2623 16.2799 27.2597 16.2799L23.5839 16.3123C23.259 16.3151 22.9618 16.4815 22.8087 16.7464L18.4387 24.3001C18.3171 24.5104 18.1757 24.6886 18.0172 24.8345L15.7159 23.6064C15.7515 23.4579 15.8029 23.3047 15.8731 23.1478L19.3071 15.4721H19.3069ZM13.535 24.3992C13.5488 24.3771 13.5873 24.3674 13.6112 24.3802L18.1117 26.782C18.1236 26.7883 18.1316 26.799 18.1359 26.8135C18.1401 26.8282 18.1387 26.8412 18.1319 26.8523L17.9012 27.2217L13.3045 24.7685L13.5351 24.3992H13.535ZM6.39009 25.6408L7.20805 23.571C7.22443 23.5293 7.23865 23.5163 7.28397 23.501C7.32929 23.4858 7.34935 23.4874 7.39112 23.5097L22.0374 31.3259C22.0791 31.3481 22.0906 31.3634 22.0989 31.4071C22.1073 31.4511 22.1021 31.4691 22.0712 31.5034L20.5412 33.1927C20.2711 33.4907 19.7711 33.557 19.3778 33.3471L15.5651 31.3124C15.6423 31.0936 15.6503 30.8584 15.5842 30.6304C15.4943 30.3199 15.2792 30.0606 14.9786 29.9002L12.2562 28.4474C11.9556 28.2869 11.6049 28.2444 11.2692 28.3276C11.0225 28.3887 10.8062 28.5126 10.6397 28.684L6.82706 26.6493C6.43364 26.4393 6.24575 26.0058 6.39009 25.6408ZM13.6772 31.1027L13.5359 31.329L11.6391 30.3166L11.7803 30.0905L13.6772 31.1027ZM2.42382 32.7637C2.37951 32.611 2.40148 32.4527 2.48565 32.318L5.3817 27.6813C5.5456 27.8293 5.7312 27.9615 5.93826 28.0719L9.75092 30.1066C9.6736 30.3254 9.66574 30.5606 9.73188 30.7887C9.82189 31.0992 10.0368 31.3584 10.3374 31.5189L13.06 32.9719C13.2599 33.0786 13.4821 33.1332 13.7074 33.1332C13.8207 33.1332 13.9345 33.1194 14.0469 33.0917C14.2937 33.0305 14.51 32.9066 14.6766 32.7353L18.4892 34.77C18.6963 34.8805 18.9129 34.9631 19.1334 35.0203L16.2375 39.6568C16.0623 39.9374 15.6728 40.0342 15.3687 39.8719L2.71848 33.1209C2.57286 33.0431 2.46813 32.9162 2.42395 32.7636L2.42382 32.7637ZM64.3754 41.9389C64.3754 42.3926 63.9776 42.7603 63.4868 42.7603H50.947V47.5565C50.947 48.0101 50.5491 48.3779 50.0583 48.3779H37.5185V53.1739C37.5185 53.6276 37.1206 53.9954 36.6298 53.9954H24.09V58.7914C24.09 59.2451 23.6922 59.6128 23.2014 59.6128H9.77276C9.28196 59.6128 8.88408 59.2451 8.88408 58.7914C8.88408 58.3377 9.28196 57.9699 9.77276 57.9699H22.3126V53.1739C22.3126 52.7203 22.7104 52.3525 23.2012 52.3525H35.741V47.5565C35.741 47.1028 36.1389 46.735 36.6297 46.735H49.1695V41.9389C49.1695 41.4852 49.5674 41.1175 50.0582 41.1175H63.4866C63.9774 41.1175 64.3753 41.4852 64.3753 41.9389H64.3754Z" fill="#233F90"/>
</g>
<defs>
<clipPath id="clip0_2476_16542">
<rect width="65" height="60.0822" fill="white"/>
</clipPath>
</defs>
</svg>
