<svg width="68" height="63" viewBox="0 0 68 63" fill="none" xmlns="http://www.w3.org/2000/svg">
<path d="M62.6875 35.1614H48.3054C48.1658 35.1613 48.0277 35.1867 47.8987 35.236C47.7698 35.2854 47.6527 35.3577 47.554 35.4489C47.4553 35.5401 47.3771 35.6484 47.3237 35.7676C47.2703 35.8868 47.2428 36.0145 47.2429 36.1435V39.1406H35.7157C35.5761 39.1406 35.438 39.166 35.309 39.2153C35.1801 39.2647 35.063 39.337 34.9643 39.4282C34.8656 39.5194 34.7874 39.6277 34.734 39.7469C34.6806 39.866 34.6531 39.9938 34.6532 40.1227V45.1772H33.3934L34.5432 35.2256C34.5917 34.7873 34.4851 34.3463 34.2394 33.9687C33.9936 33.5912 33.622 33.2976 33.1803 33.1319L25.4845 30.2613V27.9936C26.2544 28.7028 27.2736 29.1337 28.3576 29.2082H35.435C36.3212 29.1988 37.1677 28.8669 37.7908 28.2843C38.4139 27.7017 38.7634 26.9155 38.7634 26.0963C38.7634 25.2771 38.4139 24.4909 37.7907 23.9084C37.1676 23.3258 36.3211 22.9939 35.4349 22.9846H29.9192C29.6004 22.9854 29.2941 22.8708 29.0657 22.6652C28.0781 21.7882 24.6772 18.7166 23.7403 17.8764C23.1462 17.34 22.3482 17.0405 21.5177 17.042H14.9969C14.5577 17.0409 14.1226 17.1202 13.7167 17.2753C13.3107 17.4303 12.942 17.6581 12.6317 17.9455L5.26064 24.7416C4.63572 25.3136 4.28179 26.0914 4.27648 26.9044C4.2661 28.1389 4.2495 30.4397 4.25001 32.1114C4.24884 32.5094 4.33353 32.9037 4.49913 33.2711C4.66473 33.6385 4.90791 33.9717 5.21445 34.2512C5.67928 34.6661 6.2649 34.9467 6.89961 35.0587C7.53432 35.1706 8.19058 35.1091 8.78804 34.8816C9.38551 34.6541 9.89824 34.2705 10.2635 33.7778C10.6287 33.2851 10.8306 32.7046 10.8444 32.1075L10.8792 28.0391L12.294 27.127V34.5024C12.1483 35.4205 10.647 44.9081 10.0203 49.2696H7.55014C7.4106 49.2696 7.27242 49.295 7.14349 49.3443C7.01457 49.3937 6.89742 49.466 6.79875 49.5572C6.70009 49.6484 6.62182 49.7567 6.56844 49.8759C6.51506 49.995 6.4876 50.1228 6.48764 50.2518V56.8225C6.49307 57.0797 6.6074 57.3246 6.80608 57.5047C7.00475 57.6848 7.27191 57.7856 7.55017 57.7856C7.82843 57.7856 8.09559 57.6847 8.29425 57.5046C8.49291 57.3245 8.60722 57.0796 8.61264 56.8224V51.2339H15.9546C16.1527 51.3078 16.374 51.3078 16.5721 51.2339H23.0067C23.1463 51.2339 23.2844 51.2085 23.4134 51.1592C23.5423 51.1098 23.6594 51.0375 23.7581 50.9463C23.8568 50.8551 23.935 50.7468 23.9884 50.6276C24.0418 50.5085 24.0693 50.3807 24.0692 50.2518V47.1414H35.7157C35.8552 47.1414 35.9934 47.116 36.1223 47.0667C36.2513 47.0174 36.3684 46.945 36.4671 46.8538C36.5657 46.7626 36.644 46.6543 36.6974 46.5352C36.7508 46.416 36.7782 46.2883 36.7782 46.1593V41.1049H48.3054C48.4449 41.1049 48.5831 41.0795 48.712 41.0302C48.8409 40.9808 48.9581 40.9085 49.0568 40.8173C49.1554 40.7261 49.2337 40.6178 49.2871 40.4986C49.3405 40.3795 49.3679 40.2517 49.3679 40.1227V37.1256H61.625V44.6104C61.625 44.8708 61.737 45.1206 61.9362 45.3048C62.1355 45.489 62.4057 45.5925 62.6875 45.5925C62.9693 45.5925 63.2396 45.489 63.4388 45.3048C63.6381 45.1206 63.75 44.8708 63.75 44.6104V36.1435C63.75 36.0145 63.7226 35.8868 63.6692 35.7676C63.6158 35.6484 63.5376 35.5401 63.4389 35.4489C63.3402 35.3577 63.2231 35.2854 63.0942 35.236C62.9652 35.1867 62.8271 35.1613 62.6875 35.1614ZM29.9192 24.9489H35.435C35.7611 24.9533 36.0723 25.0762 36.3012 25.2909C36.5301 25.5056 36.6585 25.795 36.6585 26.0965C36.6585 26.3979 36.5301 26.6873 36.3012 26.902C36.0723 27.1168 35.7611 27.2396 35.435 27.244H28.3576C27.7764 27.3457 26.067 25.8701 25.4844 25.5432V22.187C26.6454 23.1378 28.159 25.0865 29.9192 24.9489ZM14.4076 34.7173C14.4153 34.67 14.4191 34.6222 14.419 34.5744V25.2443C14.4165 25.0657 14.3617 24.8911 14.2605 24.739C14.1593 24.5868 14.0154 24.4629 13.844 24.3803C13.6727 24.2977 13.4804 24.2595 13.2875 24.2698C13.0946 24.28 12.9083 24.3384 12.7485 24.4387L9.66368 26.4278C9.37229 26.6156 9.13428 26.8656 8.96988 27.1567C8.80549 27.4477 8.71958 27.7712 8.71947 28.0995V32.1075C8.708 32.3178 8.63167 32.5206 8.49948 32.6921C8.36728 32.8636 8.18476 32.9965 7.97347 33.0752C7.76218 33.1538 7.53095 33.1749 7.30709 33.136C7.08322 33.0971 6.87609 32.9998 6.71015 32.8556C6.60355 32.7584 6.51901 32.6425 6.46147 32.5147C6.40392 32.3869 6.37453 32.2498 6.37501 32.1114C6.37449 30.4436 6.39109 28.1504 6.40147 26.9198C6.40403 26.6238 6.53329 26.3407 6.761 26.1324L14.1321 19.3363C14.2455 19.2312 14.3804 19.148 14.5288 19.0913C14.6773 19.0347 14.8364 19.0058 14.997 19.0063H21.5178C22.1451 18.9305 22.9358 19.9689 23.3595 20.2743V30.9241C23.3596 31.1199 23.4229 31.3113 23.5414 31.4736C23.6599 31.636 23.8282 31.7619 24.0247 31.8352L32.4307 35.0165L31.257 45.1772H28.3496C28.5893 43.2125 29.0485 39.8207 29.2458 38.4347C29.3235 37.9066 29.173 37.3715 28.8268 36.9453C28.4806 36.5191 27.9666 36.2362 27.3963 36.1579L22.297 35.4261C21.6785 35.3409 21.0478 35.37 20.4415 35.5116C19.8352 35.6532 19.2653 35.9046 18.7647 36.2511C18.2642 36.5976 17.8429 37.0324 17.5253 37.5304C17.2077 38.0284 17.0001 38.5796 16.9145 39.1522L15.5993 48.0679C15.5595 48.3385 15.4432 48.8739 15.3619 49.2697H12.1644C12.8381 44.6152 14.3909 34.8239 14.4076 34.7173ZM23.0067 45.1772C22.8671 45.1771 22.729 45.2025 22.6 45.2519C22.4711 45.3012 22.354 45.3736 22.2553 45.4648C22.1566 45.556 22.0784 45.6642 22.025 45.7834C21.9716 45.9026 21.9441 46.0303 21.9442 46.1593V49.2696H17.5257C17.6106 49.2038 18.9502 39.8123 19.0213 39.4082C19.0681 39.0944 19.1818 38.7923 19.3558 38.5194C19.5299 38.2465 19.7608 38.0082 20.0351 37.8184C20.3095 37.6285 20.6219 37.4909 20.9542 37.4135C21.2866 37.3361 21.6322 37.3204 21.9712 37.3673L27.0699 38.0991C27.0904 38.1012 27.1091 38.1108 27.122 38.1257C27.1348 38.1406 27.1407 38.1597 27.1384 38.1786C26.9334 39.6217 26.4457 43.2281 26.2118 45.1771L23.0067 45.1772Z" fill="#233F90"/>
<path d="M18.1315 16.1607C24.54 15.959 24.5382 6.24485 18.1314 6.04419C11.7222 6.24583 11.724 15.9602 18.1315 16.1607ZM18.1315 8.00843C21.7233 8.10291 21.7224 14.1027 18.1314 14.1965C14.539 14.1018 14.5399 8.10238 18.1315 8.00843Z" fill="#233F90"/>
<path d="M49.2882 17.8236H50.8586V32.8267C50.8586 32.9557 50.886 33.0835 50.9394 33.2026C50.9928 33.3218 51.071 33.4301 51.1697 33.5213C51.2684 33.6125 51.3855 33.6848 51.5144 33.7342C51.6434 33.7835 51.7815 33.8089 51.9211 33.8089H58.472C58.6115 33.8089 58.7497 33.7835 58.8786 33.7342C59.0075 33.6848 59.1247 33.6125 59.2233 33.5213C59.322 33.4301 59.4003 33.3218 59.4537 33.2026C59.507 33.0835 59.5345 32.9557 59.5345 32.8267V17.8236H61.1048C61.4179 17.8213 61.7248 17.7433 61.9952 17.5974C62.2655 17.4515 62.4899 17.2428 62.646 16.992C62.8021 16.7412 62.8846 16.457 62.8851 16.1676C62.8857 15.8782 62.8044 15.5938 62.6493 15.3424L56.7423 5.88385C56.5829 5.6351 56.3559 5.42914 56.0839 5.28633C55.812 5.14352 55.5044 5.06881 55.1916 5.06959C54.8788 5.07036 54.5716 5.1466 54.3005 5.29075C54.0293 5.43491 53.8036 5.64199 53.6456 5.89152L47.7432 15.3434C47.59 15.595 47.5102 15.8791 47.5117 16.1678C47.5133 16.4565 47.596 16.7399 47.7519 16.9901C47.9077 17.2403 48.1313 17.4487 48.4007 17.5948C48.67 17.741 48.9759 17.8198 49.2882 17.8236ZM55.1963 7.33687L60.5181 15.8594H58.472C58.3324 15.8594 58.1943 15.8847 58.0653 15.9341C57.9364 15.9834 57.8193 16.0558 57.7206 16.147C57.6219 16.2382 57.5437 16.3465 57.4903 16.4656C57.4369 16.5848 57.4094 16.7125 57.4095 16.8415V31.8446H52.9836V16.8415C52.9836 16.7125 52.9562 16.5848 52.9028 16.4656C52.8494 16.3465 52.7712 16.2382 52.6725 16.147C52.5738 16.0558 52.4567 15.9834 52.3278 15.9341C52.1988 15.8847 52.0606 15.8594 51.9211 15.8594H49.875L55.1963 7.33687Z" fill="#233F90"/>
</svg>
