<svg width="64" height="56" viewBox="0 0 64 56" fill="none" xmlns="http://www.w3.org/2000/svg">
<path d="M23.5041 10.8577C23.3804 10.6282 23.4191 10.3572 23.6041 10.1606L31.4229 1.87712C31.5641 1.72633 31.7766 1.63892 32.0004 1.63892C32.2241 1.63892 32.4366 1.72633 32.5791 1.87712L40.3979 10.1606C40.5829 10.3561 40.6216 10.6282 40.4979 10.8577C40.3741 11.0871 40.1103 11.2335 39.8191 11.2335H36.9629V26.0696C36.9629 26.4313 36.6266 26.7252 36.2129 26.7252C35.7991 26.7252 35.4629 26.4313 35.4629 26.0696V10.5779C35.4629 10.2163 35.7991 9.92235 36.2129 9.92235H38.2279L32.0004 3.32489L25.7729 9.92235H27.7879C28.2016 9.92235 28.5379 10.2163 28.5379 10.5779V26.0696C28.5379 26.4313 28.2016 26.7252 27.7879 26.7252C27.3741 26.7252 27.0379 26.4313 27.0379 26.0696V11.2335H24.1816C23.8916 11.2335 23.6279 11.0871 23.5041 10.8577ZM40.1291 20.7976C40.2528 21.027 40.5166 21.1734 40.8078 21.1734H43.6641V27.6988C43.6641 28.0605 44.0004 28.3544 44.4141 28.3544C44.8279 28.3544 45.1641 28.0605 45.1641 27.6988V20.5179C45.1641 20.1562 44.8279 19.8623 44.4141 19.8623H42.3991L48.6266 13.2648L54.8541 19.8623H52.8379C52.4241 19.8623 52.0879 20.1562 52.0879 20.5179V27.6988C52.0879 28.0605 52.4241 28.3544 52.8379 28.3544C53.2516 28.3544 53.5879 28.0605 53.5879 27.6988V21.1734H56.4441C56.7341 21.1734 56.9991 21.027 57.1229 20.7976C57.2466 20.5681 57.2079 20.296 57.0229 20.1005L49.2041 11.817C49.0616 11.6662 48.8491 11.5788 48.6254 11.5788C48.4016 11.5788 48.1891 11.6662 48.0466 11.817L40.2279 20.1005C40.0441 20.296 40.0054 20.5681 40.1291 20.7976ZM38.5004 32.9982C38.5004 36.1308 35.5841 38.68 32.0004 38.68C28.4166 38.68 25.5004 36.1308 25.5004 32.9982C25.5004 29.8655 28.4166 27.3164 32.0004 27.3164C35.5841 27.3164 38.5004 29.8644 38.5004 32.9982ZM37.0004 32.9982C37.0004 30.5878 34.7579 28.6276 32.0004 28.6276C29.2429 28.6276 27.0004 30.5878 27.0004 32.9982C27.0004 35.4086 29.2429 37.3688 32.0004 37.3688C34.7579 37.3688 37.0004 35.4075 37.0004 32.9982ZM59.8904 47.9348V53.6494C59.8904 54.0111 59.5541 54.305 59.1404 54.305H43.6553H20.3454H4.86035C4.4466 54.305 4.11035 54.0111 4.11035 53.6494V47.9348C4.11035 44.4219 7.3791 41.5646 11.3979 41.5646H19.3516C20.3554 41.5646 21.3541 41.7515 22.2716 42.1033C23.6866 40.9986 25.5516 40.3244 27.5941 40.3244H36.4104C38.4529 40.3244 40.3178 40.9975 41.7328 42.1033C42.6503 41.7515 43.6479 41.5646 44.6516 41.5646H52.6054C56.6216 41.5646 59.8904 44.4219 59.8904 47.9348ZM5.61035 52.9938H9.03035V47.6398C9.03035 47.2781 9.3666 46.9842 9.78035 46.9842C10.1941 46.9842 10.5304 47.2781 10.5304 47.6398V52.9938H19.5954V47.3142C19.5954 45.7506 20.1866 44.305 21.1829 43.1391C20.5941 42.9665 19.9741 42.8747 19.3516 42.8747H11.3979C8.2066 42.8747 5.61035 45.1442 5.61035 47.9337V52.9938ZM42.9053 47.3142C42.9053 44.1826 39.9904 41.6345 36.4079 41.6345H27.5916C24.0091 41.6345 21.0941 44.1826 21.0941 47.3142V52.9938H25.0479V46.9886C25.0479 46.6269 25.3841 46.333 25.7979 46.333C26.2116 46.333 26.5479 46.6269 26.5479 46.9886V52.9938H37.4504V46.9886C37.4504 46.6269 37.7866 46.333 38.2004 46.333C38.6141 46.333 38.9504 46.6269 38.9504 46.9886V52.9938H42.9041V47.3142H42.9053ZM58.3904 47.9348C58.3904 45.1453 55.7941 42.8758 52.6029 42.8758H44.6504C44.0279 42.8758 43.4078 42.9676 42.8191 43.1402C43.8153 44.3061 44.4066 45.7517 44.4066 47.3153V52.9938H53.4716V47.6398C53.4716 47.2781 53.8078 46.9842 54.2216 46.9842C54.6353 46.9842 54.9716 47.2781 54.9716 47.6398V52.9938H58.3916V47.9348H58.3904ZM54.5641 35.0185C54.5641 37.8802 51.9004 40.2086 48.6266 40.2086C45.3529 40.2086 42.6891 37.8802 42.6891 35.0185C42.6891 32.1568 45.3529 29.8284 48.6266 29.8284C51.9004 29.8284 54.5641 32.1568 54.5641 35.0185ZM53.0641 35.0185C53.0641 32.8802 51.0741 31.1396 48.6266 31.1396C46.1804 31.1396 44.1891 32.8791 44.1891 35.0185C44.1891 37.1568 46.1791 38.8974 48.6266 38.8974C51.0729 38.8974 53.0641 37.1568 53.0641 35.0185ZM21.3116 35.0185C21.3116 37.8802 18.6479 40.2086 15.3741 40.2086C12.1004 40.2086 9.4366 37.8802 9.4366 35.0185C9.4366 32.1568 12.1004 29.8284 15.3741 29.8284C18.6479 29.8284 21.3116 32.1568 21.3116 35.0185ZM19.8116 35.0185C19.8116 32.8802 17.8216 31.1396 15.3741 31.1396C12.9279 31.1396 10.9366 32.8791 10.9366 35.0185C10.9366 37.1568 12.9266 38.8974 15.3741 38.8974C17.8204 38.8974 19.8116 37.1568 19.8116 35.0185ZM7.55535 21.1734H10.4129V27.6988C10.4129 28.0605 10.7491 28.3544 11.1629 28.3544C11.5766 28.3544 11.9129 28.0605 11.9129 27.6988V20.5179C11.9129 20.1562 11.5766 19.8623 11.1629 19.8623H9.1466L15.3741 13.2648L21.6016 19.8623H19.5866C19.1729 19.8623 18.8366 20.1562 18.8366 20.5179V27.6988C18.8366 28.0605 19.1729 28.3544 19.5866 28.3544C20.0004 28.3544 20.3366 28.0605 20.3366 27.6988V21.1734H23.1929C23.4829 21.1734 23.7479 21.027 23.8716 20.7976C23.9954 20.5681 23.9566 20.296 23.7716 20.1005L15.9529 11.817C15.8104 11.6662 15.5979 11.5788 15.3741 11.5788C15.1504 11.5788 14.9379 11.6662 14.7954 11.817L6.9766 20.1005C6.7916 20.296 6.75285 20.5681 6.8766 20.7976C7.0016 21.027 7.26535 21.1734 7.55535 21.1734Z" fill="#233F90"/>
</svg>
