<svg width="48" height="48" viewBox="0 0 48 48" fill="none" xmlns="http://www.w3.org/2000/svg">
<path d="M38 24C38 27.713 36.525 31.274 33.8995 33.8995C31.274 36.525 27.713 38 24 38M38 24C38 20.287 36.525 16.726 33.8995 14.1005C31.274 11.475 27.713 10 24 10M38 24H44M24 38C20.287 38 16.726 36.525 14.1005 33.8995C11.475 31.274 10 27.713 10 24M24 38V44M24 10C20.287 10 16.726 11.475 14.1005 14.1005C11.475 16.726 10 20.287 10 24M24 10V4M10 24H4M26 24C26 24.5304 25.7893 25.0391 25.4142 25.4142C25.0391 25.7893 24.5304 26 24 26C23.4696 26 22.9609 25.7893 22.5858 25.4142C22.2107 25.0391 22 24.5304 22 24C22 23.4696 22.2107 22.9609 22.5858 22.5858C22.9609 22.2107 23.4696 22 24 22C24.5304 22 25.0391 22.2107 25.4142 22.5858C25.7893 22.9609 26 23.4696 26 24Z" stroke="#0CAC41" stroke-width="3.75" stroke-linecap="square"/>
</svg>
