<svg width="48" height="48" viewBox="0 0 48 48" fill="none" xmlns="http://www.w3.org/2000/svg">
<path d="M40.1999 8.99988C34.6889 8.99988 29.7419 8.00088 25.2779 3.52788C24.9404 3.1908 24.4829 3.00146 24.0059 3.00146C23.5289 3.00146 23.0714 3.1908 22.7339 3.52788C18.2579 8.00088 13.3079 8.99988 7.80293 8.99988C7.32554 8.99988 6.8677 9.18952 6.53014 9.52709C6.19257 9.86465 6.00293 10.3225 6.00293 10.7999V21.6059C6.00293 33.1919 11.9129 41.0669 23.4329 44.9099C23.8029 45.0334 24.203 45.0334 24.5729 44.9099C36.0959 41.0699 42.0029 33.1919 42.0029 21.6059V10.7999C42.0029 9.80688 41.1929 8.99988 40.1999 8.99988ZM38.9999 21.6029C38.9999 31.7909 34.0919 38.4449 23.9999 41.9309C13.9079 38.4449 8.99993 31.7909 8.99993 21.6029V11.9849C13.7369 11.8679 19.0559 10.9379 24.0029 6.45588C28.9409 10.9349 34.2629 11.8649 38.9999 11.9849V21.6029ZM22.4969 26.3789L30.4349 18.4409C30.5744 18.3014 30.74 18.1908 30.9222 18.1153C31.1044 18.0398 31.2997 18.001 31.4969 18.001C31.6942 18.001 31.8895 18.0398 32.0717 18.1153C32.2539 18.1908 32.4195 18.3014 32.5589 18.4409C32.6984 18.5803 32.809 18.7459 32.8845 18.9281C32.96 19.1103 32.9988 19.3056 32.9988 19.5029C32.9988 19.7001 32.96 19.8954 32.8845 20.0776C32.809 20.2598 32.6984 20.4254 32.5589 20.5649L23.5589 29.5649C23.4196 29.7046 23.2541 29.8154 23.0718 29.891C22.8896 29.9666 22.6942 30.0056 22.4969 30.0056C22.2996 30.0056 22.1043 29.9666 21.922 29.891C21.7398 29.8154 21.5743 29.7046 21.4349 29.5649L16.9349 25.0649C16.6533 24.7832 16.495 24.4012 16.495 24.0029C16.495 23.6046 16.6533 23.2225 16.9349 22.9409C17.2166 22.6592 17.5986 22.501 17.9969 22.501C18.3953 22.501 18.7773 22.6592 19.0589 22.9409L22.4969 26.3789Z" fill="#0CAC41"/>
</svg>
