<svg width="48" height="48" viewBox="0 0 48 48" fill="none" xmlns="http://www.w3.org/2000/svg">
<path d="M33.9998 21.61C33.9998 20.918 33.9998 20.572 34.1038 20.264C34.4058 19.368 35.2038 19.022 36.0038 18.658C36.8998 18.248 37.3478 18.044 37.7938 18.008C38.2978 17.968 38.8038 18.076 39.2358 18.318C39.8078 18.638 40.2078 19.25 40.6158 19.746C42.5018 22.038 43.4458 23.184 43.7898 24.446C44.0698 25.466 44.0698 26.534 43.7898 27.552C43.2878 29.396 41.6978 30.94 40.5198 32.372C39.9178 33.102 39.6158 33.468 39.2358 33.682C38.7964 33.9257 38.2946 34.0336 37.7938 33.992C37.3478 33.956 36.8998 33.752 36.0018 33.342C35.2018 32.978 34.4058 32.632 34.1038 31.736C33.9998 31.428 33.9998 31.082 33.9998 30.39V21.61ZM13.9998 21.61C13.9998 20.738 13.9758 19.956 13.2718 19.344C13.0158 19.122 12.6758 18.968 11.9978 18.658C11.0998 18.25 10.6518 18.044 10.2058 18.008C8.87182 17.9 8.15382 18.812 7.38582 19.748C5.49782 22.038 4.55382 23.184 4.20782 24.448C3.92943 25.4646 3.92943 26.5374 4.20782 27.554C4.71182 29.396 6.30382 30.942 7.47982 32.372C8.22182 33.272 8.93182 34.094 10.2058 33.992C10.6518 33.956 11.0998 33.752 11.9978 33.342C12.6778 33.034 13.0158 32.878 13.2718 32.656C13.9758 32.044 13.9998 31.262 13.9998 30.392V21.61Z" stroke="#0CAC41" stroke-width="2.8125"/>
<path d="M10 18C10 11.372 16.268 6 24 6C31.732 6 38 11.372 38 18" stroke="#0CAC41" stroke-width="2.8125" stroke-linecap="square" stroke-linejoin="round"/>
<path d="M38 34V35.6C38 39.134 34.42 42 30 42H26" stroke="#0CAC41" stroke-width="2.8125" stroke-linecap="round" stroke-linejoin="round"/>
</svg>
