<svg width="40" height="40" viewBox="0 0 40 40" fill="none" xmlns="http://www.w3.org/2000/svg">
<path d="M2.5 22.97C2.5 22.97 7.5 20.8333 11.6667 20.8333C14.6058 20.8333 17.8333 22.015 19.995 22.9891C21.6533 23.7358 22.6075 24.2075 22.9867 25.9866C23.2508 27.2225 22.3633 29.2825 21.1033 29.3841L20.2158 29.4558M20.2158 29.4558C18.1808 29.4558 15.0308 28.8525 15.0308 28.8525M20.2158 29.4558C23.0383 29.4558 30.4683 28.115 33.1017 27.6225C33.73 27.5058 34.3808 27.42 34.9783 27.645C35.73 27.9291 36.7383 28.615 37.22 30.27C37.5967 31.5633 36.6925 32.8075 35.4367 33.2933C31.7533 34.7183 24.0725 37.5 20.2158 37.5C10 37.5 2.5 34.9358 2.5 34.9358M25.105 19.15C25.1317 19.9191 25.6083 20.5808 26.3683 20.6975C26.86 20.7725 27.5092 20.8333 28.3333 20.8333C28.9908 20.8381 29.6477 20.7927 30.2983 20.6975C31.0583 20.5808 31.535 19.9191 31.5617 19.1508C31.5925 18.2675 31.6283 16.8983 31.6492 14.9825C33.0389 14.9697 34.4284 14.9405 35.8175 14.895C36.5858 14.8683 37.2475 14.3916 37.3642 13.6316C37.4392 13.14 37.5 12.4908 37.5 11.6666C37.5048 11.0091 37.4594 10.3522 37.3642 9.70164C37.2475 8.94164 36.5858 8.46498 35.8175 8.43831C34.9342 8.40748 33.565 8.37164 31.6492 8.35081C31.6363 6.96107 31.6072 5.57153 31.5617 4.18248C31.535 3.41415 31.0583 2.75248 30.2983 2.63581C29.6477 2.54091 28.9908 2.4955 28.3333 2.49998C27.6758 2.49518 27.0189 2.54059 26.3683 2.63581C25.6083 2.75248 25.1317 3.41415 25.105 4.18248C25.0742 5.06581 25.0383 6.43498 25.0175 8.35081C23.6278 8.36358 22.2382 8.39275 20.8492 8.43831C20.0808 8.46498 19.4192 8.94164 19.3025 9.70164C19.2275 10.1933 19.1667 10.8425 19.1667 11.6666C19.1667 12.4908 19.2267 13.1408 19.3025 13.6316C19.4192 14.3916 20.0808 14.8683 20.8492 14.895C21.7325 14.9258 23.1017 14.9616 25.0175 14.9825C25.0383 16.8983 25.0742 18.2683 25.105 19.1508V19.15Z" stroke="#233F90" stroke-width="2.5" stroke-linecap="round" stroke-linejoin="round"/>
</svg>
