<svg width="40" height="40" viewBox="0 0 40 40" fill="none" xmlns="http://www.w3.org/2000/svg">
<path d="M34.9325 19.305C34.9775 19.7367 35 20.1908 35 20.6675C35 23.91 33.87 26.09 32.775 27.455C32.3329 28.0093 31.8269 28.5095 31.2675 28.945C31.0774 29.0893 30.8805 29.2245 30.6775 29.35L30.655 29.3625C30.4568 29.4698 30.2913 29.6286 30.176 29.8223C30.0607 30.0159 29.9999 30.2371 30 30.4625V33.75C30 34.0815 29.8683 34.3995 29.6339 34.6339C29.3995 34.8683 29.0815 35 28.75 35H27.5C27.5 34.337 27.2366 33.7011 26.7678 33.2322C26.2989 32.7634 25.663 32.5 25 32.5H20C19.337 32.5 18.7011 32.7634 18.2322 33.2322C17.7634 33.7011 17.5 34.337 17.5 35H16.25C15.9185 35 15.6005 34.8683 15.3661 34.6339C15.1317 34.3995 15 34.0815 15 33.75V32.2425C15.0003 31.9324 14.8854 31.6333 14.6774 31.4032C14.4695 31.1731 14.1835 31.0285 13.875 30.9975L13.635 30.9425C12.279 30.5826 11.0434 29.8681 10.055 28.8725C8.95 27.7475 8.2725 26.2675 7.91 25.24C7.55 24.2175 6.73 23.2925 5.56 22.9625C5.39971 22.9162 5.25863 22.8195 5.15774 22.6866C5.05685 22.5537 5.00153 22.3918 5 22.225V20.24C4.99986 20.0825 5.05103 19.9292 5.14575 19.8034C5.24047 19.6775 5.3736 19.586 5.525 19.5425C6.7375 19.195 7.5475 18.215 7.89 17.18C8.17 16.33 8.665 15.24 9.47 14.4225C10.3917 13.5012 11.4573 12.7362 12.625 12.1575C12.725 12.1075 12.8 12.0717 12.85 12.05L12.9 12.025L12.91 12.0225C13.135 11.9261 13.3267 11.7657 13.4614 11.5612C13.596 11.3568 13.6677 11.1173 13.6675 10.8725V6.68751C14.2227 7.16279 14.8072 7.60281 15.4175 8.00501C16.21 8.52501 17.135 9.01751 18.1025 9.28001C18.3875 8.46001 18.7775 7.68001 19.2625 6.96001H19.2475C18.55 6.88751 17.6975 6.51001 16.785 5.91251C15.9486 5.35051 15.1624 4.71732 14.435 4.02001C14.1638 3.7639 13.824 3.59211 13.4569 3.52553C13.0899 3.45896 12.7114 3.50047 12.3675 3.64501C12.0145 3.78489 11.7115 4.02732 11.4977 4.34102C11.2838 4.65473 11.1688 5.02532 11.1675 5.40501V10.0975C9.89117 10.7819 8.72069 11.6476 7.6925 12.6675C6.5 13.8725 5.8525 15.3775 5.5175 16.395C5.3775 16.8125 5.0975 17.065 4.8375 17.1375C4.16407 17.3303 3.57172 17.7371 3.14999 18.2963C2.72827 18.8556 2.5001 19.537 2.5 20.2375V22.225C2.5 23.6875 3.4725 24.97 4.8775 25.3675C5.03738 25.4232 5.18185 25.5158 5.29915 25.6379C5.41645 25.76 5.50325 25.908 5.5525 26.07C5.9675 27.25 6.7975 29.1275 8.2775 30.6275C9.45585 31.8183 10.9044 32.7069 12.5 33.2175V33.75C12.5 34.7446 12.8951 35.6984 13.5983 36.4017C14.3016 37.1049 15.2554 37.5 16.25 37.5H17.5C18.163 37.5 18.7989 37.2366 19.2678 36.7678C19.7366 36.2989 20 35.663 20 35H25C25 35.663 25.2634 36.2989 25.7322 36.7678C26.2011 37.2366 26.837 37.5 27.5 37.5H28.75C29.7446 37.5 30.6984 37.1049 31.4017 36.4017C32.1049 35.6984 32.5 34.7446 32.5 33.75V31.1425C32.5917 31.0775 32.69 31.0042 32.795 30.9225C33.5112 30.3658 34.159 29.7264 34.725 29.0175C36.13 27.2675 37.5 24.5475 37.5 20.6675C37.4967 19.0458 37.2717 17.5858 36.825 16.2875C36.3798 17.3985 35.7388 18.4205 34.9325 19.305ZM34.4775 9.68751C35.1029 11.1956 35.2191 12.8665 34.8085 14.4466C34.3979 16.0267 33.4829 17.4297 32.2025 18.4425C31.16 19.265 29.7325 19.2025 28.5075 18.6925L22.5325 16.22C21.3075 15.7125 20.2525 14.7475 20.0975 13.43C19.8899 11.633 20.3386 9.82155 21.3609 8.32917C22.3831 6.8368 23.9102 5.76403 25.6608 5.30842C27.4114 4.85281 29.2677 5.04504 30.8878 5.84971C32.5079 6.65439 33.7827 8.01732 34.4775 9.68751ZM30.6525 16.48C31.3367 15.9393 31.8678 15.2291 32.1929 14.4199C32.518 13.6107 32.6259 12.7305 32.5059 11.8667C32.3859 11.0029 32.0422 10.1855 31.5088 9.49552C30.9754 8.80554 30.271 8.26699 29.4652 7.93327C28.6595 7.59955 27.7806 7.48226 26.9155 7.59304C26.0505 7.70382 25.2295 8.03881 24.5338 8.56479C23.8382 9.09077 23.2922 9.78946 22.9499 10.5916C22.6076 11.3937 22.481 12.2713 22.5825 13.1375C22.5875 13.1875 22.6075 13.28 22.7475 13.4275C22.9606 13.6359 23.213 13.7999 23.49 13.91L29.465 16.385C29.7369 16.51 30.0333 16.5723 30.3325 16.5675C30.5325 16.5625 30.615 16.51 30.6525 16.48ZM14.375 18.75C14.8723 18.75 15.3492 18.5525 15.7008 18.2008C16.0525 17.8492 16.25 17.3723 16.25 16.875C16.25 16.3777 16.0525 15.9008 15.7008 15.5492C15.3492 15.1975 14.8723 15 14.375 15C13.8777 15 13.4008 15.1975 13.0492 15.5492C12.6975 15.9008 12.5 16.3777 12.5 16.875C12.5 17.3723 12.6975 17.8492 13.0492 18.2008C13.4008 18.5525 13.8777 18.75 14.375 18.75Z" fill="#233F90"/>
</svg>
