<svg width="40" height="40" viewBox="0 0 40 40" fill="none" xmlns="http://www.w3.org/2000/svg">
<path d="M14.9997 24.8617V25.8334C14.9997 27.8225 15.7899 29.7302 17.1964 31.1367C18.6029 32.5432 20.5105 33.3334 22.4997 33.3334C24.4888 33.3334 26.3965 32.5432 27.803 31.1367C29.2095 29.7302 29.9997 27.8225 29.9997 25.8334V23.05C28.8872 22.6569 27.9495 21.883 27.3524 20.8654C26.7553 19.8477 26.5372 18.6517 26.7367 17.4887C26.9361 16.3258 27.5403 15.2708 28.4424 14.5103C29.3445 13.7497 30.4864 13.3326 31.6663 13.3326C32.8463 13.3326 33.9882 13.7497 34.8903 14.5103C35.7924 15.2708 36.3966 16.3258 36.596 17.4887C36.7955 18.6517 36.5774 19.8477 35.9803 20.8654C35.3832 21.883 34.4455 22.6569 33.333 23.05V25.8334C33.333 28.7066 32.1916 31.4621 30.16 33.4937C28.1284 35.5253 25.3729 36.6667 22.4997 36.6667C19.6265 36.6667 16.871 35.5253 14.8394 33.4937C12.8077 31.4621 11.6663 28.7066 11.6663 25.8334V24.8617C9.33593 24.4678 7.22036 23.2612 5.69489 21.456C4.16941 19.6507 3.33265 17.3635 3.33301 15V6.66671C3.33301 5.78265 3.6842 4.93481 4.30932 4.30968C4.93444 3.68456 5.78229 3.33337 6.66634 3.33337H8.33301C8.77504 3.33337 9.19896 3.50897 9.51152 3.82153C9.82408 4.13409 9.99967 4.55801 9.99967 5.00004C9.99967 5.44207 9.82408 5.86599 9.51152 6.17855C9.19896 6.49111 8.77504 6.66671 8.33301 6.66671H6.66634V15C6.66634 16.7682 7.36872 18.4638 8.61896 19.7141C9.8692 20.9643 11.5649 21.6667 13.333 21.6667C15.1011 21.6667 16.7968 20.9643 18.0471 19.7141C19.2973 18.4638 19.9997 16.7682 19.9997 15V6.66671H18.333C17.891 6.66671 17.4671 6.49111 17.1545 6.17855C16.8419 5.86599 16.6663 5.44207 16.6663 5.00004C16.6663 4.55801 16.8419 4.13409 17.1545 3.82153C17.4671 3.50897 17.891 3.33337 18.333 3.33337H19.9997C20.8837 3.33337 21.7316 3.68456 22.3567 4.30968C22.9818 4.93481 23.333 5.78265 23.333 6.66671V15C23.3334 17.3635 22.4966 19.6507 20.9711 21.456C19.4457 23.2612 17.3301 24.4678 14.9997 24.8617ZM31.6663 20C32.1084 20 32.5323 19.8244 32.8449 19.5119C33.1574 19.1993 33.333 18.7754 33.333 18.3334C33.333 17.8913 33.1574 17.4674 32.8449 17.1549C32.5323 16.8423 32.1084 16.6667 31.6663 16.6667C31.2243 16.6667 30.8004 16.8423 30.4878 17.1549C30.1753 17.4674 29.9997 17.8913 29.9997 18.3334C29.9997 18.7754 30.1753 19.1993 30.4878 19.5119C30.8004 19.8244 31.2243 20 31.6663 20Z" fill="#233F90"/>
</svg>
