<svg width="40" height="40" viewBox="0 0 40 40" fill="none" xmlns="http://www.w3.org/2000/svg">
<path fill-rule="evenodd" clip-rule="evenodd" d="M33.1218 20.5L19.7335 33.83C17.9491 35.5721 15.5492 36.5395 13.0555 36.5218C10.5618 36.5042 8.17587 35.5029 6.41636 33.7357C4.65684 31.9685 3.666 29.5782 3.65921 27.0845C3.65243 24.5907 4.63026 22.1951 6.38013 20.4183L19.7685 7.08831C21.5528 5.3462 23.9527 4.37882 26.4464 4.39648C28.9401 4.41413 31.3261 5.41539 33.0856 7.18259C34.8451 8.94979 35.8359 11.3401 35.8427 13.8338C35.8495 16.3276 34.8717 18.7232 33.1218 20.5ZM30.7885 9.46998C29.6412 8.31929 28.0842 7.6709 26.4593 7.66715C24.8344 7.6634 23.2744 8.3046 22.1218 9.44998L8.7318 22.78C7.57965 23.927 6.93037 25.4848 6.92677 27.1106C6.92318 28.7364 7.56557 30.297 8.71263 31.4491C9.85969 32.6013 11.4175 33.2506 13.0432 33.2542C14.669 33.2578 16.2297 32.6154 17.3818 31.4683L30.7701 18.1383C31.9213 16.991 32.57 15.4336 32.5738 13.8083C32.5775 12.183 31.936 10.6226 30.7901 9.46998H30.7885Z" fill="#233F90"/>
<path fill-rule="evenodd" clip-rule="evenodd" d="M13.53 14.2066C13.8425 13.8942 14.2664 13.7186 14.7083 13.7186C15.1502 13.7186 15.5741 13.8942 15.8866 14.2066L25.97 24.2899C26.2736 24.6043 26.4416 25.0253 26.4378 25.4623C26.434 25.8993 26.2587 26.3173 25.9497 26.6263C25.6407 26.9353 25.2226 27.1106 24.7856 27.1144C24.3486 27.1182 23.9276 26.9502 23.6133 26.6466L13.53 16.5633C13.2175 16.2507 13.042 15.8269 13.042 15.3849C13.042 14.943 13.2175 14.5192 13.53 14.2066Z" fill="#233F90"/>
</svg>
