<svg width="40" height="40" viewBox="0 0 40 40" fill="none" xmlns="http://www.w3.org/2000/svg">
<path d="M25 37.5H21.25C20.587 37.5 19.9511 37.2366 19.4822 36.7678C19.0134 36.2989 18.75 35.663 18.75 35V28.75H21.25V35H25V28.75H27.5V23.75C27.5 23.4185 27.3683 23.1005 27.1339 22.8661C26.8995 22.6317 26.5815 22.5 26.25 22.5H15.35L12.85 15H5C4.66848 15 4.35054 15.1317 4.11612 15.3661C3.8817 15.6005 3.75 15.9185 3.75 16.25V23.75H6.25V35H11.25V26.25H13.75V35C13.75 35.663 13.4866 36.2989 13.0178 36.7678C12.5489 37.2366 11.913 37.5 11.25 37.5H6.25C5.58696 37.5 4.95107 37.2366 4.48223 36.7678C4.01339 36.2989 3.75 35.663 3.75 35V26.25C3.08696 26.25 2.45107 25.9866 1.98223 25.5178C1.51339 25.0489 1.25 24.413 1.25 23.75V16.25C1.25099 15.2557 1.6464 14.3025 2.34945 13.5994C3.05249 12.8964 4.00574 12.501 5 12.5H12.85C13.3745 12.5001 13.8858 12.6651 14.3113 12.9718C14.7369 13.2784 15.0552 13.7112 15.2213 14.2088L17.15 20H26.25C27.2443 20.001 28.1975 20.3964 28.9006 21.0994C29.6036 21.8025 29.999 22.7557 30 23.75V28.75C30 29.413 29.7366 30.0489 29.2678 30.5178C28.7989 30.9866 28.163 31.25 27.5 31.25V35C27.5 35.663 27.2366 36.2989 26.7678 36.7678C26.2989 37.2366 25.663 37.5 25 37.5ZM35 37.5H32.5V23.75H36.25V16.25C36.25 15.9185 36.1183 15.6005 35.8839 15.3661C35.6495 15.1317 35.3315 15 35 15H30V12.5H35C35.9943 12.501 36.9475 12.8964 37.6506 13.5994C38.3536 14.3025 38.749 15.2557 38.75 16.25V23.75C38.75 24.413 38.4866 25.0489 38.0178 25.5178C37.5489 25.9866 36.913 26.25 36.25 26.25H35V37.5ZM8.75 11.25C7.76109 11.25 6.79439 10.9568 5.97215 10.4074C5.1499 9.85794 4.50904 9.07705 4.1306 8.16342C3.75216 7.24979 3.65315 6.24446 3.84607 5.27455C4.039 4.30465 4.5152 3.41373 5.21447 2.71447C5.91373 2.01521 6.80464 1.539 7.77455 1.34608C8.74445 1.15315 9.74979 1.25217 10.6634 1.6306C11.577 2.00904 12.3579 2.64991 12.9073 3.47215C13.4568 4.2944 13.75 5.2611 13.75 6.25C13.7483 7.57558 13.221 8.84639 12.2837 9.78371C11.3464 10.721 10.0756 11.2483 8.75 11.25ZM8.75 3.75C8.25555 3.75 7.7722 3.89662 7.36107 4.17133C6.94995 4.44603 6.62952 4.83648 6.4403 5.29329C6.25108 5.75011 6.20157 6.25278 6.29804 6.73773C6.3945 7.22268 6.6326 7.66814 6.98223 8.01777C7.33186 8.3674 7.77732 8.6055 8.26227 8.70197C8.74723 8.79843 9.24989 8.74892 9.70671 8.5597C10.1635 8.37048 10.554 8.05005 10.8287 7.63893C11.1034 7.2278 11.25 6.74446 11.25 6.25C11.25 5.58696 10.9866 4.95108 10.5178 4.48224C10.0489 4.01339 9.41304 3.75 8.75 3.75ZM31.25 11.25C30.2611 11.25 29.2944 10.9568 28.4721 10.4074C27.6499 9.85794 27.009 9.07705 26.6306 8.16342C26.2522 7.24979 26.1531 6.24446 26.3461 5.27455C26.539 4.30465 27.0152 3.41373 27.7145 2.71447C28.4137 2.01521 29.3046 1.539 30.2745 1.34608C31.2445 1.15315 32.2498 1.25217 33.1634 1.6306C34.077 2.00904 34.8579 2.64991 35.4073 3.47215C35.9568 4.2944 36.25 5.2611 36.25 6.25C36.2483 7.57558 35.721 8.84639 34.7837 9.78371C33.8464 10.721 32.5756 11.2483 31.25 11.25ZM31.25 3.75C30.7555 3.75 30.2722 3.89662 29.8611 4.17133C29.45 4.44603 29.1295 4.83648 28.9403 5.29329C28.7511 5.75011 28.7016 6.25278 28.798 6.73773C28.8945 7.22268 29.1326 7.66814 29.4822 8.01777C29.8319 8.3674 30.2773 8.6055 30.7623 8.70197C31.2472 8.79843 31.7499 8.74892 32.2067 8.5597C32.6635 8.37048 33.054 8.05005 33.3287 7.63893C33.6034 7.2278 33.75 6.74446 33.75 6.25C33.75 5.58696 33.4866 4.95108 33.0178 4.48224C32.5489 4.01339 31.913 3.75 31.25 3.75Z" fill="#233F90"/>
<path d="M23.125 18.75C22.2597 18.75 21.4138 18.4934 20.6944 18.0127C19.9749 17.532 19.4142 16.8487 19.083 16.0492C18.7519 15.2498 18.6653 14.3701 18.8341 13.5215C19.0029 12.6728 19.4196 11.8933 20.0314 11.2814C20.6433 10.6696 21.4228 10.2529 22.2715 10.0841C23.1201 9.91526 23.9998 10.0019 24.7992 10.333C25.5987 10.6642 26.2819 11.2249 26.7627 11.9444C27.2434 12.6638 27.5 13.5097 27.5 14.375C27.4987 15.5349 27.0373 16.6469 26.2171 17.4671C25.3969 18.2873 24.2849 18.7487 23.125 18.75ZM23.125 12.5C22.7542 12.5 22.3917 12.61 22.0833 12.816C21.775 13.022 21.5346 13.3149 21.3927 13.6575C21.2508 14.0001 21.2137 14.3771 21.286 14.7408C21.3584 15.1045 21.537 15.4386 21.7992 15.7008C22.0614 15.9631 22.3955 16.1416 22.7592 16.214C23.1229 16.2863 23.4999 16.2492 23.8425 16.1073C24.1851 15.9654 24.478 15.725 24.684 15.4167C24.89 15.1084 25 14.7458 25 14.375C25 13.8777 24.8025 13.4008 24.4508 13.0492C24.0992 12.6975 23.6223 12.5 23.125 12.5Z" fill="#233F90"/>
</svg>
