<svg width="328" height="627" viewBox="0 0 328 627" fill="none" xmlns="http://www.w3.org/2000/svg">
<g clip-path="url(#clip0_2967_14543)">
<path d="M106.5 39.5C99.3 37.9 95.8333 30.5 95 27H79.5C67.1 27 63 37.6667 62.5 43V288.5C68.1 299.3 64.8333 315 62.5 321.5V339.5C68.5 346.7 66.6667 359.5 65 365C67.4 370.2 74.6667 372.5 78 373H204.5C205.167 372.5 206.9 371.1 208.5 369.5C210.1 367.9 212.167 362.833 213 360.5C217 352.9 221.333 343.333 223 339.5V44.5C222.6 30.9 212.167 27.1667 207 27H190C188 37.8 178.5 40.1667 174 40L106.5 39.5Z" fill="white"/>
<path d="M305.936 342.259C305.924 339.901 305.839 337.543 305.704 335.184C305.704 335.184 305.691 334.851 305.658 334.224C305.641 333.999 305.62 333.772 305.603 333.546C305.609 333.546 305.615 333.546 305.62 333.545C305.62 333.533 305.619 333.521 305.619 333.508L305.406 333.526L305.926 342.332L306.375 342.316C306.373 342.292 306.371 342.271 306.368 342.246C306.226 342.249 306.079 342.253 305.936 342.259Z" fill="black"/>
<path d="M305.658 334.224C305.648 334.026 305.636 333.802 305.621 333.545C305.616 333.546 305.609 333.546 305.604 333.546C305.621 333.772 305.641 333.999 305.658 334.224Z" fill="black"/>
<path d="M306.369 342.246C306.974 342.226 307.58 342.207 308.188 342.189C308.006 339.256 307.791 336.323 307.577 333.389C306.969 333.439 306.296 333.493 305.621 333.545C305.637 333.802 305.649 334.026 305.659 334.224C305.872 336.907 306.13 339.579 306.369 342.246Z" fill="black"/>
<path d="M305.705 335.184C305.84 337.543 305.924 339.901 305.936 342.259C306.08 342.253 306.226 342.249 306.369 342.246C306.129 339.579 305.871 336.907 305.658 334.224C305.692 334.851 305.705 335.184 305.705 335.184Z" fill="black"/>
<path d="M308.177 338.663C308.147 337.46 308.099 336.259 308.04 335.06C308.04 335.06 307.893 332.153 307.397 327.109C306.934 322.06 305.962 314.902 305.223 306.318C304.874 302.026 304.603 297.365 304.72 292.461C304.848 287.547 305.373 282.348 305.735 276.931C306.073 271.514 306.328 265.86 305.377 260.105C304.829 257.201 303.489 254.425 301.593 252.144C299.708 249.846 297.37 247.997 294.93 246.399C290.033 243.203 284.685 240.937 279.888 237.986C278.682 237.265 277.584 236.437 276.498 235.547C275.42 234.665 274.399 233.727 273.426 232.751C271.481 230.797 269.748 228.678 268.224 226.467C265.175 222.039 262.937 217.297 261.091 212.714C260.153 210.42 259.366 208.155 258.538 205.96C257.697 203.781 256.831 201.692 255.901 199.731C254.968 197.772 253.981 195.932 252.851 194.3C251.733 192.673 250.405 191.234 248.792 190.439C247.198 189.619 245.471 189.443 243.955 189.594C242.428 189.746 241.077 190.188 239.914 190.681C237.585 191.689 236.915 192.265 238.469 191.465C238.481 191.452 238.502 191.429 238.502 191.429C238.502 191.429 238.485 191.452 238.477 191.461C238.935 191.227 239.424 190.994 239.953 190.774C241.115 190.299 242.46 189.878 243.969 189.747C245.467 189.617 247.153 189.813 248.692 190.631C250.252 191.424 251.527 192.837 252.614 194.461C253.71 196.088 254.668 197.927 255.569 199.885C256.469 201.846 257.304 203.936 258.117 206.12C258.907 208.301 259.677 210.603 260.586 212.913C262.383 217.541 264.576 222.351 267.613 226.885C270.657 231.394 274.533 235.637 279.382 238.792C284.23 241.855 289.546 244.19 294.284 247.374C296.644 248.962 298.859 250.772 300.599 252.949C302.349 255.114 303.537 257.672 304.011 260.361C304.849 265.851 304.548 271.462 304.139 276.816C303.712 282.189 303.118 287.398 302.923 292.401C302.741 297.412 302.957 302.129 303.254 306.467C303.891 315.142 304.771 322.299 305.167 327.312C305.403 330.069 305.542 332.171 305.618 333.508L307.64 333.345C307.813 335.112 307.998 336.884 308.177 338.663Z" fill="black"/>
<path d="M308.178 338.663C307.999 336.884 307.814 335.112 307.641 333.345L305.619 333.508C305.62 333.521 305.621 333.533 305.621 333.545C306.295 333.493 306.968 333.439 307.577 333.389C307.791 336.323 308.006 339.256 308.188 342.189C307.579 342.207 306.973 342.226 306.369 342.246C306.372 342.271 306.373 342.293 306.375 342.316L308.222 342.259C308.225 341.06 308.209 339.861 308.178 338.663Z" fill="black"/>
<path d="M227.683 215.219C227.48 216.686 227.268 217.909 227.217 218.773C227.137 219.635 227.093 220.127 227.093 220.127C227.093 220.127 227.028 221.117 227.072 222.847C227.082 223.711 227.086 224.761 227.178 225.961C227.214 226.561 227.253 227.2 227.293 227.873C227.365 228.543 227.438 229.247 227.516 229.983C227.848 232.919 228.386 236.332 229.334 239.901C230.243 243.426 231.143 247.215 232.308 250.962C232.504 251.602 232.713 252.239 232.932 252.872V248.672C232.167 245.581 231.531 242.471 230.89 239.528C230.095 236.013 229.698 232.666 229.481 229.8C229.432 229.083 229.386 228.395 229.341 227.741C229.328 227.087 229.313 226.466 229.3 225.881C229.255 224.715 229.29 223.698 229.312 222.862C229.33 221.188 229.43 220.236 229.43 220.236C229.43 220.236 229.437 219.759 229.451 218.922C229.437 218.082 229.554 216.895 229.642 215.461C229.897 212.605 230.441 208.795 231.517 205.101C231.91 203.685 232.397 202.298 232.932 200.986V199.188C232.002 200.882 231.117 202.764 230.408 204.73C229.023 208.423 228.167 212.295 227.683 215.219Z" fill="black"/>
<path d="M237.626 192.44C237.347 192.76 237.008 193.151 236.62 193.598C236.234 194.048 235.869 194.615 235.431 195.204C234.889 195.954 234.322 196.819 233.758 197.756V199.113C234.405 197.732 235.082 196.471 235.733 195.412C236.119 194.8 236.437 194.211 236.787 193.734C237.141 193.258 237.45 192.843 237.705 192.502C238.154 191.899 238.42 191.541 238.479 191.462C238.476 191.463 238.474 191.465 238.471 191.466C238.398 191.551 238.109 191.884 237.626 192.44Z" fill="black"/>
<path d="M234.308 256.465C234.652 257.369 235.14 258.208 235.542 259.067C235.761 259.514 236.005 259.888 236.233 260.298C236.455 260.701 236.792 261.08 237.063 261.464C238.245 262.936 239.63 264.055 240.843 265.187C242.078 266.299 243.058 267.507 243.998 268.634C244.932 269.754 245.789 270.781 246.549 271.69C247.273 272.627 247.903 273.443 248.422 274.116C249.463 275.463 250.058 276.232 250.058 276.232C250.058 276.232 249.493 275.441 248.505 274.057C248.01 273.364 247.408 272.523 246.718 271.556C245.993 270.619 245.176 269.561 244.285 268.408C243.401 267.262 242.431 265.971 241.219 264.796C240.035 263.609 238.706 262.439 237.655 261.018C237.417 260.648 237.137 260.332 236.927 259.915C236.72 259.508 236.472 259.089 236.295 258.684C235.935 257.828 235.493 257.004 235.188 256.103C234.856 255.218 234.516 254.328 234.244 253.405C234.071 252.88 233.91 252.349 233.758 251.813V255.137C233.937 255.583 234.123 256.025 234.308 256.465Z" fill="black"/>
<path d="M238.471 191.466C238.474 191.465 238.476 191.463 238.479 191.461C238.486 191.452 238.503 191.429 238.503 191.429C238.503 191.429 238.483 191.452 238.471 191.466Z" fill="black"/>
<path d="M245.005 288.182C244.875 288.712 244.796 289.028 244.796 289.028C244.796 289.028 244.746 289.456 244.659 290.207C244.618 290.583 244.555 291.034 244.509 291.563C244.48 292.101 244.447 292.707 244.409 293.367C244.233 296.027 244.152 299.448 244.145 302.928C244.136 306.4 244.362 309.883 244.786 312.451C244.898 313.091 245.002 313.679 245.094 314.198C245.224 314.709 245.336 315.155 245.431 315.523C245.617 316.256 245.724 316.673 245.724 316.673C245.724 316.673 245.653 316.247 245.528 315.503C245.467 315.131 245.392 314.679 245.306 314.163C245.26 313.639 245.207 313.05 245.149 312.407C244.946 309.835 245.015 306.399 245.313 302.976C245.609 299.562 245.99 296.092 246.369 293.605C246.456 292.975 246.536 292.401 246.607 291.891C246.695 291.378 246.799 290.926 246.87 290.557C247.021 289.817 247.107 289.393 247.107 289.393C247.107 289.393 247.171 288.53 247.267 287.235C247.37 286.101 247.758 284.419 248.307 282.814C248.851 281.19 249.483 279.566 249.87 278.315C250.081 277.695 250.214 277.173 250.314 276.807C250.413 276.44 250.47 276.232 250.47 276.232C250.47 276.232 250.379 276.428 250.219 276.772C250.06 277.116 249.839 277.612 249.531 278.179C248.949 279.329 248.062 280.806 247.233 282.349C246.394 283.906 245.694 285.515 245.317 286.926C245.209 287.359 245.116 287.739 245.037 288.055C245.342 288.538 245.518 288.819 245.518 288.819C245.518 288.819 245.33 288.585 245.005 288.182Z" fill="black"/>
<path d="M222.503 341.935C222.426 342.074 222.352 342.205 222.282 342.333C222.138 342.598 222.005 342.84 221.885 343.058C221.406 343.937 221.131 344.439 221.131 344.439C221.131 344.439 220.632 345.466 219.758 347.265C219.539 347.715 219.297 348.213 219.035 348.754C218.754 349.283 218.428 349.835 218.092 350.437C217.414 351.636 216.651 352.988 215.816 354.466C215.601 354.845 215.383 355.232 215.16 355.627C214.95 356.018 214.735 356.418 214.515 356.825C214.29 357.217 214.09 357.678 213.884 358.134C213.683 358.589 213.458 359.056 213.284 359.516C212.518 361.364 211.865 363.319 210.987 365.21L210.66 365.923L210.283 366.606C210.035 367.066 209.786 367.532 209.466 367.942C208.908 368.804 208.157 369.64 207.441 370.515C206.716 371.369 206.011 372.267 205.256 373.107C205.213 373.153 205.172 373.2 205.131 373.248H206.107C206.373 373.248 206.631 373.22 206.894 373.207C207.434 372.611 207.96 372.009 208.494 371.419C209.231 370.575 210.005 369.775 210.685 368.808C211.056 368.354 211.342 367.865 211.627 367.376L212.057 366.649L212.427 365.905C213.418 363.938 214.141 361.977 214.937 360.223C215.125 359.769 215.336 359.372 215.533 358.959C215.732 358.551 215.914 358.152 216.164 357.751C216.395 357.351 216.622 356.958 216.846 356.572C217.073 356.198 217.296 355.83 217.516 355.47C218.415 353.99 219.24 352.632 219.971 351.428C220.332 350.826 220.685 350.265 220.987 349.739C221.267 349.206 221.525 348.715 221.758 348.274C222.363 347.124 222.796 346.301 223.027 345.861V341.049C222.943 341.189 222.853 341.343 222.773 341.476C222.679 341.635 222.589 341.79 222.503 341.935Z" fill="black"/>
<path d="M228.05 334.89C226.514 336.419 225.093 337.919 224.08 339.405C224.002 339.511 223.927 339.613 223.852 339.716V344.137C223.863 344.114 223.873 344.093 223.883 344.07C223.99 343.841 224.107 343.592 224.233 343.318C224.301 343.177 224.371 343.031 224.442 342.878C224.512 342.741 224.584 342.598 224.659 342.451C224.809 342.157 224.969 341.842 225.137 341.514C225.222 341.347 225.308 341.177 225.398 341.004C225.503 340.84 225.613 340.671 225.725 340.5C226.556 339.087 227.802 337.585 229.202 336C230.379 334.707 231.683 333.336 232.931 331.883V330.082C232.891 330.127 232.851 330.171 232.81 330.217C231.276 331.864 229.612 333.382 228.05 334.89Z" fill="black"/>
<path d="M188.993 389.307C188.307 390.012 187.639 390.698 186.994 391.363C186.673 391.696 186.355 392.024 186.045 392.344C185.751 392.679 185.46 393.006 185.176 393.328C184.04 394.615 182.999 395.793 182.077 396.839C181.2 397.921 180.438 398.867 179.809 399.644C178.556 401.205 177.842 402.095 177.842 402.095C177.842 402.095 178.585 401.227 179.887 399.71C180.539 398.952 181.33 398.034 182.239 396.981C183.192 395.967 184.269 394.826 185.443 393.578C185.736 393.267 186.035 392.951 186.341 392.625C186.66 392.317 186.984 392.002 187.316 391.679C187.98 391.039 188.664 390.379 189.368 389.698C190.75 388.313 192.323 386.962 193.926 385.542C194.114 385.376 194.309 385.206 194.499 385.04H193.381C191.839 386.494 190.33 387.878 188.993 389.307Z" fill="black"/>
<path d="M198.914 381.205C199.789 380.483 200.563 379.647 201.401 378.868C202.217 378.065 203.071 377.295 203.846 376.445C204.599 375.653 205.352 374.861 206.102 374.073H204.395C203.928 374.597 203.461 375.121 202.993 375.644C202.253 376.508 201.434 377.297 200.652 378.116C199.851 378.912 199.107 379.77 198.268 380.508C197.444 381.263 196.627 382.012 195.819 382.753C195.275 383.25 194.763 383.733 194.256 384.214H195.437C195.747 383.943 196.05 383.673 196.363 383.401C197.206 382.675 198.057 381.943 198.914 381.205Z" fill="black"/>
<path d="M237.874 325.713C239.238 324.059 240.513 322.513 241.606 321.19C242.712 319.878 243.543 318.717 244.155 317.926C244.761 317.129 245.106 316.673 245.106 316.673C245.106 316.673 244.731 317.106 244.078 317.862C243.417 318.612 242.511 319.721 241.324 320.957C240.151 322.206 238.784 323.663 237.317 325.224C236.152 326.468 234.961 327.813 233.758 329.16V330.906C235.162 329.129 236.532 327.343 237.874 325.713Z" fill="black"/>
<path d="M234.016 271.961C234.017 271.96 234.592 273.115 235.589 274.765C236.076 275.597 236.63 276.572 237.299 277.571C237.956 278.576 238.621 279.668 239.372 280.702C240.812 282.812 242.358 284.838 243.527 286.344C244.147 287.114 244.656 287.747 245.005 288.182C245.016 288.141 245.027 288.097 245.037 288.055C244.742 287.586 244.325 286.926 243.827 286.135C242.84 284.508 241.547 282.33 240.372 280.094C239.752 278.995 239.224 277.847 238.696 276.792C238.156 275.742 237.726 274.728 237.347 273.867C236.564 272.155 236.14 270.978 236.14 270.978C236.14 270.978 235.814 270.439 235.328 269.629C234.841 268.87 234.317 267.839 233.758 266.786V271.159C233.916 271.656 234.016 271.961 234.016 271.961Z" fill="black"/>
<path d="M245.519 288.819C245.519 288.819 245.343 288.539 245.038 288.055C245.028 288.098 245.016 288.141 245.006 288.182C245.331 288.585 245.519 288.819 245.519 288.819Z" fill="black"/>
<path d="M244.658 214.761C244.629 214.698 244.693 214.836 244.685 214.818L244.684 214.815L244.662 214.771L244.658 214.761Z" fill="black"/>
<path d="M264.358 224.647C263.913 224.822 263.397 225.107 262.742 225.249C262.422 225.336 262.079 225.429 261.719 225.526C261.351 225.576 260.963 225.628 260.558 225.681C258.938 225.838 257.019 225.659 255.118 224.978C253.215 224.311 251.351 223.177 249.745 221.765C248.138 220.359 246.773 218.662 245.784 216.973C245.544 216.552 245.298 216.157 245.095 215.686C244.989 215.461 244.883 215.238 244.78 215.019L244.702 214.854L244.684 214.815L244.685 214.818C244.693 214.836 244.63 214.699 244.659 214.762L244.663 214.771L244.684 214.815L244.677 214.797L244.661 214.753L244.532 214.415C244.199 213.533 243.881 212.7 243.591 211.929C243.033 210.403 242.679 209.136 242.523 208.258C242.443 207.819 242.398 207.479 242.381 207.248C242.351 207.016 242.35 206.895 242.35 206.895C242.35 206.895 242.304 206.653 242.263 206.234C242.22 205.829 242.218 205.185 242.304 204.592C242.677 203.197 243.661 201.247 245.119 199.715C246.566 198.149 248.426 196.95 249.86 196.163C250.573 195.754 251.203 195.464 251.641 195.26C252.078 195.054 252.328 194.936 252.328 194.936C252.328 194.936 252.064 195.02 251.605 195.167C251.142 195.311 250.484 195.513 249.71 195.831C248.157 196.434 246.1 197.389 244.32 198.86C243.898 199.253 243.474 199.645 243.059 200.032C242.67 200.449 242.325 200.898 241.971 201.318C241.613 201.738 241.38 202.218 241.098 202.641C241.031 202.748 240.964 202.855 240.898 202.96L240.802 203.117L240.756 203.194L240.743 203.214L240.7 203.318L240.686 203.357C240.599 203.563 240.516 203.762 240.437 203.953C240.11 204.967 240.056 205.712 240.023 206.269C240.004 206.814 240.02 207.121 240.02 207.121C240.02 207.121 240.034 207.276 240.086 207.555C240.129 207.838 240.21 208.244 240.337 208.748C240.587 209.758 241.075 211.123 241.758 212.665C242.105 213.422 242.478 214.242 242.874 215.108L243.022 215.43L243.09 215.577L243.134 215.656L243.222 215.815C243.34 216.028 243.46 216.243 243.58 216.461C243.801 216.893 244.116 217.349 244.419 217.805C245.641 219.608 247.196 221.285 249.004 222.67C250.805 224.054 252.851 225.117 254.895 225.685C256.938 226.266 258.953 226.314 260.605 226.044C261.016 225.961 261.41 225.881 261.785 225.805C262.146 225.681 262.488 225.565 262.809 225.454C263.463 225.266 263.966 224.942 264.403 224.737C264.836 224.519 265.167 224.342 265.41 224.248C265.652 224.143 265.734 224.02 265.739 224.03C265.734 224.02 265.643 224.138 265.4 224.225C265.153 224.3 264.802 224.46 264.358 224.647Z" fill="black"/>
<path d="M291.899 261.628C291.06 261.601 290.5 261.582 290.5 261.582C290.5 261.582 291.037 261.745 291.844 261.989C292.649 262.236 293.711 262.545 294.78 262.905C296.877 263.627 299.161 264.236 299.16 264.236C299.16 264.236 300.338 264.154 301.451 263.888C302.578 263.664 303.706 263.439 303.706 263.439C303.706 263.439 302.611 263.08 301.518 262.72C300.401 262.4 299.387 261.907 299.387 261.907C299.387 261.907 298.849 261.899 298.043 261.887C297.244 261.894 296.106 261.807 294.992 261.754C293.878 261.684 292.739 261.66 291.899 261.628Z" fill="black"/>
<path d="M297.364 257.584C297.93 257.668 298.489 257.818 298.93 257.933C299.369 258.048 299.663 258.125 299.663 258.125C299.663 258.125 300.289 257.829 300.915 257.535C301.237 257.387 301.503 257.205 301.709 257.065C301.917 256.928 302.055 256.837 302.055 256.837C302.055 256.837 301.897 256.783 301.661 256.702C301.425 256.625 301.102 256.519 300.826 256.368C300.264 256.077 299.7 255.786 299.7 255.786C299.7 255.786 299.4 255.855 298.947 255.958C298.497 256.063 297.86 256.204 297.246 256.42C296.63 256.613 296.038 256.919 295.649 257.179C295.282 257.469 295.039 257.662 295.039 257.662C295.039 257.662 295.335 257.605 295.78 257.521C296.222 257.476 296.793 257.479 297.364 257.584Z" fill="black"/>
<path d="M299.054 267.145C298.121 267.384 297.102 267.359 297.102 267.359C297.102 267.359 297.317 267.496 297.643 267.699C297.98 267.889 298.455 268.128 298.954 268.311C299.955 268.688 301.01 268.909 301.01 268.909C301.01 268.909 301.506 268.59 301.968 268.249C302.423 267.908 302.878 267.566 302.878 267.566C302.878 267.566 302.367 267.325 301.855 267.083C301.351 266.842 300.878 266.573 300.878 266.573C300.878 266.573 299.992 266.929 299.054 267.145Z" fill="black"/>
<path d="M61.2745 320.505C60.3989 322.006 59.319 323.385 58.0675 324.576C56.8119 325.763 55.3976 326.786 53.8425 327.526C53.198 327.83 52.5584 328.088 51.9082 328.322V329.74C52.7683 329.434 53.6203 329.074 54.4194 328.669C56.0689 327.839 57.5678 326.71 58.8829 325.417C59.9424 324.365 60.866 323.186 61.6529 321.932V319.798C61.5284 320.033 61.4071 320.272 61.2745 320.505Z" fill="black"/>
<path d="M52.6747 274.258C53.2582 274.86 54.142 275.716 55.2104 276.859C56.2772 278 57.567 279.405 58.7616 281.221C59.8545 282.847 60.8277 284.836 61.6529 287.068V286.128C60.8505 284.227 59.9407 282.527 58.9398 281.1C57.698 279.293 56.3749 277.91 55.2828 276.79C54.1891 275.667 53.29 274.829 52.6935 274.239C52.3086 273.867 52.0531 273.618 51.9082 273.477V273.483C52.0506 273.627 52.3004 273.88 52.6747 274.258Z" fill="black"/>
<path d="M64.4754 310.712C64.2305 312.399 63.8847 314.095 63.3468 315.74C63.0945 316.531 62.8048 317.31 62.4785 318.075V320.475C63.2158 319.038 63.8041 317.539 64.2574 316.019C64.7782 314.304 65.098 312.555 65.312 310.823C65.5349 309.091 65.6147 307.368 65.6049 305.678C65.5659 299.175 64.2403 293.195 62.4785 288.265V289.485C63.9384 294.188 64.9515 299.746 64.8652 305.673C64.84 307.335 64.7277 309.024 64.4754 310.712Z" fill="black"/>
<path d="M52.5958 268.185C52.5958 268.185 52.3753 268.152 51.9595 268.092C51.9448 268.09 51.9245 268.087 51.9082 268.085V268.113C51.9237 268.114 51.9424 268.117 51.9562 268.118C52.3737 268.161 52.5958 268.185 52.5958 268.185Z" fill="black"/>
<path d="M31.7066 330.338C32.3739 330.585 33.0575 330.795 33.7516 330.955C35.3994 331.331 37.0969 331.5 38.8131 331.55C42.2553 331.62 45.7422 331.278 49.2804 330.497C49.8679 330.371 50.475 330.199 51.0837 330.007V328.6C50.4001 328.812 49.7003 329 48.9549 329.148C45.6047 329.816 42.134 330.092 38.8725 329.951C35.6322 329.79 32.4122 329.181 30.1491 327.551C29.5982 327.14 29.1222 326.67 28.7356 326.155C28.3458 325.628 28.0928 325.06 27.8983 324.501C27.5402 323.215 27.4027 321.857 27.2994 320.544C27.2872 320.402 27.279 320.261 27.2684 320.119C27.2367 320.158 27.218 320.181 27.218 320.181C27.218 320.181 27.2367 320.152 27.2676 320.106C27.1805 318.944 27.1122 317.792 27.0048 316.686C26.921 316.054 26.8876 315.462 26.7607 314.838C26.6557 314.219 26.5507 313.614 26.4034 313.107C26.3359 312.844 26.2683 312.582 26.2032 312.328L26.191 312.281L26.165 312.195L26.156 312.172L26.1219 312.078L26.0535 311.891L25.9184 311.521C25.7386 311.032 25.5653 310.56 25.3993 310.108C25.077 309.191 24.7474 308.384 24.4423 307.663C24.1445 306.94 23.8775 306.293 23.6456 305.729C23.434 305.184 23.2534 304.721 23.1077 304.344C22.8148 303.593 22.6577 303.193 22.6577 303.193C22.6577 303.193 22.6366 303.143 22.5959 303.047C22.5552 302.951 22.4885 302.813 22.4283 302.61C22.2972 302.212 22.1052 301.627 21.8611 300.883C21.7398 300.511 21.6047 300.099 21.4575 299.651C21.3533 299.224 21.241 298.763 21.1206 298.269C20.8984 297.247 20.7177 296.081 20.616 294.798C20.5469 293.515 20.5273 292.113 20.7177 290.645C20.8691 289.175 21.2141 287.643 21.7284 286.107C22.7212 283.017 24.5684 279.982 26.9104 277.381C29.2833 274.807 32.1542 272.673 35.1187 271.191C38.0702 269.673 41.0892 268.806 43.7127 268.35C46.3436 267.891 48.592 267.885 50.1478 267.972C50.4961 267.98 50.8054 268.003 51.0837 268.029V267.966C50.8086 267.93 50.5026 267.894 50.156 267.872C48.5968 267.72 46.3395 267.634 43.659 267.989C40.9866 268.341 37.883 269.095 34.7973 270.525C31.7009 271.918 28.6478 273.99 26.0625 276.576C23.5097 279.185 21.4217 282.307 20.223 285.568C18.9649 288.807 18.5686 292.108 18.6435 294.892C18.6956 296.289 18.8412 297.562 19.0374 298.68C19.1537 299.251 19.2628 299.786 19.3629 300.28C19.4914 300.733 19.6094 301.149 19.7169 301.527C19.9301 302.28 20.0977 302.871 20.2116 303.275C20.2629 303.476 20.328 303.633 20.367 303.738C20.4061 303.843 20.4264 303.897 20.4264 303.897C20.4264 303.897 20.6022 304.328 20.9326 305.134C21.0978 305.535 21.302 306.031 21.5429 306.615C21.7854 307.172 22.0645 307.812 22.3778 308.528C22.6968 309.244 23.0378 310.035 23.3584 310.892C23.5268 311.322 23.7018 311.769 23.8832 312.233C23.9654 312.446 24.0501 312.662 24.1363 312.883C24.2071 313.137 24.2787 313.395 24.352 313.657C24.5196 314.197 24.6075 314.7 24.7076 315.221C24.8247 315.731 24.8744 316.332 24.9639 316.91C25.1031 318.097 25.1966 319.361 25.3333 320.723C25.4709 322.08 25.6353 323.518 26.0804 325.014C26.3603 325.819 26.7444 326.594 27.2603 327.26C27.7819 327.931 28.4101 328.518 29.1026 329.013C29.9099 329.571 30.7895 329.996 31.7017 330.336C31.7237 330.317 31.7571 330.291 31.7571 330.291C31.7571 330.291 31.7262 330.319 31.7066 330.338Z" fill="black"/>
<path d="M29.2022 317.157C30.2097 315.225 31.0788 312.407 32.6403 310.111C32.8332 309.824 33.0497 309.557 33.2523 309.282C33.4793 309.026 33.695 308.765 33.9253 308.522C34.1612 308.301 34.416 308.029 34.6259 307.856C34.8952 307.635 35.1613 307.418 35.4234 307.204C35.9425 306.754 36.4609 306.404 36.9475 306.073C37.4203 305.735 37.9012 305.425 38.3594 305.14C39.274 304.57 40.0349 304.094 40.5695 303.761C40.6363 303.719 40.6997 303.68 40.7607 303.643L40.8478 303.589L40.8674 303.576C40.9487 303.524 40.7607 303.643 40.7811 303.63L40.7835 303.63L40.7892 303.626L40.7998 303.621L40.8421 303.6C40.952 303.547 41.0456 303.5 41.1212 303.462C41.2726 303.387 41.354 303.347 41.354 303.347C42.2532 302.821 43.32 302.31 44.3673 301.741C45.413 301.15 46.4944 300.619 47.4896 299.504L47.6459 299.481C48.196 298.568 48.3962 297.505 48.3148 296.522C48.1838 295.555 47.8819 294.666 47.4522 293.879C46.6092 292.292 45.3967 291.023 44.0426 289.955C43.3591 289.426 42.6194 288.966 41.8137 288.605C41.0366 288.223 40.0862 288.014 39.2 287.984L38.5889 287.976L37.9134 288.03C37.4642 288.07 37.0541 288.16 36.6318 288.247C35.7985 288.448 34.9978 288.73 34.2263 289.066C32.6883 289.745 31.2716 290.642 29.9696 291.671C28.6872 292.716 27.4698 293.882 26.569 295.285C24.6957 298.061 23.9544 301.328 23.2969 304.5C24.1131 301.362 25.0334 298.151 26.9775 295.576C27.9084 294.274 29.1363 293.214 30.4245 292.271C31.7281 291.344 33.1327 290.556 34.608 289.992C36.0988 289.441 37.6058 289.095 39.1495 289.236C40.5728 289.339 41.9423 290.135 43.0987 291.127C44.2469 292.126 45.2705 293.334 45.8833 294.668C46.2055 295.329 46.3773 296.016 46.4399 296.668C46.4472 297.314 46.2869 297.884 45.9769 298.367C46.0021 298.333 46.0111 298.289 46.0208 298.244C45.496 298.859 44.4446 299.393 43.438 299.849C42.411 300.325 41.3426 300.742 40.1952 301.315C40.1952 301.315 40.1187 301.362 39.9763 301.451C39.9047 301.497 39.816 301.552 39.7118 301.618L39.6728 301.642L39.5629 301.712L39.5442 301.727L39.4636 301.789C39.4075 301.83 39.3489 301.877 39.2871 301.925C38.7858 302.313 38.0713 302.867 37.2136 303.533C36.7831 303.862 36.3152 304.238 35.8213 304.671C35.3225 305.094 34.8025 305.535 34.3468 306.021C34.1075 306.26 33.865 306.503 33.6193 306.75C33.3247 307.053 33.1262 307.323 32.8747 307.616C32.6452 307.912 32.4353 308.225 32.2164 308.532C32.0243 308.856 31.8176 309.172 31.641 309.502C30.2137 312.166 29.6685 315.022 28.8678 317.01C28.4862 318.013 28.0671 318.803 27.7562 319.349C27.5105 319.73 27.3436 319.988 27.268 320.106C27.268 320.109 27.2688 320.115 27.2688 320.119C27.3542 320.011 27.5495 319.769 27.8376 319.408C28.2062 318.892 28.7124 318.132 29.2022 317.157Z" fill="black"/>
<path d="M27.2188 320.181C27.2188 320.181 27.2376 320.158 27.2696 320.118C27.2696 320.114 27.2688 320.108 27.2688 320.105C27.2376 320.152 27.2188 320.181 27.2188 320.181Z" fill="black"/>
<path d="M61.0783 338.752C59.8756 337.282 58.6648 336.034 57.589 334.935C56.4953 333.854 55.5863 332.875 54.7742 332.12C53.9751 331.355 53.2574 330.858 52.7683 330.527C52.2524 330.238 51.9766 330.086 51.9766 330.086C51.9766 330.086 52.2475 330.247 52.7545 330.549C53.2338 330.893 53.932 331.407 54.7051 332.194C55.4887 332.964 56.3733 333.976 57.4336 335.084C58.4744 336.211 59.6437 337.489 60.7927 338.981C61.08 339.354 61.368 339.742 61.6529 340.142V339.482C61.4616 339.237 61.2696 338.987 61.0783 338.752Z" fill="black"/>
<path d="M66.6238 350.402C66.2795 348.018 65.5146 345.792 64.5039 343.849C63.8904 342.663 63.1954 341.589 62.4785 340.588V341.358C63.0278 342.213 63.551 343.12 64.0181 344.092C64.9491 346.016 65.6237 348.191 65.8897 350.496C66.1689 352.801 66.0281 355.234 65.6481 357.632C65.5366 358.243 65.4251 358.855 65.312 359.47C65.1736 360.064 65.0345 360.66 64.8945 361.259C64.6699 362.059 64.4104 362.851 64.1028 363.621C64.3168 364.068 64.5487 364.507 64.8009 364.934C65.797 362.638 66.2763 360.131 66.5871 357.79C66.911 355.28 66.9818 352.787 66.6238 350.402Z" fill="black"/>
<path d="M64.3868 365.834C64.1337 365.435 63.8912 365.03 63.6707 364.614C63.6569 364.642 63.6463 364.67 63.6325 364.697C62.5843 366.892 61.0333 368.83 59.0551 370.122C57.9273 370.883 56.6952 371.443 55.4258 371.854C55.6894 372.298 55.9629 372.735 56.2526 373.161C57.5082 372.686 58.728 372.065 59.8518 371.26C61.8048 369.898 63.3354 367.96 64.3868 365.834Z" fill="black"/>
<path d="M52.5893 372.518C50.3319 372.86 48.1071 372.835 46.0101 372.661C43.8561 372.513 41.978 372.076 40.2504 371.509C38.5228 370.967 37.0719 370.144 35.8097 369.411C34.5802 368.614 33.5679 367.831 32.7818 367.129C32.3969 366.772 32.0519 366.45 31.7524 366.173C31.4716 365.872 31.2348 365.618 31.0412 365.412C30.6563 364.998 30.4553 364.774 30.4553 364.774C30.4553 364.774 30.0533 364.322 29.3502 363.531C29.0239 363.112 28.6268 362.603 28.1727 362.018C27.7683 361.398 27.2491 360.735 26.7991 359.935C26.3076 359.158 25.847 358.274 25.3596 357.338C24.9169 356.394 24.4522 355.398 24.0332 354.275C23.2511 352.178 22.7425 349.727 22.7377 347.29C22.7263 344.841 23.2674 342.4 24.1406 340.251C25.0113 338.098 26.2067 336.245 27.3671 334.772C28.5169 333.282 29.6611 332.2 30.4536 331.435C31.1616 330.813 31.5896 330.438 31.706 330.338C31.7036 330.336 31.7027 330.336 31.7011 330.336C31.575 330.432 31.1274 330.781 30.3894 331.356C29.552 332.075 28.3363 333.1 27.0863 334.539C25.8258 335.96 24.4937 337.775 23.4635 339.954C22.4309 342.122 21.7074 344.654 21.5683 347.254C21.4283 349.86 21.7978 352.446 22.5293 354.821C22.8727 355.936 23.3048 357.04 23.7256 358.086C24.1788 359.097 24.6117 360.058 25.0829 360.912C25.5126 361.787 26.022 362.527 26.4174 363.216C26.8699 363.871 27.2638 364.443 27.5884 364.912C28.2997 365.813 28.7065 366.33 28.7065 366.33C28.7065 366.33 28.9319 366.567 29.3648 367.008C29.5829 367.226 29.8498 367.496 30.1656 367.812C30.5008 368.107 30.8874 368.447 31.3203 368.826C32.2024 369.569 33.3368 370.395 34.7104 371.23C36.1181 371.998 37.7375 372.846 39.6433 373.388C41.5149 373.952 43.6763 374.369 45.8539 374.45C48.073 374.572 50.4483 374.536 52.8554 374.097C53.7188 373.94 54.5895 373.724 55.4504 373.444C55.1558 373.003 54.8783 372.551 54.6114 372.093C53.9409 372.274 53.2647 372.416 52.5893 372.518Z" fill="black"/>
<path d="M31.7572 330.291C31.7572 330.291 31.7234 330.317 31.7012 330.336C31.7028 330.336 31.7037 330.336 31.7061 330.338C31.7259 330.319 31.7572 330.291 31.7572 330.291Z" fill="black"/>
<path d="M52.455 343.834C52.5649 343.681 52.6821 343.428 52.7749 343.232L52.8578 342.996L52.8782 342.936L52.8888 342.907C52.9002 342.859 52.8693 342.991 52.9165 342.796L52.9189 342.776L52.9417 342.606C53.0035 342.165 52.9474 341.629 52.6943 341.183C52.4884 340.812 52.2012 340.542 51.9082 340.335V344.538C52.1002 344.32 52.2858 344.093 52.455 343.834Z" fill="black"/>
<path d="M50.7071 343.802C49.886 344.765 48.8078 345.638 47.7858 346.61C47.5286 346.858 47.2723 347.107 47.0273 347.386C46.9028 347.518 46.784 347.668 46.6677 347.82L46.3511 348.224C45.9247 348.764 45.4999 349.302 45.0784 349.837C44.2346 350.905 43.4045 351.957 42.6014 352.972C41.017 354.997 39.4383 356.853 38.1973 358.522C37.5512 359.338 37.0483 360.154 36.556 360.839C36.0572 361.522 35.6991 362.167 35.3956 362.692C34.7869 363.739 34.4395 364.337 34.4395 364.337C34.4395 364.337 34.8178 363.758 35.4802 362.745C35.8106 362.238 36.1988 361.617 36.7326 360.965C37.2591 360.308 37.797 359.528 38.4838 358.751C39.8053 357.155 41.4589 355.408 43.1791 353.434C44.036 352.462 44.9214 351.455 45.8214 350.432C46.2714 349.919 46.7246 349.404 47.1795 348.885L47.5237 348.492C47.6238 348.377 47.7239 348.259 47.8427 348.146C48.0657 347.918 48.3171 347.697 48.571 347.478C49.3799 346.782 50.2539 346.127 51.0839 345.362V343.301C50.9724 343.467 50.8503 343.638 50.7071 343.802Z" fill="black"/>
<path d="M49.6438 339.485C48.9733 339.363 48.3288 339.311 47.7054 339.284C46.4596 339.235 45.3016 339.296 44.2356 339.391C43.7026 339.439 43.1932 339.498 42.7074 339.566C42.2045 339.642 41.7993 339.691 41.2606 339.829C40.3907 340.075 39.6363 340.345 39.0358 340.632C37.8249 341.191 37.2097 341.691 37.2089 341.691C37.2089 341.691 36.8956 341.922 36.4203 342.412C35.9451 342.894 35.2998 343.639 34.7562 344.651C33.604 346.667 33.1108 349.633 33.1922 352.441C33.2402 355.267 33.6617 358.009 33.901 360.071C34.163 362.129 34.233 363.512 34.233 363.512C34.233 363.512 34.3095 362.128 34.2664 360.045C34.2444 357.969 34.1191 355.19 34.3608 352.483C34.5683 349.774 35.3372 347.188 36.4415 345.679C36.968 344.909 37.5328 344.391 37.9429 344.054C38.3498 343.714 38.615 343.562 38.615 343.562C38.615 343.562 39.0618 343.152 40.0269 342.641C40.5038 342.377 41.1255 342.118 41.8643 341.865C42.1353 341.776 42.6171 341.676 43.0451 341.591C43.4918 341.504 43.9671 341.423 44.4643 341.352C45.4579 341.21 46.545 341.095 47.677 341.081C48.7796 341.071 50.0507 341.143 50.9124 341.585C50.98 341.627 51.0296 341.663 51.0833 341.702V339.889C50.5926 339.687 50.1101 339.578 49.6438 339.485Z" fill="black"/>
<path d="M86.2745 398.421L86.2487 398.407L86.2422 398.404C86.4578 398.517 86.2995 398.433 86.3472 398.458L86.3431 398.455L86.3254 398.446L86.2745 398.421Z" fill="black"/>
<path d="M79.0916 386.13C79.6189 387.044 80.3138 388.245 80.8338 389.514C81.1365 390.125 81.3213 390.789 81.5263 391.389C81.615 391.676 81.7493 392.005 81.7867 392.223C81.8648 392.533 81.8966 392.762 81.9405 393.004C82.0952 394.034 82.1993 394.721 82.1993 394.721C82.1993 394.721 82.3124 395.064 82.5085 395.666C82.7234 396.269 83.0269 397.161 83.6616 398.194C83.9912 398.701 84.4217 399.252 85.0377 399.7L85.2761 399.86L85.3973 399.939L85.412 399.947L85.53 400.012L85.5365 400.015L85.5634 400.024L85.6171 400.044L85.8343 400.127L86.1875 400.22C86.6448 400.318 87.0094 400.311 87.3992 400.283C88.9087 400.126 90.2408 399.545 91.5355 398.932C94.1004 397.668 96.4285 396.097 98.1618 394.905C99.8748 393.691 101.016 392.881 101.016 392.881C101.016 392.881 99.7983 393.565 97.9698 394.594C96.1323 395.594 93.6512 396.907 91.0773 397.857C89.8022 398.314 88.4587 398.698 87.339 398.682C87.0753 398.68 86.7897 398.638 86.6359 398.58C86.6025 398.566 86.5708 398.558 86.5342 398.551L86.3437 398.455L86.3478 398.458C86.2998 398.432 86.4593 398.518 86.242 398.403L86.2485 398.406L86.2746 398.42L86.3258 398.445L86.3437 398.455L86.3397 398.451L86.2762 398.395L86.1484 398.286C85.8205 397.988 85.5715 397.601 85.3729 397.209C84.9888 396.406 84.7903 395.605 84.6593 395.04C84.5348 394.463 84.4632 394.132 84.4632 394.132C84.4632 394.132 84.2142 393.468 83.8407 392.468C83.7357 392.207 83.6112 391.89 83.485 391.636C83.3312 391.283 83.1603 391.052 82.9895 390.741C82.6395 390.152 82.3027 389.514 81.8551 388.945C81.0438 387.753 80.0844 386.69 79.3829 385.909C79.0525 385.556 78.7751 385.26 78.5684 385.04H78.4316C78.5911 385.302 78.8182 385.677 79.0916 386.13Z" fill="black"/>
<path d="M120.847 499.407C120.284 497.536 119.332 494.899 117.988 491.821C116.631 488.751 114.914 485.229 113.005 481.498C112.066 479.629 111.096 477.699 110.109 475.738C109.632 474.747 109.15 473.749 108.666 472.747C108.221 471.735 107.775 470.718 107.329 469.703C106.865 468.695 106.461 467.658 106.065 466.625C105.671 465.589 105.245 464.573 104.884 463.54C104.166 461.472 103.434 459.449 102.831 457.45C101.554 453.481 100.54 449.715 99.664 446.491C98.8234 443.25 98.1227 440.55 97.632 438.661C97.1527 436.761 96.8793 435.674 96.8793 435.674C96.8793 435.674 96.7206 435.145 96.4423 434.218C96.1673 433.288 95.7498 431.973 95.3275 430.35C94.8824 428.729 94.3632 426.837 93.8074 424.811C93.5169 423.797 93.2345 422.74 92.9172 421.683C92.5713 420.638 92.2198 419.578 91.8691 418.517C91.6941 417.987 91.5192 417.46 91.3442 416.934C91.1945 416.404 91.0447 415.875 90.8966 415.35C90.6208 414.295 90.2619 413.276 90.0682 412.253C89.8518 411.232 89.6426 410.245 89.4449 409.31C89.283 408.364 89.1308 407.471 88.9892 406.645C88.4472 403.338 88.0859 401.133 88.0859 401.133C88.0859 401.133 88.3024 403.359 88.6271 406.695C88.7141 407.532 88.8085 408.435 88.9086 409.392C89.0462 410.347 89.1918 411.353 89.3415 412.397C89.4701 413.444 89.7631 414.497 89.9746 415.585C90.091 416.128 90.2074 416.676 90.3254 417.226C90.4662 417.766 90.6069 418.308 90.7477 418.852C91.0293 419.932 91.31 421.015 91.5867 422.08C91.8316 423.147 92.04 424.2 92.2597 425.216C92.6796 427.263 93.0726 429.173 93.4079 430.811C93.7228 432.458 94.0605 433.83 94.2777 434.793C94.4999 435.755 94.626 436.307 94.626 436.307C94.626 436.307 94.9336 437.377 95.4715 439.251C96.0257 441.13 96.8158 443.813 97.7647 447.031C98.7526 450.242 99.8959 453.995 101.315 457.96C101.988 459.953 102.794 461.975 103.588 464.036C103.986 465.067 104.45 466.083 104.883 467.114C105.317 468.145 105.759 469.176 106.261 470.182C106.747 471.196 107.233 472.21 107.718 473.221C108.234 474.207 108.748 475.19 109.258 476.164C110.312 478.098 111.348 480.001 112.351 481.845C114.379 485.509 116.204 488.96 117.656 491.973C119.094 494.993 120.127 497.588 120.751 499.436C120.969 500.149 121.151 500.743 121.293 501.208C121.324 501.274 121.355 501.337 121.388 501.403C121.254 500.91 121.073 500.243 120.847 499.407Z" fill="black"/>
<path d="M139.982 537.661C141.134 539.789 142.08 541.843 142.738 543.661C143.434 545.473 143.701 547.073 143.86 548.191C143.923 548.752 143.901 549.198 143.919 549.502C143.929 549.805 143.933 549.968 143.933 549.968C143.933 549.968 143.936 549.805 143.941 549.503C143.936 549.2 143.977 548.75 143.94 548.184C143.832 547.056 143.635 545.426 143.015 543.569C142.434 541.705 141.573 539.588 140.51 537.391C139.441 535.198 138.187 532.916 136.897 530.662C135.608 528.41 134.272 526.178 133.097 524.078C132.801 523.558 132.516 523.038 132.245 522.518C132.113 522.264 131.982 522.014 131.852 521.77C131.726 521.513 131.602 521.26 131.479 521.007C130.988 520.008 130.523 519.062 130.095 518.189C128.385 514.701 127.246 512.377 127.246 512.377C127.245 512.377 124.654 507.898 122.322 503.284C121.999 502.657 121.688 502.026 121.387 501.403C121.556 502.027 121.65 502.374 121.65 502.374C121.65 502.374 121.523 501.963 121.292 501.208C120.528 499.618 119.844 498.093 119.304 496.844C118.565 495.046 118.072 493.844 118.072 493.844C118.072 493.844 118.456 495.085 119.029 496.944C119.635 498.787 120.496 501.256 121.467 503.667C123.388 508.507 125.579 513.229 125.579 513.229C125.579 513.229 126.825 515.506 128.694 518.92C129.161 519.771 129.667 520.692 130.202 521.668C130.335 521.912 130.471 522.16 130.608 522.41C130.756 522.663 130.906 522.921 131.056 523.178C131.348 523.683 131.661 524.198 131.989 524.72C133.285 526.804 134.709 528.96 136.094 531.145C137.481 533.329 138.826 535.535 139.982 537.661Z" fill="black"/>
<path d="M121.388 501.403C121.356 501.337 121.325 501.274 121.293 501.208C121.524 501.963 121.65 502.374 121.65 502.374C121.65 502.374 121.557 502.027 121.388 501.403Z" fill="black"/>
<path d="M167.903 515.718C167.6 516.065 167.26 516.457 166.887 516.883C165.373 518.565 163.123 520.589 160.636 522.264C158.162 523.959 155.484 525.306 153.432 526.183C151.363 527.029 149.945 527.46 149.945 527.463C149.945 527.463 149.28 527.799 148.236 528.197C147.204 528.63 145.791 529.126 144.35 529.54C142.905 529.964 141.439 530.261 140.314 530.453C139.184 530.608 138.432 530.711 138.432 530.711C138.432 530.711 139.192 530.724 140.331 530.746C141.467 530.729 143.014 530.658 144.536 530.458C146.061 530.264 147.584 529.982 148.71 529.704C149.849 529.459 150.587 529.221 150.587 529.221C150.587 529.221 152.033 528.654 154.101 527.614C156.155 526.543 158.801 524.942 161.192 523.016C163.6 521.109 165.72 518.881 167.112 517.071C167.452 516.612 167.765 516.194 168.042 515.82C168.3 515.437 168.508 515.09 168.688 514.81C169.041 514.248 169.243 513.929 169.243 513.929C169.243 513.929 169.016 514.232 168.622 514.765C168.421 515.028 168.189 515.358 167.903 515.718Z" fill="black"/>
<path d="M260.662 482.446C260.725 481.964 260.789 481.455 260.857 480.927C260.924 480.398 260.996 479.852 261.067 479.294C261.173 478.747 261.318 478.198 261.443 477.64C261.575 477.084 261.705 476.528 261.833 475.98C261.991 475.444 262.194 474.933 262.368 474.426C262.735 473.421 263.016 472.447 263.441 471.685C264.2 470.125 264.706 469.084 264.706 469.084C264.706 469.084 264.098 470.067 263.186 471.544C262.687 472.257 262.303 473.203 261.823 474.191C261.595 474.69 261.331 475.199 261.113 475.734C260.925 476.278 260.735 476.831 260.544 477.385C260.358 477.94 260.152 478.494 259.983 479.047C259.852 479.609 259.723 480.164 259.599 480.701C259.472 481.239 259.351 481.76 259.236 482.254C259.152 482.753 259.098 483.227 259.033 483.665C258.913 484.543 258.813 485.276 258.743 485.788C258.712 486.303 258.695 486.597 258.695 486.597C258.695 486.597 258.705 487.186 258.722 488.216C258.698 489.249 258.876 490.706 259.003 492.458C259.375 495.948 260.22 500.521 261.169 505.044C262.118 509.568 263.005 514.094 263.413 517.533C263.512 518.39 263.603 519.179 263.682 519.876C263.724 520.58 263.759 521.193 263.788 521.696C263.847 522.704 263.882 523.282 263.882 523.282C263.882 523.282 263.876 522.704 263.868 521.694C263.865 521.187 263.861 520.573 263.855 519.867C263.811 519.163 263.76 518.37 263.705 517.502C263.47 514.038 262.808 509.443 262.09 504.88C261.372 500.314 260.767 495.75 260.578 492.331C260.542 490.62 260.438 489.197 260.513 488.205C260.547 487.216 260.568 486.648 260.568 486.648C260.568 486.648 260.556 486.366 260.534 485.87C260.551 485.374 260.575 484.667 260.606 483.82C260.625 483.395 260.63 482.933 260.662 482.446Z" fill="black"/>
<path d="M97.3654 421.049C98.4599 420.596 99.4494 419.98 99.4494 419.98C99.4494 419.98 99.8588 419.569 100.371 418.897C100.912 418.243 101.562 417.341 102.206 416.448C102.844 415.55 103.488 414.67 103.994 414.021C104.518 413.387 104.867 412.963 104.867 412.963C104.867 412.963 104.434 413.304 103.784 413.816C103.15 414.348 102.319 415.084 101.507 415.825C100.691 416.559 99.8807 417.289 99.2501 417.784C98.6365 418.308 98.1955 418.591 98.1955 418.591C98.1955 418.59 97.5941 419.483 96.869 420.255C96.537 420.684 96.0691 421.024 95.7648 421.308C95.449 421.584 95.2383 421.767 95.2383 421.767C95.2383 421.767 95.506 421.685 95.9064 421.563C96.3059 421.428 96.8479 421.317 97.3654 421.049Z" fill="black"/>
<path d="M125.1 408.409C126.274 407.761 127.056 407.332 127.056 407.332C127.056 407.332 127.418 407.069 128.05 406.612C128.679 406.152 129.548 405.459 130.605 404.647C132.729 403.032 135.473 400.786 138.21 398.541C140.94 396.291 143.67 394.041 145.719 392.353C147.783 390.69 149.16 389.579 149.16 389.579C149.16 389.579 147.695 390.571 145.499 392.061C143.318 393.574 140.412 395.59 137.505 397.607C134.595 399.615 131.688 401.619 129.461 403.036C128.352 403.753 127.438 404.365 126.783 404.765C126.125 405.164 125.75 405.389 125.75 405.389C125.75 405.389 125.059 405.935 124.024 406.753C122.999 407.602 121.575 408.602 120.146 409.633C118.742 410.696 117.219 411.62 116.096 412.33C114.97 413.041 114.221 413.513 114.221 413.513C114.221 413.513 115.038 413.17 116.264 412.655C117.491 412.138 119.134 411.482 120.719 410.652C122.319 409.861 123.95 409.079 125.1 408.409Z" fill="black"/>
<path d="M172.636 410.471C172.495 410.846 172.335 411.272 172.16 411.735C171.429 413.573 170.093 415.855 168.646 418.08C167.93 419.198 167.197 420.312 166.55 421.399C166.389 421.673 166.231 421.941 166.075 422.203C165.994 422.346 165.93 422.44 165.836 422.62C165.77 422.75 165.704 422.879 165.64 423.007C165.382 423.515 165.138 423.999 164.912 424.445C164.686 424.889 164.479 425.298 164.297 425.659C164.115 426.021 163.995 426.373 163.876 426.645C163.649 427.198 163.52 427.516 163.52 427.516C163.52 427.516 163.303 428.166 162.921 429.303C162.78 429.878 162.606 430.575 162.408 431.378C162.208 432.177 161.971 433.078 161.828 434.079C161.668 435.076 161.456 436.155 161.303 437.295C161.152 438.428 160.996 439.623 160.833 440.858C160.703 442.107 160.569 443.394 160.433 444.704C160.308 446.015 160.246 447.349 160.149 448.682C159.84 454.019 160.103 459.367 160.578 463.331C160.774 465.318 161.055 466.958 161.247 468.108C161.434 469.255 161.54 469.91 161.54 469.91C161.54 469.91 161.462 469.251 161.326 468.095C161.185 466.94 160.977 465.293 160.869 463.304C160.571 459.334 160.544 454.019 161.082 448.75C161.236 447.436 161.356 446.119 161.535 444.829C161.727 443.543 161.916 442.277 162.097 441.052C162.315 439.824 162.525 438.639 162.723 437.514C162.925 436.397 163.177 435.365 163.375 434.401C163.554 433.433 163.823 432.574 164.051 431.812C164.275 431.049 164.47 430.385 164.632 429.837C165.037 428.786 165.268 428.185 165.268 428.185C165.268 428.185 165.363 427.876 165.529 427.336C165.62 427.066 165.696 426.735 165.846 426.359C165.996 425.983 166.166 425.557 166.352 425.094C166.537 424.631 166.738 424.128 166.95 423.599C167.003 423.466 167.057 423.332 167.112 423.195C167.17 423.073 167.227 422.949 167.286 422.824C167.413 422.557 167.542 422.285 167.675 422.009C168.207 420.901 168.838 419.731 169.456 418.551C170.707 416.196 171.861 413.759 172.438 411.827C172.573 411.342 172.697 410.896 172.806 410.504C172.881 410.106 172.918 409.752 172.964 409.466C173.047 408.891 173.095 408.56 173.095 408.56C173.095 408.56 173.018 408.885 172.885 409.453C172.815 409.734 172.747 410.083 172.636 410.471Z" fill="black"/>
<path d="M241.59 304.384C242.09 304.33 242.423 304.295 242.423 304.295C242.423 304.295 242.107 304.185 241.633 304.02C241.16 303.856 240.524 303.643 239.906 303.404C239.289 303.169 238.658 302.95 238.237 302.744C237.809 302.552 237.523 302.425 237.523 302.425C237.565 302.499 234.721 302.918 234.721 302.919C234.721 302.918 236.909 304.747 236.979 304.7C236.979 304.7 238.425 304.708 239.751 304.565C240.426 304.515 241.092 304.436 241.59 304.384Z" fill="black"/>
<path d="M243.248 310.621L239.336 309.091L237.197 310.071L239.092 311.419L243.248 310.621Z" fill="black"/>
<path d="M19.509 211.926L19.5205 211.916L19.5263 211.911L19.5271 211.911C19.5361 211.903 19.4909 211.94 19.4688 211.958L19.4704 211.957C19.4729 211.956 19.4728 211.957 19.4753 211.954C19.477 211.953 19.4794 211.951 19.4819 211.949L19.509 211.926Z" fill="black"/>
<path d="M53.9719 245.145C53.9719 245.145 53.6952 245.197 53.1752 245.293C52.8489 245.352 52.4176 245.433 51.9082 245.522V245.592C52.4209 245.485 52.8538 245.389 53.1801 245.318C53.6968 245.206 53.9719 245.145 53.9719 245.145Z" fill="black"/>
<path d="M51.9082 199.191V199.237C52.3509 199.213 52.5958 199.2 52.5958 199.2C52.5958 199.2 52.3509 199.198 51.9082 199.191Z" fill="black"/>
<path d="M50.9208 245.689C48.9759 246.007 46.1872 246.433 42.8199 246.675C39.4575 246.912 35.5035 246.97 31.3477 246.41C29.2824 246.092 27.1487 245.684 25.1013 244.924L24.3266 244.659C24.0719 244.56 23.8262 244.44 23.5747 244.331C23.08 244.102 22.5641 243.901 22.0831 243.649L20.6753 242.846C20.2017 242.603 19.7591 242.208 19.2993 241.895L18.6149 241.398C18.4742 241.277 18.239 241.038 18.0559 240.863C17.6726 240.477 17.2552 240.126 16.9028 239.716L15.8856 238.454C15.5406 238.042 15.3005 237.553 15.0035 237.11C13.9041 235.283 13.0993 233.308 12.7136 231.31L12.5444 230.572C12.502 230.324 12.4825 230.073 12.45 229.826C12.3946 229.33 12.323 228.841 12.2815 228.355C12.2856 227.378 12.1961 226.423 12.3222 225.499C12.4125 223.64 12.8878 221.937 13.3662 220.407C14.4078 217.367 16.0891 215.133 17.3284 213.898C17.4781 213.733 17.6205 213.576 17.754 213.429C17.8931 213.282 18.0705 213.152 18.2105 213.027C18.5035 212.78 18.7525 212.568 18.9535 212.398C19.1553 212.227 19.3091 212.095 19.414 212.007C19.4368 211.987 19.4572 211.97 19.4759 211.954C19.4734 211.957 19.4734 211.956 19.471 211.957L19.4694 211.958C19.4913 211.94 19.5361 211.904 19.5271 211.911L19.5263 211.912L19.5206 211.917L19.5092 211.926L19.4824 211.949C19.4799 211.951 19.4775 211.953 19.4759 211.954C19.4978 211.94 19.5125 211.931 19.5125 211.931C19.5125 211.931 19.9422 211.624 20.6933 211.084C21.0537 210.794 21.555 210.516 22.1311 210.196C22.4176 210.033 22.7219 209.86 23.0434 209.677C23.3827 209.519 23.7383 209.352 24.1094 209.177C24.4837 209.004 24.8727 208.824 25.2763 208.64C25.6929 208.474 26.1226 208.302 26.5653 208.126C27.4417 207.759 28.4092 207.44 29.3931 207.081C31.3664 206.389 33.5586 205.703 35.663 204.909C37.8349 204.054 39.8058 203.009 41.7279 202.126C43.6369 201.243 45.4451 200.473 47.0644 200.03C47.4689 199.915 47.8562 199.805 48.224 199.7C48.6 199.632 48.9556 199.568 49.2909 199.508C49.6269 199.448 49.9427 199.392 50.234 199.342C50.5261 199.291 50.802 199.302 51.0477 199.282C51.0599 199.28 51.0705 199.28 51.0836 199.279V199.181C51.0705 199.181 51.0592 199.181 51.0461 199.181C50.7988 199.186 50.5253 199.156 50.2291 199.188C49.9321 199.221 49.6107 199.256 49.2673 199.293C48.9222 199.333 48.5552 199.374 48.1679 199.419C47.7887 199.5 47.3899 199.587 46.9741 199.676C45.3011 200.019 43.4172 200.681 41.4366 201.445C39.4632 202.202 37.3694 203.135 35.2952 203.799C33.1314 204.458 30.975 204.979 28.9162 205.554C27.8925 205.854 26.8965 206.111 25.9623 206.433C25.4928 206.586 25.0362 206.734 24.596 206.878C24.1582 207.045 23.7367 207.207 23.3306 207.362C22.9254 207.522 22.538 207.675 22.1678 207.82C21.8073 207.995 21.4639 208.161 21.1416 208.317C20.4947 208.624 19.9291 208.893 19.4946 209.192C18.6052 209.75 18.0966 210.068 18.0966 210.068C18.0966 210.068 18.0811 210.078 18.0518 210.1C18.0225 210.124 17.9859 210.155 17.9428 210.192C17.9241 210.209 17.9013 210.23 17.876 210.252C17.7743 210.344 17.6246 210.48 17.4285 210.657C17.2324 210.834 16.9915 211.053 16.7067 211.31C16.5659 211.445 16.4113 211.564 16.251 211.738C16.0923 211.919 15.9239 212.11 15.7457 212.313C15.4006 212.724 14.9767 213.16 14.6031 213.672C14.2516 214.194 13.8708 214.757 13.4647 215.36C13.1156 215.994 12.7698 216.684 12.3954 217.403C12.0976 218.156 11.7729 218.946 11.4914 219.785C11.0145 221.487 10.5653 223.367 10.5287 225.392C10.4286 226.4 10.5515 227.436 10.5865 228.492C10.6475 229.018 10.7403 229.545 10.8192 230.079C10.8623 230.345 10.8941 230.613 10.9486 230.879L11.1561 231.675C11.646 233.815 12.581 235.922 13.8285 237.85C14.1637 238.318 14.4404 238.83 14.8261 239.264L15.9621 240.583C16.3551 241.011 16.8141 241.377 17.2372 241.774C17.4716 241.977 17.6287 242.147 17.9265 242.377L18.6255 242.852C19.1072 243.157 19.5239 243.513 20.0585 243.775L21.6087 244.598C22.1303 244.849 22.6682 245.04 23.1947 245.263C23.46 245.367 23.7204 245.484 23.9881 245.577L24.7994 245.826C26.9461 246.543 29.1424 246.889 31.2565 247.145C35.5051 247.576 39.4827 247.386 42.8525 247.04C46.2255 246.687 49.002 246.17 50.9387 245.787C50.9892 245.777 51.0339 245.768 51.0836 245.759V245.661C51.0274 245.671 50.9778 245.679 50.9208 245.689Z" fill="black"/>
<path d="M50.3923 206.418C49.9952 205.958 49.6689 205.589 49.4101 205.357C49.1619 205.117 49.0195 204.979 49.0195 204.979C49.0195 204.979 49.1343 205.14 49.3336 205.423C49.546 205.698 49.7999 206.124 50.0904 206.626C50.4338 207.243 50.7772 208.023 51.0832 208.866V207.339C50.8488 207.003 50.6153 206.688 50.3923 206.418Z" fill="black"/>
<path d="M52.2964 214.751C52.3891 215.897 52.3989 216.662 52.3981 216.662C52.3981 216.662 52.4559 217.039 52.5576 217.701C52.643 218.365 52.7578 219.317 52.831 220.472C52.984 222.777 52.9644 225.894 52.5926 228.992C52.429 230.425 52.1898 231.848 51.9082 233.189V235.598C52.6056 233.707 53.2688 231.47 53.7473 229.181C54.4203 226.06 54.7401 222.857 54.8052 220.437C54.8402 219.227 54.8133 218.214 54.7881 217.504C54.7466 216.793 54.7222 216.387 54.7222 216.387C54.723 216.387 54.5619 215.583 54.2396 214.402C53.9206 213.221 53.4145 211.664 52.722 210.191C52.4738 209.652 52.1946 209.139 51.9082 208.646V211.883C52.11 212.931 52.2321 213.938 52.2964 214.751Z" fill="black"/>
<path d="M50.7963 237.39C50.4268 238.507 50.046 239.413 49.7653 240.042C49.4658 240.663 49.2949 241.018 49.2949 241.018C49.2949 241.018 49.4992 240.68 49.8548 240.088C50.1811 239.509 50.6262 238.672 51.0835 237.639V236.478C50.9891 236.795 50.8931 237.099 50.7963 237.39Z" fill="black"/>
<path d="M51.9091 208.646V199.237C51.6837 199.248 51.4087 199.263 51.084 199.279V207.339C51.3615 207.737 51.639 208.179 51.9091 208.646Z" fill="black"/>
<path d="M51.3745 342.79L51.4453 342.55L51.4526 342.526L51.4559 342.45C51.4778 342.089 51.3639 341.897 51.084 341.702V343.301C51.1328 343.227 51.1841 343.153 51.2264 343.083C51.3053 342.957 51.3151 342.892 51.3745 342.79Z" fill="black"/>
<path d="M232.932 268.416V330.082C233.208 329.774 233.483 329.468 233.758 329.16V271.159C233.688 270.946 233.609 270.699 233.52 270.421C233.323 269.865 233.129 269.161 232.932 268.416Z" fill="black"/>
<path d="M194.256 384.214H77.0823C68.4305 384.214 60.7861 379.827 56.2527 373.161C55.9866 373.261 55.7197 373.357 55.4512 373.444C60.1172 380.428 68.07 385.04 77.0823 385.04H78.4315C78.2728 384.777 78.1817 384.627 78.1817 384.627C78.1817 384.627 78.3257 384.781 78.5682 385.04H193.381C193.396 385.025 193.412 385.01 193.426 384.995C193.704 384.736 193.98 384.476 194.256 384.214Z" fill="black"/>
<path d="M232.932 252.872V265.177C233.155 265.648 233.394 266.132 233.661 266.602C233.692 266.664 233.724 266.725 233.758 266.786V255.137C233.573 254.679 233.398 254.217 233.24 253.747C233.132 253.457 233.033 253.165 232.932 252.872Z" fill="black"/>
<path d="M51.1385 237.521C51.1198 237.561 51.1027 237.598 51.084 237.639V245.661C51.381 245.613 51.6552 245.568 51.9091 245.522V235.598C51.6544 236.289 51.3948 236.937 51.1385 237.521Z" fill="black"/>
<path d="M51.9091 245.592C51.6552 245.645 51.3818 245.7 51.084 245.759V267.966C51.4087 268.01 51.6853 268.054 51.9091 268.085V245.592Z" fill="black"/>
<path d="M51.9091 42.1124C51.9091 28.2315 63.2015 16.9391 77.0825 16.9391H207.759C221.639 16.9391 232.932 28.2315 232.932 42.1124V199.188C233.204 198.692 233.48 198.216 233.758 197.756V194.7C233.483 194.941 233.345 195.075 233.345 195.075C233.345 195.075 233.483 194.937 233.758 194.691V42.1124C233.758 27.7766 222.095 16.114 207.759 16.114H77.0825C62.7466 16.114 51.084 27.7766 51.084 42.1124V199.182C51.4087 199.186 51.6837 199.189 51.9091 199.191V42.1124Z" fill="black"/>
<path d="M233.756 194.7V194.69C233.481 194.937 233.344 195.074 233.344 195.074C233.344 195.074 233.481 194.941 233.756 194.7Z" fill="black"/>
<path d="M232.932 199.188V200.986C233.197 200.339 233.474 199.717 233.758 199.113V197.756C233.48 198.215 233.204 198.692 232.932 199.188Z" fill="black"/>
<path d="M232.932 248.672V252.872C233.033 253.165 233.132 253.457 233.24 253.747C233.398 254.217 233.573 254.679 233.758 255.137V251.813C233.645 251.422 233.535 251.029 233.431 250.634C233.255 249.982 233.095 249.326 232.932 248.672Z" fill="black"/>
<path d="M194.256 384.214C193.98 384.476 193.704 384.736 193.426 384.995C193.412 385.01 193.396 385.025 193.381 385.04H194.499C194.809 384.765 195.123 384.489 195.436 384.214H194.256Z" fill="black"/>
<path d="M232.932 331.883C233.194 331.58 233.455 331.278 233.709 330.967C233.725 330.946 233.741 330.926 233.758 330.906V329.16C233.483 329.468 233.208 329.775 232.932 330.082V331.883Z" fill="black"/>
<path d="M232.932 265.177V268.416C233.129 269.161 233.323 269.865 233.52 270.421C233.609 270.7 233.688 270.946 233.758 271.159V266.786C233.724 266.725 233.692 266.664 233.661 266.602C233.394 266.132 233.155 265.648 232.932 265.177Z" fill="black"/>
<path d="M51.909 273.483V273.477C51.8276 273.398 51.7715 273.343 51.7715 273.343C51.7715 273.343 51.8276 273.4 51.909 273.483Z" fill="black"/>
<path d="M51.9091 268.114V268.085C51.6853 268.054 51.4087 268.01 51.084 267.966V268.029C51.4087 268.059 51.6862 268.092 51.9091 268.114Z" fill="black"/>
<path d="M51.9091 328.322C51.6373 328.421 51.3615 328.513 51.084 328.6V330.007C51.359 329.921 51.6341 329.838 51.9091 329.74V328.322Z" fill="black"/>
<path d="M55.4251 371.854C55.1549 371.941 54.8839 372.02 54.6113 372.093C54.8782 372.551 55.1557 373.003 55.4503 373.444C55.7188 373.357 55.9858 373.26 56.2519 373.161C55.9622 372.735 55.6887 372.298 55.4251 371.854Z" fill="black"/>
<path d="M51.4512 342.541C51.4972 342.355 51.4609 342.496 51.4706 342.46L51.4617 342.489L51.452 342.526V342.529L51.4512 342.541Z" fill="black"/>
<path d="M51.084 339.889V341.702C51.3639 341.897 51.4778 342.089 51.4559 342.449L51.4526 342.526L51.4624 342.488L51.4713 342.459C51.4616 342.496 51.4982 342.353 51.4518 342.541L51.4526 342.529V342.526L51.4453 342.549L51.3745 342.79C51.3151 342.892 51.3053 342.956 51.2264 343.083C51.1841 343.153 51.1328 343.227 51.084 343.301V345.362C51.307 345.158 51.5283 344.95 51.7431 344.725C51.8001 344.667 51.8538 344.6 51.9091 344.537V340.334C51.8497 340.292 51.7903 340.249 51.7317 340.212C51.5136 340.077 51.2988 339.977 51.084 339.889Z" fill="black"/>
<path d="M78.4314 385.04H78.5682C78.3257 384.781 78.1816 384.627 78.1816 384.627C78.1816 384.627 78.2728 384.777 78.4314 385.04Z" fill="black"/>
<path d="M51.9091 245.522C51.6552 245.568 51.381 245.613 51.084 245.661V245.759C51.3818 245.7 51.6552 245.645 51.9091 245.592V245.522Z" fill="black"/>
<path d="M51.9091 199.237V199.191C51.6837 199.189 51.4087 199.186 51.084 199.182V199.279C51.4087 199.263 51.6837 199.248 51.9091 199.237Z" fill="black"/>
<path d="M51.084 236.478V237.639C51.1027 237.598 51.1198 237.561 51.1385 237.521C51.3948 236.937 51.6544 236.289 51.9091 235.598V233.189C51.6617 234.369 51.381 235.485 51.084 236.478Z" fill="black"/>
<path d="M51.084 208.866C51.285 209.419 51.4729 209.995 51.6219 210.588C51.7342 211.022 51.8269 211.454 51.9091 211.883V208.646C51.639 208.179 51.3615 207.737 51.084 207.339V208.866Z" fill="black"/>
<path d="M79.398 373.248C73.1744 373.248 67.7394 369.898 64.8009 364.934C64.7643 365.02 64.7317 365.107 64.6927 365.192C64.5975 365.408 64.4917 365.621 64.3867 365.834C67.5302 370.774 73.0751 374.073 79.398 374.073H204.395C204.64 373.798 204.886 373.522 205.131 373.248H79.398Z" fill="black"/>
<path d="M62.4775 288.265V43.5787C62.4775 34.3507 70.0673 26.8431 79.397 26.8431H94.89C96.6037 34.4744 102.656 39.7744 109.711 39.7744H175.129C182.186 39.7744 188.236 34.4744 189.949 26.8431H206.106C215.436 26.8431 223.026 34.3507 223.026 43.5787V341.049C223.139 340.858 223.246 340.677 223.365 340.475C223.471 340.3 223.579 340.12 223.69 339.934C223.742 339.865 223.799 339.789 223.851 339.716V43.5787C223.851 33.8959 215.891 26.018 206.106 26.018H189.28L189.213 26.3475C187.681 33.7673 181.89 38.9485 175.129 38.9485H109.711C102.95 38.9485 97.1595 33.7673 95.6272 26.3475L95.5597 26.018H79.397C69.6125 26.018 61.6523 33.8959 61.6523 43.5787V286.128C61.8607 286.623 62.0665 287.121 62.2594 287.643C62.3343 287.844 62.4034 288.06 62.4775 288.265Z" fill="black"/>
<path d="M62.4775 320.475C62.3823 320.659 62.2952 320.845 62.1951 321.029C62.0242 321.336 61.8387 321.634 61.6523 321.932V339.482C61.9298 339.838 62.2041 340.207 62.4775 340.588V320.475Z" fill="black"/>
<path d="M206.894 373.207C206.632 373.22 206.374 373.248 206.107 373.248H205.131C204.886 373.522 204.639 373.798 204.395 374.073H206.101C206.14 374.03 206.18 373.99 206.22 373.947C206.452 373.704 206.671 373.455 206.894 373.207Z" fill="black"/>
<path d="M223.366 340.475C223.247 340.677 223.14 340.858 223.027 341.049V345.861C223.153 345.624 223.221 345.492 223.221 345.492C223.221 345.492 223.451 345 223.852 344.137V339.716C223.8 339.789 223.743 339.865 223.691 339.934C223.58 340.12 223.472 340.3 223.366 340.475Z" fill="black"/>
<path d="M62.4775 320.475V318.074C62.2269 318.66 61.9485 319.234 61.6523 319.798V321.932C61.8387 321.634 62.0242 321.336 62.1951 321.029C62.2952 320.845 62.3823 320.659 62.4775 320.475Z" fill="black"/>
<path d="M61.916 287.767C62.1105 288.325 62.296 288.901 62.4775 289.485V288.265C62.4034 288.06 62.3343 287.845 62.2594 287.643C62.0665 287.121 61.8607 286.623 61.6523 286.128V287.068C61.7394 287.303 61.833 287.526 61.916 287.767Z" fill="black"/>
<path d="M64.8002 364.934C64.5479 364.507 64.316 364.068 64.102 363.621C63.9678 363.955 63.8253 364.289 63.6699 364.614C63.8904 365.03 64.1329 365.435 64.386 365.834C64.491 365.621 64.5968 365.408 64.692 365.192C64.7311 365.107 64.7636 365.02 64.8002 364.934Z" fill="black"/>
<path d="M62.4775 340.588C62.2041 340.207 61.9298 339.838 61.6523 339.482V340.142C61.9315 340.535 62.2073 340.94 62.4775 341.357V340.588Z" fill="black"/>
<path d="M51.9091 273.483C51.8277 273.4 51.7716 273.343 51.7716 273.343C51.7716 273.343 51.8277 273.398 51.9091 273.477V268.114C51.6862 268.092 51.4087 268.059 51.084 268.029V272.815L51.9091 273.483Z" fill="black"/>
<path d="M139.738 626.612C139.938 625.23 140.012 623.863 140.152 622.519C140.277 621.175 140.398 619.852 140.518 618.558C140.644 617.263 140.76 615.997 140.806 614.763C140.938 612.295 141.062 609.963 141.176 607.809C141.361 603.514 141.514 599.934 141.623 597.428C141.769 594.921 141.852 593.488 141.852 593.488C141.852 593.488 141.872 592.772 141.907 591.516C141.959 590.258 141.948 588.466 142.098 586.343C142.336 582.081 143.106 576.399 143.808 570.695C144.153 567.841 144.457 564.979 144.651 562.288C144.857 559.596 144.887 557.073 144.856 554.918C144.795 552.763 144.639 550.967 144.483 549.722C144.308 548.478 144.208 547.768 144.208 547.768C144.208 547.768 144.279 548.482 144.402 549.73C144.509 550.984 144.588 552.771 144.564 554.918C144.506 557.067 144.376 559.569 144.06 562.234C143.76 564.9 143.341 567.734 142.882 570.563C141.951 576.22 140.943 581.887 140.524 586.213C140.282 588.379 140.22 590.18 140.117 591.427C140.031 592.678 139.982 593.394 139.982 593.394C139.982 593.394 139.928 594.828 139.833 597.338C139.775 599.853 139.694 603.443 139.597 607.753C139.527 609.899 139.451 612.226 139.37 614.687C139.35 615.918 139.26 617.177 139.161 618.462C139.069 619.75 138.975 621.064 138.878 622.401C138.766 623.735 138.721 625.104 138.55 626.468C138.544 626.522 138.538 626.577 138.531 626.631H139.736C139.736 626.625 139.737 626.618 139.738 626.612Z" fill="black"/>
<path d="M292.238 617.844C292.425 613.874 292.623 609.909 292.893 605.948C293.028 603.972 293.183 601.989 293.367 600.018C293.571 598.052 293.867 596.089 294.142 594.121C294.684 590.191 295.201 586.195 294.817 582.175L291.132 558.608C289.892 550.757 288.512 542.924 286.956 535.126L285.754 529.283L285.129 526.368C284.911 525.367 284.65 524.424 284.399 523.454C283.37 519.602 282.194 515.802 281.109 511.991C280.566 510.083 280.041 508.175 279.576 506.264C279.135 504.363 278.86 502.413 278.607 500.447C278.098 496.532 277.695 492.48 276.19 488.647C276.199 488.678 276.261 488.686 276.326 488.694C275.298 485.47 274.525 482.189 273.988 478.872C273.444 475.553 273.176 472.204 273.083 468.841C272.905 462.114 273.512 455.376 274.687 448.745C277.057 435.471 281.589 422.637 287.327 410.435C288.769 407.386 290.277 404.364 291.884 401.406L296.738 392.463C299.93 386.469 302.991 380.357 305.386 373.934C305.982 372.33 306.534 370.697 307.027 369.054C307.521 367.461 308.01 365.72 308.305 364.026C308.938 360.606 309.149 357.148 309.147 353.716C309.144 348.653 308.683 343.639 308.179 338.663C308.211 339.861 308.226 341.06 308.224 342.259L306.376 342.316C306.719 346.129 307.014 349.926 307.044 353.724C307.068 357.065 306.882 360.405 306.302 363.66C306.022 365.309 305.604 366.841 305.107 368.488C304.637 370.093 304.113 371.678 303.54 373.255C301.24 379.557 298.257 385.622 295.121 391.607L290.336 400.57C288.729 403.577 287.229 406.633 285.794 409.719C280.091 422.067 275.6 435.052 273.29 448.502C272.147 455.22 271.58 462.053 271.804 468.878C271.922 472.285 272.218 475.703 272.796 479.069C273.364 482.437 274.169 485.753 275.056 489.033L275.014 489.118C276.461 492.715 276.897 496.67 277.431 500.604C277.699 502.576 277.99 504.563 278.459 506.526C278.946 508.472 279.486 510.389 280.044 512.299C281.162 516.118 282.36 519.903 283.407 523.722C283.66 524.673 283.932 525.643 284.145 526.586L284.788 529.492L286.026 535.314C287.63 543.089 289.06 550.9 290.351 558.735L294.187 582.241C294.589 586.156 294.11 590.12 293.592 594.046C293.331 596.012 293.049 597.982 292.856 599.967C292.683 601.953 292.54 603.931 292.417 605.917C292.174 609.887 292.003 613.856 291.842 617.826C291.699 620.756 291.657 623.695 291.687 626.631H292.025C292.015 623.7 292.075 620.772 292.238 617.844Z" fill="black"/>
<path d="M192.137 617.213C192.267 615.523 192.291 613.119 192.524 610.231C192.867 604.448 193.324 596.734 193.783 589.023C193.949 581.306 194.115 573.589 194.239 567.802C194.256 564.868 194.194 562.485 194.185 560.788C194.167 559.101 194.156 558.134 194.156 558.134C194.156 558.134 194.047 556.208 193.882 553.317C193.8 551.869 193.705 550.184 193.603 548.376C193.477 546.558 193.425 544.68 193.462 542.743C193.514 538.892 193.586 534.997 193.193 532.108C193.126 531.383 192.953 530.728 192.859 530.147C192.774 529.561 192.613 529.074 192.479 528.673C192.224 527.87 192.078 527.408 192.078 527.408C192.078 527.408 192.196 527.876 192.402 528.696C192.511 529.103 192.642 529.602 192.691 530.186C192.748 530.771 192.879 531.413 192.901 532.135C193.116 535.017 192.813 538.851 192.525 542.706C192.372 544.623 192.307 546.605 192.323 548.401C192.316 550.212 192.309 551.9 192.304 553.348C192.293 556.243 192.284 558.173 192.284 558.173C192.284 558.173 192.325 559.137 192.394 560.823C192.454 562.501 192.59 564.94 192.659 567.794C192.711 573.583 192.779 581.301 192.847 589.017C192.624 596.727 192.4 604.435 192.231 610.214C192.087 613.105 192.135 615.525 192.057 617.207C192.025 618.049 191.912 618.707 191.877 619.156C191.83 619.605 191.803 619.846 191.803 619.846C191.803 619.846 191.836 619.608 191.899 619.159C191.948 618.71 192.08 618.055 192.137 617.213Z" fill="black"/>
<path d="M211.203 298.921C211.203 299.576 211.833 300.112 212.602 300.112C213.371 300.112 214 299.576 214 298.921C214 298.367 213.553 297.902 212.951 297.771C212.84 297.741 212.72 297.729 212.602 297.729C212.483 297.729 212.364 297.741 212.252 297.771C211.65 297.902 211.203 298.367 211.203 298.921Z" stroke="#1D1D1B" stroke-opacity="0.15" stroke-miterlimit="10"/>
<path d="M206.307 298.921C206.307 299.576 206.936 300.112 207.705 300.112C208.474 300.112 209.104 299.576 209.104 298.921C209.104 298.367 208.656 297.902 208.055 297.771C207.943 297.741 207.824 297.729 207.705 297.729C207.586 297.729 207.467 297.741 207.356 297.771C206.754 297.902 206.307 298.367 206.307 298.921Z" stroke="#1D1D1B" stroke-opacity="0.15" stroke-miterlimit="10"/>
<path d="M209.805 312.624H210.504V297.133H209.805V312.624Z" stroke="#1D1D1B" stroke-opacity="0.15" stroke-miterlimit="10"/>
<path d="M207.938 296.538C207.617 296.538 207.355 296.76 207.355 297.034V297.771C207.467 297.742 207.586 297.729 207.705 297.729C207.824 297.729 207.943 297.741 208.055 297.771V297.134H212.251V297.771C212.363 297.742 212.482 297.729 212.6 297.729C212.719 297.729 212.838 297.741 212.95 297.771V297.034C212.95 296.76 212.689 296.538 212.367 296.538H207.938Z" stroke="#1D1D1B" stroke-opacity="0.15" stroke-miterlimit="10"/>
<path d="M212.95 299.393C212.95 299.393 212 299.734 211.863 298.636" stroke="#1D1D1B" stroke-opacity="0.15" stroke-miterlimit="10"/>
<path d="M208.233 299.393C208.233 299.393 207.284 299.734 207.146 298.636" stroke="#1D1D1B" stroke-opacity="0.15" stroke-miterlimit="10"/>
<path d="M73.5957 298.921C73.5957 299.576 74.2252 300.112 74.9943 300.112C75.7637 300.112 76.3928 299.576 76.3928 298.921C76.3928 298.367 75.9452 297.902 75.3439 297.771C75.2322 297.741 75.113 297.729 74.9943 297.729C74.8755 297.729 74.7563 297.741 74.6446 297.771C74.0434 297.902 73.5957 298.367 73.5957 298.921Z" stroke="#1D1D1B" stroke-opacity="0.15" stroke-miterlimit="10"/>
<path d="M68.6992 298.921C68.6992 299.576 69.3288 300.112 70.0978 300.112C70.8673 300.112 71.4963 299.576 71.4963 298.921C71.4963 298.367 71.0487 297.902 70.4474 297.771C70.3357 297.741 70.2165 297.729 70.0978 297.729C69.979 297.729 69.8598 297.741 69.7481 297.771C69.1469 297.902 68.6992 298.367 68.6992 298.921Z" stroke="#1D1D1B" stroke-opacity="0.15" stroke-miterlimit="10"/>
<path d="M72.1972 312.624H72.8965V297.133H72.1972V312.624Z" stroke="#1D1D1B" stroke-opacity="0.15" stroke-miterlimit="10"/>
<path d="M70.3309 296.538C70.0091 296.538 69.748 296.76 69.748 297.034V297.771C69.8597 297.742 69.9789 297.729 70.0977 297.729C70.2164 297.729 70.3356 297.741 70.4473 297.771V297.134H74.6434V297.771C74.7551 297.742 74.8743 297.729 74.9931 297.729C75.1118 297.729 75.231 297.741 75.3427 297.771V297.034C75.3427 296.76 75.0817 296.538 74.7598 296.538H70.3309Z" stroke="#1D1D1B" stroke-opacity="0.15" stroke-miterlimit="10"/>
<path d="M75.3425 299.393C75.3425 299.393 74.393 299.734 74.2559 298.636" stroke="#1D1D1B" stroke-opacity="0.15" stroke-miterlimit="10"/>
<path d="M70.6257 299.393C70.6257 299.393 69.6762 299.734 69.5391 298.636" stroke="#1D1D1B" stroke-opacity="0.15" stroke-miterlimit="10"/>
<path d="M198.285 308.817H206.66V308.056H198.285V308.817Z" stroke="#1D1D1B" stroke-opacity="0.15" stroke-miterlimit="10"/>
<path d="M198.285 311.101H206.66V310.339H198.285V311.101Z" stroke="#1D1D1B" stroke-opacity="0.15" stroke-miterlimit="10"/>
<path d="M205.137 312.624H205.898V311.101H205.137V312.624Z" stroke="#1D1D1B" stroke-opacity="0.15" stroke-miterlimit="10"/>
<path d="M199.047 312.624H199.809V311.101H199.047V312.624Z" stroke="#1D1D1B" stroke-opacity="0.15" stroke-miterlimit="10"/>
<path d="M204.375 310.34H205.137V308.817H204.375V310.34Z" stroke="#1D1D1B" stroke-opacity="0.15" stroke-miterlimit="10"/>
<path d="M199.809 310.34H200.57V308.817H199.809V310.34Z" stroke="#1D1D1B" stroke-opacity="0.15" stroke-miterlimit="10"/>
<path d="M75.2483 308.818H83.623V308.056H75.2483V308.818Z" stroke="#1D1D1B" stroke-opacity="0.15" stroke-miterlimit="10"/>
<path d="M75.2483 311.101H83.623V310.34H75.2483V311.101Z" stroke="#1D1D1B" stroke-opacity="0.15" stroke-miterlimit="10"/>
<path d="M82.0999 312.624H82.8613V311.102H82.0999V312.624Z" stroke="#1D1D1B" stroke-opacity="0.15" stroke-miterlimit="10"/>
<path d="M76.01 312.624H76.7715V311.102H76.01V312.624Z" stroke="#1D1D1B" stroke-opacity="0.15" stroke-miterlimit="10"/>
<path d="M81.3381 310.34H82.0996V308.818H81.3381V310.34Z" stroke="#1D1D1B" stroke-opacity="0.15" stroke-miterlimit="10"/>
<path d="M76.7717 310.34H77.5332V308.818H76.7717V310.34Z" stroke="#1D1D1B" stroke-opacity="0.15" stroke-miterlimit="10"/>
<path d="M188.809 290.267C188.809 289.538 189.184 288.897 189.754 288.498C189.637 288.234 189.57 287.943 189.57 287.637C189.57 286.426 190.593 285.445 191.854 285.445C192.147 285.445 192.424 285.503 192.681 285.599C192.864 284.501 193.443 283.692 194.138 283.692C194.818 283.692 195.388 284.468 195.583 285.531C195.73 285.48 195.882 285.445 196.041 285.445C197.092 285.445 197.944 286.623 197.944 288.076C197.944 288.471 197.877 288.842 197.763 289.179C198.344 289.807 198.705 290.65 198.705 291.583C198.705 292.314 198.486 292.992 198.112 293.554C198.476 294.272 198.705 295.281 198.705 296.405C198.705 298.584 197.853 300.35 196.802 300.35C196.546 300.35 196.303 300.242 196.081 300.053C195.627 301.27 194.762 302.104 193.757 302.104C192.814 302.104 191.99 301.375 191.517 300.281C190.838 300.015 190.331 298.972 190.331 297.72C190.331 297.354 190.374 297.006 190.452 296.69C189.914 295.968 189.569 294.935 189.569 293.775C189.569 293.171 189.668 292.606 189.832 292.094C189.216 291.701 188.809 291.03 188.809 290.267Z" stroke="#1D1D1B" stroke-opacity="0.15" stroke-miterlimit="10"/>
<path d="M193.758 291.712V312.624" stroke="#1D1D1B" stroke-opacity="0.15" stroke-miterlimit="10"/>
<path d="M193.757 298.596L191.473 295.089" stroke="#1D1D1B" stroke-opacity="0.15" stroke-miterlimit="10"/>
<path d="M193.758 295.089L195.986 291.712" stroke="#1D1D1B" stroke-opacity="0.15" stroke-miterlimit="10"/>
<path d="M192.318 286.272C192.318 286.272 190.433 286.194 190.496 288.016" stroke="#1D1D1B" stroke-opacity="0.15" stroke-miterlimit="10"/>
<path d="M198.068 296.635C198.068 296.635 197.908 299.239 196.715 299.471" stroke="#1D1D1B" stroke-opacity="0.15" stroke-miterlimit="10"/>
<path d="M80.6914 297.306C80.6914 296.207 81.4472 295.291 82.4655 295.03C82.4641 295.003 82.4589 294.977 82.4589 294.949C82.4589 293.648 84.1732 292.593 86.2884 292.593C87.3142 292.593 88.2435 292.843 88.931 293.246C89.1232 293.209 89.3211 293.182 89.5289 293.182C90.8304 293.182 91.8854 293.973 91.8854 294.949C91.8854 294.997 91.8718 295.042 91.8666 295.088C92.9037 295.408 93.6525 296.275 93.6525 297.306C93.6525 298.127 93.1789 298.848 92.4622 299.271C92.465 299.304 92.474 299.335 92.474 299.368C92.474 300.181 91.6828 300.841 90.7065 300.841C90.2678 300.841 89.8715 300.703 89.5624 300.483C89.1859 301.062 88.6525 301.43 88.0555 301.43C87.5531 301.43 87.0994 301.164 86.7417 300.738C86.475 301.165 86.1065 301.43 85.6989 301.43C85.3229 301.43 84.9832 301.198 84.7231 300.827C84.6557 300.831 84.5902 300.841 84.5209 300.841C83.8419 300.841 83.2449 300.604 82.8693 300.242C82.8302 300.244 82.7935 300.252 82.7539 300.252C81.615 300.252 80.6919 299.461 80.6919 298.485C80.6919 298.3 80.7338 298.126 80.7951 297.959C80.7343 297.75 80.6914 297.534 80.6914 297.306Z" stroke="#1D1D1B" stroke-opacity="0.15" stroke-miterlimit="10"/>
<path d="M86.7793 296.127V299.073V312.624" stroke="#1D1D1B" stroke-opacity="0.15" stroke-miterlimit="10"/>
<path d="M86.7793 299.073L88.3503 297.011" stroke="#1D1D1B" stroke-opacity="0.15" stroke-miterlimit="10"/>
<path d="M86.7804 300.252L84.8164 298.042" stroke="#1D1D1B" stroke-opacity="0.15" stroke-miterlimit="10"/>
<path d="M86.7792 293.583C86.7792 293.583 84.6927 292.756 83.623 294.458" stroke="#1D1D1B" stroke-opacity="0.15" stroke-miterlimit="10"/>
<path d="M91.7903 299.575C91.7903 299.575 91.1914 300.543 89.7891 300.077" stroke="#1D1D1B" stroke-opacity="0.15" stroke-miterlimit="10"/>
<path d="M96.3831 312.625H185.096V269.073H96.3831V312.625Z" stroke="#1D1D1B" stroke-opacity="0.15" stroke-miterlimit="10"/>
<path d="M140.739 311.818H145.578V300.526H140.739V311.818Z" stroke="#1D1D1B" stroke-opacity="0.15" stroke-miterlimit="10"/>
<path d="M135.899 311.818H140.738V300.526H135.899V311.818Z" stroke="#1D1D1B" stroke-opacity="0.15" stroke-miterlimit="10"/>
<path d="M127.835 312.625H153.643V311.818H127.835V312.625Z" stroke="#1D1D1B" stroke-opacity="0.15" stroke-miterlimit="10"/>
<path d="M127.835 302.946H131.867V300.526H127.835V302.946Z" stroke="#1D1D1B" stroke-opacity="0.15" stroke-miterlimit="10"/>
<path d="M127.835 306.575H131.867V304.155H127.835V306.575Z" stroke="#1D1D1B" stroke-opacity="0.15" stroke-miterlimit="10"/>
<path d="M127.835 310.205H131.867V307.785H127.835V310.205Z" stroke="#1D1D1B" stroke-opacity="0.15" stroke-miterlimit="10"/>
<path d="M149.61 302.946H153.643V300.526H149.61V302.946Z" stroke="#1D1D1B" stroke-opacity="0.15" stroke-miterlimit="10"/>
<path d="M149.61 306.575H153.643V304.155H149.61V306.575Z" stroke="#1D1D1B" stroke-opacity="0.15" stroke-miterlimit="10"/>
<path d="M149.61 310.205H153.643V307.785H149.61V310.205Z" stroke="#1D1D1B" stroke-opacity="0.15" stroke-miterlimit="10"/>
<path d="M123.803 312.624H126.223V311.818H123.803V312.624Z" stroke="#1D1D1B" stroke-opacity="0.15" stroke-miterlimit="10"/>
<path d="M124.205 311.817H125.818V311.011H124.205V311.817Z" stroke="#1D1D1B" stroke-opacity="0.15" stroke-miterlimit="10"/>
<path d="M126.222 298.107H123.803V298.914H126.222V298.107Z" stroke="#1D1D1B" stroke-opacity="0.15" stroke-miterlimit="10"/>
<path d="M125.82 298.914H124.207V299.72H125.82V298.914Z" stroke="#1D1D1B" stroke-opacity="0.15" stroke-miterlimit="10"/>
<path d="M124.609 311.011H125.416V299.72H124.609V311.011Z" stroke="#1D1D1B" stroke-opacity="0.15" stroke-miterlimit="10"/>
<path d="M155.256 312.624H157.676V311.818H155.256V312.624Z" stroke="#1D1D1B" stroke-opacity="0.15" stroke-miterlimit="10"/>
<path d="M155.659 311.817H157.271V311.011H155.659V311.817Z" stroke="#1D1D1B" stroke-opacity="0.15" stroke-miterlimit="10"/>
<path d="M157.676 298.107H155.256V298.914H157.676V298.107Z" stroke="#1D1D1B" stroke-opacity="0.15" stroke-miterlimit="10"/>
<path d="M157.273 298.914H155.66V299.72H157.273V298.914Z" stroke="#1D1D1B" stroke-opacity="0.15" stroke-miterlimit="10"/>
<path d="M156.062 311.011H156.869V299.72H156.062V311.011Z" stroke="#1D1D1B" stroke-opacity="0.15" stroke-miterlimit="10"/>
<path d="M122.191 298.107H159.289V296.494H122.191V298.107Z" stroke="#1D1D1B" stroke-opacity="0.15" stroke-miterlimit="10"/>
<path d="M182.674 277.944V272.298H178.641V277.944H182.674Z" stroke="#1D1D1B" stroke-opacity="0.15" stroke-miterlimit="10"/>
<path d="M179.046 277.541H182.271V272.702H179.046V277.541Z" stroke="#1D1D1B" stroke-opacity="0.15" stroke-miterlimit="10"/>
<path d="M182.271 274.315H179.045" stroke="#1D1D1B" stroke-opacity="0.15" stroke-miterlimit="10"/>
<path d="M175.416 277.944V272.299H171.383V277.944H175.416Z" stroke="#1D1D1B" stroke-opacity="0.15" stroke-miterlimit="10"/>
<path d="M171.788 277.541H175.014V272.702H171.788V277.541Z" stroke="#1D1D1B" stroke-opacity="0.15" stroke-miterlimit="10"/>
<path d="M175.013 274.315H171.787" stroke="#1D1D1B" stroke-opacity="0.15" stroke-miterlimit="10"/>
<path d="M168.16 277.944V272.298H164.128V277.944H168.16Z" stroke="#1D1D1B" stroke-opacity="0.15" stroke-miterlimit="10"/>
<path d="M164.53 277.541H167.756V272.702H164.53V277.541Z" stroke="#1D1D1B" stroke-opacity="0.15" stroke-miterlimit="10"/>
<path d="M167.755 274.315H164.529" stroke="#1D1D1B" stroke-opacity="0.15" stroke-miterlimit="10"/>
<path d="M160.898 277.944V272.298H156.866V277.944H160.898Z" stroke="#1D1D1B" stroke-opacity="0.15" stroke-miterlimit="10"/>
<path d="M157.27 277.541H160.496V272.702H157.27V277.541Z" stroke="#1D1D1B" stroke-opacity="0.15" stroke-miterlimit="10"/>
<path d="M160.495 274.315H157.27" stroke="#1D1D1B" stroke-opacity="0.15" stroke-miterlimit="10"/>
<path d="M153.641 277.944V272.298H149.608V277.944H153.641Z" stroke="#1D1D1B" stroke-opacity="0.15" stroke-miterlimit="10"/>
<path d="M150.012 277.541H153.238V272.702H150.012V277.541Z" stroke="#1D1D1B" stroke-opacity="0.15" stroke-miterlimit="10"/>
<path d="M153.238 274.315H150.012" stroke="#1D1D1B" stroke-opacity="0.15" stroke-miterlimit="10"/>
<path d="M146.383 277.944V272.298H142.35V277.944H146.383Z" stroke="#1D1D1B" stroke-opacity="0.15" stroke-miterlimit="10"/>
<path d="M142.755 277.541H145.98V272.701H142.755V277.541Z" stroke="#1D1D1B" stroke-opacity="0.15" stroke-miterlimit="10"/>
<path d="M145.98 274.315H142.754" stroke="#1D1D1B" stroke-opacity="0.15" stroke-miterlimit="10"/>
<path d="M139.125 277.944V272.299H135.092V277.944H139.125Z" stroke="#1D1D1B" stroke-opacity="0.15" stroke-miterlimit="10"/>
<path d="M135.497 277.541H138.723V272.702H135.497V277.541Z" stroke="#1D1D1B" stroke-opacity="0.15" stroke-miterlimit="10"/>
<path d="M138.722 274.315H135.496" stroke="#1D1D1B" stroke-opacity="0.15" stroke-miterlimit="10"/>
<path d="M131.867 277.944V272.298H127.835V277.944H131.867Z" stroke="#1D1D1B" stroke-opacity="0.15" stroke-miterlimit="10"/>
<path d="M128.239 277.541H131.465V272.702H128.239V277.541Z" stroke="#1D1D1B" stroke-opacity="0.15" stroke-miterlimit="10"/>
<path d="M131.464 274.315H128.238" stroke="#1D1D1B" stroke-opacity="0.15" stroke-miterlimit="10"/>
<path d="M124.607 277.944V272.299H120.575V277.944H124.607Z" stroke="#1D1D1B" stroke-opacity="0.15" stroke-miterlimit="10"/>
<path d="M120.979 277.541H124.205V272.702H120.979V277.541Z" stroke="#1D1D1B" stroke-opacity="0.15" stroke-miterlimit="10"/>
<path d="M124.204 274.315H120.979" stroke="#1D1D1B" stroke-opacity="0.15" stroke-miterlimit="10"/>
<path d="M117.352 277.944V272.298H113.319V277.944H117.352Z" stroke="#1D1D1B" stroke-opacity="0.15" stroke-miterlimit="10"/>
<path d="M113.721 277.541H116.947V272.702H113.721V277.541Z" stroke="#1D1D1B" stroke-opacity="0.15" stroke-miterlimit="10"/>
<path d="M116.947 274.315H113.721" stroke="#1D1D1B" stroke-opacity="0.15" stroke-miterlimit="10"/>
<path d="M110.094 277.944V272.298H106.061V277.944H110.094Z" stroke="#1D1D1B" stroke-opacity="0.15" stroke-miterlimit="10"/>
<path d="M106.464 277.541H109.689V272.702H106.464V277.541Z" stroke="#1D1D1B" stroke-opacity="0.15" stroke-miterlimit="10"/>
<path d="M109.691 274.315H106.465" stroke="#1D1D1B" stroke-opacity="0.15" stroke-miterlimit="10"/>
<path d="M102.834 277.944V272.298H98.8014V277.944H102.834Z" stroke="#1D1D1B" stroke-opacity="0.15" stroke-miterlimit="10"/>
<path d="M99.2038 277.541H102.43V272.701H99.2038V277.541Z" stroke="#1D1D1B" stroke-opacity="0.15" stroke-miterlimit="10"/>
<path d="M102.429 274.314H99.2031" stroke="#1D1D1B" stroke-opacity="0.15" stroke-miterlimit="10"/>
<path d="M182.676 290.445V284.799H178.643V290.445H182.676Z" stroke="#1D1D1B" stroke-opacity="0.15" stroke-miterlimit="10"/>
<path d="M179.046 290.042H182.271V285.203H179.046V290.042Z" stroke="#1D1D1B" stroke-opacity="0.15" stroke-miterlimit="10"/>
<path d="M182.271 286.815H179.045" stroke="#1D1D1B" stroke-opacity="0.15" stroke-miterlimit="10"/>
<path d="M175.416 290.445V284.8H171.383V290.445H175.416Z" stroke="#1D1D1B" stroke-opacity="0.15" stroke-miterlimit="10"/>
<path d="M171.788 290.042H175.014V285.203H171.788V290.042Z" stroke="#1D1D1B" stroke-opacity="0.15" stroke-miterlimit="10"/>
<path d="M175.013 286.815H171.787" stroke="#1D1D1B" stroke-opacity="0.15" stroke-miterlimit="10"/>
<path d="M168.16 290.445V284.8H164.128V290.445H168.16Z" stroke="#1D1D1B" stroke-opacity="0.15" stroke-miterlimit="10"/>
<path d="M164.53 290.042H167.756V285.203H164.53V290.042Z" stroke="#1D1D1B" stroke-opacity="0.15" stroke-miterlimit="10"/>
<path d="M167.755 286.816H164.529" stroke="#1D1D1B" stroke-opacity="0.15" stroke-miterlimit="10"/>
<path d="M160.9 290.445V284.799H156.868V290.445H160.9Z" stroke="#1D1D1B" stroke-opacity="0.15" stroke-miterlimit="10"/>
<path d="M157.272 290.042H160.498V285.203H157.272V290.042Z" stroke="#1D1D1B" stroke-opacity="0.15" stroke-miterlimit="10"/>
<path d="M160.497 286.815H157.271" stroke="#1D1D1B" stroke-opacity="0.15" stroke-miterlimit="10"/>
<path d="M153.643 290.445V284.8H149.61V290.445H153.643Z" stroke="#1D1D1B" stroke-opacity="0.15" stroke-miterlimit="10"/>
<path d="M150.012 290.042H153.238V285.203H150.012V290.042Z" stroke="#1D1D1B" stroke-opacity="0.15" stroke-miterlimit="10"/>
<path d="M153.238 286.815H150.012" stroke="#1D1D1B" stroke-opacity="0.15" stroke-miterlimit="10"/>
<path d="M146.383 290.445V284.799H142.35V290.445H146.383Z" stroke="#1D1D1B" stroke-opacity="0.15" stroke-miterlimit="10"/>
<path d="M142.755 290.042H145.98V285.203H142.755V290.042Z" stroke="#1D1D1B" stroke-opacity="0.15" stroke-miterlimit="10"/>
<path d="M145.98 286.815H142.754" stroke="#1D1D1B" stroke-opacity="0.15" stroke-miterlimit="10"/>
<path d="M139.127 290.445V284.8H135.094V290.445H139.127Z" stroke="#1D1D1B" stroke-opacity="0.15" stroke-miterlimit="10"/>
<path d="M135.497 290.042H138.723V285.203H135.497V290.042Z" stroke="#1D1D1B" stroke-opacity="0.15" stroke-miterlimit="10"/>
<path d="M138.722 286.815H135.496" stroke="#1D1D1B" stroke-opacity="0.15" stroke-miterlimit="10"/>
<path d="M131.867 290.445V284.799H127.835V290.445H131.867Z" stroke="#1D1D1B" stroke-opacity="0.15" stroke-miterlimit="10"/>
<path d="M128.239 290.042H131.465V285.203H128.239V290.042Z" stroke="#1D1D1B" stroke-opacity="0.15" stroke-miterlimit="10"/>
<path d="M131.464 286.815H128.238" stroke="#1D1D1B" stroke-opacity="0.15" stroke-miterlimit="10"/>
<path d="M124.607 290.445V284.799H120.575V290.445H124.607Z" stroke="#1D1D1B" stroke-opacity="0.15" stroke-miterlimit="10"/>
<path d="M120.979 290.042H124.205V285.203H120.979V290.042Z" stroke="#1D1D1B" stroke-opacity="0.15" stroke-miterlimit="10"/>
<path d="M124.204 286.815H120.979" stroke="#1D1D1B" stroke-opacity="0.15" stroke-miterlimit="10"/>
<path d="M117.35 290.445V284.8H113.317V290.445H117.35Z" stroke="#1D1D1B" stroke-opacity="0.15" stroke-miterlimit="10"/>
<path d="M113.721 290.042H116.947V285.203H113.721V290.042Z" stroke="#1D1D1B" stroke-opacity="0.15" stroke-miterlimit="10"/>
<path d="M116.947 286.816H113.721" stroke="#1D1D1B" stroke-opacity="0.15" stroke-miterlimit="10"/>
<path d="M110.092 290.445V284.799H106.059V290.445H110.092Z" stroke="#1D1D1B" stroke-opacity="0.15" stroke-miterlimit="10"/>
<path d="M106.464 290.042H109.689V285.203H106.464V290.042Z" stroke="#1D1D1B" stroke-opacity="0.15" stroke-miterlimit="10"/>
<path d="M109.689 286.816H106.463" stroke="#1D1D1B" stroke-opacity="0.15" stroke-miterlimit="10"/>
<path d="M102.834 290.445V284.8H98.8014V290.445H102.834Z" stroke="#1D1D1B" stroke-opacity="0.15" stroke-miterlimit="10"/>
<path d="M99.2057 290.042H102.432V285.203H99.2057V290.042Z" stroke="#1D1D1B" stroke-opacity="0.15" stroke-miterlimit="10"/>
<path d="M102.431 286.815H99.2051" stroke="#1D1D1B" stroke-opacity="0.15" stroke-miterlimit="10"/>
<path d="M182.07 309.802V296.091H174.812V309.802H182.07Z" stroke="#1D1D1B" stroke-opacity="0.15" stroke-miterlimit="10"/>
<path d="M175.214 309.398H181.666V296.494H175.214V309.398Z" stroke="#1D1D1B" stroke-opacity="0.15" stroke-miterlimit="10"/>
<path d="M171.588 309.802V296.091H164.329V309.802H171.588Z" stroke="#1D1D1B" stroke-opacity="0.15" stroke-miterlimit="10"/>
<path d="M164.732 309.398H171.184V296.494H164.732V309.398Z" stroke="#1D1D1B" stroke-opacity="0.15" stroke-miterlimit="10"/>
<path d="M117.148 309.802V296.091H109.89V309.802H117.148Z" stroke="#1D1D1B" stroke-opacity="0.15" stroke-miterlimit="10"/>
<path d="M110.292 309.399H116.744V296.494H110.292V309.399Z" stroke="#1D1D1B" stroke-opacity="0.15" stroke-miterlimit="10"/>
<path d="M106.666 309.802V296.091H99.4075V309.802H106.666Z" stroke="#1D1D1B" stroke-opacity="0.15" stroke-miterlimit="10"/>
<path d="M99.8099 309.399H106.262V296.494H99.8099V309.399Z" stroke="#1D1D1B" stroke-opacity="0.15" stroke-miterlimit="10"/>
<path d="M95.1739 269.073H186.709V267.459H95.1739V269.073Z" stroke="#1D1D1B" stroke-opacity="0.15" stroke-miterlimit="10"/>
<path d="M95.1735 267.459H186.709L188.322 265.846H93.5605L95.1735 267.459Z" stroke="#1D1D1B" stroke-opacity="0.15" stroke-miterlimit="10"/>
<path d="M139.528 308.188H139.932V304.155H139.528V308.188Z" stroke="#1D1D1B" stroke-opacity="0.15" stroke-miterlimit="10"/>
<path d="M141.546 308.188H141.949V304.155H141.546V308.188Z" stroke="#1D1D1B" stroke-opacity="0.15" stroke-miterlimit="10"/>
<path d="M132.674 265.846H149.207V259.394H132.674V265.846Z" stroke="#1D1D1B" stroke-opacity="0.15" stroke-miterlimit="10"/>
<path d="M132.674 259.394H149.207V257.781H132.674V259.394Z" stroke="#1D1D1B" stroke-opacity="0.15" stroke-miterlimit="10"/>
<path d="M132.675 257.781H149.208L150.821 256.168H131.062L132.675 257.781Z" stroke="#1D1D1B" stroke-opacity="0.15" stroke-miterlimit="10"/>
<path d="M138.924 251.732H140.335V250.321H141.545V251.732H142.956V252.942H141.545V254.353H140.335V252.942H138.924V251.732Z" stroke="#1D1D1B" stroke-opacity="0.15" stroke-miterlimit="10"/>
<path d="M143.364 253.338C143.918 252.001 143.282 250.467 141.945 249.913C140.608 249.359 139.075 249.994 138.521 251.332C137.967 252.669 138.602 254.203 139.939 254.756C141.276 255.31 142.81 254.675 143.364 253.338Z" stroke="#1D1D1B" stroke-opacity="0.15" stroke-miterlimit="10"/>
<path d="M140.336 254.886V256.168H141.546V254.886" stroke="#1D1D1B" stroke-opacity="0.15" stroke-miterlimit="10"/>
<path d="M179.896 301.736L177.334 299.174" stroke="#1D1D1B" stroke-opacity="0.15" stroke-miterlimit="10"/>
<path d="M180.661 304.156L178.947 302.442" stroke="#1D1D1B" stroke-opacity="0.15" stroke-miterlimit="10"/>
<path d="M169.593 308.056L167.158 305.621" stroke="#1D1D1B" stroke-opacity="0.15" stroke-miterlimit="10"/>
<path d="M168.756 304.879L167.168 303.291" stroke="#1D1D1B" stroke-opacity="0.15" stroke-miterlimit="10"/>
<path d="M114.934 308.188L112.857 306.111" stroke="#1D1D1B" stroke-opacity="0.15" stroke-miterlimit="10"/>
<path d="M114.933 305.621L112.406 303.094" stroke="#1D1D1B" stroke-opacity="0.15" stroke-miterlimit="10"/>
<path d="M105.089 300.527L102.861 298.299" stroke="#1D1D1B" stroke-opacity="0.15" stroke-miterlimit="10"/>
<path d="M103.503 301.154L102.25 299.901" stroke="#1D1D1B" stroke-opacity="0.15" stroke-miterlimit="10"/>
<path d="M181.07 276.106L179.771 274.807" stroke="#1D1D1B" stroke-opacity="0.15" stroke-miterlimit="10"/>
<path d="M166.568 276.755L165.27 275.457" stroke="#1D1D1B" stroke-opacity="0.15" stroke-miterlimit="10"/>
<path d="M159.535 276.755L158.236 275.457" stroke="#1D1D1B" stroke-opacity="0.15" stroke-miterlimit="10"/>
<path d="M101.469 276.755L100.17 275.457" stroke="#1D1D1B" stroke-opacity="0.15" stroke-miterlimit="10"/>
<path d="M116.023 277.033L114.725 275.734" stroke="#1D1D1B" stroke-opacity="0.15" stroke-miterlimit="10"/>
<path d="M130.501 276.755L129.203 275.457" stroke="#1D1D1B" stroke-opacity="0.15" stroke-miterlimit="10"/>
<path d="M174.177 275.456L173.621 274.901" stroke="#1D1D1B" stroke-opacity="0.15" stroke-miterlimit="10"/>
<path d="M151.554 275.735L150.998 275.179" stroke="#1D1D1B" stroke-opacity="0.15" stroke-miterlimit="10"/>
<path d="M144.645 276.662L144.09 276.106" stroke="#1D1D1B" stroke-opacity="0.15" stroke-miterlimit="10"/>
<path d="M137.819 275.456L137.264 274.901" stroke="#1D1D1B" stroke-opacity="0.15" stroke-miterlimit="10"/>
<path d="M123.087 276.662L122.531 276.106" stroke="#1D1D1B" stroke-opacity="0.15" stroke-miterlimit="10"/>
<path d="M108.354 276.012L107.799 275.457" stroke="#1D1D1B" stroke-opacity="0.15" stroke-miterlimit="10"/>
<path d="M181.718 289.476L180.42 288.178" stroke="#1D1D1B" stroke-opacity="0.15" stroke-miterlimit="10"/>
<path d="M166.285 289.57L164.986 288.271" stroke="#1D1D1B" stroke-opacity="0.15" stroke-miterlimit="10"/>
<path d="M159.251 289.57L157.953 288.271" stroke="#1D1D1B" stroke-opacity="0.15" stroke-miterlimit="10"/>
<path d="M101.833 288.943L100.535 287.645" stroke="#1D1D1B" stroke-opacity="0.15" stroke-miterlimit="10"/>
<path d="M115.74 289.848L114.441 288.549" stroke="#1D1D1B" stroke-opacity="0.15" stroke-miterlimit="10"/>
<path d="M130.217 289.57L128.918 288.271" stroke="#1D1D1B" stroke-opacity="0.15" stroke-miterlimit="10"/>
<path d="M173.171 288.827L172.615 288.271" stroke="#1D1D1B" stroke-opacity="0.15" stroke-miterlimit="10"/>
<path d="M151.27 288.549L150.715 287.993" stroke="#1D1D1B" stroke-opacity="0.15" stroke-miterlimit="10"/>
<path d="M143.964 288.294L143.408 287.739" stroke="#1D1D1B" stroke-opacity="0.15" stroke-miterlimit="10"/>
<path d="M136.98 289.105L136.424 288.549" stroke="#1D1D1B" stroke-opacity="0.15" stroke-miterlimit="10"/>
<path d="M122.872 288.827L122.316 288.271" stroke="#1D1D1B" stroke-opacity="0.15" stroke-miterlimit="10"/>
<path d="M108.071 288.827L107.516 288.271" stroke="#1D1D1B" stroke-opacity="0.15" stroke-miterlimit="10"/>
<path d="M102.25 266.653H96.3828" stroke="#1D1D1B" stroke-opacity="0.15" stroke-miterlimit="10"/>
<path d="M183.33 270.158H176.295" stroke="#1D1D1B" stroke-opacity="0.15" stroke-miterlimit="10"/>
<path d="M104.419 280.881H99.8105" stroke="#1D1D1B" stroke-opacity="0.15" stroke-miterlimit="10"/>
<path d="M101.468 291.712H98.3047" stroke="#1D1D1B" stroke-opacity="0.15" stroke-miterlimit="10"/>
<path d="M116.225 311.011H111.258" stroke="#1D1D1B" stroke-opacity="0.15" stroke-miterlimit="10"/>
<path d="M182.676 310.72H177.971" stroke="#1D1D1B" stroke-opacity="0.15" stroke-miterlimit="10"/>
<path d="M178.441 291.269H172.893" stroke="#1D1D1B" stroke-opacity="0.15" stroke-miterlimit="10"/>
<path d="M157.674 279.373H154.262" stroke="#1D1D1B" stroke-opacity="0.15" stroke-miterlimit="10"/>
<path d="M131.733 283.692H127.836" stroke="#1D1D1B" stroke-opacity="0.15" stroke-miterlimit="10"/>
<path d="M131.868 270.158H128.238" stroke="#1D1D1B" stroke-opacity="0.15" stroke-miterlimit="10"/>
<path d="M179.047 282.556H175.668" stroke="#1D1D1B" stroke-opacity="0.15" stroke-miterlimit="10"/>
<path d="M136.703 264.963H133.5" stroke="#1D1D1B" stroke-opacity="0.15" stroke-miterlimit="10"/>
<path d="M149.207 256.975H145.578" stroke="#1D1D1B" stroke-opacity="0.15" stroke-miterlimit="10"/>
<path d="M127.835 297.3H124.609" stroke="#1D1D1B" stroke-opacity="0.15" stroke-miterlimit="10"/>
<path d="M183.33 268.266H181.068" stroke="#1D1D1B" stroke-opacity="0.15" stroke-miterlimit="10"/>
<line x1="65" y1="313.5" x2="223" y2="313.5" stroke="black" stroke-opacity="0.24"/>
</g>
<defs>
<clipPath id="clip0_2967_14543">
<rect width="328" height="627" fill="white"/>
</clipPath>
</defs>
</svg>
