<svg width="56" height="56" viewBox="0 0 56 56" fill="none" xmlns="http://www.w3.org/2000/svg">
<path d="M21.9318 48.1633H15.5931C15.383 48.1633 15.1814 48.2468 15.0329 48.3954C14.8843 48.544 14.8008 48.7455 14.8008 48.9557C14.8008 49.1658 14.8843 49.3673 15.0329 49.5159C15.1814 49.6645 15.383 49.748 15.5931 49.748H21.9318C22.142 49.748 22.3435 49.6645 22.4921 49.5159C22.6407 49.3673 22.7242 49.1658 22.7242 48.9557C22.7242 48.7455 22.6407 48.544 22.4921 48.3954C22.3435 48.2468 22.142 48.1633 21.9318 48.1633Z" fill="#686FF2"/>
<path d="M49.2671 18.0544H33.0242V5.77319C33.0234 5.03794 32.7309 4.33304 32.211 3.81314C31.6911 3.29325 30.9863 3.00081 30.251 3H7.27319C6.53794 3.00081 5.83304 3.29325 5.31314 3.81314C4.79325 4.33304 4.50081 5.03794 4.5 5.77319V49.3518C4.50081 50.0871 4.79325 50.792 5.31314 51.3119C5.83304 51.8318 6.53794 52.1242 7.27319 52.125H30.251C30.9863 52.1242 31.6911 51.8318 32.211 51.3119C32.7309 50.792 33.0234 50.0871 33.0242 49.3518V37.8629H49.2671C50.0024 37.8621 50.7073 37.5697 51.2272 37.0498C51.7471 36.5299 52.0395 35.825 52.0403 35.0897V20.8276C52.0395 20.0924 51.7471 19.3875 51.2272 18.8676C50.7073 18.3477 50.0024 18.0552 49.2671 18.0544ZM22.5009 4.58468L22.1048 6.16935H15.4194L15.0232 4.58468H22.5009ZM31.4395 49.3518C31.4393 49.6669 31.314 49.9691 31.0911 50.1919C30.8683 50.4148 30.5661 50.5401 30.251 50.5403H7.27319C6.95805 50.5401 6.6559 50.4148 6.43307 50.1919C6.21024 49.9691 6.08494 49.6669 6.08468 49.3518V5.77319C6.08494 5.45805 6.21024 5.1559 6.43307 4.93307C6.6559 4.71024 6.95805 4.58494 7.27319 4.58468H13.389L14.0318 7.15384C14.0747 7.32525 14.1736 7.47742 14.3128 7.58617C14.4521 7.69492 14.6237 7.75401 14.8004 7.75403H22.7238C22.9005 7.75401 23.0721 7.69492 23.2113 7.58617C23.3506 7.47742 23.4495 7.32525 23.4924 7.15384L24.1351 4.58468H30.251C30.5661 4.58494 30.8683 4.71024 31.0911 4.93307C31.314 5.1559 31.4393 5.45805 31.4395 5.77319V49.3518ZM33.0242 29.9395H35.4012V33.1089H33.0242V29.9395ZM50.4556 35.0897C50.4554 35.4049 50.3301 35.707 50.1072 35.9298C49.8844 36.1527 49.5823 36.278 49.2671 36.2782H33.0242V34.6936H36.1935C36.4037 34.6936 36.6052 34.6101 36.7538 34.4615C36.9024 34.3129 36.9859 34.1114 36.9859 33.9012V29.1472C36.9859 28.937 36.9024 28.7355 36.7538 28.5869C36.6052 28.4383 36.4037 28.3548 36.1935 28.3548H33.0242V25.9778H50.4556V35.0897ZM50.4556 24.3931H33.0242V22.8085H50.4556V24.3931ZM50.4556 21.2238H33.0242V19.6391H49.2671C49.5823 19.6394 49.8844 19.7647 50.1072 19.9875C50.3301 20.2103 50.4554 20.5125 50.4556 20.8276V21.2238Z" fill="#686FF2"/>
<path d="M48.0777 28.3547H40.9466C40.7365 28.3547 40.535 28.4382 40.3864 28.5868C40.2378 28.7354 40.1543 28.9369 40.1543 29.1471C40.1543 29.3572 40.2378 29.5588 40.3864 29.7073C40.535 29.8559 40.7365 29.9394 40.9466 29.9394H48.0777C48.2878 29.9394 48.4894 29.8559 48.638 29.7073C48.7865 29.5588 48.87 29.3572 48.87 29.1471C48.87 28.9369 48.7865 28.7354 48.638 28.5868C48.4894 28.4382 48.2878 28.3547 48.0777 28.3547Z" fill="#686FF2"/>
<path d="M48.0777 30.7319H40.9466C40.7365 30.7319 40.535 30.8154 40.3864 30.964C40.2378 31.1126 40.1543 31.3141 40.1543 31.5243C40.1543 31.7344 40.2378 31.9359 40.3864 32.0845C40.535 32.2331 40.7365 32.3166 40.9466 32.3166H48.0777C48.2878 32.3166 48.4894 32.2331 48.638 32.0845C48.7865 31.9359 48.87 31.7344 48.87 31.5243C48.87 31.3141 48.7865 31.1126 48.638 30.964C48.4894 30.8154 48.2878 30.7319 48.0777 30.7319Z" fill="#686FF2"/>
<path d="M48.0789 33.1089H44.9095C44.6994 33.1089 44.4978 33.1924 44.3493 33.341C44.2007 33.4895 44.1172 33.6911 44.1172 33.9012C44.1172 34.1114 44.2007 34.3129 44.3493 34.4615C44.4978 34.6101 44.6994 34.6936 44.9095 34.6936H48.0789C48.289 34.6936 48.4906 34.6101 48.6391 34.4615C48.7877 34.3129 48.8712 34.1114 48.8712 33.9012C48.8712 33.6911 48.7877 33.4895 48.6391 33.341C48.4906 33.1924 48.289 33.1089 48.0789 33.1089Z" fill="#686FF2"/>
<path d="M18.762 18.0544C16.8815 18.0544 15.0432 18.6121 13.4796 19.6568C11.916 20.7016 10.6973 22.1866 9.97767 23.9239C9.25803 25.6613 9.06973 27.5731 9.43661 29.4174C9.80348 31.2618 10.709 32.956 12.0388 34.2857C13.3685 35.6155 15.0627 36.521 16.907 36.8879C18.7514 37.2547 20.6632 37.0665 22.4006 36.3468C24.1379 35.6272 25.6229 34.4085 26.6676 32.8449C27.7124 31.2813 28.27 29.443 28.27 27.5625C28.2672 25.0417 27.2646 22.6249 25.4821 20.8424C23.6996 19.0599 21.2828 18.0573 18.762 18.0544ZM18.762 35.4859C17.1949 35.4859 15.663 35.0212 14.36 34.1506C13.057 33.2799 12.0414 32.0425 11.4417 30.5947C10.842 29.1468 10.6851 27.5537 10.9908 26.0167C11.2966 24.4797 12.0512 23.0679 13.1593 21.9598C14.2674 20.8517 15.6792 20.0971 17.2162 19.7914C18.7532 19.4856 20.3463 19.6425 21.7941 20.2423C23.2419 20.842 24.4794 21.8575 25.35 23.1605C26.2207 24.4635 26.6854 25.9954 26.6854 27.5625C26.683 29.6632 25.8474 31.6771 24.362 33.1626C22.8766 34.648 20.8627 35.4835 18.762 35.4859Z" fill="#686FF2"/>
<path d="M22.9556 24.6251L17.8951 29.6856L15.2756 27.7209C15.1074 27.5948 14.8961 27.5407 14.6881 27.5704C14.4801 27.6001 14.2924 27.7113 14.1663 27.8794C14.0402 28.0475 13.9861 28.2588 14.0158 28.4668C14.0455 28.6749 14.1566 28.8626 14.3248 28.9887L17.4941 31.3657C17.6467 31.4801 17.8354 31.5357 18.0257 31.5222C18.2159 31.5086 18.3949 31.4269 18.5298 31.2921L24.0762 25.7457C24.2248 25.5971 24.3082 25.3956 24.3082 25.1854C24.3082 24.9753 24.2248 24.7737 24.0762 24.6251C23.9276 24.4765 23.726 24.3931 23.5159 24.3931C23.3057 24.3931 23.1042 24.4765 22.9556 24.6251Z" fill="#686FF2"/>
</svg>
