<svg width="461" height="386" viewBox="0 0 461 386" fill="none" xmlns="http://www.w3.org/2000/svg">
<path d="M460.383 319.66C459.228 318.78 457.803 318.854 456.413 318.782L456.446 245.213C456.45 232.33 456.789 219.343 456.382 206.471C442.985 200.167 429.325 194.386 415.763 188.452L383.578 174.006C374.031 177.529 364.718 181.579 355.241 185.256C340.317 191.047 325.22 196.513 310.207 202.079L310.345 142.909L310.342 126.368C310.34 123.224 310.215 120.015 310.479 116.883C312.828 115.981 315.211 115.137 317.418 113.916C317.081 107.666 317.279 101.313 317.405 95.0566C314.665 93.1992 311.335 91.9228 308.349 90.4731L291.354 82.0951L218.293 45.5911L174.114 23.4588C171.149 21.9934 160.874 16.371 158.34 16C147.632 23.5377 137.4 31.8809 127.017 39.8649C123.788 42.3481 120.633 44.9791 117.301 47.3202C117.295 38.7009 117.684 29.8408 117.091 21.2537C108.284 16.998 103.846 14.7527 94.035 18.2243C74.3425 25.1924 59.2522 46.0096 50.6348 64.2543C49.5043 66.6478 47.9597 69.5313 47.6104 72.1601C47.1488 75.6371 47.5929 81.6682 47.5861 85.4179L47.5389 115.951C40.6464 121.12 33.9739 126.584 27.1252 131.811L15.9483 140.44C13.7496 142.125 11.3944 143.74 9.31411 145.562C9.29942 150.847 9.12702 156.197 9.32081 161.475C11.1824 162.678 13.028 163.927 14.9417 165.044L15.0094 336.907L14.9388 409.956C10.2278 410.473 3.72741 410.785 0.303364 414.431C0.103508 417.523 -0.436042 423.45 0.704668 426.217C2.76005 428.284 13.2653 429.991 16.5281 430.584C22.5774 431.684 28.6832 432.507 34.7574 433.459C47.923 435.604 61.108 437.622 74.3125 439.513L154.689 452.152L223.147 462.866C233.612 464.44 244.246 467.184 254.85 467.214C266.752 467.248 278.61 465.019 290.345 463.27L325.47 458.246L402.26 446.933C409.632 445.893 416.995 444.797 424.35 443.645C426.52 443.31 429.512 443.288 431.517 442.493C432.449 440.592 432.569 434.212 431.882 432.19C431.766 431.848 431.743 431.837 431.581 431.576C429.422 430.775 426.688 430.744 424.39 430.472C419.494 429.882 414.594 429.327 409.69 428.808C406.439 428.46 402.943 428.279 399.769 427.51C406.129 426.302 413.012 426.297 419.477 425.674L458.808 421.651C459.077 401.163 458.793 380.651 458.836 360.159L458.902 343.897C458.904 340.887 458.675 337.73 458.957 334.743C459.414 334.502 459.872 334.312 460.352 334.125C461.31 332.953 460.971 322.929 460.796 321.04C460.747 320.494 460.687 320.129 460.383 319.66ZM453.724 254.728C453.808 275.719 453.743 296.711 453.527 317.702C450.925 317.236 448.328 316.744 445.735 316.227C445.651 311.881 445.81 307.535 445.637 303.189C441.717 302.398 437.941 301.269 434.116 300.116L434.09 303.721L433.988 313.616C431.677 313.131 429.388 312.636 427.113 311.998L427.076 299.227C423.227 297.756 418.901 296.954 414.9 295.928L414.848 309.18C412.413 308.7 409.989 308.177 407.574 307.608C407.611 303.295 407.58 298.983 407.481 294.671C403.588 293.07 398.885 292.076 394.777 291.083C394.49 295.527 394.698 300.095 394.692 304.554C391.397 303.962 388.131 302.958 384.848 302.247C384.688 288.223 384.844 274.184 384.85 260.158L384.793 191.555C387.892 192.502 390.998 193.998 393.998 195.239L411.21 202.419C425.398 208.268 439.537 214.234 453.627 220.315C454.113 231.718 453.725 243.311 453.724 254.728ZM442.702 315.36C440.483 315.025 438.27 314.435 436.08 313.945L436.086 303.343C438.317 303.962 440.534 304.59 442.731 305.321C442.858 308.659 442.745 312.019 442.702 315.36ZM416.76 298.999C419.158 299.862 421.708 300.411 424.134 301.243C424.155 304.578 424.149 307.912 424.115 311.246C421.637 310.569 419.089 310.044 416.587 309.452C416.887 305.996 416.762 302.468 416.76 298.999ZM404.56 296.35L404.548 306.748C402.006 306.4 399.441 305.599 396.949 304.98L396.917 294.194C399.408 295.018 402.039 295.593 404.56 296.35ZM394.244 181.644L411.708 189.487C425.626 195.633 439.839 201.416 453.501 208.103L453.507 217.379C430.65 207.555 407.53 198.391 384.732 188.424L384.669 177.658C387.924 178.751 391.102 180.257 394.244 181.644ZM310.393 205.01C334.182 196.098 357.902 187.006 381.553 177.733L381.891 177.736C382.626 178.935 382.13 186.708 382.112 188.623C358.679 197.715 334.66 205.408 311.046 214.021L310.689 214.057C309.907 212.792 310.377 206.779 310.393 205.01ZM310.23 217.157C318.1 214.145 326.103 211.552 334.053 208.767L361.244 198.985C367.951 196.607 374.81 194.485 381.373 191.737L381.657 191.748C382.038 192.349 381.953 192.924 381.965 193.63C382.217 207.9 381.919 222.24 381.92 236.519C381.922 258.172 382.1 279.84 381.862 301.49L370.548 298.919C370.562 296.194 370.591 293.473 370.47 290.75C368.677 291.105 357.041 293.613 356.462 294.008C356.322 294.611 356.255 295.009 355.896 295.532C352.448 295.404 348.529 294.036 345.132 293.235C339.595 291.944 334.051 290.684 328.499 289.456C322.402 288.008 316.289 286.631 310.16 285.325L310.23 217.157ZM367.954 298.282C365.922 297.857 363.884 297.457 361.842 297.082C361.374 297.011 360.893 296.953 360.433 296.842C359.952 296.726 359.647 296.652 359.375 296.22C360.407 294.992 365.281 294.608 366.927 294.312C367.549 294.197 367.252 294.158 367.817 294.422C368.164 295.661 368 297.007 367.954 298.282ZM160.281 19.5648C163.443 21.209 166.777 22.5879 169.993 24.1296C175.462 26.8197 180.919 29.5381 186.36 32.285L268.557 73.523C279.712 79.0376 290.825 84.6338 301.897 90.3121C306.104 92.4901 310.547 94.4699 314.607 96.8898C314.636 101.629 314.627 106.367 314.58 111.106C306.572 107.77 298.821 103.849 291.003 100.098L253.159 81.9636L184.706 49.6099C176.601 45.789 168.333 42.2912 160.285 38.3615C160.248 32.1127 160.046 25.8063 160.281 19.5648ZM117.304 62.2079L117.343 50.6644C118.715 49.3714 120.369 48.2786 121.854 47.1095C125.266 44.3849 128.707 41.6981 132.177 39.0482C140.503 32.5548 148.909 26.1671 157.395 19.8851L157.584 20.0533C158.15 21.6589 157.737 35.8524 157.732 38.5163C153.902 41.9177 149.439 44.8839 145.328 47.9565L117.608 68.5429L117.413 68.3574C117.113 66.394 117.298 64.2055 117.304 62.2079ZM117.128 72.5078C117.358 71.7862 118.096 70.9271 118.658 70.438C119.999 69.2702 121.606 68.2907 123.03 67.2103L135.747 57.7108C140.663 54.023 145.619 50.3905 150.616 46.8135C153.584 44.6646 156.469 42.3944 159.623 40.5187L313.499 113.027C312.393 113.504 311.259 113.869 310.115 114.241C303.713 111.79 297.494 108.258 291.311 105.275L263.214 92.0237C243.834 82.5934 224.197 73.6316 204.662 64.5241C189.689 57.3708 174.654 50.3484 159.558 43.4572C157.227 44.7514 155.064 46.6849 152.905 48.2611C148.213 51.6864 120.225 72.7367 117.79 73.2682C117.295 73.3761 117.494 73.3867 117.048 73.0914C117.05 72.8296 117.035 72.7976 117.128 72.5078ZM307.712 135.169L307.673 175.262L307.713 284.773C304.053 283.755 300.347 282.868 296.665 281.926C296.57 276.317 296.695 270.706 296.563 265.098C294.24 264.334 291.711 263.958 289.324 263.416C284.184 262.23 279.038 261.072 273.886 259.941C254.387 255.532 234.853 251.277 215.287 247.176C204.524 244.832 193.771 242.188 182.985 239.998C182.29 239.857 181.78 239.799 181.18 240.193C180.302 244.167 180.825 252.477 180.82 256.931L180.777 293.37C174.039 295.035 167.314 296.754 160.603 298.529L160.864 46.4757C168.123 49.2974 175.204 52.9564 182.241 56.3073L212.035 70.31L307.75 115.648C307.526 122.124 307.727 128.684 307.712 135.169ZM264.477 262.433C254.437 260.267 244.431 257.739 234.375 255.699C219.637 252.852 204.942 249.799 190.289 246.541C188.804 246.209 187.233 246.229 185.768 245.859C185.014 245.669 184.45 245.39 183.799 244.969C183.345 244.194 183.461 243.721 183.471 242.835C186.687 244.035 190.677 244.487 194.065 245.217L217.438 250.246C243.008 255.637 268.53 261.247 294.003 267.079L294.004 281.242C293.335 281.079 292.676 280.996 292.16 280.505C291.66 276.733 292.047 272.514 292.07 268.692C283.123 265.991 273.617 264.403 264.477 262.433ZM252.117 401.54L251.893 308.718C253.021 308.487 254.162 308.302 255.295 308.095L255.802 308.083C256.012 308.395 256.077 308.597 256.104 308.975C256.412 313.333 256.104 317.901 256.131 322.285L256.245 352.128L256.092 443.867L253.449 443.272L252.432 443.011C251.993 442.297 252.06 441.256 252.045 440.42C251.976 436.663 252.14 432.879 252.145 429.119L252.117 401.54ZM249.574 419.715C241.419 420.398 233.229 420.859 225.064 421.406C224.697 421.417 224.418 421.377 224.06 421.314C223.451 419.061 223.894 415.567 223.898 413.183L223.929 394.882C232.048 394.632 240.164 394.307 248.277 393.906C248.654 393.888 248.986 393.915 249.36 393.952C249.936 395.253 249.559 416.477 249.574 419.715ZM217.341 366.541L217.201 391.444L217.127 413.391C217.118 416.709 217.396 420.225 217.136 423.515C217.072 424.33 216.981 425.121 216.53 425.819L216.163 425.75C215.835 424.987 215.719 424.266 215.675 423.436C215.556 421.15 215.712 418.774 215.714 416.477L215.714 400.438L215.691 351.683L236.642 353.612C240.766 353.966 245.043 354.072 249.117 354.737C249.455 355.189 249.422 355.16 249.349 355.725C249.185 355.84 249.054 356.029 248.859 356.071C248.341 356.182 228.67 354.522 226.363 354.296C224.537 354.117 222.634 353.63 220.813 353.576C219.83 353.546 218.701 353.636 217.997 354.417C217.622 354.834 217.387 355.443 217.319 356C216.986 358.719 217.349 363.586 217.341 366.541ZM213.289 364.811L213.313 388.122L213.297 426.259C210.207 426.643 207.086 426.877 203.986 427.172C203.845 394.118 203.87 361.066 204.061 328.014C209.692 328.152 215.582 329.2 221.202 329.813C230.637 330.825 240.079 331.756 249.53 332.608L249.519 352.278C241.84 351.708 234.168 351.053 226.504 350.313C222.36 349.911 217.804 348.9 213.668 349.263C212.702 352.25 213.283 361.256 213.289 364.811ZM249.455 387.015L249.041 387.246C240.668 387.386 232.297 387.605 223.927 387.902L223.922 360.903C232.35 361.9 240.983 362.141 249.454 362.669L249.497 378.655C249.504 381.407 249.672 384.277 249.455 387.015ZM219.695 356.099C221.585 356.037 248.367 358.148 248.892 358.325C249.243 358.443 249.256 358.662 249.42 358.967C249.408 359.602 249.542 359.865 249.085 360.349C246.984 360.503 244.757 360.139 242.656 359.967L230.138 358.976C227.906 358.802 225.529 358.451 223.3 358.535C222.567 358.562 222.105 358.654 221.617 359.207C220.995 363.909 221.528 370.01 221.51 374.856C221.497 378.465 221.046 385.508 221.487 388.785C221.58 389.478 221.64 389.602 222.289 389.902C225.646 391.45 247.874 388.711 249.474 389.998C249.63 390.61 249.652 390.744 249.497 391.352C248.006 392.372 226.048 392.133 221.97 392.677L221.548 392.735L221.511 397.063L221.504 423.768C225.424 423.859 247.932 421.551 249.436 422.131C249.528 422.67 249.528 422.891 249.297 423.39C246.792 424.148 243.292 424.008 240.649 424.22C233.613 424.828 226.572 425.361 219.525 425.821L219.695 356.099ZM249.542 330.298C236.346 329.49 223.096 327.607 209.943 326.202L203.891 325.461L203.9 317.299C209.137 316.665 214.391 315.49 219.589 314.549L248.48 309.284C248.822 309.22 249.049 309.262 249.39 309.312C250.034 312.071 249.553 326.321 249.542 330.298ZM161.385 322.427L160.86 322.444C160.06 321.503 160.535 316.644 160.555 315.261C173.444 312.348 186.586 310.202 199.544 307.567L255.017 295.737L255.602 295.746C256.318 297.121 255.86 303.848 255.841 305.661L161.385 322.427ZM201.556 434.093C200.333 434.294 199.098 434.441 197.87 434.609L197.667 434.459C197.122 432.86 197.366 408.386 197.364 404.5L197.234 318.794C198.595 318.556 199.951 318.256 201.306 317.983L201.455 318.013C201.532 318.137 201.634 318.25 201.687 318.387C201.926 318.999 201.631 341.233 201.624 343.521L201.589 391.421C201.494 405.645 201.483 419.869 201.556 434.093ZM192.288 350.464L192.279 330.338C192.27 326.889 192.005 323.282 192.331 319.857C192.909 319.333 193.468 319.34 194.224 319.186C194.425 319.161 194.712 319.227 194.917 319.251C195.048 319.6 195.133 319.917 195.148 320.29C195.432 327.347 195.108 334.513 195.133 341.585L195.175 393.676L195.177 422.667C195.16 425.982 195.589 429.977 195.205 433.216C195.15 433.679 195.083 433.95 194.761 434.304L193.941 434.337C193.36 434.11 192.969 433.931 192.482 433.524C191.802 431.687 192.344 420.104 192.348 417.48L192.288 350.464ZM242.58 277.11L224.719 282.072L217.534 283.809C221 280.5 224.719 275.841 227.584 272.369C230.835 267.807 233.181 263.331 235.835 258.357L242.629 259.921C242.527 265.646 242.59 271.384 242.58 277.11ZM228.535 271C226.963 273.184 219.083 282.936 217.327 283.953C217.016 284.133 216.475 284.23 216.122 284.345L210.62 285.717C213.308 282.072 217.424 276.771 219.994 273.5C224.931 267.728 228.535 263.5 232.693 257.694L235.835 258.357C233.614 262.5 231.068 267 228.535 271ZM216.5 278C214.527 280.528 212.525 283.135 210.62 285.717C201.608 288.16 192.569 290.502 183.505 292.744C183.384 277.738 183.369 262.732 183.459 247.726C199.573 250.214 216.545 255.132 232.655 257.745C227.691 264.64 221.657 271.047 216.5 278ZM255.584 276.155C255.608 276.173 255.637 276.187 255.656 276.211C256.317 277.018 255.907 290.871 255.901 292.893C247.228 295.245 238.3 296.868 229.511 298.751C206.612 303.659 183.589 307.903 160.684 312.749C160.047 311.684 160.406 302.679 160.412 300.978C192.291 293.299 224.015 285.025 255.584 276.155ZM160.352 392.491L160.548 325.062C162.632 324.656 164.704 324.317 166.81 324.052C169.103 323.638 186.375 325.706 189.937 326.106C189.833 334.975 190.032 343.862 190.032 352.734L190.048 425.47C187.434 425.88 184.726 426.011 182.088 426.248C174.934 427.218 167.548 427.463 160.347 428.161C160.207 416.278 160.346 404.376 160.352 392.491ZM176.91 322.567L175.366 322.393C176.575 321.647 187.68 320.286 189.794 319.954L189.889 320.021C190.341 320.971 190.085 322.707 190.071 323.771C185.687 323.334 181.3 322.932 176.91 322.567ZM245.038 276.495L244.949 260.539C259.84 264.106 274.936 266.96 289.889 270.283L289.888 280.27L286.962 279.565C279.961 278.083 273.008 276.35 266.019 274.811C263.424 274.24 259.902 273.013 257.271 273.218C253.81 273.488 248.522 275.521 245.038 276.495ZM17.6503 344.67L17.542 164.08L40.581 147.643C44.4485 144.849 48.4351 142.15 52.1298 139.13C52.7221 139.573 53.5291 140.179 54.3107 140.137C54.8806 140.107 55.4137 139.76 55.8738 139.456C61.6246 135.659 67.2138 131.541 72.8398 127.561C82.2445 120.947 91.5962 114.259 100.895 107.497C106.25 103.579 112.397 100.088 117.306 95.632L117.315 76.7616C131.123 67.4207 144.239 57.032 157.911 47.4923C157.935 47.5149 157.964 47.5338 157.982 47.5609C158.159 47.824 158.192 48.0832 158.201 48.3913C158.518 60.4605 158.079 73.2641 158.038 85.4093L157.932 160.845L157.667 428.42C151.072 427.164 144.222 426.566 137.556 425.741C126.324 424.319 115.083 422.974 103.833 421.71L32.4575 413.599C27.591 412.834 22.631 412.595 17.7515 411.853C17.1327 404.707 17.5353 397.269 17.5414 390.085C17.5538 374.948 17.7687 359.804 17.6503 344.67ZM114.704 22.9736L114.59 93.6593C112.269 93.0297 109.936 92.4426 107.593 91.8979L107.445 19.7621C109.991 20.4313 112.382 21.7581 114.704 22.9736ZM112.817 95.7309C106.497 100.708 99.7689 105.205 93.2481 109.917C81.1239 118.757 68.8934 127.448 56.5564 135.989L54.3423 137.43C53.2769 136.887 52.1343 136.466 51.0281 136.01C57.2766 131.514 63.211 126.569 69.3963 121.982C81.8087 112.777 94.4501 103.764 106.511 94.0979C108.617 94.6295 110.719 95.1738 112.817 95.7309ZM50.1332 72.6243C51.1705 67.6755 57.8886 55.4032 60.8657 50.9588C70.3483 36.8013 83.6895 22.4532 101.05 19.0294C102.375 18.896 103.714 18.9915 105.042 19.0361C105.001 43.4779 104.794 67.943 105.098 92.3822C99.0257 96.2315 93.5654 100.969 87.8172 105.274C75.905 114.012 64.1183 122.915 52.4577 131.985L50.1124 133.704C49.9949 127.971 50.1434 122.222 50.1278 116.487L49.9512 90.8495C49.9416 86.4967 49.3322 76.4465 50.1332 72.6243ZM12.0128 159.806C11.3181 158.953 11.6919 148.698 11.6948 146.854C16.5092 142.542 22.1387 138.894 27.2513 134.926C33.9229 129.747 40.3633 124.088 47.2845 119.256C48.0395 120.151 47.6634 132.115 47.6634 134.335C43.9852 136.758 40.4932 139.462 36.9411 142.066L21.943 152.929C18.7258 155.26 15.5374 157.787 12.1402 159.847L12.0128 159.806ZM14.0842 161.57L14.1132 161.31C19.2418 157.503 24.5357 153.911 29.7173 150.176C35.6564 145.895 41.5059 141.448 47.5676 137.344C48.2438 137.582 48.7316 138.163 49.2565 138.643C45.215 141.58 41.0602 144.368 37.005 147.288C29.8874 152.413 22.8245 157.653 15.5195 162.51C14.9924 162.343 14.5276 161.899 14.0842 161.57ZM429.802 434.427C429.637 436.421 429.61 438.401 429.598 440.4C426.151 441.03 422.62 441.394 419.15 441.904L400.335 444.754L337.77 453.929L290.269 460.771C279.213 462.374 267.944 464.659 256.745 464.827C248.974 464.944 241.426 463.398 233.809 462.092C227.561 461.039 221.305 460.042 215.039 459.103L118.418 443.919L51.5906 433.597L28.0226 430.015C19.5508 428.702 10.9407 427.456 2.76101 424.808L2.72909 419.052C8.7902 421.455 15.6967 422.557 22.0886 423.68C33.7565 425.728 45.5298 427.169 57.252 428.865L135.985 440.529L213.051 452.408L236.144 456.11C240.182 456.77 244.229 457.607 248.293 458.074C253.101 458.626 257.85 458.475 262.656 458.053C276.29 456.855 290.747 454.102 304.384 452.162L392.171 439.6L416.591 436.052C420.646 435.456 425.766 434.162 429.802 434.427ZM409.329 431.308C413.678 431.818 418.032 432.278 422.392 432.687C411.73 433.904 401.117 435.806 390.489 437.299L302.822 449.878L277.513 453.54C270.792 454.532 264.066 455.709 257.262 455.911C248.969 456.157 240.78 454.223 232.611 452.993L182.327 445.072L86.4431 430.635L55.3176 426.061C41.4797 424.158 27.4719 422.437 13.7655 419.742C11.1674 419.232 4.70402 418.312 3.27758 416.182C3.2747 415.804 3.19872 415.652 3.44838 415.33C4.98816 413.346 10.7032 412.647 13.0715 412.241C13.6433 412.163 14.0302 412.141 14.5924 412.28C14.9305 412.767 15.2756 413.32 15.7136 413.723C16.1865 414.159 16.8461 414.409 17.4708 414.516C21.4268 415.195 25.7192 415.347 29.7358 415.792C38.5397 416.752 47.3365 417.771 56.1263 418.85L128.374 427.153C134.123 427.78 139.864 428.48 145.595 429.252C149.633 429.814 153.79 430.642 157.854 430.88C160.658 431.045 163.89 430.376 166.708 430.12C174.494 429.414 182.271 428.529 190.059 427.874L190.07 435.378C191.851 436.254 194.039 436.879 196.018 437.072C197.882 437.254 202.131 437.263 203.48 435.926C204.53 434.887 204.087 431.078 204.057 429.604C210.028 429.425 216.112 428.624 222.071 428.13C231.225 427.371 240.383 426.768 249.533 425.939C249.539 428.873 249.021 443.374 250.107 444.868C251.802 445.766 253.904 446.128 255.802 446.317C258.327 446.569 263.6 446.379 265.566 444.751C266.558 442.995 266.122 427.432 266.138 424.586C275.164 423.998 284.189 422.943 293.182 421.975C298.035 421.452 303.067 420.677 307.943 420.637C312.571 420.6 317.511 421.668 322.131 422.14C332.571 423.118 342.998 424.221 353.413 425.449C353.404 426.611 353.094 429.507 353.826 430.363C354.496 431.148 356.598 431.285 357.61 431.352C359.357 431.467 362.072 431.592 363.448 430.395C363.823 429.201 363.549 427.613 363.484 426.364L409.329 431.308ZM368.407 393.749L367.766 393.854L363.62 393.867L363.618 367.894C363.615 364.245 363.36 360.428 363.546 356.796C363.576 356.199 363.613 356.074 363.962 355.611L364.798 355.514L368.528 355.361C368.508 359.91 368.899 392.642 368.407 393.749ZM363.77 396.297C366.099 396.141 368.47 396.221 370.805 396.216L370.828 385.406L370.795 364.772C370.791 361.766 371.065 358.561 370.846 355.581C370.808 355.06 370.709 354.414 370.412 353.97C368.947 351.774 365.785 353.587 363.717 353.279C363.382 352.808 363.477 352.846 363.531 352.308C365.39 351.372 369.339 351.702 371.46 351.62C371.428 362.414 371.56 373.221 371.394 384.013C371.511 388.54 371.5 393.136 371.331 397.662C369.277 397.645 365.404 398.114 363.658 397.013L363.55 396.614L363.77 396.297ZM355.861 334.083L360.236 333.48L360.948 333.461C361.579 334.567 361.089 418.025 361.027 428.845L356.77 428.837L356.078 428.717C355.501 427.473 355.871 343.387 355.861 334.083ZM348.565 332.79C339.526 334.174 330.411 335.159 321.331 336.234C316.49 336.807 311.314 337.841 306.455 337.718C302.208 337.61 297.623 336.436 293.381 335.862L266.009 332.318C265.999 324.74 266.04 317.163 266.132 309.587C270.695 310.259 275.263 311.215 279.806 312.029C289.515 313.726 299.204 315.536 308.871 317.459C321.498 319.937 334.202 322.069 346.85 324.447C358.187 326.578 369.491 328.983 380.888 330.772C378.008 330.883 375.132 331.052 372.258 331.277C369.291 331.599 366.301 331.798 363.326 332.044C362.909 331.675 362.498 331.279 361.936 331.15C358.861 330.444 351.823 332.291 348.565 332.79ZM353.422 411.985L319.915 409.57C315.972 409.265 312.026 409.007 308.077 408.795L308.093 340.36C313.832 339.144 320.019 338.836 325.863 338.169L352.843 334.947L353.189 334.938C353.777 335.792 353.454 347.716 353.456 349.547C351.744 349.641 347.219 349.466 346.041 350.566C345.72 350.866 345.709 351.77 345.658 352.192C345.021 357.535 345.476 364.542 345.473 370.051C345.469 378.761 345.137 387.626 345.544 396.32C345.584 397.186 345.562 398.753 346.092 399.427C348.305 400.115 351.111 399.91 353.438 399.982L353.422 411.985ZM353.433 414.566L353.426 422.919L308.067 418.028L308.05 411.389C314.733 411.373 321.556 412.216 328.23 412.665C336.595 413.227 345.124 413.469 353.433 414.566ZM348.625 353.064L348.301 353.138C347.876 357.996 348.189 363.078 348.188 367.965L348.207 396.097C349.555 396.188 350.906 396.128 352.256 396.098L352.967 396.052C353.361 396.467 353.252 396.422 353.239 396.954C352.059 397.851 349.258 397.319 347.771 397.206C347.514 391.534 347.624 385.809 347.623 380.131L347.658 352.308L351.186 351.838C351.577 351.773 351.984 351.699 352.38 351.698C352.808 351.696 353.622 351.69 353.934 351.985C352.824 352.885 350.092 352.741 348.625 353.064ZM353.668 354.37L353.45 393.863L349.998 393.787L350.008 354.504L353.668 354.37ZM288.839 371.447C288.828 368.717 289.347 358.732 288.538 356.647C287.189 355.58 269.277 354.291 266.045 353.864C265.903 347.512 266.01 341.138 266.018 334.783L288.519 337.67C294.264 338.414 300.05 339.077 305.726 340.26C305.576 346.336 305.732 352.452 305.719 358.533L305.621 398.056C305.601 404.113 305.921 410.338 305.636 416.369C305.606 417.011 305.607 417.534 305.27 418.1L304.572 418.267C299.381 418.83 294.194 419.313 289.011 419.972C288.788 413.264 288.966 406.491 288.974 399.777C288.988 390.334 288.943 380.89 288.839 371.447ZM286.324 420.314C283.605 420.62 268.167 422.498 266.692 422.262C266.472 422.226 266.304 422.04 266.11 421.929L265.993 421.474C266.036 421.402 266.071 421.325 266.121 421.258C266.408 420.88 266.815 420.637 267.275 420.532C268.641 420.221 270.393 420.303 271.805 420.207C274.679 420.035 277.545 419.788 280.406 419.467C281.757 419.394 282.993 419.223 284.312 418.92C284.569 415.038 284.434 411.059 284.459 407.166C284.492 401.936 284.635 396.677 284.431 391.451C280.915 390.955 268.088 392.055 266.275 391.165C266.157 390.514 266.149 390.502 266.457 389.918C268.63 388.521 280.322 389.69 284.09 388.839C284.98 387.454 284.579 366.426 284.506 363.227C278.86 362.234 271.81 362.8 266.465 361.666C266.105 361.014 266.274 360.359 266.355 359.652C273.022 360.006 279.858 360.505 286.468 361.451C286.056 381.049 286.468 400.705 286.324 420.314ZM266.142 387.054L266.157 364.041C270.911 364.431 275.68 364.75 280.419 365.286L280.484 386.946C275.708 386.892 270.919 387.012 266.142 387.054ZM266.167 418.317L266.206 393.882C268.514 393.837 270.821 393.769 273.127 393.681C275.53 393.476 277.993 393.507 280.405 393.434C280.423 401.391 280.394 409.348 280.317 417.304L272.964 417.772C270.708 418.012 268.43 418.139 266.167 418.317ZM266.403 357.555C266.114 357.379 266.045 356.688 265.96 356.363C269.967 356.6 273.969 357.041 277.965 357.428C280.274 357.65 282.758 357.725 285.031 358.162C285.915 358.332 286.091 358.453 286.599 359.195C284.651 359.497 267.472 358.205 266.403 357.555ZM363.584 415.142C370.99 415.973 378.562 416.546 385.998 417.062C385.942 420.129 385.946 423.196 386.01 426.262C378.545 425.309 370.998 424.889 363.567 423.685L363.584 415.142ZM385.976 414.536C378.536 413.774 371.058 413.425 363.612 412.726L363.605 405.764L363.599 400.094C366.379 400.121 369.456 400.406 372.203 400C372.887 399.899 373.272 399.856 373.696 399.299C374.298 396.429 374.126 351.216 373.639 349.291C371.633 348.447 366.028 349.423 363.589 349.634C363.52 344.566 363.579 339.487 363.578 334.419C370.453 333.517 377.512 333.262 384.431 332.763C384.956 332.661 385.286 332.601 385.806 332.744C386.266 333.776 385.992 408.899 385.976 414.536ZM303.181 313.804C288.273 311.03 273.189 308.605 258.399 305.267L258.418 295.352C267.684 297.589 277.131 299.121 286.456 301.101C319.614 308.063 352.827 314.757 386.093 321.184L386.156 329.406C358.542 323.97 330.883 318.769 303.181 313.804ZM263.64 309.056C263.892 341.663 263.888 374.27 263.627 406.877L263.635 431.866C263.635 435.281 264.062 439.928 263.455 443.229C261.716 443.418 259.978 443.69 258.244 443.928L258.264 308.035C260.072 308.32 261.852 308.667 263.64 309.056ZM456.283 419.332C448.604 419.681 440.625 421.021 432.947 421.794C418.438 423.197 403.922 424.521 389.398 425.768C389.189 425.757 388.911 425.653 388.706 425.599C387.944 423.496 388.469 419.61 388.511 417.285C410.893 416.272 433.19 413.398 455.548 412.033L455.993 412.028C456.835 413.27 456.31 417.709 456.283 419.332ZM408.081 335.627C418.831 337.305 429.572 339.041 440.304 340.834C445.582 341.702 451.128 342.097 456.288 343.466C456.598 350.91 456.327 358.496 456.311 365.953L456.178 409.472L450.536 409.796C430.057 411.923 409.119 413.447 388.576 414.818C388.649 387.325 388.291 359.797 388.612 332.31C395.018 333.764 401.596 334.589 408.081 335.627ZM388.663 321.637C395.824 322.919 402.936 324.522 410.083 325.889C425.412 328.78 440.762 331.551 456.135 334.202L456.14 340.707L388.669 329.882C388.646 327.134 388.644 324.386 388.663 321.637ZM423.28 325.618C397.094 320.784 370.958 315.696 344.871 310.354L292.288 299.697C281.375 297.523 268.822 295.623 258.301 292.501C258.126 286.98 258.262 281.408 258.253 275.882C274.027 278.953 289.595 282.974 305.214 286.737C317.103 289.601 329.084 292.155 341.003 294.898L419.73 312.971C432.592 315.898 445.517 318.58 458.342 321.659C458.314 325.04 458.362 328.421 458.483 331.801C446.707 330.302 434.951 327.762 423.28 325.618Z" fill="white"/>
<path d="M285.032 354.162C282.759 353.725 280.276 353.65 277.966 353.428C273.97 353.041 269.969 352.6 265.961 352.363C266.046 352.688 266.114 353.379 266.404 353.555C267.473 354.205 284.652 355.497 286.6 355.195C286.092 354.453 285.916 354.332 285.032 354.162Z" fill="#7D7BF6"/>
<path d="M217.998 350.417C218.702 349.636 219.831 349.546 220.813 349.576C222.635 349.63 224.538 350.117 226.364 350.296C228.67 350.522 248.341 352.182 248.859 352.071C249.055 352.029 249.186 351.84 249.349 351.725C249.423 351.16 249.456 351.189 249.117 350.737C245.043 350.072 240.767 349.965 236.643 349.612L215.692 347.683L215.715 396.438L215.714 412.477C215.713 414.774 215.556 417.15 215.676 419.436C215.719 420.266 215.836 420.987 216.164 421.75L216.531 421.819C216.981 421.12 217.072 420.33 217.137 419.515C217.397 416.224 217.118 412.709 217.128 409.391L217.202 387.444L217.342 362.541C217.349 359.586 216.987 354.719 217.32 351.999C217.388 351.443 217.622 350.834 217.998 350.417Z" fill="#7D7BF6"/>
<path d="M292.159 276.505C292.675 276.996 293.334 277.079 294.003 277.242L294.002 263.079C268.529 257.248 243.007 251.637 217.437 246.246L194.064 241.217C190.676 240.487 186.686 240.035 183.47 238.835C183.46 239.721 183.344 240.194 183.798 240.969C184.449 241.39 185.013 241.669 185.767 241.859C187.232 242.229 188.803 242.209 190.288 242.541C204.941 245.799 219.636 248.852 234.374 251.699C244.43 253.739 254.436 256.267 264.476 258.433C273.616 260.404 283.122 261.991 292.069 264.692C292.046 268.514 291.659 272.733 292.159 276.505Z" fill="white"/>
<path d="M292.159 276.505C292.675 276.996 293.334 277.079 294.003 277.242L294.002 263.079C268.529 257.248 243.007 251.637 217.437 246.246L194.064 241.217C190.676 240.487 186.686 240.035 183.47 238.835C183.46 239.721 183.344 240.194 183.798 240.969C184.449 241.39 185.013 241.669 185.767 241.859C187.232 242.229 188.803 242.209 190.288 242.541C204.941 245.799 219.636 248.852 234.374 251.699C244.43 253.739 254.436 256.267 264.476 258.433C273.616 260.404 283.122 261.991 292.069 264.692C292.046 268.514 291.659 272.733 292.159 276.505Z" fill="#7D7CF6"/>
<path d="M340.983 356.499C341.001 354.085 341.165 351.58 341.008 349.178C340.972 348.636 340.902 348.2 340.509 347.786C340.098 347.351 339.654 347.257 339.073 347.253C338.76 347.252 338.412 347.32 338.106 347.365C333.646 347.854 314.622 348.813 312.097 349.922C311.683 350.821 311.653 351.916 311.614 352.895C311.269 361.561 311.555 370.349 311.542 379.027C311.537 382.825 310.921 391.011 311.747 394.308C312.16 394.86 312.541 395.16 313.228 395.272C314.001 395.398 314.848 395.383 315.631 395.41C320.38 395.669 325.151 395.669 329.907 395.732C333.541 395.78 337.386 396.042 340.992 395.55C341.372 386.746 340.961 377.804 340.955 368.984L340.983 356.499ZM338.808 393.175C330.961 393.247 323.117 393.156 315.273 392.902C314.769 392.894 314.429 392.855 313.958 392.669C313.365 390.333 313.805 385.057 313.812 382.351C313.836 372.151 314.15 361.893 313.901 351.702C321.792 351.398 329.749 350.541 337.613 349.789C338.081 349.722 338.288 349.712 338.718 349.918C339.258 351.018 338.779 388.345 338.808 393.175Z" fill="white"/>
<path d="M338.718 349.918C338.288 349.712 338.081 349.722 337.613 349.789C329.749 350.541 321.792 351.398 313.901 351.702C314.15 361.893 313.836 372.151 313.812 382.351C313.805 385.056 313.365 390.332 313.958 392.669C314.428 392.855 314.768 392.894 315.273 392.902C323.116 393.156 330.961 393.247 338.808 393.175C338.778 388.345 339.257 351.018 338.718 349.918ZM317.379 391.486C316.584 391.467 315.774 391.361 314.98 391.294C314.717 378.585 314.878 365.826 314.825 353.112C321.717 352.749 328.636 351.988 335.495 351.233C335.717 351.18 335.793 351.154 336.045 351.135C336.696 351.085 336.98 351.142 337.472 351.555C337.957 355.803 337.648 360.453 337.675 364.75L337.792 391.75C331.031 392.022 324.142 391.742 317.379 391.486Z" fill="white"/>
<path d="M338.718 349.918C338.288 349.712 338.081 349.722 337.613 349.789C329.749 350.541 321.792 351.398 313.901 351.702C314.15 361.893 313.836 372.151 313.812 382.351C313.805 385.056 313.365 390.332 313.958 392.669C314.428 392.855 314.768 392.894 315.273 392.902C323.116 393.156 330.961 393.247 338.808 393.175C338.778 388.345 339.257 351.018 338.718 349.918ZM317.379 391.486C316.584 391.467 315.774 391.361 314.98 391.294C314.717 378.585 314.878 365.826 314.825 353.112C321.717 352.749 328.636 351.988 335.495 351.233C335.717 351.18 335.793 351.154 336.045 351.135C336.696 351.085 336.98 351.142 337.472 351.555C337.957 355.803 337.648 360.453 337.675 364.75L337.792 391.75C331.031 392.022 324.142 391.742 317.379 391.486Z" fill="#7D7CF6"/>
<path d="M337.473 351.554C336.98 351.141 336.696 351.085 336.045 351.135C335.794 351.154 335.717 351.18 335.495 351.233C328.636 351.987 321.718 352.748 314.826 353.112C314.878 365.826 314.717 378.585 314.981 391.294C315.774 391.361 316.584 391.466 317.379 391.486C324.142 391.742 331.031 392.022 337.793 391.75L337.676 364.75C337.649 360.452 337.957 355.802 337.473 351.554ZM335.469 389.38L318.104 389.29L317.41 389.168C316.917 388.428 317.154 358.896 317.151 355.341C323.011 355.058 328.883 354.301 334.713 353.656L335.177 353.639C335.887 354.802 335.481 385.177 335.469 389.38Z" fill="white"/>
<path d="M57.6221 91.5422C58.1823 91.9042 58.4355 92.0489 59.1136 91.8966C61.3663 91.3915 66.311 86.738 68.4998 85.1484C68.4969 88.5757 67.9025 99.7363 69.0103 102.26C69.5923 102.527 69.8915 102.607 70.5255 102.422C71.4705 102.146 72.4947 101.138 73.2596 100.523C75.9475 98.6467 78.6184 96.7359 81.3512 94.9263L81.3356 75.7258C85.7596 72.2488 91.0222 69.0316 94.9647 65.0495C95.0171 61.7465 95.7239 50.6538 94.4989 48.2942C94.1596 48.0864 94.037 47.899 93.6159 47.9753C91.9777 48.2734 83.7182 55.7613 81.2759 57.3445C81.2823 54.2908 81.9623 40.7674 80.4631 39.2046C80.1722 38.901 79.5953 38.849 79.1755 38.832C75.4702 42.1964 71.8485 45.6482 68.3102 49.1875L68.2588 66.4242C64.5701 69.8831 60.639 73.1328 57.0605 76.6973C57.1052 79.5707 56.5423 89.5555 57.6221 91.5422ZM70.8508 67.8494C70.3544 62.1388 70.71 56.1553 70.7391 50.4166C73.2692 47.7444 75.9596 45.2418 78.6369 42.719C79.376 46.621 78.3192 54.2532 78.6321 58.7343C78.6969 59.6652 78.7601 60.5477 79.4858 61.167C81.8755 61.2826 90.2531 53.4234 92.5154 51.5941L92.5061 64.0167C88.1997 67.6694 83.4887 70.9689 78.9255 74.2972L78.9399 93.3134C77.1607 94.7517 75.3067 96.1111 73.4882 97.5005L70.7918 99.6635C70.8052 97.187 71.2751 84.2641 70.9441 82.912C70.7953 82.3042 70.6251 82.1547 70.0907 81.8725C67.7125 82.0609 61.7788 87.464 59.5797 89.1813C59.4332 85.4201 59.4907 81.6296 59.4578 77.8646C62.8767 74.2375 66.8646 70.8361 70.8508 67.8494Z" fill="white"/>
<path d="M70.0919 81.8723C70.6263 82.1545 70.7965 82.3039 70.9453 82.9118C71.2763 84.2635 70.8064 97.1864 70.793 99.6632L73.4894 97.5003C75.3076 96.1109 77.1619 94.7515 78.9411 93.3132L78.9267 74.2969C83.4899 70.9686 88.2008 67.6691 92.5073 64.0165L92.5166 51.5938C90.254 53.4231 81.8767 61.2823 79.487 61.1668C78.7617 60.5477 78.6981 59.665 78.6333 58.734C78.3208 54.2529 79.3772 46.6207 78.6381 42.7188C75.9608 45.2412 73.2707 47.7439 70.7403 50.4164C70.7112 56.155 70.3556 62.1386 70.852 67.8492C66.8661 70.8355 62.8779 74.2372 59.459 77.8643C59.4919 81.6293 59.4344 85.4199 59.5809 89.181C61.78 87.4641 67.7141 82.0609 70.0919 81.8723Z" fill="white"/>
<path d="M429.446 395.022C429.527 395.411 429.551 395.424 429.698 395.731C431.517 396.566 446.118 396.154 448.847 395.917C449.177 395.745 449.369 395.752 449.494 395.37C449.969 393.912 449.81 356.464 449.641 352.339C449.61 351.601 449.574 350.787 449.157 350.15C448.906 349.767 446.915 349.701 446.399 349.653C440.92 349.138 435.518 348.075 430.064 347.543C429.646 348.179 429.563 348.616 429.519 349.372C429.331 352.631 429.501 355.993 429.496 359.264L429.438 379.727C429.427 382.674 429.007 392.905 429.446 395.022ZM431.764 350.36L447.143 352.391C447.408 357.452 447.303 362.552 447.318 367.622L447.307 393.491C442.123 393.748 436.919 393.701 431.73 393.734L431.764 350.36Z" fill="white"/>
<path d="M432.91 352.315C431.912 355.845 432.494 364.312 432.503 368.445L432.447 392.131C437.027 392.235 441.608 392.088 446.186 391.981C446.668 390.762 446.345 357.837 446.26 353.862C442.084 353.268 437.08 352.177 432.91 352.315ZM434.811 389.812C434.859 378.107 434.598 366.397 434.73 354.692C437.771 355.007 440.811 355.34 443.849 355.691L443.915 389.721C440.885 389.812 437.844 389.789 434.811 389.812Z" fill="white"/>
<path d="M400.365 396.384C403.416 396.687 406.742 396.342 409.821 396.32C413.781 396.293 417.929 396.543 421.868 396.252C422.1 395.674 422.223 395.195 422.251 394.572C422.588 387.278 422.271 379.824 422.285 372.511C422.299 364.922 422.626 357.26 422.415 349.681C422.393 348.872 422.385 347.516 421.987 346.814C421.791 346.466 421.701 346.441 421.326 346.385C417.48 345.814 413.562 345.558 409.693 345.143C405.928 344.739 402.095 344.135 398.313 344.001C397.807 346.904 397.838 394.07 398.444 395.777C399.077 396.287 399.55 396.303 400.365 396.384ZM419.897 348.501L419.996 393.806L400.333 394.005L400.289 346.599C406.749 347.384 413.403 348.269 419.897 348.501Z" fill="white"/>
<path d="M419.996 393.806L419.897 348.501C413.403 348.269 406.749 347.384 400.289 346.599L400.333 394.005L419.996 393.806ZM401.548 348.202C405.78 348.236 414.635 349.013 418.747 349.798L418.72 378.035C418.713 382.558 419.131 387.574 418.58 392.048C412.97 392.317 407.151 392.359 401.542 392.077L401.548 348.202Z" fill="white"/>
<path d="M419.996 393.806L419.897 348.501C413.403 348.269 406.749 347.384 400.289 346.599L400.333 394.005L419.996 393.806ZM401.548 348.202C405.78 348.236 414.635 349.013 418.747 349.798L418.72 378.035C418.713 382.558 419.131 387.574 418.58 392.048C412.97 392.317 407.151 392.359 401.542 392.077L401.548 348.202Z" fill="#7D7CF6"/>
<path d="M418.581 392.049C419.132 387.575 418.714 382.558 418.721 378.036L418.748 349.799C414.636 349.013 405.781 348.236 401.548 348.203L401.543 392.078C407.152 392.359 412.971 392.318 418.581 392.049ZM403.57 350.529C407.927 350.867 412.28 351.248 416.629 351.673L416.609 389.801L403.625 389.893C403.755 376.776 403.614 363.646 403.57 350.529Z" fill="white"/>
<path d="M324.642 232.939C324.65 227.487 325.093 220.941 324.547 215.615L324.247 215.364C319.767 216.604 315.533 218.151 311.222 219.882C311.213 222.383 310.72 235.976 311.729 237.281C315.93 235.959 320.662 234.788 324.642 232.939ZM313.698 221.071C316.477 220.093 319.269 219.158 322.076 218.265C322.719 219.058 322.333 229.564 322.327 231.356L313.901 234.018C313.309 233.181 313.673 223.118 313.698 221.071Z" fill="white"/>
<path d="M324.606 274.298C324.671 271.772 325.096 255.908 324.44 255.027C319.99 256.164 315.152 257.187 310.922 259.011C310.916 261.453 310.55 276.47 311.23 277.433C315.752 276.744 320.128 275.231 324.606 274.298ZM313.66 260.196C316.384 259.37 319.125 258.6 321.881 257.888L322.31 258.084C322.567 262.742 322.356 267.508 322.348 272.178L314.107 274.291L313.732 274.18C313.145 271.467 313.635 263.455 313.66 260.196Z" fill="white"/>
<path d="M347.716 226.125C347.77 222.317 348.16 210.703 347.544 207.533L347.338 207.393C342.725 208.67 337.897 210.313 333.537 212.284C333.445 216.045 332.852 227.448 333.822 230.476C338.419 229.338 343.312 227.864 347.716 226.125ZM335.954 213.711C338.72 212.622 341.58 211.706 344.388 210.726L344.657 210.813C345.232 212.81 344.84 221.927 344.851 224.759L336.538 227.12L336.234 227.087C335.492 225.751 335.947 215.908 335.954 213.711Z" fill="white"/>
<path d="M356.961 223.29C360.312 222.416 367.629 220.633 370.356 218.906C370.973 216.726 371.193 201.801 370.663 199.746L370.538 199.644C365.876 201.208 361.187 202.713 356.557 204.366C356.734 208.302 356.755 212.229 356.76 216.169C356.763 218.466 356.549 221.031 356.961 223.29ZM359.234 205.626C362.125 204.665 365.021 203.721 367.923 202.794C368.618 203.642 368.273 215.45 368.281 217.44C365.389 218.365 362.488 219.261 359.579 220.129C358.89 219.423 359.232 207.523 359.234 205.626Z" fill="white"/>
<path d="M347.473 249.197C342.817 250.438 338.19 251.778 333.593 253.22C333.612 255.712 333.179 271.349 334.002 272.33C334.046 272.382 334.099 272.425 334.147 272.472C338.743 271.613 343.407 270.491 347.854 269.042L347.899 255.904C347.905 253.824 348.137 251.43 347.83 249.391L347.473 249.197ZM345.006 267.414C342.249 268.28 339.41 268.905 336.605 269.591L336.21 269.559C335.527 268.182 335.968 257.012 335.973 254.685C338.768 253.875 341.57 253.085 344.377 252.315L344.789 252.356C345.399 253.555 345.007 265.205 345.006 267.414Z" fill="white"/>
<path d="M357.105 267.129L370.604 263.86C370.652 259.364 370.668 254.867 370.651 250.371C370.647 248.119 370.817 245.698 370.489 243.473L370.089 243.14C365.592 244.572 361.043 245.833 356.556 247.294C356.608 251.44 356.616 255.587 356.581 259.734C356.575 262.02 356.371 264.495 356.714 266.754L357.105 267.129ZM359.154 248.869C361.91 247.877 364.753 247.106 367.562 246.277L367.913 246.509L367.818 247.437L368.223 247.578C367.721 248.257 367.987 260.235 367.986 262.045C365.089 262.704 362.195 263.378 359.305 264.067C358.667 262.702 359.138 251.199 359.154 248.869Z" fill="white"/>
<path d="M445.692 276.593C445.733 270.685 445.898 264.664 445.617 258.768C441.812 257.485 437.974 256.303 434.158 255.055C433.578 260.691 434.07 267.549 434.103 273.311C437.698 274.425 441.976 276.27 445.692 276.593ZM436.179 258.25L442.854 260.577L442.879 273.576C440.643 272.837 438.389 272.143 436.143 271.429L436.179 258.25Z" fill="white"/>
<path d="M445.73 237.689C445.706 231.793 445.991 225.729 445.619 219.856C442.297 218.103 437.902 215.897 434.229 215.141C433.981 221.214 434.007 227.506 434.185 233.585C437.465 234.748 442.498 237.453 445.73 237.689ZM442.853 221.255C442.877 225.645 442.86 230.035 442.802 234.424C440.553 233.602 438.328 232.721 436.125 231.781L436.109 218.308L442.853 221.255Z" fill="white"/>
<path d="M426.825 271.388C427.38 265.874 426.892 258.822 426.922 253.137C423.198 251.862 418.712 250.017 414.927 249.248C414.798 255.481 414.646 261.846 414.896 268.071C418.48 269.412 423.023 270.998 426.825 271.388ZM424.039 254.78L424.067 268.399C421.729 267.825 419.216 267.272 416.985 266.369L416.984 252.386L424.039 254.78Z" fill="white"/>
<path d="M426.986 222.753C426.979 219.171 427.039 215.57 426.927 211.99C422.953 210.378 418.882 208.893 415.009 207.05C414.768 213.441 414.855 219.868 414.822 226.264C418.098 227.642 423.38 230.506 426.811 230.48C427.2 227.999 426.992 225.269 426.986 222.753ZM424.113 227.512C421.678 226.527 419.255 225.543 416.88 224.419L416.93 210.831C419.474 211.612 421.732 212.479 424.025 213.84C424.143 218.397 424.172 222.954 424.113 227.512Z" fill="white"/>
<path d="M407.549 247.427C404.016 245.741 398.495 244.159 394.625 243.532C394.302 249.939 394.321 256.664 394.665 263.071C398.865 263.455 403.175 266.108 407.295 265.947C407.802 259.867 407.509 253.538 407.549 247.427ZM404.605 262.879C402.011 262.363 399.444 261.605 396.885 260.936L396.855 246.587C399.449 247.45 402.08 248.18 404.669 249.071L404.605 262.879Z" fill="white"/>
<path d="M407.6 204.082C403.29 202.351 398.943 200.661 394.738 198.688C394.606 205.496 394.369 212.504 394.787 219.294C397.006 220.097 405.579 223.658 407.44 223.439C407.799 220.967 407.648 218.343 407.641 215.846L407.6 204.082ZM404.635 220.17L396.938 217.457L396.867 202.077C399.484 203.179 402.087 204.317 404.674 205.489L404.635 220.17Z" fill="white"/>
<path d="M292.423 159.992C292.397 164.542 292.058 169.292 292.429 173.816C292.451 174.077 292.403 174.047 292.613 174.221C292.99 174.534 293.465 174.609 293.93 174.722C294.041 159.631 294.07 144.539 294.018 129.447C280.742 123.162 266.734 118.168 253.166 112.543L183.061 83.0283L183.065 86.1369C219.675 100.928 256.144 116.058 292.472 131.529C292.526 141.017 292.509 150.505 292.423 159.992Z" fill="white"/>
<path d="M292.423 159.992C292.397 164.542 292.058 169.292 292.429 173.816C292.451 174.077 292.403 174.047 292.613 174.221C292.99 174.534 293.465 174.609 293.93 174.722C294.041 159.631 294.07 144.539 294.018 129.447C280.742 123.162 266.734 118.168 253.166 112.543L183.061 83.0283L183.065 86.1369C219.675 100.928 256.144 116.058 292.472 131.529C292.526 141.017 292.509 150.505 292.423 159.992Z" fill="#7879F5"/>
<path d="M131.802 243.627C124.836 245.597 117.952 248.309 111.096 250.657C94.9456 256.195 78.8457 261.875 62.796 267.698C51.9214 271.658 41.0906 275.987 30.041 279.423L30.0385 307.146C30.0331 311.004 29.5966 316.506 30.1726 320.217C30.5567 320.533 30.632 320.583 31.1198 320.665L96.5706 304.824L121.218 299.077C124.972 298.195 129.199 297.59 132.773 296.203C132.832 290.504 133.209 245.83 132.411 243.998L131.802 243.627ZM59.968 271.436C65.1611 269.17 70.6443 267.446 75.9964 265.594L76.4628 265.73C76.7508 267.713 76.542 270.008 76.542 272.027L76.5356 284.748C71.1484 286.039 65.7699 287.906 60.4485 289.477C60.2282 289.421 60.3881 289.476 60.0507 289.162C59.9057 283.259 59.9747 277.34 59.968 271.436ZM47.8838 313.909C43.0441 315.214 38.1955 316.485 33.3383 317.724L32.7385 317.651C32.0326 316.149 32.4502 303.434 32.4537 300.761C37.4172 299.155 42.3912 297.583 47.3765 296.045L47.5648 296.077C47.6689 296.187 47.8148 296.268 47.8761 296.407C48.0546 296.808 47.8611 311.964 47.8838 313.909ZM47.9466 293.493C42.9301 294.755 38.0069 296.458 33.0536 297.951L32.7343 297.904C32.1194 296.913 32.4818 283.692 32.4846 281.448C37.1653 279.1 42.5748 277.652 47.5501 276.002L47.7806 276.123C48.3942 278.894 47.9486 289.896 47.9466 293.493ZM50.0901 275.067L57.0602 272.583C57.4439 272.555 57.2444 272.512 57.6256 272.814L57.6039 290.294L50.7063 292.53C50.4803 292.57 50.6463 292.555 50.2172 292.425C49.7249 287.083 50.109 280.539 50.0901 275.067ZM57.6074 311.608L50.4694 313.222C49.8092 311.852 50.1747 297.678 50.1722 295.236C52.565 294.441 54.9793 293.699 57.382 292.933C58.0049 293.972 57.6026 309.127 57.6074 311.608ZM76.6342 307.005L60.6123 310.896C60.1455 310.979 60.3773 311.012 59.9265 310.742C59.8304 304.532 59.9121 298.31 59.9172 292.099C65.3909 290.537 70.8205 288.868 76.3166 287.376L76.4606 287.451C77.0244 288.754 76.6339 304.154 76.6342 307.005ZM78.9262 264.534L94.8402 258.855C95.3303 259.918 94.9673 276.823 94.9702 279.323L79.1656 283.89C78.5533 283.017 78.9224 266.745 78.9262 264.534ZM94.8888 302.683C89.8388 303.941 84.7827 305.172 79.7199 306.376C79.2761 306.376 79.5149 306.431 79.0462 306.083C78.6957 299.631 78.9945 293.008 78.9923 286.537C84.033 284.871 89.1827 283.49 94.2882 282.036L94.8297 282.096C95.4832 283.572 94.9555 299.517 94.8888 302.683ZM105.772 300.247C103.129 300.742 100.496 301.394 97.8687 301.973C97.5511 301.989 97.7484 302.014 97.3337 301.71C96.9614 294.924 97.2887 287.953 97.2925 281.147C99.8734 280.299 102.46 279.467 105.052 278.652L105.611 278.645C106.132 279.434 105.775 297.647 105.772 300.247ZM105.918 262.417C105.887 266.882 105.885 271.347 105.912 275.811L97.5993 278.401C96.8717 277.572 97.2976 260.469 97.3043 257.94L105.656 255.236L105.82 255.392C106.235 257.541 105.93 260.214 105.918 262.417ZM108.256 254.212C115.522 251.891 122.704 249.224 129.926 246.764C130.611 247.516 130.23 265.669 130.242 268.721C122.941 270.681 115.788 273.224 108.45 275.052C107.841 272.801 108.255 257.793 108.256 254.212ZM130.341 294.182C123.196 296.164 116.003 297.952 108.761 299.546C108.469 299.555 108.648 299.583 108.285 299.284C108.06 292.133 108.209 284.934 108.196 277.778C115.342 275.465 122.643 273.605 129.823 271.393L130.057 271.427C130.154 271.528 130.293 271.601 130.348 271.73C130.629 272.366 130.363 291.31 130.341 294.182Z" fill="white"/>
<path d="M131.588 314.966C131.556 314.959 131.522 314.963 131.488 314.962C124.024 316.21 116.599 317.777 109.168 319.217C94.5377 322.003 79.9294 324.902 65.3438 327.915L41.7538 332.692C37.8847 333.475 33.8068 334.038 30.0255 335.129C29.939 343.635 29.9097 352.142 29.9374 360.649C29.9349 365.348 29.6622 370.202 29.9879 374.881C30.0377 375.597 30.0124 375.979 30.469 376.529C30.7978 376.597 31.0855 376.695 31.4213 376.646C55.6269 374.238 79.8563 372.106 104.11 370.249C113.015 369.542 122.039 369.255 130.911 368.308C131.673 368.227 132.264 368.182 132.869 367.702C133.308 365.461 133.218 317.363 132.807 315.62C132.381 315.124 132.25 315.1 131.588 314.966ZM47.8271 372.635C42.9424 372.931 38.0539 373.432 33.1868 373.935L32.7115 373.772C31.982 371.749 32.4414 359.061 32.4404 356.072C37.3069 355.161 42.2732 354.478 47.1892 353.897L47.5895 353.895C48.0879 354.734 47.8204 370.464 47.8271 372.635ZM47.8638 351.387C43.4848 352.134 39.0232 352.462 34.6312 353.182C33.9243 353.295 33.2628 353.394 32.5429 353.378C32.6045 353.197 32.684 353.017 32.7079 352.827L32.4589 352.684C32.321 347.489 32.4739 342.242 32.494 337.042L46.6902 334.286C47.2256 334.184 47.2789 334.123 47.8235 334.302C48.3296 336.748 47.8746 347.998 47.8638 351.387ZM50.158 333.51C52.5661 333.033 54.9784 332.576 57.3943 332.138C57.9019 332.67 57.6433 347.952 57.6404 349.956C55.2619 350.289 52.8627 350.539 50.4785 350.83C49.7279 349.341 50.1596 336.113 50.158 333.51ZM57.6941 371.669C55.3667 371.92 53.0284 372.103 50.6972 372.318L50.2438 372.11C49.9297 370.297 50.1462 368.097 50.1423 366.238L50.1251 353.405C52.5179 353.128 54.9066 352.764 57.2937 352.438L57.5185 352.445C58.1171 353.611 57.7011 369.046 57.6941 371.669ZM76.5335 369.963C71.2676 370.608 65.8968 370.883 60.6063 371.342L60.2491 371.249C59.6518 369.898 60.0547 354.7 60.0572 351.926L76.1261 349.792C76.3314 349.792 76.1823 349.776 76.5057 350.036C76.726 356.654 76.5364 363.338 76.5335 369.963ZM76.4866 347.176C71.3787 348.001 66.2566 348.722 61.12 349.342C60.7733 349.425 60.5492 349.392 60.199 349.356C59.5464 347.152 59.9937 334.703 59.9965 331.597C65.0712 330.519 70.155 329.485 75.2482 328.496C75.7516 328.386 75.8385 328.369 76.3573 328.52C76.9833 330.953 76.5006 343.633 76.4866 347.176ZM94.9732 368.493C90.4605 368.98 85.9133 369.276 81.3891 369.654C80.597 369.756 79.7586 369.744 78.9599 369.781L78.9464 349.332L92.648 347.357L94.994 347.132L94.9732 368.493ZM94.8889 344.565C89.8753 345.514 84.6963 346.054 79.6475 346.843C79.2456 346.739 79.4442 346.838 79.0815 346.496C78.488 341.605 78.9685 333.078 78.9966 327.836C84.0236 326.548 89.2045 325.655 94.289 324.605L94.5767 324.612C94.6709 324.712 94.8062 324.784 94.8599 324.911C95.221 325.764 94.8924 342.215 94.8889 344.565ZM105.798 367.506C103.139 367.856 100.441 368.06 97.7683 368.297L97.4024 368.052C97.0091 365.787 97.2623 363.123 97.2626 360.811L97.2776 346.774C99.9524 346.324 102.675 346.034 105.365 345.674L105.586 345.697C106.166 346.606 105.796 364.85 105.798 367.506ZM105.805 329.615L105.751 343.159C103.026 343.558 100.296 343.92 97.5611 344.245C96.8942 343.26 97.2648 326.548 97.2581 323.94C100.012 323.514 102.759 322.957 105.502 322.46L105.479 322.634L105.688 322.54C106.125 324.69 105.817 327.403 105.805 329.615ZM110.63 367.294L108.174 367.421L108.116 345.236L127.974 342.525L130.427 342.289L130.462 365.622C123.887 366.373 117.224 366.688 110.63 367.294ZM130.412 339.482C123.144 340.889 115.736 341.713 108.413 342.815C107.64 341.501 108.21 324.861 108.245 321.938L130.149 317.631C130.649 318.266 130.409 337.443 130.412 339.482Z" fill="white"/>
<path d="M30.3367 208.799C30.8762 208.977 30.821 209.034 31.4113 208.861C52.4408 197.726 73.0607 185.666 93.81 174.015C102.832 169.015 111.827 163.966 120.796 158.87C124.713 156.649 128.873 154.591 132.652 152.153C132.697 139.424 132.672 126.697 132.576 113.968C132.569 111.619 132.951 101.668 132.404 100.006C131.948 99.5791 131.84 99.5264 131.183 99.5095C131.105 99.507 131.028 99.5245 130.951 99.5322C124.74 103.253 118.791 107.604 112.795 111.668C100.696 119.819 88.6476 128.043 76.6505 136.343L44.3438 158.34C39.5409 161.674 34.4145 164.809 29.9031 168.51C29.8932 173.252 29.5321 207.056 29.9705 208.24C30.048 208.449 30.2147 208.613 30.3367 208.799ZM105.952 164.446C103.217 166.065 100.386 167.55 97.6015 169.085C96.9377 166.839 97.3786 151.705 97.3815 148.172C100.189 146.431 102.967 144.644 105.715 142.81C106.347 143.483 105.961 161.92 105.952 164.446ZM108.401 117.647C115.52 112.683 122.681 107.78 129.883 102.937C130.468 103.705 130.157 122.556 130.154 125.163C123.347 129.924 115.76 133.892 108.647 138.203C108.114 137.556 108.396 120.03 108.401 117.647ZM108.45 141.11C115.347 136.47 122.748 132.25 129.954 128.105C130.388 128.551 130.185 148.455 130.182 150.85L108.75 162.983C108.019 161.886 108.445 143.935 108.45 141.11ZM97.2784 138.324L97.319 125.17C100.226 123.292 103.098 121.362 105.934 119.379C106.267 126.234 105.996 133.217 105.999 140.087C103.052 141.688 100.233 143.634 97.4013 145.435C97.0872 143.152 97.2736 140.635 97.2784 138.324ZM78.9475 137.779C83.9835 133.867 89.5128 130.419 94.8268 126.892C95.3667 127.671 94.996 144.382 94.9983 146.849C89.9007 150.141 84.584 153.152 79.3412 156.207C79.1547 156.215 79.2959 156.222 78.9648 155.994C78.7317 149.954 78.9405 143.828 78.9475 137.779ZM78.9278 159.256C84.1017 155.855 89.6287 152.916 94.8792 149.611C95.4388 150.221 95.1209 168.043 95.1173 170.601C89.7813 173.538 84.5378 176.636 79.1873 179.547C78.5261 178.315 78.9239 162.01 78.9278 159.256ZM60.0858 150.644C65.4835 146.822 70.8671 143.007 76.4334 139.433C76.9193 140.109 76.6581 155.878 76.6665 158.027C71.316 161.623 65.5422 164.67 60.127 168.207C59.2547 166.978 59.9973 152.873 60.0858 150.644ZM59.7956 171.263C64.9873 167.497 70.831 164.28 76.2923 160.899L76.6578 161.083C76.8768 167.673 76.6042 174.387 76.5975 180.992C71.0976 183.99 65.7018 187.173 60.1883 190.149L59.8064 189.951C59.34 184.111 59.7764 177.217 59.7956 171.263ZM50.3107 157.263C52.6017 155.629 54.9333 154.045 57.246 152.441C57.4612 152.479 57.3172 152.436 57.6128 152.704L57.4838 153.624L57.9445 153.658C57.2974 154.589 57.5831 167.641 57.5898 169.789C55.3799 171.355 53.0388 172.778 50.7622 174.248L50.5799 174.242C49.9305 173.471 50.3066 159.315 50.3107 157.263ZM57.3207 172.751C57.6942 174.625 57.4334 177.007 57.4267 178.942L57.375 191.598C55.1207 192.869 52.7272 194.505 50.2801 195.33C50.313 189.384 50.0968 183.421 50.0432 177.474C52.4118 175.831 54.8975 174.317 57.3207 172.751ZM32.2947 169.745C37.05 165.879 42.4998 162.617 47.5948 159.212C47.8128 159.249 47.6634 159.207 47.9757 159.479L48.0086 175.958C42.8634 179.222 37.8775 182.726 32.7043 185.949L32.6379 185.928C31.9942 185.219 32.2994 171.727 32.2947 169.745ZM32.2892 189.425C36.9894 185.528 42.5288 182.281 47.6947 179.025C48.3042 181.19 47.9268 193.781 47.9335 197.036C42.9078 200.03 37.792 202.862 32.5861 205.531C31.7404 204.227 32.2739 191.849 32.2892 189.425Z" fill="white"/>
<path d="M31.1317 265.201C38.3039 262.902 45.3237 259.625 52.2762 256.732C61.0858 253.165 69.913 249.644 78.7584 246.167L114.328 232.006L125.973 227.444C128.137 226.595 130.532 225.824 132.537 224.653C132.631 218.247 132.933 172.666 132.348 171.44C131.97 171.226 131.764 171.099 131.328 171.031C124.398 174.954 117.226 178.369 110.191 182.088C94.1942 190.692 78.101 199.112 61.9117 207.348C54.4714 211.048 47.0819 214.848 39.7437 218.748C36.508 220.44 33.1794 221.945 30.0456 223.826C29.8477 228.724 29.3716 262.12 30.2509 264.773C30.5615 264.965 30.7773 265.099 31.1317 265.201ZM105.975 218.861L105.975 232.767L97.8851 236.013C97.6319 236.015 97.7922 236.042 97.4739 235.752C97.2361 228.783 97.4749 221.732 97.4947 214.755C100.127 213.397 102.893 212.224 105.572 210.951L105.874 211.204C106.11 213.718 105.974 216.334 105.975 218.861ZM108.378 185.967C115.34 181.922 122.699 178.459 129.832 174.711C129.859 174.735 129.892 174.753 129.913 174.782C130.441 175.491 130.183 194.667 130.185 197.189C122.928 200.26 115.826 203.833 108.637 207.077C107.994 205.946 108.371 188.763 108.378 185.967ZM108.358 224.921L108.363 209.719C115.524 206.286 122.83 203.114 130.068 199.845C130.568 202.024 130.216 205.048 130.21 207.316L130.156 223.168C123.169 226.355 115.7 229.046 108.497 231.729C108.055 229.71 108.358 227.009 108.358 224.921ZM97.4034 210.109C97.6141 203.976 97.4892 197.803 97.4883 191.664C100.197 190.319 102.88 188.924 105.537 187.479L105.831 187.593C106.291 189.059 105.941 205.593 105.951 208.323C103.268 209.509 100.599 210.724 97.9442 211.969C97.7896 211.922 97.6808 211.782 97.5547 211.681L97.7268 210.36L97.245 210.234L97.4034 210.109ZM78.9173 201.23C84.1098 198.377 89.4656 195.772 94.7315 193.055C94.8793 193.082 94.9824 193.221 95.1012 193.312L95.0156 194.533L95.483 194.65L95.1673 194.781C95.1318 200.912 95.1325 207.042 95.1698 213.173C90.0499 215.837 84.6017 218.101 79.3391 220.484C79.1964 220.481 79.0897 220.345 78.9694 220.269C78.7034 213.957 78.9202 207.552 78.9173 201.23ZM78.8627 223.199C84.1711 220.886 89.4404 218.487 94.6705 216.003C94.7063 216.013 94.7484 216.01 94.7784 216.032C95.2206 216.354 95.1031 216.852 95.1395 217.359L95.4054 217.463L95.1452 217.603C95.2889 224.095 95.1781 230.615 95.1896 237.111C89.9547 239.338 84.6736 241.449 79.3455 243.443H79.2318C79.1319 243.336 78.9853 243.256 78.9311 243.12C78.6297 242.361 78.8685 225.564 78.8627 223.199ZM76.5111 244.659C71.1182 246.562 65.7907 248.745 60.424 250.736C60.175 250.751 60.334 250.769 60.0083 250.494C59.8091 244.331 59.9151 238.098 60 231.931C65.2892 229.312 70.7459 226.946 76.1139 224.487L76.4731 224.736C76.9181 230.793 76.514 238.426 76.5111 244.659ZM59.9291 211.124C65.1758 208.054 70.7919 205.666 76.1015 202.704L76.3591 202.75C76.8734 203.648 76.5673 219.36 76.5679 221.79C71.0023 223.905 65.6068 226.694 60.226 229.24C60.0332 229.195 60.1724 229.24 59.8809 228.971C59.8682 223.028 59.7612 217.064 59.9291 211.124ZM50.2847 215.829C52.6258 214.708 54.9596 213.57 57.2854 212.416C57.8262 213.207 57.4894 228.339 57.4951 230.588C55.4503 231.542 52.4761 233.327 50.2713 233.627L50.2847 215.829ZM50.2313 236.447C52.5099 235.494 54.7466 234.434 56.9926 233.406C57.1602 233.448 57.2889 233.584 57.4319 233.681C57.6241 235.796 57.4705 238.048 57.4632 240.177C57.4479 244.14 57.4552 248.103 57.4846 252.066C55.191 252.86 52.9422 253.858 50.6904 254.767L50.3996 254.638C49.7828 252.631 50.2243 239.451 50.2313 236.447ZM32.5199 225.248C37.3601 222.432 42.5551 220.098 47.5042 217.462L47.7414 217.694C48.1 219.642 47.8522 221.906 47.8411 223.907L47.812 235.198L32.8407 241.947C32.0429 240.952 32.5068 227.453 32.5199 225.248ZM32.4384 244.641C37.589 242.63 42.6292 240.093 47.6607 237.791C48.3247 238.517 47.9528 253.72 47.9435 255.936C42.8546 257.746 37.8681 260.084 32.8081 262.018C32.1351 261.314 32.4378 246.801 32.4384 244.641Z" fill="white"/>
<path d="M293.5 173L179 141V85L293.5 124V173Z" stroke="white" stroke-width="2"/>
<path d="M293.5 237.5L179 212V163.5L293.5 191V237.5Z" stroke="white" stroke-width="2"/>
</svg>
