<svg width="48" height="48" viewBox="0 0 48 48" fill="none" xmlns="http://www.w3.org/2000/svg">
<path fill-rule="evenodd" clip-rule="evenodd" d="M45.55 16C45.8491 17.3123 46 18.654 46 20H28V2C32.0787 1.99998 36.0365 3.38521 39.225 5.92873C42.4135 8.47225 44.6436 12.0233 45.55 16ZM41.416 16C40.7517 13.7721 39.5431 11.7447 37.8992 10.1008C36.2553 8.45693 34.2279 7.24829 32 6.584V16H41.416Z" fill="#0CA4D4"/>
<path fill-rule="evenodd" clip-rule="evenodd" d="M2 28.0001C1.99999 25.2964 2.60905 22.6274 3.78194 20.1914C4.95483 17.7553 6.66143 15.6148 8.775 13.9288C10.8886 12.2427 13.3548 11.0545 15.9906 10.4522C18.6263 9.84999 21.3639 9.84925 24 10.4501V24.0001H37.55C38.113 26.4703 38.1481 29.0316 37.6531 31.5164C37.1582 34.0011 36.1442 36.3534 34.6776 38.4193C33.211 40.4853 31.3248 42.2184 29.1423 43.5052C26.9599 44.792 24.5303 45.6036 22.0126 45.8869C19.4949 46.1702 16.9458 45.9188 14.5319 45.1491C12.1181 44.3794 9.89388 43.1089 8.00485 41.4205C6.11581 39.7321 4.60449 37.664 3.56972 35.3513C2.53494 33.0387 2.00004 30.5337 2 28.0001ZM33.608 28.0001H20V14.3921C17.3086 14.3921 14.6776 15.1902 12.4398 16.6854C10.202 18.1807 8.4578 20.306 7.42785 22.7925C6.39789 25.2791 6.12841 28.0152 6.65347 30.6549C7.17854 33.2946 8.47458 35.7193 10.3777 37.6224C12.2808 39.5255 14.7055 40.8215 17.3452 41.3466C19.9849 41.8717 22.721 41.6022 25.2076 40.5722C27.6941 39.5423 29.8194 37.7981 31.3146 35.5603C32.8099 33.3224 33.608 30.6915 33.608 28.0001Z" fill="#0CA4D4"/>
</svg>
