<svg width="48" height="50" viewBox="0 0 48 50" fill="none" xmlns="http://www.w3.org/2000/svg">
<path d="M17.4008 26.43C20.3008 26.43 21.5008 24.2447 21.5008 21.1231C21.5008 18.0014 20.3008 15.8164 17.4008 15.8164C14.5008 15.8164 13.3008 18.0014 13.3008 21.1231C13.3008 24.2447 14.5008 26.43 17.4008 26.43ZM17.4008 18.9381C18.4008 18.9381 18.5008 19.9786 18.5008 21.2272C18.5008 22.4759 18.4008 23.5164 17.4008 23.5164C16.4008 23.5164 16.3008 22.4759 16.3008 21.2272C16.3008 19.9786 16.4008 18.9381 17.4008 18.9381Z" fill="#686FF2"/>
<path d="M24.7012 21.4352C26.1012 21.4352 27.1011 20.6027 27.1011 18.8338C27.1011 17.0649 26.0012 16.2324 24.7012 16.2324C23.4012 16.2324 22.2012 17.0649 22.2012 18.8338C22.2012 20.6027 23.3012 21.4352 24.7012 21.4352ZM24.7012 18.1055C25.0012 18.1055 25.2012 18.3135 25.2012 18.8338C25.2012 19.3541 25.0012 19.5621 24.7012 19.5621C24.4012 19.5621 24.2012 19.3541 24.2012 18.8338C24.2012 18.3135 24.4012 18.1055 24.7012 18.1055Z" fill="#686FF2"/>
<path d="M27.3004 26.5345L32.4004 16.4409H29.5004L24.4004 26.5345H27.3004Z" fill="#686FF2"/>
<path d="M40.1008 21.2275C38.6008 21.8519 36.5008 22.2681 35.0008 22.2681L36.6008 23.2045L34.1008 25.3898C34.3008 25.0776 34.4008 24.5573 34.4008 24.037C34.4008 22.268 33.4008 21.4356 32.0008 21.4356C30.6008 21.4356 29.5008 22.268 29.5008 24.037C29.5008 25.8059 30.6008 26.6384 32.0008 26.6384C33.4008 26.6384 32.6008 26.6385 32.9008 26.5345L26.7008 32.0492L14.7008 26.1181L7.80078 32.2575L8.80078 33.5061L14.9008 27.9911L26.9008 33.9222L37.6008 24.4534L38.3008 26.3261C38.5008 24.7653 39.3008 22.6843 40.1008 21.2275ZM32.0008 24.8695C31.7008 24.8695 31.5008 24.6614 31.5008 24.1411C31.5008 23.6209 31.7008 23.4128 32.0008 23.4128C32.3008 23.4128 32.5008 23.6209 32.5008 24.1411C32.5008 24.6614 32.3008 24.8695 32.0008 24.8695Z" fill="#686FF2"/>
<path d="M24 49.9465C10.8 49.9465 0 38.7086 0 24.9733C0 11.238 10.8 0 24 0C37.2 0 48 11.238 48 24.9733C48 38.7086 37.2 49.9465 24 49.9465ZM24 3.0175C12.4 3.0175 3 12.7987 3 24.8691C3 36.9395 12.4 46.7207 24 46.7207C35.6 46.7207 45 36.9395 45 24.8691C45 12.7987 35.6 3.0175 24 3.0175Z" fill="#686FF2"/>
</svg>
