<svg width="48" height="48" viewBox="0 0 48 48" fill="none" xmlns="http://www.w3.org/2000/svg">
<g clip-path="url(#clip0_3840_3195)">
<path d="M32.7992 42.0002H28.4912L24.4912 32.0002H11.5072L7.50722 42.0002H3.19922L15.9992 10.0002H19.9992L32.7992 42.0002ZM41.9992 24.0002V42.0002H37.9992V24.0002H41.9992ZM13.1072 28.0002H22.8912L17.9992 15.7702L13.1072 28.0002ZM39.0572 4.64019C39.1323 4.4517 39.2622 4.29007 39.4302 4.1762C39.5981 4.06233 39.7963 4.00146 39.9992 4.00146C40.2021 4.00146 40.4003 4.06233 40.5683 4.1762C40.7362 4.29007 40.8661 4.4517 40.9412 4.64019L41.4472 5.86019C42.2962 7.93034 43.9068 9.59606 45.9472 10.5142L47.3812 11.1542C47.5648 11.2391 47.7203 11.3749 47.8292 11.5453C47.9382 11.7158 47.9961 11.9139 47.9961 12.1162C47.9961 12.3185 47.9382 12.5166 47.8292 12.687C47.7203 12.8575 47.5648 12.9932 47.3812 13.0782L45.8652 13.7542C43.8745 14.646 42.2903 16.2516 41.4252 18.2542L40.9332 19.3862C40.8563 19.5705 40.7266 19.728 40.5604 19.8387C40.3942 19.9495 40.1989 20.0086 39.9992 20.0086C39.7995 20.0086 39.6042 19.9495 39.438 19.8387C39.2718 19.728 39.1421 19.5705 39.0652 19.3862L38.5712 18.2562C37.7071 16.2532 36.1236 14.6469 34.1332 13.7542L32.6132 13.0782C32.4291 12.9935 32.273 12.8577 32.1637 12.687C32.0543 12.5164 31.9962 12.3179 31.9962 12.1152C31.9962 11.9125 32.0543 11.714 32.1637 11.5433C32.273 11.3726 32.4291 11.2369 32.6132 11.1522L34.0492 10.5122C36.0897 9.59542 37.7009 7.9312 38.5512 5.86219L39.0572 4.64019Z" fill="#0CA4D4"/>
</g>
<defs>
<clipPath id="clip0_3840_3195">
<rect width="48" height="48" fill="white"/>
</clipPath>
</defs>
</svg>
