<svg width="48" height="48" viewBox="0 0 48 48" fill="none" xmlns="http://www.w3.org/2000/svg">
<path d="M23.7903 22.0496V34.1015C23.787 35.2147 23.5591 36.3158 23.12 37.3388C22.681 38.3618 22.0399 39.2856 21.2353 40.0549C20.4306 40.8242 19.4789 41.423 18.4372 41.8156C17.3955 42.2082 16.2853 42.3865 15.173 42.3396C14.0608 42.2928 12.9695 42.0219 11.9644 41.5431C10.9594 41.0643 10.0614 40.3876 9.32428 39.5534C8.58713 38.7192 8.02599 37.7448 7.6745 36.6885C7.32301 35.6322 7.18842 34.5159 7.27878 33.4063C5.5575 31.5575 4.4707 27.942 4.4707 24.9244C4.4707 20.814 6.48948 16.8159 9.37952 15.2404C9.22294 13.8046 9.50023 12.3549 10.1756 11.0783C10.851 9.80176 11.8934 8.75686 13.1684 8.07851C14.4434 7.40017 15.8925 7.11949 17.3286 7.27272C18.7647 7.42594 20.1219 8.00603 21.225 8.93812" stroke="#0BA3D3" stroke-width="3" stroke-linecap="round" stroke-linejoin="round"/>
<path d="M13.1992 20.1558C12.1367 19.913 9.73543 18.3344 9.37418 15.2622M9.49257 29.0719C8.41185 29.9249 7.54969 31.8556 7.27344 33.4039M23.791 34.1021C23.7942 35.2153 24.0222 36.3164 24.4612 37.3394C24.9002 38.3624 25.5413 39.2862 26.346 40.0555C27.1506 40.8248 28.1023 41.4236 29.144 41.8162C30.1857 42.2088 31.296 42.3871 32.4082 42.3402C33.5204 42.2934 34.6118 42.0225 35.6168 41.5437C36.6218 41.0649 37.5198 40.3882 38.2569 39.554C38.9941 38.7198 39.5552 37.7454 39.9067 36.6891C40.2582 35.6328 40.3928 34.5165 40.3025 33.4069C42.0237 31.5581 43.1075 27.9426 43.1075 24.925C43.1075 23.6075 42.9011 22.3021 42.5246 21.0848" stroke="#0BA3D3" stroke-width="3" stroke-linecap="round" stroke-linejoin="round"/>
<path d="M38.0885 29.0717C39.1692 29.9248 40.0314 31.8555 40.3076 33.4038M23.9844 15.596C22.9219 15.4078 22.9219 13.8808 23.9844 13.6956C25.871 13.3663 27.617 12.4833 29.0003 11.1588C30.3836 9.83444 31.3418 8.12851 31.7529 6.25804L31.8166 5.96357C32.0474 4.91016 33.547 4.90105 33.7868 5.95446L33.8627 6.2975C34.287 8.16074 35.253 9.85681 36.6391 11.1722C38.0253 12.4876 39.7696 13.3635 41.6525 13.6896C42.7241 13.8747 42.7241 15.4139 41.6525 15.6021C39.7696 15.9282 38.0253 16.8041 36.6391 18.1195C35.253 19.4348 34.287 21.1309 33.8627 22.9942L33.7868 23.3342C33.544 24.3845 32.0474 24.3785 31.8166 23.3251L31.7529 23.0336C31.3418 21.1631 30.3836 19.4572 29.0003 18.1328C27.617 16.8084 25.871 15.9254 23.9844 15.596Z" stroke="#0BA3D3" stroke-width="3" stroke-linecap="round" stroke-linejoin="round"/>
</svg>
