<svg width="48" height="48" viewBox="0 0 48 48" fill="none" xmlns="http://www.w3.org/2000/svg">
<path d="M6.32209 8.93784C8.64221 6.6173 11.7541 5.26001 15.0333 5.13834C18.3125 5.01667 21.5164 6.13961 24.0021 8.28184C26.4856 6.14318 29.6853 5.0215 32.9605 5.14136C36.2358 5.26123 39.3449 6.61378 41.6654 8.92825C43.986 11.2427 45.3467 14.3483 45.4751 17.6232C45.6035 20.8982 44.4902 24.1007 42.3581 26.5898L26.8281 42.1698C26.1146 42.8836 25.1576 43.3013 24.1491 43.3391C23.1406 43.3769 22.1551 43.0321 21.3901 42.3738L21.1701 42.1718L5.64209 26.5898C3.51106 24.1029 2.39724 20.9033 2.52332 17.6306C2.64939 14.358 4.00606 11.2535 6.32209 8.93784ZM9.15008 11.7658C7.51457 13.4018 6.57179 15.6047 6.51742 17.9174C6.46305 20.23 7.30126 22.4748 8.85809 24.1858L9.15008 24.4938L24.0001 39.3438L34.6061 28.7338L27.5361 21.6658L25.4161 23.7858C24.291 24.9114 22.7649 25.544 21.1735 25.5443C19.5821 25.5447 18.0557 24.9129 16.9301 23.7878C15.8045 22.6628 15.172 21.1367 15.1716 19.5453C15.1712 17.9538 15.803 16.4274 16.9281 15.3018L21.1321 11.0958C19.4592 9.7602 17.365 9.06459 15.2254 9.13387C13.0859 9.20315 11.0411 10.0328 9.45809 11.4738L9.15008 11.7658ZM26.1221 17.4218C26.4971 17.0469 27.0058 16.8363 27.5361 16.8363C28.0664 16.8363 28.575 17.0469 28.9501 17.4218L37.4341 25.9058L38.8501 24.4938C40.513 22.8321 41.4597 20.5857 41.4878 18.235C41.5158 15.8843 40.6229 13.6159 39.0001 11.915C37.3773 10.214 35.1534 9.21558 32.804 9.13315C30.4545 9.05071 28.1661 9.89084 26.4281 11.4738L26.1221 11.7658L19.7581 18.1298C19.4114 18.4763 19.204 18.9379 19.1753 19.4272C19.1465 19.9164 19.2984 20.3992 19.6021 20.7838L19.7581 20.9578C20.1045 21.3045 20.5662 21.5119 21.0554 21.5407C21.5447 21.5694 22.0274 21.4175 22.4121 21.1138L22.5861 20.9578L26.1221 17.4218Z" fill="#686FF2"/>
</svg>
