<svg width="524" height="383" viewBox="0 0 524 383" fill="none" xmlns="http://www.w3.org/2000/svg">
<path d="M491.678 388.867C490.931 388.867 490.325 388.114 490.325 387.186V242.697L365.136 193.54V387.187C365.136 388.115 364.53 388.868 363.783 388.868C363.036 388.868 362.43 388.115 362.43 387.187V191.246C362.43 190.71 362.635 190.207 362.983 189.89C363.331 189.573 363.779 189.481 364.19 189.643L492.086 239.863C492.649 240.084 493.031 240.733 493.031 241.466V387.187C493.031 388.114 492.425 388.867 491.678 388.867Z" fill="white" fill-opacity="0.7"/>
<path d="M310.769 205.687C310.457 205.687 310.152 205.554 309.908 205.303C309.596 204.984 309.416 204.508 309.416 204.006V134.439C309.416 133.511 310.022 132.758 310.769 132.758C311.516 132.758 312.122 133.511 312.122 134.439V201.968L363.526 189.595C364.258 189.42 364.969 190.014 365.112 190.926C365.254 191.837 364.774 192.719 364.04 192.896L311.026 205.657C310.941 205.677 310.854 205.687 310.769 205.687Z" fill="white" fill-opacity="0.7"/>
<path d="M73.2027 300.776C72.4556 300.776 71.8496 300.023 71.8496 299.095V263.057C71.8496 262.208 72.3597 261.492 73.0383 261.389L126.052 253.334C126.798 253.223 127.469 253.877 127.559 254.798C127.65 255.72 127.122 256.558 126.381 256.671L74.5555 264.545V299.095C74.5555 300.023 73.9495 300.776 73.2027 300.776Z" fill="white" fill-opacity="0.7"/>
<path d="M20.189 388.867C19.4419 388.867 18.8359 388.115 18.8359 387.186V306.916C18.8359 306.065 19.3486 305.348 20.0292 305.247L73.0427 297.426C73.7874 297.317 74.458 297.975 74.546 298.897C74.6339 299.819 74.104 300.655 73.3621 300.764L21.5418 308.41V387.187C21.542 388.115 20.9361 388.867 20.189 388.867Z" fill="white" fill-opacity="0.7"/>
<path d="M126.218 256.683C125.471 256.683 124.865 255.931 124.865 255.002V184.865C124.865 184.076 125.307 183.393 125.928 183.224L310.481 132.798C311.21 132.597 311.933 133.171 312.093 134.078C312.254 134.985 311.792 135.881 311.063 136.081L127.571 186.216V255.002C127.571 255.931 126.965 256.683 126.218 256.683Z" fill="white" fill-opacity="0.7"/>
<path d="M157.529 388.867C156.782 388.867 156.176 388.115 156.176 387.186V334.136C156.176 333.269 156.706 332.545 157.401 332.462L233.442 323.496C234.19 323.41 234.847 324.087 234.917 325.011C234.988 325.935 234.442 326.755 233.698 326.843L158.882 335.665V387.186C158.882 388.115 158.276 388.867 157.529 388.867Z" fill="white" fill-opacity="0.7"/>
<path d="M92.7534 250.411C92.0064 250.411 91.4004 249.658 91.4004 248.73V79.9008C91.4004 79.1471 91.8044 78.4856 92.3884 78.2822L276.939 14.0636C277.661 13.8135 278.406 14.3348 278.607 15.2289C278.809 16.1228 278.389 17.0504 277.669 17.3008L94.1063 81.1755V248.73C94.1063 249.658 93.5005 250.411 92.7534 250.411Z" fill="white" fill-opacity="0.7"/>
<path d="M322.249 140.628C321.627 140.628 321.067 140.093 320.928 139.308C320.768 138.401 321.229 137.504 321.959 137.305L394.503 117.483C395.234 117.282 395.954 117.858 396.115 118.764C396.275 119.671 395.814 120.567 395.084 120.767L322.54 140.588C322.443 140.615 322.345 140.628 322.249 140.628Z" fill="white" fill-opacity="0.7"/>
<path d="M478.816 238.095C478.069 238.095 477.463 237.342 477.463 236.414V152.118C477.463 151.189 478.069 150.437 478.816 150.437C479.563 150.437 480.169 151.189 480.169 152.118V236.414C480.169 237.342 479.563 238.095 478.816 238.095Z" fill="white" fill-opacity="0.7"/>
<path d="M478.815 153.799C478.68 153.799 478.542 153.774 478.407 153.72L394.385 120.728C393.673 120.448 393.277 119.504 393.503 118.619C393.728 117.734 394.488 117.243 395.2 117.523L479.222 150.515C479.934 150.795 480.33 151.739 480.105 152.624C479.922 153.341 479.389 153.799 478.815 153.799Z" fill="white" fill-opacity="0.7"/>
<path d="M277.306 144.959C276.559 144.959 275.953 144.206 275.953 143.278V15.6807C275.953 15.1586 276.148 14.6661 276.482 14.3479C276.815 14.03 277.248 13.9222 277.654 14.0567L327.207 30.4611C327.227 30.4676 327.246 30.4746 327.266 30.4824L411.288 63.4749C412.001 63.7547 412.396 64.6988 412.171 65.5843C411.945 66.4692 411.184 66.9598 410.473 66.6805L326.48 33.6996L278.659 17.8685V143.279C278.659 144.206 278.053 144.959 277.306 144.959Z" fill="white" fill-opacity="0.7"/>
<path d="M394.791 169.112C394.655 169.112 394.517 169.087 394.384 169.034L310.362 136.042C309.649 135.762 309.254 134.818 309.479 133.933C309.704 133.047 310.465 132.555 311.177 132.837L393.438 165.137V119.125C393.438 118.197 394.044 117.444 394.791 117.444C395.539 117.444 396.144 118.197 396.144 119.125V167.431C396.144 167.967 395.939 168.471 395.591 168.787C395.356 169.001 395.075 169.112 394.791 169.112Z" fill="white" fill-opacity="0.7"/>
<path d="M410.878 127.123C410.131 127.123 409.525 126.37 409.525 125.442V65.0775C409.525 64.1491 410.131 63.3965 410.878 63.3965C411.626 63.3965 412.232 64.1491 412.232 65.0775V125.442C412.231 126.371 411.626 127.123 410.878 127.123Z" fill="white" fill-opacity="0.7"/>
<path d="M100.244 78.9769C99.4966 78.9769 98.8906 78.2243 98.8906 77.2962V52.9344C98.8906 52.1978 99.2763 51.5471 99.8427 51.3291L144.702 34.0403C145.112 33.8823 145.559 33.9752 145.905 34.2924C146.251 34.6092 146.455 35.1114 146.455 35.6457V60.0074C146.455 60.9358 145.849 61.6881 145.102 61.6881C144.355 61.6881 143.749 60.9355 143.749 60.0074V37.9269L101.597 54.1727V77.2962C101.597 78.2243 100.991 78.9769 100.244 78.9769Z" fill="white" fill-opacity="0.7"/>
<path d="M145.103 61.6878C144.356 61.6878 143.75 60.9352 143.75 60.0071V35.6454C143.75 35.1111 143.954 34.6089 144.3 34.2921C144.647 33.9752 145.093 33.882 145.504 34.04L181.011 47.7245C181.724 47.9995 182.123 48.9414 181.902 49.828C181.68 50.7148 180.922 51.2118 180.209 50.9352L146.456 37.9268V60.0074C146.456 60.9355 145.85 61.6878 145.103 61.6878Z" fill="white" fill-opacity="0.7"/>
<path d="M348.709 123.101C348.637 123.101 348.565 123.093 348.492 123.079L329.11 119.169C328.456 119.037 327.974 118.335 327.974 117.51V103.277L313.997 99.9463C313.359 99.7942 312.898 99.1016 312.898 98.2956V70.9936C312.898 70.4812 313.087 69.9971 313.409 69.6781C313.732 69.3591 314.155 69.2405 314.556 69.3558L327.974 73.207V57.1C327.974 56.5735 328.173 56.0773 328.511 55.7596C328.849 55.442 329.288 55.3401 329.695 55.4822L349.077 62.2777C349.66 62.4822 350.062 63.1429 350.062 63.8955V77.5079L364.117 81.9177C364.717 82.1062 365.138 82.7775 365.138 83.5473V110.1C365.138 110.602 364.958 111.077 364.647 111.396C364.336 111.715 363.925 111.846 363.53 111.751L350.062 108.542V121.42C350.062 121.913 349.888 122.38 349.586 122.7C349.339 122.96 349.028 123.101 348.709 123.101ZM330.68 116.08L347.356 119.444V106.508C347.356 106.006 347.536 105.531 347.847 105.212C348.159 104.893 348.569 104.763 348.964 104.857L362.432 108.066V84.8564L348.378 80.4466C347.777 80.258 347.356 79.5868 347.356 78.8169V65.1675L330.68 59.321V75.3207C330.68 75.8331 330.492 76.3172 330.17 76.6362C329.847 76.9555 329.424 77.0738 329.023 76.9585L315.605 73.1073V96.9066L329.582 100.237C330.219 100.389 330.68 101.082 330.68 101.888V116.08H330.68Z" fill="white" fill-opacity="0.7"/>
<path d="M106.337 133.073C106.042 133.073 105.751 132.952 105.511 132.723C105.179 132.405 104.984 131.913 104.984 131.392V111.447C104.984 110.684 105.399 110.016 105.993 109.822L260.396 59.2766C260.801 59.144 261.234 59.2523 261.566 59.5705C261.898 59.8887 262.093 60.3806 262.093 60.902V80.8517C262.093 81.6151 261.679 82.2826 261.085 82.4771L106.682 133.017C106.568 133.054 106.452 133.073 106.337 133.073ZM107.69 112.743V129.21L259.387 79.5565V63.0832L107.69 112.743Z" fill="white" fill-opacity="0.7"/>
<path d="M106.337 174.32C106.037 174.32 105.741 174.195 105.5 173.96C105.175 173.641 104.984 173.154 104.984 172.639V152.694C104.984 151.918 105.412 151.242 106.02 151.06L260.423 104.807C260.826 104.687 261.252 104.802 261.577 105.121C261.903 105.439 262.093 105.926 262.093 106.441V126.39C262.093 127.167 261.665 127.842 261.057 128.024L106.654 174.273C106.549 174.305 106.443 174.32 106.337 174.32ZM107.69 154.019V170.505L259.387 125.067V108.576L107.69 154.019Z" fill="white" fill-opacity="0.7"/>
<path d="M120.666 300.87C120.346 300.87 120.033 300.728 119.787 300.467C119.486 300.148 119.312 299.681 119.312 299.189V279.244C119.312 278.417 119.797 277.713 120.454 277.584L274.857 247.257C275.25 247.181 275.647 247.32 275.948 247.639C276.248 247.958 276.422 248.425 276.422 248.917V268.866C276.422 269.693 275.937 270.398 275.28 270.526L120.877 300.849C120.806 300.863 120.736 300.87 120.666 300.87ZM122.019 280.68V297.221L273.716 267.43V250.884L122.019 280.68Z" fill="white" fill-opacity="0.7"/>
<path d="M283.638 269.054C283.318 269.054 283.005 268.913 282.757 268.65C282.448 268.32 282.275 267.835 282.286 267.33L282.707 247.387C282.724 246.591 283.188 245.919 283.818 245.777L311.129 239.617C311.53 239.526 311.942 239.666 312.251 239.994C312.561 240.324 312.734 240.808 312.723 241.314L312.302 261.257C312.285 262.053 311.821 262.725 311.191 262.867L283.88 269.027C283.799 269.045 283.719 269.054 283.638 269.054ZM285.384 248.841L285.035 265.35L309.626 259.804L309.975 243.294L285.384 248.841Z" fill="white" fill-opacity="0.7"/>
<path d="M321.271 260.565C320.95 260.565 320.637 260.423 320.39 260.16C320.081 259.831 319.908 259.346 319.918 258.84L320.34 238.897C320.357 238.102 320.821 237.43 321.452 237.288L346.264 231.689C346.665 231.598 347.077 231.738 347.386 232.067C347.696 232.396 347.869 232.881 347.858 233.387L347.436 253.33C347.419 254.126 346.956 254.798 346.325 254.94L321.513 260.538C321.432 260.556 321.351 260.565 321.271 260.565ZM323.017 240.351L322.667 256.861L344.76 251.876L345.109 235.366L323.017 240.351Z" fill="white" fill-opacity="0.7"/>
<path d="M82.0111 307.793C81.6906 307.793 81.3777 307.652 81.1305 307.388C80.8213 307.059 80.648 306.574 80.6587 306.068L81.0807 286.125C81.0977 285.33 81.5612 284.658 82.1917 284.516L107.004 278.918C107.405 278.826 107.818 278.967 108.127 279.295C108.436 279.625 108.609 280.11 108.599 280.616L108.176 300.558C108.16 301.354 107.696 302.026 107.065 302.168L82.2526 307.766C82.1724 307.784 82.0915 307.793 82.0111 307.793ZM83.7566 287.579L83.4074 304.089L105.5 299.104L105.849 282.595L83.7566 287.579Z" fill="white" fill-opacity="0.7"/>
<path d="M282.33 330.899C282.004 330.899 281.687 330.753 281.438 330.483C281.136 330.153 280.967 329.673 280.977 329.174L281.399 309.232C281.416 308.423 281.895 307.743 282.538 307.616L309.833 302.195C310.231 302.118 310.635 302.261 310.938 302.59C311.241 302.92 311.41 303.399 311.399 303.899L310.978 323.841C310.96 324.65 310.482 325.329 309.839 325.457L282.543 330.878C282.472 330.892 282.401 330.899 282.33 330.899ZM284.075 310.715L283.725 327.239L308.302 322.358L308.652 305.834L284.075 310.715Z" fill="white" fill-opacity="0.7"/>
<path d="M319.943 323.427C319.617 323.427 319.3 323.281 319.052 323.011C318.749 322.681 318.58 322.202 318.59 321.702L319.012 301.764C319.029 300.955 319.508 300.276 320.151 300.149L344.949 295.222C345.348 295.144 345.752 295.288 346.054 295.618C346.357 295.947 346.526 296.427 346.516 296.926L346.094 316.869C346.076 317.678 345.598 318.357 344.954 318.484L320.156 323.406C320.085 323.42 320.014 323.427 319.943 323.427ZM321.688 303.248L321.338 319.767L343.418 315.385L343.768 298.862L321.688 303.248Z" fill="white" fill-opacity="0.7"/>
<path d="M44.1656 359.092C43.8266 359.092 43.4981 358.934 43.2467 358.645C42.961 358.316 42.8027 357.851 42.813 357.367L43.235 337.425C43.253 336.581 43.7714 335.884 44.4472 335.797L72.1646 332.205C72.5522 332.154 72.9377 332.314 73.2239 332.643C73.5096 332.971 73.6679 333.437 73.6576 333.921L73.2356 353.864C73.2176 354.708 72.6992 355.404 72.0235 355.491L44.306 359.084C44.2591 359.089 44.2119 359.092 44.1656 359.092ZM45.9087 338.987L45.5584 355.541L70.5617 352.301L70.912 335.747L45.9087 338.987Z" fill="white" fill-opacity="0.7"/>
<path d="M83.1421 353.414C82.8103 353.414 82.4875 353.262 82.2376 352.983C81.9432 352.654 81.7793 352.181 81.7895 351.689L82.2111 331.752C82.2285 330.927 82.7255 330.239 83.3843 330.13L107.03 326.198C107.421 326.13 107.819 326.284 108.113 326.613C108.408 326.942 108.572 327.416 108.562 327.908L108.14 347.85C108.122 348.676 107.625 349.363 106.967 349.472L83.3215 353.399C83.2615 353.409 83.2019 353.414 83.1421 353.414ZM84.8863 333.272L84.5365 349.806L105.465 346.33L105.815 329.791L84.8863 333.272Z" fill="white" fill-opacity="0.7"/>
<path d="M466.048 185.486C465.911 185.486 465.774 185.46 465.64 185.408L407.15 162.437C406.587 162.216 406.205 161.568 406.205 160.835V141.529C406.205 140.993 406.41 140.489 406.758 140.173C407.106 139.856 407.554 139.764 407.966 139.926L466.456 162.896C467.019 163.117 467.401 163.766 467.401 164.499V183.805C467.401 184.341 467.196 184.844 466.848 185.161C466.613 185.375 466.332 185.486 466.048 185.486ZM408.911 159.603L464.695 181.511V165.731L408.911 143.823V159.603Z" fill="white" fill-opacity="0.7"/>
<path d="M466.048 220.396C465.911 220.396 465.774 220.37 465.64 220.317L407.15 197.347C406.587 197.126 406.205 196.478 406.205 195.744V176.439C406.205 175.903 406.41 175.399 406.758 175.083C407.106 174.766 407.554 174.675 407.966 174.837L466.456 197.807C467.019 198.028 467.401 198.676 467.401 199.409V218.715C467.401 219.251 467.196 219.754 466.848 220.071C466.613 220.285 466.332 220.396 466.048 220.396ZM408.911 194.513L464.695 216.421V200.641L408.911 178.734V194.513Z" fill="white" fill-opacity="0.7"/>
<path d="M399.901 272.341C399.779 272.341 399.656 272.32 399.536 272.278L377.947 264.768C377.363 264.564 376.959 263.903 376.959 263.149V232.312C376.959 231.787 377.157 231.291 377.494 230.973C377.831 230.655 378.269 230.552 378.677 230.694L400.266 238.205C400.85 238.408 401.254 239.07 401.254 239.823V270.66C401.254 271.185 401.056 271.681 400.719 271.999C400.481 272.224 400.193 272.341 399.901 272.341ZM379.665 261.874L398.548 268.443V241.098L379.665 234.529V261.874Z" fill="white" fill-opacity="0.7"/>
<path d="M446.949 288.708C446.827 288.708 446.704 288.687 446.584 288.645L410.801 276.197C410.216 275.994 409.812 275.332 409.812 274.579V243.742C409.812 243.216 410.011 242.721 410.348 242.403C410.685 242.085 411.122 241.981 411.53 242.124L447.314 254.571C447.898 254.775 448.302 255.436 448.302 256.19V287.027C448.302 287.552 448.104 288.048 447.767 288.366C447.529 288.59 447.241 288.708 446.949 288.708ZM412.518 273.304L445.596 284.811V257.465L412.518 245.958V273.304Z" fill="white" fill-opacity="0.7"/>
<path d="M480.859 300.503C480.737 300.503 480.614 300.482 480.494 300.441L457.85 292.564C457.265 292.361 456.861 291.699 456.861 290.946V260.109C456.861 259.583 457.06 259.088 457.397 258.77C457.734 258.452 458.171 258.348 458.579 258.49L481.224 266.367C481.808 266.57 482.212 267.232 482.212 267.985V298.822C482.212 299.348 482.014 299.843 481.677 300.161C481.438 300.385 481.151 300.503 480.859 300.503ZM459.567 289.671L479.506 296.606V269.26L459.567 262.325V289.671Z" fill="white" fill-opacity="0.7"/>
<path d="M399.901 344.423C399.83 344.423 399.758 344.416 399.687 344.402L378.097 340.094C377.441 339.963 376.959 339.26 376.959 338.434V307.598C376.959 307.083 377.149 306.597 377.474 306.278C377.799 305.959 378.225 305.843 378.626 305.963L400.216 312.376C400.825 312.557 401.254 313.234 401.254 314.011V342.743C401.254 343.235 401.08 343.703 400.779 344.022C400.532 344.283 400.22 344.423 399.901 344.423ZM379.665 337.002L398.548 340.77V315.337L379.665 309.728V337.002Z" fill="white" fill-opacity="0.7"/>
<path d="M446.949 354.838C446.872 354.838 446.794 354.83 446.717 354.813L410.933 347.061C410.285 346.92 409.812 346.222 409.812 345.405V315.114C409.812 314.604 410 314.12 410.321 313.801C410.642 313.482 411.063 313.363 411.464 313.475L447.248 323.53C447.864 323.704 448.302 324.384 448.302 325.17V353.157C448.302 353.654 448.125 354.124 447.82 354.444C447.574 354.7 447.265 354.838 446.949 354.838ZM412.518 343.992L445.596 351.158V326.513L412.518 317.218V343.992Z" fill="white" fill-opacity="0.7"/>
<path d="M480.859 361.081C480.81 361.081 480.76 361.078 480.71 361.071L458.065 357.949C457.38 357.854 456.861 357.134 456.861 356.278V328.597C456.861 328.09 457.045 327.611 457.362 327.292C457.678 326.972 458.092 326.848 458.492 326.952L481.137 332.852C481.763 333.015 482.212 333.702 482.212 334.497V359.401C482.212 359.879 482.048 360.335 481.761 360.653C481.512 360.93 481.19 361.081 480.859 361.081ZM459.567 354.774L479.506 357.523V335.862L459.567 330.667V354.774Z" fill="white" fill-opacity="0.7"/>
<path d="M233.57 388.867C232.823 388.867 232.217 388.115 232.217 387.186V325.17C232.217 324.242 232.823 323.489 233.57 323.489C234.317 323.489 234.923 324.242 234.923 325.17V387.186C234.923 388.115 234.317 388.867 233.57 388.867Z" fill="white" fill-opacity="0.7"/>
<path d="M15.5521 309.284C15.2229 309.284 14.9028 309.134 14.6536 308.86C14.3645 308.541 14.1992 308.083 14.1992 307.603V296.488C14.1992 295.64 14.7078 294.925 15.3849 294.82L73.0372 285.901C73.7808 285.789 74.4546 286.441 74.5473 287.362C74.6394 288.283 74.1131 289.123 73.3716 289.238L16.9051 297.973V305.71L20.0308 305.248C20.7764 305.138 21.4461 305.796 21.5343 306.718C21.6226 307.64 21.0928 308.476 20.3509 308.586L15.7121 309.272C15.6584 309.28 15.6051 309.284 15.5521 309.284Z" fill="white" fill-opacity="0.7"/>
<path d="M68.5638 265.425C68.2346 265.425 67.9145 265.275 67.6654 265C67.3762 264.681 67.2109 264.224 67.2109 263.744V252.629C67.2109 251.781 67.7195 251.066 68.3968 250.961L126.05 242.042C126.788 241.932 127.467 242.581 127.56 243.503C127.652 244.424 127.125 245.264 126.384 245.379L69.9173 254.114V261.851L73.043 261.388C73.7881 261.278 74.4582 261.937 74.5465 262.858C74.6348 263.78 74.1049 264.617 73.363 264.726L68.7242 265.412C68.6703 265.421 68.617 265.425 68.5638 265.425Z" fill="white" fill-opacity="0.7"/>
<path d="M491.679 253.167C491.551 253.167 491.42 253.144 491.291 253.096L363.706 205.731L311.01 217.598C310.618 217.685 310.21 217.553 309.902 217.234C309.594 216.915 309.416 216.442 309.416 215.944V204.006C309.416 203.078 310.022 202.325 310.769 202.325C311.516 202.325 312.122 203.078 312.122 204.006V213.931L363.542 202.352C363.75 202.305 363.966 202.32 364.171 202.396L492.066 249.876C492.782 250.142 493.189 251.078 492.975 251.968C492.8 252.696 492.262 253.167 491.679 253.167Z" fill="white" fill-opacity="0.7"/>
<path d="M160.107 211.517L159.667 221.974L169.18 219.73L169.54 209.292L172.087 208.691L171.28 233.624L168.681 234.237L169.083 222.542L159.548 224.791L159.055 236.508L156.486 237.114L157.59 212.111L160.107 211.517Z" fill="white" fill-opacity="0.7"/>
<path d="M192.948 215.883C192.818 224.43 188.584 229.945 183.504 231.143C178.247 232.383 174.706 228.153 174.93 220.612C175.165 212.702 179.167 206.617 184.373 205.389C189.696 204.133 193.059 208.516 192.948 215.883ZM177.652 219.895C177.505 225.217 179.672 229.441 183.71 228.488C187.778 227.528 190.158 222.304 190.256 216.665C190.342 211.728 188.402 207.044 184.198 208.036C180.024 209.021 177.802 214.429 177.652 219.895Z" fill="white" fill-opacity="0.7"/>
<path d="M195.802 223.948C196.939 224.561 198.611 224.902 200.379 224.485C203.002 223.866 204.544 221.775 204.559 219.276C204.572 216.959 203.525 215.885 200.872 215.229C197.67 214.552 195.71 212.922 195.756 209.423C195.806 205.556 198.358 202.09 202.148 201.196C204.144 200.725 205.587 200.974 206.453 201.394L205.745 204.168C205.11 203.875 203.809 203.45 202.04 203.867C199.374 204.496 198.337 206.758 198.319 208.451C198.294 210.77 199.477 211.627 202.178 212.314C205.498 213.145 207.187 214.764 207.174 218.402C207.16 222.225 204.874 226.067 200.178 227.175C198.258 227.628 196.17 227.421 195.119 226.79L195.802 223.948Z" fill="white" fill-opacity="0.7"/>
<path d="M210.687 199.88C211.902 199.337 213.493 198.74 215.519 198.262C218.006 197.676 219.834 197.98 221.002 199.025C222.085 199.944 222.74 201.59 222.76 203.785C222.781 206.021 222.271 207.902 221.289 209.419C219.957 211.533 217.766 212.967 215.276 213.555C214.514 213.735 213.811 213.861 213.225 213.817L213.239 223.725L210.67 224.332L210.687 199.88ZM213.222 211.211C213.777 211.266 214.479 211.172 215.326 210.972C218.396 210.248 220.253 207.939 220.229 204.531C220.206 201.269 218.369 200.122 215.585 200.778C214.483 201.038 213.643 201.347 213.208 201.596L213.222 211.211Z" fill="white" fill-opacity="0.7"/>
<path d="M228.605 195.357L228.954 220.017L226.386 220.624L226.088 195.951L228.605 195.357Z" fill="white" fill-opacity="0.7"/>
<path d="M236.769 196.148L230.823 197.551L230.779 194.844L245.219 191.438L245.294 194.137L239.32 195.547L239.825 217.453L237.227 218.066L236.769 196.148Z" fill="white" fill-opacity="0.7"/>
<path d="M248.897 207.53L247.068 215.745L244.41 216.372L250.378 190.221L253.416 189.504L261.063 212.443L258.317 213.091L255.911 205.875L248.897 207.53ZM255.292 203.525L253.117 196.919C252.626 195.418 252.285 194.031 251.948 192.678L251.889 192.692C251.648 194.217 251.378 195.787 251.048 197.368L249.348 204.928L255.292 203.525Z" fill="white" fill-opacity="0.7"/>
<path d="M262.945 187.257L265.463 186.663L266.446 208.492L274.932 206.491L275.07 209.139L263.997 211.751L262.945 187.257Z" fill="white" fill-opacity="0.7"/>
<path d="M192.826 388.867C192.079 388.867 191.473 388.114 191.473 387.186V329.973C191.473 329.045 192.079 328.293 192.826 328.293C193.573 328.293 194.179 329.045 194.179 329.973V387.186C194.179 388.114 193.573 388.867 192.826 388.867Z" fill="white" fill-opacity="0.7"/>
<path d="M126.879 200.331C126.257 200.331 125.696 199.794 125.559 199.007C125.4 198.1 125.863 197.204 126.593 197.007L309.487 147.595C310.219 147.397 310.938 147.973 311.096 148.88C311.255 149.787 310.792 150.683 310.062 150.88L127.168 200.292C127.071 200.318 126.974 200.331 126.879 200.331Z" fill="white" fill-opacity="0.7"/>
</svg>
