<svg width="342" height="340" viewBox="0 0 342 340" fill="none" xmlns="http://www.w3.org/2000/svg">
<path d="M110.431 158.903L27.8232 111.517L27.4668 206.508L110.076 253.891L110.431 158.903Z" stroke="white" stroke-width="2"/>
<path d="M332.995 73.7806C332.804 73.6804 332.744 73.6273 332.69 73.4115C332.572 72.9316 332.74 68.3432 332.745 67.4638L331.781 68.2318C331.131 68.7251 330.468 69.2078 329.832 69.7184L329.837 76.4702C328.205 77.6519 326.521 78.8235 324.981 80.1203L324.978 84.531C325.787 83.8815 328.782 81.0911 329.636 81.1321C329.896 81.3519 329.919 81.6653 329.942 81.9959C330.053 83.5869 329.676 86.2967 329.94 87.6821C330.897 86.7865 331.859 85.898 332.764 84.9491C332.774 82.9115 332.901 80.7871 332.724 78.7595C334.149 77.6992 335.575 76.4914 336.797 75.2036C336.785 73.8668 336.806 72.521 336.753 71.1856C335.967 71.7952 333.846 73.7136 332.995 73.7806Z" fill="white" fill-opacity="0.8"/>
<path d="M306.724 22.5088C310.112 22.51 313.453 21.7623 315.968 20.3105C318.469 18.8661 319.542 17.077 319.527 15.4395C319.513 13.7985 318.405 11.9968 315.857 10.5352C313.333 9.08699 309.985 8.34195 306.604 8.34082C303.224 8.33976 299.89 9.08222 297.393 10.5244C294.873 11.9789 293.793 13.7747 293.801 15.4131C293.808 17.0531 294.907 18.849 297.438 20.2998C299.979 21.758 303.336 22.5075 306.724 22.5088Z" stroke="white" stroke-width="1.5"/>
<path d="M254.934 283.441C255.394 283.236 255.846 283.046 256.29 282.873C257.639 282.369 258.924 281.938 260.312 281.546" fill="white"/>
<path d="M297.305 267.263C297.807 267.316 298.294 267.38 298.765 267.454C300.185 267.698 301.513 267.974 302.909 268.335" fill="white"/>
<path d="M269.191 116.214L273.251 113.863C273.674 113.618 273.815 113.079 273.569 112.66C273.324 112.239 272.78 112.092 272.358 112.343L268.298 114.694C267.877 114.939 267.734 115.478 267.98 115.897C268.222 116.314 268.766 116.461 269.191 116.214Z" fill="white"/>
<path d="M262.218 119.74L264.519 121.06C264.93 121.3 265.478 121.168 265.73 120.738C265.973 120.318 265.827 119.78 265.405 119.537L264.426 118.975L265.402 118.41C265.824 118.166 265.966 117.626 265.72 117.207C265.475 116.786 264.931 116.642 264.509 116.891L262.214 118.22C261.633 118.556 261.624 119.4 262.218 119.74Z" fill="white"/>
<path d="M279.239 127.47C278.82 127.225 278.273 127.367 278.027 127.791C277.785 128.212 277.93 128.75 278.353 128.992L283.177 131.759C283.588 131.999 284.136 131.867 284.389 131.437C284.631 131.016 284.486 130.479 284.063 130.236L279.239 127.47Z" fill="white"/>
<path d="M288.567 132.818C288.148 132.58 287.605 132.718 287.356 133.141C287.113 133.562 287.259 134.1 287.681 134.344L292.509 137.109C292.647 137.188 292.799 137.226 292.952 137.226C293.256 137.226 293.554 137.068 293.72 136.786C293.963 136.365 293.817 135.827 293.395 135.583L288.567 132.818Z" fill="white"/>
<path d="M269.907 122.121C269.488 121.877 268.944 122.018 268.695 122.443C268.453 122.863 268.598 123.401 269.021 123.644L273.845 126.409C274.256 126.649 274.804 126.516 275.057 126.087C275.299 125.666 275.154 125.128 274.731 124.886L269.907 122.121Z" fill="white"/>
<path d="M297.895 138.168C297.476 137.923 296.929 138.066 296.684 138.489C296.441 138.911 296.587 139.449 297.009 139.69L301.834 142.455C302.244 142.695 302.791 142.564 303.045 142.134C303.287 141.714 303.142 141.176 302.719 140.933L297.895 138.168Z" fill="white"/>
<path d="M306.026 147.371C306.268 147.788 306.813 147.935 307.238 147.688L309.532 146.357C310.113 146.021 310.123 145.176 309.529 144.837L307.227 143.516C306.812 143.271 306.261 143.415 306.015 143.838C305.774 144.259 305.918 144.797 306.341 145.039L307.321 145.601L306.344 146.168C305.922 146.413 305.78 146.952 306.026 147.371Z" fill="white"/>
<path d="M246.124 181.082L241.32 183.865C240.898 184.11 240.756 184.649 241.001 185.068C241.243 185.485 241.787 185.632 242.212 185.385L247.016 182.601C247.439 182.357 247.58 181.817 247.335 181.398C247.089 180.978 246.549 180.834 246.124 181.082Z" fill="white"/>
<path d="M264.702 170.311L259.898 173.094C259.475 173.339 259.334 173.879 259.58 174.297C259.821 174.714 260.366 174.861 260.791 174.614L265.595 171.83C266.016 171.586 266.159 171.046 265.913 170.627C265.667 170.206 265.124 170.06 264.702 170.311Z" fill="white"/>
<path d="M255.413 175.695L250.609 178.479C250.187 178.723 250.045 179.263 250.29 179.682C250.533 180.098 251.077 180.245 251.502 179.998L256.305 177.215C256.728 176.97 256.869 176.431 256.624 176.012C256.378 175.59 255.835 175.444 255.413 175.695Z" fill="white"/>
<path d="M283.282 159.54L278.479 162.323C278.056 162.568 277.913 163.108 278.16 163.526C278.401 163.943 278.946 164.09 279.371 163.843L284.175 161.058C284.597 160.815 284.739 160.275 284.493 159.855C284.248 159.435 283.704 159.291 283.282 159.54Z" fill="white"/>
<path d="M301.86 148.769L297.056 151.553C296.634 151.797 296.492 152.336 296.737 152.756C296.98 153.172 297.523 153.319 297.949 153.072L302.753 150.288C303.175 150.044 303.317 149.504 303.071 149.084C302.825 148.666 302.285 148.521 301.86 148.769Z" fill="white"/>
<path d="M292.57 154.154L287.767 156.939C287.345 157.183 287.203 157.722 287.448 158.142C287.707 158.577 288.26 158.696 288.66 158.458L293.463 155.672C293.886 155.429 294.028 154.889 293.781 154.47C293.532 154.05 292.982 153.906 292.57 154.154Z" fill="white"/>
<path d="M236.834 186.466L232.031 189.25C231.608 189.494 231.467 190.034 231.712 190.453C231.953 190.869 232.498 191.016 232.923 190.769L237.727 187.985C238.15 187.741 238.291 187.201 238.046 186.783C237.8 186.363 237.256 186.219 236.834 186.466Z" fill="white"/>
<path d="M273.993 164.924L269.189 167.708C268.766 167.952 268.625 168.492 268.871 168.911C269.112 169.328 269.657 169.474 270.082 169.227L274.886 166.444C275.308 166.199 275.45 165.66 275.204 165.241C274.959 164.819 274.419 164.675 273.993 164.924Z" fill="white"/>
<path d="M202.898 263.61C203.139 263.19 202.995 262.652 202.572 262.409L197.786 259.665C197.366 259.421 196.82 259.562 196.574 259.986C196.332 260.408 196.477 260.946 196.899 261.188L201.686 263.932C202.097 264.172 202.644 264.04 202.898 263.61Z" fill="white"/>
<path d="M221.397 274.225C221.64 273.805 221.494 273.267 221.072 273.024L216.286 270.28C215.867 270.036 215.32 270.177 215.074 270.601C214.832 271.022 214.977 271.56 215.4 271.803L220.186 274.547C220.597 274.786 221.145 274.655 221.397 274.225Z" fill="white"/>
<path d="M212.149 268.918C212.392 268.497 212.246 267.959 211.824 267.717L207.038 264.972C206.619 264.728 206.071 264.869 205.826 265.293C205.584 265.715 205.729 266.253 206.152 266.495L210.938 269.239C211.348 269.479 211.896 269.347 212.149 268.918Z" fill="white"/>
<path d="M227.841 276.907L225.539 275.587C225.12 275.343 224.574 275.484 224.328 275.908C224.086 276.329 224.231 276.867 224.653 277.11L225.633 277.672L224.653 278.239C224.231 278.482 224.089 279.022 224.335 279.442C224.577 279.858 225.121 280.005 225.546 279.757L227.844 278.428C228.428 278.091 228.434 277.246 227.841 276.907Z" fill="white"/>
<path d="M174.016 307.556L169.239 310.319C168.818 310.564 168.675 311.101 168.921 311.522C169.163 311.939 169.707 312.085 170.133 311.839L174.909 309.075C175.331 308.831 175.473 308.293 175.228 307.872C174.981 307.451 174.441 307.305 174.016 307.556Z" fill="white"/>
<path d="M183.254 302.209L178.478 304.972C178.056 305.217 177.914 305.755 178.159 306.175C178.402 306.592 178.946 306.739 179.371 306.492L184.147 303.729C184.57 303.484 184.712 302.946 184.465 302.526C184.22 302.106 183.677 301.962 183.254 302.209Z" fill="white"/>
<path d="M207.074 290.451L211.85 287.686C212.273 287.442 212.414 286.902 212.168 286.484C211.923 286.062 211.383 285.916 210.957 286.167L206.181 288.932C205.759 289.176 205.617 289.715 205.863 290.135C206.105 290.551 206.649 290.699 207.074 290.451Z" fill="white"/>
<path d="M192.487 296.861L187.711 299.626C187.288 299.87 187.146 300.409 187.392 300.829C187.634 301.245 188.178 301.392 188.603 301.145L193.38 298.38C193.801 298.136 193.943 297.596 193.698 297.177C193.452 296.757 192.912 296.613 192.487 296.861Z" fill="white"/>
<path d="M197.842 295.798L202.618 293.033C203.04 292.789 203.182 292.249 202.936 291.83C202.691 291.409 202.147 291.265 201.725 291.514L196.949 294.279C196.526 294.523 196.384 295.062 196.631 295.482C196.872 295.899 197.417 296.045 197.842 295.798Z" fill="white"/>
<path d="M216.312 285.104L221.088 282.339C221.511 282.096 221.652 281.556 221.407 281.137C221.161 280.717 220.617 280.573 220.196 280.821L215.42 283.586C214.998 283.829 214.855 284.369 215.101 284.789C215.343 285.204 215.887 285.352 216.312 285.104Z" fill="white"/>
<path d="M164.695 314.987L165.674 314.423C166.097 314.177 166.239 313.64 165.993 313.219C165.747 312.797 165.205 312.653 164.782 312.902L162.484 314.229C161.902 314.566 161.894 315.412 162.487 315.751L164.789 317.072C165.2 317.311 165.747 317.179 166 316.75C166.242 316.329 166.097 315.791 165.674 315.549L164.695 314.987Z" fill="white"/>
<path d="M194.504 332.072C194.086 331.835 193.538 331.971 193.293 332.395C193.051 332.816 193.196 333.354 193.618 333.598L197.903 336.052C198.322 336.291 198.863 336.154 199.114 335.729C199.357 335.308 199.211 334.77 198.789 334.526L194.504 332.072Z" fill="white"/>
<path d="M186.229 327.328C185.81 327.09 185.264 327.228 185.018 327.652C184.775 328.072 184.921 328.61 185.343 328.854L189.624 331.306C190.043 331.545 190.585 331.408 190.835 330.983C191.078 330.563 190.932 330.025 190.51 329.78L186.229 327.328Z" fill="white"/>
<path d="M177.952 322.584C177.536 322.345 176.986 322.484 176.74 322.907C176.498 323.327 176.643 323.865 177.066 324.11L181.347 326.562C181.765 326.801 182.308 326.664 182.558 326.239C182.8 325.817 182.655 325.28 182.232 325.036L177.952 322.584Z" fill="white"/>
<path d="M169.672 317.839C169.253 317.6 168.711 317.739 168.461 318.161C168.219 318.582 168.364 319.12 168.786 319.365L173.068 321.817C173.486 322.056 174.028 321.919 174.279 321.494C174.521 321.072 174.376 320.534 173.954 320.291L169.672 317.839Z" fill="white"/>
<path d="M206.494 336.808L204.642 337.88L202.784 336.816C202.355 336.579 201.821 336.715 201.572 337.141C201.33 337.563 201.475 338.1 201.898 338.342L204.203 339.661C204.487 339.819 204.823 339.815 205.092 339.657L207.387 338.328C207.809 338.083 207.951 337.543 207.705 337.124C207.46 336.703 206.92 336.559 206.494 336.808Z" fill="white"/>
<path d="M233.554 321.116L228.888 323.82C228.466 324.064 228.324 324.604 228.57 325.023C228.82 325.446 229.361 325.584 229.781 325.339L234.446 322.634C234.868 322.391 235.01 321.851 234.765 321.431C234.516 321.011 233.976 320.865 233.554 321.116Z" fill="white"/>
<path d="M224.532 326.347L219.867 329.052C219.444 329.296 219.302 329.835 219.549 330.254C219.798 330.677 220.339 330.815 220.76 330.571L225.425 327.866C225.847 327.622 225.989 327.082 225.744 326.663C225.494 326.244 224.954 326.099 224.532 326.347Z" fill="white"/>
<path d="M215.513 331.577L210.847 334.282C210.425 334.525 210.283 335.065 210.529 335.485C210.779 335.907 211.32 336.045 211.74 335.801L216.405 333.096C216.827 332.852 216.969 332.312 216.724 331.893C216.471 331.473 215.935 331.329 215.513 331.577Z" fill="white"/>
<path d="M15.3516 204.524L15.325 212.948C15.325 213.265 15.4946 213.557 15.768 213.714L120.811 273.959C121.093 274.12 121.424 274.113 121.697 273.961L121.698 273.959C282.454 181.169 203.186 226.924 226.071 213.714C226.342 213.555 226.511 213.267 226.511 212.954L226.535 204.578L239.272 211.899C227.446 218.724 131.037 274.374 121.36 279.959C80.3858 256.449 23.6593 223.903 2.66492 211.857L15.3516 204.524ZM56.6347 113.717C57.0468 113.958 57.5932 113.818 57.8459 113.396C58.0883 112.974 57.9429 112.436 57.5205 112.194L9.47258 84.6352C7.50672 83.4791 6.4235 82.0247 6.4235 80.5434L6.4442 71.3009C6.8003 71.5964 7.47129 72.3051 8.61082 72.9563C157.886 158.576 96.7063 123.485 112.699 132.658C114.651 133.78 117.236 134.561 120.579 134.705V146.145C118.012 146.027 115.495 145.436 113.529 144.317L66.4738 117.327C66.0551 117.084 65.5087 117.224 65.2625 117.649C65.0201 118.07 65.1656 118.608 65.588 118.851L112.646 145.842C114.947 147.154 117.85 147.83 120.79 147.926L120.371 271.675L17.097 212.445L17.4798 91.2598L56.6347 113.717ZM130.332 132.658C135.143 129.88 109.385 144.752 233.686 72.9869C233.698 72.9795 233.705 72.9693 233.718 72.9619C234.419 72.5533 235.416 71.764 235.776 71.4L235.724 80.6342C235.724 82.1145 234.672 83.531 232.762 84.626L129.429 144.302C127.272 145.514 124.854 146.03 122.351 146.148V134.765C124.851 134.648 128.167 133.907 130.332 132.658ZM225.063 111.104L216.99 106.443C216.713 106.285 216.378 106.285 216.101 106.443C130.063 155.796 130.718 155.34 131.076 155.137C130.814 155.276 130.598 155.695 130.598 155.994C130.6 153.174 130.603 196.712 130.595 256.185C130.595 256.861 131.345 257.292 131.941 256.952L215.899 208.468C216.134 208.331 216.34 208.042 216.34 207.711L216.478 174.943C219.567 173.443 223.072 169.693 224.875 164.749L224.739 212.445L122.147 271.665C122.208 253.384 122.46 178.272 122.563 147.927C125.067 147.699 127.752 147.304 130.304 145.84L225.123 91.081L225.063 111.104ZM250.142 153.626C246.007 155.983 242.968 154.199 242.954 149.56L242.931 142.051L258.2 133.292V139.805C258.216 144.868 254.6 151.067 250.142 153.626ZM233.16 163.367C229.085 165.709 225.984 164.048 225.939 159.387C225.939 159.367 225.944 159.347 225.944 159.328C225.944 158.974 225.911 151.457 225.912 151.812L241.161 143.067L241.182 149.564C241.196 154.631 237.596 160.822 233.16 163.367ZM215.236 173.594C211.614 175.206 208.968 173.372 208.968 169.078L208.936 161.561C209.291 161.357 225.155 152.245 224.144 152.826C224.142 152.465 224.163 158.294 224.166 159.387C224.136 164.765 220.028 171.471 215.236 173.594ZM132.381 157.533L173.117 181.053L173.14 188.593C173.154 194.513 177.601 197.264 182.986 194.176C186.722 192.035 189.918 187.587 191.256 183.114C193.186 186.302 196.738 186.288 200.014 184.421C202.109 183.23 204.084 181.236 205.659 178.861L205.567 201.979L132.381 244.231V157.533ZM191.923 171.316C192.277 171.113 208.182 161.989 207.167 162.571L207.196 169.081C207.196 173.847 203.72 180.285 199.135 182.895C195.025 185.226 191.972 183.519 191.925 178.871C191.923 178.517 191.923 170.962 191.923 171.316ZM190.14 172.331C190.141 172.693 190.151 179.242 190.151 178.839C190.151 178.852 190.154 178.862 190.154 178.874C190.152 183.931 186.546 190.104 182.1 192.653C177.995 194.998 174.926 193.256 174.912 188.587L174.888 181.08L190.14 172.331ZM132.381 246.269L206.438 203.514C206.796 203.721 214.112 207.949 213.691 207.705L132.381 254.648V246.269ZM257.316 131.765L242.068 140.512L201.295 116.97L216.544 108.223L257.316 131.765ZM199.525 117.987L240.297 141.527C239.942 141.731 224.034 150.856 225.049 150.274L184.274 126.732L199.525 117.987ZM182.504 127.748L223.275 151.288C222.921 151.492 207.017 160.617 208.031 160.035L167.253 136.495L182.504 127.748ZM165.483 137.512L206.261 161.052L191.01 169.798L150.236 146.256L165.483 137.512ZM148.466 147.273L189.238 170.815L174.024 179.54L133.252 155.998L148.466 147.273ZM152.527 277.541L122.261 295.104V281.478C134.317 274.518 78.5927 306.685 240.154 213.425V226.742L164.471 270.641C164.048 270.884 163.906 271.424 164.152 271.844C164.401 272.264 164.934 272.406 165.363 272.16L190.557 257.548L192.435 258.625C192.846 258.864 193.393 258.733 193.646 258.303C193.888 257.883 193.743 257.344 193.32 257.102L192.317 256.526L241.487 228.008C241.76 227.849 241.926 227.56 241.926 227.247V211.897C241.926 211.582 241.756 211.291 241.483 211.134L241.477 211.132L226.54 202.548L226.564 194.454L228.439 193.368C228.861 193.125 229.003 192.585 228.757 192.165C228.512 191.745 227.968 191.601 227.546 191.849L226.569 192.414L226.646 165.135C228.929 166.816 231.659 166.26 234.046 164.89C237.766 162.757 240.948 158.316 242.281 153.845C244.211 157.033 247.754 157.026 251.028 155.149C255.978 152.31 259.989 145.424 259.971 139.801V131.766C259.971 131.598 259.745 131.128 259.532 131.005L226.831 112.125L226.898 90.0564L233.648 86.1582C236.105 84.7621 237.513 82.75 237.513 80.6406C237.514 80.2793 237.562 66.5541 237.558 67.4008C237.546 65.2544 236.152 63.2756 233.627 61.8258L129.553 2.13074C124.677 -0.669708 116.772 -0.666016 111.923 2.13074L37.8795 44.8796C37.4581 45.1232 37.3154 45.6633 37.5616 46.0829C37.804 46.5063 38.3439 46.6452 38.7728 46.4025L112.816 3.65463C117.177 1.13763 124.293 1.14227 128.667 3.65463L232.741 63.3488C236.954 65.7704 236.602 69.2767 232.796 71.4583L129.449 131.109C125.401 133.501 118.131 133.75 113.595 131.119C102.861 124.964 144.494 148.836 9.51063 71.4398C5.52854 69.1517 5.38979 65.6749 9.46214 63.3266L26.9121 53.2522C27.3343 53.0076 27.4764 52.4685 27.2306 52.0488C26.9849 51.6236 26.4449 51.4828 26.0193 51.7292L8.56924 61.8036C6.09556 63.2349 4.72897 65.183 4.701 67.2971C4.67844 73.3297 4.64981 80.976 4.65149 80.5415C4.65149 82.6731 6.04278 84.6658 8.57968 86.1545L15.7111 90.2445L15.3579 202.481L0.453354 211.099L0.443192 211.109C0.169707 211.265 0 211.556 0 211.871V227.811C0 228.126 0.16952 228.418 0.443006 228.575L46.747 255.022C47.1694 255.257 47.7121 255.123 47.9583 254.697C48.2007 254.275 48.0553 253.737 47.6329 253.495L1.77201 227.303V213.396C20.838 224.333 -26.7875 197.014 120.475 281.486V295.103L59.8814 260.492C59.4516 260.255 58.9117 260.39 58.6692 260.817C58.4277 261.238 58.5732 261.776 58.9947 262.019C59.3919 262.246 121.284 297.617 120.922 297.408C121.186 297.56 121.525 297.571 121.808 297.406L153.419 279.061C153.842 278.815 153.983 278.278 153.738 277.858C153.489 277.437 152.938 277.29 152.527 277.541Z" fill="white"/>
<path d="M119.931 18.0266V28.7625L96.2475 42.4452C95.8251 42.6916 95.6834 43.2289 95.9295 43.6485C96.171 44.0719 96.7146 44.2108 97.1408 43.9681L120.827 30.2818L196.708 73.8069C188.751 78.4027 220.579 60.0195 121.443 117.279L45.5497 73.7652L86.0484 50.3778C86.4708 50.1332 86.6126 49.5941 86.3664 49.1744C86.1212 48.7492 85.5776 48.6102 85.1552 48.8548L43.779 72.7508L34.435 67.3926L119.931 18.0266ZM32.2232 68.1597C35.015 69.7605 118.375 117.574 120.986 119.071C121.271 119.234 121.606 119.225 121.876 119.071C237.881 52.0768 200.695 73.5521 210.036 68.1578C210.616 67.8225 210.627 66.9748 210.032 66.6349L188.416 54.2389C188.001 53.9953 187.45 54.1361 187.204 54.5604C186.962 54.9819 187.107 55.5201 187.53 55.7628L207.821 67.4001L198.483 72.7916L121.702 28.7505V18.023L178.144 50.3824C178.555 50.6214 179.102 50.4824 179.355 50.0609C179.598 49.6404 179.452 49.1021 179.03 48.8594L121.259 15.7357C120.986 15.5792 120.649 15.5755 120.37 15.7357L32.2204 66.6349C31.6377 66.9721 31.6311 67.8206 32.2232 68.1597Z" fill="white"/>
<path d="M330.651 111.204C317.524 118.779 296.079 118.77 282.848 111.185C276.616 107.604 273.171 102.902 273.151 97.9465V41.7105C283.513 60.2307 329.465 60.8069 340.213 41.8105V97.9539C340.255 102.905 336.86 107.611 330.651 111.204ZM280.554 23.4358L280.543 26.9727C280.532 31.7686 284.227 35.6446 288.416 38.0476C295.742 42.2497 305.914 43.3363 314.623 41.7216C315.104 41.6317 315.423 41.1732 315.332 40.6952C315.243 40.219 314.792 39.8994 314.297 39.9921C305.285 41.6586 293.496 40.3394 286.534 34.6181V25.2088C299.069 34.1697 323.83 31.9418 331.004 21.1152L330.986 27.1144C330.971 32.3457 325.785 36.105 320.88 38.1004C320.427 38.2847 320.213 38.7989 320.396 39.2491C320.579 39.6965 321.088 39.9124 321.552 39.7308C327.189 37.4362 332.743 33.1461 332.759 27.12L332.769 23.4487C343.643 31.1108 342.407 41.6716 330.647 48.4675C317.538 56.0425 296.09 56.0463 282.841 48.4638C271.151 41.7828 269.601 31.1303 280.554 23.4358ZM332.776 21.3162C332.734 15.7635 332.928 14.977 332.561 13.3641C331.375 8.169 326.145 4.53292 321.137 2.60049C320.676 2.4217 320.167 2.64867 319.987 3.10074C319.811 3.55466 320.036 4.0651 320.492 4.24019C332.873 9.02032 334.638 18.9845 324.127 24.9106C314.868 30.2567 298.93 30.3984 289.338 24.8985C280.044 19.5663 280.003 11.2381 289.261 5.90677C295.345 2.38744 304.347 0.975624 312.748 2.2142C313.249 2.29294 313.682 1.9511 313.755 1.47309C313.827 0.991371 313.492 0.543945 313.011 0.473541C304.092 -0.840996 294.882 0.619911 288.372 4.38287C284.162 6.80721 280.563 10.5414 280.577 15.3957L280.56 21.2995C274.617 25.1199 271.349 30.0492 271.38 35.2295C271.384 35.7103 271.382 97.5778 271.379 97.9502C271.397 102.122 273.486 106.087 277.348 109.452L276.147 110.148C275.726 110.392 275.583 110.932 275.829 111.351C276.071 111.768 276.615 111.915 277.041 111.668L278.839 110.627C292.091 120.575 316.892 121.176 331.544 112.725C338.324 108.8 342.03 103.55 341.985 97.9465V35.2332C341.834 34.7682 342.626 27.6823 332.776 21.3162Z" fill="white"/>
<path d="M255.296 284.244C256.883 283.53 258.91 282.857 260.553 282.393C261.023 282.26 261.297 281.774 261.162 281.306C261.03 280.841 260.542 280.569 260.068 280.701C258.354 281.184 256.29 281.872 254.568 282.64C254.122 282.841 253.925 283.361 254.125 283.805C254.325 284.251 254.86 284.442 255.296 284.244Z" fill="white"/>
<path d="M247.004 300.215C247.385 299.909 247.444 299.355 247.135 298.977C245.9 297.469 245.25 295.918 245.25 294.495C245.253 291.816 247.44 288.868 251.251 286.402C251.66 286.137 251.777 285.593 251.51 285.185C251.237 284.777 250.687 284.663 250.281 284.928C244.138 288.902 241.093 294.376 245.758 300.088C246.07 300.465 246.627 300.522 247.004 300.215Z" fill="white"/>
<path d="M281.003 311.436C280.64 311.129 279.953 311.289 279.75 311.522C279.425 311.886 279.463 312.444 279.83 312.765C280.207 313.094 280.586 313.413 280.964 313.721C270.785 314.874 259.603 313.558 250.694 308.955L268.659 298.639C269.649 300.753 271.216 303.341 272.835 305.424C273.007 305.645 273.701 305.879 274.082 305.589C274.472 305.293 274.545 304.742 274.248 304.354C269.574 298.271 265.956 289.836 269.804 283.216C270.011 282.864 275.122 274.151 274.798 274.705C274.707 277.875 275.699 282.203 278.238 286.675C287.041 302.197 309.844 314.372 326.724 312.424L319.432 324.765C306.647 326.917 291.019 320.082 281.003 311.436ZM249.436 280.554C256.661 276.657 264.546 274.866 272.766 274.66C272.558 275.016 267.967 282.847 268.26 282.346C265.655 286.768 266.115 292.289 267.957 297.009L248.861 307.975C235.627 300.058 236.393 288.071 249.436 280.554ZM299.623 262.493C315.33 265.192 329.43 275.097 336.153 285.781L279.563 285.366C270.988 269.691 281.675 259.67 299.623 262.493ZM322.116 310.84C306.835 310.43 288.733 300.036 280.62 287.135L337.232 287.55C344.543 300.92 337.988 311.255 322.116 310.84ZM338.548 286.243C330.159 271.428 309.884 260.263 293.871 260.263C285.734 260.263 279.626 263.017 276.66 268.031C276.653 268.041 276.65 268.053 276.643 268.064C276.437 268.416 273.6 273.25 273.807 272.897C264.865 272.971 256.457 274.758 248.571 279.019C241.452 283.121 237.531 288.63 237.531 294.533C237.531 294.894 237.572 312.276 237.568 311.052C237.584 313.359 238.226 315.599 239.405 317.722L237.908 318.589C237.485 318.834 237.343 319.374 237.59 319.794C237.831 320.21 238.376 320.357 238.801 320.109L240.329 319.225C243.383 323.587 248.354 326.669 253.288 328.659C253.738 328.84 254.257 328.626 254.441 328.173C254.624 327.722 254.406 327.21 253.952 327.028C252.35 326.381 250.789 325.628 249.319 324.792C244.188 321.813 239.38 316.947 239.341 311.046L239.316 301.191C246.794 313.943 268.217 317.448 282.999 315.267C288.212 319.18 294.059 322.25 299.963 324.256C289.741 330.569 275.171 331.903 263.387 329.723C262.878 329.627 262.442 329.952 262.352 330.427C262.262 330.905 262.581 331.365 263.062 331.453C275.729 333.8 291.664 332.152 302.149 324.953C313.254 328.216 319.597 326.446 320.146 326.436C320.5 326.289 328.148 325.3 331.762 319.149L340.12 304.911L340.123 304.908L340.125 304.904L340.143 304.872L340.147 304.865L340.148 304.856C343.084 299.85 342.522 293.243 338.548 286.243Z" fill="white"/>
<path d="M297.21 268.14C298.965 268.326 301.067 268.77 302.682 269.186C303.141 269.31 303.639 269.036 303.765 268.558C303.886 268.086 303.602 267.607 303.131 267.485C301.442 267.048 299.266 266.588 297.396 266.39C296.909 266.331 296.472 266.687 296.421 267.172C296.369 267.655 296.721 268.088 297.21 268.14Z" fill="white"/>
<path d="M281.921 277.741C282.405 277.667 282.738 277.218 282.661 276.737C282.364 274.82 282.592 273.154 283.322 271.922C284.686 269.616 288.074 268.174 292.618 267.963C293.106 267.941 293.483 267.531 293.463 267.044C293.438 266.559 293.002 266.119 292.535 266.207C285.169 266.546 279.787 269.763 280.91 277.005C280.983 277.49 281.441 277.815 281.921 277.741Z" fill="white"/>
<path d="M71.9746 189.468C71.5043 189.715 71.3545 189.845 71.2236 190.377C70.9322 191.56 71.3458 202.865 71.3576 205.032L68.9846 203.14C67.3845 201.924 65.7527 200.735 64.1869 199.477L64.1995 182.841C60.1838 179.929 56.0379 177.043 52.248 173.847L52.2398 162.98C54.231 164.58 61.6035 171.455 63.7064 171.354C64.3448 170.813 64.4007 170.04 64.4577 169.226C64.7328 165.306 63.8031 158.629 64.4535 155.216C66.8097 157.422 69.1771 159.612 71.404 161.95C71.4295 166.97 71.7425 172.204 71.3056 177.2C74.8134 179.813 78.3232 182.789 81.332 185.962C81.3031 189.255 81.3537 192.571 81.2247 195.862C79.2894 194.36 74.0672 189.633 71.9746 189.468Z" fill="white" fill-opacity="0.8"/>
</svg>
