<svg width="48" height="48" viewBox="0 0 48 48" fill="none" xmlns="http://www.w3.org/2000/svg">
<path d="M33.6707 31.168H36.4707V38.168H33.6707V31.168ZM28.0707 24.168H30.8707V38.168H28.0707V24.168ZM15.4707 38.168C13.6149 38.1657 11.8357 37.4275 10.5234 36.1153C9.21114 34.803 8.47293 33.0238 8.4707 31.168H11.2707C11.2707 31.9987 11.517 32.8107 11.9785 33.5014C12.44 34.192 13.096 34.7304 13.8634 35.0483C14.6309 35.3662 15.4754 35.4493 16.2901 35.2873C17.1048 35.1252 17.8532 34.7252 18.4406 34.1378C19.0279 33.5504 19.4279 32.8021 19.59 31.9873C19.7521 31.1726 19.6689 30.3281 19.351 29.5607C19.0331 28.7932 18.4948 28.1373 17.8041 27.6758C17.1134 27.2143 16.3014 26.968 15.4707 26.968V24.168C17.3272 24.168 19.1077 24.9055 20.4205 26.2182C21.7332 27.531 22.4707 29.3115 22.4707 31.168C22.4707 33.0245 21.7332 34.805 20.4205 36.1177C19.1077 37.4305 17.3272 38.168 15.4707 38.168Z" fill="#1C82FA"/>
<path d="M39.685 4.16797H6.25642C5.5176 4.16797 4.80904 4.46146 4.28662 4.98389C3.7642 5.50631 3.4707 6.21487 3.4707 6.95368V40.3823C3.4707 41.1211 3.7642 41.8296 4.28662 42.3521C4.80904 42.8745 5.5176 43.168 6.25642 43.168H39.685C40.4235 43.1669 41.1314 42.873 41.6536 42.3508C42.1758 41.8287 42.4696 41.1207 42.4707 40.3823V6.95368C42.4707 6.21487 42.1772 5.50631 41.6548 4.98389C41.1324 4.46146 40.4238 4.16797 39.685 4.16797ZM39.685 16.7037H20.185V6.95368H39.685V16.7037ZM17.3993 6.95368V16.7037H6.25642V6.95368H17.3993ZM6.25642 40.3823V19.4894H39.685L39.6878 40.3823H6.25642Z" fill="#1C82FA"/>
</svg>
