<svg width="48" height="48" viewBox="0 0 48 48" fill="none" xmlns="http://www.w3.org/2000/svg">
<path d="M35.3965 6.75C36.0561 6.75007 36.6652 6.9246 37.2188 7.27246C37.7689 7.61827 38.2008 8.08107 38.5117 8.65723L38.5166 8.66504H38.5156L42.0742 15.8447L42.0752 15.8486C42.1974 16.1044 42.2934 16.3607 42.3604 16.6172C42.4283 16.8777 42.4619 17.1429 42.4619 17.4121C42.4619 17.8287 42.3947 18.2246 42.2588 18.5977C42.1228 18.9709 41.921 19.3139 41.6543 19.625L26.666 37.6143C26.3624 37.9791 26.0116 38.264 25.6143 38.4658L25.4414 38.5479C24.9799 38.7465 24.4983 38.8457 24 38.8457C23.5018 38.8457 23.0209 38.7457 22.5596 38.5459C22.1486 38.369 21.784 38.1076 21.4668 37.7656L21.334 37.6143L6.3418 19.6221V19.6211C6.07649 19.3108 5.8748 18.9696 5.73926 18.5977C5.60321 18.2242 5.53666 17.8281 5.53809 17.4111C5.53816 17.1409 5.57253 16.8755 5.64062 16.6162V16.6152C5.70883 16.3596 5.80318 16.1045 5.92383 15.8506L5.92578 15.8467L9.48438 8.66699L9.4873 8.66016C9.79696 8.08223 10.2295 7.61842 10.7812 7.27246C11.336 6.92465 11.9459 6.75 12.6045 6.75H35.3965ZM22.75 35.4268V19.25H9.31738L22.75 35.4268ZM25.25 35.4268L38.6826 19.25H25.25V35.4268ZM32.7383 16.75H39.7109L36.2363 9.80371C36.1555 9.64204 36.0344 9.50922 35.8662 9.4043C35.6985 9.29976 35.5253 9.25 35.3438 9.25H28.9883L32.7383 16.75ZM18.0381 16.75H29.9619L26.2119 9.25H21.7881L18.0381 16.75ZM12.6543 9.25C12.4728 9.25 12.3004 9.29987 12.1328 9.4043C11.9647 9.50912 11.8442 9.64157 11.7646 9.80273L11.7637 9.80371L8.28906 16.75H15.2617L19.0117 9.25H12.6543Z" fill="#1E89FA" stroke="#1E89FA" stroke-width="0.5"/>
</svg>
