<svg width="48" height="48" viewBox="0 0 48 48" fill="none" xmlns="http://www.w3.org/2000/svg">
<g clip-path="url(#clip0_3802_4706)">
<path d="M44.0625 17.7198C43.5 17.8793 42.8438 17.9591 42.2813 17.9591C41.7188 17.9591 41.25 17.9591 40.7813 17.7997V35.738H5.90625V34.1435V34.2231C6 34.3028 6.1875 34.3827 6.28125 34.3827C6.375 34.3827 6.56251 34.3825 6.65626 34.2231L12.375 28.8019L13.875 31.4327L23.3438 22.344L25.9687 26.5695L36.75 15.8065C36.9375 15.5673 36.9375 15.2483 36.75 15.0889C36.5625 14.8497 36.1875 14.8497 36 15.0889L26.25 24.8952L23.625 20.6697L14.25 29.7585L12.75 27.1275L6.09375 33.5056C6.09375 33.5056 6.09375 33.5853 6.09375 33.665V13.4147C6.09375 13.0161 6.46875 12.6175 6.84375 12.6175H36C36 12.2986 36 11.9797 36 11.6608C36 10.8635 36.1875 10.0662 36.4688 9.34863H6.93751C4.68751 9.34863 2.90626 11.1026 2.90626 13.3349V36.9339H0V38.1297C0 39.7243 1.31251 40.9998 2.90626 40.9998H44.3438C45.9375 40.9998 47.25 39.7243 47.25 38.1297V36.9339H44.3438V17.7198H44.0625ZM30.4688 39.8039H16.3125V38.1297H30.4688V39.8039Z" fill="#686FF2"/>
<path d="M42.2813 17.321C45.4688 17.321 48 14.7699 48 11.6606C48 8.55131 45.4688 6 42.2813 6C39.0938 6 36.5625 8.55131 36.5625 11.6606C36.5625 14.7699 39.0938 17.321 42.2813 17.321ZM42.2813 8.31197C43.2188 8.31197 43.9688 9.02958 43.9688 9.98629C43.9688 10.943 43.2188 11.6606 42.2813 11.6606C41.3438 11.6606 40.5938 10.943 40.5938 9.98629C40.5938 9.02958 41.3438 8.31197 42.2813 8.31197ZM39.2813 14.6104C39.2813 14.5307 39.2813 14.4509 39.2813 14.3712C39.2813 13.8131 39.5625 13.3347 39.9375 12.9361C40.0313 12.8564 40.2188 12.697 40.3125 12.6173C40.4063 12.5376 40.5938 12.4578 40.6875 12.3781C40.9688 12.2983 41.25 12.2187 41.5313 12.2187H42.75C43.0313 12.2187 43.3125 12.2186 43.5938 12.3781C43.6875 12.3781 43.875 12.4578 43.9688 12.5375C44.5313 12.9361 45 13.4943 45.0938 14.2118C45.0938 14.2915 45.0938 14.3712 45.0938 14.5306C45.0938 14.6104 45.0938 14.7699 45 14.8496C45 14.8496 44.8125 14.9293 44.7187 14.9293H39.5625C39.375 14.9293 39.1875 14.7698 39.1875 14.5306L39.2813 14.6104Z" fill="#686FF2"/>
<path d="M22.3125 17.5596C22.0313 17.5596 21.75 17.7987 21.75 18.1176C21.75 18.4365 22.0313 18.6757 22.3125 18.6757H26.5313C26.8125 18.6757 27.0938 18.4365 27.0938 18.1176C27.0938 17.7987 26.8125 17.5596 26.5313 17.5596H22.3125Z" fill="#686FF2"/>
<path d="M37.875 29.0405H33.6563C33.375 29.0405 33.0938 29.2799 33.0938 29.5988C33.0938 29.9177 33.375 30.1568 33.6563 30.1568H37.875C38.1563 30.1568 38.4375 29.9177 38.4375 29.5988C38.4375 29.2799 38.1563 29.0405 37.875 29.0405Z" fill="#686FF2"/>
<path d="M37.875 30.3965H33.6563C33.375 30.3965 33.0938 30.6356 33.0938 30.9545C33.0938 31.2734 33.375 31.5126 33.6563 31.5126H37.875C38.1563 31.5126 38.4375 31.2734 38.4375 30.9545C38.4375 30.6356 38.1563 30.3965 37.875 30.3965Z" fill="#686FF2"/>
<path d="M37.875 31.8311H33.6563C33.375 31.8311 33.0938 32.0704 33.0938 32.3893C33.0938 32.7082 33.375 32.9473 33.6563 32.9473H37.875C38.1563 32.9473 38.4375 32.7082 38.4375 32.3893C38.4375 32.0704 38.1563 31.8311 37.875 31.8311Z" fill="#686FF2"/>
<path d="M10.3125 25.2144C10.0312 25.2144 9.75 25.4535 9.75 25.7724C9.75 26.0913 10.0312 26.3304 10.3125 26.3304H14.5312C14.8125 26.3304 15.0937 26.0913 15.0937 25.7724C15.0937 25.4535 14.8125 25.2144 14.5312 25.2144H10.3125Z" fill="#686FF2"/>
</g>
<defs>
<clipPath id="clip0_3802_4706">
<rect width="48" height="48" fill="white"/>
</clipPath>
</defs>
</svg>
