<svg width="48" height="48" viewBox="0 0 48 48" fill="none" xmlns="http://www.w3.org/2000/svg">
<path d="M21.457 24.7746H17.5629V22.5876H21.457V24.7746ZM31.6291 22.5876H23.4437V24.7746H31.6291V22.5876ZM38.2252 42.2712C39.8146 40.4486 41.3245 38.5349 42.755 36.5301C44.5033 33.9785 46.0927 31.2447 47.3642 28.5109L48 27.144L46.649 26.8705C44.8212 26.506 43.0728 25.9593 41.4834 25.048C40.2914 24.4101 39.1788 23.6811 38.1457 22.7698L37.5894 22.3142L37.0331 22.7698C36 23.6811 34.8874 24.4101 33.6954 25.048C32.0265 25.8681 30.2781 26.506 28.5298 26.8705L27.1788 27.144L27.8146 28.5109C29.1656 31.3358 30.6755 33.9785 32.4239 36.5301C33.7748 38.5349 35.2848 40.4486 36.9537 42.2712L37.6689 43L38.3841 42.2712H38.2252ZM34.4106 27.0527C35.5232 26.506 36.5563 25.777 37.5099 25.048C38.4636 25.777 39.4967 26.506 40.6093 27.0527C41.9603 27.7818 43.4702 28.3286 44.9801 28.6931C43.8676 30.8801 42.596 33.0672 41.1656 35.072C40.053 36.7123 38.7814 38.3525 37.5099 39.8105C36.2384 38.2614 34.9669 36.7123 33.8543 35.072C32.4238 33.0672 31.1523 30.8801 30.0397 28.6931C31.5497 28.3286 32.9801 27.7818 34.4106 27.0527ZM38.9404 10.012V21.7675C38.9404 21.7675 38.7815 21.6762 38.7815 21.5851L37.5099 20.4006L36.2384 21.5851C36.2384 21.5851 36.0795 21.6764 36.0795 21.7675V18.4869H2.78146V32.885C2.78146 33.7963 3.41719 34.6163 4.29136 34.6163H29.9602C30.4371 35.7099 31.3907 37.0769 32.0265 37.897H4.37086C1.98676 37.897 0 35.6188 0 32.885V10.012C0 7.27818 1.98676 5 4.37086 5H34.7285C37.1126 5 39.0993 7.27818 39.0993 10.012H38.9404ZM2.78146 10.012V11.2879H36.0795V10.012C36.0795 9.10072 35.4437 8.28067 34.5696 8.28067H4.21191C3.41721 8.28067 2.70196 9.0096 2.70196 10.012H2.78146ZM36.0795 16.2999V13.4749H2.78146V16.2999H36.0795ZM41.0861 30.2422L40.4503 29.4221L36.6358 33.5229L34.649 30.6978L33.8543 31.4269L36.4768 35.2542L41.0861 30.3334V30.2422Z" fill="#686FF2"/>
</svg>
