<svg width="48" height="48" viewBox="0 0 48 48" fill="none" xmlns="http://www.w3.org/2000/svg">
<path d="M40.9998 33V17C40.9998 12.286 40.9998 9.928 39.5358 8.464C38.0698 7 35.7138 7 30.9998 7H16.9998C12.2858 7 9.92784 7 8.46384 8.464C6.99984 9.928 6.99984 12.286 6.99984 17V33M40.9998 33H6.99984M40.9998 33L44.8898 39.552C44.9673 39.7064 45.0034 39.8783 44.9947 40.0509C44.986 40.2234 44.9327 40.3908 44.84 40.5366C44.7474 40.6824 44.6185 40.8018 44.466 40.883C44.3135 40.9642 44.1426 41.0045 43.9698 41M6.99984 33L3.10984 39.552C2.76784 40.218 3.26584 41 4.03184 41H43.9678" stroke="#1C82FA" stroke-width="2.8125" stroke-linecap="round" stroke-linejoin="round"/>
<path d="M15 20H19L22 25L26 15L29 20H33" stroke="#1C82FA" stroke-width="2.8125" stroke-linecap="round" stroke-linejoin="round"/>
</svg>
