<svg width="55" height="55" viewBox="0 0 55 55" fill="none" xmlns="http://www.w3.org/2000/svg">
<g clip-path="url(#clip0_2586_7631)">
<path d="M0 51.5625H55M30.9375 45.8333V32.0833C30.9375 32.0833 25.2083 28.6458 16.0417 28.6458C6.875 28.6458 1.14583 32.0833 1.14583 32.0833V45.8333M40.1042 3.4375V10.3125H33.2292V17.1875H40.1042V24.0625H46.9792V17.1875H53.8542V10.3125H46.9792V3.4375H40.1042ZM15.455 24.0625C15.455 24.0625 9.16438 20.0567 9.16438 15.0471C9.16438 11.1719 12.2444 8.03 16.044 8.03C19.8435 8.03 22.9075 11.1719 22.9075 15.0471C22.9075 20.0521 16.6375 24.0625 16.6375 24.0625H15.455Z" stroke="#0CAC41" stroke-width="3"/>
</g>
<defs>
<clipPath id="clip0_2586_7631">
<rect width="55" height="55" fill="white"/>
</clipPath>
</defs>
</svg>
