<svg width="66" height="66" viewBox="0 0 66 66" fill="none" xmlns="http://www.w3.org/2000/svg">
<path d="M11 38.6925C13.7912 38.6925 17.6853 37.862 20.13 39.655L24.9755 43.2025C26.7767 44.5225 28.7265 44.088 30.7368 43.7745C33.3823 43.3593 35.75 45.617 35.75 48.554C35.75 49.357 30.0493 51.4003 29.227 51.788C28.4353 52.1624 27.5564 52.3136 26.6851 52.2254C25.8138 52.1372 24.9831 51.813 24.2825 51.2875L18.8155 47.2808" stroke="#0CAC41" stroke-width="3" stroke-linecap="round" stroke-linejoin="round"/>
<path d="M35.75 46.75L47.0002 41.5525C47.9924 41.2097 49.0626 41.161 50.0818 41.4122C51.101 41.6635 52.0259 42.204 52.745 42.9688L54.5875 44.8965C55.2475 45.584 55.0935 46.7445 54.2767 47.2175L32.6783 59.7603C32.0402 60.1342 31.332 60.3728 30.5977 60.4613C29.8635 60.5498 29.1189 60.4862 28.4103 60.2745L11 55.0743M33.0055 33C33.0055 33 38.7805 26.8427 38.7805 19.25C38.7805 11.6573 33.0055 5.5 33.0055 5.5C33.0055 5.5 27.2305 11.6573 27.2305 19.25C27.2305 26.8427 33.0055 33 33.0055 33ZM33.0055 33C33.0055 33 41.4398 32.813 46.7555 27.39C52.0713 21.9642 52.2555 13.3567 52.2555 13.3567C52.2555 13.3567 48.763 13.4338 44.858 14.9353M33.0055 33C33.0055 33 24.5712 32.813 19.2555 27.39C13.9397 21.9642 13.7555 13.3567 13.7555 13.3567C13.7555 13.3567 17.248 13.4338 21.153 14.9353" stroke="#0CAC41" stroke-width="3" stroke-linecap="round" stroke-linejoin="round"/>
</svg>
