<svg width="43" height="43" viewBox="0 0 43 43" fill="none" xmlns="http://www.w3.org/2000/svg">
<g clip-path="url(#clip0_2586_7647)">
<path d="M33.5937 29.0234C33.4156 29.0234 33.2447 28.9526 33.1187 28.8266C32.9927 28.7006 32.9219 28.5298 32.9219 28.3516C32.9219 28.1734 32.9927 28.0025 33.1187 27.8765C33.2447 27.7505 33.4156 27.6797 33.5937 27.6797M33.5937 29.0234C33.7719 29.0234 33.9428 28.9526 34.0688 28.8266C34.1948 28.7006 34.2656 28.5298 34.2656 28.3516C34.2656 28.1734 34.1948 28.0025 34.0688 27.8765C33.9428 27.7505 33.7719 27.6797 33.5937 27.6797" stroke="#0CAC41" stroke-width="3"/>
<path d="M33.5937 20.2891C35.7321 20.2891 37.7828 21.1385 39.2948 22.6505C40.8068 24.1625 41.6562 26.2133 41.6562 28.3516C41.6562 31.7916 36.8402 38.3437 34.6526 41.1405C34.5269 41.3013 34.3663 41.4314 34.1828 41.5209C33.9993 41.6104 33.7979 41.6569 33.5937 41.6569C33.3896 41.6569 33.1882 41.6104 33.0047 41.5209C32.8212 41.4314 32.6606 41.3013 32.5349 41.1405C30.3473 38.3419 25.5312 31.7934 25.5312 28.3516C25.5312 26.2133 26.3807 24.1625 27.8927 22.6505C29.4047 21.1385 31.4554 20.2891 33.5937 20.2891Z" stroke="#0CAC41" stroke-width="3" stroke-linecap="round" stroke-linejoin="round"/>
<path d="M25.5312 41.2497C21.628 42.0469 17.576 41.6696 13.887 40.1656C10.198 38.6615 7.0374 36.0981 4.80426 32.799C2.57111 29.4999 1.36558 25.6131 1.3399 21.6293C1.31421 17.6456 2.46951 13.7436 4.65993 10.4159C6.85034 7.08833 9.97764 4.48437 13.6469 2.93286C17.3162 1.38135 21.363 0.951868 25.2762 1.69865C29.1894 2.44543 32.7936 4.33498 35.6337 7.1287C38.4737 9.92243 40.4223 13.4951 41.2334 17.3954" stroke="#0CAC41" stroke-width="3" stroke-linecap="round" stroke-linejoin="round"/>
<path d="M16.6481 41.0507C13.923 37.0535 12.1009 29.7901 12.1009 21.4929C12.1009 13.1957 13.923 5.93406 16.6481 1.93506M1.40106 20.1491H22.8473M5.38394 9.40452H37.6214M3.68185 30.8956H20.1598M26.359 1.93506C28.6806 5.85406 30.0937 10.2439 30.4941 14.7813" stroke="#0CAC41" stroke-width="3" stroke-linecap="round" stroke-linejoin="round"/>
</g>
<defs>
<clipPath id="clip0_2586_7647">
<rect width="43" height="43" fill="white"/>
</clipPath>
</defs>
</svg>
