<svg width="62" height="62" viewBox="0 0 62 62" fill="none" xmlns="http://www.w3.org/2000/svg">
<g clip-path="url(#clip0_2476_16967)">
<path d="M59.6975 33.2852C59.2603 38.7788 57.2553 44.0315 53.9207 48.4192C50.5861 52.807 46.0621 56.1452 40.8861 58.0374C35.7101 59.9296 30.0997 60.2963 24.7214 59.0937C19.3432 57.8912 14.4232 55.1701 10.5459 51.2537C6.66866 47.3373 3.99713 42.3902 2.84873 37.0001C1.70032 31.61 2.12331 26.0036 4.06745 20.8469C6.01159 15.6902 9.39515 11.1999 13.8161 7.90954C18.2371 4.6192 23.5097 2.6671 29.0075 2.28516" stroke="#233F90" stroke-width="2.5" stroke-linecap="round" stroke-linejoin="round"/>
<path d="M43.3561 35.8272C42.5564 37.8856 41.2562 39.7122 39.5731 41.1418C37.8901 42.5714 35.8772 43.5589 33.7165 44.015C31.5559 44.4712 29.3156 44.3815 27.1983 43.7542C25.081 43.127 23.1534 41.9818 21.5899 40.4223C20.0264 38.8628 18.8763 36.9382 18.2436 34.8225C17.6108 32.7069 17.5154 30.4668 17.966 28.305C18.4166 26.1432 19.3989 24.1278 20.8242 22.441C22.2494 20.7543 24.0727 19.4494 26.129 18.6444M31.0004 31.0001L42.0718 19.9286M42.0718 19.9286L50.929 22.1429L59.7861 13.2858L50.929 11.0715L48.7147 2.21436L39.8576 11.0715L42.0718 19.9286Z" stroke="#233F90" stroke-width="2.5" stroke-linecap="round" stroke-linejoin="round"/>
</g>
<defs>
<clipPath id="clip0_2476_16967">
<rect width="62" height="62" fill="white"/>
</clipPath>
</defs>
</svg>
