<svg width="194" height="144" viewBox="0 0 194 144" fill="none" xmlns="http://www.w3.org/2000/svg">
<path d="M81.6142 97.9186C78.2188 100.368 74.7175 102.641 70.8105 104.232C48.3035 113.447 20.9636 104.241 8.65178 83.2392C4.44495 76.0675 1.56102 68.4095 0.767283 60.0617C0.890754 58.806 1.05832 57.5414 0 56.5422C0 55.0654 0 53.5974 0 52.1207C0.767283 51.0507 0.987766 49.8569 0.740825 48.5746C1.88734 37.5739 6.27055 27.9085 12.9468 19.2335C17.8504 12.8931 24.0151 8.10903 31.4498 5.04051C36.0976 3.12158 40.9482 2.02505 45.9488 1.56521C52.8984 0.928515 59.7158 1.35298 66.3479 3.78481C72.0011 5.86291 77.0105 8.98449 81.5966 12.8489C81.623 13.1584 81.6495 13.4591 81.6759 13.7686C81.6759 23.434 81.6759 33.0994 81.6759 42.7648C81.6583 42.9593 81.6407 43.1539 81.623 43.3572C81.4731 43.3396 81.332 43.3484 81.1909 43.3838C79.6299 41.7301 78.1306 40.0146 76.5078 38.4229C70.8722 32.8694 64.1343 30.756 56.3556 32.2239C42.2623 34.8768 34.1838 50.0956 39.837 63.2717C43.1089 70.8855 49.5206 75.0948 57.8196 75.0506C62.3087 75.024 66.489 73.7506 70.5195 71.8671C74.5499 69.9747 78.0159 67.2776 81.3673 64.4036C81.773 65.1641 81.6142 65.9865 81.6142 66.7912C81.623 77.164 81.6142 87.5457 81.6142 97.9186Z" fill="#B5B5B5" fill-opacity="0.15"/>
<path d="M137.176 0.450993C137.167 0.300662 137.158 0.150331 137.15 0C141.118 0 145.087 0 149.056 0C149.003 0.106116 148.941 0.203389 148.906 0.309505C148.888 0.362563 148.932 0.433307 148.95 0.495208C145.025 0.477522 141.101 0.468679 137.176 0.450993Z" fill="#B5B5B5" fill-opacity="0.15"/>
<path d="M0.00881934 56.5422C1.05832 57.5414 0.899573 58.806 0.776102 60.0617C0.520341 60.0263 0.255761 59.8318 0.00881934 60.0794C0.00881934 58.9032 0.00881934 57.7271 0.00881934 56.5422Z" fill="#B5B5B5" fill-opacity="0.15"/>
<path d="M0.00881934 48.5923C0.26458 48.8134 0.502703 48.6188 0.749644 48.5746C0.996586 49.8657 0.776102 51.0507 0.00881934 52.1207C0.00881934 50.9534 0.00881934 49.7684 0.00881934 48.5923Z" fill="#B5B5B5" fill-opacity="0.15"/>
<path d="M137.176 0.450993C141.101 0.459836 145.025 0.477522 148.95 0.486365C163.043 1.87472 174.35 8.25052 182.649 19.7464C190.083 30.0397 194.228 41.4825 193.99 54.3137C193.682 70.4168 184.642 93.1522 163.387 102.34C146.313 109.724 130.165 107.876 115.498 95.9731C115.216 95.7432 114.898 95.5663 114.599 95.3718C113.911 94.5582 114.334 93.5943 114.246 92.6924C114.793 92.2414 114.625 91.6135 114.625 91.0476C114.634 83.3188 114.634 75.59 114.634 67.87C114.634 67.2953 114.784 66.6762 114.219 66.2429C114.228 65.9069 114.272 65.5886 114.59 65.3852C115.463 65.7035 115.939 66.4905 116.574 67.0919C119.908 70.2842 123.612 72.9017 128.004 74.3785C135.395 76.8722 142.291 75.9526 148.191 70.6821C154.409 65.1287 157.355 58.1339 156.076 49.7331C154.418 38.8473 144.628 30.022 132.634 30.6587C124.829 31.0743 118.479 34.3285 115.154 41.9777C114.995 41.8186 114.837 41.6594 114.678 41.5091C114.678 32.1089 114.687 22.7177 114.669 13.3176C114.669 12.5482 114.96 11.6816 114.246 11.0272C114.246 10.7354 114.228 10.4347 114.502 10.2402C115.551 9.96606 116.168 9.09945 116.962 8.4716C122.889 3.78481 129.627 1.10538 137.176 0.450993Z" fill="#B5B5B5" fill-opacity="0.15"/>
<path d="M114.237 92.71C114.325 93.6032 113.902 94.5671 114.59 95.3895C114.572 98.8471 114.537 102.305 114.537 105.762C114.528 119.381 114.537 132.999 114.528 146.617C114.528 147.501 114.475 148.377 114.449 149.261C113.575 149.296 112.694 149.349 111.82 149.358C103.707 149.367 95.5929 149.367 87.4702 149.358C85.5741 149.358 83.6691 149.296 81.773 149.27C81.7465 148.386 81.7024 147.51 81.6936 146.626C81.6848 131.274 81.6936 115.914 81.6848 100.563C81.6848 99.6872 81.623 98.8029 81.5966 97.9274C81.5966 87.5546 81.6054 77.1729 81.5966 66.8C81.5966 66.0042 81.7553 65.1729 81.3496 64.4124C81.7994 63.6785 81.6936 62.8561 81.6936 62.0514C81.6936 58.3019 81.72 54.5525 81.6848 50.8031C81.6583 48.4508 81.8611 46.0986 81.5525 43.7552C81.5966 43.6314 81.6142 43.4987 81.6142 43.3749C81.6318 43.1804 81.6495 42.9858 81.6671 42.7913C82.1345 42.3049 81.9846 41.6948 81.9846 41.12C81.9934 32.5688 81.9934 24.0088 81.9846 15.4576C81.9846 14.8916 82.1345 14.2726 81.6759 13.7862C81.6495 13.4767 81.623 13.1761 81.5966 12.8666C81.6318 10.364 81.6671 7.86143 81.7112 5.3677C81.7377 3.63447 81.7465 3.5991 83.3693 3.59026C93.2205 3.58142 103.063 3.58142 112.914 3.59026C114.475 3.59026 114.502 3.63447 114.519 5.19084C114.537 6.87986 114.493 8.57771 114.475 10.2667C114.202 10.4701 114.219 10.7708 114.219 11.0538C114.219 21.2144 114.219 31.3838 114.219 41.5444C114.299 42.1281 114.043 42.7736 114.537 43.2777C114.554 50.6527 114.563 58.0278 114.581 65.4029C114.263 65.6062 114.219 65.9246 114.21 66.2606C114.228 75.0683 114.237 83.8847 114.237 92.71Z" fill="#B5B5B5" fill-opacity="0.15"/>
<path d="M81.7906 149.261C83.6868 149.296 85.5917 149.349 87.4879 149.349C95.6017 149.358 103.715 149.358 111.838 149.349C112.711 149.349 113.593 149.288 114.466 149.252C114.51 149.597 114.343 149.818 114.008 149.845C113.505 149.889 112.993 149.915 112.482 149.915C102.913 149.915 93.3528 149.933 83.7838 149.898C83.0959 149.907 82.1522 150.366 81.7906 149.261Z" fill="#B5B5B5" fill-opacity="0.15"/>
<path d="M81.6759 13.7774C82.1434 14.2638 81.9846 14.8828 81.9846 15.4487C81.9934 23.9999 81.9934 32.5599 81.9846 41.1111C81.9846 41.6771 82.1345 42.2961 81.6671 42.7825C81.6759 33.1082 81.6759 23.4428 81.6759 13.7774Z" fill="#B5B5B5" fill-opacity="0.15"/>
<path d="M81.5701 43.7463C81.3585 43.7198 81.2085 43.6225 81.1997 43.3838C81.3408 43.3484 81.4907 43.3396 81.6407 43.3572C81.6318 43.4899 81.6054 43.6225 81.5701 43.7463Z" fill="#B5B5B5" fill-opacity="0.15"/>
<path d="M114.219 41.5356C114.219 31.375 114.219 21.2055 114.219 11.0449C114.934 11.6993 114.643 12.5571 114.643 13.3352C114.669 22.7265 114.66 32.1266 114.66 41.5267C114.51 41.5179 114.369 41.5179 114.219 41.5356Z" fill="#B5B5B5" fill-opacity="0.15"/>
<path d="M114.237 92.71C114.228 83.8936 114.219 75.0771 114.21 66.2606C114.784 66.6939 114.625 67.3129 114.625 67.8877C114.625 75.6165 114.625 83.3453 114.616 91.0653C114.625 91.6312 114.784 92.2591 114.237 92.71Z" fill="#B5B5B5" fill-opacity="0.15"/>
<path d="M114.219 41.5356C114.369 41.5267 114.51 41.5179 114.66 41.5267C114.819 41.6859 114.978 41.8451 115.137 41.9954C115.154 42.526 114.96 42.9505 114.537 43.2688C114.043 42.7648 114.299 42.1192 114.219 41.5356Z" fill="#B5B5B5" fill-opacity="0.15"/>
</svg>
