<svg width="62" height="62" viewBox="0 0 62 62" fill="none" xmlns="http://www.w3.org/2000/svg">
<path d="M6.45801 21.1497C6.72667 15.7247 7.53009 12.3405 9.93776 9.938C12.3403 7.53034 15.7244 6.72692 21.1494 6.45825M55.5413 21.1497C55.2727 15.7247 54.4693 12.3405 52.0616 9.938C49.6591 7.53034 46.2749 6.72692 40.8499 6.45825M40.8499 55.5416C46.2749 55.2729 49.6591 54.4695 52.0616 52.0618C54.4693 49.6593 55.2727 46.2752 55.5413 40.8502M21.1494 55.5416C15.7244 55.2729 12.3403 54.4695 9.93776 52.0618C7.53009 49.6593 6.72667 46.2752 6.45801 40.8502" stroke="#233F90" stroke-width="2" stroke-linecap="round" stroke-linejoin="round"/>
<path d="M50.7234 29.2381C51.3512 30.0234 51.6663 30.4187 51.6663 30.9999C51.6663 31.5812 51.3512 31.9764 50.7234 32.7618C47.8998 36.2958 40.6898 43.9166 30.9997 43.9166C21.3096 43.9166 14.0995 36.2958 11.2759 32.7618C10.6482 31.9764 10.333 31.5812 10.333 30.9999C10.333 30.4187 10.6482 30.0234 11.2759 29.2381C14.0995 25.7041 21.3096 18.0833 30.9997 18.0833C40.6898 18.0833 47.8998 25.7041 50.7234 29.2381Z" stroke="#233F90" stroke-width="2"/>
<path d="M36.1663 30.9999C36.1663 29.6296 35.622 28.3155 34.6531 27.3465C33.6841 26.3776 32.37 25.8333 30.9997 25.8333C29.6294 25.8333 28.3152 26.3776 27.3463 27.3465C26.3774 28.3155 25.833 29.6296 25.833 30.9999C25.833 32.3702 26.3774 33.6844 27.3463 34.6533C28.3152 35.6222 29.6294 36.1666 30.9997 36.1666C32.37 36.1666 33.6841 35.6222 34.6531 34.6533C35.622 33.6844 36.1663 32.3702 36.1663 30.9999Z" stroke="#233F90" stroke-width="2"/>
</svg>
