<svg width="30" height="30" viewBox="0 0 30 30" fill="none" xmlns="http://www.w3.org/2000/svg">
<path d="M22.25 24L20 13.75L24.375 9.375C26.25 7.5 26.875 5 26.25 3.75C25 3.125 22.5 3.75 20.625 5.625L16.25 10L6 7.75C5.375 7.625 4.875 7.875 4.625 8.375L4.25 9C4 9.625 4.125 10.25 4.625 10.625L11.25 15L8.75 18.75H5L3.75 20L7.5 22.5L10 26.25L11.25 25V21.25L15 18.75L19.375 25.375C19.75 25.875 20.375 26 21 25.75L21.625 25.5C22.125 25.125 22.375 24.625 22.25 24Z" stroke="black" stroke-linecap="round" stroke-linejoin="round"/>
</svg>
