<svg width="36" height="36" viewBox="0 0 36 36" fill="none" xmlns="http://www.w3.org/2000/svg">
<path fill-rule="evenodd" clip-rule="evenodd" d="M18.9687 17.1962L25.2575 23.485L23.887 24.8572L17.0292 17.9994V8.30192H18.9687V17.1962ZM17.9989 34.162C9.07239 34.162 1.83643 26.926 1.83643 17.9994C1.83643 9.07288 9.07239 1.83691 17.9989 1.83691C26.9255 1.83691 34.1615 9.07288 34.1615 17.9994C34.1615 26.926 26.9255 34.162 17.9989 34.162ZM17.9989 32.2225C21.7711 32.2225 25.3888 30.724 28.0561 28.0566C30.7235 25.3893 32.222 21.7716 32.222 17.9994C32.222 14.2273 30.7235 10.6096 28.0561 7.94224C25.3888 5.27491 21.7711 3.77642 17.9989 3.77642C14.2268 3.77642 10.6091 5.27491 7.94175 7.94224C5.27442 10.6096 3.77593 14.2273 3.77593 17.9994C3.77593 21.7716 5.27442 25.3893 7.94175 28.0566C10.6091 30.724 14.2268 32.2225 17.9989 32.2225Z" fill="white"/>
</svg>
