<svg width="36" height="36" viewBox="0 0 36 36" fill="none" xmlns="http://www.w3.org/2000/svg">
<path d="M28.8439 5.91683H24.4064V3.69808C24.4064 3.50193 24.3285 3.31381 24.1898 3.17512C24.0511 3.03642 23.863 2.9585 23.6668 2.9585C23.4707 2.9585 23.2826 3.03642 23.1439 3.17512C23.0052 3.31381 22.9272 3.50193 22.9272 3.69808V5.91683H12.5731V3.69808C12.5731 3.50193 12.4952 3.31381 12.3565 3.17512C12.2178 3.03642 12.0296 2.9585 11.8335 2.9585C11.6373 2.9585 11.4492 3.03642 11.3105 3.17512C11.1718 3.31381 11.0939 3.50193 11.0939 3.69808V5.91683H6.65641C5.67602 5.918 4.73613 6.30798 4.04289 7.00122C3.34965 7.69446 2.95967 8.63436 2.9585 9.61475V28.8439C2.95967 29.8243 3.34965 30.7642 4.04289 31.4574C4.73613 32.1507 5.67602 32.5407 6.65641 32.5418H28.8439C29.8247 32.5418 30.7652 32.1522 31.4587 31.4587C32.1522 30.7652 32.5418 29.8247 32.5418 28.8439V9.61475C32.5418 8.634 32.1522 7.69342 31.4587 6.99992C30.7652 6.30643 29.8247 5.91683 28.8439 5.91683ZM31.0627 28.8439C31.0627 29.4324 30.8289 29.9967 30.4128 30.4128C29.9967 30.8289 29.4324 31.0627 28.8439 31.0627H6.65641C6.06796 31.0627 5.50362 30.8289 5.08752 30.4128C4.67142 29.9967 4.43766 29.4324 4.43766 28.8439V16.271H31.0627V28.8439ZM31.0627 14.7918H4.43766V9.61475C4.43766 8.39 5.4287 7.396 6.65641 7.396H11.0939V9.61475C11.0939 9.8109 11.1718 9.99901 11.3105 10.1377C11.4492 10.2764 11.6373 10.3543 11.8335 10.3543C12.0296 10.3543 12.2178 10.2764 12.3565 10.1377C12.4952 9.99901 12.5731 9.8109 12.5731 9.61475V7.396H22.9272V9.61475C22.9272 9.8109 23.0052 9.99901 23.1439 10.1377C23.2826 10.2764 23.4707 10.3543 23.6668 10.3543C23.863 10.3543 24.0511 10.2764 24.1898 10.1377C24.3285 9.99901 24.4064 9.8109 24.4064 9.61475V7.396H28.8439C29.4324 7.396 29.9967 7.62976 30.4128 8.04585C30.8289 8.46195 31.0627 9.0263 31.0627 9.61475V14.7918Z" fill="white"/>
</svg>
