<svg width="36" height="36" viewBox="0 0 36 36" fill="none" xmlns="http://www.w3.org/2000/svg">
<path d="M15.0493 22.1075L10.5669 17.6251C10.3981 17.4575 10.1916 17.3677 9.94738 17.3557C9.70315 17.3437 9.48585 17.4335 9.29549 17.6251C9.10513 17.8166 9.00935 18.0285 9.00816 18.2608C9.00696 18.4931 9.10274 18.705 9.29549 18.8965L14.0329 23.6339C14.3226 23.9249 14.6608 24.0703 15.0476 24.0703C15.4343 24.0703 15.7731 23.9249 16.064 23.6339L25.8998 13.7999C26.0674 13.6311 26.1572 13.4246 26.1692 13.1804C26.1811 12.9361 26.0913 12.7188 25.8998 12.5285C25.7082 12.3381 25.4963 12.2423 25.2641 12.2411C25.0318 12.24 24.8199 12.3357 24.6283 12.5285L15.0493 22.1075ZM17.6371 33.7948C15.4031 33.7948 13.302 33.3709 11.3338 32.5233C9.36672 31.6745 7.65529 30.5228 6.19947 29.0681C4.74364 27.6135 3.59132 25.9039 2.74249 23.9392C1.89365 21.9746 1.46924 19.874 1.46924 17.6376C1.46924 15.4012 1.89365 13.3001 2.74249 11.3343C3.59012 9.36721 4.74005 7.65578 6.19229 6.19996C7.64452 4.74413 9.35475 3.59181 11.323 2.74297C13.2912 1.89414 15.3924 1.46973 17.6264 1.46973C19.8604 1.46973 21.9615 1.89414 23.9298 2.74297C25.8968 3.59061 27.6082 4.74114 29.064 6.19457C30.5199 7.648 31.6722 9.35823 32.521 11.3253C33.3699 13.2923 33.7943 15.3928 33.7943 17.6269C33.7943 19.8609 33.3705 21.962 32.5228 23.9302C31.6752 25.8985 30.5235 27.6099 29.0676 29.0645C27.6118 30.5192 25.9022 31.6715 23.9387 32.5215C21.9753 33.3715 19.8748 33.796 17.6371 33.7948ZM17.6318 31.9989C21.6425 31.9989 25.0396 30.6072 27.8231 27.8236C30.6067 25.0401 31.9984 21.6429 31.9984 17.6322C31.9984 13.6215 30.6067 10.2244 27.8231 7.44088C25.0396 4.65733 21.6425 3.26556 17.6318 3.26556C13.6211 3.26556 10.2239 4.65733 7.44039 7.44088C4.65685 10.2244 3.26507 13.6215 3.26507 17.6322C3.26507 21.6429 4.65685 25.0401 7.44039 27.8236C10.2239 30.6072 13.6211 31.9989 17.6318 31.9989Z" fill="white"/>
</svg>
