<svg width="32" height="32" viewBox="0 0 32 32" fill="none" xmlns="http://www.w3.org/2000/svg">
<path d="M3.33366 29.3327H28.667C28.8438 29.3327 29.0134 29.2624 29.1384 29.1374C29.2634 29.0124 29.3337 28.8428 29.3337 28.666V12.666C29.3337 12.4892 29.2634 12.3196 29.1384 12.1946C29.0134 12.0696 28.8438 11.9993 28.667 11.9993H25.3337V5.99935C25.3337 5.82254 25.2634 5.65297 25.1384 5.52794C25.0134 5.40292 24.8438 5.33268 24.667 5.33268H21.3337V4.66602C21.3337 4.13558 21.1229 3.62687 20.7479 3.2518C20.3728 2.87673 19.8641 2.66602 19.3337 2.66602H12.667C12.1366 2.66602 11.6279 2.87673 11.2528 3.2518C10.8777 3.62687 10.667 4.13558 10.667 4.66602V5.33268H7.33366C7.15685 5.33268 6.98728 5.40292 6.86225 5.52794C6.73723 5.65297 6.66699 5.82254 6.66699 5.99935V11.9993H3.33366C3.15685 11.9993 2.98728 12.0696 2.86225 12.1946C2.73723 12.3196 2.66699 12.4892 2.66699 12.666V28.666C2.66699 28.8428 2.73723 29.0124 2.86225 29.1374C2.98728 29.2624 3.15685 29.3327 3.33366 29.3327ZM25.3337 13.3327H28.0003V27.9993H25.3337V13.3327ZM18.0003 27.9993H14.0003V23.3327H18.0003V27.9993ZM12.0003 4.66602C12.0003 4.4892 12.0706 4.31964 12.1956 4.19461C12.3206 4.06959 12.4902 3.99935 12.667 3.99935H19.3337C19.5105 3.99935 19.68 4.06959 19.8051 4.19461C19.9301 4.31964 20.0003 4.4892 20.0003 4.66602V11.3327C20.0003 11.5095 19.9301 11.6791 19.8051 11.8041C19.68 11.9291 19.5105 11.9993 19.3337 11.9993H12.667C12.4902 11.9993 12.3206 11.9291 12.1956 11.8041C12.0706 11.6791 12.0003 11.5095 12.0003 11.3327V4.66602ZM8.00033 6.66602H10.667V11.3327C10.667 11.8631 10.8777 12.3718 11.2528 12.7469C11.6279 13.122 12.1366 13.3327 12.667 13.3327H19.3337C19.8641 13.3327 20.3728 13.122 20.7479 12.7469C21.1229 12.3718 21.3337 11.8631 21.3337 11.3327V6.66602H24.0003V27.9993H19.3337V22.666C19.3337 22.4892 19.2634 22.3196 19.1384 22.1946C19.0134 22.0696 18.8438 21.9993 18.667 21.9993H13.3337C13.1568 21.9993 12.9873 22.0696 12.8623 22.1946C12.7372 22.3196 12.667 22.4892 12.667 22.666V27.9993H8.00033V6.66602ZM4.00033 13.3327H6.66699V27.9993H4.00033V13.3327Z" fill="black"/>
<path d="M13.9997 8.66732H15.333V10.0007C15.333 10.1775 15.4032 10.347 15.5283 10.4721C15.6533 10.5971 15.8229 10.6673 15.9997 10.6673C16.1765 10.6673 16.3461 10.5971 16.4711 10.4721C16.5961 10.347 16.6663 10.1775 16.6663 10.0007V8.66732H17.9997C18.1765 8.66732 18.3461 8.59708 18.4711 8.47206C18.5961 8.34703 18.6663 8.17746 18.6663 8.00065C18.6663 7.82384 18.5961 7.65427 18.4711 7.52925C18.3461 7.40422 18.1765 7.33398 17.9997 7.33398H16.6663V6.00065C16.6663 5.82384 16.5961 5.65427 16.4711 5.52925C16.3461 5.40422 16.1765 5.33398 15.9997 5.33398C15.8229 5.33398 15.6533 5.40422 15.5283 5.52925C15.4032 5.65427 15.333 5.82384 15.333 6.00065V7.33398H13.9997C13.8229 7.33398 13.6533 7.40422 13.5283 7.52925C13.4032 7.65427 13.333 7.82384 13.333 8.00065C13.333 8.17746 13.4032 8.34703 13.5283 8.47206C13.6533 8.59708 13.8229 8.66732 13.9997 8.66732Z" fill="black"/>
<path d="M11.3337 16.6673H12.667C12.8438 16.6673 13.0134 16.5971 13.1384 16.4721C13.2634 16.347 13.3337 16.1775 13.3337 16.0007C13.3337 15.8238 13.2634 15.6543 13.1384 15.5292C13.0134 15.4042 12.8438 15.334 12.667 15.334H11.3337C11.1568 15.334 10.9873 15.4042 10.8623 15.5292C10.7372 15.6543 10.667 15.8238 10.667 16.0007C10.667 16.1775 10.7372 16.347 10.8623 16.4721C10.9873 16.5971 11.1568 16.6673 11.3337 16.6673Z" fill="black"/>
<path d="M13.3337 19.3327C13.3337 19.1559 13.2634 18.9863 13.1384 18.8613C13.0134 18.7363 12.8438 18.666 12.667 18.666H11.3337C11.1568 18.666 10.9873 18.7363 10.8623 18.8613C10.7372 18.9863 10.667 19.1559 10.667 19.3327C10.667 19.5095 10.7372 19.6791 10.8623 19.8041C10.9873 19.9291 11.1568 19.9993 11.3337 19.9993H12.667C12.8438 19.9993 13.0134 19.9291 13.1384 19.8041C13.2634 19.6791 13.3337 19.5095 13.3337 19.3327Z" fill="black"/>
<path d="M15.3337 16.6673H16.667C16.8438 16.6673 17.0134 16.5971 17.1384 16.4721C17.2634 16.347 17.3337 16.1775 17.3337 16.0007C17.3337 15.8238 17.2634 15.6543 17.1384 15.5292C17.0134 15.4042 16.8438 15.334 16.667 15.334H15.3337C15.1568 15.334 14.9873 15.4042 14.8623 15.5292C14.7372 15.6543 14.667 15.8238 14.667 16.0007C14.667 16.1775 14.7372 16.347 14.8623 16.4721C14.9873 16.5971 15.1568 16.6673 15.3337 16.6673Z" fill="black"/>
<path d="M15.3337 19.9993H16.667C16.8438 19.9993 17.0134 19.9291 17.1384 19.8041C17.2634 19.6791 17.3337 19.5095 17.3337 19.3327C17.3337 19.1559 17.2634 18.9863 17.1384 18.8613C17.0134 18.7363 16.8438 18.666 16.667 18.666H15.3337C15.1568 18.666 14.9873 18.7363 14.8623 18.8613C14.7372 18.9863 14.667 19.1559 14.667 19.3327C14.667 19.5095 14.7372 19.6791 14.8623 19.8041C14.9873 19.9291 15.1568 19.9993 15.3337 19.9993Z" fill="black"/>
<path d="M19.3337 16.6673H20.667C20.8438 16.6673 21.0134 16.5971 21.1384 16.4721C21.2634 16.347 21.3337 16.1775 21.3337 16.0007C21.3337 15.8238 21.2634 15.6543 21.1384 15.5292C21.0134 15.4042 20.8438 15.334 20.667 15.334H19.3337C19.1568 15.334 18.9873 15.4042 18.8623 15.5292C18.7372 15.6543 18.667 15.8238 18.667 16.0007C18.667 16.1775 18.7372 16.347 18.8623 16.4721C18.9873 16.5971 19.1568 16.6673 19.3337 16.6673Z" fill="black"/>
<path d="M19.3337 19.9993H20.667C20.8438 19.9993 21.0134 19.9291 21.1384 19.8041C21.2634 19.6791 21.3337 19.5095 21.3337 19.3327C21.3337 19.1559 21.2634 18.9863 21.1384 18.8613C21.0134 18.7363 20.8438 18.666 20.667 18.666H19.3337C19.1568 18.666 18.9873 18.7363 18.8623 18.8613C18.7372 18.9863 18.667 19.1559 18.667 19.3327C18.667 19.5095 18.7372 19.6791 18.8623 19.8041C18.9873 19.9291 19.1568 19.9993 19.3337 19.9993Z" fill="black"/>
</svg>
