<svg width="30" height="30" viewBox="0 0 30 30" fill="none" xmlns="http://www.w3.org/2000/svg">
<path d="M10 14.6875V9.375C10 8.85417 10.1825 8.41167 10.5475 8.0475C10.9125 7.68334 11.355 7.50084 11.875 7.5C12.395 7.49917 12.8379 7.68167 13.2037 8.0475C13.5696 8.41334 13.7517 8.85584 13.75 9.375V14.6875C13.75 15.2083 13.5679 15.6513 13.2037 16.0163C12.8396 16.3813 12.3967 16.5633 11.875 16.5625C11.3533 16.5617 10.9108 16.3796 10.5475 16.0163C10.1842 15.6529 10.0017 15.21 10 14.6875ZM16.25 14.4063V4.375C16.25 3.85417 16.4325 3.41167 16.7975 3.0475C17.1625 2.68334 17.605 2.50084 18.125 2.5C18.645 2.49917 19.0879 2.68167 19.4537 3.0475C19.8196 3.41334 20.0017 3.85584 20 4.375V14.4063C20 15.0313 19.8075 15.5 19.4225 15.8125C19.0375 16.125 18.605 16.2813 18.125 16.2813C17.645 16.2813 17.2129 16.125 16.8288 15.8125C16.4446 15.5 16.2517 15.0313 16.25 14.4063ZM3.75 18.7188V14.375C3.75 13.8542 3.9325 13.4117 4.2975 13.0475C4.6625 12.6833 5.105 12.5008 5.625 12.5C6.145 12.4992 6.58792 12.6817 6.95375 13.0475C7.31958 13.4133 7.50167 13.8558 7.5 14.375V18.7188C7.5 19.3438 7.3075 19.8125 6.9225 20.125C6.5375 20.4375 6.105 20.5938 5.625 20.5938C5.145 20.5938 4.71292 20.4375 4.32875 20.125C3.94458 19.8125 3.75167 19.3438 3.75 18.7188ZM6.75 26.3125C6.20833 26.3125 5.82792 26.0575 5.60875 25.5475C5.38958 25.0375 5.47833 24.5842 5.875 24.1875L11 19.0625C11.2292 18.8333 11.5054 18.7083 11.8288 18.6875C12.1521 18.6667 12.4383 18.7708 12.6875 19L16.25 22.0625L23.25 15.0625H22.5C22.1458 15.0625 21.8492 14.9425 21.61 14.7025C21.3708 14.4625 21.2508 14.1658 21.25 13.8125C21.2492 13.4592 21.3692 13.1625 21.61 12.9225C21.8508 12.6825 22.1475 12.5625 22.5 12.5625H26.25C26.6042 12.5625 26.9012 12.6825 27.1412 12.9225C27.3812 13.1625 27.5008 13.4592 27.5 13.8125V17.5625C27.5 17.9167 27.38 18.2138 27.14 18.4538C26.9 18.6938 26.6033 18.8133 26.25 18.8125C25.8967 18.8117 25.6 18.6917 25.36 18.4525C25.12 18.2133 25 17.9167 25 17.5625V16.8125L17.1875 24.625C16.9583 24.8542 16.6821 24.9792 16.3587 25C16.0354 25.0208 15.7492 24.9167 15.5 24.6875L11.9375 21.625L7.625 25.9375C7.52083 26.0417 7.39083 26.1304 7.235 26.2038C7.07917 26.2771 6.9175 26.3133 6.75 26.3125Z" fill="white"/>
</svg>
