<svg width="31" height="31" viewBox="0 0 31 31" fill="none" xmlns="http://www.w3.org/2000/svg">
<g clip-path="url(#clip0_2476_17122)">
<path d="M15.4984 8.51991C18.2958 6.83629 20.2591 5.02491 20.2233 3.0862C20.2232 1.38446 18.8388 0 17.1371 0C16.5517 0 15.9848 0.166625 15.4984 0.4716C15.012 0.166625 14.4451 0 13.8597 0C12.158 0 10.7735 1.38446 10.7735 3.0862C10.7607 4.90375 12.4156 6.67051 15.4984 8.51991ZM13.8597 1.81641C14.6005 1.79419 15.0769 2.57451 15.4984 3.03098C15.8789 2.60418 16.4711 1.74878 17.1371 1.81641C17.8373 1.81641 18.4069 2.38603 18.4069 3.0862C18.4069 3.71631 17.8875 4.78538 15.4984 6.36838C13.1093 4.78538 12.5899 3.71631 12.5899 3.0862C12.5899 2.38603 13.1595 1.81641 13.8597 1.81641Z" fill="white"/>
<path d="M26.1055 18.0258C27.4164 17.026 28.2641 15.4483 28.2641 13.6761C28.2641 10.6609 25.8111 8.20795 22.796 8.20795C19.7808 8.20795 17.3278 10.6609 17.3278 13.6761C17.3278 15.4482 18.1754 17.0258 19.4863 18.0257C19.1657 18.1676 18.8556 18.3291 18.558 18.5095C17.749 17.7756 16.6759 17.3278 15.5001 17.3278C14.8829 17.3278 14.2943 17.4518 13.757 17.6751C13.099 17.069 12.3421 16.569 11.5134 16.2021C12.8245 15.2023 13.6723 13.6245 13.6723 11.8521C13.6723 8.83697 11.2193 6.38403 8.20416 6.38403C5.18905 6.38403 2.73605 8.83703 2.73605 11.8521C2.73605 13.6244 3.58371 15.202 4.89461 16.2019C2.01458 17.4766 0 20.3612 0 23.7079V31H31V25.5319C31 22.1852 28.9854 19.3006 26.1055 18.0258ZM19.1442 13.6761C19.1442 11.6624 20.7824 10.0244 22.7959 10.0244C24.8094 10.0244 26.4476 11.6625 26.4476 13.6761C26.4476 15.6896 24.8094 17.3278 22.7959 17.3278C20.7824 17.3278 19.1442 15.6897 19.1442 13.6761ZM18.2397 21.884C18.2397 23.3947 17.0107 24.6237 15.5 24.6237C13.9893 24.6237 12.7603 23.3947 12.7603 21.884C12.7603 20.3733 13.9893 19.1442 15.5 19.1442C17.0107 19.1442 18.2397 20.3732 18.2397 21.884ZM4.55234 11.8521C4.55234 9.83847 6.19049 8.20038 8.2041 8.20038C10.2177 8.20038 11.8558 9.83854 11.8558 11.8521C11.8558 13.8656 10.2176 15.5038 8.2041 15.5038C6.19055 15.5038 4.55234 13.8657 4.55234 11.8521ZM10.1077 29.1836H1.81641V23.7079C1.81641 20.1857 4.68191 17.3202 8.2041 17.3202C9.71989 17.3202 11.1138 17.8512 12.2102 18.7367C11.4268 19.5553 10.9438 20.664 10.9438 21.8839C10.9438 23.3157 11.6083 24.5945 12.6443 25.4304C11.3244 26.2421 10.3739 27.5982 10.1077 29.1836ZM11.9625 29.1836C12.3673 27.608 13.7998 26.4401 15.5 26.4401C17.2002 26.4401 18.6327 27.608 19.0375 29.1836H11.9625ZM29.1836 29.1836H20.8923C20.6261 27.5982 19.6756 26.2421 18.3557 25.4304C19.3917 24.5946 20.0562 23.3157 20.0562 21.8839C20.0562 21.205 19.9058 20.5609 19.6384 19.9815C20.5703 19.4493 21.648 19.1442 22.7959 19.1442C26.3181 19.1442 29.1836 22.0097 29.1836 25.5319V29.1836Z" fill="white"/>
</g>
<defs>
<clipPath id="clip0_2476_17122">
<rect width="31" height="31" fill="white"/>
</clipPath>
</defs>
</svg>
