<svg width="31" height="31" viewBox="0 0 31 31" fill="none" xmlns="http://www.w3.org/2000/svg">
<g clip-path="url(#clip0_3357_12746)">
<path d="M15.4994 8.51991C18.2968 6.83629 20.2601 5.02491 20.2243 3.0862C20.2242 1.38446 18.8398 0 17.1381 0C16.5527 0 15.9858 0.166625 15.4994 0.4716C15.013 0.166625 14.4461 0 13.8607 0C12.159 0 10.7745 1.38446 10.7745 3.0862C10.7617 4.90375 12.4166 6.67051 15.4994 8.51991ZM13.8607 1.81641C14.6015 1.79419 15.0779 2.57451 15.4994 3.03098C15.8799 2.60418 16.4721 1.74878 17.1381 1.81641C17.8383 1.81641 18.4079 2.38603 18.4079 3.0862C18.4079 3.71631 17.8884 4.78538 15.4994 6.36838C13.1103 4.78538 12.5909 3.71631 12.5909 3.0862C12.5909 2.38603 13.1605 1.81641 13.8607 1.81641Z" fill="black" fill-opacity="0.5"/>
<path d="M26.1055 18.0265C27.4164 17.0267 28.2641 15.449 28.2641 13.6768C28.2641 10.6616 25.8111 8.20868 22.796 8.20868C19.7808 8.20868 17.3278 10.6617 17.3278 13.6768C17.3278 15.4489 18.1754 17.0265 19.4863 18.0264C19.1657 18.1683 18.8556 18.3299 18.558 18.5102C17.749 17.7763 16.6759 17.3286 15.5001 17.3286C14.8829 17.3286 14.2943 17.4525 13.757 17.6759C13.099 17.0697 12.3421 16.5697 11.5134 16.2029C12.8245 15.2031 13.6723 13.6252 13.6723 11.8529C13.6723 8.8377 11.2193 6.38477 8.20416 6.38477C5.18905 6.38477 2.73605 8.83776 2.73605 11.8529C2.73605 13.6251 3.58371 15.2028 4.89461 16.2026C2.01458 17.4773 0 20.362 0 23.7086V31.0008H31V25.5327C31 22.1859 28.9854 19.3013 26.1055 18.0265ZM19.1442 13.6768C19.1442 11.6632 20.7824 10.0251 22.7959 10.0251C24.8094 10.0251 26.4476 11.6632 26.4476 13.6768C26.4476 15.6903 24.8094 17.3285 22.7959 17.3285C20.7824 17.3285 19.1442 15.6904 19.1442 13.6768ZM18.2397 21.8847C18.2397 23.3954 17.0107 24.6245 15.5 24.6245C13.9893 24.6245 12.7603 23.3954 12.7603 21.8847C12.7603 20.374 13.9893 19.145 15.5 19.145C17.0107 19.145 18.2397 20.3739 18.2397 21.8847ZM4.55234 11.8528C4.55234 9.83921 6.19049 8.20111 8.2041 8.20111C10.2177 8.20111 11.8558 9.83927 11.8558 11.8528C11.8558 13.8664 10.2176 15.5045 8.2041 15.5045C6.19055 15.5045 4.55234 13.8664 4.55234 11.8528ZM10.1077 29.1844H1.81641V23.7086C1.81641 20.1864 4.68191 17.3209 8.2041 17.3209C9.71989 17.3209 11.1138 17.852 12.2102 18.7374C11.4268 19.5561 10.9438 20.6647 10.9438 21.8846C10.9438 23.3164 11.6083 24.5953 12.6443 25.4312C11.3244 26.2428 10.3739 27.5989 10.1077 29.1844ZM11.9625 29.1844C12.3673 27.6087 13.7998 26.4409 15.5 26.4409C17.2002 26.4409 18.6327 27.6087 19.0375 29.1844H11.9625ZM29.1836 29.1844H20.8923C20.6261 27.5989 19.6756 26.2428 18.3557 25.4312C19.3917 24.5953 20.0562 23.3164 20.0562 21.8846C20.0562 21.2057 19.9058 20.5616 19.6384 19.9823C20.5703 19.45 21.648 19.1449 22.7959 19.1449C26.3181 19.1449 29.1836 22.0104 29.1836 25.5326V29.1844Z" fill="black" fill-opacity="0.5"/>
</g>
<defs>
<clipPath id="clip0_3357_12746">
<rect width="31" height="31" fill="white"/>
</clipPath>
</defs>
</svg>
