<svg width="35" height="35" viewBox="0 0 35 35" fill="none" xmlns="http://www.w3.org/2000/svg">
<path d="M6.75327 12.0368C8.44543 12.0368 9.82196 10.66 9.82196 8.96811C9.82196 7.27621 8.44543 5.89941 6.75327 5.89941C5.0611 5.89941 3.68457 7.27621 3.68457 8.96811C3.68457 10.66 5.0611 12.0368 6.75327 12.0368ZM6.75327 6.99316C7.84221 6.99316 8.72821 7.87917 8.72821 8.96811C8.72821 10.0571 7.84221 10.9431 6.75327 10.9431C5.66432 10.9431 4.77832 10.0571 4.77832 8.96811C4.77832 7.87917 5.66432 6.99316 6.75327 6.99316Z" fill="white"/>
<path d="M28.2452 12.0366C29.9374 12.0366 31.3139 10.6598 31.3139 8.96786C31.3139 7.27597 29.9374 5.89917 28.2452 5.89917C26.553 5.89917 25.1765 7.27597 25.1765 8.96786C25.1765 10.6598 26.553 12.0366 28.2452 12.0366ZM28.2452 6.99292C29.3342 6.99292 30.2202 7.87892 30.2202 8.96786C30.2202 10.0568 29.3342 10.9428 28.2452 10.9428C27.1563 10.9428 26.2703 10.0568 26.2703 8.96786C26.2703 7.87892 27.1563 6.99292 28.2452 6.99292Z" fill="white"/>
<path d="M17.4996 11.4946C19.1918 11.4946 20.5683 10.1178 20.5683 8.42587C20.5683 6.73398 19.1918 5.35718 17.4996 5.35718C15.8074 5.35718 14.4309 6.73398 14.4309 8.42587C14.4309 10.1178 15.8074 11.4946 17.4996 11.4946ZM17.4996 6.45093C18.5885 6.45093 19.4745 7.33693 19.4745 8.42587C19.4745 9.51482 18.5885 10.4008 17.4996 10.4008C16.4107 10.4008 15.5247 9.51482 15.5247 8.42587C15.5247 7.33693 16.4107 6.45093 17.4996 6.45093Z" fill="white"/>
<path d="M29.3358 12.2278H28.2271C27.1868 12.2278 26.1846 12.6657 25.4783 13.4289L23.3648 15.7125H22.9162C22.8294 13.4787 20.99 11.6868 18.7353 11.6868H16.2634C14.0088 11.6868 12.1696 13.4787 12.0828 15.7125H11.6342L9.5207 13.4294C8.81441 12.6657 7.81225 12.2278 6.7719 12.2278H5.66293C4.22525 12.2278 3.05566 13.3974 3.05566 14.835V22.7482C3.05566 24.33 4.34248 25.6166 5.92409 25.6166H10.7325V29.096C10.7325 29.3983 10.9773 29.6429 11.2794 29.6429C11.5814 29.6429 11.8262 29.3983 11.8262 29.096V25.0697C11.8262 24.7674 11.5814 24.5228 11.2794 24.5228H5.92409C4.94543 24.5228 4.14941 23.7266 4.14941 22.7482V14.835C4.14941 14.0003 4.82847 13.3215 5.66293 13.3215H6.7719C7.50864 13.3215 8.21786 13.6313 8.71801 14.1723L10.9939 16.6311C11.0975 16.7427 11.2428 16.8062 11.3952 16.8062H14.3256C14.6642 16.8062 14.9395 17.0818 14.9395 17.4204C14.9395 17.759 14.6642 18.034 14.3256 18.034H10.6831H10.4526L8.55676 16.1384C8.55472 16.1363 8.55282 16.1344 8.55078 16.1324L7.92146 15.5031C7.70784 15.2895 7.36177 15.2895 7.14815 15.5031C6.93452 15.7168 6.93452 16.0628 7.14815 16.2765L7.62079 16.7491V22.2574C7.62079 22.5596 7.86565 22.8042 8.16766 22.8042H11.7207C12.4869 22.8042 13.1104 23.4275 13.1104 24.1939V29.096C13.1104 29.3983 13.3552 29.6429 13.6572 29.6429C13.9593 29.6429 14.2041 29.3983 14.2041 29.096V24.1939C14.2041 22.8245 13.0901 21.7105 11.7207 21.7105H8.71454V17.8427L9.83953 18.9676C9.92001 19.0481 10.0255 19.0908 10.1362 19.1099V20.7401C10.1362 21.0424 10.3811 21.287 10.6831 21.287H16.0843V29.096C16.0843 29.3983 16.3291 29.6429 16.6311 29.6429H18.3679C18.6699 29.6429 18.9148 29.3983 18.9148 29.096V21.287H24.316C24.618 21.287 24.8628 21.0424 24.8628 20.7401V19.1099C24.9736 19.0908 25.079 19.0481 25.1595 18.9676L26.2845 17.8427V21.7105H23.2783C21.909 21.7105 20.7949 22.8245 20.7949 24.1939V29.096C20.7949 29.3983 21.0398 29.6429 21.3418 29.6429C21.6438 29.6429 21.8887 29.3983 21.8887 29.096V24.1939C21.8887 23.4275 22.5122 22.8042 23.2783 22.8042H26.8314C27.1334 22.8042 27.3783 22.5596 27.3783 22.2574V16.7491L27.8509 16.2765C28.0645 16.0628 28.0645 15.7168 27.8509 15.5031C27.6373 15.2895 27.2912 15.2895 27.0776 15.5031L26.4483 16.1324C26.4462 16.1344 26.4443 16.1363 26.4423 16.1384L24.5464 18.034H24.316H20.6734C20.3348 18.034 20.0595 17.759 20.0595 17.4204C20.0595 17.0818 20.3348 16.8062 20.6734 16.8062H23.6038C23.7563 16.8062 23.9015 16.7427 24.0051 16.6311L26.281 14.1717C26.7812 13.6313 27.4904 13.3215 28.2271 13.3215H29.3358C30.1706 13.3215 30.8496 14.0003 30.8496 14.835V22.7482C30.8496 23.7266 30.0536 24.5228 29.075 24.5228H23.8148C23.5127 24.5228 23.2679 24.7674 23.2679 25.0697V29.096C23.2679 29.3983 23.5127 29.6429 23.8148 29.6429C24.1168 29.6429 24.3616 29.3983 24.3616 29.096V25.6166H29.075C30.6566 25.6166 31.9434 24.33 31.9434 22.7482V14.835C31.9434 13.3974 30.7735 12.2278 29.3358 12.2278ZM18.0736 13.8743L17.4995 15.2714L16.9254 13.8743L17.2964 12.7805H17.7026L18.0736 13.8743ZM17.821 28.5491H17.178V21.287H17.821V28.5491ZM23.7691 19.1278V20.1932C10.8194 20.1932 23.6777 20.1932 11.2299 20.1932V19.1278H23.7691ZM18.9658 17.4204C18.9658 17.6373 19.0104 17.843 19.0845 18.034H15.9145C15.9886 17.843 16.0333 17.6373 16.0333 17.4204C16.0333 16.4789 15.2672 15.7125 14.3256 15.7125H13.1766C13.2602 14.1232 14.5452 12.8504 16.1395 12.7868L15.8239 13.7167C15.7815 13.8417 15.7857 13.9779 15.8359 14.1002L16.9938 16.9179C17.0779 17.1229 17.2779 17.257 17.4995 17.257C17.7212 17.257 17.9212 17.1229 18.0053 16.9179L19.1631 14.1002C19.2133 13.9779 19.2176 13.8417 19.1751 13.7167L18.8596 12.7868C20.454 12.8506 21.7389 14.1232 21.8224 15.7125H20.6734C19.7319 15.7125 18.9658 16.4789 18.9658 17.4204Z" fill="white"/>
</svg>
