<svg width="33" height="33" viewBox="0 0 33 33" fill="none" xmlns="http://www.w3.org/2000/svg">
<path fill-rule="evenodd" clip-rule="evenodd" d="M16.5003 13.4346C16.0105 13.4346 15.5665 13.4628 15.3164 13.5052L14.0904 13.7116C11.3232 14.1776 9.28152 16.6013 9.28152 19.4566C9.28152 20.9426 8.54659 22.3348 7.31593 23.1638L7.17673 23.2575C6.82642 23.4935 6.44627 23.6814 6.04629 23.8162L4.45445 24.3523C3.91471 24.5341 3.32977 24.244 3.14798 23.7041C2.96618 23.1644 3.25636 22.5795 3.79611 22.3977L5.38794 21.8615C5.61272 21.7859 5.82678 21.6801 6.02442 21.5469L6.16362 21.4531C6.82033 21.0108 7.21902 20.2625 7.21902 19.4566C7.21902 15.6098 9.97261 12.3135 13.7479 11.6778L14.9717 11.4717C14.9714 11.4717 14.9718 11.4716 14.9717 11.4717C15.3902 11.4008 15.9683 11.3721 16.5003 11.3721C17.032 11.372 17.6098 11.4006 18.0284 11.4716C18.0283 11.4716 18.0287 11.4716 18.0284 11.4716L19.2526 11.6778C23.0279 12.3135 25.7815 15.6098 25.7815 19.4566C25.7815 20.2625 26.1803 21.0108 26.837 21.4531L26.9761 21.5469C27.1737 21.6801 27.3878 21.7859 27.6126 21.8615L29.2044 22.3977C29.7441 22.5795 30.0344 23.1644 29.8526 23.7041C29.6709 24.244 29.0859 24.5341 28.5461 24.3523L26.9543 23.8162C26.5543 23.6814 26.1741 23.4935 25.8239 23.2575L25.6846 23.1638C24.454 22.3348 23.719 20.9426 23.719 19.4566C23.719 16.6013 21.6773 14.1776 18.9101 13.7116L17.6839 13.5051C17.434 13.4627 16.9902 13.4345 16.5003 13.4346Z" fill="#FCFDFC"/>
<path fill-rule="evenodd" clip-rule="evenodd" d="M16.5 3.78125C15.1711 3.78125 14.0938 4.85856 14.0938 6.1875C14.0938 7.51644 15.1711 8.59375 16.5 8.59375C17.8289 8.59375 18.9062 7.51644 18.9062 6.1875C18.9062 4.85856 17.8289 3.78125 16.5 3.78125ZM12.0312 6.1875C12.0312 3.71947 14.032 1.71875 16.5 1.71875C18.968 1.71875 20.9688 3.71947 20.9688 6.1875C20.9688 8.65553 18.968 10.6562 16.5 10.6562C14.032 10.6562 12.0312 8.65553 12.0312 6.1875Z" fill="white"/>
<path fill-rule="evenodd" clip-rule="evenodd" d="M13.6812 21.1751C14.1369 21.5167 14.2292 22.1631 13.8875 22.6188L12.6163 24.3138C12.6062 24.3272 12.5962 24.3404 12.5864 24.3536C12.4125 24.5856 12.2758 24.7679 12.1183 24.9327C11.7308 25.3377 11.2581 25.6516 10.7343 25.8516C10.5214 25.9328 10.3002 25.9881 10.019 26.0582C10.0031 26.0622 9.98698 26.0663 9.97065 26.0703L7.50471 26.6869C6.9326 26.8299 6.53125 27.344 6.53125 27.9336C6.53125 28.6434 7.10663 29.2188 7.81641 29.2188H8.75658C10.8822 29.2188 12.9505 28.5294 14.651 27.2541L17.2563 25.3001C17.7119 24.9584 18.3583 25.0506 18.7 25.5063C19.0417 25.962 18.9494 26.6084 18.4937 26.9501L17.2498 27.883L17.926 28.1365C18.6601 28.4118 18.9912 28.5356 19.3238 28.6397C20.3251 28.9526 21.3613 29.1404 22.4088 29.199C22.7567 29.2184 23.1102 29.2188 23.8942 29.2188H25.1835C25.8933 29.2188 26.4688 28.6434 26.4688 27.9336C26.4688 27.344 26.0674 26.8299 25.4953 26.6869L23.469 26.1803C23.4311 26.1708 23.3937 26.1615 23.3566 26.1523C22.7026 25.9892 22.1866 25.8606 21.7254 25.5947C21.5875 25.5152 21.4548 25.4271 21.3282 25.3309C20.9041 25.0091 20.5853 24.5834 20.1813 24.0439C20.1583 24.0133 20.1352 23.9824 20.1117 23.951L19.1125 22.6188C18.7708 22.1631 18.8631 21.5167 19.3188 21.1751C19.7744 20.8334 20.4208 20.9256 20.7625 21.3813L21.7617 22.7135C22.2684 23.3892 22.41 23.5627 22.575 23.688C22.6326 23.7317 22.693 23.7717 22.7557 23.8079C22.9351 23.9114 23.15 23.9746 23.9693 24.1794L25.9955 24.686C27.4858 25.0585 28.5312 26.3976 28.5312 27.9336C28.5312 29.7826 27.0325 31.2813 25.1835 31.2813H23.8596C23.1191 31.2813 22.7058 31.2813 22.2937 31.2583C21.0764 31.1903 19.8722 30.9719 18.7085 30.6082C18.3146 30.485 17.9275 30.3398 17.2343 30.0798L15.2647 29.3413C13.3348 30.6041 11.0739 31.2813 8.75658 31.2813H7.81641C5.96754 31.2813 4.46875 29.7826 4.46875 27.9336C4.46875 26.3976 5.51422 25.0585 7.00448 24.686L9.47042 24.0694C9.822 23.9816 9.91591 23.9563 9.99875 23.9246C10.2368 23.8339 10.4517 23.6912 10.6279 23.5071C10.6892 23.4428 10.7489 23.3661 10.9663 23.0763L12.2375 21.3813C12.5792 20.9256 13.2256 20.8334 13.6812 21.1751Z" fill="white"/>
</svg>
