<svg width="32" height="32" viewBox="0 0 32 32" fill="none" xmlns="http://www.w3.org/2000/svg">
<path d="M3.33366 29.3332H28.667C28.8438 29.3332 29.0134 29.2629 29.1384 29.1379C29.2634 29.0129 29.3337 28.8433 29.3337 28.6665V12.6665C29.3337 12.4897 29.2634 12.3201 29.1384 12.1951C29.0134 12.0701 28.8438 11.9998 28.667 11.9998H25.3337V5.99984C25.3337 5.82303 25.2634 5.65346 25.1384 5.52843C25.0134 5.40341 24.8438 5.33317 24.667 5.33317H21.3337V4.6665C21.3337 4.13607 21.1229 3.62736 20.7479 3.25229C20.3728 2.87722 19.8641 2.6665 19.3337 2.6665H12.667C12.1366 2.6665 11.6279 2.87722 11.2528 3.25229C10.8777 3.62736 10.667 4.13607 10.667 4.6665V5.33317H7.33366C7.15685 5.33317 6.98728 5.40341 6.86225 5.52843C6.73723 5.65346 6.66699 5.82303 6.66699 5.99984V11.9998H3.33366C3.15685 11.9998 2.98728 12.0701 2.86225 12.1951C2.73723 12.3201 2.66699 12.4897 2.66699 12.6665V28.6665C2.66699 28.8433 2.73723 29.0129 2.86225 29.1379C2.98728 29.2629 3.15685 29.3332 3.33366 29.3332ZM25.3337 13.3332H28.0003V27.9998H25.3337V13.3332ZM18.0003 27.9998H14.0003V23.3332H18.0003V27.9998ZM12.0003 4.6665C12.0003 4.48969 12.0706 4.32012 12.1956 4.1951C12.3206 4.07008 12.4902 3.99984 12.667 3.99984H19.3337C19.5105 3.99984 19.68 4.07008 19.8051 4.1951C19.9301 4.32012 20.0003 4.48969 20.0003 4.6665V11.3332C20.0003 11.51 19.9301 11.6796 19.8051 11.8046C19.68 11.9296 19.5105 11.9998 19.3337 11.9998H12.667C12.4902 11.9998 12.3206 11.9296 12.1956 11.8046C12.0706 11.6796 12.0003 11.51 12.0003 11.3332V4.6665ZM8.00033 6.6665H10.667V11.3332C10.667 11.8636 10.8777 12.3723 11.2528 12.7474C11.6279 13.1225 12.1366 13.3332 12.667 13.3332H19.3337C19.8641 13.3332 20.3728 13.1225 20.7479 12.7474C21.1229 12.3723 21.3337 11.8636 21.3337 11.3332V6.6665H24.0003V27.9998H19.3337V22.6665C19.3337 22.4897 19.2634 22.3201 19.1384 22.1951C19.0134 22.0701 18.8438 21.9998 18.667 21.9998H13.3337C13.1568 21.9998 12.9873 22.0701 12.8623 22.1951C12.7372 22.3201 12.667 22.4897 12.667 22.6665V27.9998H8.00033V6.6665ZM4.00033 13.3332H6.66699V27.9998H4.00033V13.3332Z" fill="#EFEFEF"/>
<path d="M13.9997 8.66683H15.333V10.0002C15.333 10.177 15.4032 10.3465 15.5283 10.4716C15.6533 10.5966 15.8229 10.6668 15.9997 10.6668C16.1765 10.6668 16.3461 10.5966 16.4711 10.4716C16.5961 10.3465 16.6663 10.177 16.6663 10.0002V8.66683H17.9997C18.1765 8.66683 18.3461 8.59659 18.4711 8.47157C18.5961 8.34654 18.6663 8.17697 18.6663 8.00016C18.6663 7.82335 18.5961 7.65378 18.4711 7.52876C18.3461 7.40373 18.1765 7.3335 17.9997 7.3335H16.6663V6.00016C16.6663 5.82335 16.5961 5.65378 16.4711 5.52876C16.3461 5.40373 16.1765 5.3335 15.9997 5.3335C15.8229 5.3335 15.6533 5.40373 15.5283 5.52876C15.4032 5.65378 15.333 5.82335 15.333 6.00016V7.3335H13.9997C13.8229 7.3335 13.6533 7.40373 13.5283 7.52876C13.4032 7.65378 13.333 7.82335 13.333 8.00016C13.333 8.17697 13.4032 8.34654 13.5283 8.47157C13.6533 8.59659 13.8229 8.66683 13.9997 8.66683Z" fill="#EFEFEF"/>
<path d="M11.3337 16.6668H12.667C12.8438 16.6668 13.0134 16.5966 13.1384 16.4716C13.2634 16.3465 13.3337 16.177 13.3337 16.0002C13.3337 15.8234 13.2634 15.6538 13.1384 15.5288C13.0134 15.4037 12.8438 15.3335 12.667 15.3335H11.3337C11.1568 15.3335 10.9873 15.4037 10.8623 15.5288C10.7372 15.6538 10.667 15.8234 10.667 16.0002C10.667 16.177 10.7372 16.3465 10.8623 16.4716C10.9873 16.5966 11.1568 16.6668 11.3337 16.6668Z" fill="#EFEFEF"/>
<path d="M13.3337 19.3332C13.3337 19.1564 13.2634 18.9868 13.1384 18.8618C13.0134 18.7367 12.8438 18.6665 12.667 18.6665H11.3337C11.1568 18.6665 10.9873 18.7367 10.8623 18.8618C10.7372 18.9868 10.667 19.1564 10.667 19.3332C10.667 19.51 10.7372 19.6796 10.8623 19.8046C10.9873 19.9296 11.1568 19.9998 11.3337 19.9998H12.667C12.8438 19.9998 13.0134 19.9296 13.1384 19.8046C13.2634 19.6796 13.3337 19.51 13.3337 19.3332Z" fill="#EFEFEF"/>
<path d="M15.3337 16.6668H16.667C16.8438 16.6668 17.0134 16.5966 17.1384 16.4716C17.2634 16.3465 17.3337 16.177 17.3337 16.0002C17.3337 15.8234 17.2634 15.6538 17.1384 15.5288C17.0134 15.4037 16.8438 15.3335 16.667 15.3335H15.3337C15.1568 15.3335 14.9873 15.4037 14.8623 15.5288C14.7372 15.6538 14.667 15.8234 14.667 16.0002C14.667 16.177 14.7372 16.3465 14.8623 16.4716C14.9873 16.5966 15.1568 16.6668 15.3337 16.6668Z" fill="#EFEFEF"/>
<path d="M15.3337 19.9998H16.667C16.8438 19.9998 17.0134 19.9296 17.1384 19.8046C17.2634 19.6796 17.3337 19.51 17.3337 19.3332C17.3337 19.1564 17.2634 18.9868 17.1384 18.8618C17.0134 18.7367 16.8438 18.6665 16.667 18.6665H15.3337C15.1568 18.6665 14.9873 18.7367 14.8623 18.8618C14.7372 18.9868 14.667 19.1564 14.667 19.3332C14.667 19.51 14.7372 19.6796 14.8623 19.8046C14.9873 19.9296 15.1568 19.9998 15.3337 19.9998Z" fill="#EFEFEF"/>
<path d="M19.3337 16.6668H20.667C20.8438 16.6668 21.0134 16.5966 21.1384 16.4716C21.2634 16.3465 21.3337 16.177 21.3337 16.0002C21.3337 15.8234 21.2634 15.6538 21.1384 15.5288C21.0134 15.4037 20.8438 15.3335 20.667 15.3335H19.3337C19.1568 15.3335 18.9873 15.4037 18.8623 15.5288C18.7372 15.6538 18.667 15.8234 18.667 16.0002C18.667 16.177 18.7372 16.3465 18.8623 16.4716C18.9873 16.5966 19.1568 16.6668 19.3337 16.6668Z" fill="#EFEFEF"/>
<path d="M19.3337 19.9998H20.667C20.8438 19.9998 21.0134 19.9296 21.1384 19.8046C21.2634 19.6796 21.3337 19.51 21.3337 19.3332C21.3337 19.1564 21.2634 18.9868 21.1384 18.8618C21.0134 18.7367 20.8438 18.6665 20.667 18.6665H19.3337C19.1568 18.6665 18.9873 18.7367 18.8623 18.8618C18.7372 18.9868 18.667 19.1564 18.667 19.3332C18.667 19.51 18.7372 19.6796 18.8623 19.8046C18.9873 19.9296 19.1568 19.9998 19.3337 19.9998Z" fill="#EFEFEF"/>
</svg>
