<svg width="45" height="45" viewBox="0 0 45 45" fill="none" xmlns="http://www.w3.org/2000/svg">
<path d="M42.6041 21.7362C42.4709 21.5014 42.2922 21.2957 42.0785 21.1309C41.8648 20.9661 41.6204 20.8455 41.3595 20.7764C39.8506 20.3932 38.2836 20.2936 36.7382 20.4828C37.7015 16.7106 37.1566 13.7399 36.6064 12.0453C36.4449 11.5388 36.1004 11.1106 35.6401 10.8444C35.1799 10.5782 34.637 10.4931 34.1173 10.6057C32.1479 11.0493 30.2923 11.8975 28.6681 13.0965C27.5958 10.6058 25.9082 8.42828 23.7638 6.76839C23.3991 6.4904 22.9532 6.33984 22.4947 6.33984C22.0361 6.33984 21.5902 6.4904 21.2255 6.76839C19.0811 8.42828 17.3936 10.6058 16.3212 13.0965C14.697 11.8978 12.8414 11.0496 10.872 10.6057C10.3524 10.4931 9.80948 10.5782 9.34924 10.8444C8.889 11.1106 8.54449 11.5388 8.38297 12.0453C7.83277 13.7469 7.28785 16.7176 8.25113 20.4828C6.70755 20.2943 5.14238 20.3938 3.63511 20.7764C3.37426 20.8455 3.12982 20.9661 2.91612 21.1309C2.70242 21.2957 2.52376 21.5014 2.39058 21.7362C2.24938 21.9787 2.15799 22.247 2.12177 22.5253C2.08555 22.8035 2.10522 23.0863 2.17965 23.3569C2.74918 25.4662 4.49996 29.4758 9.82965 32.6592C15.1593 35.8426 19.9423 35.8602 22.5 35.8602C25.0576 35.8602 29.8142 35.8602 35.1685 32.6592C40.5228 29.4582 42.249 25.4645 42.8185 23.3569C42.8924 23.086 42.9115 22.8032 42.8747 22.5249C42.8379 22.2466 42.7458 21.9784 42.6041 21.7362ZM34.4179 11.9733C34.5983 11.9359 34.7861 11.9673 34.9444 12.0613C35.1028 12.1553 35.2204 12.3051 35.274 12.4813C35.9771 14.6785 36.6802 19.2225 33.3808 24.9617C31.5439 28.1592 28.9669 30.6219 26.6818 32.2461C28.4765 29.8836 30.2343 26.2344 30.2343 20.9522C30.2528 18.7419 29.9035 16.5439 29.2007 14.4483C30.7365 13.2494 32.5179 12.4043 34.4179 11.9733ZM9.72593 12.4813C9.78095 12.3065 9.89915 12.1585 10.0574 12.0662C10.2157 11.9739 10.4028 11.9439 10.582 11.9821C12.4813 12.4104 14.2627 13.2525 15.7992 14.4483C15.0964 16.5439 14.7471 18.7419 14.7656 20.9522C14.7656 26.2344 16.5234 29.8854 18.3181 32.2426C16.033 30.6184 13.456 28.1557 11.6191 24.9582C8.31793 19.2137 9.01578 14.6698 9.72593 12.4813ZM10.5556 31.4657C5.65132 28.5354 4.05172 24.9055 3.54195 23.0018C3.51601 22.91 3.50902 22.8139 3.52141 22.7193C3.5338 22.6247 3.56531 22.5336 3.61402 22.4516C3.65511 22.3775 3.71067 22.3124 3.7774 22.2601C3.84414 22.2079 3.92068 22.1696 4.0025 22.1475C5.53929 21.7617 7.13981 21.7019 8.70113 21.9717C9.1505 23.2526 9.719 24.4884 10.3992 25.6631C12.7336 29.7237 16.1402 32.6364 18.8841 34.2957C15.9345 33.9641 13.0925 32.9942 10.5556 31.4534V31.4657ZM22.5087 34.3379C21.3631 33.5402 20.35 32.5674 19.5064 31.4551C17.2916 28.5793 16.1718 25.0496 16.1718 20.9522C16.1718 13.1739 20.3009 9.21878 22.0763 7.88109C22.1983 7.78897 22.3471 7.73914 22.5 7.73914C22.6528 7.73914 22.8016 7.78897 22.9236 7.88109C24.699 9.21878 28.8281 13.1739 28.8281 20.9522C28.8281 25.0496 27.7084 28.5793 25.5023 31.4428C24.6587 32.5551 23.6456 33.5279 22.5 34.3256L22.5087 34.3379ZM41.4668 23.0018C40.9535 24.9055 39.3574 28.5354 34.4531 31.4657C31.9159 33.0053 29.0739 33.974 26.1246 34.3045C28.8685 32.6451 32.2769 29.7342 34.6095 25.6719C35.2897 24.4972 35.8582 23.2613 36.3076 21.9805C37.8688 21.7099 39.4695 21.7697 41.0062 22.1563C41.088 22.1784 41.1646 22.2167 41.2313 22.2689C41.298 22.3212 41.3536 22.3863 41.3947 22.4604C41.4844 22.6216 41.5071 22.8116 41.458 22.9895L41.4668 23.0018Z" fill="black"/>
</svg>
