<svg width="35" height="35" viewBox="0 0 35 35" fill="none" xmlns="http://www.w3.org/2000/svg">
<path d="M6.75327 12.0378C8.44543 12.0378 9.82196 10.661 9.82196 8.96909C9.82196 7.27719 8.44543 5.90039 6.75327 5.90039C5.0611 5.90039 3.68457 7.27719 3.68457 8.96909C3.68457 10.661 5.0611 12.0378 6.75327 12.0378ZM6.75327 6.99414C7.84221 6.99414 8.72821 7.88014 8.72821 8.96909C8.72821 10.058 7.84221 10.944 6.75327 10.944C5.66432 10.944 4.77832 10.058 4.77832 8.96909C4.77832 7.88014 5.66432 6.99414 6.75327 6.99414Z" fill="black"/>
<path d="M28.2453 12.0378C29.9375 12.0378 31.314 10.661 31.314 8.96909C31.314 7.27719 29.9375 5.90039 28.2453 5.90039C26.5532 5.90039 25.1766 7.27719 25.1766 8.96909C25.1766 10.661 26.5532 12.0378 28.2453 12.0378ZM28.2453 6.99414C29.3343 6.99414 30.2203 7.88014 30.2203 8.96909C30.2203 10.058 29.3343 10.944 28.2453 10.944C27.1564 10.944 26.2704 10.058 26.2704 8.96909C26.2704 7.88014 27.1564 6.99414 28.2453 6.99414Z" fill="black"/>
<path d="M17.4995 11.4948C19.1916 11.4948 20.5682 10.118 20.5682 8.42612C20.5682 6.73422 19.1916 5.35742 17.4995 5.35742C15.8073 5.35742 14.4308 6.73422 14.4308 8.42612C14.4308 10.118 15.8073 11.4948 17.4995 11.4948ZM17.4995 6.45117C18.5884 6.45117 19.4744 7.33717 19.4744 8.42612C19.4744 9.51506 18.5884 10.4011 17.4995 10.4011C16.4105 10.4011 15.5245 9.51506 15.5245 8.42612C15.5245 7.33717 16.4105 6.45117 17.4995 6.45117Z" fill="black"/>
<path d="M29.3358 12.2285H28.2271C27.1868 12.2285 26.1846 12.6664 25.4783 13.4296L23.3648 15.7132H22.9162C22.8294 13.4794 20.99 11.6875 18.7353 11.6875H16.2634C14.0088 11.6875 12.1696 13.4794 12.0828 15.7132H11.6342L9.5207 13.4301C8.81441 12.6664 7.81225 12.2285 6.7719 12.2285H5.66293C4.22525 12.2285 3.05566 13.3981 3.05566 14.8358V22.7489C3.05566 24.3308 4.34248 25.6173 5.92409 25.6173H10.7325V29.0967C10.7325 29.399 10.9773 29.6436 11.2794 29.6436C11.5814 29.6436 11.8262 29.399 11.8262 29.0967V25.0704C11.8262 24.7682 11.5814 24.5236 11.2794 24.5236H5.92409C4.94543 24.5236 4.14941 23.7273 4.14941 22.7489V14.8358C4.14941 14.001 4.82847 13.3223 5.66293 13.3223H6.7719C7.50864 13.3223 8.21786 13.632 8.71801 14.173L10.9939 16.6318C11.0975 16.7434 11.2428 16.807 11.3952 16.807H14.3256C14.6642 16.807 14.9395 17.0826 14.9395 17.4211C14.9395 17.7597 14.6642 18.0348 14.3256 18.0348H10.6831H10.4526L8.55676 16.1391C8.55472 16.1371 8.55282 16.1352 8.55078 16.1331L7.92146 15.5039C7.70784 15.2903 7.36177 15.2903 7.14815 15.5039C6.93452 15.7175 6.93452 16.0636 7.14815 16.2772L7.62079 16.7498V22.2581C7.62079 22.5604 7.86565 22.805 8.16766 22.805H11.7207C12.4869 22.805 13.1104 23.4282 13.1104 24.1946V29.0967C13.1104 29.399 13.3552 29.6436 13.6572 29.6436C13.9593 29.6436 14.2041 29.399 14.2041 29.0967V24.1946C14.2041 22.8253 13.0901 21.7112 11.7207 21.7112H8.71454V17.8434L9.83953 18.9683C9.92001 19.0488 10.0255 19.0916 10.1362 19.1106V20.7408C10.1362 21.0431 10.3811 21.2877 10.6831 21.2877H16.0843V29.0967C16.0843 29.399 16.3291 29.6436 16.6311 29.6436H18.3679C18.6699 29.6436 18.9148 29.399 18.9148 29.0967V21.2877H24.316C24.618 21.2877 24.8628 21.0431 24.8628 20.7408V19.1106C24.9736 19.0916 25.079 19.0488 25.1595 18.9683L26.2845 17.8434V21.7112H23.2783C21.909 21.7112 20.7949 22.8253 20.7949 24.1946V29.0967C20.7949 29.399 21.0398 29.6436 21.3418 29.6436C21.6438 29.6436 21.8887 29.399 21.8887 29.0967V24.1946C21.8887 23.4282 22.5122 22.805 23.2783 22.805H26.8314C27.1334 22.805 27.3783 22.5604 27.3783 22.2581V16.7498L27.8509 16.2772C28.0645 16.0636 28.0645 15.7175 27.8509 15.5039C27.6373 15.2903 27.2912 15.2903 27.0776 15.5039L26.4483 16.1331C26.4462 16.1352 26.4443 16.1371 26.4423 16.1391L24.5464 18.0348H24.316H20.6734C20.3348 18.0348 20.0595 17.7597 20.0595 17.4211C20.0595 17.0826 20.3348 16.807 20.6734 16.807H23.6038C23.7563 16.807 23.9015 16.7434 24.0051 16.6318L26.281 14.1725C26.7812 13.632 27.4904 13.3223 28.2271 13.3223H29.3358C30.1706 13.3223 30.8496 14.001 30.8496 14.8358V22.7489C30.8496 23.7273 30.0536 24.5236 29.075 24.5236H23.8148C23.5127 24.5236 23.2679 24.7682 23.2679 25.0704V29.0967C23.2679 29.399 23.5127 29.6436 23.8148 29.6436C24.1168 29.6436 24.3616 29.399 24.3616 29.0967V25.6173H29.075C30.6566 25.6173 31.9434 24.3308 31.9434 22.7489V14.8358C31.9434 13.3981 30.7735 12.2285 29.3358 12.2285ZM18.0736 13.875L17.4995 15.2721L16.9254 13.875L17.2964 12.7812H17.7026L18.0736 13.875ZM17.821 28.5498H17.178V21.2877H17.821V28.5498ZM23.7691 19.1285V20.194C10.8194 20.194 23.6777 20.194 11.2299 20.194V19.1285H23.7691ZM18.9658 17.4211C18.9658 17.638 19.0104 17.8437 19.0845 18.0348H15.9145C15.9886 17.8437 16.0333 17.638 16.0333 17.4211C16.0333 16.4796 15.2672 15.7132 14.3256 15.7132H13.1766C13.2602 14.1239 14.5452 12.8511 16.1395 12.7875L15.8239 13.7175C15.7815 13.8424 15.7857 13.9786 15.8359 14.1009L16.9938 16.9186C17.0779 17.1237 17.2779 17.2577 17.4995 17.2577C17.7212 17.2577 17.9212 17.1237 18.0053 16.9186L19.1631 14.1009C19.2133 13.9786 19.2176 13.8424 19.1751 13.7175L18.8596 12.7876C20.454 12.8513 21.7389 14.124 21.8224 15.7132H20.6734C19.7319 15.7132 18.9658 16.4796 18.9658 17.4211Z" fill="black"/>
</svg>
