<svg width="1008" height="782" viewBox="0 0 1008 782" fill="none" xmlns="http://www.w3.org/2000/svg">
<g clip-path="url(#clip0_4184_8667)">
<path d="M710.674 2.42384C669.084 6.0598 626.416 23.1623 596.94 50.9033C596.132 39.3221 604.208 17.5063 589.133 18.7183C537.313 18.7183 485.493 18.7183 433.673 18.7183C418.867 18.853 424.655 46.7286 425.193 63.6964C258.696 -79.4525 6.72987 63.9658 0 271.754C0 279.43 0 287.106 0 294.782C7.80665 499.203 253.043 642.218 424.924 513.612C424.789 601.818 423.982 690.158 425.328 778.229H425.462C427.347 783.885 432.327 781.596 435.961 781.461C486.3 781.596 536.505 781.596 586.845 781.596C589.537 781.596 592.229 781.461 594.921 781.192C596.67 781.057 597.613 779.845 597.343 778.095C597.343 778.095 597.343 778.095 597.209 778.095C598.555 684.502 596.94 590.91 598.016 497.318C598.016 496.241 598.151 496.375 598.016 494.49C651.048 568.96 766.532 569.633 848.637 533.543C1131.83 401.436 1007.6 -36.0904 710.674 2.42384ZM423.04 335.855C423.04 337.336 423.04 338.952 423.174 340.433C363.548 395.915 247.255 421.367 209.568 329.929C152.364 193.783 347.531 104.5 424.789 222.871C424.789 223.005 424.789 223.005 424.789 223.14C423.309 260.173 428.02 299.091 423.04 335.855ZM597.478 347.301C597.478 347.166 597.343 347.166 597.209 347.032C597.343 345.012 597.478 342.992 597.747 340.972C597.613 302.592 597.613 264.078 597.478 225.699L598.151 216.676C598.151 215.06 598.151 213.579 598.151 211.963C646.337 119.044 801.124 161.329 810.007 259.499C826.697 387.566 677.294 434.968 597.478 347.301Z" fill="white"/>
</g>
<defs>
<clipPath id="clip0_4184_8667">
<rect width="1008" height="782" fill="white"/>
</clipPath>
</defs>
</svg>
