<svg width="129" height="92" viewBox="0 0 129 92" fill="none" xmlns="http://www.w3.org/2000/svg">
<path d="M54.2692 64.6263C52.0114 66.2429 49.6833 67.7429 47.0853 68.7934C32.1194 74.875 13.9397 68.7993 5.75299 54.9379C2.95566 50.2046 1.038 45.1503 0.510204 39.6407C0.592305 38.8119 0.703729 37.9773 0 37.3178C0 36.3432 0 35.3743 0 34.3996C0.510204 33.6934 0.656814 32.9055 0.49261 32.0592C1.25498 24.7988 4.16959 18.4196 8.60895 12.6941C11.8696 8.50945 15.9688 5.35196 20.9125 3.32674C24.003 2.06024 27.2284 1.33653 30.5536 1.03304C35.1747 0.61282 39.7079 0.892967 44.1179 2.49797C47.877 3.86952 51.208 5.92976 54.2575 8.48026C54.2751 8.68454 54.2927 8.88297 54.3103 9.08725C54.3103 15.4664 54.3103 21.8456 54.3103 28.2247C54.2986 28.3531 54.2868 28.4815 54.2751 28.6158C54.1754 28.6041 54.0816 28.6099 53.9877 28.6333C52.9497 27.5419 51.9528 26.4096 50.8737 25.3591C47.1264 21.6938 42.646 20.2989 37.4736 21.2678C28.1022 23.0187 22.7304 33.0631 26.4895 41.7593C28.6652 46.7844 32.9287 49.5626 38.4471 49.5334C41.432 49.5159 44.2118 48.6754 46.8918 47.4323C49.5718 46.1833 51.8766 44.4032 54.105 42.5064C54.3748 43.0083 54.2692 43.5511 54.2692 44.0822C54.2751 50.9283 54.2692 57.7802 54.2692 64.6263Z" fill="white"/>
<path d="M91.215 0.297655C91.2091 0.198437 91.2033 0.0992185 91.1974 0C93.8364 0 96.4754 0 99.1144 0C99.0792 0.0700366 99.0381 0.134237 99.0147 0.204273C99.0029 0.239292 99.0323 0.285983 99.044 0.326837C96.4343 0.315165 93.8247 0.309328 91.215 0.297655Z" fill="white"/>
<path d="M0.00586441 37.3178C0.703729 37.9773 0.59817 38.8119 0.516068 39.6407C0.346 39.6174 0.170068 39.489 0.00586441 39.6524C0.00586441 38.8761 0.00586441 38.0999 0.00586441 37.3178Z" fill="white"/>
<path d="M0.00586441 32.0709C0.175932 32.2168 0.334271 32.0884 0.498475 32.0592C0.662678 32.9114 0.516068 33.6934 0.00586441 34.3996C0.00586441 33.6292 0.00586441 32.8472 0.00586441 32.0709Z" fill="white"/>
<path d="M91.215 0.297655C93.8247 0.303492 96.4343 0.315165 99.044 0.321001C108.415 1.23731 115.933 5.44534 121.452 13.0326C126.396 19.8262 129.152 27.3785 128.994 35.8471C128.788 46.4751 122.777 61.4805 108.644 67.5445C97.2905 72.4178 86.5528 71.198 76.8003 63.3423C76.6126 63.1905 76.4015 63.0738 76.2021 62.9454C75.7447 62.4084 76.0262 61.7723 75.9675 61.177C76.3311 60.8793 76.2197 60.4649 76.2197 60.0914C76.2256 54.9904 76.2256 49.8894 76.2256 44.7942C76.2256 44.4149 76.3253 44.0063 75.95 43.7203C75.9558 43.4986 75.9851 43.2885 76.1963 43.1542C76.7768 43.3643 77.0935 43.8838 77.5157 44.2806C79.7325 46.3876 82.1955 48.1151 85.116 49.0898C90.0304 50.7357 94.6164 50.1287 98.5397 46.6502C102.674 42.985 104.633 38.3684 103.782 32.8238C102.68 25.6392 96.1704 19.8145 88.1948 20.2347C83.0048 20.509 78.7825 22.6568 76.5716 27.7053C76.466 27.6003 76.3605 27.4952 76.2549 27.396C76.2549 21.1919 76.2608 14.9937 76.249 8.78959C76.249 8.28183 76.4426 7.70986 75.9675 7.27797C75.9675 7.08537 75.9558 6.88693 76.1376 6.75853C76.8355 6.5776 77.246 6.00564 77.7738 5.59125C81.7147 2.49797 86.1951 0.729548 91.215 0.297655Z" fill="white"/>
<path d="M75.9617 61.1886C76.0203 61.7781 75.7388 62.4143 76.1963 62.9571C76.1845 65.2391 76.1611 67.5211 76.1611 69.8031C76.1552 78.7912 76.1611 87.7792 76.1552 96.7672C76.1552 97.3509 76.12 97.9287 76.1024 98.5123C75.5219 98.5356 74.9354 98.5707 74.3548 98.5765C68.9596 98.5823 63.5643 98.5823 58.1632 98.5765C56.9024 98.5765 55.6356 98.5356 54.3748 98.5181C54.3572 97.9345 54.3279 97.3567 54.322 96.7731C54.3162 86.6411 54.322 76.5033 54.3162 66.3713C54.3162 65.7935 54.2751 65.2099 54.2575 64.6321C54.2575 57.786 54.2634 50.9341 54.2575 44.088C54.2575 43.5628 54.3631 43.0141 54.0933 42.5122C54.3924 42.0278 54.322 41.485 54.322 40.9539C54.322 38.4793 54.3396 36.0046 54.3162 33.53C54.2986 31.9775 54.4334 30.4251 54.2282 28.8784C54.2575 28.7967 54.2692 28.7092 54.2692 28.6275C54.281 28.4991 54.2927 28.3707 54.3044 28.2423C54.6152 27.9213 54.5155 27.5185 54.5155 27.1392C54.5214 21.4954 54.5214 15.8458 54.5155 10.202C54.5155 9.82847 54.6152 9.41992 54.3103 9.09892C54.2927 8.89465 54.2751 8.69621 54.2575 8.49194C54.281 6.84024 54.3044 5.18854 54.3337 3.54268C54.3513 2.39875 54.3572 2.37541 55.4363 2.36957C61.9868 2.36373 68.5315 2.36373 75.082 2.36957C76.12 2.36957 76.1376 2.39875 76.1494 3.42596C76.1611 4.54071 76.1317 5.66129 76.12 6.77604C75.9382 6.91028 75.95 7.10871 75.95 7.29548C75.95 14.0015 75.95 20.7133 75.95 27.4193C76.0027 27.8045 75.8327 28.2306 76.1611 28.5633C76.1728 33.4308 76.1787 38.2983 76.1904 43.1659C75.9793 43.3001 75.95 43.5102 75.9441 43.732C75.9558 49.5451 75.9617 55.3639 75.9617 61.1886Z" fill="white"/>
<path d="M54.3865 98.5123C55.6474 98.5356 56.9141 98.5707 58.1749 98.5707C63.5702 98.5765 68.9654 98.5765 74.3666 98.5707C74.9471 98.5707 75.5336 98.5298 76.1142 98.5065C76.1435 98.7341 76.0321 98.88 75.8092 98.8975C75.4749 98.9267 75.1348 98.9442 74.7947 98.9442C68.4318 98.9442 62.0748 98.9559 55.7119 98.9325C55.2545 98.9384 54.627 99.2418 54.3865 98.5123Z" fill="white"/>
<path d="M54.3103 9.09308C54.6211 9.41409 54.5155 9.82263 54.5155 10.1962C54.5214 15.8399 54.5214 21.4896 54.5155 27.1333C54.5155 27.5069 54.6152 27.9154 54.3044 28.2364C54.3103 21.8514 54.3103 15.4722 54.3103 9.09308Z" fill="white"/>
<path d="M54.2399 28.8726C54.0992 28.8551 53.9995 28.7909 53.9936 28.6333C54.0874 28.6099 54.1871 28.6041 54.2868 28.6158C54.281 28.7033 54.2634 28.7909 54.2399 28.8726Z" fill="white"/>
<path d="M75.95 27.4135C75.95 20.7075 75.95 13.9956 75.95 7.28964C76.425 7.72153 76.2314 8.28766 76.2314 8.80126C76.249 14.9995 76.2432 21.2036 76.2432 27.4077C76.1435 27.4018 76.0496 27.4018 75.95 27.4135Z" fill="white"/>
<path d="M75.9617 61.1886C75.9558 55.3698 75.95 49.5509 75.9441 43.732C76.3253 44.018 76.2197 44.4265 76.2197 44.8059C76.2197 49.9069 76.2197 55.0079 76.2139 60.1031C76.2197 60.4766 76.3253 60.891 75.9617 61.1886Z" fill="white"/>
<path d="M75.95 27.4135C76.0496 27.4077 76.1435 27.4018 76.2432 27.4077C76.3487 27.5127 76.4543 27.6178 76.5598 27.717C76.5716 28.0672 76.4426 28.3473 76.1611 28.5574C75.8327 28.2247 76.0027 27.7987 75.95 27.4135Z" fill="white"/>
</svg>
