<svg width="229" height="55" viewBox="0 0 229 55" fill="none" xmlns="http://www.w3.org/2000/svg">
<path fill-rule="evenodd" clip-rule="evenodd" d="M154.176 32.1491C154.176 31.51 154.12 30.9295 154.011 30.3992C153.899 29.8634 153.72 29.4084 153.474 29.0233C153.233 28.6409 152.914 28.3451 152.519 28.1386C152.128 27.9293 151.641 27.826 151.064 27.826C150.261 27.826 149.446 28.0465 148.615 28.4902C147.787 28.934 147.017 29.5536 146.306 30.3518C145.596 31.15 144.96 32.0933 144.406 33.1789C143.852 34.2674 143.446 35.4535 143.197 36.7373L142.464 40.3962C143.158 41.4316 143.908 42.2047 144.706 42.7154C145.509 43.2261 146.41 43.4801 147.42 43.4801C148.204 43.4801 148.917 43.2931 149.57 42.9219C150.213 42.5563 150.781 42.0596 151.28 41.4372C151.775 40.8148 152.206 40.1171 152.57 39.3301C152.934 38.5458 153.236 37.7337 153.479 36.8936C153.726 36.0508 153.902 35.2135 154.017 34.3874C154.129 33.5613 154.182 32.8133 154.182 32.1491H154.176ZM158.021 31.9035C158.021 32.7603 157.94 33.7259 157.781 34.7977C157.618 35.8694 157.358 36.9522 157 38.0435C156.645 39.1375 156.191 40.2008 155.634 41.2251C155.074 42.2549 154.403 43.1647 153.619 43.9629C152.836 44.7611 151.926 45.403 150.896 45.8803C149.866 46.3603 148.699 46.6003 147.395 46.6003C146.729 46.6003 146.119 46.5361 145.573 46.4022C145.025 46.271 144.521 46.084 144.062 45.8496C143.6 45.6124 143.18 45.3361 142.794 45.0179C142.408 44.6997 142.052 44.3481 141.728 43.9657L139.836 53.5441C139.805 53.6613 139.758 53.7646 139.693 53.8539C139.626 53.9432 139.52 54.0157 139.371 54.0743C139.223 54.1357 139.027 54.1776 138.784 54.2083C138.537 54.239 138.23 54.2558 137.857 54.2558C137.519 54.2558 137.233 54.239 137.007 54.2083C136.774 54.1804 136.595 54.1357 136.458 54.0743C136.326 54.0157 136.242 53.9432 136.201 53.8539C136.167 53.7646 136.153 53.6613 136.17 53.5441L141.792 25.6547C141.826 25.4203 141.974 25.2472 142.24 25.144C142.506 25.0435 142.954 24.9877 143.575 24.9877C143.886 24.9877 144.137 24.9988 144.331 25.0212C144.524 25.0435 144.678 25.0798 144.795 25.1328C144.913 25.1858 144.988 25.2556 145.016 25.3421C145.044 25.4286 145.053 25.5375 145.041 25.6547L144.283 29.4447C144.49 28.9563 144.843 28.4372 145.341 27.8818C145.836 27.3292 146.43 26.8129 147.118 26.3301C147.809 25.8528 148.576 25.4565 149.418 25.144C150.264 24.8342 151.12 24.6807 151.996 24.6807C153.127 24.6807 154.067 24.8732 154.831 25.2556C155.595 25.6407 156.214 26.1543 156.687 26.7962C157.162 27.4381 157.504 28.2 157.711 29.0791C157.918 29.9582 158.021 30.8988 158.021 31.9035Z" fill="white"/>
<path fill-rule="evenodd" clip-rule="evenodd" d="M164.847 45.6263C164.819 45.7463 164.766 45.844 164.691 45.9277C164.618 46.0058 164.509 46.0784 164.36 46.137C164.209 46.1956 164.01 46.2403 163.77 46.271C163.524 46.2989 163.224 46.3128 162.866 46.3128C162.508 46.3128 162.2 46.2989 161.97 46.271C161.738 46.2375 161.562 46.1956 161.436 46.137C161.31 46.0812 161.226 46.0086 161.189 45.9277C161.153 45.844 161.15 45.7435 161.181 45.6263L167.095 16.0093C167.125 15.8921 167.176 15.7888 167.237 15.7023C167.304 15.6102 167.416 15.5404 167.573 15.4818C167.727 15.4232 167.929 15.3758 168.172 15.3479C168.416 15.3144 168.723 15.3032 169.096 15.3032C169.468 15.3032 169.745 15.3144 169.974 15.3479C170.201 15.3758 170.38 15.4232 170.509 15.4818C170.632 15.5404 170.71 15.613 170.738 15.7023C170.769 15.7888 170.775 15.8921 170.761 16.0093L164.847 45.6263Z" fill="white"/>
<path fill-rule="evenodd" clip-rule="evenodd" d="M187.547 30.8848C186.85 29.8634 186.097 29.1014 185.291 28.5907C184.485 28.08 183.576 27.826 182.568 27.826C181.768 27.826 181.043 28.013 180.402 28.3898C179.758 28.7665 179.187 29.2661 178.692 29.8857C178.194 30.508 177.763 31.2114 177.402 32.004C177.038 32.7938 176.741 33.6115 176.512 34.4516C176.282 35.2944 176.115 36.1233 176.003 36.9355C175.891 37.7504 175.837 38.4816 175.837 39.1291C175.837 39.6482 175.879 40.159 175.958 40.6697C176.039 41.1804 176.193 41.6465 176.428 42.0679C176.655 42.4894 176.971 42.8298 177.371 43.0866C177.771 43.3462 178.289 43.4773 178.927 43.4773C179.744 43.4773 180.562 43.2513 181.387 42.8019C182.204 42.3498 182.974 41.7246 183.685 40.9264C184.398 40.131 185.025 39.1905 185.574 38.1104C186.122 37.0304 186.534 35.8414 186.803 34.5409L187.555 30.882L187.547 30.8848ZM188.233 45.6263C188.177 45.8747 188.014 46.0561 187.746 46.1594C187.477 46.2626 187.032 46.3157 186.411 46.3157C186.114 46.3157 185.871 46.2989 185.677 46.271C185.484 46.2403 185.328 46.2012 185.21 46.151C185.09 46.098 185.009 46.031 184.964 45.9501C184.919 45.8663 184.919 45.7603 184.964 45.6263L185.7 41.8586C185.504 42.3331 185.157 42.8466 184.653 43.4076C184.149 43.9713 183.553 44.4876 182.865 44.9593C182.174 45.4337 181.41 45.8245 180.559 46.137C179.716 46.4496 178.854 46.6003 177.981 46.6003C176.795 46.6003 175.815 46.3938 175.037 45.9808C174.259 45.5677 173.638 45.0207 173.184 44.3397C172.723 43.6587 172.409 42.8912 172.238 42.0344C172.068 41.1776 171.981 40.2985 171.981 39.397C171.981 38.5681 172.062 37.6304 172.213 36.581C172.37 35.5344 172.622 34.4627 172.969 33.3687C173.316 32.2747 173.769 31.2114 174.326 30.1787C174.88 29.1433 175.552 28.2167 176.338 27.3934C177.125 26.5701 178.034 25.917 179.073 25.4202C180.111 24.9263 181.286 24.6807 182.607 24.6807C183.928 24.6807 185.056 24.9458 185.997 25.4789C186.937 26.0119 187.782 26.7431 188.515 27.6753L188.941 25.6575C189.002 25.4203 189.17 25.25 189.456 25.1467C189.733 25.0463 190.169 24.9905 190.763 24.9905C191.056 24.9905 191.308 25.0016 191.51 25.0239C191.706 25.0463 191.868 25.0881 191.983 25.1467C192.109 25.2081 192.179 25.2807 192.209 25.37C192.237 25.4565 192.246 25.5542 192.232 25.6575L188.227 45.6319L188.233 45.6263Z" fill="white"/>
<path fill-rule="evenodd" clip-rule="evenodd" d="M214.576 30.0869C214.576 30.6032 214.548 31.1139 214.49 31.6163C214.428 32.1215 214.35 32.6378 214.243 33.1708L211.733 45.6266C211.702 45.7494 211.655 45.8471 211.59 45.928C211.523 46.0089 211.411 46.0787 211.254 46.1345C211.098 46.1959 210.905 46.2406 210.669 46.2685C210.434 46.2992 210.127 46.3132 209.757 46.3132C209.388 46.3132 209.108 46.2992 208.881 46.2685C208.649 46.2406 208.47 46.1959 208.347 46.1345C208.221 46.0787 208.14 46.0062 208.1 45.928C208.067 45.8443 208.05 45.7466 208.067 45.6266L210.538 33.302C210.641 32.8443 210.711 32.4033 210.748 31.9735C210.784 31.5465 210.804 31.1698 210.804 30.846C210.804 29.9418 210.611 29.2134 210.23 28.6608C209.844 28.1054 209.197 27.8291 208.293 27.8291C207.507 27.8291 206.704 28.0551 205.881 28.5045C205.058 28.9566 204.294 29.5762 203.595 30.3688C202.889 31.1614 202.26 32.0963 201.7 33.1876C201.146 34.2704 200.74 35.451 200.494 36.7236L198.716 45.6322C198.686 45.755 198.633 45.8527 198.56 45.9336C198.484 46.0145 198.372 46.0843 198.227 46.1401C198.078 46.2015 197.88 46.2462 197.639 46.2741C197.393 46.3048 197.093 46.3187 196.735 46.3187C196.377 46.3187 196.066 46.3048 195.834 46.2741C195.604 46.2462 195.428 46.2015 195.302 46.1401C195.173 46.0843 195.092 46.0117 195.059 45.9336C195.017 45.8499 195.017 45.7522 195.047 45.6322L199.072 25.6578C199.086 25.5545 199.128 25.4596 199.192 25.3731C199.259 25.281 199.363 25.2084 199.503 25.1498C199.646 25.0912 199.822 25.0521 200.037 25.0298C200.253 25.0075 200.508 24.9963 200.804 24.9963C201.118 24.9963 201.372 25.0075 201.571 25.0298C201.773 25.0521 201.927 25.0912 202.038 25.1498C202.148 25.2112 202.22 25.2838 202.248 25.3731C202.279 25.4596 202.288 25.5545 202.271 25.6578L201.515 29.4729C201.739 28.9678 202.1 28.4375 202.604 27.8765C203.108 27.3155 203.709 26.7992 204.406 26.3248C205.103 25.8503 205.873 25.4596 206.707 25.1498C207.546 24.84 208.414 24.6865 209.318 24.6865C210.311 24.6865 211.142 24.84 211.809 25.1414C212.475 25.4456 213.015 25.8447 213.435 26.3387C213.849 26.8327 214.14 27.4049 214.322 28.0551C214.501 28.7054 214.588 29.3864 214.588 30.0953L214.576 30.0869Z" fill="white"/>
<path fill-rule="evenodd" clip-rule="evenodd" d="M39.1747 36.5395H36.0402C35.0327 36.5395 34.1567 36.626 33.4179 36.7963C32.6762 36.9637 32.0633 37.2149 31.5764 37.5498C31.0866 37.8791 30.7256 38.281 30.4933 38.7443C30.2666 39.2104 30.1491 39.7463 30.1491 40.3519C30.1491 41.3873 30.4793 42.2106 31.1398 42.8246C31.7975 43.4386 32.7182 43.7456 33.9076 43.7456C34.8704 43.7456 35.7631 43.5 36.5831 43.0144C37.4087 42.526 38.2707 41.778 39.1747 40.7761V36.5395ZM42.8213 45.649C42.8213 45.8276 42.7625 45.9616 42.6422 46.0481C42.5246 46.1346 42.3623 46.2016 42.1552 46.2462C41.9481 46.2909 41.6459 46.3104 41.2429 46.3104C40.8399 46.3104 40.5488 46.2909 40.3221 46.2462C40.0926 46.1988 39.9247 46.1318 39.8212 46.0481C39.7176 45.9616 39.6644 45.8276 39.6644 45.649V43.6535C38.7913 44.5857 37.8145 45.3085 36.7399 45.8276C35.668 46.3439 34.5289 46.6035 33.3283 46.6035C32.2732 46.6035 31.3245 46.4639 30.4709 46.1932C29.6201 45.9197 28.8925 45.5234 28.2908 45.0071C27.6947 44.4908 27.2245 43.8544 26.8915 43.1009C26.5584 42.3474 26.3933 41.4906 26.3933 40.5305C26.3933 39.4086 26.62 38.4317 27.079 37.6028C27.538 36.7767 28.1984 36.0874 29.0576 35.5404C29.9196 34.9962 30.9691 34.5859 32.2145 34.3096C33.4599 34.0361 34.8592 33.9021 36.418 33.9021H39.1719V32.3476C39.1719 31.5801 39.0935 30.9019 38.9256 30.3075C38.7633 29.7186 38.5002 29.2274 38.1392 28.8367C37.7754 28.4431 37.3052 28.1473 36.7259 27.9491C36.1494 27.7482 35.4385 27.6505 34.5905 27.6505C33.6893 27.6505 32.8777 27.7566 32.1585 27.9715C31.4392 28.1864 30.8096 28.4236 30.2694 28.6832C29.7265 28.9399 29.2759 29.1799 28.9121 29.392C28.5511 29.6069 28.2824 29.713 28.1033 29.713C27.9829 29.713 27.8822 29.6851 27.7926 29.6237C27.7031 29.5651 27.6275 29.4758 27.5575 29.3558C27.4904 29.2385 27.4456 29.0878 27.4176 28.9008C27.384 28.7166 27.37 28.5157 27.37 28.2924C27.37 27.924 27.3952 27.6282 27.4484 27.4189C27.4988 27.204 27.6275 27.0002 27.8262 26.8077C28.0249 26.6179 28.3719 26.3918 28.8589 26.1323C29.3487 25.8727 29.9084 25.6355 30.5465 25.4206C31.1846 25.2085 31.8814 25.0299 32.6371 24.8903C33.3927 24.748 34.1539 24.6782 34.9263 24.6782C36.362 24.6782 37.585 24.8401 38.5954 25.1666C39.6029 25.4932 40.4201 25.9704 41.0386 26.5984C41.6599 27.2263 42.1132 28.005 42.3959 28.9371C42.6758 29.8665 42.8185 30.9549 42.8185 32.1941V45.6518L42.8213 45.649Z" fill="white"/>
<path fill-rule="evenodd" clip-rule="evenodd" d="M60.2511 17.4723C60.2511 17.7542 60.2315 17.9802 60.2063 18.1533C60.1755 18.3207 60.142 18.4575 60.1028 18.5607C60.0664 18.6612 60.0188 18.7338 59.9572 18.77C59.8985 18.8063 59.8257 18.8231 59.7362 18.8231C59.6326 18.8231 59.5011 18.7924 59.3443 18.7226C59.1904 18.6584 59.0001 18.5831 58.779 18.5021C58.5523 18.4212 58.2949 18.3458 57.9926 18.2788C57.6876 18.2119 57.3377 18.1812 56.9347 18.1812C56.3862 18.1812 55.9188 18.2677 55.5354 18.4463C55.1492 18.6249 54.8385 18.9012 54.6035 19.278C54.3628 19.6548 54.1921 20.1432 54.0913 20.7432C53.985 21.3405 53.9346 22.0717 53.9346 22.9257V25.0998H58.404C58.5243 25.0998 58.6223 25.1277 58.7035 25.1779C58.7846 25.2282 58.8574 25.3203 58.9274 25.4459C58.9945 25.5687 59.0449 25.7277 59.0841 25.9203C59.1205 26.1157 59.1372 26.3501 59.1372 26.6292C59.1372 27.1623 59.0729 27.5446 58.9413 27.7846C58.807 28.0191 58.6279 28.1391 58.4068 28.1391H53.9374V45.6268C53.9374 45.7468 53.9094 45.8473 53.8506 45.9282C53.7919 46.0119 53.6911 46.0817 53.5484 46.1375C53.4056 46.1961 53.2181 46.2408 52.9831 46.2715C52.7424 46.2994 52.4485 46.3162 52.0931 46.3162C51.7377 46.3162 51.4382 46.2994 51.2059 46.2715C50.968 46.2408 50.7749 46.1961 50.6378 46.1375C50.4979 46.0817 50.3971 46.0092 50.3383 45.9282C50.2768 45.8473 50.2516 45.7468 50.2516 45.6268V28.1391H47.425C47.1899 28.1391 47.0108 28.0191 46.8904 27.7846C46.7729 27.5446 46.7141 27.1623 46.7141 26.6292C46.7141 26.3501 46.7281 26.1129 46.7589 25.9203C46.7897 25.7277 46.8317 25.5687 46.8904 25.4459C46.952 25.3203 47.0248 25.2282 47.1143 25.1779C47.2011 25.1277 47.3074 25.0998 47.4222 25.0998H50.2488V23.0401C50.2488 21.653 50.3747 20.4557 50.635 19.4622C50.8953 18.463 51.2899 17.6453 51.8216 17.0118C52.3562 16.3755 53.0278 15.9066 53.8338 15.6052C54.6398 15.301 55.5942 15.1475 56.6912 15.1475C57.209 15.1475 57.7127 15.1977 58.1997 15.2926C58.6895 15.3875 59.0673 15.4935 59.3359 15.6024C59.6018 15.714 59.7809 15.8117 59.8677 15.901C59.9572 15.9903 60.0328 16.1019 60.0888 16.2443C60.1504 16.3866 60.1923 16.5569 60.2147 16.755C60.2371 16.956 60.2483 17.196 60.2483 17.4751L60.2511 17.4723Z" fill="white"/>
<path fill-rule="evenodd" clip-rule="evenodd" d="M74.5689 17.4723C74.5689 17.7542 74.5549 17.9802 74.5241 18.1533C74.4961 18.3207 74.4625 18.4575 74.4233 18.5607C74.3898 18.6612 74.3422 18.7338 74.2806 18.77C74.219 18.8063 74.1491 18.8231 74.0595 18.8231C73.9532 18.8231 73.8244 18.7924 73.6677 18.7226C73.511 18.6584 73.3235 18.5831 73.1024 18.5021C72.8785 18.4212 72.6182 18.3458 72.3132 18.2788C72.0081 18.2119 71.6583 18.1812 71.2581 18.1812C70.7095 18.1812 70.2422 18.2677 69.856 18.4463C69.4698 18.6249 69.1591 18.9012 68.924 19.278C68.6861 19.6548 68.5154 20.1432 68.4119 20.7432C68.3083 21.3405 68.2579 22.0717 68.2579 22.9257V25.0998H72.7246C72.8449 25.0998 72.9429 25.1277 73.0268 25.1779C73.1052 25.2282 73.1807 25.3203 73.2479 25.4459C73.3123 25.5687 73.3654 25.7277 73.4018 25.9203C73.4382 26.1157 73.4578 26.3501 73.4578 26.6292C73.4578 27.1623 73.3934 27.5446 73.2563 27.7846C73.1248 28.0191 72.9457 28.1391 72.7246 28.1391H68.2579V45.6268C68.2579 45.7468 68.2272 45.8473 68.1684 45.9282C68.1096 46.0119 68.0117 46.0817 67.8689 46.1375C67.7262 46.1961 67.5415 46.2408 67.3036 46.2715C67.0657 46.2994 66.7691 46.3162 66.4136 46.3162C66.0582 46.3162 65.7616 46.2994 65.5237 46.2715C65.2858 46.2408 65.0983 46.1961 64.9556 46.1375C64.8156 46.0817 64.7149 46.0092 64.6589 45.9282C64.5973 45.8473 64.5693 45.7468 64.5693 45.6268V28.1391H61.7455C61.5048 28.1391 61.3313 28.0191 61.211 27.7846C61.0934 27.5446 61.0347 27.1623 61.0347 26.6292C61.0347 26.3501 61.0487 26.1129 61.0766 25.9203C61.1074 25.7277 61.1522 25.5687 61.211 25.4459C61.2698 25.3203 61.3453 25.2282 61.4349 25.1779C61.5216 25.1277 61.6252 25.0998 61.7455 25.0998H64.5693V23.0401C64.5693 21.653 64.6981 20.4557 64.9556 19.4622C65.2158 18.463 65.6132 17.6453 66.145 17.0118C66.6795 16.3755 67.3512 15.9066 68.16 15.6052C68.9688 15.301 69.9203 15.1475 71.0174 15.1475C71.5351 15.1475 72.0389 15.1977 72.5287 15.2926C73.0184 15.3875 73.3962 15.4935 73.6621 15.6024C73.928 15.714 74.1071 15.8117 74.1938 15.901C74.2834 15.9903 74.359 16.1019 74.4149 16.2443C74.4737 16.3866 74.5157 16.5569 74.5381 16.755C74.5605 16.956 74.5717 17.196 74.5717 17.4751L74.5689 17.4723Z" fill="white"/>
<path fill-rule="evenodd" clip-rule="evenodd" d="M91.3551 35.6742C91.3551 34.5941 91.2543 33.5782 91.05 32.6182C90.8513 31.6581 90.5183 30.8125 90.0565 30.0896C89.5919 29.364 88.9595 28.7947 88.1702 28.3704C87.3782 27.9518 86.3903 27.7397 85.2121 27.7397C84.1178 27.7397 83.1775 27.9323 82.3939 28.3174C81.613 28.7026 80.961 29.244 80.4544 29.9445C79.9451 30.6506 79.5672 31.4795 79.3238 32.4423C79.0747 33.4024 78.9487 34.4518 78.9487 35.5905C78.9487 36.7292 79.0495 37.7088 79.2538 38.6716C79.4525 39.6317 79.7939 40.469 80.2641 41.1862C80.7343 41.9035 81.3668 42.4728 82.1588 42.8942C82.9508 43.3157 83.9387 43.525 85.1225 43.525C86.1972 43.525 87.1291 43.3324 87.9268 42.9501C88.7188 42.5649 89.3681 42.0263 89.8774 41.3313C90.3868 40.6364 90.7618 39.8103 90.9969 38.8474C91.2403 37.8874 91.3579 36.8296 91.3579 35.677L91.3551 35.6742ZM95.1556 35.4314C95.1556 37.0557 94.9401 38.5516 94.5119 39.9191C94.081 41.2867 93.4429 42.4672 92.5893 43.4552C91.7385 44.446 90.6666 45.2191 89.3876 45.7689C88.1059 46.327 86.6198 46.6033 84.9294 46.6033C83.239 46.6033 81.8509 46.3577 80.6279 45.8721C79.4077 45.3837 78.3862 44.6748 77.5718 43.7427C76.7574 42.8105 76.1473 41.6802 75.7499 40.3489C75.3469 39.0205 75.1482 37.5134 75.1482 35.8277C75.1482 34.142 75.3609 32.7047 75.7807 31.3372C76.2061 29.9696 76.8386 28.7919 77.6949 27.8011C78.5457 26.8103 79.6092 26.0428 80.8826 25.4958C82.156 24.9488 83.6476 24.6753 85.352 24.6753C87.0564 24.6753 88.4305 24.9181 89.6535 25.4065C90.8765 25.8949 91.8952 26.6066 92.7124 27.5332C93.5268 28.4653 94.1369 29.5956 94.5483 30.9269C94.9513 32.2554 95.1584 33.7569 95.1584 35.4258L95.1556 35.4314Z" fill="white"/>
<path fill-rule="evenodd" clip-rule="evenodd" d="M112.25 26.9837C112.25 27.3075 112.244 27.581 112.23 27.8014C112.216 28.0219 112.185 28.1977 112.141 28.3205C112.093 28.4489 112.04 28.5466 111.975 28.6108C111.908 28.6778 111.816 28.7085 111.696 28.7085C111.575 28.7085 111.43 28.6778 111.262 28.6108C111.091 28.5466 110.898 28.4768 110.685 28.4099C110.467 28.3429 110.229 28.2815 109.963 28.2229C109.697 28.1643 109.409 28.1336 109.096 28.1336C108.726 28.1336 108.362 28.2061 108.007 28.354C107.652 28.502 107.277 28.7476 106.882 29.088C106.49 29.4285 106.082 29.8779 105.648 30.4388C105.22 30.9998 104.747 31.6892 104.226 32.5013V45.6241C104.226 45.7441 104.198 45.8446 104.136 45.9255C104.078 46.0064 103.98 46.0762 103.848 46.1348C103.714 46.1962 103.529 46.2409 103.294 46.2688C103.056 46.2967 102.751 46.3162 102.382 46.3162C102.012 46.3162 101.73 46.2995 101.495 46.2688C101.257 46.2409 101.066 46.1962 100.926 46.1348C100.787 46.0762 100.691 46.0064 100.638 45.9255C100.588 45.8446 100.56 45.7441 100.56 45.6269V25.6748C100.56 25.5576 100.582 25.4571 100.63 25.3762C100.672 25.2924 100.759 25.2199 100.896 25.1557C101.03 25.0887 101.201 25.044 101.408 25.0217C101.615 24.9994 101.886 24.9882 102.228 24.9882C102.569 24.9882 102.827 24.9994 103.039 25.0217C103.255 25.044 103.417 25.0859 103.54 25.1557C103.658 25.2227 103.745 25.2952 103.795 25.3762C103.851 25.4571 103.873 25.5548 103.873 25.6748V28.5801C104.422 27.7819 104.937 27.1316 105.418 26.6293C105.9 26.1269 106.353 25.7334 106.787 25.4431C107.215 25.1557 107.64 24.9547 108.063 24.8431C108.483 24.7315 108.911 24.6729 109.339 24.6729C109.532 24.6729 109.751 24.6868 109.997 24.7091C110.24 24.7315 110.495 24.7705 110.761 24.8291C111.03 24.8905 111.267 24.9575 111.483 25.0273C111.698 25.1026 111.852 25.1752 111.939 25.2506C112.031 25.3231 112.087 25.3929 112.118 25.4599C112.146 25.5269 112.174 25.6106 112.194 25.7139C112.219 25.8199 112.233 25.9706 112.241 26.1688C112.25 26.3669 112.25 26.6376 112.25 26.9781V26.9837Z" fill="white"/>
<path fill-rule="evenodd" clip-rule="evenodd" d="M129.257 31.5942C128.266 30.3662 127.304 29.434 126.377 28.7921C125.448 28.1474 124.483 27.8265 123.478 27.8265C122.546 27.8265 121.751 28.047 121.099 28.4907C120.447 28.9317 119.915 29.5178 119.507 30.2434C119.101 30.969 118.804 31.7868 118.619 32.705C118.435 33.6204 118.339 34.5525 118.339 35.4987C118.339 36.5034 118.415 37.4858 118.572 38.4458C118.726 39.4059 119 40.2599 119.386 41.0051C119.77 41.7503 120.282 42.3503 120.917 42.8024C121.555 43.2518 122.356 43.4778 123.321 43.4778C123.811 43.4778 124.278 43.4081 124.734 43.2797C125.185 43.1457 125.647 42.9252 126.125 42.6126C126.598 42.3029 127.096 41.8982 127.611 41.4042C128.129 40.9074 128.68 40.299 129.257 39.5762V31.5942ZM132.946 45.6268C132.946 45.744 132.923 45.8473 132.87 45.9366C132.82 46.0231 132.727 46.0957 132.601 46.1459C132.478 46.1962 132.31 46.238 132.103 46.2687C131.896 46.2966 131.641 46.3134 131.348 46.3134C131.037 46.3134 130.774 46.2966 130.567 46.2687C130.36 46.238 130.189 46.1962 130.06 46.1459C129.923 46.0957 129.825 46.0259 129.769 45.9366C129.713 45.8445 129.677 45.744 129.677 45.6268V42.9894C128.622 44.1281 127.533 45.0128 126.4 45.6519C125.263 46.2855 124.024 46.6036 122.675 46.6036C121.205 46.6036 119.954 46.3162 118.919 45.7496C117.881 45.1831 117.038 44.4128 116.394 43.4443C115.748 42.4759 115.281 41.34 114.984 40.0311C114.687 38.7249 114.542 37.3434 114.542 35.8978C114.542 34.1841 114.726 32.6352 115.096 31.2537C115.465 29.8722 116.017 28.6945 116.739 27.7176C117.466 26.7436 118.365 25.9929 119.439 25.4682C120.514 24.9435 121.754 24.6812 123.164 24.6812C124.334 24.6812 125.406 24.9351 126.377 25.4459C127.348 25.9538 128.308 26.7046 129.257 27.6953V16.102C129.257 15.9987 129.285 15.8982 129.333 15.8033C129.386 15.7056 129.486 15.6331 129.632 15.5801C129.78 15.5298 129.971 15.4852 130.2 15.4489C130.427 15.4126 130.723 15.3931 131.079 15.3931C131.434 15.3931 131.753 15.4126 131.991 15.4489C132.232 15.4852 132.414 15.5298 132.548 15.5801C132.685 15.6331 132.783 15.7056 132.848 15.8033C132.915 15.8982 132.946 16.0015 132.946 16.102V45.6296V45.6268Z" fill="white"/>
<path fill-rule="evenodd" clip-rule="evenodd" d="M17.7119 13.1853C15.0056 16.1353 10.7349 17.0451 8.81781 14.1454C7.50525 12.1555 7.84109 9.56553 9.61822 7.96076C11.3786 6.36995 14.0485 6.26669 15.8704 7.76261C16.4245 8.22031 16.8779 8.80082 17.376 9.32272C17.3648 7.09838 17.376 5.64153 17.376 2.77249C15.8844 1.37146 13.679 0.361161 11.636 0.260689C7.32334 0.0429997 3.923 1.74544 1.75126 5.41268C-0.585599 9.36179 -0.566008 13.5649 1.70368 17.5335C4.98089 23.2688 13.1557 24.5833 17.7091 20.3942C17.765 18.0973 17.5971 15.658 17.7091 13.1853H17.7119Z" fill="white"/>
<path fill-rule="evenodd" clip-rule="evenodd" d="M24.3839 13.8079C27.0874 16.7551 30.5801 16.8025 32.4971 13.9028C33.8097 11.9129 33.4767 9.32571 31.6995 7.71815C29.9392 6.13014 27.2693 6.02129 25.4474 7.52C24.8933 7.97771 24.7309 8.35169 24.3839 9.16384C24.3363 6.8781 24.3839 4.98029 24.3643 2.2201C25.8588 0.819068 27.6387 0.118554 29.6789 0.0180816C33.9888 -0.196817 37.392 1.50284 39.5609 5.17007C41.8978 9.11918 41.8782 13.3251 39.6085 17.2909C36.3313 23.0262 28.8981 24.3323 24.3447 20.1432C24.3811 17.8017 24.3363 16.3113 24.3811 13.8079H24.3839Z" fill="white"/>
<path d="M24.3502 0.729492H17.376V31.7782H24.3502V0.729492Z" fill="white"/>
<path d="M225.496 19.9397C225.25 19.5461 225.057 19.2698 224.911 19.1163C224.766 18.9628 224.584 18.8205 224.363 18.6921C224.808 18.6279 225.144 18.4717 225.368 18.2233C225.591 17.9749 225.703 17.6623 225.703 17.2799C225.703 16.9813 225.631 16.7134 225.482 16.4817C225.334 16.2501 225.138 16.0882 224.892 15.9961C224.645 15.904 224.251 15.8594 223.708 15.8594H221.547V20.9276H222.574V18.8121H222.782C223.017 18.8121 223.19 18.8317 223.299 18.868C223.408 18.907 223.512 18.9768 223.607 19.0801C223.705 19.1833 223.884 19.4317 224.147 19.8252L224.889 20.9276H226.118L225.496 19.9397ZM223.333 18.0028H222.574V16.7162H223.375C223.792 16.7162 224.041 16.7218 224.125 16.7329C224.29 16.7608 224.419 16.8278 224.511 16.9311C224.603 17.0371 224.648 17.1739 224.648 17.3441C224.648 17.4976 224.615 17.6232 224.545 17.7237C224.475 17.8242 224.38 17.8967 224.256 17.9386C224.133 17.9805 223.825 18 223.333 18V18.0028Z" fill="white"/>
<path d="M228.281 16.5202C228.038 15.9481 227.69 15.4318 227.245 14.9908C226.803 14.5498 226.286 14.201 225.712 13.9582C225.116 13.707 224.483 13.5786 223.831 13.5786C223.179 13.5786 222.547 13.707 221.95 13.9582C221.377 14.201 220.859 14.5471 220.417 14.9908C219.975 15.4318 219.625 15.9481 219.381 16.5202C219.129 17.1147 219.001 17.7454 219.001 18.3957C219.001 19.046 219.129 19.6767 219.381 20.2712C219.625 20.8433 219.972 21.3596 220.417 21.8006C220.859 22.2415 221.377 22.5904 221.95 22.8332C222.547 23.0844 223.179 23.2128 223.831 23.2128C224.483 23.2128 225.116 23.0844 225.712 22.8332C226.286 22.5904 226.803 22.2443 227.245 21.8006C227.688 21.3596 228.038 20.8433 228.281 20.2712C228.533 19.6767 228.662 19.046 228.662 18.3957C228.662 17.7454 228.533 17.1147 228.281 16.5202ZM223.831 22.4481C221.589 22.4481 219.765 20.6284 219.765 18.3929C219.765 16.1574 221.589 14.3377 223.831 14.3377C226.073 14.3377 227.898 16.1574 227.898 18.3929C227.898 20.6284 226.073 22.4481 223.831 22.4481Z" fill="white"/>
</svg>
