<svg width="265" height="183" viewBox="0 0 265 183" fill="none" xmlns="http://www.w3.org/2000/svg">
<path d="M111.483 133.169C106.845 136.501 102.063 139.591 96.7257 141.756C65.9817 154.288 28.6358 141.768 11.8181 113.205C6.07171 103.452 2.13233 93.0369 1.04809 81.6839C1.21675 79.9761 1.44565 78.2563 0 76.8973C0 74.8889 0 72.8925 0 70.8841C1.04809 69.4289 1.34927 67.8053 1.01195 66.0615C2.57807 51.1005 8.56545 37.9556 17.6851 26.1576C24.3832 17.5346 32.8041 11.0283 42.9598 6.8551C49.3085 4.24535 55.9344 2.75407 62.7651 2.12869C72.2582 1.26278 81.5705 1.84005 90.6299 5.14734C98.3521 7.97356 105.195 12.2189 111.459 17.4745C111.495 17.8954 111.532 18.3043 111.568 18.7252C111.568 31.8702 111.568 45.0151 111.568 58.1601C111.544 58.4247 111.519 58.6892 111.495 58.9659C111.291 58.9418 111.098 58.9538 110.905 59.0019C108.773 56.753 106.725 54.4198 104.508 52.2551C96.81 44.7024 87.6061 41.8281 76.9806 43.8245C57.7294 47.4325 46.6943 68.13 54.4165 86.0495C58.8859 96.4043 67.6441 102.129 78.9804 102.069C85.1124 102.033 90.8226 100.301 96.3281 97.7392C101.834 95.1656 106.568 91.4975 111.146 87.5889C111.7 88.6232 111.483 89.7416 111.483 90.836C111.495 104.943 111.483 119.062 111.483 133.169Z" fill="white" fill-opacity="0.15"/>
<path d="M187.38 0.613351C187.368 0.4089 187.356 0.20445 187.344 0C192.765 0 198.186 0 203.607 0C203.535 0.144318 203.45 0.276609 203.402 0.420927C203.378 0.493086 203.438 0.589298 203.462 0.673483C198.102 0.64943 192.741 0.637404 187.38 0.613351Z" fill="white" fill-opacity="0.15"/>
<path d="M0.012047 76.8973C1.44565 78.2563 1.2288 79.9761 1.06014 81.6839C0.710775 81.6358 0.349364 81.3712 0.012047 81.7079C0.012047 80.1084 0.012047 78.5089 0.012047 76.8973Z" fill="white" fill-opacity="0.15"/>
<path d="M0.012047 66.0855C0.361411 66.3862 0.686681 66.1216 1.024 66.0615C1.36132 67.8174 1.06014 69.4289 0.012047 70.8841C0.012047 69.2966 0.012047 67.6851 0.012047 66.0855Z" fill="white" fill-opacity="0.15"/>
<path d="M187.38 0.613351C192.741 0.625377 198.102 0.64943 203.462 0.661457C222.714 2.54961 238.158 11.2207 249.494 26.8551C259.65 40.854 265.312 56.4162 264.987 73.8667C264.565 95.7669 252.217 126.687 223.183 139.183C199.86 149.225 177.802 146.711 157.768 130.523C157.383 130.211 156.949 129.97 156.539 129.706C155.6 128.599 156.178 127.288 156.057 126.062C156.804 125.448 156.575 124.594 156.575 123.825C156.587 113.314 156.587 102.802 156.587 92.3033C156.587 91.5216 156.792 90.6797 156.021 90.0904C156.033 89.6334 156.094 89.2004 156.527 88.9238C157.72 89.3568 158.37 90.4271 159.238 91.2449C163.792 95.5865 168.851 99.1463 174.851 101.155C184.946 104.546 194.367 103.295 202.426 96.1277C210.92 88.5751 214.943 79.0621 213.197 67.637C210.932 52.8324 197.559 40.8299 181.175 41.6958C170.514 42.2611 161.84 46.6868 157.298 57.0897C157.081 56.8732 156.865 56.6568 156.648 56.4523C156.648 43.6682 156.66 30.896 156.636 18.1119C156.636 17.0656 157.033 15.887 156.057 14.997C156.057 14.6002 156.033 14.1913 156.407 13.9267C157.84 13.5538 158.684 12.3753 159.768 11.5214C167.863 5.14734 177.067 1.50331 187.38 0.613351Z" fill="white" fill-opacity="0.15"/>
<path d="M156.045 126.086C156.166 127.3 155.588 128.611 156.527 129.73C156.503 134.432 156.455 139.134 156.455 143.837C156.443 162.358 156.455 180.878 156.443 199.399C156.443 200.602 156.371 201.792 156.334 202.995C155.142 203.043 153.937 203.115 152.744 203.127C141.661 203.139 130.578 203.139 119.483 203.127C116.892 203.127 114.29 203.043 111.7 203.007C111.664 201.804 111.604 200.614 111.592 199.411C111.58 178.533 111.592 157.643 111.58 136.765C111.58 135.575 111.495 134.372 111.459 133.181C111.459 119.074 111.471 104.955 111.459 90.8481C111.459 89.7657 111.676 88.6352 111.122 87.6009C111.736 86.6027 111.592 85.4843 111.592 84.3898C111.592 79.2906 111.628 74.1914 111.58 69.0922C111.544 65.8931 111.821 62.6941 111.399 59.507C111.459 59.3387 111.483 59.1583 111.483 58.9899C111.507 58.7253 111.532 58.4607 111.556 58.1962C112.194 57.5347 111.989 56.7049 111.989 55.9232C112.001 44.2935 112.001 32.6519 111.989 21.0223C111.989 20.2526 112.194 19.4107 111.568 18.7493C111.532 18.3284 111.495 17.9195 111.459 17.4985C111.507 14.095 111.556 10.6915 111.616 7.30008C111.652 4.94288 111.664 4.89478 113.881 4.88275C127.337 4.87073 140.782 4.87073 154.238 4.88275C156.371 4.88275 156.407 4.94289 156.431 7.05955C156.455 9.35661 156.395 11.6657 156.371 13.9627C155.997 14.2394 156.021 14.6483 156.021 15.0331C156.021 28.8515 156.021 42.682 156.021 56.5004C156.13 57.2942 155.78 58.1721 156.455 58.8576C156.479 68.8877 156.491 78.9178 156.515 88.9479C156.081 89.2245 156.021 89.6574 156.009 90.1145C156.033 102.093 156.045 114.083 156.045 126.086Z" fill="white" fill-opacity="0.15"/>
<path d="M111.724 202.995C114.314 203.043 116.917 203.115 119.507 203.115C130.59 203.127 141.673 203.127 152.769 203.115C153.961 203.115 155.166 203.031 156.359 202.983C156.419 203.452 156.19 203.753 155.732 203.789C155.045 203.849 154.347 203.885 153.648 203.885C140.577 203.885 127.518 203.909 114.447 203.861C113.507 203.873 112.218 204.498 111.724 202.995Z" fill="white" fill-opacity="0.15"/>
<path d="M111.568 18.7373C112.206 19.3987 111.989 20.2406 111.989 21.0103C112.001 32.6399 112.001 44.2815 111.989 55.9111C111.989 56.6808 112.194 57.5227 111.556 58.1841C111.568 45.0272 111.568 31.8822 111.568 18.7373Z" fill="white" fill-opacity="0.15"/>
<path d="M111.423 59.495C111.134 59.4589 110.929 59.3267 110.917 59.0019C111.11 58.9538 111.315 58.9418 111.519 58.9659C111.507 59.1463 111.471 59.3267 111.423 59.495Z" fill="white" fill-opacity="0.15"/>
<path d="M156.021 56.4884C156.021 42.67 156.021 28.8395 156.021 15.0211C156.997 15.911 156.599 17.0776 156.599 18.1359C156.636 30.9081 156.624 43.6922 156.624 56.4764C156.419 56.4643 156.226 56.4643 156.021 56.4884Z" fill="white" fill-opacity="0.15"/>
<path d="M156.045 126.086C156.033 114.095 156.021 102.105 156.009 90.1145C156.792 90.7038 156.575 91.5456 156.575 92.3273C156.575 102.838 156.575 113.35 156.563 123.849C156.575 124.618 156.792 125.472 156.045 126.086Z" fill="white" fill-opacity="0.15"/>
<path d="M156.021 56.4884C156.226 56.4764 156.419 56.4643 156.624 56.4764C156.84 56.6929 157.057 56.9093 157.274 57.1138C157.298 57.8354 157.033 58.4126 156.455 58.8456C155.78 58.1601 156.13 57.2822 156.021 56.4884Z" fill="white" fill-opacity="0.15"/>
</svg>
