<svg width="269" height="269" viewBox="0 0 269 269" fill="none" xmlns="http://www.w3.org/2000/svg">
<path opacity="0.7" d="M0.196659 126.818C-0.272556 135.439 0.0996479 144.154 1.3049 152.723C2.49745 161.204 4.5172 169.616 7.30473 177.726C10.0923 185.835 13.673 193.711 17.9469 201.134C22.2645 208.634 27.3318 215.739 33.0012 222.249C44.8036 235.799 59.038 246.698 75.3044 254.639C91.5733 262.58 108.923 267.101 126.875 268.074C135.503 268.541 144.224 268.168 152.798 266.962C161.284 265.769 169.701 263.75 177.816 260.962C185.931 258.175 193.811 254.596 201.24 250.323C208.744 246.007 215.855 240.942 222.369 235.275C235.929 223.478 246.836 209.25 254.785 192.992C262.733 176.732 267.259 159.392 268.235 141.451C268.704 132.83 268.332 124.114 267.124 115.546C265.931 107.065 263.912 98.6528 261.124 90.5434C258.336 82.4341 254.756 74.5585 250.482 67.1352C246.164 59.6354 241.097 52.5301 235.428 46.0203C223.625 32.47 209.391 21.5715 193.124 13.6299C176.855 5.68859 159.506 1.16789 141.554 0.195283C132.928 -0.272429 124.207 0.100806 115.634 1.30898C107.147 2.50201 98.73 4.52172 90.6155 7.30874C82.5009 10.0958 74.6201 13.6754 67.1919 17.9479C59.687 22.264 52.5768 27.3292 46.0623 32.9962C32.5023 44.7935 21.5954 59.0209 13.6468 75.2788C5.69848 91.5392 1.17265 108.879 0.196941 126.821L0.196659 126.818ZM91.4557 221.603C43.1983 198.047 23.1202 139.643 46.6995 91.411C70.2763 43.179 128.718 23.1046 176.975 46.6631C225.233 70.2192 245.311 128.623 221.731 176.855C198.155 225.087 139.713 245.162 91.4557 221.603Z" fill="url(#paint0_linear_3586_2496)"/>
<defs>
<linearGradient id="paint0_linear_3586_2496" x1="75.3004" y1="-4.36527" x2="218.394" y2="245.145" gradientUnits="userSpaceOnUse">
<stop stop-color="#DBDDE2" stop-opacity="0.2"/>
<stop offset="0.57133" stop-color="#7CD1E4" stop-opacity="0.5"/>
<stop offset="1" stop-color="#56C4DC" stop-opacity="0.8"/>
</linearGradient>
</defs>
</svg>
