<svg width="307" height="243" viewBox="0 0 307 243" fill="none" xmlns="http://www.w3.org/2000/svg">
<path opacity="0.7" d="M0.329595 209.161C-0.457703 223.379 0.166818 237.754 2.18911 251.887C4.19008 265.875 7.57903 279.748 12.2562 293.123C16.9334 306.498 22.9414 319.487 30.1127 331.73C37.3572 344.1 45.8595 355.819 55.3723 366.555C75.1755 388.904 99.0593 406.879 126.353 419.977C153.65 433.074 182.761 440.53 212.883 442.135C227.36 442.906 241.992 442.29 256.379 440.301C270.618 438.334 284.741 435.003 298.357 430.406C311.972 425.809 325.195 419.905 337.659 412.859C350.252 405.74 362.182 397.386 373.112 388.039C395.865 368.582 414.165 345.117 427.502 318.303C440.839 291.484 448.433 262.886 450.07 233.295C450.857 219.077 450.233 204.702 448.206 190.57C446.205 176.582 442.816 162.708 438.139 149.333C433.462 135.959 427.454 122.969 420.283 110.726C413.038 98.3567 404.536 86.6379 395.023 75.9012C375.22 53.5527 351.336 35.5778 324.043 22.4797C296.745 9.38211 267.634 1.92614 237.513 0.322021C223.04 -0.449421 208.407 0.166133 194.021 2.15879C179.782 4.12644 165.659 7.45757 152.043 12.0542C138.428 16.6508 125.205 22.5548 112.741 29.6014C100.148 36.72 88.2182 45.074 77.2874 54.4206C54.5352 73.8779 36.2345 97.3432 22.8975 124.157C9.56109 150.976 1.96721 179.575 0.33007 209.165L0.329595 209.161ZM153.453 365.491C72.482 326.639 38.793 230.314 78.3566 150.764C117.916 71.2151 215.975 38.1063 296.946 76.9615C377.917 115.813 411.606 212.138 372.042 291.688C332.483 371.237 234.424 404.346 153.453 365.491Z" fill="white" fill-opacity="0.06"/>
</svg>
