<svg width="1211" height="468" viewBox="0 0 1211 468" fill="none" xmlns="http://www.w3.org/2000/svg">
<path opacity="0.2" d="M708.154 8.74471C669.758 2.13405 630.496 -0.754642 591.455 0.167518C552.815 1.07857 514.052 5.7338 476.245 13.9888C438.437 22.2438 401.262 34.1763 365.753 49.453C329.877 64.8853 295.378 83.884 263.233 105.894C196.323 151.713 140.028 209.82 95.9247 278.582C51.8213 347.355 22.4856 422.761 8.73938 502.722C2.13275 541.153 -0.754182 580.439 0.167415 619.503C1.07791 658.167 5.73031 696.953 13.9803 734.784C22.2302 772.615 34.1555 809.812 49.4229 845.343C64.8458 881.241 83.8329 915.761 105.829 947.925C151.62 1014.88 209.692 1071.21 278.412 1115.34C347.143 1159.47 422.503 1188.82 502.416 1202.57C540.812 1209.19 580.074 1212.07 619.114 1211.14C657.755 1210.23 696.517 1205.57 734.325 1197.32C772.133 1189.06 809.308 1177.13 844.817 1161.85C880.693 1146.42 915.191 1127.42 947.336 1105.41C1014.25 1059.6 1070.54 1001.49 1114.65 932.726C1158.75 863.953 1188.08 788.547 1201.83 708.586C1208.44 670.166 1211.32 630.88 1210.39 591.816C1209.48 553.152 1204.83 514.366 1196.58 476.535C1188.33 438.704 1176.4 401.507 1161.14 365.976C1145.71 330.078 1126.73 295.558 1104.73 263.394C1058.94 196.443 1000.87 140.114 932.147 95.9832C863.415 51.8529 788.055 22.4993 708.143 8.74471H708.154ZM235.563 368.254C366.386 164.256 638.679 104.794 842.552 235.707C1046.42 366.609 1105.85 639.068 975.017 843.066C844.195 1047.06 571.902 1106.53 368.029 975.612C164.156 844.71 104.73 572.251 235.563 368.254Z" fill="url(#paint0_linear_3488_5885)"/>
<defs>
<linearGradient id="paint0_linear_3488_5885" x1="605.29" y1="-223.384" x2="605.29" y2="452.67" gradientUnits="userSpaceOnUse">
<stop stop-color="#56C4DC"/>
<stop offset="1" stop-color="white" stop-opacity="0"/>
</linearGradient>
</defs>
</svg>
