<svg width="223" height="678" viewBox="0 0 223 678" fill="none" xmlns="http://www.w3.org/2000/svg">
<path opacity="0.7" d="M-544.98 322.074C-546.433 343.866 -545.479 365.888 -542.139 387.529C-538.833 408.949 -533.159 430.184 -525.284 450.645C-517.408 471.107 -507.259 490.968 -495.12 509.678C-482.856 528.581 -468.442 546.479 -452.297 562.864C-418.686 596.97 -378.079 624.346 -331.618 644.225C-285.15 664.104 -235.545 675.325 -184.17 677.573C-159.478 678.653 -134.51 677.607 -109.951 674.46C-85.6439 671.345 -61.5239 666.142 -38.2604 659.003C-14.9969 651.865 7.60767 642.726 28.9254 631.841C50.4634 620.845 70.881 607.961 89.6012 593.563C128.567 563.59 159.97 527.506 182.931 486.325C205.891 445.138 219.068 401.263 222.09 355.91C223.543 334.118 222.589 312.097 219.242 290.456C215.936 269.036 210.262 247.801 202.387 227.34C194.511 206.878 184.362 187.017 172.223 168.307C159.96 149.404 145.546 131.506 129.4 115.121C95.7891 81.015 55.1825 53.639 8.72147 33.7596C-37.7466 13.881 -87.352 2.65974 -138.727 0.412295C-163.412 -0.66855 -188.38 0.376902 -212.938 3.53083C-237.245 6.64542 -261.365 11.8484 -284.629 18.987C-307.892 26.1256 -330.497 35.2646 -351.814 46.1493C-373.352 57.145 -393.77 70.0293 -412.49 84.4275C-451.456 114.401 -482.859 150.485 -505.82 191.665C-528.78 232.852 -541.957 276.727 -544.979 322.081L-544.98 322.074ZM-284.963 560.547C-422.798 501.581 -479.525 354.218 -411.413 232.047C-343.308 109.878 -175.764 58.4597 -37.9276 117.431C99.9077 176.397 156.635 323.76 88.5224 445.931C20.4173 568.101 -147.127 619.518 -284.963 560.547Z" fill="url(#paint0_linear_2476_16476)"/>
<defs>
<linearGradient id="paint0_linear_2476_16476" x1="-428.05" y1="212.729" x2="20.2599" y2="674.683" gradientUnits="userSpaceOnUse">
<stop stop-color="#DBDDE2" stop-opacity="0.2"/>
<stop offset="0.47603" stop-color="#7CD1E4" stop-opacity="0.772953"/>
<stop offset="1" stop-color="#56C4DC"/>
</linearGradient>
</defs>
</svg>
