<svg width="239" height="168" viewBox="0 0 239 168" fill="none" xmlns="http://www.w3.org/2000/svg">
<path d="M100.545 120.113C96.3623 123.118 92.0489 125.906 87.2356 127.859C59.508 139.162 25.8263 127.869 10.6586 102.107C5.47599 93.3095 1.92312 83.9156 0.945261 73.6757C1.09737 72.1353 1.30381 70.5841 0 69.3584C0 67.5469 0 65.7462 0 63.9347C0.945261 62.6221 1.21689 61.1577 0.912666 59.5849C2.32512 46.0907 7.72506 34.2344 15.9499 23.5931C21.9909 15.8155 29.5856 9.94708 38.7448 6.18303C44.4707 3.82914 50.4465 2.48406 56.607 1.91999C65.1687 1.13898 73.5674 1.65966 81.7379 4.64269C88.7024 7.19184 94.8738 11.021 100.524 15.7613C100.556 16.141 100.589 16.5098 100.621 16.8894C100.621 28.7457 100.621 40.6019 100.621 52.4581C100.6 52.6968 100.578 52.9354 100.556 53.1849C100.371 53.1632 100.198 53.174 100.024 53.2174C98.1007 51.189 96.2536 49.0846 94.2545 47.132C87.3117 40.3199 79.0108 37.7273 69.4278 39.528C52.0654 42.7822 42.113 61.4506 49.0775 77.6133C53.1084 86.9529 61.0074 92.1163 71.2314 92.062C76.7617 92.0295 81.9117 90.4675 86.8771 88.157C91.8424 85.8356 96.1124 82.5272 100.241 79.0017C100.741 79.9346 100.545 80.9434 100.545 81.9305C100.556 94.6546 100.545 107.389 100.545 120.113Z" fill="white" fill-opacity="0.2"/>
<path d="M168.995 0.553218C168.984 0.368812 168.974 0.184406 168.963 0C173.852 0 178.741 0 183.63 0C183.565 0.130169 183.489 0.249491 183.446 0.37966C183.424 0.444744 183.478 0.531523 183.5 0.607455C178.665 0.585761 173.83 0.574913 168.995 0.553218Z" fill="white" fill-opacity="0.2"/>
<path d="M0.0108651 69.3584C1.30381 70.5841 1.10824 72.1353 0.956126 73.6757C0.641039 73.6323 0.315087 73.3936 0.0108651 73.6974C0.0108651 72.2546 0.0108651 70.8119 0.0108651 69.3584Z" fill="white" fill-opacity="0.2"/>
<path d="M0.0108651 59.6066C0.325952 59.8777 0.619309 59.6391 0.923531 59.5849C1.22775 61.1686 0.956126 62.6221 0.0108651 63.9347C0.0108651 62.5028 0.0108651 61.0493 0.0108651 59.6066Z" fill="white" fill-opacity="0.2"/>
<path d="M168.995 0.553218C173.83 0.564066 178.665 0.585761 183.5 0.596608C200.863 2.29965 214.792 10.1206 225.016 24.2223C234.175 36.8487 239.281 50.8852 238.988 66.6248C238.608 86.378 227.471 114.267 201.286 125.537C180.251 134.595 160.358 132.328 142.289 117.727C141.941 117.445 141.55 117.228 141.181 116.989C140.333 115.991 140.855 114.809 140.746 113.703C141.42 113.149 141.213 112.379 141.213 111.685C141.224 102.204 141.224 92.7237 141.224 83.2539C141.224 82.5488 141.409 81.7895 140.713 81.258C140.724 80.8458 140.779 80.4553 141.17 80.2058C142.245 80.5963 142.832 81.5617 143.614 82.2994C147.721 86.2153 152.285 89.4261 157.696 91.2376C166.801 94.2966 175.297 93.1685 182.566 86.7034C190.226 79.8912 193.855 71.3109 192.279 61.0059C190.236 47.6527 178.176 36.827 163.4 37.608C153.784 38.1178 145.961 42.1097 141.865 51.4927C141.67 51.2974 141.474 51.1022 141.278 50.9178C141.278 39.387 141.289 27.867 141.268 16.3362C141.268 15.3925 141.626 14.3294 140.746 13.5267C140.746 13.1688 140.724 12.8 141.061 12.5613C142.354 12.225 143.115 11.162 144.093 10.3918C151.394 4.64269 159.695 1.35593 168.995 0.553218Z" fill="white" fill-opacity="0.2"/>
<path d="M140.735 113.724C140.844 114.82 140.322 116.002 141.17 117.011C141.148 121.252 141.105 125.494 141.105 129.735C141.094 146.44 141.105 163.145 141.094 179.85C141.094 180.935 141.029 182.009 140.996 183.094C139.92 183.137 138.834 183.202 137.758 183.213C127.762 183.224 117.766 183.224 107.76 183.213C105.424 183.213 103.077 183.137 100.741 183.104C100.708 182.02 100.654 180.946 100.643 179.861C100.632 161.03 100.643 142.188 100.632 123.357C100.632 122.283 100.556 121.198 100.524 120.124C100.524 107.4 100.534 94.6654 100.524 81.9414C100.524 80.9651 100.719 79.9455 100.219 79.0126C100.774 78.1122 100.643 77.1034 100.643 76.1163C100.643 71.517 100.676 66.9177 100.632 62.3184C100.6 59.433 100.85 56.5476 100.469 53.673C100.524 53.5212 100.545 53.3584 100.545 53.2066C100.567 52.9679 100.589 52.7293 100.611 52.4907C101.186 51.894 101.002 51.1456 101.002 50.4405C101.013 39.951 101.013 29.4507 101.002 18.9613C101.002 18.267 101.186 17.5077 100.621 16.9111C100.589 16.5315 100.556 16.1627 100.524 15.783C100.567 12.7132 100.611 9.64335 100.665 6.58438C100.697 4.45829 100.708 4.4149 102.707 4.40405C114.844 4.3932 126.969 4.3932 139.105 4.40405C141.029 4.40405 141.061 4.45829 141.083 6.36743C141.105 8.43929 141.05 10.522 141.029 12.5939C140.692 12.8433 140.714 13.2122 140.714 13.5593C140.714 26.023 140.714 38.4975 140.714 50.9612C140.811 51.6771 140.496 52.469 141.105 53.0873C141.126 62.134 141.137 71.1807 141.159 80.2275C140.768 80.477 140.713 80.8675 140.703 81.2797C140.724 92.0837 140.735 102.899 140.735 113.724Z" fill="white" fill-opacity="0.2"/>
<path d="M100.763 183.094C103.099 183.137 105.445 183.202 107.781 183.202C117.777 183.213 127.773 183.213 137.78 183.202C138.856 183.202 139.942 183.126 141.018 183.083C141.072 183.506 140.866 183.777 140.453 183.809C139.833 183.864 139.203 183.896 138.573 183.896C126.784 183.896 115.007 183.918 103.218 183.875C102.371 183.885 101.208 184.449 100.763 183.094Z" fill="white" fill-opacity="0.2"/>
<path d="M100.621 16.9003C101.197 17.4969 101.002 18.2562 101.002 18.9504C101.013 29.4399 101.013 39.9402 101.002 50.4296C101.002 51.1239 101.186 51.8832 100.611 52.4798C100.621 40.6127 100.621 28.7565 100.621 16.9003Z" fill="white" fill-opacity="0.2"/>
<path d="M100.491 53.6622C100.23 53.6296 100.046 53.5103 100.035 53.2174C100.209 53.174 100.393 53.1632 100.578 53.1849C100.567 53.3476 100.534 53.5103 100.491 53.6622Z" fill="white" fill-opacity="0.2"/>
<path d="M140.713 50.9503C140.713 38.4866 140.713 26.0121 140.713 13.5484C141.594 14.3511 141.235 15.4033 141.235 16.3579C141.268 27.8779 141.257 39.4087 141.257 50.9395C141.072 50.9286 140.898 50.9286 140.713 50.9503Z" fill="white" fill-opacity="0.2"/>
<path d="M140.735 113.724C140.724 102.909 140.713 92.0946 140.703 81.2797C141.409 81.8112 141.213 82.5705 141.213 83.2756C141.213 92.7563 141.213 102.237 141.202 111.707C141.213 112.401 141.409 113.171 140.735 113.724Z" fill="white" fill-opacity="0.2"/>
<path d="M140.713 50.9503C140.898 50.9395 141.072 50.9286 141.257 50.9395C141.452 51.1347 141.648 51.33 141.843 51.5144C141.865 52.1652 141.626 52.6859 141.105 53.0764C140.496 52.4581 140.811 51.6662 140.713 50.9503Z" fill="white" fill-opacity="0.2"/>
</svg>
