<svg width="48" height="48" viewBox="0 0 48 48" fill="none" xmlns="http://www.w3.org/2000/svg">
<path d="M34.5 14C34.5 13.6022 34.342 13.2206 34.0607 12.9393C33.7794 12.658 33.3978 12.5 33 12.5C32.6022 12.5 32.2206 12.658 31.9393 12.9393C31.658 13.2206 31.5 13.6022 31.5 14V16.5H29C28.6022 16.5 28.2206 16.658 27.9393 16.9393C27.658 17.2206 27.5 17.6022 27.5 18C27.5 18.3978 27.658 18.7794 27.9393 19.0607C28.2206 19.342 28.6022 19.5 29 19.5H31.5V22C31.5 22.3978 31.658 22.7794 31.9393 23.0607C32.2206 23.342 32.6022 23.5 33 23.5C33.3978 23.5 33.7794 23.342 34.0607 23.0607C34.342 22.7794 34.5 22.3978 34.5 22V19.5H37C37.3978 19.5 37.7794 19.342 38.0607 19.0607C38.342 18.7794 38.5 18.3978 38.5 18C38.5 17.6022 38.342 17.2206 38.0607 16.9393C37.7794 16.658 37.3978 16.5 37 16.5H34.5V14Z" fill="#0CAC41"/>
<path fill-rule="evenodd" clip-rule="evenodd" d="M45.5 18.6361C45.5 11.9841 42.536 7.02005 37.92 5.21405C33.65 3.54005 28.524 4.79205 24 9.02605C19.476 4.79205 14.35 3.54005 10.08 5.21405C5.464 7.02005 2.5 11.9841 2.5 18.6341C2.5 22.8721 4.76 27.0401 7.574 30.6281C10.418 34.2541 13.994 37.5 16.978 39.9221L17.246 40.142C19.646 42.092 21.382 43.502 24 43.502C26.62 43.502 28.352 42.092 30.754 40.142L31.022 39.9221C34.006 37.5021 37.582 34.2541 40.426 30.6281C43.24 27.0401 45.5 22.8721 45.5 18.6361ZM25.096 12.1741C29.32 7.65605 33.698 6.78205 36.828 8.00605C39.964 9.23405 42.5 12.8261 42.5 18.6361C42.5 21.8581 40.74 25.364 38.064 28.7761C35.416 32.1561 32.032 35.2401 29.132 37.5941C26.346 39.854 25.446 40.5 24 40.5C22.554 40.5 21.654 39.854 18.868 37.592C15.968 35.24 12.584 32.1541 9.936 28.7781C7.258 25.3641 5.5 21.8581 5.5 18.6361C5.5 12.8261 8.036 9.23605 11.172 8.00605C14.302 6.78205 18.68 7.65605 22.904 12.1741C23.0443 12.3242 23.214 12.444 23.4026 12.5258C23.5911 12.6077 23.7945 12.65 24 12.65C24.2055 12.65 24.4089 12.6077 24.5974 12.5258C24.786 12.444 24.9557 12.3242 25.096 12.1741Z" fill="#0CAC41"/>
</svg>
