<svg width="397" height="307" viewBox="0 0 397 307" fill="none" xmlns="http://www.w3.org/2000/svg">
<g clip-path="url(#clip0_2976_6429)">
<path d="M294.152 193.987C291.451 195.667 289.103 197.771 287.058 200.209C284.162 203.66 281.96 207.532 280.254 211.683C277.265 218.949 275.21 226.491 273.77 234.204C271.761 244.952 270.701 255.823 269.629 266.691C269.549 267.503 269.432 268.31 269.314 269.269C267.277 270.4 265.368 271.98 263.197 272.549C259.404 273.545 255.975 275.104 252.737 277.233C248.071 280.302 243.064 282.696 237.895 284.788C232.577 286.941 227.088 288.699 222.01 291.534C218.203 289.27 214.512 286.708 210.512 284.794C206.462 282.857 202.104 281.561 197.708 279.918C198.165 279.389 198.493 278.972 198.857 278.591C202.246 275.047 204.009 270.785 203.945 265.924C203.91 263.2 203.513 260.439 202.926 257.774C201.01 249.088 199.797 240.347 199.91 231.428C199.999 224.496 200.915 217.741 203.484 211.258C204.04 209.855 204.611 208.445 204.996 206.99C205.927 203.479 206.761 199.943 207.601 196.409C207.682 196.075 207.54 195.689 207.5 195.327C207.313 195.294 207.124 195.261 206.936 195.228C206.232 197.216 206.141 199.388 205.515 201.402C204.862 203.499 204.207 205.597 203.465 207.662C202.74 209.68 200.32 216.853 200.32 216.853C200.32 216.853 200.744 213.552 200.559 213.502C200.995 207.485 201.432 201.468 203.354 195.436C202.067 195.727 202.06 196.582 201.879 197.233C199.879 204.355 198.899 211.608 199.088 219.014C199.127 220.519 199.113 222.037 198.956 223.531C198.285 229.979 198.194 236.438 198.975 242.863C199.578 247.833 200.614 252.748 201.393 257.698C201.797 260.272 202.229 262.86 202.343 265.454C202.52 269.491 201.36 273.192 198.839 276.407C198.573 276.747 195.817 279.387 195.817 279.387C195.817 279.387 197.869 276.419 198.027 276.071C199.599 272.574 199.92 268.916 199.337 265.176C198.468 259.604 195.368 255.802 190.074 253.818C189.382 253.558 188.68 253.325 188.029 253.094C187.996 252.715 187.926 252.499 187.973 252.315C188.128 251.718 188.307 251.126 188.511 250.543C191.891 240.891 193.646 230.911 194.532 220.752C195.014 215.212 195.448 209.665 196.134 204.151C197.269 195.007 201.459 187.531 208.708 181.761C213.128 178.242 217.746 175.052 222.756 172.439C223.135 172.241 223.565 172.142 224.414 171.839C223.775 172.884 223.357 173.502 223.005 174.155C220.169 179.408 217.322 184.657 214.533 189.936C214.04 190.87 213.797 191.935 213.445 192.926C215.773 194.538 218.531 194.492 220.714 196.159C220.185 196.749 219.74 197.249 219.289 197.744C217.489 199.726 215.709 201.727 213.878 203.681C211.262 206.473 210.609 209.498 212.197 213.119C214.457 218.273 216.566 223.496 218.597 228.747C220.082 232.584 221.54 236.452 222.651 240.409C224.651 247.528 225.271 254.833 225.083 262.231C224.91 269.027 224.937 275.83 224.906 282.628C224.902 283.388 224.665 284.268 225.45 284.882C226.589 284.54 226.224 283.648 226.239 282.98C226.5 270.826 226.723 258.672 226.985 246.519C227.366 228.801 228.004 211.091 229.961 193.468C230.459 188.982 231.553 184.56 232.406 180.115C232.517 179.534 234.567 172.921 234.567 172.921C234.567 172.921 233.438 180.751 233.57 181.833C234.161 186.688 237.096 189.876 241.871 190.808C245.441 191.504 248.839 190.925 252.034 189.198C254.533 187.849 256.722 186.095 258.657 184.018C259.122 183.517 263.376 177.244 263.376 177.244C263.376 177.244 259.829 184.642 259.448 185.506C257.229 190.529 255.097 195.597 252.743 200.557C248.143 210.242 244.005 220.113 240.456 230.229C237.69 238.113 235.838 246.201 235.506 254.574C235.166 263.152 234.962 271.735 234.709 280.318C234.69 280.934 234.67 281.565 234.783 282.164C234.843 282.478 235.193 282.733 235.453 283.065C236.13 281.971 236.085 281.969 236.147 280.697C236.431 274.938 236.497 269.153 237.098 263.427C238.252 252.453 241.743 242.241 248.269 233.25C251.371 228.976 254.743 224.894 258.109 220.822C260.863 217.49 263.742 214.254 266.659 211.06C268.67 208.859 268.754 206.545 267.442 204.05C266.612 202.469 265.677 200.946 264.836 199.372C264.451 198.651 264.045 197.896 263.885 197.109C263.528 195.358 264.686 194.105 266.457 194.352C267.46 194.492 268.461 194.834 269.397 195.24C271.283 196.062 273.117 197.006 274.985 197.872C275.78 198.241 276.575 198.743 277.696 198.168C277.811 197.787 278.034 197.291 278.108 196.773C279.022 190.387 280.048 184.014 280.765 177.607C281.208 173.659 281.189 169.659 281.344 165.682C281.428 163.522 280.773 161.676 279.117 160.161C277.395 158.587 275.799 156.878 274.163 155.211C273.801 154.842 273.5 154.41 273.057 153.866C274.155 153.359 275.084 152.957 275.99 152.506C280.518 150.247 283.774 146.96 284.813 141.794C284.942 141.145 285.554 140.539 286.065 140.038C286.493 139.616 287.107 139.387 287.626 139.053C296.442 133.401 295.567 120.338 288.601 115.545C288.166 115.246 287.805 114.834 287.408 114.469C287.597 113.558 287.766 112.757 287.929 111.951C288.664 108.322 288.687 104.716 287.501 101.165C286.279 97.5057 283.727 95.3688 279.949 94.6784C279.288 94.5568 278.625 94.4641 278.11 94.3796C277.552 91.9727 277.236 89.708 276.495 87.5938C274.427 81.6899 268.497 78.6462 262.441 80.1959C261.994 80.3113 261.53 80.3566 261.217 80.4102C260.138 79.0357 259.254 77.7189 258.181 76.5773C254.86 73.0411 250.73 71.8501 245.997 72.6373C241.385 73.4038 238.007 76.0765 235.257 79.691C234.849 80.2268 234.462 80.777 234.017 81.387C228.964 79.9321 224.294 80.5359 220.006 83.5053C215.715 86.4789 213.128 90.5261 212.479 95.581C211.816 96.1765 211.293 96.6196 210.8 97.0936C205.871 101.819 203.298 107.533 203.71 114.424C204.044 119.984 206.359 124.466 211.239 127.392C212.222 127.981 213.35 128.325 214.539 128.839C214.679 129.677 214.875 130.543 214.961 131.419C215.847 140.372 218.193 148.974 221.425 157.328C222.506 160.126 224.035 162.755 225.427 165.426C225.825 166.189 226.467 166.823 226.958 167.466C226.187 168.812 226.179 168.799 225.061 169.395C218.867 172.692 212.914 176.333 207.515 180.873C200.726 186.579 196.328 193.641 194.888 202.428C194.357 205.674 194.103 208.964 193.697 212.231C193.607 212.956 193.366 219.837 193.366 219.837C193.366 219.837 192.595 213.03 192.527 212.358C192.21 209.286 191.8 206.213 191.669 203.133C191.205 192.429 190.791 181.724 190.451 171.017C190.076 159.141 189.769 147.265 188.356 135.449C187.096 124.917 184.632 120.767 175.711 115.061C169.122 110.845 161.982 107.887 154.287 106.344C153.607 106.208 152.95 105.967 152.126 105.732C158.569 97.4913 163.224 88.721 165.667 78.8235C166.312 78.6854 166.967 78.5473 167.593 78.4134C168.335 77.0966 167.682 76.0765 167.058 75.1121C165.772 73.1256 165.939 71.2298 166.806 69.0661C168.209 65.5711 169.494 61.9958 170.419 58.3505C171.764 53.0421 171.626 47.7008 169.336 42.613C168.611 41.0036 167.554 39.5322 166.565 38.0547C166.223 37.5416 165.748 36.9007 164.66 37.4138C165.634 39.0933 166.709 40.645 167.472 42.3389C168.254 44.0781 168.94 45.9162 169.284 47.7812C169.628 49.6502 169.645 51.6141 169.536 53.5202C169.424 55.4284 169.078 57.3387 168.654 59.2057C168.242 61.0191 167.906 62.8902 166.73 64.5037C166.532 63.8381 166.538 63.189 166.53 62.544C166.501 60.4153 166.631 58.2701 166.396 56.1641C166.1 53.514 165.531 50.8908 165.018 48.2696C164.897 47.6534 164.761 46.9013 163.671 46.6519C163.71 47.2928 163.694 47.8018 163.782 48.2902C164.015 49.5719 164.349 50.8372 164.549 52.1251C165.35 57.3201 165.171 62.5316 164.792 67.7472C164.582 70.659 164.058 73.5934 165.41 76.4743C164.753 76.2435 164.242 75.9447 163.758 75.6108C162.569 74.7948 161.416 73.9272 160.207 73.1421C156.534 70.762 153.794 70.9063 150.554 73.5481C148.867 73.3812 147.244 73.2225 145.648 73.0638C145.571 72.9773 145.516 72.9319 145.483 72.8742C145.382 72.697 145.254 72.5239 145.201 72.3323C144.471 69.6678 142.453 68.6766 139.971 68.4417C138.755 68.3263 137.478 68.3613 136.284 68.6024C133.876 69.0867 131.507 69.7564 128.955 70.3932C125.836 69.4885 120.408 66.1502 119.127 64.2585C119.28 63.9143 119.428 63.5331 119.615 63.1704C121.138 60.2195 123.043 57.5489 125.414 55.212C125.834 54.7978 126.567 54.4455 126.098 53.4089C124.12 54.6598 122.645 56.2671 121.294 57.9713C119.939 59.6817 118.701 61.4848 117.352 63.3291C116.07 62.7026 114.857 62.1112 113.627 61.5095C113.3 61.0046 113.014 60.4441 112.62 59.9764C111.269 58.3773 109.621 57.2274 107.433 57.7405C105.223 58.2598 104.576 60.1 104.302 62.1133C104.276 62.3173 104.23 62.5213 104.224 62.7253C104.055 67.4999 104.824 72.1654 105.981 76.7648C106.418 78.504 107.596 79.7693 109.394 80.3339C109.775 80.4535 110.136 80.6369 110.75 80.8924C110.653 82.4338 110.558 83.969 110.463 85.5042C104.801 88.1419 101.827 92.7991 99.6307 98.1569C96.0425 106.911 94.2978 116.033 94.0959 125.457C93.8529 136.832 95.7871 147.886 99.2476 158.694C99.4701 159.39 99.6534 160.099 99.847 160.767C99.2456 161.22 98.8027 161.54 98.3742 161.88C94.3781 165.045 93.6016 170.891 96.6295 174.998C99.227 178.52 104.024 179.622 107.858 177.518C110.943 175.824 112.54 173.143 112.665 169.646C112.795 165.962 111.176 163.149 108.082 161.214C107.044 160.565 105.882 160.11 104.502 159.432C99.4103 143.741 96.9159 127.705 100.537 111.088C107.349 134.563 118.254 155.912 132.982 175.142C132.273 177.09 131.476 178.922 130.942 180.828C129.927 184.461 130.197 188.191 130.473 191.89C130.831 196.683 131.344 201.466 131.7 206.259C132.39 215.522 132.335 224.789 131.597 234.047C131.546 234.694 131.377 235.331 131.231 236.157C128.433 235.44 126.304 236.631 124.271 237.919C121.955 239.386 119.751 241.029 117.502 242.599C117.012 242.941 116.526 243.289 116.056 243.621C115.603 243.401 115.296 243.256 114.993 243.102C108.163 239.574 101.388 235.935 94.4853 232.561C90.7363 230.727 86.8432 229.114 82.8801 227.809C76.8736 225.831 70.828 226.013 65.013 228.708C63.4723 229.423 62.0572 230.42 60.6318 231.362C60.3619 231.541 60.3249 232.071 60.1807 232.44C60.3001 232.535 60.4196 232.629 60.537 232.724C61.1673 232.355 61.7976 231.987 62.43 231.62C67.4086 228.743 72.721 227.581 78.4576 228.372C81.7637 228.827 84.8864 229.868 87.8608 231.288C95.4163 234.896 102.916 238.622 110.435 242.306C111.259 242.71 112.064 243.151 113.147 243.718C110.904 244.639 109.981 246.257 109.627 248.194C106.272 247.877 104.278 248.967 102.84 251.862C102.475 252.596 102.158 253.372 101.965 254.166C100.677 259.433 101.126 264.517 103.643 269.376C105.781 273.505 110.352 276.704 116.103 275.119C118.517 276.796 121.438 276.819 124.361 277C124.876 277.862 125.403 278.663 125.85 279.508C128.073 283.693 130.279 287.887 132.481 292.08C134.813 296.517 137.136 300.96 139.462 305.401C141.427 309.155 144.42 311.111 148.764 310.967C151.644 310.87 154.532 310.967 157.413 311.039C164.893 311.226 172.372 311.461 179.851 311.645C181.841 311.694 183.567 312.422 185.285 313.345C187.944 314.773 190.667 316.081 193.362 317.446C196.806 319.191 200.462 319.589 204.194 318.888C208.576 318.066 212.912 317.015 217.279 316.11C219.483 315.655 221.709 315.304 223.637 314.958C224.853 315.78 225.679 316.605 226.673 316.967C230.276 318.28 233.897 319.345 237.869 319.073C244.388 318.628 250.848 317.792 257.266 316.65C265.038 315.269 272.808 313.753 280.081 310.565C284.283 308.723 288.31 306.476 292.397 304.375C292.996 304.065 293.812 303.789 293.662 302.497C292.928 302.73 292.281 302.852 291.715 303.134C290.426 303.777 289.179 304.506 287.908 305.184C282.382 308.137 276.662 310.6 270.577 312.185C259.518 315.065 248.314 316.988 236.878 317.433C236.173 317.46 235.395 317.738 234.913 317.283C236.027 315.014 237.348 312.964 238.073 310.721C239.714 305.634 239.28 300.542 237.269 295.606C236.18 292.929 234.585 290.657 231.78 289.49C231.632 289.428 231.557 289.185 231.395 288.95C231.759 288.787 232.056 288.633 232.367 288.52C240.514 285.55 248.462 282.175 255.662 277.243C256.339 276.78 257.04 276.293 257.802 276.015C259.66 275.339 261.52 274.507 263.45 274.223C270.939 273.122 277.411 275.381 282.847 280.617C285.855 283.514 288.057 286.976 289.812 290.745C290.108 291.384 290.22 292.225 291.175 292.313C291.633 290.97 291.61 290.896 290.294 288.344C285.468 278.989 278.328 272.941 266.855 272.541C267.594 271.976 267.86 271.694 268.188 271.535C271.891 269.714 275.669 268.082 279.704 267.128C283.605 266.206 287.538 265.673 291.538 266.398C292.615 266.594 293.67 266.915 294.745 267.14C295.373 267.27 296.006 267.305 296.047 266.136C287.426 262.786 279.29 265.409 271.063 268.382C271.063 267.566 271.012 266.967 271.071 266.375C271.518 262.003 271.945 257.628 272.46 253.263C273.745 242.344 275.438 231.498 278.54 220.916C280.487 214.281 283.002 207.928 287.218 202.368C289.824 198.931 292.904 196.04 296.856 194.185C297.104 194.07 297.454 193.987 297.559 193.787C297.728 193.462 297.732 193.05 297.909 192.151C296.321 192.918 295.173 193.351 294.152 193.987ZM263.265 173.535C261.112 178.761 258.14 183.387 253.332 186.616C250.594 188.454 247.692 189.676 244.308 189.58C238.47 189.413 234.655 185.51 234.865 179.676C234.933 177.788 235.333 175.913 235.582 174.032C235.737 174.019 235.912 171.175 235.912 171.175C235.912 171.175 236.456 174.743 236.639 175.128C237.022 175.932 237.317 176.787 237.778 177.541C240.672 182.287 245.562 183.735 250.578 181.351C253.212 180.098 255.542 178.373 257.505 176.251C259.689 173.889 261.664 171.338 263.716 168.857C264.144 168.34 267.228 161.993 267.228 161.993C267.228 161.993 264.09 171.532 263.265 173.535ZM277.444 160.495C279.23 162.106 279.976 164.006 279.836 166.343C279.531 171.412 279.391 176.496 278.888 181.545C278.439 186.045 277.599 190.509 276.913 194.985C276.833 195.514 276.645 196.029 276.468 196.71C275.871 196.495 275.364 196.355 274.892 196.135C273.275 195.382 271.685 194.566 270.054 193.845C269.117 193.431 268.14 193.05 267.143 192.842C263.922 192.166 261.678 194.416 262.474 197.606C262.78 198.842 263.468 199.996 264.07 201.144C264.834 202.601 265.718 203.994 266.488 205.447C267.318 207.013 267.114 208.437 265.893 209.791C262.904 213.104 259.901 216.41 257.038 219.83C253.781 223.723 250.582 227.673 247.515 231.717C243.062 237.583 240.104 244.211 238.05 251.258C237.867 251.889 236.241 259.622 236.241 259.622C236.241 259.622 237.356 249.331 237.599 247.506C238.719 239.131 241.634 231.28 244.561 223.426C248.259 213.504 252.895 203.998 257.194 194.342C260.541 186.822 264.072 179.354 266.253 171.377C267.121 168.206 267.741 164.958 268.319 161.719C268.789 159.083 269.024 156.406 268.501 153.728C268.431 153.365 268.521 152.971 268.558 152.124C269.72 153.095 270.635 153.769 271.442 154.554C273.463 156.516 275.358 158.611 277.444 160.495ZM213.781 120.301C213.83 121.875 214.047 123.446 214.164 125.02C214.203 125.554 214.17 126.094 214.17 126.817C213.657 126.706 213.186 126.695 212.803 126.508C208.201 124.249 205.853 120.369 205.274 115.438C204.411 108.106 207.154 102.146 212.632 97.347C212.938 97.0771 213.268 96.8318 213.696 96.4856C214.047 91.3689 216.819 87.5835 220.902 84.6696C225.092 81.6775 229.714 81.5683 234.682 83.087C235.333 82.1783 235.961 81.3087 236.583 80.4349C239.517 76.3032 243.457 74.0653 248.572 73.8902C252.539 73.7562 255.622 75.3574 257.981 78.4525C258.807 79.5365 259.501 80.7214 260.362 82.0237C261.065 81.8836 261.79 81.7847 262.492 81.593C268.117 80.0578 273.646 82.9428 275.411 88.4984C275.988 90.3139 276.171 92.2551 276.528 94.1385C276.614 94.6001 276.68 95.0658 276.785 95.7108C277.535 95.8283 278.254 95.9725 278.981 96.0508C282.922 96.4753 285.26 98.3691 286.37 102.171C287.336 105.483 287.214 108.823 286.409 112.151C286.201 113.014 285.943 113.866 285.647 114.943C286.252 115.417 286.876 115.914 287.511 116.402C292.928 120.573 294.329 128.262 290.71 133.943C289.616 135.661 288.121 136.951 286.413 138.017C285.544 138.559 284.66 139.082 283.729 139.647C282.893 146.931 278.394 150.725 271.928 152.349C270.221 151.617 268.801 151.012 266.923 150.21C266.777 148.877 266.577 147.076 266.373 145.229C272.054 141.693 274.34 135.81 272.651 129.595C271.665 125.962 268.093 124.839 265.326 127.408C264.352 128.313 263.701 129.578 262.958 130.714C262.669 131.155 262.535 131.699 262.255 132.379C258.354 131.561 255.289 129.508 252.588 126.79C249.867 124.049 248.184 120.695 246.905 116.963C246.217 116.841 245.562 116.693 244.899 116.612C240.932 116.128 237.972 114.131 236.04 110.649C235.341 109.392 234.785 108.056 234.151 106.762C233.823 106.097 233.465 105.446 233.193 104.922C231.393 104.088 229.827 104.502 228.484 105.343C225.889 106.97 223.19 106.979 220.401 106.286C217.674 107.047 216.107 108.947 215.091 111.401C213.905 114.253 213.686 117.264 213.781 120.301ZM223.444 158.642C220.066 149.625 217.07 140.504 216.317 130.813C216.249 129.937 216.117 129.065 216.018 128.214C217.831 126.986 219.707 126.86 221.849 127.116C221.347 125.253 221.347 125.253 215.999 126.118C215.901 125.964 215.721 125.807 215.695 125.628C215.087 121.599 214.846 117.567 215.87 113.569C216.317 111.821 217.108 110.228 218.409 108.926C219.299 108.038 220.296 107.628 221.575 107.945C224.01 108.549 226.29 108.26 228.49 106.927C229.434 106.356 230.63 106.2 231.844 105.812C232.336 106.668 232.717 107.294 233.061 107.941C233.768 109.274 234.388 110.657 235.16 111.949C237.253 115.45 240.277 117.614 244.38 118.154C244.782 118.207 245.177 118.313 245.729 118.426C246.108 119.246 246.522 120.099 246.899 120.969C248.879 125.521 252.018 129.065 256.236 131.641C258.414 132.97 260.735 133.914 263.499 133.78C263.751 133.024 263.963 132.389 264.173 131.752C264.634 130.357 265.32 129.1 266.517 128.202C268.317 126.852 270.326 127.32 270.975 129.436C272.252 133.601 271.84 137.658 269.137 141.155C268.181 142.392 266.552 143.107 264.902 144.296C264.974 145.421 264.987 146.919 265.178 148.392C265.582 151.521 266.138 154.63 266.503 157.762C266.626 158.815 266.573 159.988 266.225 160.973C265.656 162.578 264.867 164.124 264.016 165.605C261.606 169.807 258.593 173.554 254.875 176.655C253.206 178.046 251.342 179.301 249.379 180.222C245.461 182.062 241.319 180.632 239.059 176.908C237.566 174.446 237.109 171.82 237.935 168.812C238.736 168.501 239.613 168.152 240.497 167.817C244.973 166.123 249.169 163.957 252.37 160.289C253.579 158.904 254.551 157.309 255.6 155.788C255.948 155.283 256.243 154.708 255.414 153.969C255.048 154.3 254.553 154.562 254.339 154.968C250.693 161.894 244.398 165.129 237.304 167.246C236.122 167.598 234.903 167.823 233.702 168.111C231.568 168.622 229.792 167.977 228.258 166.469C226.01 164.256 224.535 161.556 223.444 158.642ZM228.187 168.995C230.476 169.261 232.61 169.51 234.886 169.774C234.855 169.951 234.878 170.361 234.715 170.673C230.247 179.189 228.688 188.432 227.994 197.87C227.31 207.182 226.676 216.496 226.138 225.819C225.829 231.164 225.755 236.524 225.584 241.878C225.557 242.69 225.963 252.892 225.963 252.892C225.963 252.892 224.066 239.531 223.252 237.225C221.79 233.087 220.115 229.023 218.525 224.931C216.811 220.517 215.161 216.074 213.348 211.701C212.356 209.307 212.763 207.271 214.393 205.416C216.792 202.683 219.256 200.007 221.682 197.297C222.22 196.697 222.719 196.065 223.285 195.389C222.156 194.064 220.618 194.09 219.318 193.618C218.043 193.155 216.724 192.811 215.464 192.427C215.791 189.128 225.094 172.218 228.187 168.995ZM197.675 264.548C198.633 269.159 198.12 273.54 195.384 277.511C195.234 277.73 195.038 277.919 194.633 278.393C190.7 269.749 186.892 261.37 182.99 252.791C184.484 252.806 184.861 254.055 185.72 254.64C186.029 254.706 186.358 254.831 186.692 254.842C192.49 255.027 196.618 259.458 197.675 264.548ZM154.975 110.053C157.385 112.604 158.666 115.788 159.638 119.114C160.998 123.765 161.391 128.54 161.502 133.354C161.521 134.163 161.504 134.973 161.504 135.868C162.361 136.17 163.066 136.412 163.762 136.667C168.23 138.307 170.327 141.528 169.772 146.225C168.998 152.802 167.173 159.125 164.837 165.305C164.524 166.131 164.081 166.926 163.597 167.668C162.017 170.094 159.626 170.974 156.814 170.232C153.343 169.317 150.7 166.267 150.731 162.572C150.787 156.264 150.964 149.948 151.405 143.657C151.73 139.002 154.668 136.379 159.275 135.942C159.475 135.923 159.669 135.853 160.254 135.715C160.654 124.898 158.565 115.083 149.734 107.222C150.554 107.154 151.067 106.946 151.306 107.117C152.577 108.036 153.908 108.924 154.975 110.053ZM151.596 75.3388C152.278 73.8757 153.436 73.1792 155.358 73.1586C155.646 73.2163 156.262 73.2905 156.845 73.4656C159.205 74.1766 161.136 75.5861 162.849 77.3068C163.898 78.3577 164.077 79.6333 163.348 80.8965C162.009 83.221 160.19 85.0571 157.525 85.8195C154.583 86.6603 152.334 85.4527 151.401 82.5677C150.618 80.1402 150.488 77.721 151.596 75.3388ZM132.724 70.9454C134.613 70.3849 136.595 70.1397 137.579 69.9439C143.159 69.9377 144.828 72.3797 143.085 76.5958C142.179 78.7864 140.873 80.7028 138.885 82.0608C134.683 84.9272 129.993 82.949 129.093 77.9353C128.986 77.3336 128.959 76.7071 128.965 76.0951C128.996 73.1772 129.925 71.7759 132.724 70.9454ZM107.135 74.6712C106.624 71.5574 106.123 68.4376 105.812 65.3012C105.674 63.902 105.8 62.3956 106.181 61.0438C106.787 58.8904 108.63 58.4082 110.336 59.8362C110.952 60.3535 111.481 61.0294 111.891 61.7279C113.708 64.8149 114.192 68.1449 113.561 71.6564C113.362 72.7691 113.197 73.8881 113.016 75.0029L113.749 75.1183C115.481 71.5183 115.407 67.739 114.41 63.5661C115.267 64.1163 115.856 64.4955 116.495 64.9035C116.567 64.9303 116.631 64.9715 116.686 65.023C116.942 65.2126 117.172 65.4289 117.413 65.635C117.44 65.6597 117.469 65.6824 117.498 65.7051C117.506 65.7113 117.529 65.7298 117.541 65.7381C117.593 65.7751 117.642 65.8102 117.696 65.8452C117.825 65.9318 117.951 66.0183 118.077 66.111C118.32 66.2883 118.563 66.482 118.781 66.6963C121.696 68.4788 124.707 70.321 127.904 72.2766C127.83 72.7114 127.75 73.3049 127.624 73.8902C127.226 75.7427 127.299 77.5788 127.83 79.3881C129.245 84.2122 133.851 86.3079 138.43 84.208C140.832 83.1056 142.56 81.2736 143.759 78.9595C144.418 77.6901 144.918 76.3362 145.532 74.9246C146.84 74.7309 148.161 74.5207 149.499 75.3718C149.458 75.9199 149.436 76.4557 149.376 76.9874C149.166 78.8296 149.184 80.6534 149.477 82.4709C149.506 82.5492 149.537 82.6275 149.561 82.7058C149.734 83.2375 149.903 83.7712 150.14 84.2802C150.344 84.7212 150.564 85.2198 150.859 85.6176C150.89 85.6361 150.919 85.6588 150.945 85.6876C151.055 85.7721 151.147 85.8751 151.246 85.9741C151.296 86.0235 151.351 86.0668 151.401 86.1142C151.444 86.1554 151.481 86.2028 151.518 86.2523C151.553 86.277 151.584 86.3058 151.613 86.3388C153.366 87.33 155.15 87.9338 156.985 87.4763C158.649 87.06 160.227 86.2873 161.834 85.6732C161.846 85.7226 161.937 85.8751 161.896 85.972C159.44 91.7296 156.777 97.3717 152.733 102.233C150.08 105.423 146.964 108.083 143.532 110.408C141.209 111.982 138.842 112.345 136.129 111.508C127.797 108.938 121.218 104.277 117.555 96.1374C116.206 93.1391 115.133 90.0171 113.936 86.9529C113.364 85.4857 112.75 84.0329 112.245 82.5451C112.033 81.9186 112.033 81.218 111.967 80.5462C111.909 79.9671 111.895 79.384 111.864 78.8317C108.601 78.6359 107.65 77.8075 107.135 74.6712ZM110.606 89.2423C110.77 89.0404 110.91 88.8261 111.048 88.6076C111.135 88.3232 111.219 88.0389 111.31 87.7566C111.485 87.2022 111.703 86.6603 112.303 86.0647C112.56 86.7345 112.824 87.4001 113.073 88.0718C113.912 90.3221 114.703 92.5909 115.584 94.8247C119.191 103.966 125.931 109.645 135.206 112.499C136.176 112.798 137.147 113.091 138.325 113.449C137.204 116.39 136.15 118.964 133.389 120.365C131.931 121.105 130.495 121.305 129.078 120.443C120.291 115.098 111.889 109.307 106.389 100.259C106.033 99.6735 105.662 99.0821 105.415 98.4495C105.18 97.8478 105.095 97.1883 104.978 96.6979C105.013 96.6608 105.044 96.6237 105.073 96.5907C105.102 96.327 105.188 96.0756 105.32 95.818C105.503 95.4594 105.705 95.0988 105.921 94.7588C106.348 94.0891 106.871 93.4832 107.425 92.9145C107.528 92.795 107.633 92.6734 107.738 92.5539C108.072 92.1767 108.414 91.8099 108.762 91.4473C108.925 91.235 109.09 91.0228 109.26 90.8167C109.699 90.283 110.169 89.776 110.606 89.2423ZM97.2722 121.762C96.6254 132.989 98.3145 143.95 101.412 154.719C102.055 156.953 102.778 159.162 103.472 161.412C106.039 161.851 108.282 162.634 109.71 164.812C110.76 166.413 111.244 168.173 111.063 170.096C110.723 173.698 107.819 176.597 104.206 176.947C100.922 177.267 97.7522 175.206 96.6687 172.049C95.2577 167.934 96.8438 164.657 101.67 161.82C100.568 157.855 99.3691 154.061 98.469 150.198C96.5266 141.879 95.3504 133.444 95.6552 124.88C96.0054 115.042 97.9417 105.528 102.08 96.5413C103.382 93.712 105.112 91.1546 107.551 89.1537C108.142 88.6674 108.735 88.0595 109.858 88.3645C109.59 88.6962 109.475 88.9621 109.275 89.0672C106.276 90.6209 104.702 93.3513 103.411 96.2652C99.8058 104.382 97.7831 112.909 97.2722 121.762ZM131.721 171.035C123.937 160.421 117.354 149.083 111.885 137.129C107.538 127.631 103.897 117.853 101.833 107.554C101.621 106.496 101.623 105.524 101.991 104.533C102.607 102.882 103.225 101.231 103.938 99.3212C104.475 99.9662 104.824 100.292 105.065 100.683C108.233 105.841 112.336 110.136 117.106 113.824C117.967 114.49 118.76 115.244 119.582 115.959C119.121 116.326 118.567 116.637 118.227 117.103C115.883 120.32 113.58 123.569 111.283 126.821C111.098 127.083 111.04 127.437 110.896 127.825C111.92 128.288 112.346 127.577 112.752 127.011C114.031 125.224 115.251 123.396 116.523 121.603C117.148 120.724 117.84 119.893 118.487 119.058C118.763 119.238 118.966 119.306 118.969 119.384C119.057 121.288 120.209 122.45 121.65 123.505C123.976 125.21 126.246 126.99 128.499 128.789C129.404 129.51 130.205 130.363 130.973 131.083C131.562 144.797 132.143 158.344 132.739 172.22C132.285 171.697 131.976 171.386 131.721 171.035ZM132.66 133.541C132.633 132.791 132.656 132.037 132.656 131.392C135.495 127.359 139.542 124.48 141.75 119.905C144.28 122.162 145.608 125.356 147.909 127.709C148.039 127.654 148.171 127.598 148.301 127.542C148.301 127.134 148.47 126.603 148.276 126.337C145.963 123.188 143.606 120.072 141.227 116.975C141.019 116.703 140.566 116.621 139.954 116.312C139.837 117.461 139.81 118.399 139.629 119.308C139.474 120.087 139.332 120.985 138.858 121.566C136.821 124.066 134.667 126.471 132.543 128.898C132.327 129.146 132.018 129.315 131.717 129.547C128.139 126.594 124.606 123.679 121.148 120.827C120.742 119.359 120.365 117.995 119.988 116.633C120.528 116.835 121.115 116.959 121.591 117.257C123.622 118.539 125.568 119.959 127.632 121.179C131.517 123.477 135.303 122.461 137.554 118.496C138.393 117.018 138.945 115.378 139.569 113.948C142.317 112.534 145.028 111.141 147.93 109.649C148.13 110.579 148.373 111.543 148.546 112.52C150.958 126.236 148.711 139.457 144.195 152.407C142.002 158.7 139.427 164.841 135.909 170.537C135.596 171.044 135.243 171.528 134.706 172.325C134.481 171.596 134.273 171.196 134.244 170.784C134.063 168.319 133.869 165.855 133.775 163.384C133.381 153.439 133.023 143.49 132.66 133.541ZM131.878 186.804C131.76 182.876 132.652 179.189 134.619 175.752C136.698 172.119 138.805 168.495 140.692 164.761C145.656 154.933 148.762 144.5 150.447 133.636C151.467 127.062 151.022 120.484 150.323 113.915C150.187 112.631 150.033 111.349 149.879 109.977C154.993 112.095 159.418 124.507 158.614 134.316C158.021 134.549 157.337 134.819 156.651 135.089C152.806 136.601 150.344 139.272 150.109 143.509C149.778 149.538 149.52 155.576 149.421 161.614C149.351 165.871 151.077 169.199 155.216 170.955C159.148 172.622 162.792 171.491 165.002 167.86C165.286 167.392 165.562 166.91 165.768 166.403C168.384 159.949 170.351 153.305 171.13 146.375C171.75 140.854 169.54 137.524 164.341 135.561C163.962 135.418 163.599 135.231 163.035 134.975C162.934 132.723 162.989 130.582 162.709 128.484C162.256 125.092 161.745 121.69 160.962 118.362C160.108 114.729 158.495 111.395 155.566 108.629C156.035 108.516 156.223 108.405 156.371 108.444C164.893 110.688 172.805 114.168 179.676 119.823C182.772 122.37 184.719 125.564 185.707 129.405C186.947 134.221 187.434 139.15 187.642 144.086C188.268 158.972 188.754 173.863 189.312 188.753C189.635 197.4 190.047 206.04 191.341 214.609C191.596 216.298 192.134 217.941 192.464 219.622C192.672 220.682 192.935 221.788 192.839 222.841C191.943 232.658 190.06 242.267 186.496 251.499C186.399 251.749 186.282 251.99 186.068 252.474C185.365 252.068 184.756 251.681 184.115 251.353C183.507 251.042 182.871 250.788 182.129 250.459C181.936 250.147 181.666 249.754 181.437 249.34C179.567 245.95 176.675 244.382 172.831 244.357C166.036 244.314 159.24 244.176 152.445 244.151C150.873 244.145 149.535 243.788 148.2 242.935C144.181 240.361 139.763 238.665 135.206 237.307C134.681 237.151 134.164 236.969 133.649 236.78C133.53 236.736 133.439 236.613 133.163 236.382C133.163 235.857 133.122 235.183 133.169 234.517C134.123 221.12 133.773 207.755 132.32 194.408C132.046 191.89 131.954 189.343 131.878 186.804ZM145.94 243.873H136.702C139.779 241.453 142.241 241.46 145.94 243.873ZM121.103 241.791C122.005 241.171 122.942 240.6 123.842 239.978C127.006 237.789 130.265 236.765 134.024 238.62C135.585 239.391 137.353 239.745 139.324 240.386C137.311 241.548 135.67 242.498 133.867 243.541H119.403C119.35 243.421 119.294 243.3 119.24 243.18C119.86 242.714 120.464 242.23 121.103 241.791ZM122.283 275.529C119.72 275.339 117.372 274.591 116.056 272.168C114.847 269.942 113.821 267.616 112.696 265.343C112.396 264.735 112.338 263.81 110.985 264.045C111.578 267.509 113.627 270.309 114.859 273.404C113.094 274.365 112.099 274.243 111.207 272.704C110.317 271.169 109.664 269.497 108.898 267.89C108.593 267.251 108.268 266.625 107.763 265.615C106.826 267.327 107.584 268.399 107.981 269.464C108.404 270.594 108.945 271.68 109.576 273.108C108.031 272.751 107.265 271.898 106.572 271.01C103.458 267.012 102.432 262.409 102.883 257.455C103.013 256.041 103.382 254.609 103.886 253.28C104.649 251.268 105.913 249.698 108.313 249.517C108.774 249.482 109.221 249.28 109.778 249.125C114.34 257.756 118.882 266.347 123.506 275.092C123.103 275.245 122.678 275.558 122.283 275.529ZM177.017 309.827C167.41 309.631 157.805 309.341 148.198 309.26C144.661 309.23 142.432 307.709 140.865 304.649C137.27 297.622 133.571 290.646 129.89 283.663C124.159 272.794 118.406 261.939 112.672 251.071C112.288 250.345 111.895 249.601 111.675 248.82C111.143 246.941 111.885 245.735 113.767 245.294C114.229 245.185 114.717 245.148 115.193 245.152C124.87 245.262 134.545 245.352 144.222 245.511C153.623 245.665 163.022 246.012 172.423 246.034C176.496 246.045 178.974 247.835 180.572 251.396C183.61 258.159 186.754 264.875 189.804 271.632C192.573 277.763 195.267 283.924 198.013 290.065C198.612 291.407 198.997 292.756 198.623 294.446C194.575 295.083 190.7 294.879 186.865 293.982C183.726 293.249 180.622 292.373 177.489 291.613C176.426 291.355 175.33 291.198 174.24 291.102C173.499 291.038 172.722 291.069 171.993 291.215C168.59 291.893 167.315 294.358 168.582 297.556C168.048 298.26 167.54 298.93 167.018 299.618C168.78 301.774 170.598 303.517 172.636 305.042C174.582 306.499 176.516 307.968 178.762 309.662C177.913 309.745 177.464 309.837 177.017 309.827ZM220.933 313.829C216.02 314.795 211.134 315.894 206.248 316.98C201.595 318.014 197.197 317.571 192.847 315.443C185.419 311.807 178.348 307.643 171.931 302.409C171.19 301.805 170.528 301.098 169.855 300.416C169.733 300.292 169.729 300.055 169.678 299.897C170.143 299.118 170.609 299.48 171.06 299.814C172.108 300.591 173.124 301.413 174.199 302.149C180.467 306.441 187.199 309.807 194.427 312.16C195.047 312.362 195.696 312.475 196.278 312.615C196.779 311.803 196.513 311.373 195.953 311.105C195.461 310.87 194.927 310.721 194.408 310.546C186.004 307.703 178.372 303.425 171.313 298.085C170.879 297.756 170.485 297.366 170.102 296.975C169.972 296.843 169.933 296.62 169.82 296.369C170.518 295.878 170.973 296.451 171.457 296.696C175.252 298.619 178.982 300.676 182.838 302.458C187.656 304.686 192.67 306.353 198.044 306.602C199.002 306.645 199.968 306.635 200.921 306.547C201.331 306.509 201.716 306.209 202.052 306.056C201.988 305.081 201.41 305.03 200.855 305.038C190.818 305.186 182.239 300.9 173.808 296.161C172.85 295.623 171.919 295.042 170.98 294.471C170.868 294.403 170.796 294.271 170.592 294.038C171.138 292.909 172.075 292.697 173.048 292.789C174.819 292.958 176.597 293.152 178.337 293.504C180.284 293.898 182.21 294.426 184.115 294.99C189.749 296.663 195.457 296.847 201.241 296.039C202.802 295.821 204.382 295.757 205.949 295.582C206.584 295.512 207.208 295.33 207.785 295.211C207.9 293.896 207.074 293.684 206.411 293.428C204.363 292.641 202.295 291.916 200.132 291.128C198.771 288.015 197.383 284.831 195.829 281.278C196.686 281.468 197.125 281.521 197.531 281.662C199.931 282.49 202.306 283.391 204.722 284.167C208.143 285.266 211.402 286.712 214.376 288.722C217.853 291.071 221.45 293.199 225.269 294.935C226.529 295.507 227.442 296.385 227.99 297.613C230.284 302.761 229.788 307.857 227.813 312.984C225.403 313.271 223.137 313.396 220.933 313.829ZM200.682 294.436V292.742C201.475 293.111 206.232 294.436 206.232 294.436C206.232 294.436 201.541 294.275 200.682 294.436ZM233.253 292.305C233.817 292.897 234.322 293.562 234.767 294.248C238.468 299.954 238.355 308.966 234.474 314.55C233.831 315.476 232.948 316.238 232.146 317.106C230.715 316.648 229.506 316.263 228.171 315.838C228.451 315.206 228.622 314.771 228.83 314.357C231.253 309.545 231.691 304.531 230.291 299.359C229.483 296.373 227.938 293.96 224.822 292.894C224.593 292.816 224.418 292.579 224.21 292.408C226.896 289.832 230.861 289.803 233.253 292.305Z" fill="black"/>
<path d="M283.682 165.941C284.059 166.009 284.477 165.99 284.804 166.155C295.233 171.435 304.575 178.064 311.148 187.97C316.027 195.324 318.472 203.596 319.69 212.255C321.379 224.273 320.74 236.231 318.643 248.148C317.383 255.313 316.025 262.468 314.995 269.668C313.106 282.889 314.627 295.826 318.788 308.479C318.936 308.928 319.169 309.349 319.465 310.014C320.367 310.014 321.315 310.023 322.26 310.012C335.097 309.88 347.934 309.722 360.773 309.615C379.24 309.462 397.71 309.299 416.158 310.365C420.877 310.637 425.656 310.804 430.173 312.388C432.421 313.175 434.656 314.171 436.656 315.446C440.409 317.839 442.306 321.525 442.955 325.865C443.068 326.623 442.936 327.417 442.905 328.672C442.275 328.091 441.939 327.897 441.785 327.606C441.632 327.322 441.657 326.941 441.612 326.601C440.924 321.426 438.176 317.736 433.552 315.399C429.494 313.346 425.112 312.537 420.642 312.221C404.401 311.076 388.13 311.026 371.859 311.121C355.451 311.216 339.044 311.354 322.637 311.471C322.021 311.475 321.406 311.471 320.802 311.471C320.419 311.933 320.085 312.337 319.762 312.726C319.465 312.656 319.171 312.675 319.094 312.553C318.732 311.984 318.345 311.409 318.118 310.781C315.133 302.532 313.269 294.046 312.835 285.267C312.406 276.637 313.494 268.143 315.041 259.676C316.46 251.913 318.122 244.188 318.755 236.295C319.548 226.387 319.471 216.521 317.276 206.778C315.535 199.062 312.639 191.838 307.699 185.55C304.535 181.522 300.805 178.058 296.642 175.127C292.889 172.488 288.899 170.182 285.025 167.715C284.444 167.346 283.912 166.899 283.358 166.489C283.465 166.308 283.572 166.124 283.682 165.941Z" fill="black"/>
<path d="M95.2804 101.672C94.6459 102.917 93.5954 102.977 92.7406 103.29C81.5763 107.376 70.7538 112.221 60.1292 117.554C54.6644 120.297 51.2657 124.523 49.5025 130.256C47.7186 136.053 46.6846 142.008 45.8421 147.99C42.6349 170.759 41.3414 193.633 42.5402 216.609C42.7894 221.396 43.3724 226.187 44.1283 230.923C45.5023 239.516 49.624 246.64 56.1949 252.373C63.015 258.322 70.6611 263.028 78.503 267.453C84.5589 270.869 90.8641 273.728 97.4823 275.867C98.9139 276.328 100.395 276.639 101.862 276.986C103.575 277.391 105.262 277.291 106.918 276.65C107.528 276.413 108.187 276.005 108.925 276.965C108.554 277.291 108.235 277.709 107.812 277.919C105.831 278.904 103.705 279.073 101.583 278.624C99.5751 278.199 97.5668 277.682 95.6408 276.983C81.2467 271.758 68.2532 264.059 56.2217 254.639C48.0503 248.241 43.6772 239.786 42.0994 229.649C40.571 219.836 40.3712 209.959 40.3732 200.07C40.3794 183.566 41.535 167.134 43.7782 150.789C44.5341 145.285 45.5702 139.811 46.6784 134.365C47.181 131.892 48.0709 129.481 48.9566 127.105C50.6292 122.623 53.55 119.159 57.8428 116.964C61.8141 114.935 65.7937 112.913 69.829 111.019C76.9746 107.665 84.1984 104.489 91.6859 101.961C92.4646 101.697 93.2432 101.398 94.0486 101.256C94.3967 101.2 94.8025 101.499 95.2804 101.672Z" fill="black"/>
<path d="M120.035 278.195C120.678 279.413 120.258 280.143 119.98 280.866C114.196 295.895 104.115 306.472 88.5282 311.451C81.3002 313.759 73.9053 315.123 66.3828 315.873C46.39 317.868 26.3539 317.466 6.31991 316.872C-8.83846 316.423 -23.9907 315.737 -39.147 315.23C-47.3142 314.956 -55.4794 315.088 -63.6179 315.91C-67.3771 316.289 -71.1054 316.862 -74.6586 318.247C-77.6248 319.403 -80.1501 321.097 -81.555 324.073C-81.9566 324.926 -82.1482 325.884 -82.3933 326.805C-82.5643 327.452 -82.7476 328.013 -83.7096 327.786C-84.2307 326.912 -83.9485 325.987 -83.6642 325.095C-82.7744 322.304 -81.0276 320.163 -78.6217 318.527C-75.291 316.263 -71.4844 315.366 -67.6016 314.808C-56.8925 313.268 -46.1175 313.408 -35.3445 313.72C-31.2289 313.839 -27.1175 314.072 -23.004 314.212C-2.22431 314.921 18.5492 315.906 39.3515 315.648C50.4067 315.51 61.4371 315.038 72.3996 313.514C81.086 312.306 89.486 310.144 97.2619 305.934C103.097 302.775 107.936 298.493 111.806 293.109C114.703 289.08 117.133 284.787 119.034 280.198C119.282 279.609 119.605 279.055 120.035 278.195Z" fill="black"/>
<path d="M58.4689 132.14C59.6925 131.439 60.4546 131.919 61.0355 132.441C62.2529 133.533 63.4785 134.656 64.4754 135.942C66.422 138.452 67.7176 141.337 68.8979 144.277C71.7755 151.444 73.444 158.937 74.9023 166.483C78.2022 183.56 80.0499 200.806 80.7626 218.176C80.7955 219 81.2054 219.977 80.1282 220.719C79.8789 220.451 79.5164 220.22 79.4051 219.903C79.2527 219.464 79.2713 218.959 79.2465 218.479C78.4947 204.425 77.2794 190.414 75.0445 176.515C73.5634 167.306 71.7693 158.15 68.9535 149.233C67.6908 145.231 66.1748 141.333 63.8575 137.803C62.6834 136.016 61.3465 134.374 59.47 133.242C59.1137 133.03 58.8809 132.606 58.4689 132.14Z" fill="black"/>
<path d="M163.022 40.7088C162.827 40.1647 162.709 39.9772 162.699 39.7835C162.439 35.3922 160.05 32.2166 156.783 29.5996C146.461 21.3279 131.367 21.0621 120.744 28.9443C116.155 32.3485 113.409 37.0325 111.615 42.347C110.245 46.4066 109.578 50.6001 109.306 54.8657C109.265 55.5251 109.217 56.1846 109.17 56.9058C107.858 56.8048 107.899 56.0156 107.911 55.2655C107.994 50.1426 108.871 45.166 110.639 40.3481C115.673 26.6301 127.348 21.9606 137.202 21.6886C145.052 21.4722 152.085 23.807 158.171 28.8041C160.993 31.1224 163.152 33.9105 163.787 37.6486C163.964 38.6769 163.997 39.6454 163.022 40.7088Z" fill="black"/>
<path d="M298.204 296.078C298.204 295.666 298.082 295.204 298.226 294.854C298.644 293.842 299.172 292.874 299.658 291.891C303.454 284.211 305.806 276.036 307.767 267.746C311.092 253.683 313.028 239.432 313.28 224.968C313.292 224.277 312.979 223.416 314.011 222.996C314.845 223.315 314.688 224.077 314.67 224.71C314.548 228.825 314.573 232.953 314.219 237.05C313.071 250.339 310.699 263.416 307.034 276.25C305.298 282.333 303.166 288.268 300.313 293.925C299.899 294.745 299.345 295.493 298.854 296.274C298.638 296.208 298.42 296.144 298.204 296.078Z" fill="black"/>
<path d="M62.4774 263.593C63.8369 264.277 63.5465 265.252 63.5114 266.076C63.3261 270.258 63.1057 274.437 62.8853 278.616C62.3847 288.14 61.8821 297.663 61.363 307.187C61.3095 308.185 61.1385 309.176 61.0087 310.266C60.4587 310.183 60.1415 310.136 59.8593 310.095C59.538 308.76 61.396 268.448 61.9336 265.056C62.0057 264.613 62.2467 264.199 62.4774 263.593Z" fill="black"/>
<path d="M128.065 50.9584C128.736 51.1707 129.426 51.3355 130.075 51.6034C135.806 53.9732 141.742 55.1458 147.955 54.7542C148.503 54.7192 149.048 54.6574 149.592 54.5873C155.941 53.7486 159.879 50.1403 161.679 44.0675C161.929 43.2267 162.225 42.3983 162.544 41.4277C163.539 41.9573 163.486 42.6909 163.348 43.3998C162.275 48.8813 159.498 53.0212 154.124 55.1334C150.929 56.3884 147.609 56.7655 144.222 56.545C139.106 56.2132 134.197 55.0056 129.564 52.7718C128.934 52.4669 128.359 52.0465 127.758 51.6797C127.859 51.4386 127.962 51.1995 128.065 50.9584Z" fill="black"/>
<path d="M222.498 266.39C222.37 268.881 220.529 270.513 217.969 270.4C215.631 270.297 213.987 268.316 214.086 265.718C214.172 263.435 216.216 261.615 218.492 261.792C220.927 261.984 222.624 263.933 222.498 266.39ZM221.052 266.062C221.013 264.57 219.767 263.387 218.245 263.397C216.702 263.41 215.546 264.632 215.616 266.181C215.686 267.706 216.924 268.895 218.414 268.867C219.93 268.836 221.091 267.601 221.052 266.062Z" fill="black"/>
<path d="M248.427 266.268C248.44 268.626 246.668 270.416 244.295 270.445C241.863 270.474 240.046 268.768 240.017 266.429C239.988 263.995 241.861 261.974 244.153 261.965C246.549 261.955 248.413 263.832 248.427 266.268ZM244.308 263.558C242.746 263.515 241.531 264.642 241.49 266.177C241.451 267.622 242.532 268.733 244.052 268.809C245.671 268.889 246.905 267.834 246.969 266.315C247.035 264.784 245.894 263.604 244.308 263.558Z" fill="black"/>
<path d="M56.2752 226.282C59.9088 222.089 64.632 220.628 70.0535 221.071C74.3771 221.423 75.5038 221.891 76.1712 223.302C75.4297 224.009 74.7499 223.358 74.097 223.152C71.3738 222.291 68.6219 221.911 65.7752 222.338C63.0088 222.752 60.4608 223.667 58.2609 225.448C57.6986 225.903 57.0991 226.313 56.5162 226.744C56.4379 226.587 56.3576 226.435 56.2752 226.282Z" fill="black"/>
<path d="M178.605 141.594C179.126 141.652 179.382 141.681 179.851 141.732C179.899 142.561 180.033 143.364 179.975 144.154C179.538 150.107 179.184 156.071 178.578 162.007C176.811 179.286 175.072 196.565 175.247 213.966C175.318 220.902 175.528 227.834 177.392 234.589C177.425 234.713 177.379 234.857 177.363 235.131C177.169 235.259 176.91 235.434 176.558 235.669C176.308 235.329 176.014 235.094 175.944 234.806C175.433 232.673 174.819 230.55 174.524 228.384C174.117 225.396 173.812 222.38 173.721 219.367C173.392 208.445 173.771 197.538 174.722 186.655C175.727 175.171 176.893 163.701 177.931 152.219C178.203 149.215 178.257 146.19 178.422 143.175C178.44 142.707 178.525 142.243 178.605 141.594Z" fill="black"/>
<path d="M138.403 188.114C136.475 187.947 135.101 186.235 135.299 184.244C135.493 182.299 137.072 180.735 138.743 180.836C140.591 180.947 142.094 182.717 141.977 184.644C141.855 186.667 140.205 188.269 138.403 188.114ZM141.056 184.514C141.083 183.036 140.119 181.909 138.79 181.862C137.464 181.815 136.191 183.063 136.135 184.465C136.078 185.911 137.231 187.086 138.694 187.069C140.061 187.053 141.027 186.008 141.056 184.514Z" fill="black"/>
<path d="M113.59 248.159C114.126 246.766 115.098 246.887 115.934 246.879C118.474 246.858 121.014 246.891 123.552 246.922C133.023 247.034 142.494 247.143 151.963 247.271C158.756 247.361 165.55 247.522 172.345 247.563C175.266 247.582 177.371 248.816 178.673 251.361C180.016 253.988 181.279 256.657 182.515 259.338C187.028 269.122 191.516 278.919 196.011 288.713C196.066 288.833 196.066 288.977 196.12 289.253C195.899 289.457 195.628 289.713 195.267 290.048C194.962 289.729 194.661 289.535 194.532 289.261C193.436 286.97 192.359 284.67 191.302 282.362C186.956 272.877 182.62 263.385 178.28 253.898C178.109 253.523 177.929 253.152 177.75 252.781C176.551 250.306 174.574 249.125 171.826 249.102C165.169 249.047 158.511 248.952 151.856 248.868C139.777 248.713 127.698 248.556 115.621 248.389C114.991 248.377 114.363 248.249 113.59 248.159Z" fill="black"/>
<path d="M171.309 307.981C170.951 308.082 170.588 308.275 170.232 308.267C161.638 308.065 153.044 307.843 144.323 307.62C144.383 307.024 144.416 306.711 144.445 306.427C146.171 306.004 166.99 306.462 170.114 306.996C170.545 307.07 170.947 307.313 171.361 307.478C171.342 307.645 171.326 307.812 171.309 307.981Z" fill="black"/>
<path d="M250.761 95.4696C247.737 90.8 243.494 89.3679 238.408 90.4909C233.364 91.6058 230.142 94.8328 228.702 99.7022C227.691 99.7373 227.615 99.2592 227.794 98.6327C228.433 96.4093 229.541 94.433 231.203 92.8401C235.352 88.8589 240.299 88.0037 245.7 89.4771C247.803 90.052 249.48 91.4018 250.704 93.242C251.068 93.7922 251.573 94.3527 250.761 95.4696Z" fill="black"/>
<path d="M276.59 114.236C276.59 113.597 276.546 113.097 276.596 112.606C277.185 106.805 275.759 102.432 268.274 99.4857C266.877 98.9355 265.401 98.5934 263.969 98.1339C263.483 97.9773 263.017 97.7588 262.566 97.2024C262.902 97.0953 263.264 96.8418 263.567 96.9016C266.671 97.5033 269.689 98.3523 272.412 100.05C277.259 103.071 278.584 107.395 278.056 112.548C277.959 113.496 277.877 113.531 276.59 114.236Z" fill="black"/>
<path d="M253.151 106.459C255.798 106.731 257.684 107.993 259.429 109.522C261.944 111.722 263.742 114.624 263.744 116.705C263.279 116.287 262.912 116.06 262.686 115.735C261.864 114.556 261.153 113.295 260.282 112.157C258.793 110.212 256.897 108.776 254.549 107.974C254.012 107.789 253.303 107.756 253.151 106.459Z" fill="black"/>
<path d="M281.614 126.458C281.607 130.03 277.63 134.384 274.89 134.17C276.237 133.038 277.655 132.088 278.75 130.854C279.795 129.677 280.503 128.202 281.614 126.458Z" fill="black"/>
<path d="M226.348 147.725C224.412 148.499 223.602 148.295 222.873 147.078C222.123 145.823 222.07 144.454 222.399 143.088C222.671 141.957 223.071 140.854 223.435 139.748C224.404 136.807 224.636 133.844 223.79 130.831C223.681 130.442 223.648 130.027 223.617 129.624C223.608 129.518 223.753 129.405 223.876 129.22C224.9 129.187 224.96 130.071 225.139 130.73C225.87 133.432 225.922 136.16 225.217 138.874C224.908 140.065 224.434 141.215 224.068 142.392C223.866 143.043 223.621 143.71 223.592 144.38C223.54 145.542 223.88 146.55 225.157 146.979C225.501 147.088 225.788 147.364 226.348 147.725Z" fill="black"/>
<path d="M237.65 152.864C235.465 154.954 232.719 155.708 229.732 155.615C227.984 155.562 226.163 155.368 224.848 154.033C224.877 153.849 224.906 153.668 224.935 153.487C225.415 153.462 225.948 153.285 226.367 153.433C229.761 154.634 232.94 154.084 236.027 152.413C236.425 152.199 236.942 152.203 237.403 152.108C237.486 152.357 237.568 152.611 237.65 152.864Z" fill="black"/>
<path d="M233.224 126.86C232.725 125.935 233.24 125.479 233.93 125.247C236.826 124.27 239.597 124.74 242.221 126.172C242.528 126.339 242.611 126.916 242.547 127.682C241.027 127.254 239.525 126.605 237.98 126.462C236.466 126.322 234.905 126.697 233.224 126.86Z" fill="black"/>
<path d="M240.654 135.402C239.298 136.908 237.624 136.811 235.959 136.572C234.447 136.356 234.254 136.146 233.743 134.639C234.563 134.722 235.249 134.808 235.935 134.858C236.742 134.913 237.551 134.936 238.361 134.973C239.047 135.004 239.793 134.34 240.654 135.402Z" fill="black"/>
<path d="M222.48 134.666C222.48 135.152 222.48 135.589 222.48 135.985C219.878 136.898 218.537 136.543 217.738 134.666C219.264 134.666 220.729 134.666 222.48 134.666Z" fill="black"/>
<path d="M269.531 129.76C268.602 130.734 267.625 131.491 267.013 132.471C266.404 133.452 266.159 134.66 265.687 135.952C265.003 134.53 265.454 132.583 266.75 130.982C267.397 130.184 268.087 129.286 269.531 129.76Z" fill="black"/>
<path d="M147.637 97.6023C147.252 98.5296 146.55 98.7851 145.814 98.8181C145.003 98.8552 144.154 98.8304 143.374 98.6326C139.695 97.7032 136.189 96.3432 133.033 94.1918C132.634 93.9198 132.312 93.5283 131.954 93.1924C132.036 93.042 132.116 92.8936 132.199 92.7432C132.582 92.84 132.994 92.8792 133.346 93.042C135.888 94.2248 138.397 95.4818 140.964 96.609C142.02 97.0727 143.174 97.39 144.315 97.5652C145.349 97.728 146.422 97.6023 147.637 97.6023Z" fill="black"/>
<path d="M151.881 153.006C152.093 149.909 152.262 146.894 152.515 143.886C152.69 141.809 153.601 140.067 155.271 138.781C157.667 136.937 160.285 136.525 162.971 137.99C166.355 139.836 168.479 142.618 168.108 146.649C167.515 153.114 165.964 159.362 163.28 165.298C163.167 165.548 163.026 165.787 162.886 166.022C160.584 169.89 156.322 170.048 153.689 166.358C152.495 164.684 151.949 162.77 151.897 160.746C151.829 158.142 151.881 155.533 151.881 153.006ZM153.224 152.823C153.185 152.825 153.147 152.825 153.108 152.827C153.108 154.197 153.073 155.57 153.117 156.94C153.172 158.721 153.209 160.509 153.405 162.277C153.617 164.192 154.451 165.807 156.157 166.883C158.206 168.175 159.964 167.88 161.298 165.88C161.865 165.031 162.334 164.097 162.72 163.147C164.74 158.158 165.991 152.965 166.652 147.632C166.777 146.622 166.817 145.553 166.623 144.564C166.042 141.576 163.945 139.832 161.284 138.79C158.985 137.889 157.172 139.156 155.529 140.587C154.328 141.631 153.815 143.035 153.722 144.605C153.559 147.346 153.389 150.084 153.224 152.823Z" fill="black"/>
<path d="M136.034 72.936C136.034 73.6201 136.034 74.294 136.034 74.8813C134.922 75.4109 134.057 75.4067 133.562 74.465C133.361 74.0797 133.396 73.344 133.645 72.9937C134.201 72.2065 135.015 72.3095 136.034 72.936Z" fill="black"/>
<path d="M151.916 78.9099C151.553 77.8939 151.811 77.2386 152.719 77.0635C153.78 76.8595 154.357 77.4324 154.523 78.4277C153.456 79.5569 153.456 79.5569 151.916 78.9099Z" fill="black"/>
</g>
<defs>
<clipPath id="clip0_2976_6429">
<rect width="397" height="307" fill="white" transform="translate(0 -0.328125)"/>
</clipPath>
</defs>
</svg>
