<svg width="57" height="57" viewBox="0 0 57 57" fill="none" xmlns="http://www.w3.org/2000/svg">
<path d="M45.125 21.375V18.5677C45.125 14.5469 45.125 12.5353 44.5265 10.9298C44.0506 9.65377 43.3059 8.49501 42.343 7.53205C41.38 6.56908 40.2212 5.8244 38.9453 5.3485C37.3398 4.75 35.3281 4.75 31.3073 4.75C24.2701 4.75 20.7504 4.75 17.9407 5.79737C15.707 6.6299 13.6784 7.93307 11.9926 9.6185C10.3067 11.3039 9.00307 13.3322 8.17 15.5657C7.125 18.3754 7.125 21.8951 7.125 28.9323V34.9766C7.125 42.2679 7.125 45.9111 9.02025 48.4429C9.56313 49.1681 10.2069 49.8119 10.9321 50.3547C13.4639 52.25 17.1071 52.25 24.3984 52.25H34.4375" stroke="#0CAC41" stroke-width="4.125" stroke-linecap="round" stroke-linejoin="round"/>
<path d="M26.125 34.0409H28.12C29.6923 34.0409 30.4784 34.0409 31.1077 34.4565C31.7395 34.8698 32.091 35.6155 32.794 37.1046L36.575 45.125L41.8 28.5L45.581 36.5204C46.284 38.0095 46.6355 38.7553 47.2673 39.1685C47.899 39.5818 48.6827 39.5841 50.255 39.5841H52.25M7.125 28.5C7.125 26.4006 7.95899 24.3871 9.44351 22.9026C10.928 21.4181 12.9415 20.5841 15.0409 20.5841H17.6795C18.9074 20.5841 19.5201 20.5841 20.0236 20.4487C20.6951 20.2681 21.3072 19.914 21.7986 19.4221C22.2901 18.9303 22.6436 18.3178 22.8237 17.6462C22.9591 17.1427 22.9591 16.53 22.9591 15.3021V12.6659C22.9591 10.5665 23.7931 8.55302 25.2776 7.06851C26.7621 5.58399 28.7756 4.75 30.875 4.75" stroke="#0CAC41" stroke-width="4.125" stroke-linecap="round" stroke-linejoin="round"/>
</svg>
