<svg width="36" height="48" viewBox="0 0 36 48" fill="none" xmlns="http://www.w3.org/2000/svg">
<path d="M17.9998 15.8941C21.2483 13.9389 23.5284 11.8354 23.4867 9.58397C23.4867 7.60777 21.879 6 19.9028 6C19.223 6 18.5646 6.1935 17.9998 6.54766C17.4349 6.1935 16.7765 6 16.0968 6C14.1205 6 12.5128 7.60777 12.5128 9.58397C12.4979 11.6947 14.4197 13.7464 17.9998 15.8941ZM16.0968 8.10938C16.957 8.08357 17.5102 8.98976 17.9998 9.51984C18.4417 9.02421 19.1293 8.03084 19.9028 8.10938C20.7159 8.10938 21.3774 8.77087 21.3774 9.58397C21.3774 10.3157 20.7741 11.5572 17.9998 13.3955C15.2254 11.5572 14.6222 10.3157 14.6222 9.58397C14.6222 8.77087 15.2837 8.10938 16.0968 8.10938Z" fill="#233F90"/>
<path d="M30.3161 26.9335C31.8384 25.7725 32.8228 23.9403 32.8228 21.8822C32.8228 18.3807 29.9741 15.5322 26.4727 15.5322C22.9713 15.5322 20.1227 18.3808 20.1227 21.8822C20.1227 23.9402 21.107 25.7723 22.6292 26.9334C22.2569 27.0982 21.8969 27.2858 21.5513 27.4952C20.6117 26.6429 19.3655 26.123 18.0001 26.123C17.2834 26.123 16.5998 26.2669 15.9758 26.5263C15.2118 25.8224 14.3327 25.2418 13.3704 24.8157C14.893 23.6547 15.8775 21.8223 15.8775 19.7641C15.8775 16.2626 13.0288 13.4141 9.52741 13.4141C6.02599 13.4141 3.17735 16.2627 3.17735 19.7641C3.17735 21.8222 4.16173 23.6543 5.68406 24.8154C2.33951 26.2957 0 29.6456 0 33.5321V42.0004H36V35.6503C36 31.7638 33.6605 28.4139 30.3161 26.9335ZM22.232 21.8822C22.232 19.5438 24.1343 17.6415 26.4727 17.6415C28.811 17.6415 30.7133 19.5439 30.7133 21.8822C30.7133 24.2205 28.811 26.1229 26.4727 26.1229C24.1343 26.1229 22.232 24.2206 22.232 21.8822ZM21.1816 31.414C21.1816 33.1684 19.7544 34.5956 18 34.5956C16.2456 34.5956 14.8184 33.1684 14.8184 31.414C14.8184 29.6596 16.2456 28.2324 18 28.2324C19.7544 28.2324 21.1816 29.6596 21.1816 31.414ZM5.28659 19.7641C5.28659 17.4257 7.18896 15.5234 9.52734 15.5234C11.8657 15.5234 13.768 17.4257 13.768 19.7641C13.768 22.1024 11.8657 24.0047 9.52734 24.0047C7.18903 24.0047 5.28659 22.1024 5.28659 19.7641ZM11.738 39.891H2.10938V33.5321C2.10938 29.4418 5.43705 26.1141 9.52734 26.1141C11.2876 26.1141 12.9064 26.7308 14.1796 27.7591C13.2698 28.7098 12.709 29.9972 12.709 31.4139C12.709 33.0766 13.4806 34.5617 14.6837 35.5325C13.1509 36.475 12.0471 38.0499 11.738 39.891ZM13.892 39.891C14.362 38.0612 16.0256 36.705 18 36.705C19.9744 36.705 21.638 38.0612 22.108 39.891H13.892ZM33.8906 39.891H24.262C23.9529 38.0499 22.8491 36.475 21.3163 35.5325C22.5194 34.5618 23.291 33.0766 23.291 31.4139C23.291 30.6255 23.1164 29.8775 22.8059 29.2047C23.8881 28.5866 25.1396 28.2323 26.4727 28.2323C30.5629 28.2323 33.8906 31.56 33.8906 35.6503V39.891Z" fill="#233F90"/>
</svg>
