<svg width="35" height="47" viewBox="0 0 35 47" fill="none" xmlns="http://www.w3.org/2000/svg">
<path d="M34.7521 24.5603C34.6379 24.3535 34.4846 24.1724 34.3012 24.0272C34.1178 23.8821 33.908 23.7759 33.6842 23.715C32.3894 23.3775 31.0448 23.2898 29.7188 23.4564C30.5454 20.1341 30.0778 17.5176 29.6057 16.0251C29.467 15.579 29.1714 15.2019 28.7765 14.9674C28.3817 14.733 27.9157 14.658 27.4699 14.7572C25.78 15.1479 24.1876 15.8949 22.794 16.9509C21.8739 14.7573 20.4258 12.8394 18.5857 11.3775C18.2728 11.1326 17.8902 11 17.4968 11C17.1032 11 16.7206 11.1326 16.4077 11.3775C14.5676 12.8394 13.1195 14.7573 12.1994 16.9509C10.8056 15.8952 9.21337 15.1481 7.52356 14.7572C7.0777 14.658 6.61181 14.733 6.21689 14.9674C5.82196 15.2019 5.52635 15.579 5.38774 16.0251C4.91564 17.5238 4.44804 20.1402 5.27462 23.4564C3.9501 23.2904 2.60706 23.378 1.31371 23.715C1.08987 23.7759 0.880133 23.8821 0.696761 24.0272C0.51339 24.1724 0.360077 24.3535 0.245806 24.5603C0.124637 24.7739 0.046217 25.0102 0.0151373 25.2553C-0.0159423 25.5004 0.000944863 25.7494 0.0648031 25.9878C0.553505 27.8455 2.05581 31.377 6.62911 34.1807C11.2024 36.9845 15.3066 37 17.5012 37C19.6958 37 23.7775 37 28.3719 34.1807C32.9663 31.3615 34.4474 27.844 34.9362 25.9878C34.9996 25.7492 35.016 25.5001 34.9843 25.255C34.9527 25.0099 34.8738 24.7736 34.7521 24.5603ZM27.7278 15.9617C27.8825 15.9287 28.0437 15.9564 28.1796 16.0392C28.3155 16.122 28.4163 16.2539 28.4623 16.4091C29.0657 18.3443 29.669 22.3464 26.8379 27.4012C25.2617 30.2174 23.0504 32.3864 21.0896 33.8169C22.6296 31.7361 24.1379 28.5221 24.1379 23.8698C24.1537 21.9231 23.854 19.9872 23.251 18.1415C24.5688 17.0856 26.0975 16.3413 27.7278 15.9617ZM6.54012 16.4091C6.58733 16.2552 6.68875 16.1248 6.82457 16.0435C6.9604 15.9622 7.12086 15.9358 7.27472 15.9694C8.90438 16.3467 10.433 17.0883 11.7514 18.1415C11.1484 19.9872 10.8487 21.9231 10.8645 23.8698C10.8645 28.5221 12.3729 31.7377 13.9129 33.8138C11.952 32.3833 9.74084 30.2143 8.16463 27.3981C5.33193 22.3386 5.93074 18.3366 6.54012 16.4091ZM7.25206 33.1296C3.04378 30.5487 1.67119 27.3517 1.23377 25.675C1.21151 25.5942 1.20552 25.5095 1.21615 25.4262C1.22678 25.3429 1.25382 25.2626 1.29561 25.1904C1.33087 25.1252 1.37855 25.0678 1.43581 25.0218C1.49307 24.9758 1.55875 24.942 1.62895 24.9226C2.94765 24.5828 4.32101 24.5301 5.66076 24.7677C6.04634 25.8959 6.53417 26.9843 7.11777 28.0189C9.12087 31.5953 12.0441 34.1606 14.3986 35.6221C11.8676 35.33 9.42892 34.4758 7.25206 33.1187V33.1296ZM17.5088 35.6592C16.5258 34.9567 15.6564 34.0999 14.9326 33.1202C13.032 30.5874 12.0712 27.4786 12.0712 23.8698C12.0712 17.0191 15.6143 13.5357 17.1377 12.3575C17.2424 12.2764 17.37 12.2324 17.5012 12.2324C17.6324 12.2324 17.76 12.2764 17.8648 12.3575C19.3881 13.5357 22.9312 17.0191 22.9312 23.8698C22.9312 27.4786 21.9704 30.5874 20.0775 33.1094C19.3536 34.089 18.4842 34.9458 17.5012 35.6484L17.5088 35.6592ZM33.7762 25.675C33.3358 27.3517 31.9662 30.5487 27.7579 33.1296C25.5808 34.4856 23.1422 35.3387 20.6114 35.6298C22.966 34.1683 25.8907 31.6045 27.8922 28.0267C28.4759 26.9921 28.9637 25.9036 29.3492 24.7755C30.6889 24.5372 32.0625 24.5898 33.3811 24.9303C33.4513 24.9498 33.5169 24.9835 33.5742 25.0295C33.6315 25.0756 33.6792 25.1329 33.7144 25.1982C33.7913 25.3401 33.8109 25.5075 33.7687 25.6642L33.7762 25.675Z" fill="#233F90"/>
</svg>
