<svg width="35" height="47" viewBox="0 0 35 47" fill="none" xmlns="http://www.w3.org/2000/svg">
<path d="M17.5 11.75C23.6197 11.75 27.6811 12.0978 30.2334 12.4541L31.2363 12.6064C32.5427 12.8215 33.4955 13.8253 33.7285 15.1641L33.7656 15.4365C33.9935 17.746 34.25 21.3825 34.25 26C34.25 30.6175 33.9935 34.254 33.7656 36.5635C33.6204 38.0375 32.6295 39.1642 31.2354 39.3936C28.7993 39.7955 24.4938 40.25 17.5 40.25C11.3802 40.25 7.31928 39.9022 4.7666 39.5459L3.76367 39.3936C2.45727 39.1785 1.50449 38.1747 1.27148 36.8359L1.23438 36.5635C1.00649 34.254 0.75 30.6175 0.75 26C0.75 21.3825 1.00649 17.746 1.23438 15.4365C1.3796 13.9625 2.37052 12.8358 3.76465 12.6064C6.20072 12.2045 10.5062 11.75 17.5 11.75Z" stroke="#233F90" stroke-width="1.5" stroke-linecap="round" stroke-linejoin="round"/>
<mask id="path-2-inside-1_3488_6162" fill="white">
<path d="M14.267 32.6484C14.2953 33.4392 14.7987 34.1109 15.5828 34.2167C16.0678 34.2826 16.702 34.3334 17.5003 34.3334C18.2987 34.3334 18.9328 34.2826 19.4178 34.2167C20.2012 34.1109 20.7053 33.4392 20.7345 32.6484C20.762 31.8942 20.7928 30.7942 20.8128 29.3126C22.2945 29.2926 23.3945 29.2617 24.1487 29.2342C24.9395 29.2051 25.6112 28.7009 25.717 27.9176C25.7828 27.4326 25.8337 26.7984 25.8337 26.0001C25.8337 25.2017 25.7828 24.5676 25.717 24.0826C25.6112 23.2992 24.9395 22.7951 24.1487 22.7659C23.3945 22.7384 22.2945 22.7076 20.8128 22.6876C20.7994 21.5754 20.7733 20.4633 20.7345 19.3517C20.7053 18.5609 20.2012 17.8892 19.4178 17.7834C18.782 17.7012 18.1414 17.6622 17.5003 17.6667C16.702 17.6667 16.0678 17.7176 15.5828 17.7834C14.7995 17.8892 14.2953 18.5609 14.2662 19.3517C14.2387 20.1059 14.2078 21.2059 14.1878 22.6876C12.7062 22.7076 11.6062 22.7384 10.852 22.7659C10.0612 22.7951 9.38949 23.2992 9.28366 24.0826C9.21783 24.5676 9.16699 25.2017 9.16699 26.0001C9.16699 26.7984 9.21783 27.4326 9.28366 27.9176C9.38949 28.7009 10.0612 29.2051 10.852 29.2342C11.6062 29.2617 12.7062 29.2926 14.1878 29.3126C14.2078 30.7942 14.2387 31.8942 14.2662 32.6484H14.267ZM11.4487 11.1284C11.8295 9.95589 12.4803 8.58673 12.9687 7.62673C13.367 6.84339 14.0853 6.28006 14.9553 6.16339C15.7991 6.05251 16.6493 5.99794 17.5003 6.00006C18.5378 6.00006 19.3987 6.07589 20.0445 6.16339C20.9145 6.28006 21.6328 6.84423 22.0312 7.62673C22.5195 8.58589 23.1703 9.95589 23.5512 11.1284"/>
</mask>
<path d="M14.267 32.6484L15.766 32.5947C15.7371 31.7877 15.0745 31.1484 14.267 31.1484V32.6484ZM15.5828 34.2167L15.7846 32.7304L15.7835 32.7302L15.5828 34.2167ZM19.4178 34.2167L19.217 32.7302L19.2161 32.7304L19.4178 34.2167ZM20.7345 32.6484L22.2335 32.7037L22.2335 32.7031L20.7345 32.6484ZM20.8128 29.3126L20.7926 27.8127C19.98 27.8237 19.3239 28.4797 19.313 29.2923L20.8128 29.3126ZM24.1487 29.2342L24.2033 30.7332L24.2039 30.7332L24.1487 29.2342ZM25.717 27.9176L24.2306 27.7158L24.2305 27.7167L25.717 27.9176ZM25.717 24.0826L24.2305 24.2834L24.2306 24.2843L25.717 24.0826ZM24.1487 22.7659L24.2039 21.2669L24.2033 21.2669L24.1487 22.7659ZM20.8128 22.6876L19.3129 22.7057C19.3228 23.5191 19.9792 24.1764 20.7926 24.1874L20.8128 22.6876ZM20.7345 19.3517L22.2336 19.2995L22.2335 19.2964L20.7345 19.3517ZM19.4178 17.7834L19.6187 16.2969L19.6102 16.2958L19.4178 17.7834ZM17.5003 17.6667V19.1668L17.511 19.1667L17.5003 17.6667ZM15.5828 17.7834L15.7837 19.2699L15.7846 19.2698L15.5828 17.7834ZM14.2662 19.3517L12.7672 19.2964L12.7672 19.2971L14.2662 19.3517ZM14.1878 22.6876L14.2081 24.1874C15.0207 24.1765 15.6767 23.5204 15.6877 22.7078L14.1878 22.6876ZM10.852 22.7659L10.7973 21.2669L10.7967 21.2669L10.852 22.7659ZM9.28366 24.0826L10.77 24.2843L10.7702 24.2834L9.28366 24.0826ZM9.28366 27.9176L10.7702 27.7167L10.77 27.7158L9.28366 27.9176ZM10.852 29.2342L10.7967 30.7332L10.7973 30.7332L10.852 29.2342ZM14.1878 29.3126L15.6877 29.2923C15.6767 28.4797 15.0207 27.8237 14.2081 27.8127L14.1878 29.3126ZM14.2662 32.6484L12.7672 32.7031C12.7966 33.5097 13.459 34.1484 14.2662 34.1484V32.6484ZM10.022 10.665C9.76611 11.4529 10.1974 12.2991 10.9853 12.555C11.7732 12.8109 12.6194 12.3797 12.8753 11.5918L11.4487 11.1284L10.022 10.665ZM12.9687 7.62673L14.3056 8.30681L14.3057 8.30663L12.9687 7.62673ZM14.9553 6.16339L14.7599 4.67617L14.756 4.6767L14.9553 6.16339ZM17.5003 6.00006L17.4966 7.50006H17.5003V6.00006ZM20.0445 6.16339L19.8431 7.64981L19.8451 7.65008L20.0445 6.16339ZM22.0312 7.62673L20.6944 8.30721L20.6944 8.30728L22.0312 7.62673ZM22.1245 11.5918C22.3804 12.3797 23.2266 12.8109 24.0145 12.555C24.8024 12.2991 25.2337 11.4529 24.9778 10.665L23.5512 11.1284L22.1245 11.5918ZM14.267 32.6484L12.768 32.7021C12.8172 34.077 13.7383 35.4814 15.3822 35.7032L15.5828 34.2167L15.7835 32.7302C15.7774 32.7294 15.7836 32.7296 15.7945 32.7358C15.8043 32.7414 15.8078 32.7461 15.8059 32.7438C15.8006 32.7374 15.7695 32.6918 15.766 32.5947L14.267 32.6484ZM15.5828 34.2167L15.3811 35.7031C15.9367 35.7785 16.6384 35.8334 17.5003 35.8334V34.3334V32.8334C16.7656 32.8334 16.199 32.7866 15.7846 32.7304L15.5828 34.2167ZM17.5003 34.3334V35.8334C18.3623 35.8334 19.064 35.7785 19.6196 35.7031L19.4178 34.2167L19.2161 32.7304C18.8017 32.7866 18.2351 32.8334 17.5003 32.8334V34.3334ZM19.4178 34.2167L19.6187 35.7032C21.261 35.4813 22.1828 34.0779 22.2335 32.7037L20.7345 32.6484L19.2355 32.5931C19.2319 32.6901 19.2007 32.7362 19.195 32.7433C19.1929 32.7459 19.1961 32.7414 19.2058 32.7358C19.2164 32.7298 19.2227 32.7295 19.217 32.7302L19.4178 34.2167ZM20.7345 32.6484L22.2335 32.7031C22.2614 31.9367 22.2925 30.8252 22.3127 29.3328L20.8128 29.3126L19.313 29.2923C19.2931 30.7633 19.2625 31.8518 19.2355 32.5937L20.7345 32.6484ZM20.8128 29.3126L20.8331 30.8124C22.3255 30.7923 23.437 30.7612 24.2033 30.7332L24.1487 29.2342L24.094 27.7352C23.352 27.7623 22.2635 27.7928 20.7926 27.8127L20.8128 29.3126ZM24.1487 29.2342L24.2039 30.7332C25.5782 30.6825 26.9816 29.7607 27.2035 28.1184L25.717 27.9176L24.2305 27.7167C24.2297 27.7224 24.23 27.7162 24.2361 27.7055C24.2417 27.6958 24.2462 27.6926 24.2436 27.6947C24.2365 27.7005 24.1904 27.7317 24.0934 27.7352L24.1487 29.2342ZM25.717 27.9176L27.2034 28.1193C27.2788 27.5637 27.3337 26.862 27.3337 26.0001H25.8337H24.3337C24.3337 26.7348 24.2869 27.3014 24.2306 27.7158L25.717 27.9176ZM25.8337 26.0001H27.3337C27.3337 25.1381 27.2788 24.4364 27.2034 23.8808L25.717 24.0826L24.2306 24.2843C24.2869 24.6987 24.3337 25.2653 24.3337 26.0001H25.8337ZM25.717 24.0826L27.2035 23.8817C26.9816 22.2394 25.5782 21.3176 24.2039 21.2669L24.1487 22.7659L24.0934 24.2649C24.1904 24.2684 24.2365 24.2996 24.2436 24.3054C24.2462 24.3075 24.2417 24.3043 24.2361 24.2946C24.23 24.284 24.2297 24.2777 24.2305 24.2834L25.717 24.0826ZM24.1487 22.7659L24.2033 21.2669C23.437 21.2389 22.3255 21.2078 20.8331 21.1877L20.8128 22.6876L20.7926 24.1874C22.2635 24.2073 23.352 24.2378 24.094 24.2649L24.1487 22.7659ZM20.8128 22.6876L22.3127 22.6694C22.2991 21.5458 22.2727 20.4224 22.2336 19.2995L20.7345 19.3517L19.2354 19.404C19.2738 20.5042 19.2996 21.6049 19.3129 22.7057L20.8128 22.6876ZM20.7345 19.3517L22.2335 19.2964C22.1828 17.9222 21.261 16.5188 19.6187 16.2969L19.4178 17.7834L19.217 19.2699C19.2227 19.2707 19.2164 19.2704 19.2058 19.2643C19.1961 19.2587 19.1929 19.2542 19.195 19.2568C19.2007 19.2639 19.2319 19.31 19.2355 19.407L20.7345 19.3517ZM19.4178 17.7834L19.6102 16.2958C18.9071 16.2048 18.1986 16.1617 17.4897 16.1668L17.5003 17.6667L17.511 19.1667C18.0841 19.1626 18.657 19.1975 19.2254 19.271L19.4178 17.7834ZM17.5003 17.6667V16.1667C16.6384 16.1667 15.9367 16.2216 15.3811 16.297L15.5828 17.7834L15.7846 19.2698C16.199 19.2135 16.7656 19.1667 17.5003 19.1667V17.6667ZM15.5828 17.7834L15.382 16.2969C13.7397 16.5188 12.8179 17.9222 12.7672 19.2964L14.2662 19.3517L15.7651 19.407C15.7687 19.31 15.7999 19.2639 15.8056 19.2568C15.8078 19.2542 15.8046 19.2587 15.7949 19.2643C15.7842 19.2704 15.778 19.2707 15.7837 19.2699L15.5828 17.7834ZM14.2662 19.3517L12.7672 19.2971C12.7392 20.0634 12.7081 21.1749 12.688 22.6673L14.1878 22.6876L15.6877 22.7078C15.7075 21.2369 15.7381 20.1484 15.7652 19.4064L14.2662 19.3517ZM14.1878 22.6876L14.1676 21.1877C12.6752 21.2078 11.5637 21.2389 10.7973 21.2669L10.852 22.7659L10.9067 24.2649C11.6486 24.2378 12.7371 24.2073 14.2081 24.1874L14.1878 22.6876ZM10.852 22.7659L10.7967 21.2669C9.42246 21.3176 8.01905 22.2394 7.79716 23.8817L9.28366 24.0826L10.7702 24.2834C10.7709 24.2777 10.7706 24.284 10.7645 24.2946C10.759 24.3043 10.7545 24.3075 10.7571 24.3054C10.7642 24.2996 10.8102 24.2684 10.9073 24.2649L10.852 22.7659ZM9.28366 24.0826L7.79729 23.8808C7.72187 24.4364 7.66699 25.1381 7.66699 26.0001H9.16699H10.667C10.667 25.2653 10.7138 24.6987 10.77 24.2843L9.28366 24.0826ZM9.16699 26.0001H7.66699C7.66699 26.862 7.72187 27.5637 7.79729 28.1193L9.28366 27.9176L10.77 27.7158C10.7138 27.3014 10.667 26.7348 10.667 26.0001H9.16699ZM9.28366 27.9176L7.79716 28.1184C8.01905 29.7607 9.42246 30.6825 10.7967 30.7332L10.852 29.2342L10.9073 27.7352C10.8102 27.7317 10.7642 27.7005 10.7571 27.6947C10.7545 27.6926 10.759 27.6958 10.7645 27.7055C10.7706 27.7162 10.7709 27.7224 10.7702 27.7167L9.28366 27.9176ZM10.852 29.2342L10.7973 30.7332C11.5637 30.7612 12.6752 30.7923 14.1676 30.8124L14.1878 29.3126L14.2081 27.8127C12.7371 27.7928 11.6486 27.7623 10.9067 27.7352L10.852 29.2342ZM14.1878 29.3126L12.688 29.3328C12.7081 30.8252 12.7392 31.9367 12.7672 32.7031L14.2662 32.6484L15.7652 32.5937C15.7381 31.8518 15.7075 30.7633 15.6877 29.2923L14.1878 29.3126ZM14.2662 32.6484V34.1484H14.267V32.6484V31.1484H14.2662V32.6484ZM11.4487 11.1284L12.8753 11.5918C13.2181 10.5363 13.8241 9.25348 14.3056 8.30681L12.9687 7.62673L11.6317 6.94664C11.1366 7.91997 10.4409 9.37548 10.022 10.665L11.4487 11.1284ZM12.9687 7.62673L14.3057 8.30663C14.508 7.90889 14.8306 7.69354 15.1547 7.65008L14.9553 6.16339L14.756 4.6767C13.34 4.86658 12.226 5.77789 11.6316 6.94682L12.9687 7.62673ZM14.9553 6.16339L15.1508 7.65061C15.9285 7.5484 16.7122 7.4981 17.4966 7.50005L17.5003 6.00006L17.5041 4.50006C16.5864 4.49778 15.6697 4.55662 14.7599 4.67618L14.9553 6.16339ZM17.5003 6.00006V7.50006C18.465 7.50006 19.2584 7.57059 19.8431 7.64981L20.0445 6.16339L20.2459 4.67697C19.539 4.5812 18.6107 4.50006 17.5003 4.50006V6.00006ZM20.0445 6.16339L19.8451 7.65008C20.1685 7.69346 20.4918 7.90915 20.6944 8.30721L22.0312 7.62673L23.3679 6.94624C22.7739 5.7793 21.6604 4.86666 20.2439 4.6767L20.0445 6.16339ZM22.0312 7.62673L20.6944 8.30728C21.1756 9.25237 21.7817 10.5362 22.1245 11.5918L23.5512 11.1284L24.9778 10.665C24.559 9.37559 23.8634 7.91942 23.3679 6.94617L22.0312 7.62673Z" fill="#233F90" mask="url(#path-2-inside-1_3488_6162)"/>
</svg>
