<svg width="35" height="47" viewBox="0 0 35 47" fill="none" xmlns="http://www.w3.org/2000/svg">
<path d="M0.875 41H34.125C34.3571 41 34.5796 40.9078 34.7437 40.7437C34.9078 40.5796 35 40.3571 35 40.125V19.125C35 18.8929 34.9078 18.6704 34.7437 18.5063C34.5796 18.3422 34.3571 18.25 34.125 18.25H29.75V10.375C29.75 10.1429 29.6578 9.92038 29.4937 9.75628C29.3296 9.59219 29.1071 9.5 28.875 9.5H24.5V8.625C24.5 7.92881 24.2234 7.26113 23.7312 6.76884C23.2389 6.27656 22.5712 6 21.875 6H13.125C12.4288 6 11.7611 6.27656 11.2688 6.76884C10.7766 7.26113 10.5 7.92881 10.5 8.625V9.5H6.125C5.89294 9.5 5.67038 9.59219 5.50628 9.75628C5.34219 9.92038 5.25 10.1429 5.25 10.375V18.25H0.875C0.642936 18.25 0.420376 18.3422 0.256282 18.5063C0.0921874 18.6704 0 18.8929 0 19.125V40.125C0 40.3571 0.0921874 40.5796 0.256282 40.7437C0.420376 40.9078 0.642936 41 0.875 41ZM29.75 20H33.25V39.25H29.75V20ZM20.125 39.25H14.875V33.125H20.125V39.25ZM12.25 8.625C12.25 8.39294 12.3422 8.17038 12.5063 8.00628C12.6704 7.84219 12.8929 7.75 13.125 7.75H21.875C22.1071 7.75 22.3296 7.84219 22.4937 8.00628C22.6578 8.17038 22.75 8.39294 22.75 8.625V17.375C22.75 17.6071 22.6578 17.8296 22.4937 17.9937C22.3296 18.1578 22.1071 18.25 21.875 18.25H13.125C12.8929 18.25 12.6704 18.1578 12.5063 17.9937C12.3422 17.8296 12.25 17.6071 12.25 17.375V8.625ZM7 11.25H10.5V17.375C10.5 18.0712 10.7766 18.7389 11.2688 19.2312C11.7611 19.7234 12.4288 20 13.125 20H21.875C22.5712 20 23.2389 19.7234 23.7312 19.2312C24.2234 18.7389 24.5 18.0712 24.5 17.375V11.25H28V39.25H21.875V32.25C21.875 32.0179 21.7828 31.7954 21.6187 31.6313C21.4546 31.4672 21.2321 31.375 21 31.375H14C13.7679 31.375 13.5454 31.4672 13.3813 31.6313C13.2172 31.7954 13.125 32.0179 13.125 32.25V39.25H7V11.25ZM1.75 20H5.25V39.25H1.75V20Z" fill="#233F90"/>
<path d="M14.874 13.875H16.624V15.625C16.624 15.8571 16.7162 16.0796 16.8803 16.2437C17.0444 16.4078 17.267 16.5 17.499 16.5C17.7311 16.5 17.9536 16.4078 18.1177 16.2437C18.2818 16.0796 18.374 15.8571 18.374 15.625V13.875H20.124C20.3561 13.875 20.5786 13.7828 20.7427 13.6187C20.9068 13.4546 20.999 13.2321 20.999 13C20.999 12.7679 20.9068 12.5454 20.7427 12.3813C20.5786 12.2172 20.3561 12.125 20.124 12.125H18.374V10.375C18.374 10.1429 18.2818 9.92038 18.1177 9.75628C17.9536 9.59219 17.7311 9.5 17.499 9.5C17.267 9.5 17.0444 9.59219 16.8803 9.75628C16.7162 9.92038 16.624 10.1429 16.624 10.375V12.125H14.874C14.642 12.125 14.4194 12.2172 14.2553 12.3813C14.0912 12.5454 13.999 12.7679 13.999 13C13.999 13.2321 14.0912 13.4546 14.2553 13.6187C14.4194 13.7828 14.642 13.875 14.874 13.875Z" fill="#233F90"/>
<path d="M11.375 24.375H13.125C13.3571 24.375 13.5796 24.2828 13.7437 24.1187C13.9078 23.9546 14 23.7321 14 23.5C14 23.2679 13.9078 23.0454 13.7437 22.8813C13.5796 22.7172 13.3571 22.625 13.125 22.625H11.375C11.1429 22.625 10.9204 22.7172 10.7563 22.8813C10.5922 23.0454 10.5 23.2679 10.5 23.5C10.5 23.7321 10.5922 23.9546 10.7563 24.1187C10.9204 24.2828 11.1429 24.375 11.375 24.375Z" fill="#233F90"/>
<path d="M14 27.875C14 27.6429 13.9078 27.4204 13.7437 27.2563C13.5796 27.0922 13.3571 27 13.125 27H11.375C11.1429 27 10.9204 27.0922 10.7563 27.2563C10.5922 27.4204 10.5 27.6429 10.5 27.875C10.5 28.1071 10.5922 28.3296 10.7563 28.4937C10.9204 28.6578 11.1429 28.75 11.375 28.75H13.125C13.3571 28.75 13.5796 28.6578 13.7437 28.4937C13.9078 28.3296 14 28.1071 14 27.875Z" fill="#233F90"/>
<path d="M16.625 24.375H18.375C18.6071 24.375 18.8296 24.2828 18.9937 24.1187C19.1578 23.9546 19.25 23.7321 19.25 23.5C19.25 23.2679 19.1578 23.0454 18.9937 22.8813C18.8296 22.7172 18.6071 22.625 18.375 22.625H16.625C16.3929 22.625 16.1704 22.7172 16.0063 22.8813C15.8422 23.0454 15.75 23.2679 15.75 23.5C15.75 23.7321 15.8422 23.9546 16.0063 24.1187C16.1704 24.2828 16.3929 24.375 16.625 24.375Z" fill="#233F90"/>
<path d="M16.625 28.75H18.375C18.6071 28.75 18.8296 28.6578 18.9937 28.4937C19.1578 28.3296 19.25 28.1071 19.25 27.875C19.25 27.6429 19.1578 27.4204 18.9937 27.2563C18.8296 27.0922 18.6071 27 18.375 27H16.625C16.3929 27 16.1704 27.0922 16.0063 27.2563C15.8422 27.4204 15.75 27.6429 15.75 27.875C15.75 28.1071 15.8422 28.3296 16.0063 28.4937C16.1704 28.6578 16.3929 28.75 16.625 28.75Z" fill="#233F90"/>
<path d="M21.875 24.375H23.625C23.8571 24.375 24.0796 24.2828 24.2437 24.1187C24.4078 23.9546 24.5 23.7321 24.5 23.5C24.5 23.2679 24.4078 23.0454 24.2437 22.8813C24.0796 22.7172 23.8571 22.625 23.625 22.625H21.875C21.6429 22.625 21.4204 22.7172 21.2563 22.8813C21.0922 23.0454 21 23.2679 21 23.5C21 23.7321 21.0922 23.9546 21.2563 24.1187C21.4204 24.2828 21.6429 24.375 21.875 24.375Z" fill="#233F90"/>
<path d="M21.875 28.75H23.625C23.8571 28.75 24.0796 28.6578 24.2437 28.4937C24.4078 28.3296 24.5 28.1071 24.5 27.875C24.5 27.6429 24.4078 27.4204 24.2437 27.2563C24.0796 27.0922 23.8571 27 23.625 27H21.875C21.6429 27 21.4204 27.0922 21.2563 27.2563C21.0922 27.4204 21 27.6429 21 27.875C21 28.1071 21.0922 28.3296 21.2563 28.4937C21.4204 28.6578 21.6429 28.75 21.875 28.75Z" fill="#233F90"/>
</svg>
