<svg width="50" height="50" viewBox="0 0 50 50" fill="none" xmlns="http://www.w3.org/2000/svg">
<g clip-path="url(#clip0_2476_25879)">
<path d="M43.7012 41.919C45.2962 42.7002 46.6146 43.7989 47.6562 45.2149C48.6979 46.6309 49.3571 48.2259 49.6338 50H46.9482C46.7692 49.0723 46.4355 48.2097 45.9473 47.4121C45.459 46.6146 44.8649 45.931 44.165 45.3614C43.4652 44.7917 42.6758 44.336 41.7969 43.9942C40.918 43.6524 40.0065 43.4896 39.0625 43.5059C38.1022 43.5059 37.1908 43.6687 36.3281 43.9942C35.4655 44.3197 34.6761 44.7673 33.96 45.3369C33.2438 45.9066 32.6497 46.5983 32.1777 47.4121C31.7057 48.2259 31.3721 49.0886 31.1768 50H28.4912C28.7516 48.2422 29.4027 46.6553 30.4443 45.2393C31.486 43.8233 32.8125 42.7165 34.4238 41.919C33.4961 41.1866 32.7799 40.2995 32.2754 39.2578C31.7708 38.2162 31.5104 37.1094 31.4941 35.9375C31.4941 35.2051 31.5918 34.4971 31.7871 33.8135C31.9824 33.1299 32.2754 32.487 32.666 31.8848C33.0566 31.2826 33.5205 30.7455 34.0576 30.2735C34.5947 29.8015 35.1969 29.4027 35.8643 29.0772C35.4248 28.4424 34.9202 27.8809 34.3506 27.3926C33.7809 26.9043 33.1624 26.473 32.4951 26.0987C31.8278 25.7243 31.1279 25.4558 30.3955 25.293C29.6631 25.1302 28.9062 25.0326 28.125 25C26.8229 25 25.5778 25.2523 24.3896 25.7569C23.2015 26.2614 22.168 27.002 21.2891 27.9785C21.6797 29.0365 21.875 30.127 21.875 31.25C21.875 32.7474 21.5413 34.1553 20.874 35.4737C20.2067 36.792 19.2708 37.8988 18.0664 38.794C19.1243 39.3311 20.0765 39.9903 20.9229 40.7715C21.7692 41.5528 22.5016 42.4317 23.1201 43.4082C23.7386 44.3848 24.2025 45.4265 24.5117 46.5332C24.821 47.64 24.9837 48.7956 25 50H21.875C21.875 48.7142 21.6309 47.5017 21.1426 46.3623C20.6543 45.223 19.987 44.2302 19.1406 43.3838C18.2943 42.5375 17.2933 41.862 16.1377 41.3575C14.9821 40.8529 13.7695 40.6088 12.5 40.625C11.1979 40.625 9.98535 40.8692 8.8623 41.3575C7.73926 41.8457 6.74642 42.5131 5.88379 43.3594C5.02116 44.2058 4.3457 45.2067 3.85742 46.3623C3.36914 47.5179 3.125 48.7305 3.125 50H0C0 48.8119 0.16276 47.6644 0.488281 46.5576C0.813802 45.4509 1.27767 44.4092 1.87988 43.4326C2.4821 42.4561 3.20638 41.5772 4.05273 40.7959C4.89909 40.0147 5.85938 39.3474 6.93359 38.794C5.72917 37.8988 4.79329 36.792 4.12598 35.4737C3.45866 34.1553 3.125 32.7474 3.125 31.25C3.125 29.9642 3.36914 28.7517 3.85742 27.6123C4.3457 26.473 5.01302 25.4802 5.85938 24.6338C6.70573 23.7875 7.69857 23.112 8.83789 22.6075C9.97721 22.1029 11.1979 21.8588 12.5 21.875C13.8835 21.875 15.1937 22.168 16.4307 22.7539C17.6676 23.3399 18.7419 24.1537 19.6533 25.1953C20.0765 24.7884 20.5322 24.4222 21.0205 24.0967C21.5088 23.7712 22.0215 23.4619 22.5586 23.169C21.3542 22.2738 20.4183 21.167 19.751 19.8487C19.0837 18.5303 18.75 17.1224 18.75 15.625C18.75 14.3392 18.9941 13.1267 19.4824 11.9873C19.9707 10.848 20.638 9.85517 21.4844 9.00882C22.3307 8.16247 23.3236 7.48701 24.4629 6.98245C25.6022 6.4779 26.8229 6.23375 28.125 6.25003C29.4108 6.25003 30.6234 6.49417 31.7627 6.98245C32.902 7.47073 33.8949 8.13805 34.7412 8.98441C35.5876 9.83076 36.263 10.8317 36.7676 11.9873C37.2721 13.1429 37.5163 14.3555 37.5 15.625C37.5 17.1224 37.1663 18.5303 36.499 19.8487C35.8317 21.167 34.8958 22.2738 33.6914 23.169C34.8307 23.7712 35.8561 24.5036 36.7676 25.3662C37.679 26.2289 38.4521 27.2298 39.0869 28.3692C40.1286 28.3692 41.1051 28.5645 42.0166 28.9551C42.9281 29.3457 43.7337 29.891 44.4336 30.5909C45.1335 31.2907 45.6706 32.0882 46.0449 32.9834C46.4193 33.8786 46.6146 34.8633 46.6309 35.9375C46.6309 37.1094 46.3786 38.2162 45.874 39.2578C45.3695 40.2995 44.6452 41.1866 43.7012 41.919ZM12.5 37.5C13.3626 37.5 14.1683 37.3373 14.917 37.0117C15.6657 36.6862 16.333 36.2386 16.9189 35.669C17.5049 35.0993 17.9525 34.4401 18.2617 33.6914C18.571 32.9427 18.7337 32.1289 18.75 31.25C18.75 30.3874 18.5872 29.5817 18.2617 28.833C17.9362 28.0843 17.4886 27.417 16.9189 26.8311C16.3493 26.2451 15.6901 25.7976 14.9414 25.4883C14.1927 25.1791 13.3789 25.0163 12.5 25C11.6374 25 10.8317 25.1628 10.083 25.4883C9.33431 25.8138 8.66699 26.2614 8.08105 26.8311C7.49512 27.4007 7.04753 28.0599 6.73828 28.8086C6.42904 29.5573 6.26628 30.3711 6.25 31.25C6.25 32.1127 6.41276 32.9183 6.73828 33.667C7.0638 34.4157 7.51139 35.083 8.08105 35.669C8.65072 36.2549 9.3099 36.7025 10.0586 37.0117C10.8073 37.321 11.6211 37.4838 12.5 37.5ZM21.875 15.625C21.875 16.4877 22.0378 17.2933 22.3633 18.042C22.6888 18.7907 23.1364 19.458 23.7061 20.044C24.2757 20.6299 24.9349 21.0775 25.6836 21.3867C26.4323 21.696 27.2461 21.8588 28.125 21.875C28.9876 21.875 29.7933 21.7123 30.542 21.3867C31.2907 21.0612 31.958 20.6136 32.5439 20.044C33.1299 19.4743 33.5775 18.8151 33.8867 18.0664C34.196 17.3177 34.3587 16.5039 34.375 15.625C34.375 14.7624 34.2122 13.9567 33.8867 13.208C33.5612 12.4593 33.1136 11.792 32.5439 11.2061C31.9743 10.6201 31.3151 10.1726 30.5664 9.86331C29.8177 9.55407 29.0039 9.39131 28.125 9.37503C27.2624 9.37503 26.4567 9.53779 25.708 9.86331C24.9593 10.1888 24.292 10.6364 23.7061 11.2061C23.1201 11.7757 22.6725 12.4349 22.3633 13.1836C22.054 13.9323 21.8913 14.7461 21.875 15.625ZM39.0625 31.0059C38.3789 31.0059 37.7441 31.1361 37.1582 31.3965C36.5723 31.6569 36.0514 32.0069 35.5957 32.4463C35.14 32.8858 34.7819 33.4066 34.5215 34.0088C34.2611 34.611 34.1309 35.2539 34.1309 35.9375C34.1309 36.6211 34.2611 37.2559 34.5215 37.8418C34.7819 38.4278 35.1318 38.9486 35.5713 39.4043C36.0107 39.8601 36.5316 40.2181 37.1338 40.4785C37.736 40.739 38.3789 40.8692 39.0625 40.8692C39.7461 40.8692 40.3809 40.739 40.9668 40.4785C41.5527 40.2181 42.0736 39.8682 42.5293 39.4287C42.985 38.9893 43.3431 38.4685 43.6035 37.8662C43.8639 37.264 43.9941 36.6211 43.9941 35.9375C43.9941 35.2539 43.8639 34.6192 43.6035 34.0332C43.3431 33.4473 42.9932 32.9265 42.5537 32.4707C42.1143 32.015 41.5934 31.6569 40.9912 31.3965C40.389 31.1361 39.7461 31.0059 39.0625 31.0059Z" fill="white"/>
</g>
<defs>
<clipPath id="clip0_2476_25879">
<rect width="50" height="50" fill="white"/>
</clipPath>
</defs>
</svg>
