<svg width="50" height="50" viewBox="0 0 50 50" fill="none" xmlns="http://www.w3.org/2000/svg">
<path d="M46.875 41.0156H44.9219V17.1875C44.9219 16.8767 44.7984 16.5786 44.5786 16.3589C44.3589 16.1391 44.0608 16.0156 43.75 16.0156H31.25C30.9392 16.0156 30.6411 16.1391 30.4214 16.3589C30.2016 16.5786 30.0781 16.8767 30.0781 17.1875V25.3906H19.9219V7.8125C19.9219 7.5017 19.7984 7.20363 19.5786 6.98386C19.3589 6.76409 19.0608 6.64063 18.75 6.64062H6.25C5.9392 6.64063 5.64113 6.76409 5.42136 6.98386C5.20159 7.20363 5.07812 7.5017 5.07812 7.8125V41.0156H3.125C2.8142 41.0156 2.51613 41.1391 2.29636 41.3589C2.07659 41.5786 1.95312 41.8767 1.95312 42.1875C1.95312 42.4983 2.07659 42.7964 2.29636 43.0161C2.51613 43.2359 2.8142 43.3594 3.125 43.3594H46.875C47.1858 43.3594 47.4839 43.2359 47.7036 43.0161C47.9234 42.7964 48.0469 42.4983 48.0469 42.1875C48.0469 41.8767 47.9234 41.5786 47.7036 41.3589C47.4839 41.1391 47.1858 41.0156 46.875 41.0156ZM32.4219 18.3594H42.5781V41.0156H32.4219V18.3594ZM30.0781 27.7344V41.0156H19.9219V27.7344H30.0781ZM7.42188 8.98438H17.5781V41.0156H7.42188V8.98438ZM13.6719 14.0625V17.1875C13.6719 17.4983 13.5484 17.7964 13.3286 18.0161C13.1089 18.2359 12.8108 18.3594 12.5 18.3594C12.1892 18.3594 11.8911 18.2359 11.6714 18.0161C11.4516 17.7964 11.3281 17.4983 11.3281 17.1875V14.0625C11.3281 13.7517 11.4516 13.4536 11.6714 13.2339C11.8911 13.0141 12.1892 12.8906 12.5 12.8906C12.8108 12.8906 13.1089 13.0141 13.3286 13.2339C13.5484 13.4536 13.6719 13.7517 13.6719 14.0625ZM13.6719 23.4375V26.5625C13.6719 26.8733 13.5484 27.1714 13.3286 27.3911C13.1089 27.6109 12.8108 27.7344 12.5 27.7344C12.1892 27.7344 11.8911 27.6109 11.6714 27.3911C11.4516 27.1714 11.3281 26.8733 11.3281 26.5625V23.4375C11.3281 23.1267 11.4516 22.8286 11.6714 22.6089C11.8911 22.3891 12.1892 22.2656 12.5 22.2656C12.8108 22.2656 13.1089 22.3891 13.3286 22.6089C13.5484 22.8286 13.6719 23.1267 13.6719 23.4375ZM13.6719 32.8125V35.9375C13.6719 36.2483 13.5484 36.5464 13.3286 36.7661C13.1089 36.9859 12.8108 37.1094 12.5 37.1094C12.1892 37.1094 11.8911 36.9859 11.6714 36.7661C11.4516 36.5464 11.3281 36.2483 11.3281 35.9375V32.8125C11.3281 32.5017 11.4516 32.2036 11.6714 31.9839C11.8911 31.7641 12.1892 31.6406 12.5 31.6406C12.8108 31.6406 13.1089 31.7641 13.3286 31.9839C13.5484 32.2036 13.6719 32.5017 13.6719 32.8125ZM23.8281 35.9375V32.8125C23.8281 32.5017 23.9516 32.2036 24.1714 31.9839C24.3911 31.7641 24.6892 31.6406 25 31.6406C25.3108 31.6406 25.6089 31.7641 25.8286 31.9839C26.0484 32.2036 26.1719 32.5017 26.1719 32.8125V35.9375C26.1719 36.2483 26.0484 36.5464 25.8286 36.7661C25.6089 36.9859 25.3108 37.1094 25 37.1094C24.6892 37.1094 24.3911 36.9859 24.1714 36.7661C23.9516 36.5464 23.8281 36.2483 23.8281 35.9375ZM36.3281 35.9375V32.8125C36.3281 32.5017 36.4516 32.2036 36.6714 31.9839C36.8911 31.7641 37.1892 31.6406 37.5 31.6406C37.8108 31.6406 38.1089 31.7641 38.3286 31.9839C38.5484 32.2036 38.6719 32.5017 38.6719 32.8125V35.9375C38.6719 36.2483 38.5484 36.5464 38.3286 36.7661C38.1089 36.9859 37.8108 37.1094 37.5 37.1094C37.1892 37.1094 36.8911 36.9859 36.6714 36.7661C36.4516 36.5464 36.3281 36.2483 36.3281 35.9375ZM36.3281 26.5625V23.4375C36.3281 23.1267 36.4516 22.8286 36.6714 22.6089C36.8911 22.3891 37.1892 22.2656 37.5 22.2656C37.8108 22.2656 38.1089 22.3891 38.3286 22.6089C38.5484 22.8286 38.6719 23.1267 38.6719 23.4375V26.5625C38.6719 26.8733 38.5484 27.1714 38.3286 27.3911C38.1089 27.6109 37.8108 27.7344 37.5 27.7344C37.1892 27.7344 36.8911 27.6109 36.6714 27.3911C36.4516 27.1714 36.3281 26.8733 36.3281 26.5625Z" fill="white"/>
</svg>
