<svg width="50" height="50" viewBox="0 0 50 50" fill="none" xmlns="http://www.w3.org/2000/svg">
<path d="M32.8125 15.625H26.5625V9.375H23.4375V15.625H17.1875V18.75H23.4375V25H26.5625V18.75H32.8125V15.625Z" fill="white"/>
<path d="M43.75 15.625H40.625V6.25C40.625 5.4212 40.2958 4.62634 39.7097 4.04029C39.1237 3.45424 38.3288 3.125 37.5 3.125H12.5C11.6712 3.125 10.8763 3.45424 10.2903 4.04029C9.70424 4.62634 9.375 5.4212 9.375 6.25V15.625H6.25C5.4212 15.625 4.62634 15.9542 4.04029 16.5403C3.45424 17.1263 3.125 17.9212 3.125 18.75V46.875H46.875V18.75C46.875 17.9212 46.5458 17.1263 45.9597 16.5403C45.3737 15.9542 44.5788 15.625 43.75 15.625ZM21.875 43.75V34.375H28.125V43.75H21.875ZM31.25 43.75V32.8125C31.25 32.3981 31.0854 32.0007 30.7924 31.7076C30.4993 31.4146 30.1019 31.25 29.6875 31.25H20.3125C19.8981 31.25 19.5007 31.4146 19.2076 31.7076C18.9146 32.0007 18.75 32.3981 18.75 32.8125V43.75H6.25V18.75H12.5V6.25H37.5V18.75H43.75V43.75H31.25Z" fill="white"/>
</svg>
