<svg width="681" height="681" viewBox="0 0 681 681" fill="none" xmlns="http://www.w3.org/2000/svg">
<path opacity="0.7" d="M33.8933 323.432C32.8205 343.143 33.6715 363.071 36.4274 382.664C39.1541 402.056 43.7724 421.29 50.1461 439.833C56.5199 458.375 64.7072 476.383 74.4797 493.356C84.352 510.504 95.9383 526.751 108.902 541.636C135.888 572.619 168.435 597.538 205.629 615.697C242.828 633.855 282.498 644.192 323.546 646.416C343.274 647.484 363.214 646.631 382.819 643.874C402.224 641.146 421.47 636.528 440.024 630.155C458.578 623.783 476.598 615.598 493.582 605.829C510.742 595.96 527 584.378 541.896 571.42C572.901 544.446 597.84 511.914 616.014 474.74C634.188 437.561 644.537 397.912 646.768 356.889C647.841 337.178 646.99 317.249 644.228 297.657C641.501 278.265 636.883 259.031 630.509 240.488C624.136 221.946 615.948 203.939 606.176 186.965C596.303 169.817 584.717 153.57 571.754 138.685C544.768 107.702 512.22 82.7827 475.027 64.624C437.828 46.4661 398.157 36.1294 357.11 33.9055C337.387 32.8361 317.447 33.6894 297.843 36.452C278.438 39.1799 259.192 43.798 240.638 50.1706C222.084 56.5431 204.064 64.7281 187.079 74.4972C169.919 84.3661 153.662 95.9478 138.766 108.906C107.761 135.88 82.822 168.412 64.6473 205.586C46.4734 242.765 36.125 282.414 33.894 323.437L33.8933 323.432ZM242.559 540.16C132.218 486.298 86.3085 352.757 140.223 242.472C194.132 132.189 327.759 86.2881 438.101 140.155C548.443 194.017 594.352 327.558 540.437 437.842C486.528 548.126 352.901 594.027 242.559 540.16Z" fill="url(#paint0_linear_2598_7131)"/>
<defs>
<linearGradient id="paint0_linear_2598_7131" x1="205.62" y1="23.4777" x2="532.807" y2="593.989" gradientUnits="userSpaceOnUse">
<stop stop-color="#DBDDE2" stop-opacity="0.2"/>
<stop offset="0.57133" stop-color="#7CD1E4" stop-opacity="0.5"/>
<stop offset="1" stop-color="#56C4DC" stop-opacity="0.8"/>
</linearGradient>
</defs>
</svg>
