<svg width="708" height="640" viewBox="0 0 708 640" fill="none" xmlns="http://www.w3.org/2000/svg">
<path opacity="0.7" d="M0.668039 167.833C-0.927831 196.588 0.338085 225.66 4.43731 254.243C8.49332 282.533 15.3628 310.592 24.8435 337.642C34.3243 364.692 46.5027 390.963 61.0391 415.724C75.7238 440.741 92.9581 464.442 112.241 486.156C152.382 531.355 200.795 567.709 256.12 594.199C311.452 620.689 370.461 635.768 431.518 639.013C460.863 640.572 490.523 639.327 519.685 635.305C548.548 631.325 577.176 624.588 604.775 615.292C632.374 605.995 659.178 594.055 684.442 579.803C709.967 565.406 734.15 548.51 756.307 529.607C802.426 490.256 839.522 442.798 866.556 388.567C893.589 334.328 908.982 276.488 912.301 216.641C913.897 187.886 912.631 158.814 908.523 130.232C904.467 101.942 897.598 73.8826 888.117 46.8326C878.636 19.7826 866.458 -6.48767 851.921 -31.2489C837.237 -56.2659 820.002 -79.9667 800.72 -101.681C760.578 -146.88 712.165 -183.234 656.841 -209.724C601.508 -236.214 542.5 -251.293 481.443 -254.538C452.106 -256.098 422.445 -254.853 393.285 -250.823C364.421 -246.843 335.793 -240.106 308.195 -230.81C280.596 -221.513 253.792 -209.573 228.528 -195.321C203.003 -180.924 178.82 -164.028 156.663 -145.125C110.544 -105.773 73.4479 -58.3156 46.4137 -4.08475C19.3805 50.1542 3.98751 107.994 0.669005 167.841L0.668039 167.833ZM311.052 484.003C146.922 405.428 78.6341 210.613 158.83 49.7267C239.018 -111.159 437.785 -178.12 601.916 -99.537C766.045 -20.9621 834.334 173.853 754.137 334.739C673.949 495.625 475.183 562.586 311.052 484.003Z" fill="url(#paint0_linear_3281_12575)"/>
<defs>
<linearGradient id="paint0_linear_3281_12575" x1="138.947" y1="24.1381" x2="732.146" y2="574.011" gradientUnits="userSpaceOnUse">
<stop stop-color="#DBDDE2" stop-opacity="0.2"/>
<stop offset="0.47603" stop-color="#7CD1E4" stop-opacity="0.772953"/>
<stop offset="1" stop-color="#56C4DC"/>
</linearGradient>
</defs>
</svg>
