<svg width="36" height="36" viewBox="0 0 36 36" fill="none" xmlns="http://www.w3.org/2000/svg">
<path d="M17.9988 9.89409C21.2474 7.93891 23.5274 5.83537 23.4858 3.58397C23.4857 1.60777 21.878 0 19.9018 0C19.222 0 18.5636 0.1935 17.9988 0.547664C17.4339 0.1935 16.7756 0 16.0958 0C14.1196 0 12.5118 1.60777 12.5118 3.58397C12.4969 5.69468 14.4187 7.7464 17.9988 9.89409ZM16.0958 2.10938C16.956 2.08357 17.5093 2.98976 17.9988 3.51984C18.4407 3.02421 19.1284 2.03084 19.9018 2.10938C20.7149 2.10938 21.3764 2.77087 21.3764 3.58397C21.3764 4.31571 20.7732 5.55722 17.9988 7.39554C15.2244 5.55722 14.6212 4.31571 14.6212 3.58397C14.6212 2.77087 15.2827 2.10938 16.0958 2.10938Z" fill="#233F90"/>
<path d="M30.3161 20.9331C31.8384 19.772 32.8228 17.9398 32.8228 15.8817C32.8228 12.3802 29.9741 9.53167 26.4727 9.53167C22.9713 9.53167 20.1227 12.3803 20.1227 15.8817C20.1227 17.9397 21.107 19.7718 22.6292 20.9329C22.2569 21.0977 21.8969 21.2853 21.5513 21.4947C20.6117 20.6425 19.3655 20.1225 18.0001 20.1225C17.2834 20.1225 16.5998 20.2664 15.9758 20.5258C15.2118 19.8219 14.3327 19.2413 13.3704 18.8152C14.893 17.6542 15.8775 15.8218 15.8775 13.7636C15.8775 10.2621 13.0288 7.41357 9.52741 7.41357C6.02599 7.41357 3.17735 10.2622 3.17735 13.7636C3.17735 15.8217 4.16173 17.6538 5.68406 18.815C2.33951 20.2952 0 23.6451 0 27.5316V35.9999H36V29.6498C36 25.7633 33.6605 22.4134 30.3161 20.9331ZM22.232 15.8817C22.232 13.5433 24.1343 11.641 26.4727 11.641C28.811 11.641 30.7133 13.5434 30.7133 15.8817C30.7133 18.22 28.811 20.1224 26.4727 20.1224C24.1343 20.1224 22.232 18.2201 22.232 15.8817ZM21.1816 25.4135C21.1816 27.1679 19.7544 28.5951 18 28.5951C16.2456 28.5951 14.8184 27.1679 14.8184 25.4135C14.8184 23.6591 16.2456 22.2319 18 22.2319C19.7544 22.2319 21.1816 23.6591 21.1816 25.4135ZM5.28659 13.7636C5.28659 11.4252 7.18896 9.52288 9.52734 9.52288C11.8657 9.52288 13.768 11.4253 13.768 13.7636C13.768 16.1019 11.8657 18.0043 9.52734 18.0043C7.18903 18.0043 5.28659 16.1019 5.28659 13.7636ZM11.738 33.8905H2.10938V27.5316C2.10938 23.4413 5.43705 20.1136 9.52734 20.1136C11.2876 20.1136 12.9064 20.7303 14.1796 21.7586C13.2698 22.7093 12.709 23.9967 12.709 25.4134C12.709 27.0761 13.4806 28.5613 14.6837 29.532C13.1509 30.4745 12.0471 32.0494 11.738 33.8905ZM13.892 33.8905C14.362 32.0607 16.0256 30.7045 18 30.7045C19.9744 30.7045 21.638 32.0607 22.108 33.8905H13.892ZM33.8906 33.8905H24.262C23.9529 32.0494 22.8491 30.4745 21.3163 29.532C22.5194 28.5613 23.291 27.0761 23.291 25.4134C23.291 24.625 23.1164 23.877 22.8059 23.2042C23.8881 22.5861 25.1396 22.2318 26.4727 22.2318C30.5629 22.2318 33.8906 25.5595 33.8906 29.6498V33.8905Z" fill="#233F90"/>
</svg>
