<svg width="36" height="36" viewBox="0 0 36 36" fill="none" xmlns="http://www.w3.org/2000/svg">
<path fill-rule="evenodd" clip-rule="evenodd" d="M17.8128 14.9449C17.2716 14.9449 16.7811 14.976 16.5047 15.0229L15.1502 15.251C12.0927 15.7658 9.83684 18.4438 9.83684 21.5986C9.83684 23.2404 9.02481 24.7786 7.66507 25.6946L7.51126 25.7982C7.12421 26.0589 6.70419 26.2666 6.26224 26.4155L4.50343 27.0078C3.90707 27.2087 3.26078 26.8881 3.05992 26.2916C2.85904 25.6953 3.17966 25.0491 3.77604 24.8482L5.53484 24.2557C5.7832 24.1722 6.01971 24.0553 6.23809 23.9081L6.39188 23.8045C7.11748 23.3158 7.55799 22.489 7.55799 21.5986C7.55799 17.3482 10.6004 13.7062 14.7717 13.0038L16.1239 12.7761C16.1236 12.7761 16.124 12.776 16.1239 12.7761C16.5863 12.6977 17.225 12.666 17.8128 12.666C18.4003 12.666 19.0387 12.6975 19.5013 12.776C19.5011 12.7759 19.5016 12.776 19.5013 12.776L20.8538 13.0038C25.0252 13.7062 28.0676 17.3482 28.0676 21.5986C28.0676 22.489 28.5082 23.3158 29.2338 23.8045L29.3875 23.9081C29.6058 24.0553 29.8424 24.1722 30.0908 24.2557L31.8496 24.8482C32.4459 25.0491 32.7666 25.6953 32.5657 26.2916C32.3649 26.8881 31.7186 27.2087 31.1222 27.0078L29.3634 26.4155C28.9214 26.2666 28.5013 26.0589 28.1144 25.7982L27.9605 25.6946C26.6008 24.7786 25.7888 23.2404 25.7888 21.5986C25.7888 18.4438 23.5329 15.7658 20.4754 15.251L19.1206 15.0228C18.8445 14.9759 18.3541 14.9448 17.8128 14.9449Z" fill="#233F90"/>
<path fill-rule="evenodd" clip-rule="evenodd" d="M17.8125 4.27885C16.3442 4.27885 15.1538 5.46916 15.1538 6.9375C15.1538 8.40583 16.3442 9.59615 17.8125 9.59615C19.2808 9.59615 20.4712 8.40583 20.4712 6.9375C20.4712 5.46916 19.2808 4.27885 17.8125 4.27885ZM12.875 6.9375C12.875 4.21059 15.0856 2 17.8125 2C20.5394 2 22.75 4.21059 22.75 6.9375C22.75 9.66441 20.5394 11.875 17.8125 11.875C15.0856 11.875 12.875 9.66441 12.875 6.9375Z" fill="#233F90"/>
<path fill-rule="evenodd" clip-rule="evenodd" d="M14.6984 23.497C15.2018 23.8745 15.3038 24.5887 14.9263 25.0922L13.5217 26.9649C13.5106 26.9798 13.4995 26.9944 13.4887 27.009C13.2966 27.2653 13.1456 27.4667 12.9715 27.6487C12.5433 28.0963 12.021 28.4431 11.4423 28.664C11.207 28.7538 10.9627 28.8149 10.652 28.8924C10.6344 28.8968 10.6166 28.9013 10.5985 28.9058L7.87395 29.587C7.24183 29.745 6.79838 30.313 6.79838 30.9645C6.79838 31.7487 7.43411 32.3845 8.21834 32.3845H9.25713C11.6057 32.3845 13.891 31.6227 15.7699 30.2137L18.6484 28.0547C19.1518 27.6772 19.866 27.7791 20.2436 28.2826C20.6211 28.786 20.5192 29.5002 20.0157 29.8778L18.6412 30.9086L19.3884 31.1887C20.1995 31.4929 20.5653 31.6296 20.9328 31.7446C22.0391 32.0904 23.184 32.2979 24.3414 32.3626C24.7258 32.384 25.1163 32.3845 25.9826 32.3845H27.4072C28.1914 32.3845 28.8272 31.7487 28.8272 30.9645C28.8272 30.313 28.3838 29.745 27.7516 29.587L25.5129 29.0273C25.4709 29.0168 25.4296 29.0065 25.3886 28.9963C24.666 28.8161 24.0959 28.6741 23.5863 28.3803C23.4339 28.2924 23.2873 28.1951 23.1474 28.0887C22.6789 27.7332 22.3266 27.2629 21.8802 26.6667C21.8549 26.633 21.8293 26.5988 21.8034 26.5642L20.6993 25.0922C20.3218 24.5887 20.4237 23.8745 20.9272 23.497C21.4307 23.1195 22.1449 23.2214 22.5224 23.7249L23.6264 25.1969C24.1863 25.9434 24.3428 26.1351 24.5251 26.2735C24.5887 26.3218 24.6554 26.3661 24.7247 26.406C24.9229 26.5204 25.1604 26.5901 26.0656 26.8165L28.3043 27.3762C29.951 27.7878 31.1061 29.2673 31.1061 30.9645C31.1061 33.0074 29.4501 34.6633 27.4072 34.6633H25.9443C25.1262 34.6633 24.6695 34.6633 24.2142 34.638C22.8693 34.5628 21.5387 34.3215 20.253 33.9197C19.8177 33.7835 19.3901 33.6231 18.6241 33.3358L16.4479 32.5198C14.3156 33.9151 11.8175 34.6633 9.25713 34.6633H8.21834C6.17554 34.6633 4.51953 33.0074 4.51953 30.9645C4.51953 29.2673 5.67466 27.7878 7.32125 27.3762L10.0459 26.695C10.4343 26.5979 10.5381 26.5699 10.6296 26.535C10.8927 26.4347 11.1301 26.277 11.3247 26.0736C11.3924 26.0027 11.4584 25.9179 11.6986 25.5976L13.1032 23.7249C13.4808 23.2214 14.1949 23.1195 14.6984 23.497Z" fill="#233F90"/>
</svg>
