<svg width="35" height="35" viewBox="0 0 35 35" fill="none" xmlns="http://www.w3.org/2000/svg">
<path d="M0.875 35H34.125C34.3571 35 34.5796 34.9078 34.7437 34.7437C34.9078 34.5796 35 34.3571 35 34.125V13.125C35 12.8929 34.9078 12.6704 34.7437 12.5063C34.5796 12.3422 34.3571 12.25 34.125 12.25H29.75V4.375C29.75 4.14294 29.6578 3.92038 29.4937 3.75628C29.3296 3.59219 29.1071 3.5 28.875 3.5H24.5V2.625C24.5 1.92881 24.2234 1.26113 23.7312 0.768845C23.2389 0.276562 22.5712 0 21.875 0H13.125C12.4288 0 11.7611 0.276562 11.2688 0.768845C10.7766 1.26113 10.5 1.92881 10.5 2.625V3.5H6.125C5.89294 3.5 5.67038 3.59219 5.50628 3.75628C5.34219 3.92038 5.25 4.14294 5.25 4.375V12.25H0.875C0.642936 12.25 0.420376 12.3422 0.256282 12.5063C0.0921874 12.6704 0 12.8929 0 13.125V34.125C0 34.3571 0.0921874 34.5796 0.256282 34.7437C0.420376 34.9078 0.642936 35 0.875 35ZM29.75 14H33.25V33.25H29.75V14ZM20.125 33.25H14.875V27.125H20.125V33.25ZM12.25 2.625C12.25 2.39294 12.3422 2.17038 12.5063 2.00628C12.6704 1.84219 12.8929 1.75 13.125 1.75H21.875C22.1071 1.75 22.3296 1.84219 22.4937 2.00628C22.6578 2.17038 22.75 2.39294 22.75 2.625V11.375C22.75 11.6071 22.6578 11.8296 22.4937 11.9937C22.3296 12.1578 22.1071 12.25 21.875 12.25H13.125C12.8929 12.25 12.6704 12.1578 12.5063 11.9937C12.3422 11.8296 12.25 11.6071 12.25 11.375V2.625ZM7 5.25H10.5V11.375C10.5 12.0712 10.7766 12.7389 11.2688 13.2312C11.7611 13.7234 12.4288 14 13.125 14H21.875C22.5712 14 23.2389 13.7234 23.7312 13.2312C24.2234 12.7389 24.5 12.0712 24.5 11.375V5.25H28V33.25H21.875V26.25C21.875 26.0179 21.7828 25.7954 21.6187 25.6313C21.4546 25.4672 21.2321 25.375 21 25.375H14C13.7679 25.375 13.5454 25.4672 13.3813 25.6313C13.2172 25.7954 13.125 26.0179 13.125 26.25V33.25H7V5.25ZM1.75 14H5.25V33.25H1.75V14Z" fill="#233F90"/>
<path d="M14.873 7.87524H16.623V9.62524C16.623 9.85731 16.7152 10.0799 16.8793 10.244C17.0434 10.4081 17.266 10.5002 17.498 10.5002C17.7301 10.5002 17.9527 10.4081 18.1168 10.244C18.2809 10.0799 18.373 9.85731 18.373 9.62524V7.87524H20.123C20.3551 7.87524 20.5777 7.78306 20.7418 7.61896C20.9059 7.45487 20.998 7.23231 20.998 7.00024C20.998 6.76818 20.9059 6.54562 20.7418 6.38153C20.5777 6.21743 20.3551 6.12524 20.123 6.12524H18.373V4.37524C18.373 4.14318 18.2809 3.92062 18.1168 3.75653C17.9527 3.59243 17.7301 3.50024 17.498 3.50024C17.266 3.50024 17.0434 3.59243 16.8793 3.75653C16.7152 3.92062 16.623 4.14318 16.623 4.37524V6.12524H14.873C14.641 6.12524 14.4184 6.21743 14.2543 6.38153C14.0902 6.54562 13.998 6.76818 13.998 7.00024C13.998 7.23231 14.0902 7.45487 14.2543 7.61896C14.4184 7.78306 14.641 7.87524 14.873 7.87524Z" fill="#233F90"/>
<path d="M11.375 18.3752H13.125C13.3571 18.3752 13.5796 18.2831 13.7437 18.119C13.9078 17.9549 14 17.7323 14 17.5002C14 17.2682 13.9078 17.0456 13.7437 16.8815C13.5796 16.7174 13.3571 16.6252 13.125 16.6252H11.375C11.1429 16.6252 10.9204 16.7174 10.7563 16.8815C10.5922 17.0456 10.5 17.2682 10.5 17.5002C10.5 17.7323 10.5922 17.9549 10.7563 18.119C10.9204 18.2831 11.1429 18.3752 11.375 18.3752Z" fill="#233F90"/>
<path d="M14 21.875C14 21.6429 13.9078 21.4204 13.7437 21.2563C13.5796 21.0922 13.3571 21 13.125 21H11.375C11.1429 21 10.9204 21.0922 10.7563 21.2563C10.5922 21.4204 10.5 21.6429 10.5 21.875C10.5 22.1071 10.5922 22.3296 10.7563 22.4937C10.9204 22.6578 11.1429 22.75 11.375 22.75H13.125C13.3571 22.75 13.5796 22.6578 13.7437 22.4937C13.9078 22.3296 14 22.1071 14 21.875Z" fill="#233F90"/>
<path d="M16.625 18.3752H18.375C18.6071 18.3752 18.8296 18.2831 18.9937 18.119C19.1578 17.9549 19.25 17.7323 19.25 17.5002C19.25 17.2682 19.1578 17.0456 18.9937 16.8815C18.8296 16.7174 18.6071 16.6252 18.375 16.6252H16.625C16.3929 16.6252 16.1704 16.7174 16.0063 16.8815C15.8422 17.0456 15.75 17.2682 15.75 17.5002C15.75 17.7323 15.8422 17.9549 16.0063 18.119C16.1704 18.2831 16.3929 18.3752 16.625 18.3752Z" fill="#233F90"/>
<path d="M16.625 22.75H18.375C18.6071 22.75 18.8296 22.6578 18.9937 22.4937C19.1578 22.3296 19.25 22.1071 19.25 21.875C19.25 21.6429 19.1578 21.4204 18.9937 21.2563C18.8296 21.0922 18.6071 21 18.375 21H16.625C16.3929 21 16.1704 21.0922 16.0063 21.2563C15.8422 21.4204 15.75 21.6429 15.75 21.875C15.75 22.1071 15.8422 22.3296 16.0063 22.4937C16.1704 22.6578 16.3929 22.75 16.625 22.75Z" fill="#233F90"/>
<path d="M21.875 18.3752H23.625C23.8571 18.3752 24.0796 18.2831 24.2437 18.119C24.4078 17.9549 24.5 17.7323 24.5 17.5002C24.5 17.2682 24.4078 17.0456 24.2437 16.8815C24.0796 16.7174 23.8571 16.6252 23.625 16.6252H21.875C21.6429 16.6252 21.4204 16.7174 21.2563 16.8815C21.0922 17.0456 21 17.2682 21 17.5002C21 17.7323 21.0922 17.9549 21.2563 18.119C21.4204 18.2831 21.6429 18.3752 21.875 18.3752Z" fill="#233F90"/>
<path d="M21.875 22.75H23.625C23.8571 22.75 24.0796 22.6578 24.2437 22.4937C24.4078 22.3296 24.5 22.1071 24.5 21.875C24.5 21.6429 24.4078 21.4204 24.2437 21.2563C24.0796 21.0922 23.8571 21 23.625 21H21.875C21.6429 21 21.4204 21.0922 21.2563 21.2563C21.0922 21.4204 21 21.6429 21 21.875C21 22.1071 21.0922 22.3296 21.2563 22.4937C21.4204 22.6578 21.6429 22.75 21.875 22.75Z" fill="#233F90"/>
</svg>
