<svg width="36" height="43" viewBox="0 0 36 43" fill="none" xmlns="http://www.w3.org/2000/svg">
<path d="M4.60743 14.324C6.71621 14.324 8.43165 12.6082 8.43165 10.4998C8.43165 8.39131 6.71621 6.67554 4.60743 6.67554C2.49865 6.67554 0.783203 8.39131 0.783203 10.4998C0.783203 12.6082 2.49865 14.324 4.60743 14.324ZM4.60743 8.03857C5.96447 8.03857 7.06861 9.14271 7.06861 10.4998C7.06861 11.8568 5.96447 12.9609 4.60743 12.9609C3.25038 12.9609 2.14624 11.8568 2.14624 10.4998C2.14624 9.14271 3.25038 8.03857 4.60743 8.03857Z" fill="#233F90"/>
<path d="M31.3906 14.324C33.4994 14.324 35.2149 12.6082 35.2149 10.4998C35.2149 8.39131 33.4994 6.67554 31.3906 6.67554C29.2818 6.67554 27.5664 8.39131 27.5664 10.4998C27.5664 12.6082 29.2818 14.324 31.3906 14.324ZM31.3906 8.03857C32.7477 8.03857 33.8518 9.14271 33.8518 10.4998C33.8518 11.8568 32.7477 12.9609 31.3906 12.9609C30.0336 12.9609 28.9294 11.8568 28.9294 10.4998C28.9294 9.14271 30.0336 8.03857 31.3906 8.03857Z" fill="#233F90"/>
<path d="M18 13.6484C20.1088 13.6484 21.8242 11.9327 21.8242 9.82422C21.8242 7.71578 20.1088 6 18 6C15.8912 6 14.1758 7.71578 14.1758 9.82422C14.1758 11.9327 15.8912 13.6484 18 13.6484ZM18 7.36304C19.357 7.36304 20.4612 8.46718 20.4612 9.82422C20.4612 11.1813 19.357 12.2854 18 12.2854C16.643 12.2854 15.5388 11.1813 15.5388 9.82422C15.5388 8.46718 16.643 7.36304 18 7.36304Z" fill="#233F90"/>
<path d="M32.7505 14.5624H31.3688C30.0723 14.5624 28.8234 15.1081 27.9432 16.0592L25.3093 18.9051H24.7503C24.6421 16.1213 22.3498 13.8882 19.5401 13.8882H16.4596C13.6499 13.8882 11.3579 16.1213 11.2497 18.9051H10.6907L8.05676 16.0599C7.17657 15.1081 5.92768 14.5624 4.6312 14.5624H3.24919C1.45754 14.5624 0 16.0199 0 17.8116V27.673C0 29.6443 1.60363 31.2476 3.57464 31.2476H9.56688V35.5836C9.56688 35.9603 9.87203 36.2651 10.2484 36.2651C10.6248 36.2651 10.9299 35.9603 10.9299 35.5836V30.5661C10.9299 30.1894 10.6248 29.8846 10.2484 29.8846H3.57464C2.35503 29.8846 1.36304 28.8922 1.36304 27.673V17.8116C1.36304 16.7713 2.20928 15.9254 3.24919 15.9254H4.6312C5.54931 15.9254 6.43316 16.3114 7.05644 16.9856L9.89266 20.0498C10.0218 20.1889 10.2028 20.2681 10.3928 20.2681H14.0447C14.4666 20.2681 14.8097 20.6115 14.8097 21.0335C14.8097 21.4554 14.4666 21.7982 14.0447 21.7982H9.50532H9.21813L6.85549 19.4358C6.85295 19.4333 6.85058 19.4309 6.84804 19.4283L6.06378 18.6442C5.79756 18.378 5.36629 18.378 5.10007 18.6442C4.83385 18.9104 4.83385 19.3417 5.10007 19.6079L5.68908 20.1968V27.0613C5.68908 27.438 5.99423 27.7428 6.3706 27.7428H10.7985C11.7532 27.7428 12.5302 28.5195 12.5302 29.4746V35.5836C12.5302 35.9603 12.8354 36.2651 13.2117 36.2651C13.5881 36.2651 13.8933 35.9603 13.8933 35.5836V29.4746C13.8933 27.7681 12.5049 26.3798 10.7985 26.3798H7.05212V21.5597L8.45409 22.9616C8.55438 23.0619 8.68582 23.1152 8.8238 23.1389V25.1705C8.8238 25.5472 9.12895 25.852 9.50532 25.852H16.2363V35.5836C16.2363 35.9603 16.5415 36.2651 16.9178 36.2651H19.0822C19.4585 36.2651 19.7637 35.9603 19.7637 35.5836V25.852H26.4947C26.8711 25.852 27.1762 25.5472 27.1762 25.1705V23.1389C27.3142 23.1152 27.4456 23.0619 27.5459 22.9616L28.9479 21.5597V26.3798H25.2015C23.4951 26.3798 22.1067 27.7681 22.1067 29.4746V35.5836C22.1067 35.9603 22.4119 36.2651 22.7883 36.2651C23.1646 36.2651 23.4698 35.9603 23.4698 35.5836V29.4746C23.4698 28.5195 24.2468 27.7428 25.2015 27.7428H29.6294C30.0058 27.7428 30.3109 27.438 30.3109 27.0613V20.1968L30.8999 19.6079C31.1661 19.3417 31.1661 18.9104 30.8999 18.6442C30.6337 18.378 30.2024 18.378 29.9362 18.6442L29.152 19.4283C29.1494 19.4309 29.147 19.4333 29.1445 19.4358L26.7819 21.7982H26.4947H21.9553C21.5334 21.7982 21.1903 21.4554 21.1903 21.0335C21.1903 20.6115 21.5334 20.2681 21.9553 20.2681H25.6072C25.7972 20.2681 25.9782 20.1889 26.1073 20.0498L28.9436 16.985C29.5668 16.3114 30.4507 15.9254 31.3688 15.9254H32.7505C33.7907 15.9254 34.637 16.7713 34.637 17.8116V27.673C34.637 28.8922 33.645 29.8846 32.4254 29.8846H25.8701C25.4937 29.8846 25.1886 30.1894 25.1886 30.5661V35.5836C25.1886 35.9603 25.4937 36.2651 25.8701 36.2651C26.2464 36.2651 26.5516 35.9603 26.5516 35.5836V31.2476H32.4254C34.3964 31.2476 36 29.6443 36 27.673V17.8116C36 16.0199 34.5421 14.5624 32.7505 14.5624ZM18.7155 16.6143L18 18.3553L17.2845 16.6143L17.7469 15.2512H18.2531L18.7155 16.6143ZM18.4007 34.9021H17.5993V25.852H18.4007V34.9021ZM25.8132 23.1612V24.489C9.67515 24.489 25.6993 24.489 10.1868 24.489V23.1612H25.8132ZM19.8273 21.0335C19.8273 21.3038 19.8829 21.5601 19.9752 21.7982H16.0248C16.1171 21.5601 16.1727 21.3038 16.1727 21.0335C16.1727 19.8601 15.218 18.9051 14.0447 18.9051H12.6127C12.7169 16.9244 14.3184 15.3383 16.3051 15.259L15.9119 16.4179C15.8589 16.5737 15.8643 16.7434 15.9268 16.8958L17.3697 20.4072C17.4746 20.6628 17.7238 20.8298 18 20.8298C18.2762 20.8298 18.5254 20.6628 18.6303 20.4072L20.0732 16.8958C20.1357 16.7434 20.1411 16.5737 20.0881 16.4179L19.6949 15.2591C21.6818 15.3385 23.2831 16.9245 23.3873 18.9051H21.9553C20.782 18.9051 19.8273 19.8601 19.8273 21.0335Z" fill="#233F90"/>
</svg>
