<svg width="36" height="36" viewBox="0 0 36 36" fill="none" xmlns="http://www.w3.org/2000/svg">
<path d="M12 17.625V11.25C12 10.625 12.219 10.094 12.657 9.657C13.095 9.22 13.626 9.001 14.25 9C14.874 8.999 15.4055 9.218 15.8445 9.657C16.2835 10.096 16.502 10.627 16.5 11.25V17.625C16.5 18.25 16.2815 18.7815 15.8445 19.2195C15.4075 19.6575 14.876 19.876 14.25 19.875C13.624 19.874 13.093 19.6555 12.657 19.2195C12.221 18.7835 12.002 18.252 12 17.625ZM19.5 17.2875V5.25C19.5 4.625 19.719 4.094 20.157 3.657C20.595 3.22 21.126 3.001 21.75 3C22.374 2.999 22.9055 3.218 23.3445 3.657C23.7835 4.096 24.002 4.627 24 5.25V17.2875C24 18.0375 23.769 18.6 23.307 18.975C22.845 19.35 22.326 19.5375 21.75 19.5375C21.174 19.5375 20.6555 19.35 20.1945 18.975C19.7335 18.6 19.502 18.0375 19.5 17.2875ZM4.5 22.4625V17.25C4.5 16.625 4.719 16.094 5.157 15.657C5.595 15.22 6.126 15.001 6.75 15C7.374 14.999 7.9055 15.218 8.3445 15.657C8.7835 16.096 9.002 16.627 9 17.25V22.4625C9 23.2125 8.769 23.775 8.307 24.15C7.845 24.525 7.326 24.7125 6.75 24.7125C6.174 24.7125 5.6555 24.525 5.1945 24.15C4.7335 23.775 4.502 23.2125 4.5 22.4625ZM8.1 31.575C7.45 31.575 6.9935 31.269 6.7305 30.657C6.4675 30.045 6.574 29.501 7.05 29.025L13.2 22.875C13.475 22.6 13.8065 22.45 14.1945 22.425C14.5825 22.4 14.926 22.525 15.225 22.8L19.5 26.475L27.9 18.075H27C26.575 18.075 26.219 17.931 25.932 17.643C25.645 17.355 25.501 16.999 25.5 16.575C25.499 16.151 25.643 15.795 25.932 15.507C26.221 15.219 26.577 15.075 27 15.075H31.5C31.925 15.075 32.2815 15.219 32.5695 15.507C32.8575 15.795 33.001 16.151 33 16.575V21.075C33 21.5 32.856 21.8565 32.568 22.1445C32.28 22.4325 31.924 22.576 31.5 22.575C31.076 22.574 30.72 22.43 30.432 22.143C30.144 21.856 30 21.5 30 21.075V20.175L20.625 29.55C20.35 29.825 20.0185 29.975 19.6305 30C19.2425 30.025 18.899 29.9 18.6 29.625L14.325 25.95L9.15 31.125C9.025 31.25 8.869 31.3565 8.682 31.4445C8.495 31.5325 8.301 31.576 8.1 31.575Z" fill="#233F90"/>
</svg>
