<svg width="336" height="106" viewBox="0 0 336 106" fill="none" xmlns="http://www.w3.org/2000/svg">
<path d="M271.007 36.5115C271.107 36.6114 271.232 36.6564 271.362 36.6564C271.492 36.6564 271.617 36.6064 271.717 36.5115L272.407 35.8219L273.096 36.5115C273.196 36.6114 273.321 36.6564 273.451 36.6564C273.581 36.6564 273.706 36.6064 273.806 36.5115C274.001 36.3166 274.001 36.0018 273.806 35.807L273.116 35.1174L273.806 34.4279C274.001 34.233 274.001 33.9182 273.806 33.7233C273.611 33.5284 273.296 33.5284 273.101 33.7233L272.412 34.4129L271.722 33.7233C271.527 33.5284 271.212 33.5284 271.017 33.7233C270.822 33.9182 270.822 34.233 271.017 34.4279L271.707 35.1174L271.017 35.807C270.812 36.0018 270.812 36.3166 271.007 36.5115Z" fill="#172122" fill-opacity="0.1"/>
<path d="M310.19 37.456C311.48 37.456 312.53 36.4067 312.53 35.1175C312.53 33.8284 311.48 32.7791 310.19 32.7791C308.9 32.7791 307.85 33.8284 307.85 35.1175C307.85 36.4067 308.9 37.456 310.19 37.456ZM310.19 33.7834C310.93 33.7834 311.53 34.383 311.53 35.1225C311.53 35.8621 310.93 36.4617 310.19 36.4617C309.45 36.4617 308.85 35.8621 308.85 35.1225C308.85 34.383 309.455 33.7834 310.19 33.7834Z" fill="#172122" fill-opacity="0.1"/>
<path d="M334.941 104.093H328.027V73.4427C328.027 73.4177 328.017 73.3977 328.012 73.3727C328.007 73.3377 328.002 73.3027 327.992 73.2678C327.982 73.2328 327.962 73.2078 327.942 73.1778C327.927 73.1578 327.922 73.1328 327.907 73.1179L321.033 65.0481C320.938 64.9381 320.798 64.8732 320.653 64.8732H303.166C303.161 64.8732 303.161 64.8732 303.156 64.8732H303.151C303.131 64.8732 303.116 64.8832 303.101 64.8882C303.051 64.8932 303.001 64.9032 302.956 64.9281C302.936 64.9381 302.916 64.9531 302.896 64.9681C302.856 64.9931 302.821 65.0181 302.791 65.0531C302.786 65.0581 302.776 65.0631 302.771 65.0731L301.117 67.2217V52.3213V52.2313C301.517 52.5261 302.011 52.706 302.546 52.706C303.886 52.706 304.976 51.6167 304.976 50.2776C304.976 50.0028 304.751 49.7779 304.476 49.7779C304.201 49.7779 303.976 50.0028 303.976 50.2776C303.976 51.0621 303.336 51.7067 302.546 51.7067C301.756 51.7067 301.117 51.0671 301.117 50.2776V49.0534V47.9141V47.4044C301.117 47.1296 300.892 46.9048 300.617 46.9048C300.342 46.9048 300.117 47.1296 300.117 47.4044V47.9141V49.0534V50.2776V52.3213C300.117 53.0358 299.537 53.6154 298.822 53.6154C298.107 53.6154 297.527 53.0358 297.527 52.3213C297.527 52.0464 297.302 51.8216 297.027 51.8216C296.752 51.8216 296.527 52.0464 296.527 52.3213C296.527 53.5854 297.557 54.6148 298.822 54.6148C299.302 54.6148 299.747 54.4649 300.117 54.21V68.5158L297.242 72.2434C297.177 72.3284 297.137 72.4383 297.137 72.5482V89.3924L289.349 81.8972C289.254 81.8073 289.134 81.7573 289.004 81.7573H280.95V61.6103V61.2355C281.465 61.6902 282.14 61.965 282.88 61.965C284.495 61.965 285.809 60.6509 285.809 59.0369C285.809 58.7621 285.584 58.5373 285.309 58.5373C285.034 58.5373 284.809 58.7621 284.809 59.0369C284.809 60.1012 283.945 60.9657 282.88 60.9657C281.815 60.9657 280.95 60.1012 280.95 59.0369V57.4929V56.0589V55.4143C280.95 55.1395 280.725 54.9146 280.45 54.9146C280.175 54.9146 279.95 55.1395 279.95 55.4143V56.0589V57.4929V59.0369V61.6103C279.95 62.5797 279.16 63.3691 278.186 63.3691C277.216 63.3691 276.421 62.5797 276.421 61.6103C276.421 61.3355 276.196 61.1106 275.921 61.1106C275.646 61.1106 275.421 61.3355 275.421 61.6103C275.421 63.1343 276.661 64.3685 278.186 64.3685C278.855 64.3685 279.47 64.1287 279.95 63.7339V81.7573H274.026C274.021 81.7573 274.021 81.7573 274.016 81.7573C273.976 81.7573 273.936 81.7723 273.896 81.7823C273.871 81.7873 273.846 81.7873 273.826 81.7973C273.801 81.8072 273.781 81.8272 273.756 81.8422C273.726 81.8622 273.691 81.8822 273.666 81.9072C273.661 81.9122 273.661 81.9122 273.656 81.9122L265.968 90.2668V72.7231C265.968 72.4483 265.743 72.2234 265.468 72.2234C265.193 72.2234 264.968 72.4483 264.968 72.7231V91.3911C264.933 91.461 264.908 91.536 264.908 91.6159V104.088H261.814V101.33C261.814 101.055 261.589 100.83 261.314 100.83C261.039 100.83 260.814 101.055 260.814 101.33V104.088H257.694C257.744 103.663 257.779 102.754 257.774 100.705C261.099 100.41 263.718 97.6121 263.718 94.2093C263.718 92.4104 262.983 90.7065 261.684 89.4773C262.109 88.7178 262.328 87.8634 262.328 86.9789C262.328 84.1458 260.024 81.8422 257.189 81.8422C254.355 81.8422 252.05 84.1458 252.05 86.9789C252.05 87.8584 252.275 88.7128 252.695 89.4773C251.395 90.7065 250.661 92.4104 250.661 94.2093C250.661 97.662 253.36 100.49 256.764 100.71C256.769 102.384 256.759 103.668 256.719 103.988C256.709 104.018 256.704 104.053 256.699 104.088H238.208V4.45213L238.448 4.3472H260.809V80.5181C260.809 80.7929 261.034 81.0178 261.309 81.0178C261.584 81.0178 261.809 80.7929 261.809 80.5181V4.3422H264.963V56.1088C264.963 56.3836 265.188 56.6085 265.463 56.6085C265.738 56.6085 265.963 56.3836 265.963 56.1088V0.499678C265.963 0.224855 265.738 0 265.463 0H261.309H237.713C237.643 0 237.578 0.0149912 237.518 0.0399751L233.154 1.89378C233.154 1.89378 233.154 1.89378 233.149 1.89378L217.716 8.44456C217.531 8.5245 217.411 8.70439 217.411 8.90426V32.2342L197.06 27.0326C197.02 27.0226 196.98 27.0176 196.935 27.0176H179.168V22.0958C179.168 22.0308 179.153 21.9708 179.133 21.9159H186.407V12.337H123.063V21.9159H130.302V27.0176H110.775C110.5 27.0176 110.275 27.2424 110.275 27.5173V30.955L94.7382 24.5592V15.6449C94.7382 15.585 94.7232 15.525 94.7032 15.47C94.6982 15.455 94.6882 15.44 94.6782 15.4201C94.6582 15.3851 94.6382 15.3501 94.6082 15.3201C94.5932 15.3051 94.5832 15.2901 94.5682 15.2801C94.5332 15.2502 94.4982 15.2252 94.4582 15.2052C94.4432 15.2002 94.4333 15.1902 94.4232 15.1852C94.4183 15.1852 94.4183 15.1802 94.4133 15.1802L83.3102 10.9779C83.2852 10.9679 83.2602 10.9679 83.2402 10.9579C83.2302 10.9579 83.2202 10.9529 83.2102 10.9529C83.1552 10.9429 83.1003 10.9479 83.0453 10.9579C83.0353 10.9579 83.0203 10.9629 83.0103 10.9679C82.9553 10.9829 82.9003 11.0029 82.8503 11.0379L76.3914 15.585V7.14539C76.3914 7.01048 76.3365 6.88556 76.2465 6.79062C71.0674 1.61396 59.5294 7.57512 53.1106 11.5875C50.1711 13.4263 48.3264 16.4994 48.0515 19.9322C48.0265 19.9921 48.0115 20.0571 48.0115 20.127C48.0115 20.162 48.0265 20.187 48.0315 20.222C48.0215 20.4218 48.0115 20.6217 48.0115 20.8266V50.1127C48.0115 50.3875 48.2364 50.6124 48.5114 50.6124H62.199C62.4739 50.6124 62.6989 50.3875 62.6989 50.1127C62.6989 49.8379 62.4739 49.613 62.199 49.613H49.0113V48.114H62.199C62.4739 48.114 62.6989 47.8891 62.6989 47.6143C62.6989 47.3395 62.4739 47.1146 62.199 47.1146H49.0113V45.6156H62.199C62.4739 45.6156 62.6989 45.3907 62.6989 45.1159C62.6989 44.8411 62.4739 44.6162 62.199 44.6162H49.0113V43.1172H62.199C62.4739 43.1172 62.6989 42.8923 62.6989 42.6175C62.6989 42.3427 62.4739 42.1178 62.199 42.1178H49.0113V40.6188H62.199C62.4739 40.6188 62.6989 40.394 62.6989 40.1191C62.6989 39.8443 62.4739 39.6195 62.199 39.6195H49.0113V38.1204H62.199C62.4739 38.1204 62.6989 37.8956 62.6989 37.6207C62.6989 37.3459 62.4739 37.1211 62.199 37.1211H49.0113V35.622H62.199C62.4739 35.622 62.6989 35.3972 62.6989 35.1224C62.6989 34.8475 62.4739 34.6227 62.199 34.6227H49.0113V33.1236H62.199C62.4739 33.1236 62.6989 32.8988 62.6989 32.624C62.6989 32.3491 62.4739 32.1243 62.199 32.1243H49.0113V30.6253H62.199C62.4739 30.6253 62.6989 30.4004 62.6989 30.1256C62.6989 29.8508 62.4739 29.6259 62.199 29.6259H49.0113V28.1269H62.199C62.4739 28.1269 62.6989 27.902 62.6989 27.6272C62.6989 27.3524 62.4739 27.1275 62.199 27.1275H49.0113V25.6285H62.199C62.4739 25.6285 62.6989 25.4036 62.6989 25.1288C62.6989 24.854 62.4739 24.6291 62.199 24.6291H49.0113V23.1301H62.199C62.4739 23.1301 62.6989 22.9052 62.6989 22.6304C62.6989 22.3556 62.4739 22.1307 62.199 22.1307H49.0113V20.8266C49.0113 20.7616 49.0163 20.6967 49.0163 20.6317H62.199C62.4739 20.6317 62.6989 20.4068 62.6989 20.132C62.6989 19.8572 62.4739 19.6323 62.199 19.6323H49.0863C49.4362 16.6693 51.0859 14.0409 53.6405 12.442C59.7394 8.62444 70.6225 2.93311 75.3916 7.36525V16.2945L72.5871 18.2682C72.4521 18.3632 72.3772 18.5131 72.3772 18.678V87.2388L63.2588 78.4694C63.1638 78.3795 63.0438 78.3295 62.9138 78.3295H49.0163V75.6012H62.204C62.4789 75.6012 62.7039 75.3764 62.7039 75.1016C62.7039 74.8268 62.4789 74.6019 62.204 74.6019H49.0113V73.1029H62.199C62.4739 73.1029 62.6989 72.878 62.6989 72.6032C62.6989 72.3284 62.4739 72.1035 62.199 72.1035H48.5114C48.2364 72.1035 48.0115 72.3284 48.0115 72.6032V78.3295H45.5969C45.5919 78.3295 45.5919 78.3295 45.5869 78.3295C45.5469 78.3295 45.5069 78.3445 45.4669 78.3545C45.4419 78.3595 45.4169 78.3595 45.3969 78.3695C45.3719 78.3795 45.352 78.3995 45.327 78.4144C45.297 78.4344 45.262 78.4544 45.237 78.4794C45.232 78.4844 45.232 78.4844 45.227 78.4844L40.7028 83.4012V60.9307V60.9157C41.0727 61.1706 41.5226 61.3205 42.0025 61.3205C43.2723 61.3205 44.3021 60.2911 44.3021 59.0219C44.3021 58.7471 44.0772 58.5223 43.8022 58.5223C43.5273 58.5223 43.3023 58.7471 43.3023 59.0219C43.3023 59.7365 42.7174 60.3211 42.0025 60.3211C41.2877 60.3211 40.7028 59.7365 40.7028 59.0219V57.8777V56.8134V56.3387C40.7028 56.0639 40.4778 55.839 40.2029 55.839C39.9279 55.839 39.703 56.0639 39.703 56.3387V56.8134V57.8777V59.0219V60.9307C39.703 61.5803 39.173 62.11 38.5232 62.11C37.8733 62.11 37.3434 61.5803 37.3434 60.9307C37.3434 60.6559 37.1184 60.431 36.8435 60.431C36.5685 60.431 36.3436 60.6559 36.3436 60.9307C36.3436 62.1299 37.3184 63.1093 38.5232 63.1093C38.9581 63.1093 39.363 62.9794 39.703 62.7595V84.4955L36.1336 88.378V77.7199C36.1336 77.4451 35.9086 77.2202 35.6337 77.2202H25.7504V54.4849C25.7504 54.21 25.5255 53.9852 25.2505 53.9852H7.85861C7.58365 53.9852 7.35869 54.21 7.35869 54.4849V103.983C7.35869 104.028 7.37369 104.063 7.38369 104.103H0.499911C0.22496 104.103 0 104.328 0 104.603C0 104.877 0.22496 105.102 0.499911 105.102H110.77H154.733V105.122H160.881V105.102H233.354H334.941C335.216 105.102 335.44 104.877 335.44 104.603C335.44 104.318 335.216 104.093 334.941 104.093ZM261.819 0.999356H264.973V3.34285H261.819V0.999356ZM238.223 0.999356H260.819V3.34285H238.353C238.308 3.34285 238.263 3.35784 238.218 3.37283V0.999356H238.223ZM24.7506 56.9683H17.5719C17.2969 56.9683 17.072 57.1931 17.072 57.4679C17.072 57.7428 17.2969 57.9676 17.5719 57.9676H24.7506V59.2468H21.8361C21.5612 59.2468 21.3362 59.4717 21.3362 59.7465C21.3362 60.0213 21.5612 60.2462 21.8361 60.2462H24.7506V61.5253H12.1029C11.8279 61.5253 11.6029 61.7502 11.6029 62.025C11.6029 62.2998 11.8279 62.5247 12.1029 62.5247H24.7506V63.8039H12.1029C11.8279 63.8039 11.6029 64.0287 11.6029 64.3035C11.6029 64.5784 11.8279 64.8032 12.1029 64.8032H24.7506V66.0824H16.5521C16.2771 66.0824 16.0522 66.3073 16.0522 66.5821C16.0522 66.8569 16.2771 67.0817 16.5521 67.0817H24.7506V68.3609H12.1029C11.8279 68.3609 11.6029 68.5858 11.6029 68.8606C11.6029 69.1354 11.8279 69.3603 12.1029 69.3603H24.7506V70.6395H12.1029C11.8279 70.6395 11.6029 70.8643 11.6029 71.1391C11.6029 71.414 11.8279 71.6388 12.1029 71.6388H24.7506V72.918H21.4112C21.1363 72.918 20.9113 73.1428 20.9113 73.4177C20.9113 73.6925 21.1363 73.9173 21.4112 73.9173H24.7506V75.1965H12.1029C11.8279 75.1965 11.6029 75.4214 11.6029 75.6962C11.6029 75.971 11.8279 76.1959 12.1029 76.1959H24.7506V77.475H22.821C22.546 77.475 22.321 77.6999 22.321 77.9747C22.321 78.2495 22.546 78.4744 22.821 78.4744H24.7506V79.7536H12.1029C11.8279 79.7536 11.6029 79.9784 11.6029 80.2533C11.6029 80.5281 11.8279 80.7529 12.1029 80.7529H24.7506V82.0321H12.1029C11.8279 82.0321 11.6029 82.257 11.6029 82.5318C11.6029 82.8066 11.8279 83.0315 12.1029 83.0315H24.7506V84.3106H17.027C16.752 84.3106 16.5271 84.5355 16.5271 84.8103C16.5271 85.0851 16.752 85.31 17.027 85.31H24.7556V86.5892H12.1079C11.8329 86.5892 11.6079 86.814 11.6079 87.0889C11.6079 87.3637 11.8329 87.5885 12.1079 87.5885H24.7556V88.8677H22.1711C21.8961 88.8677 21.6712 89.0926 21.6712 89.3674C21.6712 89.6422 21.8961 89.8671 22.1711 89.8671H24.7556V91.1462H12.1079C11.8329 91.1462 11.6079 91.3711 11.6079 91.6459C11.6079 91.9207 11.8329 92.1456 12.1079 92.1456H24.7556V93.6096H17.027C16.752 93.6096 16.5271 93.8345 16.5271 94.1093C16.5271 94.3841 16.752 94.609 17.027 94.609H24.7556V95.8882H12.1079C11.8329 95.8882 11.6079 96.113 11.6079 96.3878C11.6079 96.6627 11.8329 96.8875 12.1079 96.8875H24.7556V98.1667H22.1711C21.8961 98.1667 21.6712 98.3916 21.6712 98.6664C21.6712 98.9412 21.8961 99.1661 22.1711 99.1661H24.7556V100.445H12.1079C11.8329 100.445 11.6079 100.67 11.6079 100.945C11.6079 101.22 11.8329 101.445 12.1079 101.445H24.7556V104.123H8.33852C8.34852 104.083 8.36352 104.043 8.36352 104.003V55.0045H24.7556V56.9683H24.7506ZM35.1388 89.6522V103.208V104.093H25.7504V89.5423V78.2096H35.1338V89.6522H35.1388ZM48.0115 103.718H43.3123V95.4435H48.0115V103.718ZM55.5651 104.093H49.0163V94.9438C49.0163 94.669 48.7913 94.4441 48.5164 94.4441H42.8174C42.5425 94.4441 42.3175 94.669 42.3175 94.9438V104.093H36.1386V103.208V89.8471L45.6319 79.5287L55.5651 88.6279V104.093ZM46.8867 79.3239H62.7139L71.6373 87.9083H56.26L46.8867 79.3239ZM72.3772 104.093H56.565V88.9077H72.3772V104.093ZM82.6353 104.093H73.377V88.408V18.9328L82.6353 12.412V104.093ZM94.7382 25.6385L109.781 31.8345L94.7382 44.8361V25.6385ZM96.9778 103.723C97.0428 103.693 97.1128 103.668 97.1978 103.668C97.1228 103.673 97.0478 103.688 96.9778 103.723ZM97.1978 90.2518C96.9228 90.2568 96.7028 90.4817 96.7078 90.7615C96.7278 91.9807 96.7478 93.3948 96.7628 94.8388L93.7734 91.1312C93.5984 90.9164 93.2834 90.8814 93.0685 91.0563C92.8535 91.2312 92.8185 91.546 92.9935 91.7608L96.7778 96.4528C96.7878 97.3173 96.7928 98.1667 96.7978 98.9662C93.3035 98.7513 90.5239 95.8482 90.5239 92.3055C90.5239 90.3118 91.4038 88.438 92.9435 87.1638C93.1435 86.9989 93.1835 86.7141 93.0385 86.4992C92.4786 85.6698 92.1786 84.6954 92.1786 83.686C92.1786 80.9128 94.4382 78.6593 97.2078 78.6593C99.9773 78.6593 102.237 80.9128 102.237 83.686C102.237 84.6954 101.942 85.6648 101.377 86.4992C101.232 86.7141 101.272 86.9989 101.472 87.1638C103.012 88.438 103.892 90.3168 103.892 92.3055C103.892 95.7882 101.207 98.6564 97.7977 98.9562C97.7927 97.9219 97.7827 96.6927 97.7677 95.2186L101.192 91.7958C101.387 91.6009 101.387 91.2861 101.192 91.0913C100.997 90.8964 100.682 90.8964 100.487 91.0913L97.7527 93.8245C97.7427 92.8851 97.7277 91.8658 97.7077 90.7465C97.6977 90.4667 97.4877 90.2568 97.1978 90.2518ZM110.22 104.093H97.7027C97.7627 103.613 97.8027 102.534 97.7977 99.9506C101.757 99.6458 104.886 96.3329 104.886 92.3005C104.886 90.1569 103.997 88.1282 102.437 86.6741C102.957 85.7647 103.232 84.7354 103.232 83.676C103.232 80.3532 100.527 77.6499 97.2028 77.6499C93.8783 77.6499 91.1738 80.3532 91.1738 83.676C91.1738 84.7354 91.4488 85.7647 91.9687 86.6741C90.404 88.1282 89.5191 90.1519 89.5191 92.3005C89.5191 96.3979 92.7485 99.7457 96.7928 99.9605C96.7978 102.024 96.7828 103.613 96.7378 103.983C96.7228 104.018 96.7228 104.058 96.7178 104.093H83.6352V12.1672L93.7384 15.9897V24.889V73.6425C93.7384 73.9173 93.9633 74.1422 94.2383 74.1422C94.5132 74.1422 94.7382 73.9173 94.7382 73.6425V46.1502L110.22 32.7689V104.093ZM197.45 28.1618L217.421 33.2685V39.1398L197.45 34.4178V28.1618ZM197.45 35.4422L217.421 40.1641V77.4351H197.45V35.4422ZM124.063 20.9165V13.3364H185.407V20.9165H124.063ZM178.203 21.9159C178.183 21.9708 178.168 22.0308 178.168 22.0958V27.0176H174.559V21.9159H178.203ZM135.876 21.9159H173.559V27.0176H135.911V22.0958C135.911 22.0308 135.896 21.9708 135.876 21.9159ZM134.946 21.9159C134.926 21.9708 134.911 22.0308 134.911 22.0958V27.0176H131.302V21.9159H134.946ZM111.27 28.0169H196.45V34.178L196.405 34.168C196.365 34.158 196.33 34.153 196.29 34.153H111.27V28.0169ZM111.27 46.1303V35.1523H196.235L196.45 35.2023V77.4351H160.881V68.9006H128.517V77.4351H111.27V46.1303ZM159.882 69.8999V77.3751H129.517V69.8999H159.882ZM128.517 104.093H111.27V83.676H128.517V104.093ZM133.666 104.003H129.517V83.681H133.666V104.003ZM144.129 104.093H134.666V83.676H144.129V104.093ZM154.733 104.093H145.129V83.676H154.733V104.093ZM159.882 104.093H155.732V83.681H159.882V104.093ZM169.455 104.093H160.881V97.5621C160.956 97.6071 161.036 97.637 161.131 97.637H169.455V104.093ZM161.131 91.1312H177.828V96.6377H161.131C161.041 96.6377 160.956 96.6677 160.881 96.7126V91.0563C160.956 91.1012 161.036 91.1312 161.131 91.1312ZM160.881 90.2068V83.676H171.185V90.1319H161.131C161.036 90.1319 160.956 90.1669 160.881 90.2068ZM172.184 90.1319V83.676H174.709V90.1319H172.184ZM193.216 91.1312V96.6377H182.353V91.1312H193.216ZM186.672 90.1319V83.676H189.196V90.1319H186.672ZM208.203 91.1312V96.6377H197.74V91.1312H208.203ZM201.339 90.1319V83.676H203.864V90.1319H201.339ZM204.864 90.1319V83.676H215.252V90.1319H204.864ZM211.727 91.1312V96.6377H209.203V91.1312H211.727ZM200.339 90.1319H190.196V83.676H200.339V90.1319ZM196.74 91.1312V96.6377H194.216V91.1312H196.74ZM185.672 90.1319H175.709V83.676H185.672V90.1319ZM181.353 91.1312V96.6377H178.828V91.1312H181.353ZM172.979 104.093H170.455V97.637H172.979V104.093ZM185.672 104.093H173.979V97.637H185.672V104.093ZM189.196 104.093H186.672V97.637H189.196V104.093ZM201.424 104.093H190.196V97.637H201.424V104.093ZM204.949 104.093H202.424V97.637H204.949V104.093ZM215.252 104.093H205.948V97.637H215.252V104.093ZM218.781 104.093H216.257V97.637H218.781V104.093ZM232.854 104.093H219.781V97.637H232.854V104.093ZM232.854 96.6377H212.727V91.1312H232.854V96.6377ZM216.252 90.1319V83.676H218.776V90.1319H216.252ZM232.854 90.1319H219.781V83.676H232.854V90.1319ZM232.854 82.6767H134.666V82.6017H128.517V82.6767H111.27V78.4344H232.854V82.6767ZM232.854 77.4401H221.676V71.1291L232.854 74.0123V77.4401ZM232.854 72.9779L221.676 70.0948V66.2473L232.854 69.1304V72.9779ZM232.854 68.1011L221.676 65.2179V61.3704L232.854 64.2536V68.1011ZM232.854 63.2192L221.676 60.3361V56.4886L232.854 59.3717V63.2192ZM232.854 58.3424L221.676 55.4592V51.6117L232.854 54.4949V58.3424ZM232.854 53.4605L221.676 50.5774V46.7299L232.854 49.613V53.4605ZM232.854 48.5837L221.676 45.7005V41.1735L232.854 43.8167V48.5837ZM232.854 42.7874L221.676 40.1441V34.3529L232.854 37.211V42.7874ZM232.854 36.1817L221.676 33.3235V29.471L232.854 32.3541V36.1817ZM232.854 31.3248L221.676 28.4417V24.5941L232.854 27.4773V31.3248ZM232.854 26.443L221.676 23.5598V19.7123L232.854 22.5954V26.443ZM232.854 21.5661L221.676 18.683V15.46L232.854 18.3432V21.5661ZM232.854 17.3088L221.676 14.4257V11.7574L222.78 11.2677L232.849 13.8611V17.3088H232.854ZM232.854 12.8367L224.26 10.6232L232.854 6.8256V12.8367ZM232.854 5.73131L222.65 10.2434C222.546 10.2534 222.446 10.2984 222.366 10.3683L220.976 10.9829C220.796 11.0629 220.676 11.2428 220.676 11.4376V77.4401H218.421V9.23405L232.854 3.108V5.73131ZM237.223 104.093H233.854V36.8263V6.38089L237.223 4.89185V104.093ZM237.223 3.79755L233.854 5.28659V2.68327L237.223 1.25419V3.79755ZM257.199 92.4154C257.199 92.4154 257.194 92.4154 257.189 92.4154C256.914 92.4204 256.694 92.6453 256.699 92.9251C256.714 93.8795 256.729 94.9838 256.739 96.113L254.38 93.1849C254.205 92.9701 253.895 92.9351 253.675 93.11C253.46 93.2849 253.425 93.5997 253.6 93.8145L256.754 97.727C256.759 98.4115 256.764 99.0811 256.769 99.7207C253.92 99.5009 251.67 97.1224 251.67 94.2193C251.67 92.5703 252.4 91.0213 253.67 89.967C253.87 89.8021 253.91 89.5173 253.765 89.3024C253.305 88.6179 253.06 87.8184 253.06 86.9889C253.06 84.7054 254.915 82.8516 257.199 82.8516C259.484 82.8516 261.339 84.7054 261.339 86.9889C261.339 87.8184 261.094 88.6179 260.634 89.3024C260.489 89.5173 260.529 89.8021 260.729 89.967C261.999 91.0213 262.728 92.5703 262.728 94.2193C262.728 97.0674 260.559 99.4209 257.779 99.7107C257.774 98.8662 257.764 97.8769 257.754 96.6976L260.599 93.8545C260.794 93.6596 260.794 93.3448 260.599 93.1499C260.404 92.9551 260.089 92.9551 259.894 93.1499L257.739 95.3085C257.729 94.569 257.719 93.7795 257.704 92.9201C257.694 92.6353 257.469 92.4154 257.199 92.4154ZM276.046 103.718H272.117V96.6976H276.046V103.718ZM282.575 104.093H277.046V96.198C277.046 95.9231 276.821 95.6983 276.546 95.6983H271.617C271.342 95.6983 271.117 95.9231 271.117 96.198V104.093H265.973V91.7508L274.056 82.9615L282.575 90.7665V104.093ZM275.316 82.7566H288.799L296.377 90.0469H283.275L275.316 82.7566ZM297.117 104.093H283.58V91.0463H297.117V104.093ZM309.69 104.093H298.132V72.7181L300.952 69.0605C300.972 69.0455 300.982 69.0205 300.997 69.0005L303.186 66.1623L309.69 73.6275V104.093ZM304.261 65.8775H320.418L326.442 72.948H310.415L304.261 65.8775ZM327.027 104.093H310.69V73.9423H327.027V104.093Z" fill="#172122" fill-opacity="0.1"/>
<path d="M184.002 49.1186H185.277H191.226H192.501C192.776 49.1186 193.001 48.8937 193.001 48.6189C193.001 48.3441 192.776 48.1192 192.501 48.1192H191.726V40.1694C191.726 39.8945 191.501 39.6697 191.226 39.6697H185.277C185.002 39.6697 184.777 39.8945 184.777 40.1694V48.1192H184.002C183.727 48.1192 183.502 48.3441 183.502 48.6189C183.502 48.8937 183.722 49.1186 184.002 49.1186ZM185.777 40.669H190.726V48.1192H188.752V44.3966C188.752 44.1218 188.527 43.8969 188.252 43.8969C187.977 43.8969 187.752 44.1218 187.752 44.3966V48.1192H185.777V40.669Z" fill="#172122" fill-opacity="0.1"/>
<path d="M170.44 49.1186H171.715H177.664H178.938C179.213 49.1186 179.438 48.8937 179.438 48.6189C179.438 48.3441 179.213 48.1192 178.938 48.1192H178.163V40.1694C178.163 39.8945 177.939 39.6697 177.664 39.6697H171.715C171.44 39.6697 171.215 39.8945 171.215 40.1694V48.1192H170.44C170.165 48.1192 169.94 48.3441 169.94 48.6189C169.94 48.8937 170.165 49.1186 170.44 49.1186ZM172.215 40.669H177.164V48.1192H175.189V44.3966C175.189 44.1218 174.964 43.8969 174.689 43.8969C174.414 43.8969 174.189 44.1218 174.189 44.3966V48.1192H172.215V40.669Z" fill="#172122" fill-opacity="0.1"/>
<path d="M156.882 49.1186H158.157H164.106H165.381C165.656 49.1186 165.881 48.8937 165.881 48.6189C165.881 48.3441 165.656 48.1192 165.381 48.1192H164.606V40.1694C164.606 39.8945 164.381 39.6697 164.106 39.6697H158.157C157.882 39.6697 157.657 39.8945 157.657 40.1694V48.1192H156.882C156.607 48.1192 156.382 48.3441 156.382 48.6189C156.382 48.8937 156.607 49.1186 156.882 49.1186ZM158.657 40.669H163.606V48.1192H161.631V44.3966C161.631 44.1218 161.406 43.8969 161.131 43.8969C160.857 43.8969 160.632 44.1218 160.632 44.3966V48.1192H158.657V40.669Z" fill="#172122" fill-opacity="0.1"/>
<path d="M143.319 49.1186H144.594H150.543H151.818C152.093 49.1186 152.318 48.8937 152.318 48.6189C152.318 48.3441 152.093 48.1192 151.818 48.1192H151.043V40.1694C151.043 39.8945 150.818 39.6697 150.543 39.6697H144.594C144.319 39.6697 144.094 39.8945 144.094 40.1694V48.1192H143.319C143.045 48.1192 142.82 48.3441 142.82 48.6189C142.82 48.8937 143.045 49.1186 143.319 49.1186ZM145.094 40.669H150.043V48.1192H148.069V44.3966C148.069 44.1218 147.844 43.8969 147.569 43.8969C147.294 43.8969 147.069 44.1218 147.069 44.3966V48.1192H145.094V40.669Z" fill="#172122" fill-opacity="0.1"/>
<path d="M129.762 49.1186H131.037H136.986H138.26C138.535 49.1186 138.76 48.8937 138.76 48.6189C138.76 48.3441 138.535 48.1192 138.26 48.1192H137.485V40.1694C137.485 39.8945 137.261 39.6697 136.986 39.6697H131.037C130.762 39.6697 130.537 39.8945 130.537 40.1694V48.1192H129.762C129.487 48.1192 129.262 48.3441 129.262 48.6189C129.262 48.8937 129.487 49.1186 129.762 49.1186ZM131.537 40.669H136.486V48.1192H134.511V44.3966C134.511 44.1218 134.286 43.8969 134.011 43.8969C133.736 43.8969 133.511 44.1218 133.511 44.3966V48.1192H131.537V40.669Z" fill="#172122" fill-opacity="0.1"/>
<path d="M124.698 48.1192H123.923V40.1694C123.923 39.8945 123.698 39.6697 123.423 39.6697H117.474C117.199 39.6697 116.974 39.8945 116.974 40.1694V48.1192H116.199C115.924 48.1192 115.699 48.3441 115.699 48.6189C115.699 48.8937 115.924 49.1186 116.199 49.1186H117.474H123.423H124.698C124.973 49.1186 125.198 48.8937 125.198 48.6189C125.198 48.3391 124.973 48.1192 124.698 48.1192ZM122.923 48.1192H120.949V44.3966C120.949 44.1218 120.724 43.8969 120.449 43.8969C120.174 43.8969 119.949 44.1218 119.949 44.3966V48.1192H117.974V40.669H122.923V48.1192Z" fill="#172122" fill-opacity="0.1"/>
<path d="M184.002 62.7448H185.277H191.226H192.501C192.776 62.7448 193.001 62.52 193.001 62.2451C193.001 61.9703 192.776 61.7455 192.501 61.7455H191.726V53.7956C191.726 53.5208 191.501 53.2959 191.226 53.2959H185.277C185.002 53.2959 184.777 53.5208 184.777 53.7956V61.7455H184.002C183.727 61.7455 183.502 61.9703 183.502 62.2451C183.502 62.52 183.722 62.7448 184.002 62.7448ZM185.777 54.2953H190.726V61.7455H188.752V58.0229C188.752 57.748 188.527 57.5232 188.252 57.5232C187.977 57.5232 187.752 57.748 187.752 58.0229V61.7455H185.777V54.2953Z" fill="#172122" fill-opacity="0.1"/>
<path d="M170.44 62.7448H171.715H177.664H178.938C179.213 62.7448 179.438 62.52 179.438 62.2451C179.438 61.9703 179.213 61.7455 178.938 61.7455H178.163V53.7956C178.163 53.5208 177.939 53.2959 177.664 53.2959H171.715C171.44 53.2959 171.215 53.5208 171.215 53.7956V61.7455H170.44C170.165 61.7455 169.94 61.9703 169.94 62.2451C169.94 62.52 170.165 62.7448 170.44 62.7448ZM172.215 54.2953H177.164V61.7455H175.189V58.0229C175.189 57.748 174.964 57.5232 174.689 57.5232C174.414 57.5232 174.189 57.748 174.189 58.0229V61.7455H172.215V54.2953Z" fill="#172122" fill-opacity="0.1"/>
<path d="M184.002 75.5463H185.277H191.226H192.501C192.776 75.5463 193.001 75.3215 193.001 75.0466C193.001 74.7718 192.776 74.547 192.501 74.547H191.726V66.5971C191.726 66.3223 191.501 66.0974 191.226 66.0974H185.277C185.002 66.0974 184.777 66.3223 184.777 66.5971V74.547H184.002C183.727 74.547 183.502 74.7718 183.502 75.0466C183.502 75.3215 183.722 75.5463 184.002 75.5463ZM185.777 67.0968H190.726V74.547H188.752V70.8244C188.752 70.5495 188.527 70.3247 188.252 70.3247C187.977 70.3247 187.752 70.5495 187.752 70.8244V74.547H185.777V67.0968Z" fill="#172122" fill-opacity="0.1"/>
<path d="M170.44 75.5463H171.715H177.664H178.938C179.213 75.5463 179.438 75.3215 179.438 75.0466C179.438 74.7718 179.213 74.547 178.938 74.547H178.163V66.5971C178.163 66.3223 177.939 66.0974 177.664 66.0974H171.715C171.44 66.0974 171.215 66.3223 171.215 66.5971V74.547H170.44C170.165 74.547 169.94 74.7718 169.94 75.0466C169.94 75.3215 170.165 75.5463 170.44 75.5463ZM172.215 67.0968H177.164V74.547H175.189V70.8244C175.189 70.5495 174.964 70.3247 174.689 70.3247C174.414 70.3247 174.189 70.5495 174.189 70.8244V74.547H172.215V67.0968Z" fill="#172122" fill-opacity="0.1"/>
<path d="M156.882 62.7448H158.157H164.106H165.381C165.656 62.7448 165.881 62.52 165.881 62.2451C165.881 61.9703 165.656 61.7455 165.381 61.7455H164.606V53.7956C164.606 53.5208 164.381 53.2959 164.106 53.2959H158.157C157.882 53.2959 157.657 53.5208 157.657 53.7956V61.7455H156.882C156.607 61.7455 156.382 61.9703 156.382 62.2451C156.382 62.52 156.607 62.7448 156.882 62.7448ZM158.657 54.2953H163.606V61.7455H161.631V58.0229C161.631 57.748 161.406 57.5232 161.131 57.5232C160.857 57.5232 160.632 57.748 160.632 58.0229V61.7455H158.657V54.2953Z" fill="#172122" fill-opacity="0.1"/>
<path d="M143.319 62.7448H144.594H150.543H151.818C152.093 62.7448 152.318 62.52 152.318 62.2451C152.318 61.9703 152.093 61.7455 151.818 61.7455H151.043V53.7956C151.043 53.5208 150.818 53.2959 150.543 53.2959H144.594C144.319 53.2959 144.094 53.5208 144.094 53.7956V61.7455H143.319C143.045 61.7455 142.82 61.9703 142.82 62.2451C142.82 62.52 143.045 62.7448 143.319 62.7448ZM145.094 54.2953H150.043V61.7455H148.069V58.0229C148.069 57.748 147.844 57.5232 147.569 57.5232C147.294 57.5232 147.069 57.748 147.069 58.0229V61.7455H145.094V54.2953Z" fill="#172122" fill-opacity="0.1"/>
<path d="M129.762 62.7448H131.037H136.986H138.26C138.535 62.7448 138.76 62.52 138.76 62.2451C138.76 61.9703 138.535 61.7455 138.26 61.7455H137.485V53.7956C137.485 53.5208 137.261 53.2959 136.986 53.2959H131.037C130.762 53.2959 130.537 53.5208 130.537 53.7956V61.7455H129.762C129.487 61.7455 129.262 61.9703 129.262 62.2451C129.262 62.52 129.487 62.7448 129.762 62.7448ZM131.537 54.2953H136.486V61.7455H134.511V58.0229C134.511 57.748 134.286 57.5232 134.011 57.5232C133.736 57.5232 133.511 57.748 133.511 58.0229V61.7455H131.537V54.2953Z" fill="#172122" fill-opacity="0.1"/>
<path d="M124.698 61.7455H123.923V53.7956C123.923 53.5208 123.698 53.2959 123.423 53.2959H117.474C117.199 53.2959 116.974 53.5208 116.974 53.7956V61.7455H116.199C115.924 61.7455 115.699 61.9703 115.699 62.2451C115.699 62.52 115.924 62.7448 116.199 62.7448H117.474H123.423H124.698C124.973 62.7448 125.198 62.52 125.198 62.2451C125.198 61.9653 124.973 61.7455 124.698 61.7455ZM122.923 61.7455H120.949V58.0229C120.949 57.748 120.724 57.5232 120.449 57.5232C120.174 57.5232 119.949 57.748 119.949 58.0229V61.7455H117.974V54.2953H122.923V61.7455Z" fill="#172122" fill-opacity="0.1"/>
<path d="M124.698 74.547H123.923V66.5971C123.923 66.3223 123.698 66.0974 123.423 66.0974H117.474C117.199 66.0974 116.974 66.3223 116.974 66.5971V74.547H116.199C115.924 74.547 115.699 74.7718 115.699 75.0466C115.699 75.3215 115.924 75.5463 116.199 75.5463H117.474H123.423H124.698C124.973 75.5463 125.198 75.3215 125.198 75.0466C125.198 74.7718 124.973 74.547 124.698 74.547ZM122.923 74.547H120.949V70.8244C120.949 70.5495 120.724 70.3247 120.449 70.3247C120.174 70.3247 119.949 70.5495 119.949 70.8244V74.547H117.974V67.0968H122.923V74.547Z" fill="#172122" fill-opacity="0.1"/>
<path d="M248.046 81.5476H242.602C242.327 81.5476 242.102 81.7725 242.102 82.0473V90.9965C242.102 91.2713 242.327 91.4962 242.602 91.4962H248.046C248.321 91.4962 248.546 91.2713 248.546 90.9965V82.0473C248.546 81.7725 248.321 81.5476 248.046 81.5476ZM247.546 90.4968H243.102V88.1983H247.546V90.4968ZM247.546 87.199H243.102V82.547H247.546V87.199Z" fill="#172122" fill-opacity="0.1"/>
<path d="M248.546 69.6152C248.546 69.3403 248.321 69.1155 248.046 69.1155H242.602C242.327 69.1155 242.102 69.3403 242.102 69.6152V78.5644C242.102 78.8392 242.327 79.0641 242.602 79.0641H248.046C248.321 79.0641 248.546 78.8392 248.546 78.5644V69.6152ZM247.546 78.0647H243.102V75.7662H247.546V78.0647ZM247.546 74.7668H243.102V70.1148H247.546V74.7668Z" fill="#172122" fill-opacity="0.1"/>
<path d="M248.546 57.1833C248.546 56.9084 248.321 56.6836 248.046 56.6836H242.602C242.327 56.6836 242.102 56.9084 242.102 57.1833V66.1325C242.102 66.4073 242.327 66.6322 242.602 66.6322H248.046C248.321 66.6322 248.546 66.4073 248.546 66.1325V57.1833ZM247.546 65.6328H243.102V63.3343H247.546V65.6328ZM247.546 62.335H243.102V57.6829H247.546V62.335Z" fill="#172122" fill-opacity="0.1"/>
<path d="M248.546 44.7511C248.546 44.4763 248.321 44.2515 248.046 44.2515H242.602C242.327 44.2515 242.102 44.4763 242.102 44.7511V53.7004C242.102 53.9752 242.327 54.2001 242.602 54.2001H248.046C248.321 54.2001 248.546 53.9752 248.546 53.7004V44.7511ZM247.546 53.2007H243.102V50.9022H247.546V53.2007ZM247.546 49.9028H243.102V45.2508H247.546V49.9028Z" fill="#172122" fill-opacity="0.1"/>
<path d="M248.546 32.3241C248.546 32.0493 248.321 31.8245 248.046 31.8245H242.602C242.327 31.8245 242.102 32.0493 242.102 32.3241V41.2734C242.102 41.5482 242.327 41.773 242.602 41.773H248.046C248.321 41.773 248.546 41.5482 248.546 41.2734V32.3241ZM247.546 40.7687H243.102V38.4702H247.546V40.7687ZM247.546 37.4708H243.102V32.8188H247.546V37.4708Z" fill="#172122" fill-opacity="0.1"/>
<path d="M248.546 19.8923C248.546 19.6174 248.321 19.3926 248.046 19.3926H242.602C242.327 19.3926 242.102 19.6174 242.102 19.8923V28.8415C242.102 29.1163 242.327 29.3412 242.602 29.3412H248.046C248.321 29.3412 248.546 29.1163 248.546 28.8415V19.8923ZM247.546 28.3368H243.102V26.0383H247.546V28.3368ZM247.546 25.0439H243.102V20.3919H247.546V25.0439Z" fill="#172122" fill-opacity="0.1"/>
<path d="M248.546 7.46013C248.546 7.1853 248.321 6.96045 248.046 6.96045H242.602C242.327 6.96045 242.102 7.1853 242.102 7.46013V16.4094C242.102 16.6842 242.327 16.909 242.602 16.909H248.046C248.321 16.909 248.546 16.6842 248.546 16.4094V7.46013ZM247.546 15.9047H243.102V13.6062H247.546V15.9047ZM247.546 12.6118H243.102V7.9598H247.546V12.6118Z" fill="#172122" fill-opacity="0.1"/>
<path d="M256.795 69.1155H251.35C251.076 69.1155 250.851 69.3403 250.851 69.6152V78.5644C250.851 78.8392 251.076 79.0641 251.35 79.0641H256.795C257.069 79.0641 257.294 78.8392 257.294 78.5644V69.6152C257.294 69.3403 257.069 69.1155 256.795 69.1155ZM256.295 78.0647H251.85V75.7662H256.295V78.0647ZM256.295 74.7668H251.85V70.1148H256.295V74.7668Z" fill="#172122" fill-opacity="0.1"/>
<path d="M257.294 57.1833C257.294 56.9084 257.069 56.6836 256.795 56.6836H251.35C251.076 56.6836 250.851 56.9084 250.851 57.1833V66.1325C250.851 66.4073 251.076 66.6322 251.35 66.6322H256.795C257.069 66.6322 257.294 66.4073 257.294 66.1325V57.1833ZM256.295 65.6328H251.85V63.3343H256.295V65.6328ZM256.295 62.335H251.85V57.6829H256.295V62.335Z" fill="#172122" fill-opacity="0.1"/>
<path d="M257.294 44.7511C257.294 44.4763 257.069 44.2515 256.795 44.2515H251.35C251.076 44.2515 250.851 44.4763 250.851 44.7511V53.7004C250.851 53.9752 251.076 54.2001 251.35 54.2001H256.795C257.069 54.2001 257.294 53.9752 257.294 53.7004V44.7511ZM256.295 53.2007H251.85V50.9022H256.295V53.2007ZM256.295 49.9028H251.85V45.2508H256.295V49.9028Z" fill="#172122" fill-opacity="0.1"/>
<path d="M257.294 32.3241C257.294 32.0493 257.069 31.8245 256.795 31.8245H251.35C251.076 31.8245 250.851 32.0493 250.851 32.3241V41.2734C250.851 41.5482 251.076 41.773 251.35 41.773H256.795C257.069 41.773 257.294 41.5482 257.294 41.2734V32.3241ZM256.295 40.7687H251.85V38.4702H256.295V40.7687ZM256.295 37.4708H251.85V32.8188H256.295V37.4708Z" fill="#172122" fill-opacity="0.1"/>
<path d="M257.294 19.8923C257.294 19.6174 257.069 19.3926 256.795 19.3926H251.35C251.076 19.3926 250.851 19.6174 250.851 19.8923V28.8415C250.851 29.1163 251.076 29.3412 251.35 29.3412H256.795C257.069 29.3412 257.294 29.1163 257.294 28.8415V19.8923ZM256.295 28.3368H251.85V26.0383H256.295V28.3368ZM256.295 25.0439H251.85V20.3919H256.295V25.0439Z" fill="#172122" fill-opacity="0.1"/>
<path d="M257.294 7.46013C257.294 7.1853 257.069 6.96045 256.795 6.96045H251.35C251.076 6.96045 250.851 7.1853 250.851 7.46013V16.4094C250.851 16.6842 251.076 16.909 251.35 16.909H256.795C257.069 16.909 257.294 16.6842 257.294 16.4094V7.46013ZM256.295 15.9047H251.85V13.6062H256.295V15.9047ZM256.295 12.6118H251.85V7.9598H256.295V12.6118Z" fill="#172122" fill-opacity="0.1"/>
<path d="M141.89 94.2992C142.165 94.2992 142.39 94.0743 142.39 93.7995V91.8407C142.39 91.5659 142.165 91.3411 141.89 91.3411C141.615 91.3411 141.39 91.5659 141.39 91.8407V93.7995C141.39 94.0793 141.61 94.2992 141.89 94.2992Z" fill="#172122" fill-opacity="0.1"/>
<path d="M147.514 94.2992C147.789 94.2992 148.014 94.0743 148.014 93.7995V91.8407C148.014 91.5659 147.789 91.3411 147.514 91.3411C147.239 91.3411 147.014 91.5659 147.014 91.8407V93.7995C147.014 94.0793 147.234 94.2992 147.514 94.2992Z" fill="#172122" fill-opacity="0.1"/>
<path d="M80.6007 96.1678C80.8757 96.1678 81.1007 95.943 81.1007 95.6682V92.755C81.1007 92.4802 80.8757 92.2554 80.6007 92.2554C80.3258 92.2554 80.1008 92.4802 80.1008 92.755V95.6682C80.1008 95.943 80.3258 96.1678 80.6007 96.1678Z" fill="#172122" fill-opacity="0.1"/>
<path d="M80.6007 90.7865C80.8757 90.7865 81.1007 90.5617 81.1007 90.2868V87.3737C81.1007 87.0989 80.8757 86.874 80.6007 86.874C80.3258 86.874 80.1008 87.0989 80.1008 87.3737V90.2868C80.1008 90.5667 80.3258 90.7865 80.6007 90.7865Z" fill="#172122" fill-opacity="0.1"/>
<path d="M80.6007 85.41C80.8757 85.41 81.1007 85.1852 81.1007 84.9104V81.9972C81.1007 81.7224 80.8757 81.4976 80.6007 81.4976C80.3258 81.4976 80.1008 81.7224 80.1008 81.9972V84.9104C80.1008 85.1852 80.3258 85.41 80.6007 85.41Z" fill="#172122" fill-opacity="0.1"/>
<path d="M80.6007 80.0284C80.8757 80.0284 81.1007 79.8036 81.1007 79.5288V76.6156C81.1007 76.3408 80.8757 76.116 80.6007 76.116C80.3258 76.116 80.1008 76.3408 80.1008 76.6156V79.5288C80.1008 79.8036 80.3258 80.0284 80.6007 80.0284Z" fill="#172122" fill-opacity="0.1"/>
<path d="M80.6007 74.6517C80.8757 74.6517 81.1007 74.4269 81.1007 74.1521V71.2389C81.1007 70.9641 80.8757 70.7393 80.6007 70.7393C80.3258 70.7393 80.1008 70.9641 80.1008 71.2389V74.1521C80.1008 74.4269 80.3258 74.6517 80.6007 74.6517Z" fill="#172122" fill-opacity="0.1"/>
<path d="M80.6007 69.2704C80.8757 69.2704 81.1007 69.0455 81.1007 68.7707V65.8576C81.1007 65.5828 80.8757 65.3579 80.6007 65.3579C80.3258 65.3579 80.1008 65.5828 80.1008 65.8576V68.7707C80.1008 69.0455 80.3258 69.2704 80.6007 69.2704Z" fill="#172122" fill-opacity="0.1"/>
<path d="M80.6007 63.8888C80.8757 63.8888 81.1007 63.6639 81.1007 63.3891V60.476C81.1007 60.2012 80.8757 59.9763 80.6007 59.9763C80.3258 59.9763 80.1008 60.2012 80.1008 60.476V63.3891C80.1008 63.6639 80.3258 63.8888 80.6007 63.8888Z" fill="#172122" fill-opacity="0.1"/>
<path d="M80.6007 58.5123C80.8757 58.5123 81.1007 58.2875 81.1007 58.0127V55.0995C81.1007 54.8247 80.8757 54.5999 80.6007 54.5999C80.3258 54.5999 80.1008 54.8247 80.1008 55.0995V58.0127C80.1008 58.2875 80.3258 58.5123 80.6007 58.5123Z" fill="#172122" fill-opacity="0.1"/>
<path d="M80.6007 53.131C80.8757 53.131 81.1007 52.9061 81.1007 52.6313V49.7182C81.1007 49.4434 80.8757 49.2185 80.6007 49.2185C80.3258 49.2185 80.1008 49.4434 80.1008 49.7182V52.6313C80.1008 52.9061 80.3258 53.131 80.6007 53.131Z" fill="#172122" fill-opacity="0.1"/>
<path d="M80.6007 47.7491C80.8757 47.7491 81.1007 47.5243 81.1007 47.2495V44.3363C81.1007 44.0615 80.8757 43.8367 80.6007 43.8367C80.3258 43.8367 80.1008 44.0615 80.1008 44.3363V47.2495C80.1008 47.5293 80.3258 47.7491 80.6007 47.7491Z" fill="#172122" fill-opacity="0.1"/>
<path d="M80.6007 42.3727C80.8757 42.3727 81.1007 42.1478 81.1007 41.873V38.9599C81.1007 38.6851 80.8757 38.4602 80.6007 38.4602C80.3258 38.4602 80.1008 38.6851 80.1008 38.9599V41.873C80.1008 42.1478 80.3258 42.3727 80.6007 42.3727Z" fill="#172122" fill-opacity="0.1"/>
<path d="M80.6007 36.9913C80.8757 36.9913 81.1007 36.7665 81.1007 36.4917V33.5785C81.1007 33.3037 80.8757 33.0789 80.6007 33.0789C80.3258 33.0789 80.1008 33.3037 80.1008 33.5785V36.4917C80.1008 36.7665 80.3258 36.9913 80.6007 36.9913Z" fill="#172122" fill-opacity="0.1"/>
<path d="M80.6007 31.6095C80.8757 31.6095 81.1007 31.3846 81.1007 31.1098V28.1967C81.1007 27.9219 80.8757 27.697 80.6007 27.697C80.3258 27.697 80.1008 27.9219 80.1008 28.1967V31.1098C80.1008 31.3896 80.3258 31.6095 80.6007 31.6095Z" fill="#172122" fill-opacity="0.1"/>
<path d="M80.6007 26.233C80.8757 26.233 81.1007 26.0082 81.1007 25.7334V22.8202C81.1007 22.5454 80.8757 22.3206 80.6007 22.3206C80.3258 22.3206 80.1008 22.5454 80.1008 22.8202V25.7334C80.1008 26.0082 80.3258 26.233 80.6007 26.233Z" fill="#172122" fill-opacity="0.1"/>
<path d="M80.6007 20.8514C80.8757 20.8514 81.1007 20.6266 81.1007 20.3518V17.4386C81.1007 17.1638 80.8757 16.939 80.6007 16.939C80.3258 16.939 80.1008 17.1638 80.1008 17.4386V20.3518C80.1008 20.6266 80.3258 20.8514 80.6007 20.8514Z" fill="#172122" fill-opacity="0.1"/>
<path d="M78.246 97.5121C78.521 97.5121 78.7459 97.2872 78.7459 97.0124V94.0993C78.7459 93.8245 78.521 93.5996 78.246 93.5996C77.9711 93.5996 77.7461 93.8245 77.7461 94.0993V97.0124C77.7461 97.2872 77.9711 97.5121 78.246 97.5121Z" fill="#172122" fill-opacity="0.1"/>
<path d="M78.246 92.1356C78.521 92.1356 78.7459 91.9108 78.7459 91.6359V88.7228C78.7459 88.448 78.521 88.2231 78.246 88.2231C77.9711 88.2231 77.7461 88.448 77.7461 88.7228V91.6359C77.7461 91.9108 77.9711 92.1356 78.246 92.1356Z" fill="#172122" fill-opacity="0.1"/>
<path d="M78.246 86.7543C78.521 86.7543 78.7459 86.5294 78.7459 86.2546V83.3415C78.7459 83.0667 78.521 82.8418 78.246 82.8418C77.9711 82.8418 77.7461 83.0667 77.7461 83.3415V86.2546C77.7461 86.5294 77.9711 86.7543 78.246 86.7543Z" fill="#172122" fill-opacity="0.1"/>
<path d="M78.246 81.3727C78.521 81.3727 78.7459 81.1478 78.7459 80.873V77.9599C78.7459 77.6851 78.521 77.4602 78.246 77.4602C77.9711 77.4602 77.7461 77.6851 77.7461 77.9599V80.873C77.7461 81.1528 77.9711 81.3727 78.246 81.3727Z" fill="#172122" fill-opacity="0.1"/>
<path d="M78.246 75.996C78.521 75.996 78.7459 75.7711 78.7459 75.4963V72.5832C78.7459 72.3084 78.521 72.0835 78.246 72.0835C77.9711 72.0835 77.7461 72.3084 77.7461 72.5832V75.4963C77.7461 75.7711 77.9711 75.996 78.246 75.996Z" fill="#172122" fill-opacity="0.1"/>
<path d="M78.246 70.6146C78.521 70.6146 78.7459 70.3898 78.7459 70.1149V67.2018C78.7459 66.927 78.521 66.7021 78.246 66.7021C77.9711 66.7021 77.7461 66.927 77.7461 67.2018V70.1149C77.7461 70.3898 77.9711 70.6146 78.246 70.6146Z" fill="#172122" fill-opacity="0.1"/>
<path d="M78.246 65.233C78.521 65.233 78.7459 65.0082 78.7459 64.7333V61.8202C78.7459 61.5454 78.521 61.3206 78.246 61.3206C77.9711 61.3206 77.7461 61.5454 77.7461 61.8202V64.7333C77.7461 65.0132 77.9711 65.233 78.246 65.233Z" fill="#172122" fill-opacity="0.1"/>
<path d="M78.246 59.8563C78.521 59.8563 78.7459 59.6315 78.7459 59.3566V56.4435C78.7459 56.1687 78.521 55.9438 78.246 55.9438C77.9711 55.9438 77.7461 56.1687 77.7461 56.4435V59.3566C77.7461 59.6315 77.9711 59.8563 78.246 59.8563Z" fill="#172122" fill-opacity="0.1"/>
<path d="M78.246 54.475C78.521 54.475 78.7459 54.2501 78.7459 53.9753V51.0622C78.7459 50.7874 78.521 50.5625 78.246 50.5625C77.9711 50.5625 77.7461 50.7874 77.7461 51.0622V53.9753C77.7461 54.2501 77.9711 54.475 78.246 54.475Z" fill="#172122" fill-opacity="0.1"/>
<path d="M78.246 49.0985C78.521 49.0985 78.7459 48.8737 78.7459 48.5988V45.6857C78.7459 45.4109 78.521 45.186 78.246 45.186C77.9711 45.186 77.7461 45.4109 77.7461 45.6857V48.5988C77.7461 48.8737 77.9711 49.0985 78.246 49.0985Z" fill="#172122" fill-opacity="0.1"/>
<path d="M78.246 43.7169C78.521 43.7169 78.7459 43.4921 78.7459 43.2172V40.3041C78.7459 40.0293 78.521 39.8044 78.246 39.8044C77.9711 39.8044 77.7461 40.0293 77.7461 40.3041V43.2172C77.7461 43.4921 77.9711 43.7169 78.246 43.7169Z" fill="#172122" fill-opacity="0.1"/>
<path d="M78.246 38.3353C78.521 38.3353 78.7459 38.1105 78.7459 37.8357V34.9225C78.7459 34.6477 78.521 34.4229 78.246 34.4229C77.9711 34.4229 77.7461 34.6477 77.7461 34.9225V37.8357C77.7461 38.1105 77.9711 38.3353 78.246 38.3353Z" fill="#172122" fill-opacity="0.1"/>
<path d="M78.246 32.9591C78.521 32.9591 78.7459 32.7343 78.7459 32.4594V29.5463C78.7459 29.2715 78.521 29.0466 78.246 29.0466C77.9711 29.0466 77.7461 29.2715 77.7461 29.5463V32.4594C77.7461 32.7343 77.9711 32.9591 78.246 32.9591Z" fill="#172122" fill-opacity="0.1"/>
<path d="M78.246 27.5773C78.521 27.5773 78.7459 27.3524 78.7459 27.0776V24.1645C78.7459 23.8896 78.521 23.6648 78.246 23.6648C77.9711 23.6648 77.7461 23.8896 77.7461 24.1645V27.0776C77.7461 27.3524 77.9711 27.5773 78.246 27.5773Z" fill="#172122" fill-opacity="0.1"/>
<path d="M78.246 22.1957C78.521 22.1957 78.7459 21.9708 78.7459 21.696V18.7829C78.7459 18.5081 78.521 18.2832 78.246 18.2832C77.9711 18.2832 77.7461 18.5081 77.7461 18.7829V21.696C77.7461 21.9758 77.9711 22.1957 78.246 22.1957Z" fill="#172122" fill-opacity="0.1"/>
<path d="M75.8915 98.8561C76.1665 98.8561 76.3914 98.6312 76.3914 98.3564V95.4433C76.3914 95.1685 76.1665 94.9436 75.8915 94.9436C75.6166 94.9436 75.3916 95.1685 75.3916 95.4433V98.3564C75.3916 98.6362 75.6166 98.8561 75.8915 98.8561Z" fill="#172122" fill-opacity="0.1"/>
<path d="M75.8915 93.4796C76.1665 93.4796 76.3914 93.2548 76.3914 92.9799V90.0668C76.3914 89.792 76.1665 89.5671 75.8915 89.5671C75.6166 89.5671 75.3916 89.792 75.3916 90.0668V92.9799C75.3916 93.2548 75.6166 93.4796 75.8915 93.4796Z" fill="#172122" fill-opacity="0.1"/>
<path d="M75.8915 88.0983C76.1665 88.0983 76.3914 87.8734 76.3914 87.5986V84.6855C76.3914 84.4106 76.1665 84.1858 75.8915 84.1858C75.6166 84.1858 75.3916 84.4106 75.3916 84.6855V87.5986C75.3916 87.8734 75.6166 88.0983 75.8915 88.0983Z" fill="#172122" fill-opacity="0.1"/>
<path d="M75.8915 82.7216C76.1665 82.7216 76.3914 82.4967 76.3914 82.2219V79.3088C76.3914 79.0339 76.1665 78.8091 75.8915 78.8091C75.6166 78.8091 75.3916 79.0339 75.3916 79.3088V82.2219C75.3916 82.4967 75.6166 82.7216 75.8915 82.7216Z" fill="#172122" fill-opacity="0.1"/>
<path d="M75.8915 77.3402C76.1665 77.3402 76.3914 77.1154 76.3914 76.8405V73.9274C76.3914 73.6526 76.1665 73.4277 75.8915 73.4277C75.6166 73.4277 75.3916 73.6526 75.3916 73.9274V76.8405C75.3916 77.1154 75.6166 77.3402 75.8915 77.3402Z" fill="#172122" fill-opacity="0.1"/>
<path d="M75.8915 71.9586C76.1665 71.9586 76.3914 71.7338 76.3914 71.4589V68.5458C76.3914 68.271 76.1665 68.0461 75.8915 68.0461C75.6166 68.0461 75.3916 68.271 75.3916 68.5458V71.4589C75.3916 71.7338 75.6166 71.9586 75.8915 71.9586Z" fill="#172122" fill-opacity="0.1"/>
<path d="M75.8915 66.5819C76.1665 66.5819 76.3914 66.3571 76.3914 66.0822V63.1691C76.3914 62.8943 76.1665 62.6694 75.8915 62.6694C75.6166 62.6694 75.3916 62.8943 75.3916 63.1691V66.0822C75.3916 66.3571 75.6166 66.5819 75.8915 66.5819Z" fill="#172122" fill-opacity="0.1"/>
<path d="M75.8915 61.2006C76.1665 61.2006 76.3914 60.9757 76.3914 60.7009V57.7878C76.3914 57.5129 76.1665 57.2881 75.8915 57.2881C75.6166 57.2881 75.3916 57.5129 75.3916 57.7878V60.7009C75.3916 60.9757 75.6166 61.2006 75.8915 61.2006Z" fill="#172122" fill-opacity="0.1"/>
<path d="M75.8915 55.819C76.1665 55.819 76.3914 55.5941 76.3914 55.3193V52.4062C76.3914 52.1313 76.1665 51.9065 75.8915 51.9065C75.6166 51.9065 75.3916 52.1313 75.3916 52.4062V55.3193C75.3916 55.5991 75.6166 55.819 75.8915 55.819Z" fill="#172122" fill-opacity="0.1"/>
<path d="M75.8915 50.4428C76.1665 50.4428 76.3914 50.2179 76.3914 49.9431V47.03C76.3914 46.7551 76.1665 46.5303 75.8915 46.5303C75.6166 46.5303 75.3916 46.7551 75.3916 47.03V49.9431C75.3916 50.2179 75.6166 50.4428 75.8915 50.4428Z" fill="#172122" fill-opacity="0.1"/>
<path d="M75.8915 45.0612C76.1665 45.0612 76.3914 44.8363 76.3914 44.5615V41.6484C76.3914 41.3735 76.1665 41.1487 75.8915 41.1487C75.6166 41.1487 75.3916 41.3735 75.3916 41.6484V44.5615C75.3916 44.8363 75.6166 45.0612 75.8915 45.0612Z" fill="#172122" fill-opacity="0.1"/>
<path d="M75.8915 39.6793C76.1665 39.6793 76.3914 39.4545 76.3914 39.1796V36.2665C76.3914 35.9917 76.1665 35.7668 75.8915 35.7668C75.6166 35.7668 75.3916 35.9917 75.3916 36.2665V39.1796C75.3916 39.4595 75.6166 39.6793 75.8915 39.6793Z" fill="#172122" fill-opacity="0.1"/>
<path d="M75.8915 34.3031C76.1665 34.3031 76.3914 34.0782 76.3914 33.8034V30.8903C76.3914 30.6155 76.1665 30.3906 75.8915 30.3906C75.6166 30.3906 75.3916 30.6155 75.3916 30.8903V33.8034C75.3916 34.0782 75.6166 34.3031 75.8915 34.3031Z" fill="#172122" fill-opacity="0.1"/>
<path d="M75.8915 28.9213C76.1665 28.9213 76.3914 28.6964 76.3914 28.4216V25.5085C76.3914 25.2336 76.1665 25.0088 75.8915 25.0088C75.6166 25.0088 75.3916 25.2336 75.3916 25.5085V28.4216C75.3916 28.6964 75.6166 28.9213 75.8915 28.9213Z" fill="#172122" fill-opacity="0.1"/>
<path d="M75.8915 23.5397C76.1665 23.5397 76.3914 23.3148 76.3914 23.04V20.1269C76.3914 19.8521 76.1665 19.6272 75.8915 19.6272C75.6166 19.6272 75.3916 19.8521 75.3916 20.1269V23.04C75.3916 23.3198 75.6166 23.5397 75.8915 23.5397Z" fill="#172122" fill-opacity="0.1"/>
<path d="M108.006 77.2251L105.086 79.6635C104.876 79.8384 104.846 80.1532 105.021 80.3681C105.121 80.488 105.261 80.548 105.406 80.548C105.521 80.548 105.631 80.508 105.726 80.433L108.646 77.9946C108.856 77.8197 108.886 77.5049 108.711 77.2901C108.531 77.0752 108.216 77.0452 108.006 77.2251Z" fill="#172122" fill-opacity="0.1"/>
<path d="M108.006 74.1972L104.121 77.4451C103.911 77.62 103.881 77.9348 104.056 78.1497C104.156 78.2696 104.296 78.3296 104.441 78.3296C104.556 78.3296 104.666 78.2896 104.761 78.2147L108.646 74.9668C108.856 74.7919 108.886 74.4771 108.711 74.2622C108.531 74.0523 108.216 74.0224 108.006 74.1972Z" fill="#172122" fill-opacity="0.1"/>
<path d="M108.006 71.1741L102.517 75.7611C102.307 75.936 102.277 76.2508 102.452 76.4657C102.552 76.5856 102.692 76.6456 102.837 76.6456C102.952 76.6456 103.062 76.6056 103.157 76.5306L108.646 71.9436C108.856 71.7687 108.886 71.4539 108.711 71.239C108.531 71.0242 108.216 70.9942 108.006 71.1741Z" fill="#172122" fill-opacity="0.1"/>
<path d="M108.711 68.2109C108.536 68.0011 108.221 67.9711 108.006 68.146L100.177 74.6818C99.9674 74.8566 99.9374 75.1714 100.112 75.3863C100.212 75.5062 100.352 75.5662 100.497 75.5662C100.612 75.5662 100.722 75.5262 100.817 75.4513L108.646 68.9155C108.861 68.7356 108.886 68.4208 108.711 68.2109Z" fill="#172122" fill-opacity="0.1"/>
<path d="M108.711 65.1831C108.536 64.9732 108.221 64.9433 108.006 65.1181L97.7576 73.6776C97.5477 73.8525 97.5177 74.1673 97.6927 74.3822C97.7926 74.5021 97.9326 74.5621 98.0776 74.5621C98.1926 74.5621 98.3026 74.5221 98.3975 74.4471L108.646 65.8877C108.861 65.7128 108.886 65.398 108.711 65.1831Z" fill="#172122" fill-opacity="0.1"/>
<path d="M96.9277 72.4982C97.0427 72.4982 97.1527 72.4583 97.2476 72.3833L108.646 62.8645C108.856 62.6896 108.886 62.3748 108.711 62.1599C108.536 61.95 108.221 61.9201 108.006 62.0949L96.6077 71.6138C96.3978 71.7887 96.3678 72.1035 96.5428 72.3184C96.6427 72.4383 96.7877 72.4982 96.9277 72.4982Z" fill="#172122" fill-opacity="0.1"/>
<path d="M96.9277 69.4702C97.0427 69.4702 97.1527 69.4302 97.2476 69.3552L108.646 59.8364C108.856 59.6615 108.886 59.3467 108.711 59.1318C108.536 58.922 108.221 58.892 108.006 59.0669L96.6077 68.5857C96.3978 68.7606 96.3678 69.0754 96.5428 69.2903C96.6427 69.4102 96.7877 69.4702 96.9277 69.4702Z" fill="#172122" fill-opacity="0.1"/>
<path d="M96.9277 66.4472C97.0427 66.4472 97.1527 66.4072 97.2476 66.3323L108.646 56.8134C108.856 56.6385 108.886 56.3237 108.711 56.1089C108.536 55.899 108.221 55.869 108.006 56.0439L96.6077 65.5628C96.3978 65.7377 96.3678 66.0525 96.5428 66.2673C96.6427 66.3873 96.7877 66.4472 96.9277 66.4472Z" fill="#172122" fill-opacity="0.1"/>
<path d="M96.9277 63.4189C97.0427 63.4189 97.1527 63.3789 97.2476 63.304L108.646 53.7851C108.856 53.6102 108.886 53.2954 108.711 53.0806C108.536 52.8707 108.221 52.8407 108.006 53.0156L96.6077 62.5345C96.3978 62.7094 96.3678 63.0242 96.5428 63.239C96.6427 63.3589 96.7877 63.4189 96.9277 63.4189Z" fill="#172122" fill-opacity="0.1"/>
<path d="M96.9277 60.3959C97.0427 60.3959 97.1527 60.356 97.2476 60.281L108.646 50.7622C108.856 50.5873 108.886 50.2725 108.711 50.0576C108.536 49.8478 108.221 49.8178 108.006 49.9927L96.6077 59.5115C96.3978 59.6864 96.3678 60.0012 96.5428 60.2161C96.6427 60.331 96.7877 60.3959 96.9277 60.3959Z" fill="#172122" fill-opacity="0.1"/>
<path d="M96.9277 57.3681C97.0427 57.3681 97.1527 57.3281 97.2476 57.2532L108.646 47.7343C108.856 47.5594 108.886 47.2446 108.711 47.0298C108.536 46.8199 108.221 46.7899 108.006 46.9648L96.6077 56.4837C96.3978 56.6586 96.3678 56.9734 96.5428 57.1882C96.6427 57.3082 96.7877 57.3681 96.9277 57.3681Z" fill="#172122" fill-opacity="0.1"/>
<path d="M96.9277 54.34C97.0427 54.34 97.1527 54.3001 97.2476 54.2251L108.646 44.7063C108.856 44.5314 108.886 44.2166 108.711 44.0017C108.536 43.7918 108.221 43.7619 108.006 43.9367L96.6077 53.4556C96.3978 53.6305 96.3678 53.9453 96.5428 54.1602C96.6427 54.2801 96.7877 54.34 96.9277 54.34Z" fill="#172122" fill-opacity="0.1"/>
<path d="M96.9277 51.3168C97.0427 51.3168 97.1527 51.2769 97.2476 51.2019L108.646 41.6831C108.856 41.5082 108.886 41.1934 108.711 40.9785C108.536 40.7686 108.221 40.7387 108.006 40.9136L96.6077 50.4324C96.3978 50.6073 96.3678 50.9221 96.5428 51.137C96.6427 51.2569 96.7877 51.3168 96.9277 51.3168Z" fill="#172122" fill-opacity="0.1"/>
<path d="M96.9277 48.289C97.0427 48.289 97.1527 48.249 97.2476 48.1741L108.646 38.6552C108.856 38.4803 108.886 38.1655 108.711 37.9507C108.536 37.7408 108.221 37.7108 108.006 37.8857L96.6077 47.4046C96.3978 47.5795 96.3678 47.8943 96.5428 48.1091C96.6427 48.2291 96.7877 48.289 96.9277 48.289Z" fill="#172122" fill-opacity="0.1"/>
<path d="M321.998 97.7718H324.837C325.112 97.7718 325.337 97.547 325.337 97.2722V94.2841C325.337 94.0093 325.112 93.7844 324.837 93.7844H321.998C321.723 93.7844 321.498 94.0093 321.498 94.2841V97.2722C321.498 97.547 321.723 97.7718 321.998 97.7718ZM322.498 94.7838H324.338V96.7725H322.498V94.7838Z" fill="#172122" fill-opacity="0.1"/>
<path d="M317.514 97.7718H320.353C320.628 97.7718 320.853 97.547 320.853 97.2722V94.2841C320.853 94.0093 320.628 93.7844 320.353 93.7844H317.514C317.239 93.7844 317.014 94.0093 317.014 94.2841V97.2722C317.014 97.547 317.239 97.7718 317.514 97.7718ZM318.013 94.7838H319.853V96.7725H318.013V94.7838Z" fill="#172122" fill-opacity="0.1"/>
<path d="M313.029 97.7718H315.869C316.144 97.7718 316.369 97.547 316.369 97.2722V94.2841C316.369 94.0093 316.144 93.7844 315.869 93.7844H313.029C312.755 93.7844 312.53 94.0093 312.53 94.2841V97.2722C312.53 97.547 312.755 97.7718 313.029 97.7718ZM313.529 94.7838H315.369V96.7725H313.529V94.7838Z" fill="#172122" fill-opacity="0.1"/>
<path d="M321.998 91.9459H324.837C325.112 91.9459 325.337 91.7211 325.337 91.4462V88.4582C325.337 88.1834 325.112 87.9585 324.837 87.9585H321.998C321.723 87.9585 321.498 88.1834 321.498 88.4582V91.4462C321.498 91.7211 321.723 91.9459 321.998 91.9459ZM322.498 88.9579H324.338V90.9466H322.498V88.9579Z" fill="#172122" fill-opacity="0.1"/>
<path d="M317.514 91.9459H320.353C320.628 91.9459 320.853 91.7211 320.853 91.4462V88.4582C320.853 88.1834 320.628 87.9585 320.353 87.9585H317.514C317.239 87.9585 317.014 88.1834 317.014 88.4582V91.4462C317.014 91.7211 317.239 91.9459 317.514 91.9459ZM318.013 88.9579H319.853V90.9466H318.013V88.9579Z" fill="#172122" fill-opacity="0.1"/>
<path d="M313.029 91.9459H315.869C316.144 91.9459 316.369 91.7211 316.369 91.4462V88.4582C316.369 88.1834 316.144 87.9585 315.869 87.9585H313.029C312.755 87.9585 312.53 88.1834 312.53 88.4582V91.4462C312.53 91.7211 312.755 91.9459 313.029 91.9459ZM313.529 88.9579H315.369V90.9466H313.529V88.9579Z" fill="#172122" fill-opacity="0.1"/>
<path d="M321.998 86.1195H324.837C325.112 86.1195 325.337 85.8947 325.337 85.6198V82.6318C325.337 82.3569 325.112 82.1321 324.837 82.1321H321.998C321.723 82.1321 321.498 82.3569 321.498 82.6318V85.6198C321.498 85.8947 321.723 86.1195 321.998 86.1195ZM322.498 83.1314H324.338V85.1202H322.498V83.1314Z" fill="#172122" fill-opacity="0.1"/>
<path d="M317.514 86.1195H320.353C320.628 86.1195 320.853 85.8947 320.853 85.6198V82.6318C320.853 82.3569 320.628 82.1321 320.353 82.1321H317.514C317.239 82.1321 317.014 82.3569 317.014 82.6318V85.6198C317.014 85.8947 317.239 86.1195 317.514 86.1195ZM318.013 83.1314H319.853V85.1202H318.013V83.1314Z" fill="#172122" fill-opacity="0.1"/>
<path d="M313.029 86.1195H315.869C316.144 86.1195 316.369 85.8947 316.369 85.6198V82.6318C316.369 82.3569 316.144 82.1321 315.869 82.1321H313.029C312.755 82.1321 312.53 82.3569 312.53 82.6318V85.6198C312.53 85.8947 312.755 86.1195 313.029 86.1195ZM313.529 83.1314H315.369V85.1202H313.529V83.1314Z" fill="#172122" fill-opacity="0.1"/>
<path d="M321.998 80.2933H324.837C325.112 80.2933 325.337 80.0685 325.337 79.7937V76.8056C325.337 76.5308 325.112 76.3059 324.837 76.3059H321.998C321.723 76.3059 321.498 76.5308 321.498 76.8056V79.7937C321.498 80.0685 321.723 80.2933 321.998 80.2933ZM322.498 77.3053H324.338V79.294H322.498V77.3053Z" fill="#172122" fill-opacity="0.1"/>
<path d="M317.514 80.2933H320.353C320.628 80.2933 320.853 80.0685 320.853 79.7937V76.8056C320.853 76.5308 320.628 76.3059 320.353 76.3059H317.514C317.239 76.3059 317.014 76.5308 317.014 76.8056V79.7937C317.014 80.0685 317.239 80.2933 317.514 80.2933ZM318.013 77.3053H319.853V79.294H318.013V77.3053Z" fill="#172122" fill-opacity="0.1"/>
<path d="M313.029 80.2933H315.869C316.144 80.2933 316.369 80.0685 316.369 79.7937V76.8056C316.369 76.5308 316.144 76.3059 315.869 76.3059H313.029C312.755 76.3059 312.53 76.5308 312.53 76.8056V79.7937C312.53 80.0685 312.755 80.2933 313.029 80.2933ZM313.529 77.3053H315.369V79.294H313.529V77.3053Z" fill="#172122" fill-opacity="0.1"/>
<path d="M271.647 90.5468C271.647 91.891 272.742 92.9853 274.086 92.9853C275.431 92.9853 276.526 91.891 276.526 90.5468C276.526 89.2027 275.431 88.1084 274.086 88.1084C272.742 88.1084 271.647 89.2027 271.647 90.5468ZM274.086 89.1078C274.881 89.1078 275.526 89.7523 275.526 90.5468C275.526 91.3413 274.881 91.9859 274.086 91.9859C273.291 91.9859 272.647 91.3413 272.647 90.5468C272.647 89.7523 273.291 89.1078 274.086 89.1078Z" fill="#172122" fill-opacity="0.1"/>
<path d="M285.864 102.994H289.244C289.519 102.994 289.743 102.769 289.743 102.494V94.2045C289.743 93.9297 289.519 93.7048 289.244 93.7048H285.864C285.589 93.7048 285.364 93.9297 285.364 94.2045V102.494C285.364 102.774 285.584 102.994 285.864 102.994ZM286.364 94.7092H288.744V101.999H286.364V94.7092Z" fill="#172122" fill-opacity="0.1"/>
<path d="M291.288 102.994H294.828C295.103 102.994 295.328 102.769 295.328 102.494V94.2045C295.328 93.9297 295.103 93.7048 294.828 93.7048H291.288C291.013 93.7048 290.788 93.9297 290.788 94.2045V102.494C290.788 102.774 291.013 102.994 291.288 102.994ZM291.788 94.7092H294.328V101.999H291.788V94.7092Z" fill="#172122" fill-opacity="0.1"/>
<path d="M42.9224 88.4079C42.9224 89.9169 44.1521 91.1462 45.6619 91.1462C47.1716 91.1462 48.4014 89.9169 48.4014 88.4079C48.4014 86.8989 47.1716 85.6697 45.6619 85.6697C44.1521 85.6697 42.9224 86.8989 42.9224 88.4079ZM45.6619 86.669C46.6217 86.669 47.4016 87.4485 47.4016 88.4079C47.4016 89.3673 46.6217 90.1468 45.6619 90.1468C44.702 90.1468 43.9222 89.3673 43.9222 88.4079C43.9222 87.4485 44.702 86.669 45.6619 86.669Z" fill="#172122" fill-opacity="0.1"/>
<path d="M59.2846 102.729H63.1939C63.4688 102.729 63.6938 102.504 63.6938 102.229V92.6454C63.6938 92.3706 63.4688 92.1458 63.1939 92.1458H59.2846C59.0096 92.1458 58.7847 92.3706 58.7847 92.6454V102.229C58.7847 102.504 59.0096 102.729 59.2846 102.729ZM59.7845 93.1401H62.694V101.725H59.7845V93.1401Z" fill="#172122" fill-opacity="0.1"/>
<path d="M65.5583 102.729H69.6525C69.9275 102.729 70.1524 102.504 70.1524 102.229V92.6454C70.1524 92.3706 69.9275 92.1458 69.6525 92.1458H65.5583C65.2833 92.1458 65.0583 92.3706 65.0583 92.6454V102.229C65.0583 102.504 65.2833 102.729 65.5583 102.729ZM66.0582 93.1401H69.1526V101.725H66.0582V93.1401Z" fill="#172122" fill-opacity="0.1"/>
<path d="M12.1029 89.8421H17.8969C18.1719 89.8421 18.3968 89.6173 18.3968 89.3425C18.3968 89.0676 18.1719 88.8428 17.8969 88.8428H12.1029C11.828 88.8428 11.603 89.0676 11.603 89.3425C11.603 89.6173 11.828 89.8421 12.1029 89.8421Z" fill="#172122" fill-opacity="0.1"/>
<path d="M12.1029 85.2901H14.3975C14.6725 85.2901 14.8974 85.0653 14.8974 84.7904C14.8974 84.5156 14.6725 84.2908 14.3975 84.2908H12.1029C11.828 84.2908 11.603 84.5156 11.603 84.7904C11.603 85.0653 11.828 85.2901 12.1029 85.2901Z" fill="#172122" fill-opacity="0.1"/>
<path d="M12.1029 99.141H17.8969C18.1719 99.141 18.3968 98.9161 18.3968 98.6413C18.3968 98.3665 18.1719 98.1416 17.8969 98.1416H12.1029C11.828 98.1416 11.603 98.3665 11.603 98.6413C11.603 98.9161 11.828 99.141 12.1029 99.141Z" fill="#172122" fill-opacity="0.1"/>
<path d="M12.1029 94.5841H14.3975C14.6725 94.5841 14.8974 94.3592 14.8974 94.0844C14.8974 93.8096 14.6725 93.5847 14.3975 93.5847H12.1029C11.828 93.5847 11.603 93.8096 11.603 94.0844C11.603 94.3592 11.828 94.5841 12.1029 94.5841Z" fill="#172122" fill-opacity="0.1"/>
<path d="M12.1029 78.4596H19.6466C19.9216 78.4596 20.1465 78.2347 20.1465 77.9599C20.1465 77.6851 19.9216 77.4602 19.6466 77.4602H12.1029C11.828 77.4602 11.603 77.6851 11.603 77.9599C11.603 78.2347 11.828 78.4596 12.1029 78.4596Z" fill="#172122" fill-opacity="0.1"/>
<path d="M12.1029 73.9024H17.572C17.8469 73.9024 18.0719 73.6776 18.0719 73.4028C18.0719 73.1279 17.8469 72.9031 17.572 72.9031H12.1029C11.828 72.9031 11.603 73.1279 11.603 73.4028C11.603 73.6826 11.828 73.9024 12.1029 73.9024Z" fill="#172122" fill-opacity="0.1"/>
<path d="M12.1029 67.0719H13.8526C14.1276 67.0719 14.3525 66.847 14.3525 66.5722C14.3525 66.2974 14.1276 66.0725 13.8526 66.0725H12.1029C11.828 66.0725 11.603 66.2974 11.603 66.5722C11.603 66.852 11.828 67.0719 12.1029 67.0719Z" fill="#172122" fill-opacity="0.1"/>
<path d="M12.1029 60.2459H18.7768C19.0517 60.2459 19.2767 60.0211 19.2767 59.7463C19.2767 59.4714 19.0517 59.2466 18.7768 59.2466H12.1029C11.828 59.2466 11.603 59.4714 11.603 59.7463C11.603 60.0211 11.828 60.2459 12.1029 60.2459Z" fill="#172122" fill-opacity="0.1"/>
<path d="M12.1029 57.9676H15.2724C15.5473 57.9676 15.7723 57.7428 15.7723 57.4679C15.7723 57.1931 15.5473 56.9683 15.2724 56.9683H12.1029C11.828 56.9683 11.603 57.1931 11.603 57.4679C11.603 57.7428 11.828 57.9676 12.1029 57.9676Z" fill="#172122" fill-opacity="0.1"/>
<path d="M27.765 100.67C28.04 100.67 28.265 100.445 28.265 100.171V81.2428C28.265 80.968 28.04 80.7432 27.765 80.7432C27.4901 80.7432 27.2651 80.968 27.2651 81.2428V100.171C27.2651 100.445 27.4901 100.67 27.765 100.67Z" fill="#172122" fill-opacity="0.1"/>
<path d="M30.4445 100.67C30.7194 100.67 30.9444 100.445 30.9444 100.171V81.2428C30.9444 80.968 30.7194 80.7432 30.4445 80.7432C30.1695 80.7432 29.9446 80.968 29.9446 81.2428V100.171C29.9446 100.445 30.1695 100.67 30.4445 100.67Z" fill="#172122" fill-opacity="0.1"/>
<path d="M32.9242 100.67C33.1992 100.67 33.4241 100.445 33.4241 100.171V81.2428C33.4241 80.968 33.1992 80.7432 32.9242 80.7432C32.6493 80.7432 32.4243 80.968 32.4243 81.2428V100.171C32.4243 100.445 32.6493 100.67 32.9242 100.67Z" fill="#172122" fill-opacity="0.1"/>
<path d="M62.204 69.5952H51.9308C51.6559 69.5952 51.4309 69.8201 51.4309 70.0949C51.4309 70.3697 51.6559 70.5946 51.9308 70.5946H62.204C62.4789 70.5946 62.7039 70.3697 62.7039 70.0949C62.7039 69.8201 62.4789 69.5952 62.204 69.5952Z" fill="#172122" fill-opacity="0.1"/>
<path d="M62.204 67.0967H53.4306C53.1556 67.0967 52.9307 67.3215 52.9307 67.5964C52.9307 67.8712 53.1556 68.096 53.4306 68.096H62.204C62.479 68.096 62.7039 67.8712 62.7039 67.5964C62.7039 67.3215 62.479 67.0967 62.204 67.0967Z" fill="#172122" fill-opacity="0.1"/>
<path d="M62.204 64.5984H54.1154C53.8404 64.5984 53.6155 64.8232 53.6155 65.0981C53.6155 65.3729 53.8404 65.5977 54.1154 65.5977H62.204C62.4789 65.5977 62.7039 65.3729 62.7039 65.0981C62.7039 64.8232 62.4789 64.5984 62.204 64.5984Z" fill="#172122" fill-opacity="0.1"/>
<path d="M62.204 62.1001H54.3654C54.0904 62.1001 53.8655 62.325 53.8655 62.5998C53.8655 62.8746 54.0904 63.0995 54.3654 63.0995H62.204C62.4789 63.0995 62.7039 62.8746 62.7039 62.5998C62.7039 62.325 62.4789 62.1001 62.204 62.1001Z" fill="#172122" fill-opacity="0.1"/>
<path d="M62.2039 59.6018H53.9303C53.6554 59.6018 53.4304 59.8267 53.4304 60.1015C53.4304 60.3763 53.6554 60.6012 53.9303 60.6012H62.2039C62.4788 60.6012 62.7038 60.3763 62.7038 60.1015C62.7038 59.8267 62.4788 59.6018 62.2039 59.6018Z" fill="#172122" fill-opacity="0.1"/>
<path d="M62.2041 57.1033H52.6508C52.3758 57.1033 52.1509 57.3281 52.1509 57.6029C52.1509 57.8778 52.3758 58.1026 52.6508 58.1026H62.2041C62.479 58.1026 62.704 57.8778 62.704 57.6029C62.704 57.3281 62.479 57.1033 62.2041 57.1033Z" fill="#172122" fill-opacity="0.1"/>
<path d="M62.204 54.6047H50.6811C50.4061 54.6047 50.1812 54.8296 50.1812 55.1044C50.1812 55.3792 50.4061 55.6041 50.6811 55.6041H62.204C62.479 55.6041 62.7039 55.3792 62.7039 55.1044C62.7039 54.8296 62.479 54.6047 62.204 54.6047Z" fill="#172122" fill-opacity="0.1"/>
<path d="M62.204 52.1064H50.5561C50.2811 52.1064 50.0562 52.3313 50.0562 52.6061C50.0562 52.8809 50.2811 53.1058 50.5561 53.1058H62.204C62.4789 53.1058 62.7039 52.8809 62.7039 52.6061C62.7039 52.3313 62.4789 52.1064 62.204 52.1064Z" fill="#172122" fill-opacity="0.1"/>
<path d="M64.4687 75.5914H66.2383C66.5133 75.5914 66.7383 75.3665 66.7383 75.0917C66.7383 74.8169 66.5133 74.592 66.2383 74.592H64.4687C64.1937 74.592 63.9688 74.8169 63.9688 75.0917C63.9687 75.3715 64.1937 75.5914 64.4687 75.5914Z" fill="#172122" fill-opacity="0.1"/>
<path d="M64.4687 73.0929H66.2383C66.5133 73.0929 66.7383 72.868 66.7383 72.5932C66.7383 72.3184 66.5133 72.0935 66.2383 72.0935H64.4687C64.1937 72.0935 63.9688 72.3184 63.9688 72.5932C63.9687 72.873 64.1937 73.0929 64.4687 73.0929Z" fill="#172122" fill-opacity="0.1"/>
<path d="M64.4687 70.5946H66.2383C66.5133 70.5946 66.7383 70.3697 66.7383 70.0949C66.7383 69.8201 66.5133 69.5952 66.2383 69.5952H64.4687C64.1937 69.5952 63.9688 69.8201 63.9688 70.0949C63.9687 70.3747 64.1937 70.5946 64.4687 70.5946Z" fill="#172122" fill-opacity="0.1"/>
<path d="M64.4687 68.096H66.2383C66.5133 68.096 66.7383 67.8712 66.7383 67.5964C66.7383 67.3215 66.5133 67.0967 66.2383 67.0967H64.4687C64.1937 67.0967 63.9688 67.3215 63.9688 67.5964C63.9687 67.8762 64.1937 68.096 64.4687 68.096Z" fill="#172122" fill-opacity="0.1"/>
<path d="M64.4687 65.5977H66.2383C66.5133 65.5977 66.7383 65.3729 66.7383 65.0981C66.7383 64.8232 66.5133 64.5984 66.2383 64.5984H64.4687C64.1937 64.5984 63.9688 64.8232 63.9688 65.0981C63.9687 65.3779 64.1937 65.5977 64.4687 65.5977Z" fill="#172122" fill-opacity="0.1"/>
<path d="M64.4687 63.0995H66.2383C66.5133 63.0995 66.7383 62.8746 66.7383 62.5998C66.7383 62.325 66.5133 62.1001 66.2383 62.1001H64.4687C64.1937 62.1001 63.9688 62.325 63.9688 62.5998C63.9687 62.8796 64.1937 63.0995 64.4687 63.0995Z" fill="#172122" fill-opacity="0.1"/>
<path d="M64.4687 60.6012H66.2383C66.5133 60.6012 66.7383 60.3763 66.7383 60.1015C66.7383 59.8267 66.5133 59.6018 66.2383 59.6018H64.4687C64.1937 59.6018 63.9688 59.8267 63.9688 60.1015C63.9687 60.3813 64.1937 60.6012 64.4687 60.6012Z" fill="#172122" fill-opacity="0.1"/>
<path d="M64.4687 58.1026H66.2383C66.5133 58.1026 66.7383 57.8778 66.7383 57.6029C66.7383 57.3281 66.5133 57.1033 66.2383 57.1033H64.4687C64.1937 57.1033 63.9688 57.3281 63.9688 57.6029C63.9687 57.8828 64.1937 58.1026 64.4687 58.1026Z" fill="#172122" fill-opacity="0.1"/>
<path d="M64.4687 55.6041H66.2383C66.5133 55.6041 66.7383 55.3792 66.7383 55.1044C66.7383 54.8296 66.5133 54.6047 66.2383 54.6047H64.4687C64.1937 54.6047 63.9688 54.8296 63.9688 55.1044C63.9687 55.3842 64.1937 55.6041 64.4687 55.6041Z" fill="#172122" fill-opacity="0.1"/>
<path d="M64.4687 53.1058H66.2383C66.5133 53.1058 66.7383 52.8809 66.7383 52.6061C66.7383 52.3313 66.5133 52.1064 66.2383 52.1064H64.4687C64.1937 52.1064 63.9688 52.3313 63.9688 52.6061C63.9687 52.8859 64.1937 53.1058 64.4687 53.1058Z" fill="#172122" fill-opacity="0.1"/>
<path d="M64.4687 50.6078H66.2383C66.5133 50.6078 66.7383 50.3829 66.7383 50.1081C66.7383 49.8333 66.5133 49.6084 66.2383 49.6084H64.4687C64.1937 49.6084 63.9688 49.8333 63.9688 50.1081C63.9687 50.3879 64.1937 50.6078 64.4687 50.6078Z" fill="#172122" fill-opacity="0.1"/>
<path d="M64.4687 48.1092H66.2383C66.5133 48.1092 66.7383 47.8844 66.7383 47.6095C66.7383 47.3347 66.5133 47.1099 66.2383 47.1099H64.4687C64.1937 47.1099 63.9688 47.3347 63.9688 47.6095C63.9687 47.8894 64.1937 48.1092 64.4687 48.1092Z" fill="#172122" fill-opacity="0.1"/>
<path d="M64.4687 45.6104H66.2383C66.5133 45.6104 66.7383 45.3856 66.7383 45.1108C66.7383 44.8359 66.5133 44.6111 66.2383 44.6111H64.4687C64.1937 44.6111 63.9688 44.8359 63.9688 45.1108C63.9687 45.3906 64.1937 45.6104 64.4687 45.6104Z" fill="#172122" fill-opacity="0.1"/>
<path d="M64.4687 43.1121H66.2383C66.5133 43.1121 66.7383 42.8873 66.7383 42.6125C66.7383 42.3376 66.5133 42.1128 66.2383 42.1128H64.4687C64.1937 42.1128 63.9688 42.3376 63.9688 42.6125C63.9687 42.8923 64.1937 43.1121 64.4687 43.1121Z" fill="#172122" fill-opacity="0.1"/>
<path d="M64.4687 40.6141H66.2383C66.5133 40.6141 66.7383 40.3892 66.7383 40.1144C66.7383 39.8396 66.5133 39.6147 66.2383 39.6147H64.4687C64.1937 39.6147 63.9688 39.8396 63.9688 40.1144C63.9687 40.3942 64.1937 40.6141 64.4687 40.6141Z" fill="#172122" fill-opacity="0.1"/>
<path d="M64.4687 38.1156H66.2383C66.5133 38.1156 66.7383 37.8907 66.7383 37.6159C66.7383 37.3411 66.5133 37.1162 66.2383 37.1162H64.4687C64.1937 37.1162 63.9688 37.3411 63.9688 37.6159C63.9687 37.8957 64.1937 38.1156 64.4687 38.1156Z" fill="#172122" fill-opacity="0.1"/>
<path d="M64.4687 35.617H66.2383C66.5133 35.617 66.7383 35.3922 66.7383 35.1174C66.7383 34.8425 66.5133 34.6177 66.2383 34.6177H64.4687C64.1937 34.6177 63.9688 34.8425 63.9688 35.1174C63.9687 35.3972 64.1937 35.617 64.4687 35.617Z" fill="#172122" fill-opacity="0.1"/>
<path d="M64.4687 33.1187H66.2383C66.5133 33.1187 66.7383 32.8939 66.7383 32.6191C66.7383 32.3442 66.5133 32.1194 66.2383 32.1194H64.4687C64.1937 32.1194 63.9688 32.3442 63.9688 32.6191C63.9687 32.8989 64.1937 33.1187 64.4687 33.1187Z" fill="#172122" fill-opacity="0.1"/>
<path d="M64.4687 30.6202H66.2383C66.5133 30.6202 66.7383 30.3954 66.7383 30.1205C66.7383 29.8457 66.5133 29.6208 66.2383 29.6208H64.4687C64.1937 29.6208 63.9688 29.8457 63.9688 30.1205C63.9687 30.4003 64.1937 30.6202 64.4687 30.6202Z" fill="#172122" fill-opacity="0.1"/>
<path d="M64.4687 28.1219H66.2383C66.5133 28.1219 66.7383 27.8971 66.7383 27.6222C66.7383 27.3474 66.5133 27.1226 66.2383 27.1226H64.4687C64.1937 27.1226 63.9688 27.3474 63.9688 27.6222C63.9687 27.9021 64.1937 28.1219 64.4687 28.1219Z" fill="#172122" fill-opacity="0.1"/>
<path d="M64.4687 25.6236H66.2383C66.5133 25.6236 66.7383 25.3988 66.7383 25.1239C66.7383 24.8491 66.5133 24.6243 66.2383 24.6243H64.4687C64.1937 24.6243 63.9688 24.8491 63.9688 25.1239C63.9687 25.4038 64.1937 25.6236 64.4687 25.6236Z" fill="#172122" fill-opacity="0.1"/>
<path d="M64.4687 23.1251H66.2383C66.5133 23.1251 66.7383 22.9002 66.7383 22.6254C66.7383 22.3506 66.5133 22.1257 66.2383 22.1257H64.4687C64.1937 22.1257 63.9688 22.3506 63.9688 22.6254C63.9687 22.9052 64.1937 23.1251 64.4687 23.1251Z" fill="#172122" fill-opacity="0.1"/>
<path d="M64.4687 20.6266H66.2383C66.5133 20.6266 66.7383 20.4017 66.7383 20.1269C66.7383 19.8521 66.5133 19.6272 66.2383 19.6272H64.4687C64.1937 19.6272 63.9688 19.8521 63.9688 20.1269C63.9687 20.4067 64.1937 20.6266 64.4687 20.6266Z" fill="#172122" fill-opacity="0.1"/>
<path d="M280.31 45.9905C282.85 45.9905 285.289 46.9298 287.169 48.6337C287.374 48.8186 287.689 48.8036 287.874 48.5988C288.059 48.3939 288.044 48.0791 287.839 47.8942C285.774 46.0254 283.1 44.9961 280.31 44.9961C274.121 44.9961 269.092 50.0279 269.092 56.2089C269.092 56.3138 269.097 56.4187 269.102 56.5237C265.648 57.493 263.183 60.706 263.183 64.3236C263.183 68.7908 266.823 72.4284 271.292 72.4284C273.032 72.4284 274.691 71.8788 276.101 70.8394C276.321 70.6745 276.371 70.3647 276.206 70.1399C276.041 69.92 275.731 69.8701 275.506 70.0349C274.271 70.9444 272.812 71.4291 271.292 71.4291C267.373 71.4291 264.183 68.2411 264.183 64.3236C264.183 61.0258 266.518 58.1126 269.737 57.3931C269.977 57.3381 270.142 57.1183 270.127 56.8734L270.117 56.7335C270.107 56.5586 270.092 56.3838 270.092 56.2089C270.087 50.5725 274.671 45.9905 280.31 45.9905Z" fill="#172122" fill-opacity="0.1"/>
<path d="M289.614 71.4241C288.029 71.4241 286.524 70.9094 285.264 69.9301C285.044 69.7602 284.734 69.8001 284.565 70.02C284.395 70.2398 284.435 70.5547 284.654 70.7195C286.089 71.8338 287.804 72.4234 289.614 72.4234C294.083 72.4234 297.722 68.7858 297.722 64.3187C297.722 63.2843 297.527 62.275 297.147 61.3206C297.042 61.0658 296.752 60.9408 296.497 61.0408C296.242 61.1407 296.117 61.4355 296.217 61.6904C296.552 62.5248 296.717 63.4093 296.717 64.3187C296.722 68.2361 293.533 71.4241 289.614 71.4241Z" fill="#172122" fill-opacity="0.1"/>
<path d="M291.488 48.0243C291.488 48.0843 291.488 48.1393 291.493 48.1992C288.749 49.0087 286.794 51.577 286.794 54.4702C286.794 58.0778 289.729 61.011 293.338 61.011C294.743 61.011 296.083 60.5662 297.217 59.7268C297.437 59.5619 297.487 59.2521 297.322 59.0272C297.157 58.8074 296.842 58.7574 296.622 58.9223C295.663 59.6318 294.523 60.0066 293.338 60.0066C290.284 60.0066 287.794 57.5232 287.794 54.4652C287.794 51.8968 289.614 49.6233 292.123 49.0637C292.363 49.0087 292.528 48.7888 292.513 48.544L292.503 48.4241C292.493 48.2892 292.483 48.1592 292.483 48.0243C292.483 43.6072 296.078 40.0145 300.497 40.0145C304.916 40.0145 308.51 43.6072 308.51 48.0243C308.51 48.1343 308.5 48.2442 308.495 48.3541L308.485 48.504C308.47 48.7539 308.645 48.9787 308.895 49.0237C311.525 49.5084 313.429 51.7969 313.429 54.4652C313.429 57.5182 310.945 60.0066 307.885 60.0066C306.651 60.0066 305.481 59.6019 304.496 58.8424C304.276 58.6725 303.961 58.7124 303.796 58.9323C303.626 59.1521 303.666 59.462 303.886 59.6318C305.046 60.5313 306.431 61.006 307.885 61.006C311.495 61.006 314.429 58.0729 314.429 54.4652C314.429 51.4621 312.385 48.8638 309.51 48.1343C309.51 48.0993 309.51 48.0593 309.51 48.0243C309.51 43.0575 305.466 39.0151 300.497 39.0151C295.533 39.0201 291.488 43.0575 291.488 48.0243Z" fill="#172122" fill-opacity="0.1"/>
<path d="M40.103 48.4739C35.4438 48.4739 31.6495 52.2614 31.6495 56.9234C31.6495 56.9684 31.6495 57.0134 31.6495 57.0583C29.0849 57.8278 27.2603 60.2313 27.2603 62.9395C27.2603 66.3274 30.0148 69.0806 33.4042 69.0806C34.7189 69.0806 35.9787 68.6659 37.0485 67.8764C37.2685 67.7115 37.3185 67.4017 37.1535 67.1768C36.9885 66.957 36.6786 66.907 36.4536 67.0719C35.5588 67.7315 34.504 68.0812 33.4042 68.0812C30.5697 68.0812 28.2601 65.7727 28.2601 62.9395C28.2601 60.5561 29.9498 58.4424 32.2794 57.9278C32.5193 57.8728 32.6843 57.653 32.6693 57.4081L32.6593 57.2932C32.6493 57.1683 32.6443 57.0483 32.6443 56.9234C32.6443 52.8161 35.9887 49.4732 40.098 49.4732C44.2072 49.4732 47.5517 52.8161 47.5517 56.9234C47.5517 57.0284 47.5417 57.1383 47.5367 57.2432L47.5267 57.3681C47.5117 57.618 47.6866 57.8428 47.9366 57.8878C50.3762 58.3375 52.1458 60.4611 52.1458 62.9395C52.1458 65.7727 49.8362 68.0812 47.0017 68.0812C45.857 68.0812 44.7671 67.7065 43.8573 67.0019C43.6373 66.832 43.3274 66.872 43.1574 67.0919C42.9875 67.3117 43.0275 67.6265 43.2474 67.7914C44.3372 68.6359 45.637 69.0806 47.0067 69.0806C50.3961 69.0806 53.1507 66.3274 53.1507 62.9395C53.1507 60.1264 51.241 57.6979 48.5565 56.9984C48.5565 56.9734 48.5565 56.9434 48.5565 56.9184C48.5515 52.2614 44.7621 48.4739 40.103 48.4739Z" fill="#172122" fill-opacity="0.1"/>
<path d="M285.969 26.7926C287.439 26.7926 288.864 26.218 289.924 25.2037C290.679 25.4585 291.453 25.5884 292.238 25.5884C293.788 25.5884 295.248 25.1137 296.497 24.2143C297.062 24.5791 297.727 24.7739 298.407 24.7739C300.357 24.7739 301.946 23.185 301.946 21.2362C301.946 19.7072 300.947 18.3531 299.522 17.8784C299.302 14.0559 296.113 11.0078 292.243 11.0078C289.329 11.0078 286.744 12.7017 285.579 15.35C282.605 15.5549 280.235 18.0533 280.235 21.0663C280.235 24.2193 282.81 26.7926 285.969 26.7926ZM285.924 16.3294C286.129 16.3294 286.309 16.1995 286.384 16.0096C287.334 13.5712 289.634 11.9972 292.243 11.9972C295.698 11.9972 298.517 14.8054 298.537 18.2581C298.537 18.493 298.702 18.6979 298.932 18.7428C300.102 18.9877 300.947 20.032 300.947 21.2262C300.947 22.6253 299.807 23.7646 298.407 23.7646C297.817 23.7646 297.262 23.5697 296.807 23.195C296.622 23.0451 296.362 23.0451 296.178 23.195C295.048 24.0994 293.688 24.5791 292.243 24.5791C291.473 24.5791 290.708 24.4342 289.974 24.1493C289.784 24.0744 289.569 24.1244 289.429 24.2743C288.519 25.2486 287.289 25.7833 285.969 25.7833C283.36 25.7833 281.235 23.6597 281.235 21.0513C281.235 18.478 283.34 16.3544 285.924 16.3294Z" fill="#172122" fill-opacity="0.1"/>
</svg>
