<svg width="501" height="207" viewBox="0 0 501 207" fill="none" xmlns="http://www.w3.org/2000/svg">
<path d="M500.242 176.295H0" stroke="#1D1D1B" stroke-miterlimit="10"/>
<path d="M446.657 137.964C446.657 139.798 448.418 141.298 450.569 141.298C452.721 141.298 454.481 139.798 454.481 137.964C454.481 136.414 453.229 135.114 451.547 134.748C451.235 134.665 450.901 134.631 450.569 134.631C450.237 134.631 449.903 134.664 449.591 134.748C447.908 135.114 446.657 136.415 446.657 137.964Z" stroke="#1D1D1B" stroke-miterlimit="10"/>
<path d="M432.962 137.964C432.962 139.798 434.723 141.298 436.874 141.298C439.025 141.298 440.786 139.798 440.786 137.964C440.786 136.414 439.534 135.114 437.852 134.748C437.54 134.665 437.207 134.631 436.874 134.631C436.542 134.631 436.209 134.664 435.896 134.748C434.215 135.114 432.962 136.415 432.962 137.964Z" stroke="#1D1D1B" stroke-miterlimit="10"/>
<path d="M442.744 176.294H444.7V132.965H442.744V176.294Z" stroke="#1D1D1B" stroke-miterlimit="10"/>
<path d="M437.527 131.298C436.626 131.298 435.896 131.92 435.896 132.688V134.749C436.209 134.666 436.542 134.632 436.874 134.632C437.206 134.632 437.54 134.665 437.852 134.749V132.966H449.589V134.749C449.902 134.666 450.235 134.632 450.567 134.632C450.9 134.632 451.233 134.665 451.545 134.749V132.688C451.545 131.92 450.815 131.298 449.915 131.298H437.527Z" stroke="#1D1D1B" stroke-miterlimit="10"/>
<path d="M451.547 139.284C451.547 139.284 448.891 140.239 448.507 137.168" stroke="#1D1D1B" stroke-miterlimit="10"/>
<path d="M438.349 139.284C438.349 139.284 435.693 140.239 435.31 137.168" stroke="#1D1D1B" stroke-miterlimit="10"/>
<path d="M61.7427 137.964C61.7427 139.798 63.5036 141.298 65.6546 141.298C67.807 141.298 69.5666 139.798 69.5666 137.964C69.5666 136.414 68.3145 135.114 66.6326 134.748C66.3203 134.665 65.9868 134.631 65.6546 134.631C65.3225 134.631 64.989 134.664 64.6766 134.748C62.9948 135.114 61.7427 136.415 61.7427 137.964Z" stroke="#1D1D1B" stroke-miterlimit="10"/>
<path d="M48.0481 137.964C48.0481 139.798 49.809 141.298 51.9601 141.298C54.1124 141.298 55.872 139.798 55.872 137.964C55.872 136.414 54.6199 135.114 52.938 134.748C52.6257 134.665 52.2922 134.631 51.9601 134.631C51.6279 134.631 51.2944 134.664 50.9821 134.748C49.3002 135.114 48.0481 136.415 48.0481 137.964Z" stroke="#1D1D1B" stroke-miterlimit="10"/>
<path d="M57.8302 176.294H59.7861L59.7861 132.965H57.8302L57.8302 176.294Z" stroke="#1D1D1B" stroke-miterlimit="10"/>
<path d="M52.6126 131.298C51.7124 131.298 50.9822 131.92 50.9822 132.688V134.749C51.2946 134.666 51.628 134.632 51.9602 134.632C52.2923 134.632 52.6258 134.665 52.9382 134.749V132.966H64.6754V134.749C64.9877 134.666 65.3212 134.632 65.6534 134.632C65.9855 134.632 66.319 134.665 66.6313 134.749V132.688C66.6313 131.92 65.9011 131.298 65.0009 131.298H52.6126Z" stroke="#1D1D1B" stroke-miterlimit="10"/>
<path d="M66.6324 139.284C66.6324 139.284 63.9766 140.239 63.593 137.168" stroke="#1D1D1B" stroke-miterlimit="10"/>
<path d="M53.4349 139.284C53.4349 139.284 50.7791 140.239 50.3955 137.168" stroke="#1D1D1B" stroke-miterlimit="10"/>
<path d="M410.524 165.646H433.95V163.516H410.524V165.646Z" stroke="#1D1D1B" stroke-miterlimit="10"/>
<path d="M410.524 172.034H433.95V169.904H410.524V172.034Z" stroke="#1D1D1B" stroke-miterlimit="10"/>
<path d="M429.691 176.294H431.821V172.036H429.691V176.294Z" stroke="#1D1D1B" stroke-miterlimit="10"/>
<path d="M412.654 176.294H414.784V172.036H412.654V176.294Z" stroke="#1D1D1B" stroke-miterlimit="10"/>
<path d="M427.561 169.905H429.691V165.646H427.561V169.905Z" stroke="#1D1D1B" stroke-miterlimit="10"/>
<path d="M414.784 169.905H416.914V165.646H414.784V169.905Z" stroke="#1D1D1B" stroke-miterlimit="10"/>
<path d="M66.372 165.646H89.7976V163.516H66.372V165.646Z" stroke="#1D1D1B" stroke-miterlimit="10"/>
<path d="M66.372 172.034H89.7976V169.904H66.372V172.034Z" stroke="#1D1D1B" stroke-miterlimit="10"/>
<path d="M85.5387 176.294H87.6687V172.036H85.5387V176.294Z" stroke="#1D1D1B" stroke-miterlimit="10"/>
<path d="M68.5011 176.294H70.6311V172.036H68.5011V176.294Z" stroke="#1D1D1B" stroke-miterlimit="10"/>
<path d="M83.4081 169.905H85.5381V165.646H83.4081V169.905Z" stroke="#1D1D1B" stroke-miterlimit="10"/>
<path d="M70.6318 169.905H72.7617V165.646H70.6318V169.905Z" stroke="#1D1D1B" stroke-miterlimit="10"/>
<path d="M384.014 113.76C384.014 111.72 385.063 109.927 386.659 108.811C386.33 108.072 386.144 107.257 386.144 106.402C386.144 103.016 389.004 100.271 392.533 100.271C393.351 100.271 394.126 100.432 394.846 100.701C395.357 97.6286 396.978 95.3667 398.921 95.3667C400.825 95.3667 402.417 97.5363 402.962 100.511C403.375 100.369 403.801 100.271 404.245 100.271C407.185 100.271 409.568 103.565 409.568 107.629C409.568 108.735 409.38 109.774 409.062 110.715C410.686 112.472 411.697 114.829 411.697 117.438C411.697 119.483 411.083 121.38 410.038 122.952C411.055 124.962 411.697 127.783 411.697 130.927C411.697 137.022 409.314 141.962 406.373 141.962C405.658 141.962 404.978 141.66 404.356 141.13C403.086 144.535 400.668 146.868 397.855 146.868C395.218 146.868 392.914 144.829 391.589 141.768C389.691 141.026 388.271 138.108 388.271 134.606C388.271 133.583 388.394 132.609 388.611 131.724C387.105 129.705 386.141 126.815 386.141 123.57C386.141 121.882 386.418 120.3 386.876 118.87C385.154 117.769 384.014 115.894 384.014 113.76Z" stroke="#1D1D1B" stroke-miterlimit="10"/>
<path d="M397.856 117.801V176.295" stroke="#1D1D1B" stroke-miterlimit="10"/>
<path d="M397.856 137.056L391.468 127.247" stroke="#1D1D1B" stroke-miterlimit="10"/>
<path d="M397.856 127.247L404.088 117.801" stroke="#1D1D1B" stroke-miterlimit="10"/>
<path d="M393.828 102.585C393.828 102.585 388.556 102.366 388.731 107.462" stroke="#1D1D1B" stroke-miterlimit="10"/>
<path d="M409.914 131.571C409.914 131.571 409.468 138.855 406.13 139.504" stroke="#1D1D1B" stroke-miterlimit="10"/>
<path d="M81.5977 133.447C81.5977 130.372 83.7118 127.811 86.5601 127.082C86.5561 127.005 86.5417 126.932 86.5417 126.855C86.5417 123.214 91.3367 120.263 97.2534 120.263C100.123 120.263 102.722 120.962 104.645 122.091C105.183 121.986 105.736 121.911 106.318 121.911C109.958 121.911 112.909 124.124 112.909 126.855C112.909 126.988 112.871 127.113 112.856 127.244C115.757 128.139 117.852 130.563 117.852 133.447C117.852 135.744 116.527 137.761 114.522 138.942C114.53 139.034 114.555 139.121 114.555 139.215C114.555 141.49 112.342 143.335 109.611 143.335C108.384 143.335 107.276 142.949 106.411 142.332C105.358 143.954 103.866 144.983 102.196 144.983C100.791 144.983 99.5218 144.237 98.5214 143.045C97.7754 144.242 96.7446 144.983 95.6045 144.983C94.5527 144.983 93.6024 144.333 92.8749 143.295C92.6864 143.308 92.5032 143.335 92.3094 143.335C90.4101 143.335 88.7401 142.671 87.6897 141.66C87.5803 141.665 87.4775 141.688 87.3667 141.688C84.181 141.688 81.599 139.475 81.599 136.744C81.599 136.228 81.7163 135.74 81.8876 135.274C81.7176 134.69 81.5977 134.085 81.5977 133.447Z" stroke="#1D1D1B" stroke-miterlimit="10"/>
<path d="M98.6267 130.15V138.39V176.295" stroke="#1D1D1B" stroke-miterlimit="10"/>
<path d="M98.6267 138.39L103.021 132.622" stroke="#1D1D1B" stroke-miterlimit="10"/>
<path d="M98.6269 141.686L93.1333 135.506" stroke="#1D1D1B" stroke-miterlimit="10"/>
<path d="M98.6269 123.031C98.6269 123.031 92.7905 120.719 89.7986 125.479" stroke="#1D1D1B" stroke-miterlimit="10"/>
<path d="M112.644 139.794C112.644 139.794 110.969 142.501 107.046 141.197" stroke="#1D1D1B" stroke-miterlimit="10"/>
<path d="M302.11 174.165H308.343C308.386 174.165 308.42 174.129 308.42 174.087V161.465C308.42 161.421 308.385 161.387 308.343 161.387H302.11C302.066 161.387 302.032 161.423 302.032 161.465V174.087C302.032 174.129 302.066 174.165 302.11 174.165Z" stroke="#1D1D1B" stroke-miterlimit="10"/>
<path d="M304.161 176.294H306.291V174.164H304.161V176.294Z" stroke="#1D1D1B" stroke-miterlimit="10"/>
<path d="M191.174 174.165H197.407C197.45 174.165 197.484 174.129 197.484 174.087V161.465C197.484 161.421 197.449 161.387 197.407 161.387H191.174C191.13 161.387 191.096 161.423 191.096 161.465V174.087C191.094 174.129 191.13 174.165 191.174 174.165Z" stroke="#1D1D1B" stroke-miterlimit="10"/>
<path d="M193.224 176.294H195.354V174.164H193.224V176.294Z" stroke="#1D1D1B" stroke-miterlimit="10"/>
<path d="M125.485 176.295L373.629 176.295V54.4736L125.485 54.4736L125.485 176.295Z" stroke="#1D1D1B" stroke-miterlimit="10"/>
<path d="M249.557 174.039H263.092V142.455H249.557V174.039Z" stroke="#1D1D1B" stroke-miterlimit="10"/>
<path d="M236.022 174.039H249.557V142.455H236.022V174.039Z" stroke="#1D1D1B" stroke-miterlimit="10"/>
<path d="M213.464 176.295H285.65V174.038H213.464V176.295Z" stroke="#1D1D1B" stroke-miterlimit="10"/>
<path d="M213.463 149.223H224.743V142.454H213.463V149.223Z" stroke="#1D1D1B" stroke-miterlimit="10"/>
<path d="M213.463 159.375H224.743V152.606H213.463V159.375Z" stroke="#1D1D1B" stroke-miterlimit="10"/>
<path d="M213.463 169.526H224.743V162.757H213.463V169.526Z" stroke="#1D1D1B" stroke-miterlimit="10"/>
<path d="M274.372 149.223H285.651V142.454H274.372V149.223Z" stroke="#1D1D1B" stroke-miterlimit="10"/>
<path d="M274.372 159.375H285.651V152.606H274.372V159.375Z" stroke="#1D1D1B" stroke-miterlimit="10"/>
<path d="M274.372 169.526H285.651V162.757H274.372V169.526Z" stroke="#1D1D1B" stroke-miterlimit="10"/>
<path d="M202.184 176.294H208.952V174.038H202.184V176.294Z" stroke="#1D1D1B" stroke-miterlimit="10"/>
<path d="M203.312 174.038H207.824V171.781H203.312V174.038Z" stroke="#1D1D1B" stroke-miterlimit="10"/>
<path d="M208.953 135.688H202.185V137.944H208.953V135.688Z" stroke="#1D1D1B" stroke-miterlimit="10"/>
<path d="M207.824 137.943H203.313V140.2H207.824V137.943Z" stroke="#1D1D1B" stroke-miterlimit="10"/>
<path d="M204.439 171.782H206.696V140.199H204.439V171.782Z" stroke="#1D1D1B" stroke-miterlimit="10"/>
<path d="M290.162 176.294H296.93V174.038H290.162V176.294Z" stroke="#1D1D1B" stroke-miterlimit="10"/>
<path d="M291.29 174.038H295.802V171.781H291.29V174.038Z" stroke="#1D1D1B" stroke-miterlimit="10"/>
<path d="M296.931 135.688H290.163V137.944H296.931V135.688Z" stroke="#1D1D1B" stroke-miterlimit="10"/>
<path d="M295.802 137.943H291.291V140.2H295.802V137.943Z" stroke="#1D1D1B" stroke-miterlimit="10"/>
<path d="M292.418 171.782H294.675V140.199H292.418V171.782Z" stroke="#1D1D1B" stroke-miterlimit="10"/>
<path d="M197.673 135.688H301.442V131.176H197.673V135.688Z" stroke="#1D1D1B" stroke-miterlimit="10"/>
<path d="M366.861 79.2886V63.4963H355.581V79.2886H366.861Z" stroke="#1D1D1B" stroke-miterlimit="10"/>
<path d="M356.711 78.1602H365.734V64.6245H356.711V78.1602Z" stroke="#1D1D1B" stroke-miterlimit="10"/>
<path d="M365.733 69.1365H356.71" stroke="#1D1D1B" stroke-miterlimit="10"/>
<path d="M346.558 79.2894V63.4971H335.279V79.2894H346.558Z" stroke="#1D1D1B" stroke-miterlimit="10"/>
<path d="M336.407 78.1602H345.431V64.6245H336.407V78.1602Z" stroke="#1D1D1B" stroke-miterlimit="10"/>
<path d="M345.431 69.1365H336.408" stroke="#1D1D1B" stroke-miterlimit="10"/>
<path d="M326.256 79.2886V63.4963H314.976V79.2886H326.256Z" stroke="#1D1D1B" stroke-miterlimit="10"/>
<path d="M316.105 78.1602H325.129V64.6245H316.105V78.1602Z" stroke="#1D1D1B" stroke-miterlimit="10"/>
<path d="M325.128 69.1362H316.104" stroke="#1D1D1B" stroke-miterlimit="10"/>
<path d="M305.953 79.2881V63.4958H294.673V79.2881H305.953Z" stroke="#1D1D1B" stroke-miterlimit="10"/>
<path d="M295.802 78.1602H304.825V64.6245H295.802V78.1602Z" stroke="#1D1D1B" stroke-miterlimit="10"/>
<path d="M304.826 69.1362H295.802" stroke="#1D1D1B" stroke-miterlimit="10"/>
<path d="M285.651 79.2889V63.4966H274.371V79.2889H285.651Z" stroke="#1D1D1B" stroke-miterlimit="10"/>
<path d="M275.5 78.1602H284.523V64.6245H275.5V78.1602Z" stroke="#1D1D1B" stroke-miterlimit="10"/>
<path d="M284.523 69.1362H275.5" stroke="#1D1D1B" stroke-miterlimit="10"/>
<path d="M265.348 79.2884V63.4961H254.068V79.2884H265.348Z" stroke="#1D1D1B" stroke-miterlimit="10"/>
<path d="M255.196 78.1602H264.22V64.6245H255.196V78.1602Z" stroke="#1D1D1B" stroke-miterlimit="10"/>
<path d="M264.221 69.1365H255.198" stroke="#1D1D1B" stroke-miterlimit="10"/>
<path d="M245.045 79.2891V63.4968H233.766V79.2891H245.045Z" stroke="#1D1D1B" stroke-miterlimit="10"/>
<path d="M234.894 78.1602H243.918V64.6245H234.894V78.1602Z" stroke="#1D1D1B" stroke-miterlimit="10"/>
<path d="M243.918 69.1365H234.895" stroke="#1D1D1B" stroke-miterlimit="10"/>
<path d="M224.743 79.2886V63.4963H213.463V79.2886H224.743Z" stroke="#1D1D1B" stroke-miterlimit="10"/>
<path d="M214.592 78.1602H223.616V64.6245H214.592V78.1602Z" stroke="#1D1D1B" stroke-miterlimit="10"/>
<path d="M223.615 69.1365H214.591" stroke="#1D1D1B" stroke-miterlimit="10"/>
<path d="M204.44 79.2893V63.4971H193.16V79.2893H204.44Z" stroke="#1D1D1B" stroke-miterlimit="10"/>
<path d="M194.289 78.1602H203.312V64.6245H194.289V78.1602Z" stroke="#1D1D1B" stroke-miterlimit="10"/>
<path d="M203.313 69.1365H194.29" stroke="#1D1D1B" stroke-miterlimit="10"/>
<path d="M184.137 79.2886V63.4963H172.858V79.2886H184.137Z" stroke="#1D1D1B" stroke-miterlimit="10"/>
<path d="M173.987 78.1599H183.01V64.6242H173.987V78.1599Z" stroke="#1D1D1B" stroke-miterlimit="10"/>
<path d="M183.009 69.1362H173.986" stroke="#1D1D1B" stroke-miterlimit="10"/>
<path d="M163.835 79.2881V63.4958H152.555V79.2881H163.835Z" stroke="#1D1D1B" stroke-miterlimit="10"/>
<path d="M153.684 78.1602H162.707V64.6245H153.684V78.1602Z" stroke="#1D1D1B" stroke-miterlimit="10"/>
<path d="M162.708 69.1362H153.685" stroke="#1D1D1B" stroke-miterlimit="10"/>
<path d="M143.532 79.2889V63.4966H132.252V79.2889H143.532Z" stroke="#1D1D1B" stroke-miterlimit="10"/>
<path d="M133.381 78.1602H142.405V64.6245H133.381V78.1602Z" stroke="#1D1D1B" stroke-miterlimit="10"/>
<path d="M142.404 69.1362H133.381" stroke="#1D1D1B" stroke-miterlimit="10"/>
<path d="M366.862 114.256V98.4636H355.582V114.256H366.862Z" stroke="#1D1D1B" stroke-miterlimit="10"/>
<path d="M356.711 113.128H365.734V99.5925H356.711V113.128Z" stroke="#1D1D1B" stroke-miterlimit="10"/>
<path d="M365.733 104.103H356.71" stroke="#1D1D1B" stroke-miterlimit="10"/>
<path d="M346.559 114.257V98.4644H335.279V114.257H346.559Z" stroke="#1D1D1B" stroke-miterlimit="10"/>
<path d="M336.408 113.128H345.431V99.5923H336.408V113.128Z" stroke="#1D1D1B" stroke-miterlimit="10"/>
<path d="M345.431 104.103H336.408" stroke="#1D1D1B" stroke-miterlimit="10"/>
<path d="M326.256 114.256V98.4639H314.977V114.256H326.256Z" stroke="#1D1D1B" stroke-miterlimit="10"/>
<path d="M316.105 113.128H325.129V99.5925H316.105V113.128Z" stroke="#1D1D1B" stroke-miterlimit="10"/>
<path d="M325.128 104.103H316.104" stroke="#1D1D1B" stroke-miterlimit="10"/>
<path d="M305.954 114.255V98.4631H294.674V114.255H305.954Z" stroke="#1D1D1B" stroke-miterlimit="10"/>
<path d="M295.802 113.128H304.825V99.5923H295.802V113.128Z" stroke="#1D1D1B" stroke-miterlimit="10"/>
<path d="M304.826 104.103H295.802" stroke="#1D1D1B" stroke-miterlimit="10"/>
<path d="M285.651 114.256V98.4639H274.371V114.256H285.651Z" stroke="#1D1D1B" stroke-miterlimit="10"/>
<path d="M275.5 113.128H284.523V99.5923H275.5V113.128Z" stroke="#1D1D1B" stroke-miterlimit="10"/>
<path d="M284.523 104.103H275.5" stroke="#1D1D1B" stroke-miterlimit="10"/>
<path d="M265.348 114.256V98.4634H254.069V114.256H265.348Z" stroke="#1D1D1B" stroke-miterlimit="10"/>
<path d="M255.196 113.128H264.22V99.5923H255.196V113.128Z" stroke="#1D1D1B" stroke-miterlimit="10"/>
<path d="M264.221 104.103H255.198" stroke="#1D1D1B" stroke-miterlimit="10"/>
<path d="M245.046 114.256V98.4641H233.766V114.256H245.046Z" stroke="#1D1D1B" stroke-miterlimit="10"/>
<path d="M234.894 113.128H243.918V99.5923H234.894V113.128Z" stroke="#1D1D1B" stroke-miterlimit="10"/>
<path d="M243.918 104.103H234.895" stroke="#1D1D1B" stroke-miterlimit="10"/>
<path d="M224.743 114.256V98.4636H213.463V114.256H224.743Z" stroke="#1D1D1B" stroke-miterlimit="10"/>
<path d="M214.592 113.128H223.616V99.5923H214.592V113.128Z" stroke="#1D1D1B" stroke-miterlimit="10"/>
<path d="M223.615 104.103H214.591" stroke="#1D1D1B" stroke-miterlimit="10"/>
<path d="M204.441 114.257V98.4644H193.161V114.257H204.441Z" stroke="#1D1D1B" stroke-miterlimit="10"/>
<path d="M194.289 113.128H203.312V99.5923H194.289V113.128Z" stroke="#1D1D1B" stroke-miterlimit="10"/>
<path d="M203.313 104.103H194.29" stroke="#1D1D1B" stroke-miterlimit="10"/>
<path d="M184.138 114.256V98.4639H172.858V114.256H184.138Z" stroke="#1D1D1B" stroke-miterlimit="10"/>
<path d="M173.987 113.128H183.01V99.5925H173.987V113.128Z" stroke="#1D1D1B" stroke-miterlimit="10"/>
<path d="M183.009 104.103H173.986" stroke="#1D1D1B" stroke-miterlimit="10"/>
<path d="M163.835 114.255V98.4631H152.556V114.255H163.835Z" stroke="#1D1D1B" stroke-miterlimit="10"/>
<path d="M153.684 113.128H162.707V99.5923H153.684V113.128Z" stroke="#1D1D1B" stroke-miterlimit="10"/>
<path d="M162.708 104.103H153.684" stroke="#1D1D1B" stroke-miterlimit="10"/>
<path d="M143.533 114.256V98.4639H132.253V114.256H143.533Z" stroke="#1D1D1B" stroke-miterlimit="10"/>
<path d="M133.381 113.128H142.405V99.5923H133.381V113.128Z" stroke="#1D1D1B" stroke-miterlimit="10"/>
<path d="M142.404 104.103H133.381" stroke="#1D1D1B" stroke-miterlimit="10"/>
<path d="M365.169 168.399V130.047H344.866V168.399H365.169Z" stroke="#1D1D1B" stroke-miterlimit="10"/>
<path d="M345.995 167.271H364.041V131.176H345.995V167.271Z" stroke="#1D1D1B" stroke-miterlimit="10"/>
<path d="M335.843 168.399V130.047H315.54V168.399H335.843Z" stroke="#1D1D1B" stroke-miterlimit="10"/>
<path d="M316.669 167.271H334.716V131.176H316.669V167.271Z" stroke="#1D1D1B" stroke-miterlimit="10"/>
<path d="M183.573 168.4V130.048H163.27V168.4H183.573Z" stroke="#1D1D1B" stroke-miterlimit="10"/>
<path d="M164.4 167.271H182.446V131.176H164.4V167.271Z" stroke="#1D1D1B" stroke-miterlimit="10"/>
<path d="M154.248 168.399V130.047H133.944V168.399H154.248Z" stroke="#1D1D1B" stroke-miterlimit="10"/>
<path d="M135.073 167.271H153.12V131.176H135.073V167.271Z" stroke="#1D1D1B" stroke-miterlimit="10"/>
<path d="M122.102 54.4729L378.14 54.4729V49.961L122.102 49.961V54.4729Z" stroke="#1D1D1B" stroke-miterlimit="10"/>
<path d="M122.102 49.9606H378.141L382.653 45.4487H117.591L122.102 49.9606Z" stroke="#1D1D1B" stroke-miterlimit="10"/>
<path d="M246.173 163.886H247.301V152.606H246.173V163.886Z" stroke="#1D1D1B" stroke-miterlimit="10"/>
<path d="M251.813 163.886H252.942V152.606H251.813V163.886Z" stroke="#1D1D1B" stroke-miterlimit="10"/>
<path d="M226.998 45.449L273.243 45.449V27.4014L226.998 27.4014V45.449Z" stroke="#1D1D1B" stroke-miterlimit="10"/>
<path d="M226.998 27.4014L273.243 27.4014V22.8895L226.998 22.8895V27.4014Z" stroke="#1D1D1B" stroke-miterlimit="10"/>
<path d="M226.999 22.8893H273.244L277.756 18.3774H222.488L226.999 22.8893Z" stroke="#1D1D1B" stroke-miterlimit="10"/>
<path d="M244.482 5.96996H248.429V2.02222H251.813V5.96996H255.76V9.35355H251.813V13.3013H248.429V9.35355H244.482V5.96996Z" stroke="#1D1D1B" stroke-miterlimit="10"/>
<path d="M256.899 10.4617C258.448 6.72078 256.672 2.43196 252.931 0.882378C249.19 -0.667206 244.902 1.10924 243.352 4.85019C241.803 8.59114 243.579 12.88 247.32 14.4295C251.061 15.9791 255.349 14.2027 256.899 10.4617Z" stroke="#1D1D1B" stroke-miterlimit="10"/>
<path d="M248.429 14.7908V18.3773H251.813V14.7908" stroke="#1D1D1B" stroke-miterlimit="10"/>
<path d="M359.086 145.839L351.92 138.672" stroke="#1D1D1B" stroke-miterlimit="10"/>
<path d="M361.221 152.607L356.429 147.813" stroke="#1D1D1B" stroke-miterlimit="10"/>
<path d="M330.268 163.516L323.458 156.707" stroke="#1D1D1B" stroke-miterlimit="10"/>
<path d="M327.922 154.631L323.48 150.188" stroke="#1D1D1B" stroke-miterlimit="10"/>
<path d="M177.375 163.886L171.566 158.077" stroke="#1D1D1B" stroke-miterlimit="10"/>
<path d="M177.375 156.706L170.306 149.637" stroke="#1D1D1B" stroke-miterlimit="10"/>
<path d="M149.84 142.455L143.609 136.224" stroke="#1D1D1B" stroke-miterlimit="10"/>
<path d="M145.403 144.211L141.898 140.706" stroke="#1D1D1B" stroke-miterlimit="10"/>
<path d="M362.367 74.1466L358.735 70.5139" stroke="#1D1D1B" stroke-miterlimit="10"/>
<path d="M321.804 75.963L318.172 72.3303" stroke="#1D1D1B" stroke-miterlimit="10"/>
<path d="M302.131 75.963L298.498 72.3303" stroke="#1D1D1B" stroke-miterlimit="10"/>
<path d="M139.709 75.963L136.076 72.3303" stroke="#1D1D1B" stroke-miterlimit="10"/>
<path d="M180.422 76.7393L176.791 73.1079" stroke="#1D1D1B" stroke-miterlimit="10"/>
<path d="M220.919 75.963L217.288 72.3303" stroke="#1D1D1B" stroke-miterlimit="10"/>
<path d="M343.09 72.3302L341.535 70.7761" stroke="#1D1D1B" stroke-miterlimit="10"/>
<path d="M279.805 73.108L278.251 71.554" stroke="#1D1D1B" stroke-miterlimit="10"/>
<path d="M260.486 75.7005L258.932 74.1465" stroke="#1D1D1B" stroke-miterlimit="10"/>
<path d="M241.39 72.3302L239.836 70.7761" stroke="#1D1D1B" stroke-miterlimit="10"/>
<path d="M200.178 75.7005L198.624 74.1465" stroke="#1D1D1B" stroke-miterlimit="10"/>
<path d="M158.972 73.8844L157.418 72.3303" stroke="#1D1D1B" stroke-miterlimit="10"/>
<path d="M364.183 111.547L360.552 107.914" stroke="#1D1D1B" stroke-miterlimit="10"/>
<path d="M321.012 111.808L317.38 108.176" stroke="#1D1D1B" stroke-miterlimit="10"/>
<path d="M301.337 111.808L297.706 108.176" stroke="#1D1D1B" stroke-miterlimit="10"/>
<path d="M140.732 110.056L137.101 106.423" stroke="#1D1D1B" stroke-miterlimit="10"/>
<path d="M179.63 112.585L175.997 108.953" stroke="#1D1D1B" stroke-miterlimit="10"/>
<path d="M220.127 111.808L216.494 108.176" stroke="#1D1D1B" stroke-miterlimit="10"/>
<path d="M340.275 109.73L338.721 108.176" stroke="#1D1D1B" stroke-miterlimit="10"/>
<path d="M279.013 108.952L277.459 107.398" stroke="#1D1D1B" stroke-miterlimit="10"/>
<path d="M258.574 108.24L257.021 106.686" stroke="#1D1D1B" stroke-miterlimit="10"/>
<path d="M239.044 110.507L237.488 108.953" stroke="#1D1D1B" stroke-miterlimit="10"/>
<path d="M199.577 109.73L198.023 108.176" stroke="#1D1D1B" stroke-miterlimit="10"/>
<path d="M158.18 109.73L156.626 108.176" stroke="#1D1D1B" stroke-miterlimit="10"/>
<path d="M141.898 47.7053H125.486" stroke="#1D1D1B" stroke-miterlimit="10"/>
<path d="M368.693 57.5095H349.015" stroke="#1D1D1B" stroke-miterlimit="10"/>
<path d="M147.965 87.5032H135.073" stroke="#1D1D1B" stroke-miterlimit="10"/>
<path d="M139.709 117.801H130.86" stroke="#1D1D1B" stroke-miterlimit="10"/>
<path d="M180.99 171.783H167.095" stroke="#1D1D1B" stroke-miterlimit="10"/>
<path d="M366.861 170.97H353.7" stroke="#1D1D1B" stroke-miterlimit="10"/>
<path d="M355.018 116.561H339.498" stroke="#1D1D1B" stroke-miterlimit="10"/>
<path d="M296.929 83.2852H287.384" stroke="#1D1D1B" stroke-miterlimit="10"/>
<path d="M224.366 95.3669H213.464" stroke="#1D1D1B" stroke-miterlimit="10"/>
<path d="M224.743 57.5095H214.591" stroke="#1D1D1B" stroke-miterlimit="10"/>
<path d="M356.709 92.1902H347.258" stroke="#1D1D1B" stroke-miterlimit="10"/>
<path d="M238.266 42.98H229.307" stroke="#1D1D1B" stroke-miterlimit="10"/>
<path d="M273.244 20.634H263.093" stroke="#1D1D1B" stroke-miterlimit="10"/>
<path d="M213.464 133.431H204.441" stroke="#1D1D1B" stroke-miterlimit="10"/>
<path d="M368.693 52.2173H362.366" stroke="#1D1D1B" stroke-miterlimit="10"/>
<path d="M497.651 195.844H493.631" stroke="#1D1D1B" stroke-miterlimit="10"/>
<path d="M485.47 195.844H130.451" stroke="#1D1D1B" stroke-miterlimit="10" stroke-dasharray="61.92 61.92"/>
<path d="M126.37 195.844H122.35" stroke="#1D1D1B" stroke-miterlimit="10"/>
<path d="M83.3572 195.844H79.3372" stroke="#1D1D1B" stroke-miterlimit="10"/>
<path d="M71.2561 195.844H10.6523" stroke="#1D1D1B" stroke-miterlimit="10" stroke-dasharray="61.31 61.31"/>
<path d="M6.61257 195.844H2.59253" stroke="#1D1D1B" stroke-miterlimit="10"/>
<path d="M83.0369 197.773V198.583C83.0369 199.383 83.2346 200.159 83.5984 200.845C84.1177 201.852 85.5214 201.801 86.0578 200.804C86.9488 199.144 88.831 198.121 90.9188 198.501C92.71 198.83 94.1533 200.275 94.4999 202.059C94.5579 202.372 94.5909 202.678 94.5909 202.975C94.5909 203.649 95.1379 204.196 95.8127 204.196H112.352C113.026 204.196 113.573 203.649 113.573 202.975V202.957C113.573 202.661 113.606 202.355 113.664 202.049C113.994 200.308 115.39 198.888 117.131 198.517C120.069 197.906 122.652 200.126 122.652 202.957V203.015L122.924 202.94C124.226 202.58 125.129 201.396 125.129 200.044V199.599C125.129 197.906 124.048 196.405 122.446 195.877L120.403 195.194C118.62 194.598 116.977 193.648 115.572 192.399L112.906 190.032C111.214 188.522 109.02 187.688 106.75 187.688H94.8466C92.5611 187.688 90.3494 188.539 88.6399 190.074L85.0087 193.334C83.7552 194.473 83.0369 196.082 83.0369 197.773Z" stroke="#1D1D1B" stroke-miterlimit="10"/>
<path d="M110.473 190.219L114.512 193.681C114.756 193.89 114.608 194.29 114.286 194.29H102.018V190.667C102.018 189.933 102.614 189.337 103.348 189.337H108.093C108.965 189.339 109.81 189.651 110.473 190.219Z" stroke="#1D1D1B" stroke-miterlimit="10"/>
<path d="M100.368 190.302V194.291H92.3647C91.8704 194.291 91.5488 193.77 91.7702 193.329L93.2873 190.293C93.5799 189.708 94.1783 189.337 94.832 189.337H99.4043C99.9368 189.339 100.368 189.77 100.368 190.302Z" stroke="#1D1D1B" stroke-miterlimit="10"/>
<path d="M118.66 206.633C120.689 206.328 122.086 204.436 121.781 202.407C121.476 200.379 119.585 198.981 117.556 199.286C115.528 199.591 114.13 201.483 114.435 203.511C114.74 205.54 116.632 206.937 118.66 206.633Z" stroke="#1D1D1B" stroke-miterlimit="10"/>
<path d="M118.111 205.019C119.251 205.019 120.174 204.095 120.174 202.956C120.174 201.817 119.251 200.893 118.111 200.893C116.972 200.893 116.049 201.817 116.049 202.956C116.049 204.095 116.972 205.019 118.111 205.019Z" stroke="#1D1D1B" stroke-miterlimit="10"/>
<path d="M90.0515 205.019C91.1907 205.019 92.1143 204.095 92.1143 202.956C92.1143 201.817 91.1907 200.893 90.0515 200.893C88.9123 200.893 87.9888 201.817 87.9888 202.956C87.9888 204.095 88.9123 205.019 90.0515 205.019Z" stroke="#1D1D1B" stroke-miterlimit="10"/>
<path d="M90.9258 206.568C92.9209 206.091 94.1515 204.087 93.6744 202.092C93.1972 200.097 91.1931 198.866 89.1979 199.343C87.2028 199.82 85.9722 201.824 86.4494 203.82C86.9265 205.815 88.9307 207.046 90.9258 206.568Z" stroke="#1D1D1B" stroke-miterlimit="10"/>
<path d="M108.62 192.641L106.557 190.576" stroke="#1D1D1B" stroke-miterlimit="10"/>
<path d="M107.795 193.466L106.557 192.228" stroke="#1D1D1B" stroke-miterlimit="10"/>
<path d="M98.7178 193.466L95.8286 190.576" stroke="#1D1D1B" stroke-miterlimit="10"/>
<path d="M97.0662 193.466L95.416 191.814" stroke="#1D1D1B" stroke-miterlimit="10"/>
<path d="M87.9887 192.641C87.9887 192.641 84.687 194.291 84.687 198.418" stroke="#1D1D1B" stroke-miterlimit="10"/>
<path d="M107.795 202.315H100.368" stroke="#1D1D1B" stroke-miterlimit="10"/>
<path d="M123.476 199.243C123.476 199.243 123.476 196.768 118.524 195.941" stroke="#1D1D1B" stroke-miterlimit="10"/>
<path d="M111.922 198.418H108.62" stroke="#1D1D1B" stroke-miterlimit="10"/>
<path d="M220.65 128.304H216.631V126.631H217.658V124.3H213.626V126.631H214.652V128.304H210.634V126.631H211.661V120.444H210.634V118.771H214.652V120.444H213.626V122.644H217.658V120.444H216.631V118.771H220.65V120.444H219.623V126.631H220.65V128.304Z" stroke="#1D1D1B" stroke-miterlimit="10"/>
<path d="M232.482 123.523C232.482 124.873 232.05 126.031 231.185 126.999C230.319 127.967 229.116 128.45 227.57 128.45C226.017 128.45 224.823 127.966 223.993 126.999C223.162 126.031 222.747 124.883 222.747 123.553C222.747 122.165 223.186 120.996 224.066 120.048C224.947 119.101 226.134 118.626 227.629 118.626C229.154 118.626 230.343 119.107 231.2 120.071C232.055 121.033 232.482 122.185 232.482 123.523ZM230.356 123.582C230.356 122.566 230.122 121.774 229.652 121.206C229.183 120.639 228.503 120.355 227.613 120.355C226.666 120.355 225.972 120.656 225.532 121.257C225.093 121.857 224.872 122.608 224.872 123.507C224.872 124.377 225.087 125.13 225.518 125.765C225.949 126.4 226.667 126.718 227.673 126.718C228.601 126.718 229.281 126.427 229.71 125.845C230.14 125.265 230.356 124.511 230.356 123.582Z" stroke="#1D1D1B" stroke-miterlimit="10"/>
<path d="M241.881 125.416C241.881 126.403 241.549 127.156 240.885 127.674C240.219 128.192 239.306 128.45 238.142 128.45C237.497 128.45 236.854 128.367 236.215 128.201C235.574 128.035 235.07 127.786 234.697 127.453L234.989 125.093L236.559 125.239L236.544 126.396C236.877 126.573 237.159 126.678 237.395 126.713C237.628 126.747 237.828 126.763 237.996 126.763C238.514 126.763 238.938 126.697 239.271 126.565C239.604 126.433 239.77 126.126 239.77 125.649C239.77 125.12 239.573 124.767 239.183 124.585C238.792 124.405 238.333 124.266 237.804 124.167C237.346 124.09 236.883 123.975 236.419 123.822C235.955 123.672 235.566 123.421 235.254 123.075C234.942 122.728 234.785 122.213 234.785 121.529C234.785 120.464 235.146 119.712 235.87 119.277C236.593 118.844 237.384 118.625 238.246 118.625C238.872 118.625 239.468 118.721 240.035 118.911C240.601 119.102 241.036 119.358 241.339 119.681L241.426 121.749L239.858 121.895L239.726 120.78C239.481 120.614 239.235 120.502 238.985 120.442C238.736 120.384 238.494 120.354 238.259 120.354C237.868 120.354 237.544 120.423 237.284 120.558C237.024 120.696 236.895 120.935 236.895 121.278C236.895 121.679 237.061 121.957 237.395 122.112C237.727 122.269 238.109 122.397 238.537 122.493C238.929 122.572 239.385 122.682 239.908 122.824C240.43 122.967 240.89 123.23 241.285 123.616C241.682 124.005 241.881 124.604 241.881 125.416Z" stroke="#1D1D1B" stroke-miterlimit="10"/>
<path d="M252.233 121.88C252.233 122.965 251.879 123.775 251.171 124.307C250.463 124.84 249.639 125.107 248.701 125.107H247.235V126.632H248.701V128.305H244.243V126.631H245.27V120.444H244.243V118.771H248.612C249.796 118.771 250.694 119.049 251.311 119.607C251.926 120.166 252.233 120.923 252.233 121.88ZM250.122 121.911C250.122 121.441 249.992 121.08 249.734 120.826C249.474 120.572 249.017 120.445 248.363 120.445H247.234V123.452H248.333C249.008 123.452 249.474 123.309 249.734 123.026C249.992 122.741 250.122 122.369 250.122 121.911Z" stroke="#1D1D1B" stroke-miterlimit="10"/>
<path d="M258.288 128.304H254.27V126.631H255.296V120.444H254.27V118.771H258.288V120.444H257.261V126.631H258.288V128.304Z" stroke="#1D1D1B" stroke-miterlimit="10"/>
<path d="M269.416 121.998L267.745 122.144L267.451 120.444H265.941V126.631H267.495V128.304H262.51V126.631H263.976V120.444H262.465L262.172 122.144L260.501 121.998L260.794 118.771H269.123L269.416 121.998Z" stroke="#1D1D1B" stroke-miterlimit="10"/>
<path d="M280.253 128.304H276.456V126.631H277.218L276.866 125.663H273.626L273.231 126.631H274.126V128.304H270.372V126.631H271.237L273.964 120.444H272.644V118.771H275.914L279.345 126.631H280.253V128.304ZM276.339 124.257L275.342 121.573H275.254L274.184 124.257H276.339Z" stroke="#1D1D1B" stroke-miterlimit="10"/>
<path d="M289.314 128.304H282.158V126.631H283.185V120.444H282.158V118.771H286.484V120.444H285.15V126.631H287.642L287.935 124.784L289.608 124.931L289.314 128.304Z" stroke="#1D1D1B" stroke-miterlimit="10"/>
</svg>
