<svg width="1440" height="521" viewBox="0 0 1440 521" fill="none" xmlns="http://www.w3.org/2000/svg">
<g opacity="0.35" clip-path="url(#clip0_3201_21442)">
<path d="M1324 447.574H127.814" stroke="#1D1D1B" stroke-miterlimit="10"/>
<path d="M1195.86 355.914C1195.86 360.298 1200.07 363.885 1205.22 363.885C1210.36 363.885 1214.57 360.298 1214.57 355.914C1214.57 352.207 1211.58 349.099 1207.55 348.223C1206.81 348.024 1206.01 347.942 1205.22 347.942C1204.42 347.942 1203.62 348.021 1202.88 348.223C1198.85 349.099 1195.86 352.21 1195.86 355.914Z" stroke="#1D1D1B" stroke-miterlimit="10"/>
<path d="M1163.12 355.914C1163.12 360.298 1167.33 363.885 1172.47 363.885C1177.61 363.885 1181.82 360.298 1181.82 355.914C1181.82 352.207 1178.83 349.099 1174.81 348.223C1174.06 348.024 1173.26 347.942 1172.47 347.942C1171.68 347.942 1170.88 348.021 1170.13 348.223C1166.11 349.099 1163.12 352.21 1163.12 355.914Z" stroke="#1D1D1B" stroke-miterlimit="10"/>
<path d="M1186.51 447.572H1191.18V343.959H1186.51V447.572Z" stroke="#1D1D1B" stroke-miterlimit="10"/>
<path d="M1174.03 339.974C1171.88 339.974 1170.13 341.462 1170.13 343.296V348.226C1170.88 348.027 1171.68 347.946 1172.47 347.946C1173.26 347.946 1174.06 348.024 1174.81 348.226V343.961H1202.87V348.226C1203.62 348.027 1204.42 347.946 1205.21 347.946C1206.01 347.946 1206.8 348.024 1207.55 348.226V343.296C1207.55 341.462 1205.81 339.974 1203.65 339.974H1174.03Z" stroke="#1D1D1B" stroke-miterlimit="10"/>
<path d="M1207.55 359.069C1207.55 359.069 1201.2 361.354 1200.29 354.01" stroke="#1D1D1B" stroke-miterlimit="10"/>
<path d="M1176 359.069C1176 359.069 1169.65 361.354 1168.73 354.01" stroke="#1D1D1B" stroke-miterlimit="10"/>
<path d="M275.453 355.914C275.453 360.298 279.664 363.885 284.807 363.885C289.954 363.885 294.162 360.298 294.162 355.914C294.162 352.207 291.168 349.099 287.146 348.223C286.399 348.024 285.602 347.942 284.807 347.942C284.013 347.942 283.216 348.021 282.469 348.223C278.447 349.099 275.453 352.21 275.453 355.914Z" stroke="#1D1D1B" stroke-miterlimit="10"/>
<path d="M242.707 355.914C242.707 360.298 246.918 363.885 252.061 363.885C257.208 363.885 261.416 360.298 261.416 355.914C261.416 352.207 258.421 349.099 254.4 348.223C253.653 348.024 252.856 347.942 252.061 347.942C251.267 347.942 250.47 348.021 249.723 348.223C245.701 349.099 242.707 352.21 242.707 355.914Z" stroke="#1D1D1B" stroke-miterlimit="10"/>
<path d="M266.098 447.572H270.775V343.959H266.098V447.572Z" stroke="#1D1D1B" stroke-miterlimit="10"/>
<path d="M253.621 339.974C251.469 339.974 249.723 341.462 249.723 343.296V348.226C250.47 348.027 251.267 347.946 252.061 347.946C252.855 347.946 253.653 348.024 254.4 348.226V343.961H282.466V348.226C283.213 348.027 284.01 347.946 284.804 347.946C285.599 347.946 286.396 348.024 287.143 348.226V343.296C287.143 341.462 285.397 339.974 283.244 339.974H253.621Z" stroke="#1D1D1B" stroke-miterlimit="10"/>
<path d="M287.147 359.069C287.147 359.069 280.796 361.354 279.879 354.01" stroke="#1D1D1B" stroke-miterlimit="10"/>
<path d="M255.588 359.069C255.588 359.069 249.237 361.354 248.32 354.01" stroke="#1D1D1B" stroke-miterlimit="10"/>
<path d="M1109.46 422.111H1165.48V417.017H1109.46V422.111Z" stroke="#1D1D1B" stroke-miterlimit="10"/>
<path d="M1109.46 437.386H1165.48V432.293H1109.46V437.386Z" stroke="#1D1D1B" stroke-miterlimit="10"/>
<path d="M1155.29 447.574H1160.38V437.39H1155.29V447.574Z" stroke="#1D1D1B" stroke-miterlimit="10"/>
<path d="M1114.56 447.574H1119.65V437.39H1114.56V447.574Z" stroke="#1D1D1B" stroke-miterlimit="10"/>
<path d="M1150.2 432.295H1155.29V422.111H1150.2V432.295Z" stroke="#1D1D1B" stroke-miterlimit="10"/>
<path d="M1119.65 432.295H1124.74V422.111H1119.65V432.295Z" stroke="#1D1D1B" stroke-miterlimit="10"/>
<path d="M286.524 422.111H342.539V417.017H286.524V422.111Z" stroke="#1D1D1B" stroke-miterlimit="10"/>
<path d="M286.524 437.386H342.539V432.292H286.524V437.386Z" stroke="#1D1D1B" stroke-miterlimit="10"/>
<path d="M332.354 447.574H337.447V437.39H332.354V447.574Z" stroke="#1D1D1B" stroke-miterlimit="10"/>
<path d="M291.614 447.574H296.707V437.39H291.614V447.574Z" stroke="#1D1D1B" stroke-miterlimit="10"/>
<path d="M327.26 432.295H332.354V422.111H327.26V432.295Z" stroke="#1D1D1B" stroke-miterlimit="10"/>
<path d="M296.71 432.295H301.803V422.111H296.71V432.295Z" stroke="#1D1D1B" stroke-miterlimit="10"/>
<path d="M1046.07 298.034C1046.07 293.157 1048.58 288.868 1052.4 286.201C1051.61 284.433 1051.16 282.485 1051.16 280.439C1051.16 272.342 1058 265.779 1066.44 265.779C1068.4 265.779 1070.25 266.164 1071.97 266.807C1073.19 259.459 1077.07 254.051 1081.72 254.051C1086.27 254.051 1090.07 259.239 1091.38 266.353C1092.37 266.012 1093.38 265.779 1094.45 265.779C1101.48 265.779 1107.18 273.656 1107.18 283.374C1107.18 286.018 1106.73 288.502 1105.97 290.752C1109.85 294.954 1112.27 300.59 1112.27 306.831C1112.27 311.72 1110.8 316.255 1108.3 320.016C1110.73 324.822 1112.27 331.568 1112.27 339.085C1112.27 353.66 1106.57 365.474 1099.54 365.474C1097.82 365.474 1096.2 364.752 1094.71 363.485C1091.68 371.627 1085.89 377.206 1079.17 377.206C1072.86 377.206 1067.35 372.329 1064.18 365.01C1059.64 363.236 1056.25 356.257 1056.25 347.883C1056.25 345.437 1056.54 343.107 1057.06 340.992C1053.46 336.163 1051.16 329.254 1051.16 321.494C1051.16 317.456 1051.82 313.674 1052.91 310.254C1048.8 307.622 1046.07 303.137 1046.07 298.034Z" stroke="#1D1D1B" stroke-miterlimit="10"/>
<path d="M1079.17 307.698V447.574" stroke="#1D1D1B" stroke-miterlimit="10"/>
<path d="M1079.17 353.742L1063.89 330.285" stroke="#1D1D1B" stroke-miterlimit="10"/>
<path d="M1079.17 330.285L1094.07 307.698" stroke="#1D1D1B" stroke-miterlimit="10"/>
<path d="M1069.54 271.311C1069.54 271.311 1056.93 270.788 1057.35 282.973" stroke="#1D1D1B" stroke-miterlimit="10"/>
<path d="M1108 340.626C1108 340.626 1106.94 358.044 1098.95 359.595" stroke="#1D1D1B" stroke-miterlimit="10"/>
<path d="M322.932 345.112C322.932 337.758 327.987 331.634 334.798 329.891C334.788 329.708 334.754 329.532 334.754 329.349C334.754 320.643 346.22 313.586 360.368 313.586C367.229 313.586 373.444 315.256 378.043 317.958C379.328 317.705 380.652 317.526 382.042 317.526C390.747 317.526 397.804 322.818 397.804 329.349C397.804 329.667 397.712 329.967 397.678 330.279C404.615 332.419 409.623 338.215 409.623 345.112C409.623 350.606 406.455 355.429 401.662 358.253C401.68 358.473 401.74 358.681 401.74 358.905C401.74 364.346 396.449 368.758 389.918 368.758C386.984 368.758 384.333 367.835 382.266 366.36C379.748 370.237 376.18 372.698 372.187 372.698C368.827 372.698 365.792 370.914 363.4 368.065C361.616 370.927 359.151 372.698 356.425 372.698C353.91 372.698 351.637 371.144 349.898 368.661C349.447 368.692 349.009 368.758 348.546 368.758C344.004 368.758 340.011 367.17 337.499 364.752C337.237 364.765 336.991 364.818 336.727 364.818C329.109 364.818 322.935 359.526 322.935 352.995C322.935 351.763 323.215 350.597 323.625 349.481C323.218 348.084 322.932 346.638 322.932 345.112Z" stroke="#1D1D1B" stroke-miterlimit="10"/>
<path d="M363.652 337.229V356.932V447.574" stroke="#1D1D1B" stroke-miterlimit="10"/>
<path d="M363.652 356.932L374.16 343.139" stroke="#1D1D1B" stroke-miterlimit="10"/>
<path d="M363.652 364.815L350.516 350.035" stroke="#1D1D1B" stroke-miterlimit="10"/>
<path d="M363.651 320.205C363.651 320.205 349.695 314.676 342.541 326.058" stroke="#1D1D1B" stroke-miterlimit="10"/>
<path d="M397.171 360.289C397.171 360.289 393.165 366.763 383.785 363.646" stroke="#1D1D1B" stroke-miterlimit="10"/>
<path d="M850.219 442.481H865.124C865.228 442.481 865.31 442.395 865.31 442.295V412.111C865.31 412.007 865.224 411.925 865.124 411.925H850.219C850.115 411.925 850.033 412.01 850.033 412.111V442.295C850.033 442.395 850.115 442.481 850.219 442.481Z" stroke="#1D1D1B" stroke-miterlimit="10"/>
<path d="M855.126 447.573H860.219V442.479H855.126V447.573Z" stroke="#1D1D1B" stroke-miterlimit="10"/>
<path d="M584.95 442.481H599.854C599.958 442.481 600.04 442.395 600.04 442.295V412.111C600.04 412.007 599.955 411.925 599.854 411.925H584.95C584.846 411.925 584.764 412.01 584.764 412.111V442.295C584.761 442.395 584.846 442.481 584.95 442.481Z" stroke="#1D1D1B" stroke-miterlimit="10"/>
<path d="M589.852 447.573H594.945V442.479H589.852V447.573Z" stroke="#1D1D1B" stroke-miterlimit="10"/>
<path d="M427.875 447.574L1021.24 447.574V156.263L427.875 156.263V447.574Z" stroke="#1D1D1B" stroke-miterlimit="10"/>
<path d="M724.557 442.178H756.922V366.653H724.557V442.178Z" stroke="#1D1D1B" stroke-miterlimit="10"/>
<path d="M692.192 442.178H724.557V366.653H692.192V442.178Z" stroke="#1D1D1B" stroke-miterlimit="10"/>
<path d="M638.25 447.573H810.863V442.177H638.25V447.573Z" stroke="#1D1D1B" stroke-miterlimit="10"/>
<path d="M638.246 382.837H665.219V366.651H638.246V382.837Z" stroke="#1D1D1B" stroke-miterlimit="10"/>
<path d="M638.246 407.112H665.219V390.927H638.246V407.112Z" stroke="#1D1D1B" stroke-miterlimit="10"/>
<path d="M638.246 431.388H665.219V415.202H638.246V431.388Z" stroke="#1D1D1B" stroke-miterlimit="10"/>
<path d="M783.893 382.837H810.865V366.651H783.893V382.837Z" stroke="#1D1D1B" stroke-miterlimit="10"/>
<path d="M783.893 407.112H810.865V390.927H783.893V407.112Z" stroke="#1D1D1B" stroke-miterlimit="10"/>
<path d="M783.893 431.388H810.865V415.202H783.893V431.388Z" stroke="#1D1D1B" stroke-miterlimit="10"/>
<path d="M611.277 447.573H627.461V442.177H611.277V447.573Z" stroke="#1D1D1B" stroke-miterlimit="10"/>
<path d="M613.975 442.177H624.764V436.781H613.975V442.177Z" stroke="#1D1D1B" stroke-miterlimit="10"/>
<path d="M627.463 350.47H611.279V355.867H627.463V350.47Z" stroke="#1D1D1B" stroke-miterlimit="10"/>
<path d="M624.765 355.864H613.977V361.26H624.765V355.864Z" stroke="#1D1D1B" stroke-miterlimit="10"/>
<path d="M616.671 436.782H622.066V361.257H616.671V436.782Z" stroke="#1D1D1B" stroke-miterlimit="10"/>
<path d="M821.652 447.573H837.836V442.177H821.652V447.573Z" stroke="#1D1D1B" stroke-miterlimit="10"/>
<path d="M824.348 442.177H835.137V436.781H824.348V442.177Z" stroke="#1D1D1B" stroke-miterlimit="10"/>
<path d="M837.836 350.47H821.652V355.867H837.836V350.47Z" stroke="#1D1D1B" stroke-miterlimit="10"/>
<path d="M835.14 355.864H824.352V361.26H835.14V355.864Z" stroke="#1D1D1B" stroke-miterlimit="10"/>
<path d="M827.046 436.782H832.441V361.257H827.046V436.782Z" stroke="#1D1D1B" stroke-miterlimit="10"/>
<path d="M600.491 350.47L848.623 350.47V339.681L600.491 339.681V350.47Z" stroke="#1D1D1B" stroke-miterlimit="10"/>
<path d="M1005.05 215.603V177.839H978.082V215.603H1005.05Z" stroke="#1D1D1B" stroke-miterlimit="10"/>
<path d="M980.783 212.905H1002.36V180.537H980.783V212.905Z" stroke="#1D1D1B" stroke-miterlimit="10"/>
<path d="M1002.36 191.326H980.779" stroke="#1D1D1B" stroke-miterlimit="10"/>
<path d="M956.506 215.604V177.84H929.533V215.604H956.506Z" stroke="#1D1D1B" stroke-miterlimit="10"/>
<path d="M932.232 212.905H953.809V180.537H932.232V212.905Z" stroke="#1D1D1B" stroke-miterlimit="10"/>
<path d="M953.809 191.326H932.232" stroke="#1D1D1B" stroke-miterlimit="10"/>
<path d="M907.959 215.603V177.839H880.987V215.603H907.959Z" stroke="#1D1D1B" stroke-miterlimit="10"/>
<path d="M883.687 212.905H905.264V180.537H883.687V212.905Z" stroke="#1D1D1B" stroke-miterlimit="10"/>
<path d="M905.26 191.326H883.684" stroke="#1D1D1B" stroke-miterlimit="10"/>
<path d="M859.412 215.602V177.838H832.44V215.602H859.412Z" stroke="#1D1D1B" stroke-miterlimit="10"/>
<path d="M835.138 212.904H856.715V180.536H835.138V212.904Z" stroke="#1D1D1B" stroke-miterlimit="10"/>
<path d="M856.715 191.326H835.139" stroke="#1D1D1B" stroke-miterlimit="10"/>
<path d="M810.863 215.604V177.839H783.891V215.604H810.863Z" stroke="#1D1D1B" stroke-miterlimit="10"/>
<path d="M786.589 212.904H808.166V180.536H786.589V212.904Z" stroke="#1D1D1B" stroke-miterlimit="10"/>
<path d="M808.166 191.326H786.59" stroke="#1D1D1B" stroke-miterlimit="10"/>
<path d="M762.316 215.602V177.838H735.344V215.602H762.316Z" stroke="#1D1D1B" stroke-miterlimit="10"/>
<path d="M738.041 212.905H759.617V180.537H738.041V212.905Z" stroke="#1D1D1B" stroke-miterlimit="10"/>
<path d="M759.622 191.326H738.045" stroke="#1D1D1B" stroke-miterlimit="10"/>
<path d="M713.768 215.604V177.84H686.795V215.604H713.768Z" stroke="#1D1D1B" stroke-miterlimit="10"/>
<path d="M689.494 212.904H711.07V180.536H689.494V212.904Z" stroke="#1D1D1B" stroke-miterlimit="10"/>
<path d="M711.071 191.326H689.494" stroke="#1D1D1B" stroke-miterlimit="10"/>
<path d="M665.221 215.603V177.839H638.248V215.603H665.221Z" stroke="#1D1D1B" stroke-miterlimit="10"/>
<path d="M640.949 212.905H662.525V180.537H640.949V212.905Z" stroke="#1D1D1B" stroke-miterlimit="10"/>
<path d="M662.522 191.326H640.945" stroke="#1D1D1B" stroke-miterlimit="10"/>
<path d="M616.672 215.604V177.84H589.699V215.604H616.672Z" stroke="#1D1D1B" stroke-miterlimit="10"/>
<path d="M592.398 212.904H613.975V180.536H592.398V212.904Z" stroke="#1D1D1B" stroke-miterlimit="10"/>
<path d="M613.975 191.326H592.398" stroke="#1D1D1B" stroke-miterlimit="10"/>
<path d="M568.125 215.603V177.839H541.153V215.603H568.125Z" stroke="#1D1D1B" stroke-miterlimit="10"/>
<path d="M543.853 212.905H565.43V180.537H543.853V212.905Z" stroke="#1D1D1B" stroke-miterlimit="10"/>
<path d="M565.428 191.326H543.852" stroke="#1D1D1B" stroke-miterlimit="10"/>
<path d="M519.578 215.602V177.838H492.606V215.602H519.578Z" stroke="#1D1D1B" stroke-miterlimit="10"/>
<path d="M495.304 212.904H516.881V180.536H495.304V212.904Z" stroke="#1D1D1B" stroke-miterlimit="10"/>
<path d="M516.881 191.326H495.305" stroke="#1D1D1B" stroke-miterlimit="10"/>
<path d="M471.029 215.604V177.84H444.057V215.604H471.029Z" stroke="#1D1D1B" stroke-miterlimit="10"/>
<path d="M446.755 212.905H468.332V180.537H446.755V212.905Z" stroke="#1D1D1B" stroke-miterlimit="10"/>
<path d="M468.333 191.326H446.756" stroke="#1D1D1B" stroke-miterlimit="10"/>
<path d="M1005.05 299.22V261.456H978.082V299.22H1005.05Z" stroke="#1D1D1B" stroke-miterlimit="10"/>
<path d="M980.781 296.523H1002.36V264.155H980.781V296.523Z" stroke="#1D1D1B" stroke-miterlimit="10"/>
<path d="M1002.36 274.942H980.779" stroke="#1D1D1B" stroke-miterlimit="10"/>
<path d="M956.508 299.222V261.458H929.535V299.222H956.508Z" stroke="#1D1D1B" stroke-miterlimit="10"/>
<path d="M932.232 296.523H953.809V264.155H932.232V296.523Z" stroke="#1D1D1B" stroke-miterlimit="10"/>
<path d="M953.811 274.942H932.234" stroke="#1D1D1B" stroke-miterlimit="10"/>
<path d="M907.961 299.221V261.457H880.989V299.221H907.961Z" stroke="#1D1D1B" stroke-miterlimit="10"/>
<path d="M883.687 296.523H905.264V264.155H883.687V296.523Z" stroke="#1D1D1B" stroke-miterlimit="10"/>
<path d="M905.262 274.942H883.686" stroke="#1D1D1B" stroke-miterlimit="10"/>
<path d="M859.412 299.219V261.455H832.44V299.219H859.412Z" stroke="#1D1D1B" stroke-miterlimit="10"/>
<path d="M835.136 296.523H856.713V264.155H835.136V296.523Z" stroke="#1D1D1B" stroke-miterlimit="10"/>
<path d="M856.715 274.942H835.139" stroke="#1D1D1B" stroke-miterlimit="10"/>
<path d="M810.865 299.221V261.457H783.893V299.221H810.865Z" stroke="#1D1D1B" stroke-miterlimit="10"/>
<path d="M786.591 296.523H808.168V264.155H786.591V296.523Z" stroke="#1D1D1B" stroke-miterlimit="10"/>
<path d="M808.166 274.942H786.59" stroke="#1D1D1B" stroke-miterlimit="10"/>
<path d="M762.316 299.22V261.456H735.344V299.22H762.316Z" stroke="#1D1D1B" stroke-miterlimit="10"/>
<path d="M738.041 296.523H759.617V264.155H738.041V296.523Z" stroke="#1D1D1B" stroke-miterlimit="10"/>
<path d="M759.62 274.942H738.043" stroke="#1D1D1B" stroke-miterlimit="10"/>
<path d="M713.77 299.222V261.458H686.797V299.222H713.77Z" stroke="#1D1D1B" stroke-miterlimit="10"/>
<path d="M689.496 296.523H711.072V264.155H689.496V296.523Z" stroke="#1D1D1B" stroke-miterlimit="10"/>
<path d="M711.071 274.942H689.494" stroke="#1D1D1B" stroke-miterlimit="10"/>
<path d="M665.221 299.22V261.456H638.248V299.22H665.221Z" stroke="#1D1D1B" stroke-miterlimit="10"/>
<path d="M640.947 296.523H662.523V264.155H640.947V296.523Z" stroke="#1D1D1B" stroke-miterlimit="10"/>
<path d="M662.522 274.942H640.945" stroke="#1D1D1B" stroke-miterlimit="10"/>
<path d="M616.674 299.222V261.458H589.701V299.222H616.674Z" stroke="#1D1D1B" stroke-miterlimit="10"/>
<path d="M592.398 296.523H613.975V264.155H592.398V296.523Z" stroke="#1D1D1B" stroke-miterlimit="10"/>
<path d="M613.977 274.942H592.4" stroke="#1D1D1B" stroke-miterlimit="10"/>
<path d="M568.127 299.221V261.457H541.155V299.221H568.127Z" stroke="#1D1D1B" stroke-miterlimit="10"/>
<path d="M543.853 296.523H565.43V264.155H543.853V296.523Z" stroke="#1D1D1B" stroke-miterlimit="10"/>
<path d="M565.428 274.942H543.852" stroke="#1D1D1B" stroke-miterlimit="10"/>
<path d="M519.578 299.219V261.455H492.606V299.219H519.578Z" stroke="#1D1D1B" stroke-miterlimit="10"/>
<path d="M495.302 296.523H516.879V264.155H495.302V296.523Z" stroke="#1D1D1B" stroke-miterlimit="10"/>
<path d="M516.881 274.942H495.305" stroke="#1D1D1B" stroke-miterlimit="10"/>
<path d="M471.031 299.221V261.457H444.059V299.221H471.031Z" stroke="#1D1D1B" stroke-miterlimit="10"/>
<path d="M446.757 296.523H468.334V264.155H446.757V296.523Z" stroke="#1D1D1B" stroke-miterlimit="10"/>
<path d="M468.333 274.942H446.756" stroke="#1D1D1B" stroke-miterlimit="10"/>
<path d="M1001.01 428.693V336.982H952.459V428.693H1001.01Z" stroke="#1D1D1B" stroke-miterlimit="10"/>
<path d="M955.157 425.996H998.311V339.681H955.157V425.996Z" stroke="#1D1D1B" stroke-miterlimit="10"/>
<path d="M930.883 428.692V336.981H882.334V428.692H930.883Z" stroke="#1D1D1B" stroke-miterlimit="10"/>
<path d="M885.034 425.996H928.188V339.681H885.034V425.996Z" stroke="#1D1D1B" stroke-miterlimit="10"/>
<path d="M566.775 428.694V336.983H518.226V428.694H566.775Z" stroke="#1D1D1B" stroke-miterlimit="10"/>
<path d="M520.927 425.996H564.08V339.681H520.927V425.996Z" stroke="#1D1D1B" stroke-miterlimit="10"/>
<path d="M496.65 428.693V336.982H448.101V428.693H496.65Z" stroke="#1D1D1B" stroke-miterlimit="10"/>
<path d="M450.8 425.996H493.953V339.681H450.8V425.996Z" stroke="#1D1D1B" stroke-miterlimit="10"/>
<path d="M419.785 156.261L1032.03 156.261V145.472L419.785 145.472V156.261Z" stroke="#1D1D1B" stroke-miterlimit="10"/>
<path d="M419.786 145.47H1032.03L1042.81 134.681H408.998L419.786 145.47Z" stroke="#1D1D1B" stroke-miterlimit="10"/>
<path d="M716.464 417.902H719.162V390.927H716.464V417.902Z" stroke="#1D1D1B" stroke-miterlimit="10"/>
<path d="M729.951 417.902H732.648V390.927H729.951V417.902Z" stroke="#1D1D1B" stroke-miterlimit="10"/>
<path d="M670.614 134.682H781.195V91.5247L670.614 91.5247V134.682Z" stroke="#1D1D1B" stroke-miterlimit="10"/>
<path d="M670.614 91.5244L781.195 91.5244V80.7351L670.614 80.7351V91.5244Z" stroke="#1D1D1B" stroke-miterlimit="10"/>
<path d="M670.616 80.7345H781.198L791.986 69.9452H659.828L670.616 80.7345Z" stroke="#1D1D1B" stroke-miterlimit="10"/>
<path d="M712.42 40.2755H721.859V30.8352H729.95V40.2755H739.389V48.3666H729.95V57.8069H721.859V48.3666H712.42V40.2755Z" stroke="#1D1D1B" stroke-miterlimit="10"/>
<path d="M742.111 51.0165C745.816 42.0707 741.569 31.8149 732.624 28.1093C723.679 24.4038 713.424 28.6518 709.719 37.5976C706.013 46.5433 710.261 56.7992 719.206 60.5047C728.151 64.2103 738.406 59.9622 742.111 51.0165Z" stroke="#1D1D1B" stroke-miterlimit="10"/>
<path d="M721.859 61.3687V69.9453H729.95V61.3687" stroke="#1D1D1B" stroke-miterlimit="10"/>
<path d="M986.462 374.744L969.326 357.606" stroke="#1D1D1B" stroke-miterlimit="10"/>
<path d="M991.567 390.929L980.107 379.466" stroke="#1D1D1B" stroke-miterlimit="10"/>
<path d="M917.552 417.015L901.268 400.732" stroke="#1D1D1B" stroke-miterlimit="10"/>
<path d="M911.944 395.768L901.322 385.146" stroke="#1D1D1B" stroke-miterlimit="10"/>
<path d="M551.954 417.901L538.064 404.01" stroke="#1D1D1B" stroke-miterlimit="10"/>
<path d="M551.953 400.732L535.051 383.828" stroke="#1D1D1B" stroke-miterlimit="10"/>
<path d="M486.111 366.653L471.213 351.753" stroke="#1D1D1B" stroke-miterlimit="10"/>
<path d="M475.502 370.851L467.121 362.47" stroke="#1D1D1B" stroke-miterlimit="10"/>
<path d="M994.306 203.307L985.623 194.62" stroke="#1D1D1B" stroke-miterlimit="10"/>
<path d="M897.312 207.65L888.629 198.963" stroke="#1D1D1B" stroke-miterlimit="10"/>
<path d="M850.27 207.65L841.584 198.963" stroke="#1D1D1B" stroke-miterlimit="10"/>
<path d="M461.887 207.65L453.201 198.963" stroke="#1D1D1B" stroke-miterlimit="10"/>
<path d="M559.24 209.507L550.557 200.823" stroke="#1D1D1B" stroke-miterlimit="10"/>
<path d="M656.077 207.65L647.395 198.963" stroke="#1D1D1B" stroke-miterlimit="10"/>
<path d="M948.213 198.963L944.494 195.247" stroke="#1D1D1B" stroke-miterlimit="10"/>
<path d="M796.886 200.823L793.17 197.106" stroke="#1D1D1B" stroke-miterlimit="10"/>
<path d="M750.689 207.023L746.973 203.306" stroke="#1D1D1B" stroke-miterlimit="10"/>
<path d="M705.026 198.963L701.311 195.247" stroke="#1D1D1B" stroke-miterlimit="10"/>
<path d="M606.482 207.023L602.766 203.306" stroke="#1D1D1B" stroke-miterlimit="10"/>
<path d="M507.95 202.679L504.234 198.963" stroke="#1D1D1B" stroke-miterlimit="10"/>
<path d="M998.65 292.741L989.967 284.054" stroke="#1D1D1B" stroke-miterlimit="10"/>
<path d="M895.419 293.365L886.736 284.682" stroke="#1D1D1B" stroke-miterlimit="10"/>
<path d="M848.372 293.365L839.689 284.682" stroke="#1D1D1B" stroke-miterlimit="10"/>
<path d="M464.333 289.176L455.65 280.49" stroke="#1D1D1B" stroke-miterlimit="10"/>
<path d="M557.346 295.225L548.66 286.538" stroke="#1D1D1B" stroke-miterlimit="10"/>
<path d="M654.182 293.365L645.496 284.682" stroke="#1D1D1B" stroke-miterlimit="10"/>
<path d="M941.481 288.398L937.766 284.682" stroke="#1D1D1B" stroke-miterlimit="10"/>
<path d="M794.991 286.538L791.275 282.822" stroke="#1D1D1B" stroke-miterlimit="10"/>
<path d="M746.118 284.833L742.402 281.117" stroke="#1D1D1B" stroke-miterlimit="10"/>
<path d="M699.416 290.255L695.697 286.538" stroke="#1D1D1B" stroke-miterlimit="10"/>
<path d="M605.044 288.398L601.328 284.682" stroke="#1D1D1B" stroke-miterlimit="10"/>
<path d="M506.056 288.398L502.34 284.682" stroke="#1D1D1B" stroke-miterlimit="10"/>
<path d="M467.122 140.077H427.877" stroke="#1D1D1B" stroke-miterlimit="10"/>
<path d="M1009.43 163.522H962.379" stroke="#1D1D1B" stroke-miterlimit="10"/>
<path d="M481.63 235.246H450.803" stroke="#1D1D1B" stroke-miterlimit="10"/>
<path d="M461.887 307.698H440.727" stroke="#1D1D1B" stroke-miterlimit="10"/>
<path d="M560.598 436.785H527.373" stroke="#1D1D1B" stroke-miterlimit="10"/>
<path d="M1005.05 434.84H973.584" stroke="#1D1D1B" stroke-miterlimit="10"/>
<path d="M976.736 304.732H939.625" stroke="#1D1D1B" stroke-miterlimit="10"/>
<path d="M837.833 225.159H815.008" stroke="#1D1D1B" stroke-miterlimit="10"/>
<path d="M664.318 254.051H638.25" stroke="#1D1D1B" stroke-miterlimit="10"/>
<path d="M665.22 163.522H640.945" stroke="#1D1D1B" stroke-miterlimit="10"/>
<path d="M980.779 246.454H958.178" stroke="#1D1D1B" stroke-miterlimit="10"/>
<path d="M697.557 128.777H676.135" stroke="#1D1D1B" stroke-miterlimit="10"/>
<path d="M781.196 75.3414H756.922" stroke="#1D1D1B" stroke-miterlimit="10"/>
<path d="M638.251 345.074H616.674" stroke="#1D1D1B" stroke-miterlimit="10"/>
<path d="M1009.43 150.867H994.307" stroke="#1D1D1B" stroke-miterlimit="10"/>
<path d="M1317.8 494.322H1308.19" stroke="#1D1D1B" stroke-miterlimit="10"/>
<path d="M1288.67 494.322H439.75" stroke="#1D1D1B" stroke-miterlimit="10" stroke-dasharray="61.92 61.92"/>
<path d="M429.992 494.322H420.379" stroke="#1D1D1B" stroke-miterlimit="10"/>
<path d="M327.138 494.322H317.525" stroke="#1D1D1B" stroke-miterlimit="10"/>
<path d="M298.203 494.322H153.287" stroke="#1D1D1B" stroke-miterlimit="10" stroke-dasharray="61.31 61.31"/>
<path d="M143.626 494.322H134.014" stroke="#1D1D1B" stroke-miterlimit="10"/>
<path d="M326.373 498.936V500.871C326.373 502.785 326.846 504.641 327.716 506.28C328.957 508.688 332.314 508.569 333.597 506.182C335.727 502.214 340.228 499.768 345.22 500.676C349.504 501.464 352.955 504.919 353.784 509.183C353.922 509.933 354.001 510.665 354.001 511.374C354.001 512.988 355.309 514.296 356.923 514.296H396.47C398.084 514.296 399.392 512.988 399.392 511.374V511.333C399.392 510.624 399.471 509.892 399.61 509.161C400.397 504.997 403.735 501.603 407.899 500.714C414.924 499.254 421.101 504.562 421.101 511.333V511.472L421.75 511.292C424.864 510.431 427.023 507.598 427.023 504.367V503.302C427.023 499.254 424.439 495.664 420.609 494.4L415.724 492.768C411.46 491.343 407.53 489.07 404.17 486.085L397.797 480.424C393.75 476.812 388.503 474.82 383.076 474.82H354.612C349.147 474.82 343.859 476.853 339.771 480.525L331.088 488.32C328.091 491.043 326.373 494.892 326.373 498.936Z" stroke="#1D1D1B" stroke-miterlimit="10"/>
<path d="M391.98 480.872L401.637 489.149C402.22 489.65 401.867 490.605 401.098 490.605H371.762V481.944C371.762 480.188 373.186 478.763 374.942 478.763H386.288C388.374 478.766 390.395 479.513 391.98 480.872Z" stroke="#1D1D1B" stroke-miterlimit="10"/>
<path d="M367.815 481.07V490.608H348.678C347.496 490.608 346.727 489.363 347.256 488.307L350.884 481.048C351.584 479.649 353.014 478.763 354.578 478.763H365.511C366.784 478.766 367.815 479.797 367.815 481.07Z" stroke="#1D1D1B" stroke-miterlimit="10"/>
<path d="M411.555 520.121C416.406 519.392 419.747 514.869 419.019 510.017C418.29 505.166 413.766 501.825 408.916 502.554C404.065 503.283 400.724 507.806 401.453 512.657C402.182 517.508 406.705 520.85 411.555 520.121Z" stroke="#1D1D1B" stroke-miterlimit="10"/>
<path d="M410.243 516.263C412.967 516.263 415.175 514.054 415.175 511.33C415.175 508.605 412.967 506.397 410.243 506.397C407.519 506.397 405.311 508.605 405.311 511.33C405.311 514.054 407.519 516.263 410.243 516.263Z" stroke="#1D1D1B" stroke-miterlimit="10"/>
<path d="M343.147 516.263C345.871 516.263 348.08 514.054 348.08 511.33C348.08 508.605 345.871 506.397 343.147 506.397C340.423 506.397 338.215 508.605 338.215 511.33C338.215 514.054 340.423 516.263 343.147 516.263Z" stroke="#1D1D1B" stroke-miterlimit="10"/>
<path d="M345.237 519.967C350.007 518.826 352.95 514.033 351.809 509.262C350.668 504.491 345.876 501.548 341.105 502.689C336.334 503.83 333.392 508.623 334.533 513.394C335.674 518.166 340.466 521.108 345.237 519.967Z" stroke="#1D1D1B" stroke-miterlimit="10"/>
<path d="M387.548 486.662L382.615 481.726" stroke="#1D1D1B" stroke-miterlimit="10"/>
<path d="M385.575 488.635L382.615 485.676" stroke="#1D1D1B" stroke-miterlimit="10"/>
<path d="M363.869 488.635L356.961 481.726" stroke="#1D1D1B" stroke-miterlimit="10"/>
<path d="M359.921 488.635L355.975 484.686" stroke="#1D1D1B" stroke-miterlimit="10"/>
<path d="M338.213 486.662C338.213 486.662 330.318 490.608 330.318 500.477" stroke="#1D1D1B" stroke-miterlimit="10"/>
<path d="M385.574 509.798H367.814" stroke="#1D1D1B" stroke-miterlimit="10"/>
<path d="M423.071 502.45C423.071 502.45 423.071 496.531 411.23 494.555" stroke="#1D1D1B" stroke-miterlimit="10"/>
<path d="M395.444 500.477H387.549" stroke="#1D1D1B" stroke-miterlimit="10"/>
<path d="M655.434 332.813H645.825V328.813H648.28V323.24H638.639V328.813H641.091V332.813H631.484V328.813H633.94V314.017H631.484V310.018H641.091V314.017H638.639V319.278H648.28V314.017H645.825V310.018H655.434V314.017H652.979V328.813H655.434V332.813Z" stroke="#1D1D1B" stroke-miterlimit="10"/>
<path d="M683.728 321.381C683.728 324.608 682.694 327.379 680.627 329.692C678.556 332.009 675.678 333.163 671.981 333.163C668.269 333.163 665.413 332.006 663.428 329.692C661.442 327.379 660.449 324.633 660.449 321.453C660.449 318.134 661.499 315.338 663.604 313.072C665.709 310.806 668.549 309.671 672.123 309.671C675.77 309.671 678.613 310.821 680.661 313.126C682.707 315.426 683.728 318.181 683.728 321.381ZM678.644 321.522C678.644 319.092 678.083 317.198 676.961 315.839C675.839 314.484 674.213 313.806 672.085 313.806C669.819 313.806 668.161 314.525 667.109 315.962C666.059 317.396 665.53 319.193 665.53 321.343C665.53 323.423 666.044 325.223 667.074 326.742C668.105 328.261 669.822 329.021 672.227 329.021C674.446 329.021 676.072 328.324 677.1 326.934C678.127 325.548 678.644 323.745 678.644 321.522Z" stroke="#1D1D1B" stroke-miterlimit="10"/>
<path d="M706.202 325.907C706.202 328.268 705.407 330.067 703.819 331.306C702.227 332.545 700.043 333.163 697.26 333.163C695.719 333.163 694.181 332.964 692.652 332.567C691.121 332.17 689.913 331.574 689.021 330.78L689.721 325.135L693.475 325.484L693.44 328.252C694.234 328.674 694.909 328.926 695.473 329.008C696.031 329.09 696.51 329.128 696.91 329.128C698.149 329.128 699.164 328.971 699.961 328.655C700.755 328.34 701.152 327.606 701.152 326.465C701.152 325.201 700.683 324.356 699.75 323.921C698.814 323.489 697.717 323.158 696.453 322.922C695.356 322.736 694.25 322.462 693.141 322.096C692.031 321.737 691.102 321.138 690.355 320.309C689.608 319.48 689.233 318.247 689.233 316.612C689.233 314.065 690.096 312.268 691.827 311.228C693.557 310.191 695.448 309.668 697.509 309.668C699.006 309.668 700.431 309.898 701.786 310.352C703.141 310.809 704.181 311.42 704.906 312.192L705.114 317.138L701.364 317.488L701.048 314.821C700.462 314.424 699.873 314.156 699.277 314.014C698.682 313.876 698.102 313.803 697.541 313.803C696.605 313.803 695.829 313.967 695.208 314.292C694.587 314.62 694.279 315.193 694.279 316.013C694.279 316.971 694.676 317.636 695.473 318.008C696.267 318.383 697.181 318.689 698.206 318.919C699.142 319.108 700.232 319.37 701.483 319.71C702.731 320.05 703.831 320.681 704.777 321.604C705.726 322.534 706.202 323.965 706.202 325.907Z" stroke="#1D1D1B" stroke-miterlimit="10"/>
<path d="M730.955 317.453C730.955 320.047 730.108 321.983 728.415 323.256C726.723 324.529 724.753 325.169 722.509 325.169H719.004V328.816H722.509V332.816H711.85V328.813H714.305V314.017H711.85V310.018H722.298C725.128 310.018 727.274 310.683 728.749 312.016C730.221 313.352 730.955 315.165 730.955 317.453ZM725.906 317.526C725.906 316.404 725.597 315.54 724.98 314.932C724.359 314.323 723.265 314.021 721.702 314.021H719.001V321.21H721.629C723.243 321.21 724.359 320.87 724.98 320.192C725.597 319.511 725.906 318.623 725.906 317.526Z" stroke="#1D1D1B" stroke-miterlimit="10"/>
<path d="M745.434 332.813H735.824V328.813H738.279V314.017H735.824V310.018H745.434V314.017H742.979V328.813H745.434V332.813Z" stroke="#1D1D1B" stroke-miterlimit="10"/>
<path d="M772.045 317.734L768.048 318.084L767.346 314.017H763.734V328.813H767.45V332.813H755.53V328.813H759.034V314.017H755.423L754.723 318.084L750.727 317.734L751.426 310.018H771.342L772.045 317.734Z" stroke="#1D1D1B" stroke-miterlimit="10"/>
<path d="M797.958 332.813H788.878V328.813H790.7L789.859 326.499H782.112L781.166 328.813H783.306V332.813H774.33V328.813H776.398L782.919 314.017H779.764V310.018H787.583L795.787 328.813H797.958V332.813ZM788.598 323.136L786.215 316.719H786.004L783.445 323.136H788.598Z" stroke="#1D1D1B" stroke-miterlimit="10"/>
<path d="M819.622 332.813H802.512V328.813H804.967V314.017H802.512V310.018H812.856V314.017H809.666V328.813H815.626L816.326 324.397L820.325 324.747L819.622 332.813Z" stroke="#1D1D1B" stroke-miterlimit="10"/>
<g filter="url(#filter0_f_3201_21442)">
<circle cx="724.5" cy="289.5" r="187.5" fill="#DBDDE2" fill-opacity="0.9"/>
</g>
</g>
<defs>
<filter id="filter0_f_3201_21442" x="447" y="12" width="555" height="555" filterUnits="userSpaceOnUse" color-interpolation-filters="sRGB">
<feFlood flood-opacity="0" result="BackgroundImageFix"/>
<feBlend mode="normal" in="SourceGraphic" in2="BackgroundImageFix" result="shape"/>
<feGaussianBlur stdDeviation="45" result="effect1_foregroundBlur_3201_21442"/>
</filter>
<clipPath id="clip0_3201_21442">
<rect width="1440" height="521" fill="white"/>
</clipPath>
</defs>
</svg>
